%FSLAX34Y34*%
G04 Gerber Fmt 3.4, Leading zero omitted, Abs format*
G04 (created by PCBNEW (2014-03-18 BZR 4754)-product) date Tue 01 Apr 2014 06:21:33 PM CDT*
%MOIN*%
G01*
G70*
G90*
G04 APERTURE LIST*
%ADD10C,0.006000*%
%ADD11R,0.070866X0.070866*%
%ADD12C,0.070866*%
%ADD13R,0.086614X0.086614*%
%ADD14C,0.086614*%
%ADD15C,0.062992*%
%ADD16R,0.066929X0.066929*%
%ADD17C,0.066929*%
%ADD18C,0.055118*%
G04 APERTURE END LIST*
G54D10*
G54D11*
X71500Y-45500D03*
G54D12*
X72500Y-45500D03*
X73500Y-45500D03*
X74500Y-45500D03*
G54D11*
X71500Y-43500D03*
G54D12*
X72500Y-43500D03*
X73500Y-43500D03*
X74500Y-43500D03*
G54D11*
X62000Y-43500D03*
G54D12*
X63000Y-43500D03*
X64000Y-43500D03*
X65000Y-43500D03*
G54D11*
X62000Y-45500D03*
G54D12*
X63000Y-45500D03*
X64000Y-45500D03*
X65000Y-45500D03*
G54D13*
X53500Y-43250D03*
G54D14*
X53500Y-45250D03*
G54D15*
X53000Y-31250D03*
X54000Y-31250D03*
X53000Y-33500D03*
X54000Y-33500D03*
X53000Y-35750D03*
X54000Y-35750D03*
X53000Y-38000D03*
X54000Y-38000D03*
X98000Y-31250D03*
X99000Y-31250D03*
X98000Y-33500D03*
X99000Y-33500D03*
X98000Y-35750D03*
X99000Y-35750D03*
X98000Y-38000D03*
X99000Y-38000D03*
X55250Y-31250D03*
X56250Y-31250D03*
X55250Y-33500D03*
X56250Y-33500D03*
X55250Y-35750D03*
X56250Y-35750D03*
X55250Y-38000D03*
X56250Y-38000D03*
X95750Y-31250D03*
X96750Y-31250D03*
X95750Y-33500D03*
X96750Y-33500D03*
X95750Y-35750D03*
X96750Y-35750D03*
X95750Y-38000D03*
X96750Y-38000D03*
X57500Y-31250D03*
X58500Y-31250D03*
X57500Y-33500D03*
X58500Y-33500D03*
X57500Y-35750D03*
X58500Y-35750D03*
X57500Y-38000D03*
X58500Y-38000D03*
X93500Y-31250D03*
X94500Y-31250D03*
X93500Y-33500D03*
X94500Y-33500D03*
X93500Y-35750D03*
X94500Y-35750D03*
X93500Y-38000D03*
X94500Y-38000D03*
X59750Y-31250D03*
X60750Y-31250D03*
X59750Y-33500D03*
X60750Y-33500D03*
X59750Y-35750D03*
X60750Y-35750D03*
X59750Y-38000D03*
X60750Y-38000D03*
X91250Y-31250D03*
X92250Y-31250D03*
X91250Y-33500D03*
X92250Y-33500D03*
X91250Y-35750D03*
X92250Y-35750D03*
X91250Y-38000D03*
X92250Y-38000D03*
X62000Y-31250D03*
X63000Y-31250D03*
X62000Y-33500D03*
X63000Y-33500D03*
X62000Y-35750D03*
X63000Y-35750D03*
X62000Y-38000D03*
X63000Y-38000D03*
X89000Y-31250D03*
X90000Y-31250D03*
X89000Y-33500D03*
X90000Y-33500D03*
X89000Y-35750D03*
X90000Y-35750D03*
X89000Y-38000D03*
X90000Y-38000D03*
X64250Y-31250D03*
X65250Y-31250D03*
X64250Y-33500D03*
X65250Y-33500D03*
X64250Y-35750D03*
X65250Y-35750D03*
X64250Y-38000D03*
X65250Y-38000D03*
X86750Y-31250D03*
X87750Y-31250D03*
X86750Y-33500D03*
X87750Y-33500D03*
X86750Y-35750D03*
X87750Y-35750D03*
X86750Y-38000D03*
X87750Y-38000D03*
X66500Y-31250D03*
X67500Y-31250D03*
X66500Y-33500D03*
X67500Y-33500D03*
X66500Y-35750D03*
X67500Y-35750D03*
X66500Y-38000D03*
X67500Y-38000D03*
X84500Y-31250D03*
X85500Y-31250D03*
X84500Y-33500D03*
X85500Y-33500D03*
X84500Y-35750D03*
X85500Y-35750D03*
X84500Y-38000D03*
X85500Y-38000D03*
X68750Y-31250D03*
X69750Y-31250D03*
X68750Y-33500D03*
X69750Y-33500D03*
X68750Y-35750D03*
X69750Y-35750D03*
X68750Y-38000D03*
X69750Y-38000D03*
X82250Y-31250D03*
X83250Y-31250D03*
X82250Y-33500D03*
X83250Y-33500D03*
X82250Y-35750D03*
X83250Y-35750D03*
X82250Y-38000D03*
X83250Y-38000D03*
X71000Y-31250D03*
X72000Y-31250D03*
X71000Y-33500D03*
X72000Y-33500D03*
X71000Y-35750D03*
X72000Y-35750D03*
X71000Y-38000D03*
X72000Y-38000D03*
X80000Y-31250D03*
X81000Y-31250D03*
X80000Y-33500D03*
X81000Y-33500D03*
X80000Y-35750D03*
X81000Y-35750D03*
X80000Y-38000D03*
X81000Y-38000D03*
X73250Y-31250D03*
X74250Y-31250D03*
X73250Y-33500D03*
X74250Y-33500D03*
X73250Y-35750D03*
X74250Y-35750D03*
X73250Y-38000D03*
X74250Y-38000D03*
X77750Y-31250D03*
X78750Y-31250D03*
X77750Y-33500D03*
X78750Y-33500D03*
X77750Y-35750D03*
X78750Y-35750D03*
X77750Y-38000D03*
X78750Y-38000D03*
X75500Y-31250D03*
X76500Y-31250D03*
X75500Y-33500D03*
X76500Y-33500D03*
X75500Y-35750D03*
X76500Y-35750D03*
X75500Y-38000D03*
X76500Y-38000D03*
G54D16*
X76750Y-43500D03*
G54D17*
X77750Y-43500D03*
X76750Y-44500D03*
X77750Y-44500D03*
X76750Y-45500D03*
X77750Y-45500D03*
G54D18*
X85500Y-44960D03*
X85500Y-43039D03*
M02*
