%FSLAX34Y34*%
G04 Gerber Fmt 3.4, Leading zero omitted, Abs format*
G04 (created by PCBNEW (2014-03-18 BZR 4754)-product) date Tue 01 Apr 2014 06:21:33 PM CDT*
%MOIN*%
G01*
G70*
G90*
G04 APERTURE LIST*
%ADD10C,0.006000*%
%ADD11C,0.010000*%
%ADD12C,0.007874*%
%ADD13C,0.005000*%
%ADD14C,0.015000*%
%ADD15C,0.008000*%
%ADD16C,0.005906*%
%ADD17R,0.027559X0.027559*%
%ADD18R,0.062992X0.070866*%
%ADD19R,0.013800X0.055100*%
%ADD20R,0.068504X0.017323*%
%ADD21R,0.109134X0.135906*%
%ADD22R,0.047244X0.086614*%
%ADD23R,0.137795X0.086614*%
%ADD24R,0.062992X0.023622*%
%ADD25R,0.082677X0.098425*%
%ADD26R,0.082677X0.078740*%
%ADD27R,0.070866X0.070866*%
%ADD28C,0.070866*%
%ADD29R,0.086614X0.086614*%
%ADD30C,0.086614*%
%ADD31C,0.062992*%
%ADD32R,0.066929X0.066929*%
%ADD33C,0.066929*%
%ADD34R,0.033465X0.049606*%
%ADD35C,0.055118*%
G04 APERTURE END LIST*
G54D10*
X71249Y-44735D02*
X71178Y-44735D01*
X71178Y-44307D01*
X71249Y-44307D01*
X71364Y-44521D02*
X71592Y-44521D01*
X71478Y-44635D02*
X71478Y-44407D01*
X71707Y-44735D02*
X71778Y-44735D01*
X71778Y-44307D01*
X71707Y-44307D01*
X72021Y-44750D02*
X72007Y-44735D01*
X71978Y-44692D01*
X71964Y-44664D01*
X71949Y-44621D01*
X71935Y-44550D01*
X71935Y-44492D01*
X71949Y-44421D01*
X71964Y-44378D01*
X71978Y-44350D01*
X72007Y-44307D01*
X72021Y-44292D01*
X72135Y-44635D02*
X72135Y-44435D01*
X72135Y-44492D02*
X72149Y-44464D01*
X72164Y-44450D01*
X72192Y-44435D01*
X72221Y-44435D01*
X72321Y-44521D02*
X72549Y-44521D01*
X72664Y-44750D02*
X72678Y-44735D01*
X72707Y-44692D01*
X72721Y-44664D01*
X72735Y-44621D01*
X72749Y-44550D01*
X72749Y-44492D01*
X72735Y-44421D01*
X72721Y-44378D01*
X72707Y-44350D01*
X72678Y-44307D01*
X72664Y-44292D01*
X72978Y-44750D02*
X72964Y-44735D01*
X72935Y-44692D01*
X72921Y-44664D01*
X72907Y-44621D01*
X72892Y-44550D01*
X72892Y-44492D01*
X72907Y-44421D01*
X72921Y-44378D01*
X72935Y-44350D01*
X72964Y-44307D01*
X72978Y-44292D01*
X73092Y-44635D02*
X73092Y-44335D01*
X73092Y-44450D02*
X73121Y-44435D01*
X73178Y-44435D01*
X73207Y-44450D01*
X73221Y-44464D01*
X73235Y-44492D01*
X73235Y-44578D01*
X73221Y-44607D01*
X73207Y-44621D01*
X73178Y-44635D01*
X73121Y-44635D01*
X73092Y-44621D01*
X73364Y-44521D02*
X73592Y-44521D01*
X73707Y-44750D02*
X73721Y-44735D01*
X73750Y-44692D01*
X73764Y-44664D01*
X73778Y-44621D01*
X73792Y-44550D01*
X73792Y-44492D01*
X73778Y-44421D01*
X73764Y-44378D01*
X73750Y-44350D01*
X73721Y-44307D01*
X73707Y-44292D01*
X74021Y-44750D02*
X74007Y-44735D01*
X73978Y-44692D01*
X73964Y-44664D01*
X73950Y-44621D01*
X73935Y-44550D01*
X73935Y-44492D01*
X73950Y-44421D01*
X73964Y-44378D01*
X73978Y-44350D01*
X74007Y-44307D01*
X74021Y-44292D01*
X74264Y-44435D02*
X74264Y-44678D01*
X74250Y-44707D01*
X74235Y-44721D01*
X74207Y-44735D01*
X74164Y-44735D01*
X74135Y-44721D01*
X74264Y-44621D02*
X74235Y-44635D01*
X74178Y-44635D01*
X74150Y-44621D01*
X74135Y-44607D01*
X74121Y-44578D01*
X74121Y-44492D01*
X74135Y-44464D01*
X74150Y-44450D01*
X74178Y-44435D01*
X74235Y-44435D01*
X74264Y-44450D01*
X74407Y-44521D02*
X74635Y-44521D01*
X74750Y-44750D02*
X74764Y-44735D01*
X74792Y-44692D01*
X74807Y-44664D01*
X74821Y-44621D01*
X74835Y-44550D01*
X74835Y-44492D01*
X74821Y-44421D01*
X74807Y-44378D01*
X74792Y-44350D01*
X74764Y-44307D01*
X74750Y-44292D01*
X61749Y-44735D02*
X61678Y-44735D01*
X61678Y-44307D01*
X61749Y-44307D01*
X61864Y-44521D02*
X62092Y-44521D01*
X61978Y-44635D02*
X61978Y-44407D01*
X62207Y-44735D02*
X62278Y-44735D01*
X62278Y-44307D01*
X62207Y-44307D01*
X62521Y-44750D02*
X62507Y-44735D01*
X62478Y-44692D01*
X62464Y-44664D01*
X62449Y-44621D01*
X62435Y-44550D01*
X62435Y-44492D01*
X62449Y-44421D01*
X62464Y-44378D01*
X62478Y-44350D01*
X62507Y-44307D01*
X62521Y-44292D01*
X62635Y-44635D02*
X62635Y-44435D01*
X62635Y-44492D02*
X62649Y-44464D01*
X62664Y-44450D01*
X62692Y-44435D01*
X62721Y-44435D01*
X62821Y-44521D02*
X63049Y-44521D01*
X63164Y-44750D02*
X63178Y-44735D01*
X63207Y-44692D01*
X63221Y-44664D01*
X63235Y-44621D01*
X63249Y-44550D01*
X63249Y-44492D01*
X63235Y-44421D01*
X63221Y-44378D01*
X63207Y-44350D01*
X63178Y-44307D01*
X63164Y-44292D01*
X63478Y-44750D02*
X63464Y-44735D01*
X63435Y-44692D01*
X63421Y-44664D01*
X63407Y-44621D01*
X63392Y-44550D01*
X63392Y-44492D01*
X63407Y-44421D01*
X63421Y-44378D01*
X63435Y-44350D01*
X63464Y-44307D01*
X63478Y-44292D01*
X63592Y-44635D02*
X63592Y-44335D01*
X63592Y-44450D02*
X63621Y-44435D01*
X63678Y-44435D01*
X63707Y-44450D01*
X63721Y-44464D01*
X63735Y-44492D01*
X63735Y-44578D01*
X63721Y-44607D01*
X63707Y-44621D01*
X63678Y-44635D01*
X63621Y-44635D01*
X63592Y-44621D01*
X63864Y-44521D02*
X64092Y-44521D01*
X64207Y-44750D02*
X64221Y-44735D01*
X64250Y-44692D01*
X64264Y-44664D01*
X64278Y-44621D01*
X64292Y-44550D01*
X64292Y-44492D01*
X64278Y-44421D01*
X64264Y-44378D01*
X64250Y-44350D01*
X64221Y-44307D01*
X64207Y-44292D01*
X64521Y-44750D02*
X64507Y-44735D01*
X64478Y-44692D01*
X64464Y-44664D01*
X64450Y-44621D01*
X64435Y-44550D01*
X64435Y-44492D01*
X64450Y-44421D01*
X64464Y-44378D01*
X64478Y-44350D01*
X64507Y-44307D01*
X64521Y-44292D01*
X64764Y-44435D02*
X64764Y-44678D01*
X64750Y-44707D01*
X64735Y-44721D01*
X64707Y-44735D01*
X64664Y-44735D01*
X64635Y-44721D01*
X64764Y-44621D02*
X64735Y-44635D01*
X64678Y-44635D01*
X64650Y-44621D01*
X64635Y-44607D01*
X64621Y-44578D01*
X64621Y-44492D01*
X64635Y-44464D01*
X64650Y-44450D01*
X64678Y-44435D01*
X64735Y-44435D01*
X64764Y-44450D01*
X64907Y-44521D02*
X65135Y-44521D01*
X65250Y-44750D02*
X65264Y-44735D01*
X65292Y-44692D01*
X65307Y-44664D01*
X65321Y-44621D01*
X65335Y-44550D01*
X65335Y-44492D01*
X65321Y-44421D01*
X65307Y-44378D01*
X65292Y-44350D01*
X65264Y-44307D01*
X65250Y-44292D01*
G54D11*
X55400Y-45250D02*
X56400Y-45250D01*
X55900Y-43600D02*
X55900Y-42600D01*
X55400Y-43100D02*
X56400Y-43100D01*
G54D12*
X92761Y-41513D02*
X92761Y-41986D01*
X92761Y-41986D02*
X92564Y-41986D01*
X92761Y-41513D02*
X92564Y-41513D01*
X91738Y-41986D02*
X91738Y-41513D01*
X91738Y-41513D02*
X91935Y-41513D01*
X91738Y-41986D02*
X91935Y-41986D01*
X94738Y-45736D02*
X94738Y-45263D01*
X94738Y-45263D02*
X94935Y-45263D01*
X94738Y-45736D02*
X94935Y-45736D01*
X95761Y-45263D02*
X95761Y-45736D01*
X95761Y-45736D02*
X95564Y-45736D01*
X95761Y-45263D02*
X95564Y-45263D01*
X68011Y-45513D02*
X68011Y-45986D01*
X68011Y-45986D02*
X67814Y-45986D01*
X68011Y-45513D02*
X67814Y-45513D01*
X66988Y-45986D02*
X66988Y-45513D01*
X66988Y-45513D02*
X67185Y-45513D01*
X66988Y-45986D02*
X67185Y-45986D01*
X96238Y-43236D02*
X96238Y-42763D01*
X96238Y-42763D02*
X96435Y-42763D01*
X96238Y-43236D02*
X96435Y-43236D01*
X97261Y-42763D02*
X97261Y-43236D01*
X97261Y-43236D02*
X97064Y-43236D01*
X97261Y-42763D02*
X97064Y-42763D01*
X96238Y-45486D02*
X96238Y-45013D01*
X96238Y-45013D02*
X96435Y-45013D01*
X96238Y-45486D02*
X96435Y-45486D01*
X97261Y-45013D02*
X97261Y-45486D01*
X97261Y-45486D02*
X97064Y-45486D01*
X97261Y-45013D02*
X97064Y-45013D01*
X91738Y-44236D02*
X91738Y-43763D01*
X91738Y-43763D02*
X91935Y-43763D01*
X91738Y-44236D02*
X91935Y-44236D01*
X92761Y-43763D02*
X92761Y-44236D01*
X92761Y-44236D02*
X92564Y-44236D01*
X92761Y-43763D02*
X92564Y-43763D01*
X91738Y-43486D02*
X91738Y-43013D01*
X91738Y-43013D02*
X91935Y-43013D01*
X91738Y-43486D02*
X91935Y-43486D01*
X92761Y-43013D02*
X92761Y-43486D01*
X92761Y-43486D02*
X92564Y-43486D01*
X92761Y-43013D02*
X92564Y-43013D01*
X91738Y-42736D02*
X91738Y-42263D01*
X91738Y-42263D02*
X91935Y-42263D01*
X91738Y-42736D02*
X91935Y-42736D01*
X92761Y-42263D02*
X92761Y-42736D01*
X92761Y-42736D02*
X92564Y-42736D01*
X92761Y-42263D02*
X92564Y-42263D01*
X78238Y-40236D02*
X78238Y-39763D01*
X78238Y-39763D02*
X78435Y-39763D01*
X78238Y-40236D02*
X78435Y-40236D01*
X79261Y-39763D02*
X79261Y-40236D01*
X79261Y-40236D02*
X79064Y-40236D01*
X79261Y-39763D02*
X79064Y-39763D01*
X83763Y-42738D02*
X84236Y-42738D01*
X84236Y-42738D02*
X84236Y-42935D01*
X83763Y-42738D02*
X83763Y-42935D01*
X84236Y-43761D02*
X83763Y-43761D01*
X83763Y-43761D02*
X83763Y-43564D01*
X84236Y-43761D02*
X84236Y-43564D01*
X84236Y-45261D02*
X83763Y-45261D01*
X83763Y-45261D02*
X83763Y-45064D01*
X84236Y-45261D02*
X84236Y-45064D01*
X83763Y-44238D02*
X84236Y-44238D01*
X84236Y-44238D02*
X84236Y-44435D01*
X83763Y-44238D02*
X83763Y-44435D01*
X82736Y-45261D02*
X82263Y-45261D01*
X82263Y-45261D02*
X82263Y-45064D01*
X82736Y-45261D02*
X82736Y-45064D01*
X82263Y-44238D02*
X82736Y-44238D01*
X82736Y-44238D02*
X82736Y-44435D01*
X82263Y-44238D02*
X82263Y-44435D01*
X83486Y-45261D02*
X83013Y-45261D01*
X83013Y-45261D02*
X83013Y-45064D01*
X83486Y-45261D02*
X83486Y-45064D01*
X83013Y-44238D02*
X83486Y-44238D01*
X83486Y-44238D02*
X83486Y-44435D01*
X83013Y-44238D02*
X83013Y-44435D01*
G54D13*
X91421Y-45395D02*
X91224Y-45395D01*
X91578Y-45395D02*
X91775Y-45395D01*
X91421Y-45395D02*
X91578Y-45316D01*
X91578Y-45316D02*
X91578Y-45474D01*
X91578Y-45474D02*
X91421Y-45395D01*
X91421Y-45474D02*
X91421Y-45316D01*
G54D12*
X90988Y-45986D02*
X90988Y-45513D01*
X90988Y-45513D02*
X91185Y-45513D01*
X90988Y-45986D02*
X91185Y-45986D01*
X92011Y-45513D02*
X92011Y-45986D01*
X92011Y-45986D02*
X91814Y-45986D01*
X92011Y-45513D02*
X91814Y-45513D01*
X94523Y-44988D02*
X94523Y-46011D01*
X94523Y-46011D02*
X94129Y-46011D01*
X94523Y-44988D02*
X94129Y-44988D01*
X92476Y-46011D02*
X92476Y-44988D01*
X92476Y-44988D02*
X92870Y-44988D01*
X92476Y-46011D02*
X92870Y-46011D01*
G54D14*
X88008Y-43242D02*
G75*
G03X88008Y-43242I-197J0D01*
G74*
G01*
X87516Y-41884D02*
X87516Y-43616D01*
X87516Y-43616D02*
X89484Y-43616D01*
X89484Y-43616D02*
X89484Y-41884D01*
X89484Y-41884D02*
X87516Y-41884D01*
G54D15*
X69982Y-44931D02*
G75*
G03X69982Y-44931I-78J0D01*
G74*
G01*
X69116Y-45088D02*
X69116Y-42411D01*
X69116Y-42411D02*
X67383Y-42411D01*
X67383Y-42411D02*
X67383Y-45088D01*
X67383Y-45088D02*
X69116Y-45088D01*
G54D14*
X95386Y-42508D02*
G75*
G03X95386Y-42508I-197J0D01*
G74*
G01*
X95484Y-43866D02*
X95484Y-42134D01*
X95484Y-42134D02*
X93516Y-42134D01*
X93516Y-42134D02*
X93516Y-43866D01*
X93516Y-43866D02*
X95484Y-43866D01*
G54D15*
X59312Y-42281D02*
G75*
G03X59312Y-42281I-157J0D01*
G74*
G01*
X59549Y-43541D02*
X59549Y-44958D01*
X59549Y-44958D02*
X56950Y-44958D01*
X56950Y-44958D02*
X56950Y-43541D01*
X56950Y-43541D02*
X59549Y-43541D01*
G54D14*
X81197Y-43641D02*
G75*
G03X81197Y-43641I-197J0D01*
G74*
G01*
X81278Y-44477D02*
X80721Y-44477D01*
X80721Y-44477D02*
X78494Y-42250D01*
X78494Y-42250D02*
X81000Y-39744D01*
X81000Y-39744D02*
X83505Y-42250D01*
X83505Y-42250D02*
X81278Y-44477D01*
G54D12*
X98047Y-45576D02*
X100016Y-45576D01*
X100016Y-42623D02*
X98047Y-42623D01*
X97634Y-44611D02*
G75*
G03X97634Y-44611I-118J0D01*
G74*
G01*
X100016Y-45182D02*
X100252Y-45182D01*
X100252Y-45182D02*
X100252Y-43017D01*
X100252Y-43017D02*
X100016Y-43017D01*
X100016Y-45379D02*
X100252Y-45497D01*
X100016Y-45576D02*
X100252Y-45694D01*
X100252Y-45694D02*
X100252Y-45497D01*
X100016Y-42820D02*
X100252Y-42702D01*
X100016Y-42623D02*
X100252Y-42505D01*
X100252Y-42505D02*
X100252Y-42702D01*
X100016Y-42623D02*
X100016Y-45576D01*
G54D13*
X99740Y-42623D02*
X99740Y-45576D01*
G54D12*
X98047Y-42623D02*
X98047Y-45576D01*
G54D14*
X70500Y-45000D02*
X75500Y-45000D01*
X75500Y-45000D02*
X75500Y-46000D01*
X75500Y-46000D02*
X70500Y-46000D01*
X71000Y-45500D02*
G75*
G03X70500Y-45000I-500J0D01*
G74*
G01*
X70500Y-46000D02*
G75*
G03X71000Y-45500I0J500D01*
G74*
G01*
X70500Y-45000D02*
X70500Y-46000D01*
X70500Y-43000D02*
X75500Y-43000D01*
X75500Y-43000D02*
X75500Y-44000D01*
X75500Y-44000D02*
X70500Y-44000D01*
X71000Y-43500D02*
G75*
G03X70500Y-43000I-500J0D01*
G74*
G01*
X70500Y-44000D02*
G75*
G03X71000Y-43500I0J500D01*
G74*
G01*
X70500Y-43000D02*
X70500Y-44000D01*
X61000Y-43000D02*
X66000Y-43000D01*
X66000Y-43000D02*
X66000Y-44000D01*
X66000Y-44000D02*
X61000Y-44000D01*
X61500Y-43500D02*
G75*
G03X61000Y-43000I-500J0D01*
G74*
G01*
X61000Y-44000D02*
G75*
G03X61500Y-43500I0J500D01*
G74*
G01*
X61000Y-43000D02*
X61000Y-44000D01*
X61000Y-45000D02*
X66000Y-45000D01*
X66000Y-45000D02*
X66000Y-46000D01*
X66000Y-46000D02*
X61000Y-46000D01*
X61500Y-45500D02*
G75*
G03X61000Y-45000I-500J0D01*
G74*
G01*
X61000Y-46000D02*
G75*
G03X61500Y-45500I0J500D01*
G74*
G01*
X61000Y-45000D02*
X61000Y-46000D01*
G54D11*
X53500Y-45800D02*
X52150Y-45800D01*
X53500Y-44700D02*
X52150Y-44700D01*
X53500Y-42700D02*
X52150Y-42700D01*
X53500Y-43800D02*
X52150Y-43800D01*
X53500Y-46250D02*
X52150Y-46250D01*
X52150Y-46250D02*
X52150Y-42250D01*
X52150Y-42250D02*
X53500Y-42250D01*
X53500Y-42250D02*
X55150Y-42250D01*
X55150Y-42250D02*
X55150Y-46250D01*
X55150Y-46250D02*
X53500Y-46250D01*
G54D13*
X88328Y-46104D02*
X88525Y-46104D01*
X88171Y-46104D02*
X87974Y-46104D01*
X88328Y-46104D02*
X88171Y-46183D01*
X88171Y-46183D02*
X88171Y-46025D01*
X88171Y-46025D02*
X88328Y-46104D01*
X88328Y-46025D02*
X88328Y-46183D01*
G54D12*
X88761Y-45513D02*
X88761Y-45986D01*
X88761Y-45986D02*
X88564Y-45986D01*
X88761Y-45513D02*
X88564Y-45513D01*
X87738Y-45986D02*
X87738Y-45513D01*
X87738Y-45513D02*
X87935Y-45513D01*
X87738Y-45986D02*
X87935Y-45986D01*
G54D13*
X88328Y-45354D02*
X88525Y-45354D01*
X88171Y-45354D02*
X87974Y-45354D01*
X88328Y-45354D02*
X88171Y-45433D01*
X88171Y-45433D02*
X88171Y-45275D01*
X88171Y-45275D02*
X88328Y-45354D01*
X88328Y-45275D02*
X88328Y-45433D01*
G54D12*
X88761Y-44763D02*
X88761Y-45236D01*
X88761Y-45236D02*
X88564Y-45236D01*
X88761Y-44763D02*
X88564Y-44763D01*
X87738Y-45236D02*
X87738Y-44763D01*
X87738Y-44763D02*
X87935Y-44763D01*
X87738Y-45236D02*
X87935Y-45236D01*
G54D15*
X53696Y-30856D02*
X53696Y-30462D01*
X53303Y-30462D02*
X53303Y-30856D01*
X53303Y-30856D02*
X53696Y-30659D01*
X53696Y-30659D02*
X53303Y-30462D01*
X53106Y-30659D02*
X53893Y-30659D01*
X54287Y-30659D02*
X54287Y-31840D01*
X54484Y-31250D02*
G75*
G03X54484Y-31250I-984J0D01*
G74*
G01*
X53696Y-33106D02*
X53696Y-32712D01*
X53303Y-32712D02*
X53303Y-33106D01*
X53303Y-33106D02*
X53696Y-32909D01*
X53696Y-32909D02*
X53303Y-32712D01*
X53106Y-32909D02*
X53893Y-32909D01*
X54287Y-32909D02*
X54287Y-34090D01*
X54484Y-33500D02*
G75*
G03X54484Y-33500I-984J0D01*
G74*
G01*
X53696Y-35356D02*
X53696Y-34962D01*
X53303Y-34962D02*
X53303Y-35356D01*
X53303Y-35356D02*
X53696Y-35159D01*
X53696Y-35159D02*
X53303Y-34962D01*
X53106Y-35159D02*
X53893Y-35159D01*
X54287Y-35159D02*
X54287Y-36340D01*
X54484Y-35750D02*
G75*
G03X54484Y-35750I-984J0D01*
G74*
G01*
X53696Y-37606D02*
X53696Y-37212D01*
X53303Y-37212D02*
X53303Y-37606D01*
X53303Y-37606D02*
X53696Y-37409D01*
X53696Y-37409D02*
X53303Y-37212D01*
X53106Y-37409D02*
X53893Y-37409D01*
X54287Y-37409D02*
X54287Y-38590D01*
X54484Y-38000D02*
G75*
G03X54484Y-38000I-984J0D01*
G74*
G01*
X98696Y-30856D02*
X98696Y-30462D01*
X98303Y-30462D02*
X98303Y-30856D01*
X98303Y-30856D02*
X98696Y-30659D01*
X98696Y-30659D02*
X98303Y-30462D01*
X98106Y-30659D02*
X98893Y-30659D01*
X99287Y-30659D02*
X99287Y-31840D01*
X99484Y-31250D02*
G75*
G03X99484Y-31250I-984J0D01*
G74*
G01*
X98696Y-33106D02*
X98696Y-32712D01*
X98303Y-32712D02*
X98303Y-33106D01*
X98303Y-33106D02*
X98696Y-32909D01*
X98696Y-32909D02*
X98303Y-32712D01*
X98106Y-32909D02*
X98893Y-32909D01*
X99287Y-32909D02*
X99287Y-34090D01*
X99484Y-33500D02*
G75*
G03X99484Y-33500I-984J0D01*
G74*
G01*
X98696Y-35356D02*
X98696Y-34962D01*
X98303Y-34962D02*
X98303Y-35356D01*
X98303Y-35356D02*
X98696Y-35159D01*
X98696Y-35159D02*
X98303Y-34962D01*
X98106Y-35159D02*
X98893Y-35159D01*
X99287Y-35159D02*
X99287Y-36340D01*
X99484Y-35750D02*
G75*
G03X99484Y-35750I-984J0D01*
G74*
G01*
X98696Y-37606D02*
X98696Y-37212D01*
X98303Y-37212D02*
X98303Y-37606D01*
X98303Y-37606D02*
X98696Y-37409D01*
X98696Y-37409D02*
X98303Y-37212D01*
X98106Y-37409D02*
X98893Y-37409D01*
X99287Y-37409D02*
X99287Y-38590D01*
X99484Y-38000D02*
G75*
G03X99484Y-38000I-984J0D01*
G74*
G01*
X55946Y-30856D02*
X55946Y-30462D01*
X55553Y-30462D02*
X55553Y-30856D01*
X55553Y-30856D02*
X55946Y-30659D01*
X55946Y-30659D02*
X55553Y-30462D01*
X55356Y-30659D02*
X56143Y-30659D01*
X56537Y-30659D02*
X56537Y-31840D01*
X56734Y-31250D02*
G75*
G03X56734Y-31250I-984J0D01*
G74*
G01*
X55946Y-33106D02*
X55946Y-32712D01*
X55553Y-32712D02*
X55553Y-33106D01*
X55553Y-33106D02*
X55946Y-32909D01*
X55946Y-32909D02*
X55553Y-32712D01*
X55356Y-32909D02*
X56143Y-32909D01*
X56537Y-32909D02*
X56537Y-34090D01*
X56734Y-33500D02*
G75*
G03X56734Y-33500I-984J0D01*
G74*
G01*
X55946Y-35356D02*
X55946Y-34962D01*
X55553Y-34962D02*
X55553Y-35356D01*
X55553Y-35356D02*
X55946Y-35159D01*
X55946Y-35159D02*
X55553Y-34962D01*
X55356Y-35159D02*
X56143Y-35159D01*
X56537Y-35159D02*
X56537Y-36340D01*
X56734Y-35750D02*
G75*
G03X56734Y-35750I-984J0D01*
G74*
G01*
X55946Y-37606D02*
X55946Y-37212D01*
X55553Y-37212D02*
X55553Y-37606D01*
X55553Y-37606D02*
X55946Y-37409D01*
X55946Y-37409D02*
X55553Y-37212D01*
X55356Y-37409D02*
X56143Y-37409D01*
X56537Y-37409D02*
X56537Y-38590D01*
X56734Y-38000D02*
G75*
G03X56734Y-38000I-984J0D01*
G74*
G01*
X96446Y-30856D02*
X96446Y-30462D01*
X96053Y-30462D02*
X96053Y-30856D01*
X96053Y-30856D02*
X96446Y-30659D01*
X96446Y-30659D02*
X96053Y-30462D01*
X95856Y-30659D02*
X96643Y-30659D01*
X97037Y-30659D02*
X97037Y-31840D01*
X97234Y-31250D02*
G75*
G03X97234Y-31250I-984J0D01*
G74*
G01*
X96446Y-33106D02*
X96446Y-32712D01*
X96053Y-32712D02*
X96053Y-33106D01*
X96053Y-33106D02*
X96446Y-32909D01*
X96446Y-32909D02*
X96053Y-32712D01*
X95856Y-32909D02*
X96643Y-32909D01*
X97037Y-32909D02*
X97037Y-34090D01*
X97234Y-33500D02*
G75*
G03X97234Y-33500I-984J0D01*
G74*
G01*
X96446Y-35356D02*
X96446Y-34962D01*
X96053Y-34962D02*
X96053Y-35356D01*
X96053Y-35356D02*
X96446Y-35159D01*
X96446Y-35159D02*
X96053Y-34962D01*
X95856Y-35159D02*
X96643Y-35159D01*
X97037Y-35159D02*
X97037Y-36340D01*
X97234Y-35750D02*
G75*
G03X97234Y-35750I-984J0D01*
G74*
G01*
X96446Y-37606D02*
X96446Y-37212D01*
X96053Y-37212D02*
X96053Y-37606D01*
X96053Y-37606D02*
X96446Y-37409D01*
X96446Y-37409D02*
X96053Y-37212D01*
X95856Y-37409D02*
X96643Y-37409D01*
X97037Y-37409D02*
X97037Y-38590D01*
X97234Y-38000D02*
G75*
G03X97234Y-38000I-984J0D01*
G74*
G01*
X58196Y-30856D02*
X58196Y-30462D01*
X57803Y-30462D02*
X57803Y-30856D01*
X57803Y-30856D02*
X58196Y-30659D01*
X58196Y-30659D02*
X57803Y-30462D01*
X57606Y-30659D02*
X58393Y-30659D01*
X58787Y-30659D02*
X58787Y-31840D01*
X58984Y-31250D02*
G75*
G03X58984Y-31250I-984J0D01*
G74*
G01*
X58196Y-33106D02*
X58196Y-32712D01*
X57803Y-32712D02*
X57803Y-33106D01*
X57803Y-33106D02*
X58196Y-32909D01*
X58196Y-32909D02*
X57803Y-32712D01*
X57606Y-32909D02*
X58393Y-32909D01*
X58787Y-32909D02*
X58787Y-34090D01*
X58984Y-33500D02*
G75*
G03X58984Y-33500I-984J0D01*
G74*
G01*
X58196Y-35356D02*
X58196Y-34962D01*
X57803Y-34962D02*
X57803Y-35356D01*
X57803Y-35356D02*
X58196Y-35159D01*
X58196Y-35159D02*
X57803Y-34962D01*
X57606Y-35159D02*
X58393Y-35159D01*
X58787Y-35159D02*
X58787Y-36340D01*
X58984Y-35750D02*
G75*
G03X58984Y-35750I-984J0D01*
G74*
G01*
X58196Y-37606D02*
X58196Y-37212D01*
X57803Y-37212D02*
X57803Y-37606D01*
X57803Y-37606D02*
X58196Y-37409D01*
X58196Y-37409D02*
X57803Y-37212D01*
X57606Y-37409D02*
X58393Y-37409D01*
X58787Y-37409D02*
X58787Y-38590D01*
X58984Y-38000D02*
G75*
G03X58984Y-38000I-984J0D01*
G74*
G01*
X94196Y-30856D02*
X94196Y-30462D01*
X93803Y-30462D02*
X93803Y-30856D01*
X93803Y-30856D02*
X94196Y-30659D01*
X94196Y-30659D02*
X93803Y-30462D01*
X93606Y-30659D02*
X94393Y-30659D01*
X94787Y-30659D02*
X94787Y-31840D01*
X94984Y-31250D02*
G75*
G03X94984Y-31250I-984J0D01*
G74*
G01*
X94196Y-33106D02*
X94196Y-32712D01*
X93803Y-32712D02*
X93803Y-33106D01*
X93803Y-33106D02*
X94196Y-32909D01*
X94196Y-32909D02*
X93803Y-32712D01*
X93606Y-32909D02*
X94393Y-32909D01*
X94787Y-32909D02*
X94787Y-34090D01*
X94984Y-33500D02*
G75*
G03X94984Y-33500I-984J0D01*
G74*
G01*
X94196Y-35356D02*
X94196Y-34962D01*
X93803Y-34962D02*
X93803Y-35356D01*
X93803Y-35356D02*
X94196Y-35159D01*
X94196Y-35159D02*
X93803Y-34962D01*
X93606Y-35159D02*
X94393Y-35159D01*
X94787Y-35159D02*
X94787Y-36340D01*
X94984Y-35750D02*
G75*
G03X94984Y-35750I-984J0D01*
G74*
G01*
X94196Y-37606D02*
X94196Y-37212D01*
X93803Y-37212D02*
X93803Y-37606D01*
X93803Y-37606D02*
X94196Y-37409D01*
X94196Y-37409D02*
X93803Y-37212D01*
X93606Y-37409D02*
X94393Y-37409D01*
X94787Y-37409D02*
X94787Y-38590D01*
X94984Y-38000D02*
G75*
G03X94984Y-38000I-984J0D01*
G74*
G01*
X60446Y-30856D02*
X60446Y-30462D01*
X60053Y-30462D02*
X60053Y-30856D01*
X60053Y-30856D02*
X60446Y-30659D01*
X60446Y-30659D02*
X60053Y-30462D01*
X59856Y-30659D02*
X60643Y-30659D01*
X61037Y-30659D02*
X61037Y-31840D01*
X61234Y-31250D02*
G75*
G03X61234Y-31250I-984J0D01*
G74*
G01*
X60446Y-33106D02*
X60446Y-32712D01*
X60053Y-32712D02*
X60053Y-33106D01*
X60053Y-33106D02*
X60446Y-32909D01*
X60446Y-32909D02*
X60053Y-32712D01*
X59856Y-32909D02*
X60643Y-32909D01*
X61037Y-32909D02*
X61037Y-34090D01*
X61234Y-33500D02*
G75*
G03X61234Y-33500I-984J0D01*
G74*
G01*
X60446Y-35356D02*
X60446Y-34962D01*
X60053Y-34962D02*
X60053Y-35356D01*
X60053Y-35356D02*
X60446Y-35159D01*
X60446Y-35159D02*
X60053Y-34962D01*
X59856Y-35159D02*
X60643Y-35159D01*
X61037Y-35159D02*
X61037Y-36340D01*
X61234Y-35750D02*
G75*
G03X61234Y-35750I-984J0D01*
G74*
G01*
X60446Y-37606D02*
X60446Y-37212D01*
X60053Y-37212D02*
X60053Y-37606D01*
X60053Y-37606D02*
X60446Y-37409D01*
X60446Y-37409D02*
X60053Y-37212D01*
X59856Y-37409D02*
X60643Y-37409D01*
X61037Y-37409D02*
X61037Y-38590D01*
X61234Y-38000D02*
G75*
G03X61234Y-38000I-984J0D01*
G74*
G01*
X91946Y-30856D02*
X91946Y-30462D01*
X91553Y-30462D02*
X91553Y-30856D01*
X91553Y-30856D02*
X91946Y-30659D01*
X91946Y-30659D02*
X91553Y-30462D01*
X91356Y-30659D02*
X92143Y-30659D01*
X92537Y-30659D02*
X92537Y-31840D01*
X92734Y-31250D02*
G75*
G03X92734Y-31250I-984J0D01*
G74*
G01*
X91946Y-33106D02*
X91946Y-32712D01*
X91553Y-32712D02*
X91553Y-33106D01*
X91553Y-33106D02*
X91946Y-32909D01*
X91946Y-32909D02*
X91553Y-32712D01*
X91356Y-32909D02*
X92143Y-32909D01*
X92537Y-32909D02*
X92537Y-34090D01*
X92734Y-33500D02*
G75*
G03X92734Y-33500I-984J0D01*
G74*
G01*
X91946Y-35356D02*
X91946Y-34962D01*
X91553Y-34962D02*
X91553Y-35356D01*
X91553Y-35356D02*
X91946Y-35159D01*
X91946Y-35159D02*
X91553Y-34962D01*
X91356Y-35159D02*
X92143Y-35159D01*
X92537Y-35159D02*
X92537Y-36340D01*
X92734Y-35750D02*
G75*
G03X92734Y-35750I-984J0D01*
G74*
G01*
X91946Y-37606D02*
X91946Y-37212D01*
X91553Y-37212D02*
X91553Y-37606D01*
X91553Y-37606D02*
X91946Y-37409D01*
X91946Y-37409D02*
X91553Y-37212D01*
X91356Y-37409D02*
X92143Y-37409D01*
X92537Y-37409D02*
X92537Y-38590D01*
X92734Y-38000D02*
G75*
G03X92734Y-38000I-984J0D01*
G74*
G01*
X62696Y-30856D02*
X62696Y-30462D01*
X62303Y-30462D02*
X62303Y-30856D01*
X62303Y-30856D02*
X62696Y-30659D01*
X62696Y-30659D02*
X62303Y-30462D01*
X62106Y-30659D02*
X62893Y-30659D01*
X63287Y-30659D02*
X63287Y-31840D01*
X63484Y-31250D02*
G75*
G03X63484Y-31250I-984J0D01*
G74*
G01*
X62696Y-33106D02*
X62696Y-32712D01*
X62303Y-32712D02*
X62303Y-33106D01*
X62303Y-33106D02*
X62696Y-32909D01*
X62696Y-32909D02*
X62303Y-32712D01*
X62106Y-32909D02*
X62893Y-32909D01*
X63287Y-32909D02*
X63287Y-34090D01*
X63484Y-33500D02*
G75*
G03X63484Y-33500I-984J0D01*
G74*
G01*
X62696Y-35356D02*
X62696Y-34962D01*
X62303Y-34962D02*
X62303Y-35356D01*
X62303Y-35356D02*
X62696Y-35159D01*
X62696Y-35159D02*
X62303Y-34962D01*
X62106Y-35159D02*
X62893Y-35159D01*
X63287Y-35159D02*
X63287Y-36340D01*
X63484Y-35750D02*
G75*
G03X63484Y-35750I-984J0D01*
G74*
G01*
X62696Y-37606D02*
X62696Y-37212D01*
X62303Y-37212D02*
X62303Y-37606D01*
X62303Y-37606D02*
X62696Y-37409D01*
X62696Y-37409D02*
X62303Y-37212D01*
X62106Y-37409D02*
X62893Y-37409D01*
X63287Y-37409D02*
X63287Y-38590D01*
X63484Y-38000D02*
G75*
G03X63484Y-38000I-984J0D01*
G74*
G01*
X89696Y-30856D02*
X89696Y-30462D01*
X89303Y-30462D02*
X89303Y-30856D01*
X89303Y-30856D02*
X89696Y-30659D01*
X89696Y-30659D02*
X89303Y-30462D01*
X89106Y-30659D02*
X89893Y-30659D01*
X90287Y-30659D02*
X90287Y-31840D01*
X90484Y-31250D02*
G75*
G03X90484Y-31250I-984J0D01*
G74*
G01*
X89696Y-33106D02*
X89696Y-32712D01*
X89303Y-32712D02*
X89303Y-33106D01*
X89303Y-33106D02*
X89696Y-32909D01*
X89696Y-32909D02*
X89303Y-32712D01*
X89106Y-32909D02*
X89893Y-32909D01*
X90287Y-32909D02*
X90287Y-34090D01*
X90484Y-33500D02*
G75*
G03X90484Y-33500I-984J0D01*
G74*
G01*
X89696Y-35356D02*
X89696Y-34962D01*
X89303Y-34962D02*
X89303Y-35356D01*
X89303Y-35356D02*
X89696Y-35159D01*
X89696Y-35159D02*
X89303Y-34962D01*
X89106Y-35159D02*
X89893Y-35159D01*
X90287Y-35159D02*
X90287Y-36340D01*
X90484Y-35750D02*
G75*
G03X90484Y-35750I-984J0D01*
G74*
G01*
X89696Y-37606D02*
X89696Y-37212D01*
X89303Y-37212D02*
X89303Y-37606D01*
X89303Y-37606D02*
X89696Y-37409D01*
X89696Y-37409D02*
X89303Y-37212D01*
X89106Y-37409D02*
X89893Y-37409D01*
X90287Y-37409D02*
X90287Y-38590D01*
X90484Y-38000D02*
G75*
G03X90484Y-38000I-984J0D01*
G74*
G01*
X64946Y-30856D02*
X64946Y-30462D01*
X64553Y-30462D02*
X64553Y-30856D01*
X64553Y-30856D02*
X64946Y-30659D01*
X64946Y-30659D02*
X64553Y-30462D01*
X64356Y-30659D02*
X65143Y-30659D01*
X65537Y-30659D02*
X65537Y-31840D01*
X65734Y-31250D02*
G75*
G03X65734Y-31250I-984J0D01*
G74*
G01*
X64946Y-33106D02*
X64946Y-32712D01*
X64553Y-32712D02*
X64553Y-33106D01*
X64553Y-33106D02*
X64946Y-32909D01*
X64946Y-32909D02*
X64553Y-32712D01*
X64356Y-32909D02*
X65143Y-32909D01*
X65537Y-32909D02*
X65537Y-34090D01*
X65734Y-33500D02*
G75*
G03X65734Y-33500I-984J0D01*
G74*
G01*
X64946Y-35356D02*
X64946Y-34962D01*
X64553Y-34962D02*
X64553Y-35356D01*
X64553Y-35356D02*
X64946Y-35159D01*
X64946Y-35159D02*
X64553Y-34962D01*
X64356Y-35159D02*
X65143Y-35159D01*
X65537Y-35159D02*
X65537Y-36340D01*
X65734Y-35750D02*
G75*
G03X65734Y-35750I-984J0D01*
G74*
G01*
X64946Y-37606D02*
X64946Y-37212D01*
X64553Y-37212D02*
X64553Y-37606D01*
X64553Y-37606D02*
X64946Y-37409D01*
X64946Y-37409D02*
X64553Y-37212D01*
X64356Y-37409D02*
X65143Y-37409D01*
X65537Y-37409D02*
X65537Y-38590D01*
X65734Y-38000D02*
G75*
G03X65734Y-38000I-984J0D01*
G74*
G01*
X87446Y-30856D02*
X87446Y-30462D01*
X87053Y-30462D02*
X87053Y-30856D01*
X87053Y-30856D02*
X87446Y-30659D01*
X87446Y-30659D02*
X87053Y-30462D01*
X86856Y-30659D02*
X87643Y-30659D01*
X88037Y-30659D02*
X88037Y-31840D01*
X88234Y-31250D02*
G75*
G03X88234Y-31250I-984J0D01*
G74*
G01*
X87446Y-33106D02*
X87446Y-32712D01*
X87053Y-32712D02*
X87053Y-33106D01*
X87053Y-33106D02*
X87446Y-32909D01*
X87446Y-32909D02*
X87053Y-32712D01*
X86856Y-32909D02*
X87643Y-32909D01*
X88037Y-32909D02*
X88037Y-34090D01*
X88234Y-33500D02*
G75*
G03X88234Y-33500I-984J0D01*
G74*
G01*
X87446Y-35356D02*
X87446Y-34962D01*
X87053Y-34962D02*
X87053Y-35356D01*
X87053Y-35356D02*
X87446Y-35159D01*
X87446Y-35159D02*
X87053Y-34962D01*
X86856Y-35159D02*
X87643Y-35159D01*
X88037Y-35159D02*
X88037Y-36340D01*
X88234Y-35750D02*
G75*
G03X88234Y-35750I-984J0D01*
G74*
G01*
X87446Y-37606D02*
X87446Y-37212D01*
X87053Y-37212D02*
X87053Y-37606D01*
X87053Y-37606D02*
X87446Y-37409D01*
X87446Y-37409D02*
X87053Y-37212D01*
X86856Y-37409D02*
X87643Y-37409D01*
X88037Y-37409D02*
X88037Y-38590D01*
X88234Y-38000D02*
G75*
G03X88234Y-38000I-984J0D01*
G74*
G01*
X67196Y-30856D02*
X67196Y-30462D01*
X66803Y-30462D02*
X66803Y-30856D01*
X66803Y-30856D02*
X67196Y-30659D01*
X67196Y-30659D02*
X66803Y-30462D01*
X66606Y-30659D02*
X67393Y-30659D01*
X67787Y-30659D02*
X67787Y-31840D01*
X67984Y-31250D02*
G75*
G03X67984Y-31250I-984J0D01*
G74*
G01*
X67196Y-33106D02*
X67196Y-32712D01*
X66803Y-32712D02*
X66803Y-33106D01*
X66803Y-33106D02*
X67196Y-32909D01*
X67196Y-32909D02*
X66803Y-32712D01*
X66606Y-32909D02*
X67393Y-32909D01*
X67787Y-32909D02*
X67787Y-34090D01*
X67984Y-33500D02*
G75*
G03X67984Y-33500I-984J0D01*
G74*
G01*
X67196Y-35356D02*
X67196Y-34962D01*
X66803Y-34962D02*
X66803Y-35356D01*
X66803Y-35356D02*
X67196Y-35159D01*
X67196Y-35159D02*
X66803Y-34962D01*
X66606Y-35159D02*
X67393Y-35159D01*
X67787Y-35159D02*
X67787Y-36340D01*
X67984Y-35750D02*
G75*
G03X67984Y-35750I-984J0D01*
G74*
G01*
X67196Y-37606D02*
X67196Y-37212D01*
X66803Y-37212D02*
X66803Y-37606D01*
X66803Y-37606D02*
X67196Y-37409D01*
X67196Y-37409D02*
X66803Y-37212D01*
X66606Y-37409D02*
X67393Y-37409D01*
X67787Y-37409D02*
X67787Y-38590D01*
X67984Y-38000D02*
G75*
G03X67984Y-38000I-984J0D01*
G74*
G01*
X85196Y-30856D02*
X85196Y-30462D01*
X84803Y-30462D02*
X84803Y-30856D01*
X84803Y-30856D02*
X85196Y-30659D01*
X85196Y-30659D02*
X84803Y-30462D01*
X84606Y-30659D02*
X85393Y-30659D01*
X85787Y-30659D02*
X85787Y-31840D01*
X85984Y-31250D02*
G75*
G03X85984Y-31250I-984J0D01*
G74*
G01*
X85196Y-33106D02*
X85196Y-32712D01*
X84803Y-32712D02*
X84803Y-33106D01*
X84803Y-33106D02*
X85196Y-32909D01*
X85196Y-32909D02*
X84803Y-32712D01*
X84606Y-32909D02*
X85393Y-32909D01*
X85787Y-32909D02*
X85787Y-34090D01*
X85984Y-33500D02*
G75*
G03X85984Y-33500I-984J0D01*
G74*
G01*
X85196Y-35356D02*
X85196Y-34962D01*
X84803Y-34962D02*
X84803Y-35356D01*
X84803Y-35356D02*
X85196Y-35159D01*
X85196Y-35159D02*
X84803Y-34962D01*
X84606Y-35159D02*
X85393Y-35159D01*
X85787Y-35159D02*
X85787Y-36340D01*
X85984Y-35750D02*
G75*
G03X85984Y-35750I-984J0D01*
G74*
G01*
X85196Y-37606D02*
X85196Y-37212D01*
X84803Y-37212D02*
X84803Y-37606D01*
X84803Y-37606D02*
X85196Y-37409D01*
X85196Y-37409D02*
X84803Y-37212D01*
X84606Y-37409D02*
X85393Y-37409D01*
X85787Y-37409D02*
X85787Y-38590D01*
X85984Y-38000D02*
G75*
G03X85984Y-38000I-984J0D01*
G74*
G01*
X69446Y-30856D02*
X69446Y-30462D01*
X69053Y-30462D02*
X69053Y-30856D01*
X69053Y-30856D02*
X69446Y-30659D01*
X69446Y-30659D02*
X69053Y-30462D01*
X68856Y-30659D02*
X69643Y-30659D01*
X70037Y-30659D02*
X70037Y-31840D01*
X70234Y-31250D02*
G75*
G03X70234Y-31250I-984J0D01*
G74*
G01*
X69446Y-33106D02*
X69446Y-32712D01*
X69053Y-32712D02*
X69053Y-33106D01*
X69053Y-33106D02*
X69446Y-32909D01*
X69446Y-32909D02*
X69053Y-32712D01*
X68856Y-32909D02*
X69643Y-32909D01*
X70037Y-32909D02*
X70037Y-34090D01*
X70234Y-33500D02*
G75*
G03X70234Y-33500I-984J0D01*
G74*
G01*
X69446Y-35356D02*
X69446Y-34962D01*
X69053Y-34962D02*
X69053Y-35356D01*
X69053Y-35356D02*
X69446Y-35159D01*
X69446Y-35159D02*
X69053Y-34962D01*
X68856Y-35159D02*
X69643Y-35159D01*
X70037Y-35159D02*
X70037Y-36340D01*
X70234Y-35750D02*
G75*
G03X70234Y-35750I-984J0D01*
G74*
G01*
X69446Y-37606D02*
X69446Y-37212D01*
X69053Y-37212D02*
X69053Y-37606D01*
X69053Y-37606D02*
X69446Y-37409D01*
X69446Y-37409D02*
X69053Y-37212D01*
X68856Y-37409D02*
X69643Y-37409D01*
X70037Y-37409D02*
X70037Y-38590D01*
X70234Y-38000D02*
G75*
G03X70234Y-38000I-984J0D01*
G74*
G01*
X82946Y-30856D02*
X82946Y-30462D01*
X82553Y-30462D02*
X82553Y-30856D01*
X82553Y-30856D02*
X82946Y-30659D01*
X82946Y-30659D02*
X82553Y-30462D01*
X82356Y-30659D02*
X83143Y-30659D01*
X83537Y-30659D02*
X83537Y-31840D01*
X83734Y-31250D02*
G75*
G03X83734Y-31250I-984J0D01*
G74*
G01*
X82946Y-33106D02*
X82946Y-32712D01*
X82553Y-32712D02*
X82553Y-33106D01*
X82553Y-33106D02*
X82946Y-32909D01*
X82946Y-32909D02*
X82553Y-32712D01*
X82356Y-32909D02*
X83143Y-32909D01*
X83537Y-32909D02*
X83537Y-34090D01*
X83734Y-33500D02*
G75*
G03X83734Y-33500I-984J0D01*
G74*
G01*
X82946Y-35356D02*
X82946Y-34962D01*
X82553Y-34962D02*
X82553Y-35356D01*
X82553Y-35356D02*
X82946Y-35159D01*
X82946Y-35159D02*
X82553Y-34962D01*
X82356Y-35159D02*
X83143Y-35159D01*
X83537Y-35159D02*
X83537Y-36340D01*
X83734Y-35750D02*
G75*
G03X83734Y-35750I-984J0D01*
G74*
G01*
X82946Y-37606D02*
X82946Y-37212D01*
X82553Y-37212D02*
X82553Y-37606D01*
X82553Y-37606D02*
X82946Y-37409D01*
X82946Y-37409D02*
X82553Y-37212D01*
X82356Y-37409D02*
X83143Y-37409D01*
X83537Y-37409D02*
X83537Y-38590D01*
X83734Y-38000D02*
G75*
G03X83734Y-38000I-984J0D01*
G74*
G01*
X71696Y-30856D02*
X71696Y-30462D01*
X71303Y-30462D02*
X71303Y-30856D01*
X71303Y-30856D02*
X71696Y-30659D01*
X71696Y-30659D02*
X71303Y-30462D01*
X71106Y-30659D02*
X71893Y-30659D01*
X72287Y-30659D02*
X72287Y-31840D01*
X72484Y-31250D02*
G75*
G03X72484Y-31250I-984J0D01*
G74*
G01*
X71696Y-33106D02*
X71696Y-32712D01*
X71303Y-32712D02*
X71303Y-33106D01*
X71303Y-33106D02*
X71696Y-32909D01*
X71696Y-32909D02*
X71303Y-32712D01*
X71106Y-32909D02*
X71893Y-32909D01*
X72287Y-32909D02*
X72287Y-34090D01*
X72484Y-33500D02*
G75*
G03X72484Y-33500I-984J0D01*
G74*
G01*
X71696Y-35356D02*
X71696Y-34962D01*
X71303Y-34962D02*
X71303Y-35356D01*
X71303Y-35356D02*
X71696Y-35159D01*
X71696Y-35159D02*
X71303Y-34962D01*
X71106Y-35159D02*
X71893Y-35159D01*
X72287Y-35159D02*
X72287Y-36340D01*
X72484Y-35750D02*
G75*
G03X72484Y-35750I-984J0D01*
G74*
G01*
X71696Y-37606D02*
X71696Y-37212D01*
X71303Y-37212D02*
X71303Y-37606D01*
X71303Y-37606D02*
X71696Y-37409D01*
X71696Y-37409D02*
X71303Y-37212D01*
X71106Y-37409D02*
X71893Y-37409D01*
X72287Y-37409D02*
X72287Y-38590D01*
X72484Y-38000D02*
G75*
G03X72484Y-38000I-984J0D01*
G74*
G01*
X80696Y-30856D02*
X80696Y-30462D01*
X80303Y-30462D02*
X80303Y-30856D01*
X80303Y-30856D02*
X80696Y-30659D01*
X80696Y-30659D02*
X80303Y-30462D01*
X80106Y-30659D02*
X80893Y-30659D01*
X81287Y-30659D02*
X81287Y-31840D01*
X81484Y-31250D02*
G75*
G03X81484Y-31250I-984J0D01*
G74*
G01*
X80696Y-33106D02*
X80696Y-32712D01*
X80303Y-32712D02*
X80303Y-33106D01*
X80303Y-33106D02*
X80696Y-32909D01*
X80696Y-32909D02*
X80303Y-32712D01*
X80106Y-32909D02*
X80893Y-32909D01*
X81287Y-32909D02*
X81287Y-34090D01*
X81484Y-33500D02*
G75*
G03X81484Y-33500I-984J0D01*
G74*
G01*
X80696Y-35356D02*
X80696Y-34962D01*
X80303Y-34962D02*
X80303Y-35356D01*
X80303Y-35356D02*
X80696Y-35159D01*
X80696Y-35159D02*
X80303Y-34962D01*
X80106Y-35159D02*
X80893Y-35159D01*
X81287Y-35159D02*
X81287Y-36340D01*
X81484Y-35750D02*
G75*
G03X81484Y-35750I-984J0D01*
G74*
G01*
X80696Y-37606D02*
X80696Y-37212D01*
X80303Y-37212D02*
X80303Y-37606D01*
X80303Y-37606D02*
X80696Y-37409D01*
X80696Y-37409D02*
X80303Y-37212D01*
X80106Y-37409D02*
X80893Y-37409D01*
X81287Y-37409D02*
X81287Y-38590D01*
X81484Y-38000D02*
G75*
G03X81484Y-38000I-984J0D01*
G74*
G01*
X73946Y-30856D02*
X73946Y-30462D01*
X73553Y-30462D02*
X73553Y-30856D01*
X73553Y-30856D02*
X73946Y-30659D01*
X73946Y-30659D02*
X73553Y-30462D01*
X73356Y-30659D02*
X74143Y-30659D01*
X74537Y-30659D02*
X74537Y-31840D01*
X74734Y-31250D02*
G75*
G03X74734Y-31250I-984J0D01*
G74*
G01*
X73946Y-33106D02*
X73946Y-32712D01*
X73553Y-32712D02*
X73553Y-33106D01*
X73553Y-33106D02*
X73946Y-32909D01*
X73946Y-32909D02*
X73553Y-32712D01*
X73356Y-32909D02*
X74143Y-32909D01*
X74537Y-32909D02*
X74537Y-34090D01*
X74734Y-33500D02*
G75*
G03X74734Y-33500I-984J0D01*
G74*
G01*
X73946Y-35356D02*
X73946Y-34962D01*
X73553Y-34962D02*
X73553Y-35356D01*
X73553Y-35356D02*
X73946Y-35159D01*
X73946Y-35159D02*
X73553Y-34962D01*
X73356Y-35159D02*
X74143Y-35159D01*
X74537Y-35159D02*
X74537Y-36340D01*
X74734Y-35750D02*
G75*
G03X74734Y-35750I-984J0D01*
G74*
G01*
X73946Y-37606D02*
X73946Y-37212D01*
X73553Y-37212D02*
X73553Y-37606D01*
X73553Y-37606D02*
X73946Y-37409D01*
X73946Y-37409D02*
X73553Y-37212D01*
X73356Y-37409D02*
X74143Y-37409D01*
X74537Y-37409D02*
X74537Y-38590D01*
X74734Y-38000D02*
G75*
G03X74734Y-38000I-984J0D01*
G74*
G01*
X78446Y-30856D02*
X78446Y-30462D01*
X78053Y-30462D02*
X78053Y-30856D01*
X78053Y-30856D02*
X78446Y-30659D01*
X78446Y-30659D02*
X78053Y-30462D01*
X77856Y-30659D02*
X78643Y-30659D01*
X79037Y-30659D02*
X79037Y-31840D01*
X79234Y-31250D02*
G75*
G03X79234Y-31250I-984J0D01*
G74*
G01*
X78446Y-33106D02*
X78446Y-32712D01*
X78053Y-32712D02*
X78053Y-33106D01*
X78053Y-33106D02*
X78446Y-32909D01*
X78446Y-32909D02*
X78053Y-32712D01*
X77856Y-32909D02*
X78643Y-32909D01*
X79037Y-32909D02*
X79037Y-34090D01*
X79234Y-33500D02*
G75*
G03X79234Y-33500I-984J0D01*
G74*
G01*
X78446Y-35356D02*
X78446Y-34962D01*
X78053Y-34962D02*
X78053Y-35356D01*
X78053Y-35356D02*
X78446Y-35159D01*
X78446Y-35159D02*
X78053Y-34962D01*
X77856Y-35159D02*
X78643Y-35159D01*
X79037Y-35159D02*
X79037Y-36340D01*
X79234Y-35750D02*
G75*
G03X79234Y-35750I-984J0D01*
G74*
G01*
X78446Y-37606D02*
X78446Y-37212D01*
X78053Y-37212D02*
X78053Y-37606D01*
X78053Y-37606D02*
X78446Y-37409D01*
X78446Y-37409D02*
X78053Y-37212D01*
X77856Y-37409D02*
X78643Y-37409D01*
X79037Y-37409D02*
X79037Y-38590D01*
X79234Y-38000D02*
G75*
G03X79234Y-38000I-984J0D01*
G74*
G01*
X76196Y-30856D02*
X76196Y-30462D01*
X75803Y-30462D02*
X75803Y-30856D01*
X75803Y-30856D02*
X76196Y-30659D01*
X76196Y-30659D02*
X75803Y-30462D01*
X75606Y-30659D02*
X76393Y-30659D01*
X76787Y-30659D02*
X76787Y-31840D01*
X76984Y-31250D02*
G75*
G03X76984Y-31250I-984J0D01*
G74*
G01*
X76196Y-33106D02*
X76196Y-32712D01*
X75803Y-32712D02*
X75803Y-33106D01*
X75803Y-33106D02*
X76196Y-32909D01*
X76196Y-32909D02*
X75803Y-32712D01*
X75606Y-32909D02*
X76393Y-32909D01*
X76787Y-32909D02*
X76787Y-34090D01*
X76984Y-33500D02*
G75*
G03X76984Y-33500I-984J0D01*
G74*
G01*
X76196Y-35356D02*
X76196Y-34962D01*
X75803Y-34962D02*
X75803Y-35356D01*
X75803Y-35356D02*
X76196Y-35159D01*
X76196Y-35159D02*
X75803Y-34962D01*
X75606Y-35159D02*
X76393Y-35159D01*
X76787Y-35159D02*
X76787Y-36340D01*
X76984Y-35750D02*
G75*
G03X76984Y-35750I-984J0D01*
G74*
G01*
X76196Y-37606D02*
X76196Y-37212D01*
X75803Y-37212D02*
X75803Y-37606D01*
X75803Y-37606D02*
X76196Y-37409D01*
X76196Y-37409D02*
X75803Y-37212D01*
X75606Y-37409D02*
X76393Y-37409D01*
X76787Y-37409D02*
X76787Y-38590D01*
X76984Y-38000D02*
G75*
G03X76984Y-38000I-984J0D01*
G74*
G01*
G54D14*
X76291Y-42900D02*
G75*
G03X76291Y-42900I-141J0D01*
G74*
G01*
X78250Y-43000D02*
X76250Y-43000D01*
X76250Y-43000D02*
X76250Y-46000D01*
X76250Y-46000D02*
X78250Y-46000D01*
X78250Y-46000D02*
X78250Y-43000D01*
G54D16*
X84159Y-40314D02*
X85340Y-40314D01*
X85340Y-40314D02*
X85340Y-39685D01*
X85340Y-39685D02*
X84159Y-39685D01*
X84159Y-39685D02*
X84159Y-40314D01*
X84444Y-40826D02*
G75*
G03X84444Y-40826I-88J0D01*
G74*
G01*
X85909Y-40314D02*
X87090Y-40314D01*
X87090Y-40314D02*
X87090Y-39685D01*
X87090Y-39685D02*
X85909Y-39685D01*
X85909Y-39685D02*
X85909Y-40314D01*
X86194Y-40826D02*
G75*
G03X86194Y-40826I-88J0D01*
G74*
G01*
X87659Y-40314D02*
X88840Y-40314D01*
X88840Y-40314D02*
X88840Y-39685D01*
X88840Y-39685D02*
X87659Y-39685D01*
X87659Y-39685D02*
X87659Y-40314D01*
X87944Y-40826D02*
G75*
G03X87944Y-40826I-88J0D01*
G74*
G01*
X89409Y-40314D02*
X90590Y-40314D01*
X90590Y-40314D02*
X90590Y-39685D01*
X90590Y-39685D02*
X89409Y-39685D01*
X89409Y-39685D02*
X89409Y-40314D01*
X89694Y-40826D02*
G75*
G03X89694Y-40826I-88J0D01*
G74*
G01*
X91159Y-40314D02*
X92340Y-40314D01*
X92340Y-40314D02*
X92340Y-39685D01*
X92340Y-39685D02*
X91159Y-39685D01*
X91159Y-39685D02*
X91159Y-40314D01*
X91444Y-40826D02*
G75*
G03X91444Y-40826I-88J0D01*
G74*
G01*
X92909Y-40314D02*
X94090Y-40314D01*
X94090Y-40314D02*
X94090Y-39685D01*
X94090Y-39685D02*
X92909Y-39685D01*
X92909Y-39685D02*
X92909Y-40314D01*
X93194Y-40826D02*
G75*
G03X93194Y-40826I-88J0D01*
G74*
G01*
X94659Y-40314D02*
X95840Y-40314D01*
X95840Y-40314D02*
X95840Y-39685D01*
X95840Y-39685D02*
X94659Y-39685D01*
X94659Y-39685D02*
X94659Y-40314D01*
X94944Y-40826D02*
G75*
G03X94944Y-40826I-88J0D01*
G74*
G01*
X96409Y-40314D02*
X97590Y-40314D01*
X97590Y-40314D02*
X97590Y-39685D01*
X97590Y-39685D02*
X96409Y-39685D01*
X96409Y-39685D02*
X96409Y-40314D01*
X96694Y-40826D02*
G75*
G03X96694Y-40826I-88J0D01*
G74*
G01*
X52909Y-40314D02*
X54090Y-40314D01*
X54090Y-40314D02*
X54090Y-39685D01*
X54090Y-39685D02*
X52909Y-39685D01*
X52909Y-39685D02*
X52909Y-40314D01*
X53194Y-40826D02*
G75*
G03X53194Y-40826I-88J0D01*
G74*
G01*
X55159Y-40314D02*
X56340Y-40314D01*
X56340Y-40314D02*
X56340Y-39685D01*
X56340Y-39685D02*
X55159Y-39685D01*
X55159Y-39685D02*
X55159Y-40314D01*
X55444Y-40826D02*
G75*
G03X55444Y-40826I-88J0D01*
G74*
G01*
X57409Y-40314D02*
X58590Y-40314D01*
X58590Y-40314D02*
X58590Y-39685D01*
X58590Y-39685D02*
X57409Y-39685D01*
X57409Y-39685D02*
X57409Y-40314D01*
X57694Y-40826D02*
G75*
G03X57694Y-40826I-88J0D01*
G74*
G01*
X59659Y-40314D02*
X60840Y-40314D01*
X60840Y-40314D02*
X60840Y-39685D01*
X60840Y-39685D02*
X59659Y-39685D01*
X59659Y-39685D02*
X59659Y-40314D01*
X59944Y-40826D02*
G75*
G03X59944Y-40826I-88J0D01*
G74*
G01*
X61909Y-40314D02*
X63090Y-40314D01*
X63090Y-40314D02*
X63090Y-39685D01*
X63090Y-39685D02*
X61909Y-39685D01*
X61909Y-39685D02*
X61909Y-40314D01*
X62194Y-40826D02*
G75*
G03X62194Y-40826I-88J0D01*
G74*
G01*
X64159Y-40314D02*
X65340Y-40314D01*
X65340Y-40314D02*
X65340Y-39685D01*
X65340Y-39685D02*
X64159Y-39685D01*
X64159Y-39685D02*
X64159Y-40314D01*
X64444Y-40826D02*
G75*
G03X64444Y-40826I-88J0D01*
G74*
G01*
X66409Y-40314D02*
X67590Y-40314D01*
X67590Y-40314D02*
X67590Y-39685D01*
X67590Y-39685D02*
X66409Y-39685D01*
X66409Y-39685D02*
X66409Y-40314D01*
X66694Y-40826D02*
G75*
G03X66694Y-40826I-88J0D01*
G74*
G01*
X68659Y-40314D02*
X69840Y-40314D01*
X69840Y-40314D02*
X69840Y-39685D01*
X69840Y-39685D02*
X68659Y-39685D01*
X68659Y-39685D02*
X68659Y-40314D01*
X68944Y-40826D02*
G75*
G03X68944Y-40826I-88J0D01*
G74*
G01*
X70909Y-40314D02*
X72090Y-40314D01*
X72090Y-40314D02*
X72090Y-39685D01*
X72090Y-39685D02*
X70909Y-39685D01*
X70909Y-39685D02*
X70909Y-40314D01*
X71194Y-40826D02*
G75*
G03X71194Y-40826I-88J0D01*
G74*
G01*
X73159Y-40314D02*
X74340Y-40314D01*
X74340Y-40314D02*
X74340Y-39685D01*
X74340Y-39685D02*
X73159Y-39685D01*
X73159Y-39685D02*
X73159Y-40314D01*
X73444Y-40826D02*
G75*
G03X73444Y-40826I-88J0D01*
G74*
G01*
X75409Y-40314D02*
X76590Y-40314D01*
X76590Y-40314D02*
X76590Y-39685D01*
X76590Y-39685D02*
X75409Y-39685D01*
X75409Y-39685D02*
X75409Y-40314D01*
X75694Y-40826D02*
G75*
G03X75694Y-40826I-88J0D01*
G74*
G01*
G54D12*
X68488Y-45986D02*
X68488Y-45513D01*
X68488Y-45513D02*
X68685Y-45513D01*
X68488Y-45986D02*
X68685Y-45986D01*
X69511Y-45513D02*
X69511Y-45986D01*
X69511Y-45986D02*
X69314Y-45986D01*
X69511Y-45513D02*
X69314Y-45513D01*
X90486Y-43261D02*
X90013Y-43261D01*
X90013Y-43261D02*
X90013Y-43064D01*
X90486Y-43261D02*
X90486Y-43064D01*
X90013Y-42238D02*
X90486Y-42238D01*
X90486Y-42238D02*
X90486Y-42435D01*
X90013Y-42238D02*
X90013Y-42435D01*
X97261Y-44263D02*
X97261Y-44736D01*
X97261Y-44736D02*
X97064Y-44736D01*
X97261Y-44263D02*
X97064Y-44263D01*
X96238Y-44736D02*
X96238Y-44263D01*
X96238Y-44263D02*
X96435Y-44263D01*
X96238Y-44736D02*
X96435Y-44736D01*
X97261Y-43513D02*
X97261Y-43986D01*
X97261Y-43986D02*
X97064Y-43986D01*
X97261Y-43513D02*
X97064Y-43513D01*
X96238Y-43986D02*
X96238Y-43513D01*
X96238Y-43513D02*
X96435Y-43513D01*
X96238Y-43986D02*
X96435Y-43986D01*
X90011Y-45513D02*
X90011Y-45986D01*
X90011Y-45986D02*
X89814Y-45986D01*
X90011Y-45513D02*
X89814Y-45513D01*
X88988Y-45986D02*
X88988Y-45513D01*
X88988Y-45513D02*
X89185Y-45513D01*
X88988Y-45986D02*
X89185Y-45986D01*
X90011Y-44763D02*
X90011Y-45236D01*
X90011Y-45236D02*
X89814Y-45236D01*
X90011Y-44763D02*
X89814Y-44763D01*
X88988Y-45236D02*
X88988Y-44763D01*
X88988Y-44763D02*
X89185Y-44763D01*
X88988Y-45236D02*
X89185Y-45236D01*
X54736Y-40011D02*
X54263Y-40011D01*
X54263Y-40011D02*
X54263Y-39814D01*
X54736Y-40011D02*
X54736Y-39814D01*
X54263Y-38988D02*
X54736Y-38988D01*
X54736Y-38988D02*
X54736Y-39185D01*
X54263Y-38988D02*
X54263Y-39185D01*
X56986Y-40011D02*
X56513Y-40011D01*
X56513Y-40011D02*
X56513Y-39814D01*
X56986Y-40011D02*
X56986Y-39814D01*
X56513Y-38988D02*
X56986Y-38988D01*
X56986Y-38988D02*
X56986Y-39185D01*
X56513Y-38988D02*
X56513Y-39185D01*
X59236Y-40011D02*
X58763Y-40011D01*
X58763Y-40011D02*
X58763Y-39814D01*
X59236Y-40011D02*
X59236Y-39814D01*
X58763Y-38988D02*
X59236Y-38988D01*
X59236Y-38988D02*
X59236Y-39185D01*
X58763Y-38988D02*
X58763Y-39185D01*
X61486Y-40011D02*
X61013Y-40011D01*
X61013Y-40011D02*
X61013Y-39814D01*
X61486Y-40011D02*
X61486Y-39814D01*
X61013Y-38988D02*
X61486Y-38988D01*
X61486Y-38988D02*
X61486Y-39185D01*
X61013Y-38988D02*
X61013Y-39185D01*
X63736Y-40011D02*
X63263Y-40011D01*
X63263Y-40011D02*
X63263Y-39814D01*
X63736Y-40011D02*
X63736Y-39814D01*
X63263Y-38988D02*
X63736Y-38988D01*
X63736Y-38988D02*
X63736Y-39185D01*
X63263Y-38988D02*
X63263Y-39185D01*
X65986Y-40011D02*
X65513Y-40011D01*
X65513Y-40011D02*
X65513Y-39814D01*
X65986Y-40011D02*
X65986Y-39814D01*
X65513Y-38988D02*
X65986Y-38988D01*
X65986Y-38988D02*
X65986Y-39185D01*
X65513Y-38988D02*
X65513Y-39185D01*
X68236Y-40011D02*
X67763Y-40011D01*
X67763Y-40011D02*
X67763Y-39814D01*
X68236Y-40011D02*
X68236Y-39814D01*
X67763Y-38988D02*
X68236Y-38988D01*
X68236Y-38988D02*
X68236Y-39185D01*
X67763Y-38988D02*
X67763Y-39185D01*
X70486Y-40011D02*
X70013Y-40011D01*
X70013Y-40011D02*
X70013Y-39814D01*
X70486Y-40011D02*
X70486Y-39814D01*
X70013Y-38988D02*
X70486Y-38988D01*
X70486Y-38988D02*
X70486Y-39185D01*
X70013Y-38988D02*
X70013Y-39185D01*
X72736Y-40011D02*
X72263Y-40011D01*
X72263Y-40011D02*
X72263Y-39814D01*
X72736Y-40011D02*
X72736Y-39814D01*
X72263Y-38988D02*
X72736Y-38988D01*
X72736Y-38988D02*
X72736Y-39185D01*
X72263Y-38988D02*
X72263Y-39185D01*
X74986Y-40011D02*
X74513Y-40011D01*
X74513Y-40011D02*
X74513Y-39814D01*
X74986Y-40011D02*
X74986Y-39814D01*
X74513Y-38988D02*
X74986Y-38988D01*
X74986Y-38988D02*
X74986Y-39185D01*
X74513Y-38988D02*
X74513Y-39185D01*
X77236Y-40011D02*
X76763Y-40011D01*
X76763Y-40011D02*
X76763Y-39814D01*
X77236Y-40011D02*
X77236Y-39814D01*
X76763Y-38988D02*
X77236Y-38988D01*
X77236Y-38988D02*
X77236Y-39185D01*
X76763Y-38988D02*
X76763Y-39185D01*
G54D14*
X86484Y-42818D02*
X86484Y-45181D01*
X84515Y-45181D02*
X84515Y-42818D01*
X84515Y-45181D02*
G75*
G03X85500Y-46165I984J0D01*
G74*
G01*
X85500Y-46165D02*
G75*
G03X86484Y-45181I0J984D01*
G74*
G01*
X86484Y-42818D02*
G75*
G03X85500Y-41834I-984J0D01*
G74*
G01*
X85500Y-41834D02*
G75*
G03X84515Y-42818I0J-984D01*
G74*
G01*
G54D15*
X58123Y-41338D02*
X58123Y-42361D01*
X58123Y-42361D02*
X57729Y-42361D01*
X58123Y-41338D02*
X57729Y-41338D01*
X56076Y-42361D02*
X56076Y-41338D01*
X56076Y-41338D02*
X56470Y-41338D01*
X56076Y-42361D02*
X56470Y-42361D01*
X58376Y-42361D02*
X58376Y-41338D01*
X58376Y-41338D02*
X58770Y-41338D01*
X58376Y-42361D02*
X58770Y-42361D01*
X60423Y-41338D02*
X60423Y-42361D01*
X60423Y-42361D02*
X60029Y-42361D01*
X60423Y-41338D02*
X60029Y-41338D01*
G54D10*
X91200Y-41857D02*
X91185Y-41871D01*
X91142Y-41885D01*
X91114Y-41885D01*
X91071Y-41871D01*
X91042Y-41842D01*
X91028Y-41814D01*
X91014Y-41757D01*
X91014Y-41714D01*
X91028Y-41657D01*
X91042Y-41628D01*
X91071Y-41600D01*
X91114Y-41585D01*
X91142Y-41585D01*
X91185Y-41600D01*
X91200Y-41614D01*
X91485Y-41885D02*
X91314Y-41885D01*
X91400Y-41885D02*
X91400Y-41585D01*
X91371Y-41628D01*
X91342Y-41657D01*
X91314Y-41671D01*
X95200Y-45107D02*
X95185Y-45121D01*
X95142Y-45135D01*
X95114Y-45135D01*
X95071Y-45121D01*
X95042Y-45092D01*
X95028Y-45064D01*
X95014Y-45007D01*
X95014Y-44964D01*
X95028Y-44907D01*
X95042Y-44878D01*
X95071Y-44850D01*
X95114Y-44835D01*
X95142Y-44835D01*
X95185Y-44850D01*
X95200Y-44864D01*
X95314Y-44864D02*
X95328Y-44850D01*
X95357Y-44835D01*
X95428Y-44835D01*
X95457Y-44850D01*
X95471Y-44864D01*
X95485Y-44892D01*
X95485Y-44921D01*
X95471Y-44964D01*
X95300Y-45135D01*
X95485Y-45135D01*
X66600Y-45857D02*
X66585Y-45871D01*
X66542Y-45885D01*
X66514Y-45885D01*
X66471Y-45871D01*
X66442Y-45842D01*
X66428Y-45814D01*
X66414Y-45757D01*
X66414Y-45714D01*
X66428Y-45657D01*
X66442Y-45628D01*
X66471Y-45600D01*
X66514Y-45585D01*
X66542Y-45585D01*
X66585Y-45600D01*
X66600Y-45614D01*
X66700Y-45585D02*
X66885Y-45585D01*
X66785Y-45700D01*
X66828Y-45700D01*
X66857Y-45714D01*
X66871Y-45728D01*
X66885Y-45757D01*
X66885Y-45828D01*
X66871Y-45857D01*
X66857Y-45871D01*
X66828Y-45885D01*
X66742Y-45885D01*
X66714Y-45871D01*
X66700Y-45857D01*
X95850Y-43107D02*
X95835Y-43121D01*
X95792Y-43135D01*
X95764Y-43135D01*
X95721Y-43121D01*
X95692Y-43092D01*
X95678Y-43064D01*
X95664Y-43007D01*
X95664Y-42964D01*
X95678Y-42907D01*
X95692Y-42878D01*
X95721Y-42850D01*
X95764Y-42835D01*
X95792Y-42835D01*
X95835Y-42850D01*
X95850Y-42864D01*
X96107Y-42935D02*
X96107Y-43135D01*
X96035Y-42821D02*
X95964Y-43035D01*
X96150Y-43035D01*
X96700Y-45857D02*
X96685Y-45871D01*
X96642Y-45885D01*
X96614Y-45885D01*
X96571Y-45871D01*
X96542Y-45842D01*
X96528Y-45814D01*
X96514Y-45757D01*
X96514Y-45714D01*
X96528Y-45657D01*
X96542Y-45628D01*
X96571Y-45600D01*
X96614Y-45585D01*
X96642Y-45585D01*
X96685Y-45600D01*
X96700Y-45614D01*
X96971Y-45585D02*
X96828Y-45585D01*
X96814Y-45728D01*
X96828Y-45714D01*
X96857Y-45700D01*
X96928Y-45700D01*
X96957Y-45714D01*
X96971Y-45728D01*
X96985Y-45757D01*
X96985Y-45828D01*
X96971Y-45857D01*
X96957Y-45871D01*
X96928Y-45885D01*
X96857Y-45885D01*
X96828Y-45871D01*
X96814Y-45857D01*
X91200Y-44107D02*
X91185Y-44121D01*
X91142Y-44135D01*
X91114Y-44135D01*
X91071Y-44121D01*
X91042Y-44092D01*
X91028Y-44064D01*
X91014Y-44007D01*
X91014Y-43964D01*
X91028Y-43907D01*
X91042Y-43878D01*
X91071Y-43850D01*
X91114Y-43835D01*
X91142Y-43835D01*
X91185Y-43850D01*
X91200Y-43864D01*
X91457Y-43835D02*
X91400Y-43835D01*
X91371Y-43850D01*
X91357Y-43864D01*
X91328Y-43907D01*
X91314Y-43964D01*
X91314Y-44078D01*
X91328Y-44107D01*
X91342Y-44121D01*
X91371Y-44135D01*
X91428Y-44135D01*
X91457Y-44121D01*
X91471Y-44107D01*
X91485Y-44078D01*
X91485Y-44007D01*
X91471Y-43978D01*
X91457Y-43964D01*
X91428Y-43950D01*
X91371Y-43950D01*
X91342Y-43964D01*
X91328Y-43978D01*
X91314Y-44007D01*
X91200Y-43357D02*
X91185Y-43371D01*
X91142Y-43385D01*
X91114Y-43385D01*
X91071Y-43371D01*
X91042Y-43342D01*
X91028Y-43314D01*
X91014Y-43257D01*
X91014Y-43214D01*
X91028Y-43157D01*
X91042Y-43128D01*
X91071Y-43100D01*
X91114Y-43085D01*
X91142Y-43085D01*
X91185Y-43100D01*
X91200Y-43114D01*
X91300Y-43085D02*
X91500Y-43085D01*
X91371Y-43385D01*
X90950Y-42607D02*
X90935Y-42621D01*
X90892Y-42635D01*
X90864Y-42635D01*
X90821Y-42621D01*
X90792Y-42592D01*
X90778Y-42564D01*
X90764Y-42507D01*
X90764Y-42464D01*
X90778Y-42407D01*
X90792Y-42378D01*
X90821Y-42350D01*
X90864Y-42335D01*
X90892Y-42335D01*
X90935Y-42350D01*
X90950Y-42364D01*
X91121Y-42464D02*
X91092Y-42450D01*
X91078Y-42435D01*
X91064Y-42407D01*
X91064Y-42392D01*
X91078Y-42364D01*
X91092Y-42350D01*
X91121Y-42335D01*
X91178Y-42335D01*
X91207Y-42350D01*
X91221Y-42364D01*
X91235Y-42392D01*
X91235Y-42407D01*
X91221Y-42435D01*
X91207Y-42450D01*
X91178Y-42464D01*
X91121Y-42464D01*
X91092Y-42478D01*
X91078Y-42492D01*
X91064Y-42521D01*
X91064Y-42578D01*
X91078Y-42607D01*
X91092Y-42621D01*
X91121Y-42635D01*
X91178Y-42635D01*
X91207Y-42621D01*
X91221Y-42607D01*
X91235Y-42578D01*
X91235Y-42521D01*
X91221Y-42492D01*
X91207Y-42478D01*
X91178Y-42464D01*
X78700Y-39607D02*
X78685Y-39621D01*
X78642Y-39635D01*
X78614Y-39635D01*
X78571Y-39621D01*
X78542Y-39592D01*
X78528Y-39564D01*
X78514Y-39507D01*
X78514Y-39464D01*
X78528Y-39407D01*
X78542Y-39378D01*
X78571Y-39350D01*
X78614Y-39335D01*
X78642Y-39335D01*
X78685Y-39350D01*
X78700Y-39364D01*
X78842Y-39635D02*
X78900Y-39635D01*
X78928Y-39621D01*
X78942Y-39607D01*
X78971Y-39564D01*
X78985Y-39507D01*
X78985Y-39392D01*
X78971Y-39364D01*
X78957Y-39350D01*
X78928Y-39335D01*
X78871Y-39335D01*
X78842Y-39350D01*
X78828Y-39364D01*
X78814Y-39392D01*
X78814Y-39464D01*
X78828Y-39492D01*
X78842Y-39507D01*
X78871Y-39521D01*
X78928Y-39521D01*
X78957Y-39507D01*
X78971Y-39492D01*
X78985Y-39464D01*
X83607Y-43442D02*
X83621Y-43457D01*
X83635Y-43500D01*
X83635Y-43528D01*
X83621Y-43571D01*
X83592Y-43600D01*
X83564Y-43614D01*
X83507Y-43628D01*
X83464Y-43628D01*
X83407Y-43614D01*
X83378Y-43600D01*
X83350Y-43571D01*
X83335Y-43528D01*
X83335Y-43500D01*
X83350Y-43457D01*
X83364Y-43442D01*
X83635Y-43157D02*
X83635Y-43328D01*
X83635Y-43242D02*
X83335Y-43242D01*
X83378Y-43271D01*
X83407Y-43300D01*
X83421Y-43328D01*
X83335Y-42971D02*
X83335Y-42942D01*
X83350Y-42914D01*
X83364Y-42900D01*
X83392Y-42885D01*
X83450Y-42871D01*
X83521Y-42871D01*
X83578Y-42885D01*
X83607Y-42900D01*
X83621Y-42914D01*
X83635Y-42942D01*
X83635Y-42971D01*
X83621Y-43000D01*
X83607Y-43014D01*
X83578Y-43028D01*
X83521Y-43042D01*
X83450Y-43042D01*
X83392Y-43028D01*
X83364Y-43014D01*
X83350Y-43000D01*
X83335Y-42971D01*
X84107Y-45942D02*
X84121Y-45957D01*
X84135Y-46000D01*
X84135Y-46028D01*
X84121Y-46071D01*
X84092Y-46100D01*
X84064Y-46114D01*
X84007Y-46128D01*
X83964Y-46128D01*
X83907Y-46114D01*
X83878Y-46100D01*
X83850Y-46071D01*
X83835Y-46028D01*
X83835Y-46000D01*
X83850Y-45957D01*
X83864Y-45942D01*
X84135Y-45657D02*
X84135Y-45828D01*
X84135Y-45742D02*
X83835Y-45742D01*
X83878Y-45771D01*
X83907Y-45800D01*
X83921Y-45828D01*
X84135Y-45371D02*
X84135Y-45542D01*
X84135Y-45457D02*
X83835Y-45457D01*
X83878Y-45485D01*
X83907Y-45514D01*
X83921Y-45542D01*
X82607Y-45942D02*
X82621Y-45957D01*
X82635Y-46000D01*
X82635Y-46028D01*
X82621Y-46071D01*
X82592Y-46100D01*
X82564Y-46114D01*
X82507Y-46128D01*
X82464Y-46128D01*
X82407Y-46114D01*
X82378Y-46100D01*
X82350Y-46071D01*
X82335Y-46028D01*
X82335Y-46000D01*
X82350Y-45957D01*
X82364Y-45942D01*
X82635Y-45657D02*
X82635Y-45828D01*
X82635Y-45742D02*
X82335Y-45742D01*
X82378Y-45771D01*
X82407Y-45800D01*
X82421Y-45828D01*
X82364Y-45542D02*
X82350Y-45528D01*
X82335Y-45500D01*
X82335Y-45428D01*
X82350Y-45400D01*
X82364Y-45385D01*
X82392Y-45371D01*
X82421Y-45371D01*
X82464Y-45385D01*
X82635Y-45557D01*
X82635Y-45371D01*
X83357Y-45942D02*
X83371Y-45957D01*
X83385Y-46000D01*
X83385Y-46028D01*
X83371Y-46071D01*
X83342Y-46100D01*
X83314Y-46114D01*
X83257Y-46128D01*
X83214Y-46128D01*
X83157Y-46114D01*
X83128Y-46100D01*
X83100Y-46071D01*
X83085Y-46028D01*
X83085Y-46000D01*
X83100Y-45957D01*
X83114Y-45942D01*
X83385Y-45657D02*
X83385Y-45828D01*
X83385Y-45742D02*
X83085Y-45742D01*
X83128Y-45771D01*
X83157Y-45800D01*
X83171Y-45828D01*
X83085Y-45557D02*
X83085Y-45371D01*
X83200Y-45471D01*
X83200Y-45428D01*
X83214Y-45400D01*
X83228Y-45385D01*
X83257Y-45371D01*
X83328Y-45371D01*
X83357Y-45385D01*
X83371Y-45400D01*
X83385Y-45428D01*
X83385Y-45514D01*
X83371Y-45542D01*
X83357Y-45557D01*
X91278Y-45135D02*
X91278Y-44835D01*
X91350Y-44835D01*
X91392Y-44850D01*
X91421Y-44878D01*
X91435Y-44907D01*
X91450Y-44964D01*
X91450Y-45007D01*
X91435Y-45064D01*
X91421Y-45092D01*
X91392Y-45121D01*
X91350Y-45135D01*
X91278Y-45135D01*
X91735Y-45135D02*
X91564Y-45135D01*
X91650Y-45135D02*
X91650Y-44835D01*
X91621Y-44878D01*
X91592Y-44907D01*
X91564Y-44921D01*
X92228Y-45599D02*
X92228Y-45699D01*
X92385Y-45699D02*
X92085Y-45699D01*
X92085Y-45557D01*
X92385Y-45285D02*
X92385Y-45457D01*
X92385Y-45371D02*
X92085Y-45371D01*
X92128Y-45399D01*
X92157Y-45428D01*
X92171Y-45457D01*
X86985Y-42642D02*
X86685Y-42642D01*
X86957Y-42328D02*
X86971Y-42342D01*
X86985Y-42385D01*
X86985Y-42414D01*
X86971Y-42457D01*
X86942Y-42485D01*
X86914Y-42499D01*
X86857Y-42514D01*
X86814Y-42514D01*
X86757Y-42499D01*
X86728Y-42485D01*
X86700Y-42457D01*
X86685Y-42414D01*
X86685Y-42385D01*
X86700Y-42342D01*
X86714Y-42328D01*
X86985Y-42042D02*
X86985Y-42214D01*
X86985Y-42128D02*
X86685Y-42128D01*
X86728Y-42157D01*
X86757Y-42185D01*
X86771Y-42214D01*
X87085Y-43728D02*
X87085Y-43528D01*
X87385Y-43657D01*
X87185Y-43285D02*
X87385Y-43285D01*
X87071Y-43357D02*
X87285Y-43428D01*
X87285Y-43242D01*
X87385Y-43128D02*
X87085Y-43128D01*
X87228Y-43128D02*
X87228Y-42957D01*
X87385Y-42957D02*
X87085Y-42957D01*
X87357Y-42642D02*
X87371Y-42657D01*
X87385Y-42700D01*
X87385Y-42728D01*
X87371Y-42771D01*
X87342Y-42800D01*
X87314Y-42814D01*
X87257Y-42828D01*
X87214Y-42828D01*
X87157Y-42814D01*
X87128Y-42800D01*
X87100Y-42771D01*
X87085Y-42728D01*
X87085Y-42700D01*
X87100Y-42657D01*
X87114Y-42642D01*
X87114Y-42528D02*
X87100Y-42514D01*
X87085Y-42485D01*
X87085Y-42414D01*
X87100Y-42385D01*
X87114Y-42371D01*
X87142Y-42357D01*
X87171Y-42357D01*
X87214Y-42371D01*
X87385Y-42542D01*
X87385Y-42357D01*
X87085Y-42257D02*
X87085Y-42071D01*
X87200Y-42171D01*
X87200Y-42128D01*
X87214Y-42100D01*
X87228Y-42085D01*
X87257Y-42071D01*
X87328Y-42071D01*
X87357Y-42085D01*
X87371Y-42100D01*
X87385Y-42128D01*
X87385Y-42214D01*
X87371Y-42242D01*
X87357Y-42257D01*
X87214Y-41900D02*
X87200Y-41928D01*
X87185Y-41942D01*
X87157Y-41957D01*
X87142Y-41957D01*
X87114Y-41942D01*
X87100Y-41928D01*
X87085Y-41900D01*
X87085Y-41842D01*
X87100Y-41814D01*
X87114Y-41800D01*
X87142Y-41785D01*
X87157Y-41785D01*
X87185Y-41800D01*
X87200Y-41814D01*
X87214Y-41842D01*
X87214Y-41900D01*
X87228Y-41928D01*
X87242Y-41942D01*
X87271Y-41957D01*
X87328Y-41957D01*
X87357Y-41942D01*
X87371Y-41928D01*
X87385Y-41900D01*
X87385Y-41842D01*
X87371Y-41814D01*
X87357Y-41800D01*
X87328Y-41785D01*
X87271Y-41785D01*
X87242Y-41800D01*
X87228Y-41814D01*
X87214Y-41842D01*
X68457Y-42235D02*
X68457Y-41935D01*
X68771Y-42207D02*
X68757Y-42221D01*
X68714Y-42235D01*
X68685Y-42235D01*
X68642Y-42221D01*
X68614Y-42192D01*
X68600Y-42164D01*
X68585Y-42107D01*
X68585Y-42064D01*
X68600Y-42007D01*
X68614Y-41978D01*
X68642Y-41950D01*
X68685Y-41935D01*
X68714Y-41935D01*
X68757Y-41950D01*
X68771Y-41964D01*
X68885Y-41964D02*
X68900Y-41950D01*
X68928Y-41935D01*
X69000Y-41935D01*
X69028Y-41950D01*
X69042Y-41964D01*
X69057Y-41992D01*
X69057Y-42021D01*
X69042Y-42064D01*
X68871Y-42235D01*
X69057Y-42235D01*
X66171Y-41935D02*
X66342Y-41935D01*
X66257Y-42235D02*
X66257Y-41935D01*
X66585Y-42235D02*
X66442Y-42235D01*
X66442Y-41935D01*
X66857Y-42207D02*
X66842Y-42221D01*
X66800Y-42235D01*
X66771Y-42235D01*
X66728Y-42221D01*
X66700Y-42192D01*
X66685Y-42164D01*
X66671Y-42107D01*
X66671Y-42064D01*
X66685Y-42007D01*
X66700Y-41978D01*
X66728Y-41950D01*
X66771Y-41935D01*
X66800Y-41935D01*
X66842Y-41950D01*
X66857Y-41964D01*
X67128Y-41935D02*
X66985Y-41935D01*
X66971Y-42078D01*
X66985Y-42064D01*
X67014Y-42050D01*
X67085Y-42050D01*
X67114Y-42064D01*
X67128Y-42078D01*
X67142Y-42107D01*
X67142Y-42178D01*
X67128Y-42207D01*
X67114Y-42221D01*
X67085Y-42235D01*
X67014Y-42235D01*
X66985Y-42221D01*
X66971Y-42207D01*
X67285Y-42235D02*
X67342Y-42235D01*
X67371Y-42221D01*
X67385Y-42207D01*
X67414Y-42164D01*
X67428Y-42107D01*
X67428Y-41992D01*
X67414Y-41964D01*
X67400Y-41950D01*
X67371Y-41935D01*
X67314Y-41935D01*
X67285Y-41950D01*
X67271Y-41964D01*
X67257Y-41992D01*
X67257Y-42064D01*
X67271Y-42092D01*
X67285Y-42107D01*
X67314Y-42121D01*
X67371Y-42121D01*
X67400Y-42107D01*
X67414Y-42092D01*
X67428Y-42064D01*
X67528Y-41935D02*
X67728Y-41935D01*
X67600Y-42235D01*
X67999Y-42235D02*
X67828Y-42235D01*
X67914Y-42235D02*
X67914Y-41935D01*
X67885Y-41978D01*
X67857Y-42007D01*
X67828Y-42021D01*
X95657Y-42435D02*
X95657Y-42135D01*
X95971Y-42407D02*
X95957Y-42421D01*
X95914Y-42435D01*
X95885Y-42435D01*
X95842Y-42421D01*
X95814Y-42392D01*
X95800Y-42364D01*
X95785Y-42307D01*
X95785Y-42264D01*
X95800Y-42207D01*
X95814Y-42178D01*
X95842Y-42150D01*
X95885Y-42135D01*
X95914Y-42135D01*
X95957Y-42150D01*
X95971Y-42164D01*
X96071Y-42135D02*
X96257Y-42135D01*
X96157Y-42250D01*
X96200Y-42250D01*
X96228Y-42264D01*
X96242Y-42278D01*
X96257Y-42307D01*
X96257Y-42378D01*
X96242Y-42407D01*
X96228Y-42421D01*
X96200Y-42435D01*
X96114Y-42435D01*
X96085Y-42421D01*
X96071Y-42407D01*
X95757Y-41828D02*
X95657Y-41828D01*
X95657Y-41985D02*
X95657Y-41685D01*
X95800Y-41685D01*
X95871Y-41685D02*
X96042Y-41685D01*
X95957Y-41985D02*
X95957Y-41685D01*
X96128Y-41714D02*
X96142Y-41700D01*
X96171Y-41685D01*
X96242Y-41685D01*
X96271Y-41700D01*
X96285Y-41714D01*
X96300Y-41742D01*
X96300Y-41771D01*
X96285Y-41814D01*
X96114Y-41985D01*
X96300Y-41985D01*
X96400Y-41685D02*
X96585Y-41685D01*
X96485Y-41800D01*
X96528Y-41800D01*
X96557Y-41814D01*
X96571Y-41828D01*
X96585Y-41857D01*
X96585Y-41928D01*
X96571Y-41957D01*
X96557Y-41971D01*
X96528Y-41985D01*
X96442Y-41985D01*
X96414Y-41971D01*
X96400Y-41957D01*
X96771Y-41685D02*
X96800Y-41685D01*
X96828Y-41700D01*
X96842Y-41714D01*
X96857Y-41742D01*
X96871Y-41800D01*
X96871Y-41871D01*
X96857Y-41928D01*
X96842Y-41957D01*
X96828Y-41971D01*
X96800Y-41985D01*
X96771Y-41985D01*
X96742Y-41971D01*
X96728Y-41957D01*
X96714Y-41928D01*
X96700Y-41871D01*
X96700Y-41800D01*
X96714Y-41742D01*
X96728Y-41714D01*
X96742Y-41700D01*
X96771Y-41685D01*
X96971Y-41685D02*
X97171Y-41985D01*
X97171Y-41685D02*
X96971Y-41985D01*
X56885Y-44792D02*
X56585Y-44792D01*
X56857Y-44478D02*
X56871Y-44492D01*
X56885Y-44535D01*
X56885Y-44564D01*
X56871Y-44607D01*
X56842Y-44635D01*
X56814Y-44649D01*
X56757Y-44664D01*
X56714Y-44664D01*
X56657Y-44649D01*
X56628Y-44635D01*
X56600Y-44607D01*
X56585Y-44564D01*
X56585Y-44535D01*
X56600Y-44492D01*
X56614Y-44478D01*
X56685Y-44221D02*
X56885Y-44221D01*
X56571Y-44292D02*
X56785Y-44364D01*
X56785Y-44178D01*
X59885Y-44899D02*
X59885Y-45042D01*
X59585Y-45042D01*
X59885Y-44799D02*
X59585Y-44799D01*
X59800Y-44699D01*
X59585Y-44599D01*
X59885Y-44599D01*
X59885Y-44300D02*
X59885Y-44471D01*
X59885Y-44385D02*
X59585Y-44385D01*
X59628Y-44414D01*
X59657Y-44442D01*
X59671Y-44471D01*
X59885Y-44014D02*
X59885Y-44185D01*
X59885Y-44100D02*
X59585Y-44100D01*
X59628Y-44128D01*
X59657Y-44157D01*
X59671Y-44185D01*
X59885Y-43728D02*
X59885Y-43900D01*
X59885Y-43814D02*
X59585Y-43814D01*
X59628Y-43842D01*
X59657Y-43871D01*
X59671Y-43900D01*
X59585Y-43628D02*
X59585Y-43428D01*
X59885Y-43557D01*
X80946Y-45138D02*
X81159Y-44926D01*
X81189Y-45340D02*
X81169Y-45340D01*
X81128Y-45320D01*
X81108Y-45300D01*
X81088Y-45260D01*
X81088Y-45219D01*
X81098Y-45189D01*
X81128Y-45138D01*
X81159Y-45108D01*
X81209Y-45078D01*
X81239Y-45068D01*
X81280Y-45068D01*
X81320Y-45088D01*
X81340Y-45108D01*
X81361Y-45148D01*
X81361Y-45169D01*
X81573Y-45340D02*
X81472Y-45239D01*
X81361Y-45330D01*
X81381Y-45330D01*
X81411Y-45340D01*
X81462Y-45391D01*
X81472Y-45421D01*
X81472Y-45441D01*
X81462Y-45472D01*
X81411Y-45522D01*
X81381Y-45532D01*
X81361Y-45532D01*
X81330Y-45522D01*
X81280Y-45472D01*
X81270Y-45441D01*
X81270Y-45421D01*
X78580Y-41489D02*
X78681Y-41388D01*
X78621Y-41570D02*
X78479Y-41287D01*
X78762Y-41429D01*
X78590Y-41176D02*
X78712Y-41055D01*
X78863Y-41328D02*
X78651Y-41116D01*
X78994Y-41197D02*
X78782Y-40984D01*
X79005Y-41065D01*
X78924Y-40843D01*
X79136Y-41055D01*
X79126Y-40843D02*
X79196Y-40772D01*
X79338Y-40853D02*
X79237Y-40954D01*
X79025Y-40742D01*
X79126Y-40641D01*
X79338Y-40449D02*
X79308Y-40459D01*
X79277Y-40489D01*
X79257Y-40530D01*
X79257Y-40570D01*
X79267Y-40601D01*
X79297Y-40651D01*
X79328Y-40681D01*
X79378Y-40712D01*
X79409Y-40722D01*
X79449Y-40722D01*
X79489Y-40702D01*
X79510Y-40681D01*
X79530Y-40641D01*
X79530Y-40621D01*
X79459Y-40550D01*
X79419Y-40590D01*
X79570Y-40499D02*
X79671Y-40398D01*
X79611Y-40580D02*
X79469Y-40297D01*
X79752Y-40439D01*
X79590Y-40176D02*
X79722Y-40045D01*
X79732Y-40196D01*
X79762Y-40166D01*
X79792Y-40156D01*
X79813Y-40156D01*
X79843Y-40166D01*
X79893Y-40217D01*
X79904Y-40247D01*
X79904Y-40267D01*
X79893Y-40297D01*
X79833Y-40358D01*
X79803Y-40368D01*
X79782Y-40368D01*
X79823Y-39984D02*
X79823Y-39964D01*
X79833Y-39934D01*
X79883Y-39883D01*
X79914Y-39873D01*
X79934Y-39873D01*
X79964Y-39883D01*
X79984Y-39904D01*
X80005Y-39944D01*
X80005Y-40186D01*
X80136Y-40055D01*
X80136Y-39813D02*
X80106Y-39823D01*
X80085Y-39823D01*
X80055Y-39813D01*
X80045Y-39802D01*
X80035Y-39772D01*
X80035Y-39752D01*
X80045Y-39722D01*
X80085Y-39681D01*
X80116Y-39671D01*
X80136Y-39671D01*
X80166Y-39681D01*
X80176Y-39691D01*
X80186Y-39722D01*
X80186Y-39742D01*
X80176Y-39772D01*
X80136Y-39813D01*
X80126Y-39843D01*
X80126Y-39863D01*
X80136Y-39893D01*
X80176Y-39934D01*
X80207Y-39944D01*
X80227Y-39944D01*
X80257Y-39934D01*
X80298Y-39893D01*
X80308Y-39863D01*
X80308Y-39843D01*
X80298Y-39813D01*
X80257Y-39772D01*
X80227Y-39762D01*
X80207Y-39762D01*
X80176Y-39772D01*
X80429Y-39762D02*
X80217Y-39550D01*
X80298Y-39469D01*
X80328Y-39459D01*
X80348Y-39459D01*
X80378Y-39469D01*
X80409Y-39499D01*
X80419Y-39530D01*
X80419Y-39550D01*
X80409Y-39580D01*
X80328Y-39661D01*
X98200Y-42185D02*
X98200Y-42400D01*
X98185Y-42442D01*
X98157Y-42471D01*
X98114Y-42485D01*
X98085Y-42485D01*
X98500Y-42485D02*
X98328Y-42485D01*
X98414Y-42485D02*
X98414Y-42185D01*
X98385Y-42228D01*
X98357Y-42257D01*
X98328Y-42271D01*
X97771Y-45685D02*
X97771Y-45928D01*
X97785Y-45957D01*
X97800Y-45971D01*
X97828Y-45985D01*
X97885Y-45985D01*
X97914Y-45971D01*
X97928Y-45957D01*
X97942Y-45928D01*
X97942Y-45685D01*
X98071Y-45971D02*
X98114Y-45985D01*
X98185Y-45985D01*
X98214Y-45971D01*
X98228Y-45957D01*
X98242Y-45928D01*
X98242Y-45900D01*
X98228Y-45871D01*
X98214Y-45857D01*
X98185Y-45842D01*
X98128Y-45828D01*
X98100Y-45814D01*
X98085Y-45800D01*
X98071Y-45771D01*
X98071Y-45742D01*
X98085Y-45714D01*
X98100Y-45700D01*
X98128Y-45685D01*
X98200Y-45685D01*
X98242Y-45700D01*
X98471Y-45828D02*
X98514Y-45842D01*
X98528Y-45857D01*
X98542Y-45885D01*
X98542Y-45928D01*
X98528Y-45957D01*
X98514Y-45971D01*
X98485Y-45985D01*
X98371Y-45985D01*
X98371Y-45685D01*
X98471Y-45685D01*
X98500Y-45700D01*
X98514Y-45714D01*
X98528Y-45742D01*
X98528Y-45771D01*
X98514Y-45800D01*
X98500Y-45814D01*
X98471Y-45828D01*
X98371Y-45828D01*
X70650Y-44585D02*
X70650Y-44800D01*
X70635Y-44842D01*
X70607Y-44871D01*
X70564Y-44885D01*
X70535Y-44885D01*
X70778Y-44614D02*
X70792Y-44600D01*
X70821Y-44585D01*
X70892Y-44585D01*
X70921Y-44600D01*
X70935Y-44614D01*
X70950Y-44642D01*
X70950Y-44671D01*
X70935Y-44714D01*
X70764Y-44885D01*
X70950Y-44885D01*
X75885Y-45935D02*
X75585Y-45935D01*
X75585Y-45821D01*
X75600Y-45792D01*
X75614Y-45778D01*
X75642Y-45764D01*
X75685Y-45764D01*
X75714Y-45778D01*
X75728Y-45792D01*
X75742Y-45821D01*
X75742Y-45935D01*
X75871Y-45649D02*
X75885Y-45607D01*
X75885Y-45535D01*
X75871Y-45507D01*
X75857Y-45492D01*
X75828Y-45478D01*
X75800Y-45478D01*
X75771Y-45492D01*
X75757Y-45507D01*
X75742Y-45535D01*
X75728Y-45592D01*
X75714Y-45621D01*
X75700Y-45635D01*
X75671Y-45649D01*
X75642Y-45649D01*
X75614Y-45635D01*
X75600Y-45621D01*
X75585Y-45592D01*
X75585Y-45521D01*
X75600Y-45478D01*
X75885Y-45349D02*
X75585Y-45349D01*
X75885Y-45050D02*
X75885Y-45221D01*
X75885Y-45135D02*
X75585Y-45135D01*
X75628Y-45164D01*
X75657Y-45192D01*
X75671Y-45221D01*
X70650Y-42585D02*
X70650Y-42800D01*
X70635Y-42842D01*
X70607Y-42871D01*
X70564Y-42885D01*
X70535Y-42885D01*
X70764Y-42585D02*
X70950Y-42585D01*
X70850Y-42700D01*
X70892Y-42700D01*
X70921Y-42714D01*
X70935Y-42728D01*
X70950Y-42757D01*
X70950Y-42828D01*
X70935Y-42857D01*
X70921Y-42871D01*
X70892Y-42885D01*
X70807Y-42885D01*
X70778Y-42871D01*
X70764Y-42857D01*
X75885Y-43935D02*
X75585Y-43935D01*
X75585Y-43821D01*
X75600Y-43792D01*
X75614Y-43778D01*
X75642Y-43764D01*
X75685Y-43764D01*
X75714Y-43778D01*
X75728Y-43792D01*
X75742Y-43821D01*
X75742Y-43935D01*
X75871Y-43649D02*
X75885Y-43607D01*
X75885Y-43535D01*
X75871Y-43507D01*
X75857Y-43492D01*
X75828Y-43478D01*
X75800Y-43478D01*
X75771Y-43492D01*
X75757Y-43507D01*
X75742Y-43535D01*
X75728Y-43592D01*
X75714Y-43621D01*
X75700Y-43635D01*
X75671Y-43649D01*
X75642Y-43649D01*
X75614Y-43635D01*
X75600Y-43621D01*
X75585Y-43592D01*
X75585Y-43521D01*
X75600Y-43478D01*
X75885Y-43349D02*
X75585Y-43349D01*
X75614Y-43221D02*
X75600Y-43207D01*
X75585Y-43178D01*
X75585Y-43107D01*
X75600Y-43078D01*
X75614Y-43064D01*
X75642Y-43050D01*
X75671Y-43050D01*
X75714Y-43064D01*
X75885Y-43235D01*
X75885Y-43050D01*
X65650Y-42585D02*
X65650Y-42800D01*
X65635Y-42842D01*
X65607Y-42871D01*
X65564Y-42885D01*
X65535Y-42885D01*
X65921Y-42685D02*
X65921Y-42885D01*
X65850Y-42571D02*
X65778Y-42785D01*
X65964Y-42785D01*
X60885Y-43850D02*
X60742Y-43950D01*
X60885Y-44021D02*
X60585Y-44021D01*
X60585Y-43907D01*
X60600Y-43878D01*
X60614Y-43864D01*
X60642Y-43850D01*
X60685Y-43850D01*
X60714Y-43864D01*
X60728Y-43878D01*
X60742Y-43907D01*
X60742Y-44021D01*
X60600Y-43564D02*
X60585Y-43592D01*
X60585Y-43635D01*
X60600Y-43678D01*
X60628Y-43707D01*
X60657Y-43721D01*
X60714Y-43735D01*
X60757Y-43735D01*
X60814Y-43721D01*
X60842Y-43707D01*
X60871Y-43678D01*
X60885Y-43635D01*
X60885Y-43607D01*
X60871Y-43564D01*
X60857Y-43550D01*
X60757Y-43550D01*
X60757Y-43607D01*
X60728Y-43321D02*
X60742Y-43278D01*
X60757Y-43264D01*
X60785Y-43250D01*
X60828Y-43250D01*
X60857Y-43264D01*
X60871Y-43278D01*
X60885Y-43307D01*
X60885Y-43421D01*
X60585Y-43421D01*
X60585Y-43321D01*
X60600Y-43292D01*
X60614Y-43278D01*
X60642Y-43264D01*
X60671Y-43264D01*
X60700Y-43278D01*
X60714Y-43292D01*
X60728Y-43321D01*
X60728Y-43421D01*
X60885Y-42964D02*
X60885Y-43135D01*
X60885Y-43050D02*
X60585Y-43050D01*
X60628Y-43078D01*
X60657Y-43107D01*
X60671Y-43135D01*
X65650Y-44585D02*
X65650Y-44800D01*
X65635Y-44842D01*
X65607Y-44871D01*
X65564Y-44885D01*
X65535Y-44885D01*
X65935Y-44585D02*
X65792Y-44585D01*
X65778Y-44728D01*
X65792Y-44714D01*
X65821Y-44700D01*
X65892Y-44700D01*
X65921Y-44714D01*
X65935Y-44728D01*
X65950Y-44757D01*
X65950Y-44828D01*
X65935Y-44857D01*
X65921Y-44871D01*
X65892Y-44885D01*
X65821Y-44885D01*
X65792Y-44871D01*
X65778Y-44857D01*
X60885Y-45850D02*
X60742Y-45950D01*
X60885Y-46021D02*
X60585Y-46021D01*
X60585Y-45907D01*
X60600Y-45878D01*
X60614Y-45864D01*
X60642Y-45850D01*
X60685Y-45850D01*
X60714Y-45864D01*
X60728Y-45878D01*
X60742Y-45907D01*
X60742Y-46021D01*
X60600Y-45564D02*
X60585Y-45592D01*
X60585Y-45635D01*
X60600Y-45678D01*
X60628Y-45707D01*
X60657Y-45721D01*
X60714Y-45735D01*
X60757Y-45735D01*
X60814Y-45721D01*
X60842Y-45707D01*
X60871Y-45678D01*
X60885Y-45635D01*
X60885Y-45607D01*
X60871Y-45564D01*
X60857Y-45550D01*
X60757Y-45550D01*
X60757Y-45607D01*
X60728Y-45321D02*
X60742Y-45278D01*
X60757Y-45264D01*
X60785Y-45250D01*
X60828Y-45250D01*
X60857Y-45264D01*
X60871Y-45278D01*
X60885Y-45307D01*
X60885Y-45421D01*
X60585Y-45421D01*
X60585Y-45321D01*
X60600Y-45292D01*
X60614Y-45278D01*
X60642Y-45264D01*
X60671Y-45264D01*
X60700Y-45278D01*
X60714Y-45292D01*
X60728Y-45321D01*
X60728Y-45421D01*
X60614Y-45135D02*
X60600Y-45121D01*
X60585Y-45092D01*
X60585Y-45021D01*
X60600Y-44992D01*
X60614Y-44978D01*
X60642Y-44964D01*
X60671Y-44964D01*
X60714Y-44978D01*
X60885Y-45150D01*
X60885Y-44964D01*
X54585Y-45849D02*
X54800Y-45849D01*
X54842Y-45864D01*
X54871Y-45892D01*
X54885Y-45935D01*
X54885Y-45964D01*
X54585Y-45578D02*
X54585Y-45635D01*
X54600Y-45664D01*
X54614Y-45678D01*
X54657Y-45707D01*
X54714Y-45721D01*
X54828Y-45721D01*
X54857Y-45707D01*
X54871Y-45692D01*
X54885Y-45664D01*
X54885Y-45607D01*
X54871Y-45578D01*
X54857Y-45564D01*
X54828Y-45550D01*
X54757Y-45550D01*
X54728Y-45564D01*
X54714Y-45578D01*
X54700Y-45607D01*
X54700Y-45664D01*
X54714Y-45692D01*
X54728Y-45707D01*
X54757Y-45721D01*
X52707Y-41835D02*
X52650Y-41835D01*
X52621Y-41850D01*
X52607Y-41864D01*
X52578Y-41907D01*
X52564Y-41964D01*
X52564Y-42078D01*
X52578Y-42107D01*
X52592Y-42121D01*
X52621Y-42135D01*
X52678Y-42135D01*
X52707Y-42121D01*
X52721Y-42107D01*
X52735Y-42078D01*
X52735Y-42007D01*
X52721Y-41978D01*
X52707Y-41964D01*
X52678Y-41950D01*
X52621Y-41950D01*
X52592Y-41964D01*
X52578Y-41978D01*
X52564Y-42007D01*
X52864Y-42021D02*
X53092Y-42021D01*
X53392Y-42135D02*
X53221Y-42135D01*
X53307Y-42135D02*
X53307Y-41835D01*
X53278Y-41878D01*
X53250Y-41907D01*
X53221Y-41921D01*
X53507Y-41864D02*
X53521Y-41850D01*
X53550Y-41835D01*
X53621Y-41835D01*
X53650Y-41850D01*
X53664Y-41864D01*
X53678Y-41892D01*
X53678Y-41921D01*
X53664Y-41964D01*
X53492Y-42135D01*
X53678Y-42135D01*
X53764Y-41835D02*
X53864Y-42135D01*
X53964Y-41835D01*
X87200Y-45885D02*
X87100Y-45742D01*
X87028Y-45885D02*
X87028Y-45585D01*
X87142Y-45585D01*
X87171Y-45600D01*
X87185Y-45614D01*
X87200Y-45642D01*
X87200Y-45685D01*
X87185Y-45714D01*
X87171Y-45728D01*
X87142Y-45742D01*
X87028Y-45742D01*
X87300Y-45585D02*
X87500Y-45885D01*
X87500Y-45585D02*
X87300Y-45885D01*
X87021Y-44885D02*
X87192Y-44885D01*
X87107Y-45185D02*
X87107Y-44885D01*
X87264Y-44885D02*
X87464Y-45185D01*
X87464Y-44885D02*
X87264Y-45185D01*
X53164Y-31885D02*
X53021Y-31885D01*
X53021Y-31585D01*
X53264Y-31728D02*
X53364Y-31728D01*
X53407Y-31885D02*
X53264Y-31885D01*
X53264Y-31585D01*
X53407Y-31585D01*
X53535Y-31885D02*
X53535Y-31585D01*
X53607Y-31585D01*
X53650Y-31600D01*
X53678Y-31628D01*
X53692Y-31657D01*
X53707Y-31714D01*
X53707Y-31757D01*
X53692Y-31814D01*
X53678Y-31842D01*
X53650Y-31871D01*
X53607Y-31885D01*
X53535Y-31885D01*
X53807Y-31585D02*
X53992Y-31585D01*
X53892Y-31700D01*
X53935Y-31700D01*
X53964Y-31714D01*
X53978Y-31728D01*
X53992Y-31757D01*
X53992Y-31828D01*
X53978Y-31857D01*
X53964Y-31871D01*
X53935Y-31885D01*
X53850Y-31885D01*
X53821Y-31871D01*
X53807Y-31857D01*
X53164Y-34135D02*
X53021Y-34135D01*
X53021Y-33835D01*
X53264Y-33978D02*
X53364Y-33978D01*
X53407Y-34135D02*
X53264Y-34135D01*
X53264Y-33835D01*
X53407Y-33835D01*
X53535Y-34135D02*
X53535Y-33835D01*
X53607Y-33835D01*
X53650Y-33850D01*
X53678Y-33878D01*
X53692Y-33907D01*
X53707Y-33964D01*
X53707Y-34007D01*
X53692Y-34064D01*
X53678Y-34092D01*
X53650Y-34121D01*
X53607Y-34135D01*
X53535Y-34135D01*
X53964Y-33935D02*
X53964Y-34135D01*
X53892Y-33821D02*
X53821Y-34035D01*
X54007Y-34035D01*
X53164Y-36385D02*
X53021Y-36385D01*
X53021Y-36085D01*
X53264Y-36228D02*
X53364Y-36228D01*
X53407Y-36385D02*
X53264Y-36385D01*
X53264Y-36085D01*
X53407Y-36085D01*
X53535Y-36385D02*
X53535Y-36085D01*
X53607Y-36085D01*
X53650Y-36100D01*
X53678Y-36128D01*
X53692Y-36157D01*
X53707Y-36214D01*
X53707Y-36257D01*
X53692Y-36314D01*
X53678Y-36342D01*
X53650Y-36371D01*
X53607Y-36385D01*
X53535Y-36385D01*
X53978Y-36085D02*
X53835Y-36085D01*
X53821Y-36228D01*
X53835Y-36214D01*
X53864Y-36200D01*
X53935Y-36200D01*
X53964Y-36214D01*
X53978Y-36228D01*
X53992Y-36257D01*
X53992Y-36328D01*
X53978Y-36357D01*
X53964Y-36371D01*
X53935Y-36385D01*
X53864Y-36385D01*
X53835Y-36371D01*
X53821Y-36357D01*
X53164Y-38635D02*
X53021Y-38635D01*
X53021Y-38335D01*
X53264Y-38478D02*
X53364Y-38478D01*
X53407Y-38635D02*
X53264Y-38635D01*
X53264Y-38335D01*
X53407Y-38335D01*
X53535Y-38635D02*
X53535Y-38335D01*
X53607Y-38335D01*
X53650Y-38350D01*
X53678Y-38378D01*
X53692Y-38407D01*
X53707Y-38464D01*
X53707Y-38507D01*
X53692Y-38564D01*
X53678Y-38592D01*
X53650Y-38621D01*
X53607Y-38635D01*
X53535Y-38635D01*
X53964Y-38335D02*
X53907Y-38335D01*
X53878Y-38350D01*
X53864Y-38364D01*
X53835Y-38407D01*
X53821Y-38464D01*
X53821Y-38578D01*
X53835Y-38607D01*
X53850Y-38621D01*
X53878Y-38635D01*
X53935Y-38635D01*
X53964Y-38621D01*
X53978Y-38607D01*
X53992Y-38578D01*
X53992Y-38507D01*
X53978Y-38478D01*
X53964Y-38464D01*
X53935Y-38450D01*
X53878Y-38450D01*
X53850Y-38464D01*
X53835Y-38478D01*
X53821Y-38507D01*
X98164Y-31885D02*
X98021Y-31885D01*
X98021Y-31585D01*
X98264Y-31728D02*
X98364Y-31728D01*
X98407Y-31885D02*
X98264Y-31885D01*
X98264Y-31585D01*
X98407Y-31585D01*
X98535Y-31885D02*
X98535Y-31585D01*
X98607Y-31585D01*
X98650Y-31600D01*
X98678Y-31628D01*
X98692Y-31657D01*
X98707Y-31714D01*
X98707Y-31757D01*
X98692Y-31814D01*
X98678Y-31842D01*
X98650Y-31871D01*
X98607Y-31885D01*
X98535Y-31885D01*
X98807Y-31585D02*
X99007Y-31585D01*
X98878Y-31885D01*
X98164Y-34135D02*
X98021Y-34135D01*
X98021Y-33835D01*
X98264Y-33978D02*
X98364Y-33978D01*
X98407Y-34135D02*
X98264Y-34135D01*
X98264Y-33835D01*
X98407Y-33835D01*
X98535Y-34135D02*
X98535Y-33835D01*
X98607Y-33835D01*
X98650Y-33850D01*
X98678Y-33878D01*
X98692Y-33907D01*
X98707Y-33964D01*
X98707Y-34007D01*
X98692Y-34064D01*
X98678Y-34092D01*
X98650Y-34121D01*
X98607Y-34135D01*
X98535Y-34135D01*
X98878Y-33964D02*
X98850Y-33950D01*
X98835Y-33935D01*
X98821Y-33907D01*
X98821Y-33892D01*
X98835Y-33864D01*
X98850Y-33850D01*
X98878Y-33835D01*
X98935Y-33835D01*
X98964Y-33850D01*
X98978Y-33864D01*
X98992Y-33892D01*
X98992Y-33907D01*
X98978Y-33935D01*
X98964Y-33950D01*
X98935Y-33964D01*
X98878Y-33964D01*
X98850Y-33978D01*
X98835Y-33992D01*
X98821Y-34021D01*
X98821Y-34078D01*
X98835Y-34107D01*
X98850Y-34121D01*
X98878Y-34135D01*
X98935Y-34135D01*
X98964Y-34121D01*
X98978Y-34107D01*
X98992Y-34078D01*
X98992Y-34021D01*
X98978Y-33992D01*
X98964Y-33978D01*
X98935Y-33964D01*
X98164Y-36385D02*
X98021Y-36385D01*
X98021Y-36085D01*
X98264Y-36228D02*
X98364Y-36228D01*
X98407Y-36385D02*
X98264Y-36385D01*
X98264Y-36085D01*
X98407Y-36085D01*
X98535Y-36385D02*
X98535Y-36085D01*
X98607Y-36085D01*
X98650Y-36100D01*
X98678Y-36128D01*
X98692Y-36157D01*
X98707Y-36214D01*
X98707Y-36257D01*
X98692Y-36314D01*
X98678Y-36342D01*
X98650Y-36371D01*
X98607Y-36385D01*
X98535Y-36385D01*
X98850Y-36385D02*
X98907Y-36385D01*
X98935Y-36371D01*
X98950Y-36357D01*
X98978Y-36314D01*
X98992Y-36257D01*
X98992Y-36142D01*
X98978Y-36114D01*
X98964Y-36100D01*
X98935Y-36085D01*
X98878Y-36085D01*
X98850Y-36100D01*
X98835Y-36114D01*
X98821Y-36142D01*
X98821Y-36214D01*
X98835Y-36242D01*
X98850Y-36257D01*
X98878Y-36271D01*
X98935Y-36271D01*
X98964Y-36257D01*
X98978Y-36242D01*
X98992Y-36214D01*
X98021Y-38635D02*
X97878Y-38635D01*
X97878Y-38335D01*
X98121Y-38478D02*
X98221Y-38478D01*
X98264Y-38635D02*
X98121Y-38635D01*
X98121Y-38335D01*
X98264Y-38335D01*
X98392Y-38635D02*
X98392Y-38335D01*
X98464Y-38335D01*
X98507Y-38350D01*
X98535Y-38378D01*
X98550Y-38407D01*
X98564Y-38464D01*
X98564Y-38507D01*
X98550Y-38564D01*
X98535Y-38592D01*
X98507Y-38621D01*
X98464Y-38635D01*
X98392Y-38635D01*
X98850Y-38635D02*
X98678Y-38635D01*
X98764Y-38635D02*
X98764Y-38335D01*
X98735Y-38378D01*
X98707Y-38407D01*
X98678Y-38421D01*
X99035Y-38335D02*
X99064Y-38335D01*
X99092Y-38350D01*
X99107Y-38364D01*
X99121Y-38392D01*
X99135Y-38450D01*
X99135Y-38521D01*
X99121Y-38578D01*
X99107Y-38607D01*
X99092Y-38621D01*
X99064Y-38635D01*
X99035Y-38635D01*
X99007Y-38621D01*
X98992Y-38607D01*
X98978Y-38578D01*
X98964Y-38521D01*
X98964Y-38450D01*
X98978Y-38392D01*
X98992Y-38364D01*
X99007Y-38350D01*
X99035Y-38335D01*
X55271Y-31885D02*
X55128Y-31885D01*
X55128Y-31585D01*
X55371Y-31728D02*
X55471Y-31728D01*
X55514Y-31885D02*
X55371Y-31885D01*
X55371Y-31585D01*
X55514Y-31585D01*
X55642Y-31885D02*
X55642Y-31585D01*
X55714Y-31585D01*
X55757Y-31600D01*
X55785Y-31628D01*
X55800Y-31657D01*
X55814Y-31714D01*
X55814Y-31757D01*
X55800Y-31814D01*
X55785Y-31842D01*
X55757Y-31871D01*
X55714Y-31885D01*
X55642Y-31885D01*
X56100Y-31885D02*
X55928Y-31885D01*
X56014Y-31885D02*
X56014Y-31585D01*
X55985Y-31628D01*
X55957Y-31657D01*
X55928Y-31671D01*
X56385Y-31885D02*
X56214Y-31885D01*
X56300Y-31885D02*
X56300Y-31585D01*
X56271Y-31628D01*
X56242Y-31657D01*
X56214Y-31671D01*
X55271Y-34135D02*
X55128Y-34135D01*
X55128Y-33835D01*
X55371Y-33978D02*
X55471Y-33978D01*
X55514Y-34135D02*
X55371Y-34135D01*
X55371Y-33835D01*
X55514Y-33835D01*
X55642Y-34135D02*
X55642Y-33835D01*
X55714Y-33835D01*
X55757Y-33850D01*
X55785Y-33878D01*
X55800Y-33907D01*
X55814Y-33964D01*
X55814Y-34007D01*
X55800Y-34064D01*
X55785Y-34092D01*
X55757Y-34121D01*
X55714Y-34135D01*
X55642Y-34135D01*
X56100Y-34135D02*
X55928Y-34135D01*
X56014Y-34135D02*
X56014Y-33835D01*
X55985Y-33878D01*
X55957Y-33907D01*
X55928Y-33921D01*
X56214Y-33864D02*
X56228Y-33850D01*
X56257Y-33835D01*
X56328Y-33835D01*
X56357Y-33850D01*
X56371Y-33864D01*
X56385Y-33892D01*
X56385Y-33921D01*
X56371Y-33964D01*
X56200Y-34135D01*
X56385Y-34135D01*
X55271Y-36385D02*
X55128Y-36385D01*
X55128Y-36085D01*
X55371Y-36228D02*
X55471Y-36228D01*
X55514Y-36385D02*
X55371Y-36385D01*
X55371Y-36085D01*
X55514Y-36085D01*
X55642Y-36385D02*
X55642Y-36085D01*
X55714Y-36085D01*
X55757Y-36100D01*
X55785Y-36128D01*
X55800Y-36157D01*
X55814Y-36214D01*
X55814Y-36257D01*
X55800Y-36314D01*
X55785Y-36342D01*
X55757Y-36371D01*
X55714Y-36385D01*
X55642Y-36385D01*
X56100Y-36385D02*
X55928Y-36385D01*
X56014Y-36385D02*
X56014Y-36085D01*
X55985Y-36128D01*
X55957Y-36157D01*
X55928Y-36171D01*
X56200Y-36085D02*
X56385Y-36085D01*
X56285Y-36200D01*
X56328Y-36200D01*
X56357Y-36214D01*
X56371Y-36228D01*
X56385Y-36257D01*
X56385Y-36328D01*
X56371Y-36357D01*
X56357Y-36371D01*
X56328Y-36385D01*
X56242Y-36385D01*
X56214Y-36371D01*
X56200Y-36357D01*
X55271Y-38635D02*
X55128Y-38635D01*
X55128Y-38335D01*
X55371Y-38478D02*
X55471Y-38478D01*
X55514Y-38635D02*
X55371Y-38635D01*
X55371Y-38335D01*
X55514Y-38335D01*
X55642Y-38635D02*
X55642Y-38335D01*
X55714Y-38335D01*
X55757Y-38350D01*
X55785Y-38378D01*
X55800Y-38407D01*
X55814Y-38464D01*
X55814Y-38507D01*
X55800Y-38564D01*
X55785Y-38592D01*
X55757Y-38621D01*
X55714Y-38635D01*
X55642Y-38635D01*
X56100Y-38635D02*
X55928Y-38635D01*
X56014Y-38635D02*
X56014Y-38335D01*
X55985Y-38378D01*
X55957Y-38407D01*
X55928Y-38421D01*
X56357Y-38435D02*
X56357Y-38635D01*
X56285Y-38321D02*
X56214Y-38535D01*
X56400Y-38535D01*
X95771Y-31885D02*
X95628Y-31885D01*
X95628Y-31585D01*
X95871Y-31728D02*
X95971Y-31728D01*
X96014Y-31885D02*
X95871Y-31885D01*
X95871Y-31585D01*
X96014Y-31585D01*
X96142Y-31885D02*
X96142Y-31585D01*
X96214Y-31585D01*
X96257Y-31600D01*
X96285Y-31628D01*
X96300Y-31657D01*
X96314Y-31714D01*
X96314Y-31757D01*
X96300Y-31814D01*
X96285Y-31842D01*
X96257Y-31871D01*
X96214Y-31885D01*
X96142Y-31885D01*
X96600Y-31885D02*
X96428Y-31885D01*
X96514Y-31885D02*
X96514Y-31585D01*
X96485Y-31628D01*
X96457Y-31657D01*
X96428Y-31671D01*
X96871Y-31585D02*
X96728Y-31585D01*
X96714Y-31728D01*
X96728Y-31714D01*
X96757Y-31700D01*
X96828Y-31700D01*
X96857Y-31714D01*
X96871Y-31728D01*
X96885Y-31757D01*
X96885Y-31828D01*
X96871Y-31857D01*
X96857Y-31871D01*
X96828Y-31885D01*
X96757Y-31885D01*
X96728Y-31871D01*
X96714Y-31857D01*
X95771Y-34135D02*
X95628Y-34135D01*
X95628Y-33835D01*
X95871Y-33978D02*
X95971Y-33978D01*
X96014Y-34135D02*
X95871Y-34135D01*
X95871Y-33835D01*
X96014Y-33835D01*
X96142Y-34135D02*
X96142Y-33835D01*
X96214Y-33835D01*
X96257Y-33850D01*
X96285Y-33878D01*
X96300Y-33907D01*
X96314Y-33964D01*
X96314Y-34007D01*
X96300Y-34064D01*
X96285Y-34092D01*
X96257Y-34121D01*
X96214Y-34135D01*
X96142Y-34135D01*
X96600Y-34135D02*
X96428Y-34135D01*
X96514Y-34135D02*
X96514Y-33835D01*
X96485Y-33878D01*
X96457Y-33907D01*
X96428Y-33921D01*
X96857Y-33835D02*
X96800Y-33835D01*
X96771Y-33850D01*
X96757Y-33864D01*
X96728Y-33907D01*
X96714Y-33964D01*
X96714Y-34078D01*
X96728Y-34107D01*
X96742Y-34121D01*
X96771Y-34135D01*
X96828Y-34135D01*
X96857Y-34121D01*
X96871Y-34107D01*
X96885Y-34078D01*
X96885Y-34007D01*
X96871Y-33978D01*
X96857Y-33964D01*
X96828Y-33950D01*
X96771Y-33950D01*
X96742Y-33964D01*
X96728Y-33978D01*
X96714Y-34007D01*
X95771Y-36385D02*
X95628Y-36385D01*
X95628Y-36085D01*
X95871Y-36228D02*
X95971Y-36228D01*
X96014Y-36385D02*
X95871Y-36385D01*
X95871Y-36085D01*
X96014Y-36085D01*
X96142Y-36385D02*
X96142Y-36085D01*
X96214Y-36085D01*
X96257Y-36100D01*
X96285Y-36128D01*
X96300Y-36157D01*
X96314Y-36214D01*
X96314Y-36257D01*
X96300Y-36314D01*
X96285Y-36342D01*
X96257Y-36371D01*
X96214Y-36385D01*
X96142Y-36385D01*
X96600Y-36385D02*
X96428Y-36385D01*
X96514Y-36385D02*
X96514Y-36085D01*
X96485Y-36128D01*
X96457Y-36157D01*
X96428Y-36171D01*
X96700Y-36085D02*
X96900Y-36085D01*
X96771Y-36385D01*
X95771Y-38635D02*
X95628Y-38635D01*
X95628Y-38335D01*
X95871Y-38478D02*
X95971Y-38478D01*
X96014Y-38635D02*
X95871Y-38635D01*
X95871Y-38335D01*
X96014Y-38335D01*
X96142Y-38635D02*
X96142Y-38335D01*
X96214Y-38335D01*
X96257Y-38350D01*
X96285Y-38378D01*
X96300Y-38407D01*
X96314Y-38464D01*
X96314Y-38507D01*
X96300Y-38564D01*
X96285Y-38592D01*
X96257Y-38621D01*
X96214Y-38635D01*
X96142Y-38635D01*
X96600Y-38635D02*
X96428Y-38635D01*
X96514Y-38635D02*
X96514Y-38335D01*
X96485Y-38378D01*
X96457Y-38407D01*
X96428Y-38421D01*
X96771Y-38464D02*
X96742Y-38450D01*
X96728Y-38435D01*
X96714Y-38407D01*
X96714Y-38392D01*
X96728Y-38364D01*
X96742Y-38350D01*
X96771Y-38335D01*
X96828Y-38335D01*
X96857Y-38350D01*
X96871Y-38364D01*
X96885Y-38392D01*
X96885Y-38407D01*
X96871Y-38435D01*
X96857Y-38450D01*
X96828Y-38464D01*
X96771Y-38464D01*
X96742Y-38478D01*
X96728Y-38492D01*
X96714Y-38521D01*
X96714Y-38578D01*
X96728Y-38607D01*
X96742Y-38621D01*
X96771Y-38635D01*
X96828Y-38635D01*
X96857Y-38621D01*
X96871Y-38607D01*
X96885Y-38578D01*
X96885Y-38521D01*
X96871Y-38492D01*
X96857Y-38478D01*
X96828Y-38464D01*
X57521Y-31885D02*
X57378Y-31885D01*
X57378Y-31585D01*
X57621Y-31728D02*
X57721Y-31728D01*
X57764Y-31885D02*
X57621Y-31885D01*
X57621Y-31585D01*
X57764Y-31585D01*
X57892Y-31885D02*
X57892Y-31585D01*
X57964Y-31585D01*
X58007Y-31600D01*
X58035Y-31628D01*
X58050Y-31657D01*
X58064Y-31714D01*
X58064Y-31757D01*
X58050Y-31814D01*
X58035Y-31842D01*
X58007Y-31871D01*
X57964Y-31885D01*
X57892Y-31885D01*
X58350Y-31885D02*
X58178Y-31885D01*
X58264Y-31885D02*
X58264Y-31585D01*
X58235Y-31628D01*
X58207Y-31657D01*
X58178Y-31671D01*
X58492Y-31885D02*
X58550Y-31885D01*
X58578Y-31871D01*
X58592Y-31857D01*
X58621Y-31814D01*
X58635Y-31757D01*
X58635Y-31642D01*
X58621Y-31614D01*
X58607Y-31600D01*
X58578Y-31585D01*
X58521Y-31585D01*
X58492Y-31600D01*
X58478Y-31614D01*
X58464Y-31642D01*
X58464Y-31714D01*
X58478Y-31742D01*
X58492Y-31757D01*
X58521Y-31771D01*
X58578Y-31771D01*
X58607Y-31757D01*
X58621Y-31742D01*
X58635Y-31714D01*
X57521Y-34135D02*
X57378Y-34135D01*
X57378Y-33835D01*
X57621Y-33978D02*
X57721Y-33978D01*
X57764Y-34135D02*
X57621Y-34135D01*
X57621Y-33835D01*
X57764Y-33835D01*
X57892Y-34135D02*
X57892Y-33835D01*
X57964Y-33835D01*
X58007Y-33850D01*
X58035Y-33878D01*
X58050Y-33907D01*
X58064Y-33964D01*
X58064Y-34007D01*
X58050Y-34064D01*
X58035Y-34092D01*
X58007Y-34121D01*
X57964Y-34135D01*
X57892Y-34135D01*
X58178Y-33864D02*
X58192Y-33850D01*
X58221Y-33835D01*
X58292Y-33835D01*
X58321Y-33850D01*
X58335Y-33864D01*
X58350Y-33892D01*
X58350Y-33921D01*
X58335Y-33964D01*
X58164Y-34135D01*
X58350Y-34135D01*
X58535Y-33835D02*
X58564Y-33835D01*
X58592Y-33850D01*
X58607Y-33864D01*
X58621Y-33892D01*
X58635Y-33950D01*
X58635Y-34021D01*
X58621Y-34078D01*
X58607Y-34107D01*
X58592Y-34121D01*
X58564Y-34135D01*
X58535Y-34135D01*
X58507Y-34121D01*
X58492Y-34107D01*
X58478Y-34078D01*
X58464Y-34021D01*
X58464Y-33950D01*
X58478Y-33892D01*
X58492Y-33864D01*
X58507Y-33850D01*
X58535Y-33835D01*
X57521Y-36385D02*
X57378Y-36385D01*
X57378Y-36085D01*
X57621Y-36228D02*
X57721Y-36228D01*
X57764Y-36385D02*
X57621Y-36385D01*
X57621Y-36085D01*
X57764Y-36085D01*
X57892Y-36385D02*
X57892Y-36085D01*
X57964Y-36085D01*
X58007Y-36100D01*
X58035Y-36128D01*
X58050Y-36157D01*
X58064Y-36214D01*
X58064Y-36257D01*
X58050Y-36314D01*
X58035Y-36342D01*
X58007Y-36371D01*
X57964Y-36385D01*
X57892Y-36385D01*
X58178Y-36114D02*
X58192Y-36100D01*
X58221Y-36085D01*
X58292Y-36085D01*
X58321Y-36100D01*
X58335Y-36114D01*
X58350Y-36142D01*
X58350Y-36171D01*
X58335Y-36214D01*
X58164Y-36385D01*
X58350Y-36385D01*
X58635Y-36385D02*
X58464Y-36385D01*
X58550Y-36385D02*
X58550Y-36085D01*
X58521Y-36128D01*
X58492Y-36157D01*
X58464Y-36171D01*
X57521Y-38635D02*
X57378Y-38635D01*
X57378Y-38335D01*
X57621Y-38478D02*
X57721Y-38478D01*
X57764Y-38635D02*
X57621Y-38635D01*
X57621Y-38335D01*
X57764Y-38335D01*
X57892Y-38635D02*
X57892Y-38335D01*
X57964Y-38335D01*
X58007Y-38350D01*
X58035Y-38378D01*
X58050Y-38407D01*
X58064Y-38464D01*
X58064Y-38507D01*
X58050Y-38564D01*
X58035Y-38592D01*
X58007Y-38621D01*
X57964Y-38635D01*
X57892Y-38635D01*
X58178Y-38364D02*
X58192Y-38350D01*
X58221Y-38335D01*
X58292Y-38335D01*
X58321Y-38350D01*
X58335Y-38364D01*
X58350Y-38392D01*
X58350Y-38421D01*
X58335Y-38464D01*
X58164Y-38635D01*
X58350Y-38635D01*
X58464Y-38364D02*
X58478Y-38350D01*
X58507Y-38335D01*
X58578Y-38335D01*
X58607Y-38350D01*
X58621Y-38364D01*
X58635Y-38392D01*
X58635Y-38421D01*
X58621Y-38464D01*
X58450Y-38635D01*
X58635Y-38635D01*
X93521Y-31885D02*
X93378Y-31885D01*
X93378Y-31585D01*
X93621Y-31728D02*
X93721Y-31728D01*
X93764Y-31885D02*
X93621Y-31885D01*
X93621Y-31585D01*
X93764Y-31585D01*
X93892Y-31885D02*
X93892Y-31585D01*
X93964Y-31585D01*
X94007Y-31600D01*
X94035Y-31628D01*
X94050Y-31657D01*
X94064Y-31714D01*
X94064Y-31757D01*
X94050Y-31814D01*
X94035Y-31842D01*
X94007Y-31871D01*
X93964Y-31885D01*
X93892Y-31885D01*
X94178Y-31614D02*
X94192Y-31600D01*
X94221Y-31585D01*
X94292Y-31585D01*
X94321Y-31600D01*
X94335Y-31614D01*
X94350Y-31642D01*
X94350Y-31671D01*
X94335Y-31714D01*
X94164Y-31885D01*
X94350Y-31885D01*
X94450Y-31585D02*
X94635Y-31585D01*
X94535Y-31700D01*
X94578Y-31700D01*
X94607Y-31714D01*
X94621Y-31728D01*
X94635Y-31757D01*
X94635Y-31828D01*
X94621Y-31857D01*
X94607Y-31871D01*
X94578Y-31885D01*
X94492Y-31885D01*
X94464Y-31871D01*
X94450Y-31857D01*
X93521Y-34135D02*
X93378Y-34135D01*
X93378Y-33835D01*
X93621Y-33978D02*
X93721Y-33978D01*
X93764Y-34135D02*
X93621Y-34135D01*
X93621Y-33835D01*
X93764Y-33835D01*
X93892Y-34135D02*
X93892Y-33835D01*
X93964Y-33835D01*
X94007Y-33850D01*
X94035Y-33878D01*
X94050Y-33907D01*
X94064Y-33964D01*
X94064Y-34007D01*
X94050Y-34064D01*
X94035Y-34092D01*
X94007Y-34121D01*
X93964Y-34135D01*
X93892Y-34135D01*
X94178Y-33864D02*
X94192Y-33850D01*
X94221Y-33835D01*
X94292Y-33835D01*
X94321Y-33850D01*
X94335Y-33864D01*
X94350Y-33892D01*
X94350Y-33921D01*
X94335Y-33964D01*
X94164Y-34135D01*
X94350Y-34135D01*
X94607Y-33935D02*
X94607Y-34135D01*
X94535Y-33821D02*
X94464Y-34035D01*
X94650Y-34035D01*
X93521Y-36385D02*
X93378Y-36385D01*
X93378Y-36085D01*
X93621Y-36228D02*
X93721Y-36228D01*
X93764Y-36385D02*
X93621Y-36385D01*
X93621Y-36085D01*
X93764Y-36085D01*
X93892Y-36385D02*
X93892Y-36085D01*
X93964Y-36085D01*
X94007Y-36100D01*
X94035Y-36128D01*
X94050Y-36157D01*
X94064Y-36214D01*
X94064Y-36257D01*
X94050Y-36314D01*
X94035Y-36342D01*
X94007Y-36371D01*
X93964Y-36385D01*
X93892Y-36385D01*
X94178Y-36114D02*
X94192Y-36100D01*
X94221Y-36085D01*
X94292Y-36085D01*
X94321Y-36100D01*
X94335Y-36114D01*
X94350Y-36142D01*
X94350Y-36171D01*
X94335Y-36214D01*
X94164Y-36385D01*
X94350Y-36385D01*
X94621Y-36085D02*
X94478Y-36085D01*
X94464Y-36228D01*
X94478Y-36214D01*
X94507Y-36200D01*
X94578Y-36200D01*
X94607Y-36214D01*
X94621Y-36228D01*
X94635Y-36257D01*
X94635Y-36328D01*
X94621Y-36357D01*
X94607Y-36371D01*
X94578Y-36385D01*
X94507Y-36385D01*
X94478Y-36371D01*
X94464Y-36357D01*
X93521Y-38635D02*
X93378Y-38635D01*
X93378Y-38335D01*
X93621Y-38478D02*
X93721Y-38478D01*
X93764Y-38635D02*
X93621Y-38635D01*
X93621Y-38335D01*
X93764Y-38335D01*
X93892Y-38635D02*
X93892Y-38335D01*
X93964Y-38335D01*
X94007Y-38350D01*
X94035Y-38378D01*
X94050Y-38407D01*
X94064Y-38464D01*
X94064Y-38507D01*
X94050Y-38564D01*
X94035Y-38592D01*
X94007Y-38621D01*
X93964Y-38635D01*
X93892Y-38635D01*
X94178Y-38364D02*
X94192Y-38350D01*
X94221Y-38335D01*
X94292Y-38335D01*
X94321Y-38350D01*
X94335Y-38364D01*
X94350Y-38392D01*
X94350Y-38421D01*
X94335Y-38464D01*
X94164Y-38635D01*
X94350Y-38635D01*
X94607Y-38335D02*
X94550Y-38335D01*
X94521Y-38350D01*
X94507Y-38364D01*
X94478Y-38407D01*
X94464Y-38464D01*
X94464Y-38578D01*
X94478Y-38607D01*
X94492Y-38621D01*
X94521Y-38635D01*
X94578Y-38635D01*
X94607Y-38621D01*
X94621Y-38607D01*
X94635Y-38578D01*
X94635Y-38507D01*
X94621Y-38478D01*
X94607Y-38464D01*
X94578Y-38450D01*
X94521Y-38450D01*
X94492Y-38464D01*
X94478Y-38478D01*
X94464Y-38507D01*
X59771Y-31885D02*
X59628Y-31885D01*
X59628Y-31585D01*
X59871Y-31728D02*
X59971Y-31728D01*
X60014Y-31885D02*
X59871Y-31885D01*
X59871Y-31585D01*
X60014Y-31585D01*
X60142Y-31885D02*
X60142Y-31585D01*
X60214Y-31585D01*
X60257Y-31600D01*
X60285Y-31628D01*
X60300Y-31657D01*
X60314Y-31714D01*
X60314Y-31757D01*
X60300Y-31814D01*
X60285Y-31842D01*
X60257Y-31871D01*
X60214Y-31885D01*
X60142Y-31885D01*
X60428Y-31614D02*
X60442Y-31600D01*
X60471Y-31585D01*
X60542Y-31585D01*
X60571Y-31600D01*
X60585Y-31614D01*
X60600Y-31642D01*
X60600Y-31671D01*
X60585Y-31714D01*
X60414Y-31885D01*
X60600Y-31885D01*
X60700Y-31585D02*
X60900Y-31585D01*
X60771Y-31885D01*
X59771Y-34135D02*
X59628Y-34135D01*
X59628Y-33835D01*
X59871Y-33978D02*
X59971Y-33978D01*
X60014Y-34135D02*
X59871Y-34135D01*
X59871Y-33835D01*
X60014Y-33835D01*
X60142Y-34135D02*
X60142Y-33835D01*
X60214Y-33835D01*
X60257Y-33850D01*
X60285Y-33878D01*
X60300Y-33907D01*
X60314Y-33964D01*
X60314Y-34007D01*
X60300Y-34064D01*
X60285Y-34092D01*
X60257Y-34121D01*
X60214Y-34135D01*
X60142Y-34135D01*
X60428Y-33864D02*
X60442Y-33850D01*
X60471Y-33835D01*
X60542Y-33835D01*
X60571Y-33850D01*
X60585Y-33864D01*
X60600Y-33892D01*
X60600Y-33921D01*
X60585Y-33964D01*
X60414Y-34135D01*
X60600Y-34135D01*
X60771Y-33964D02*
X60742Y-33950D01*
X60728Y-33935D01*
X60714Y-33907D01*
X60714Y-33892D01*
X60728Y-33864D01*
X60742Y-33850D01*
X60771Y-33835D01*
X60828Y-33835D01*
X60857Y-33850D01*
X60871Y-33864D01*
X60885Y-33892D01*
X60885Y-33907D01*
X60871Y-33935D01*
X60857Y-33950D01*
X60828Y-33964D01*
X60771Y-33964D01*
X60742Y-33978D01*
X60728Y-33992D01*
X60714Y-34021D01*
X60714Y-34078D01*
X60728Y-34107D01*
X60742Y-34121D01*
X60771Y-34135D01*
X60828Y-34135D01*
X60857Y-34121D01*
X60871Y-34107D01*
X60885Y-34078D01*
X60885Y-34021D01*
X60871Y-33992D01*
X60857Y-33978D01*
X60828Y-33964D01*
X59771Y-36385D02*
X59628Y-36385D01*
X59628Y-36085D01*
X59871Y-36228D02*
X59971Y-36228D01*
X60014Y-36385D02*
X59871Y-36385D01*
X59871Y-36085D01*
X60014Y-36085D01*
X60142Y-36385D02*
X60142Y-36085D01*
X60214Y-36085D01*
X60257Y-36100D01*
X60285Y-36128D01*
X60300Y-36157D01*
X60314Y-36214D01*
X60314Y-36257D01*
X60300Y-36314D01*
X60285Y-36342D01*
X60257Y-36371D01*
X60214Y-36385D01*
X60142Y-36385D01*
X60428Y-36114D02*
X60442Y-36100D01*
X60471Y-36085D01*
X60542Y-36085D01*
X60571Y-36100D01*
X60585Y-36114D01*
X60600Y-36142D01*
X60600Y-36171D01*
X60585Y-36214D01*
X60414Y-36385D01*
X60600Y-36385D01*
X60742Y-36385D02*
X60800Y-36385D01*
X60828Y-36371D01*
X60842Y-36357D01*
X60871Y-36314D01*
X60885Y-36257D01*
X60885Y-36142D01*
X60871Y-36114D01*
X60857Y-36100D01*
X60828Y-36085D01*
X60771Y-36085D01*
X60742Y-36100D01*
X60728Y-36114D01*
X60714Y-36142D01*
X60714Y-36214D01*
X60728Y-36242D01*
X60742Y-36257D01*
X60771Y-36271D01*
X60828Y-36271D01*
X60857Y-36257D01*
X60871Y-36242D01*
X60885Y-36214D01*
X59771Y-38635D02*
X59628Y-38635D01*
X59628Y-38335D01*
X59871Y-38478D02*
X59971Y-38478D01*
X60014Y-38635D02*
X59871Y-38635D01*
X59871Y-38335D01*
X60014Y-38335D01*
X60142Y-38635D02*
X60142Y-38335D01*
X60214Y-38335D01*
X60257Y-38350D01*
X60285Y-38378D01*
X60300Y-38407D01*
X60314Y-38464D01*
X60314Y-38507D01*
X60300Y-38564D01*
X60285Y-38592D01*
X60257Y-38621D01*
X60214Y-38635D01*
X60142Y-38635D01*
X60414Y-38335D02*
X60600Y-38335D01*
X60500Y-38450D01*
X60542Y-38450D01*
X60571Y-38464D01*
X60585Y-38478D01*
X60600Y-38507D01*
X60600Y-38578D01*
X60585Y-38607D01*
X60571Y-38621D01*
X60542Y-38635D01*
X60457Y-38635D01*
X60428Y-38621D01*
X60414Y-38607D01*
X60785Y-38335D02*
X60814Y-38335D01*
X60842Y-38350D01*
X60857Y-38364D01*
X60871Y-38392D01*
X60885Y-38450D01*
X60885Y-38521D01*
X60871Y-38578D01*
X60857Y-38607D01*
X60842Y-38621D01*
X60814Y-38635D01*
X60785Y-38635D01*
X60757Y-38621D01*
X60742Y-38607D01*
X60728Y-38578D01*
X60714Y-38521D01*
X60714Y-38450D01*
X60728Y-38392D01*
X60742Y-38364D01*
X60757Y-38350D01*
X60785Y-38335D01*
X91271Y-31885D02*
X91128Y-31885D01*
X91128Y-31585D01*
X91371Y-31728D02*
X91471Y-31728D01*
X91514Y-31885D02*
X91371Y-31885D01*
X91371Y-31585D01*
X91514Y-31585D01*
X91642Y-31885D02*
X91642Y-31585D01*
X91714Y-31585D01*
X91757Y-31600D01*
X91785Y-31628D01*
X91800Y-31657D01*
X91814Y-31714D01*
X91814Y-31757D01*
X91800Y-31814D01*
X91785Y-31842D01*
X91757Y-31871D01*
X91714Y-31885D01*
X91642Y-31885D01*
X91914Y-31585D02*
X92100Y-31585D01*
X92000Y-31700D01*
X92042Y-31700D01*
X92071Y-31714D01*
X92085Y-31728D01*
X92100Y-31757D01*
X92100Y-31828D01*
X92085Y-31857D01*
X92071Y-31871D01*
X92042Y-31885D01*
X91957Y-31885D01*
X91928Y-31871D01*
X91914Y-31857D01*
X92385Y-31885D02*
X92214Y-31885D01*
X92300Y-31885D02*
X92300Y-31585D01*
X92271Y-31628D01*
X92242Y-31657D01*
X92214Y-31671D01*
X91271Y-34135D02*
X91128Y-34135D01*
X91128Y-33835D01*
X91371Y-33978D02*
X91471Y-33978D01*
X91514Y-34135D02*
X91371Y-34135D01*
X91371Y-33835D01*
X91514Y-33835D01*
X91642Y-34135D02*
X91642Y-33835D01*
X91714Y-33835D01*
X91757Y-33850D01*
X91785Y-33878D01*
X91800Y-33907D01*
X91814Y-33964D01*
X91814Y-34007D01*
X91800Y-34064D01*
X91785Y-34092D01*
X91757Y-34121D01*
X91714Y-34135D01*
X91642Y-34135D01*
X91914Y-33835D02*
X92100Y-33835D01*
X92000Y-33950D01*
X92042Y-33950D01*
X92071Y-33964D01*
X92085Y-33978D01*
X92100Y-34007D01*
X92100Y-34078D01*
X92085Y-34107D01*
X92071Y-34121D01*
X92042Y-34135D01*
X91957Y-34135D01*
X91928Y-34121D01*
X91914Y-34107D01*
X92214Y-33864D02*
X92228Y-33850D01*
X92257Y-33835D01*
X92328Y-33835D01*
X92357Y-33850D01*
X92371Y-33864D01*
X92385Y-33892D01*
X92385Y-33921D01*
X92371Y-33964D01*
X92200Y-34135D01*
X92385Y-34135D01*
X91271Y-36385D02*
X91128Y-36385D01*
X91128Y-36085D01*
X91371Y-36228D02*
X91471Y-36228D01*
X91514Y-36385D02*
X91371Y-36385D01*
X91371Y-36085D01*
X91514Y-36085D01*
X91642Y-36385D02*
X91642Y-36085D01*
X91714Y-36085D01*
X91757Y-36100D01*
X91785Y-36128D01*
X91800Y-36157D01*
X91814Y-36214D01*
X91814Y-36257D01*
X91800Y-36314D01*
X91785Y-36342D01*
X91757Y-36371D01*
X91714Y-36385D01*
X91642Y-36385D01*
X91914Y-36085D02*
X92100Y-36085D01*
X92000Y-36200D01*
X92042Y-36200D01*
X92071Y-36214D01*
X92085Y-36228D01*
X92100Y-36257D01*
X92100Y-36328D01*
X92085Y-36357D01*
X92071Y-36371D01*
X92042Y-36385D01*
X91957Y-36385D01*
X91928Y-36371D01*
X91914Y-36357D01*
X92200Y-36085D02*
X92385Y-36085D01*
X92285Y-36200D01*
X92328Y-36200D01*
X92357Y-36214D01*
X92371Y-36228D01*
X92385Y-36257D01*
X92385Y-36328D01*
X92371Y-36357D01*
X92357Y-36371D01*
X92328Y-36385D01*
X92242Y-36385D01*
X92214Y-36371D01*
X92200Y-36357D01*
X91271Y-38635D02*
X91128Y-38635D01*
X91128Y-38335D01*
X91371Y-38478D02*
X91471Y-38478D01*
X91514Y-38635D02*
X91371Y-38635D01*
X91371Y-38335D01*
X91514Y-38335D01*
X91642Y-38635D02*
X91642Y-38335D01*
X91714Y-38335D01*
X91757Y-38350D01*
X91785Y-38378D01*
X91800Y-38407D01*
X91814Y-38464D01*
X91814Y-38507D01*
X91800Y-38564D01*
X91785Y-38592D01*
X91757Y-38621D01*
X91714Y-38635D01*
X91642Y-38635D01*
X91914Y-38335D02*
X92100Y-38335D01*
X92000Y-38450D01*
X92042Y-38450D01*
X92071Y-38464D01*
X92085Y-38478D01*
X92100Y-38507D01*
X92100Y-38578D01*
X92085Y-38607D01*
X92071Y-38621D01*
X92042Y-38635D01*
X91957Y-38635D01*
X91928Y-38621D01*
X91914Y-38607D01*
X92357Y-38435D02*
X92357Y-38635D01*
X92285Y-38321D02*
X92214Y-38535D01*
X92400Y-38535D01*
X62021Y-31885D02*
X61878Y-31885D01*
X61878Y-31585D01*
X62121Y-31728D02*
X62221Y-31728D01*
X62264Y-31885D02*
X62121Y-31885D01*
X62121Y-31585D01*
X62264Y-31585D01*
X62392Y-31885D02*
X62392Y-31585D01*
X62464Y-31585D01*
X62507Y-31600D01*
X62535Y-31628D01*
X62550Y-31657D01*
X62564Y-31714D01*
X62564Y-31757D01*
X62550Y-31814D01*
X62535Y-31842D01*
X62507Y-31871D01*
X62464Y-31885D01*
X62392Y-31885D01*
X62664Y-31585D02*
X62850Y-31585D01*
X62750Y-31700D01*
X62792Y-31700D01*
X62821Y-31714D01*
X62835Y-31728D01*
X62850Y-31757D01*
X62850Y-31828D01*
X62835Y-31857D01*
X62821Y-31871D01*
X62792Y-31885D01*
X62707Y-31885D01*
X62678Y-31871D01*
X62664Y-31857D01*
X63121Y-31585D02*
X62978Y-31585D01*
X62964Y-31728D01*
X62978Y-31714D01*
X63007Y-31700D01*
X63078Y-31700D01*
X63107Y-31714D01*
X63121Y-31728D01*
X63135Y-31757D01*
X63135Y-31828D01*
X63121Y-31857D01*
X63107Y-31871D01*
X63078Y-31885D01*
X63007Y-31885D01*
X62978Y-31871D01*
X62964Y-31857D01*
X62021Y-34135D02*
X61878Y-34135D01*
X61878Y-33835D01*
X62121Y-33978D02*
X62221Y-33978D01*
X62264Y-34135D02*
X62121Y-34135D01*
X62121Y-33835D01*
X62264Y-33835D01*
X62392Y-34135D02*
X62392Y-33835D01*
X62464Y-33835D01*
X62507Y-33850D01*
X62535Y-33878D01*
X62550Y-33907D01*
X62564Y-33964D01*
X62564Y-34007D01*
X62550Y-34064D01*
X62535Y-34092D01*
X62507Y-34121D01*
X62464Y-34135D01*
X62392Y-34135D01*
X62664Y-33835D02*
X62850Y-33835D01*
X62750Y-33950D01*
X62792Y-33950D01*
X62821Y-33964D01*
X62835Y-33978D01*
X62850Y-34007D01*
X62850Y-34078D01*
X62835Y-34107D01*
X62821Y-34121D01*
X62792Y-34135D01*
X62707Y-34135D01*
X62678Y-34121D01*
X62664Y-34107D01*
X63107Y-33835D02*
X63050Y-33835D01*
X63021Y-33850D01*
X63007Y-33864D01*
X62978Y-33907D01*
X62964Y-33964D01*
X62964Y-34078D01*
X62978Y-34107D01*
X62992Y-34121D01*
X63021Y-34135D01*
X63078Y-34135D01*
X63107Y-34121D01*
X63121Y-34107D01*
X63135Y-34078D01*
X63135Y-34007D01*
X63121Y-33978D01*
X63107Y-33964D01*
X63078Y-33950D01*
X63021Y-33950D01*
X62992Y-33964D01*
X62978Y-33978D01*
X62964Y-34007D01*
X62021Y-36385D02*
X61878Y-36385D01*
X61878Y-36085D01*
X62121Y-36228D02*
X62221Y-36228D01*
X62264Y-36385D02*
X62121Y-36385D01*
X62121Y-36085D01*
X62264Y-36085D01*
X62392Y-36385D02*
X62392Y-36085D01*
X62464Y-36085D01*
X62507Y-36100D01*
X62535Y-36128D01*
X62550Y-36157D01*
X62564Y-36214D01*
X62564Y-36257D01*
X62550Y-36314D01*
X62535Y-36342D01*
X62507Y-36371D01*
X62464Y-36385D01*
X62392Y-36385D01*
X62664Y-36085D02*
X62850Y-36085D01*
X62750Y-36200D01*
X62792Y-36200D01*
X62821Y-36214D01*
X62835Y-36228D01*
X62850Y-36257D01*
X62850Y-36328D01*
X62835Y-36357D01*
X62821Y-36371D01*
X62792Y-36385D01*
X62707Y-36385D01*
X62678Y-36371D01*
X62664Y-36357D01*
X62950Y-36085D02*
X63150Y-36085D01*
X63021Y-36385D01*
X62021Y-38635D02*
X61878Y-38635D01*
X61878Y-38335D01*
X62121Y-38478D02*
X62221Y-38478D01*
X62264Y-38635D02*
X62121Y-38635D01*
X62121Y-38335D01*
X62264Y-38335D01*
X62392Y-38635D02*
X62392Y-38335D01*
X62464Y-38335D01*
X62507Y-38350D01*
X62535Y-38378D01*
X62550Y-38407D01*
X62564Y-38464D01*
X62564Y-38507D01*
X62550Y-38564D01*
X62535Y-38592D01*
X62507Y-38621D01*
X62464Y-38635D01*
X62392Y-38635D01*
X62664Y-38335D02*
X62850Y-38335D01*
X62750Y-38450D01*
X62792Y-38450D01*
X62821Y-38464D01*
X62835Y-38478D01*
X62850Y-38507D01*
X62850Y-38578D01*
X62835Y-38607D01*
X62821Y-38621D01*
X62792Y-38635D01*
X62707Y-38635D01*
X62678Y-38621D01*
X62664Y-38607D01*
X63021Y-38464D02*
X62992Y-38450D01*
X62978Y-38435D01*
X62964Y-38407D01*
X62964Y-38392D01*
X62978Y-38364D01*
X62992Y-38350D01*
X63021Y-38335D01*
X63078Y-38335D01*
X63107Y-38350D01*
X63121Y-38364D01*
X63135Y-38392D01*
X63135Y-38407D01*
X63121Y-38435D01*
X63107Y-38450D01*
X63078Y-38464D01*
X63021Y-38464D01*
X62992Y-38478D01*
X62978Y-38492D01*
X62964Y-38521D01*
X62964Y-38578D01*
X62978Y-38607D01*
X62992Y-38621D01*
X63021Y-38635D01*
X63078Y-38635D01*
X63107Y-38621D01*
X63121Y-38607D01*
X63135Y-38578D01*
X63135Y-38521D01*
X63121Y-38492D01*
X63107Y-38478D01*
X63078Y-38464D01*
X89021Y-31885D02*
X88878Y-31885D01*
X88878Y-31585D01*
X89121Y-31728D02*
X89221Y-31728D01*
X89264Y-31885D02*
X89121Y-31885D01*
X89121Y-31585D01*
X89264Y-31585D01*
X89392Y-31885D02*
X89392Y-31585D01*
X89464Y-31585D01*
X89507Y-31600D01*
X89535Y-31628D01*
X89550Y-31657D01*
X89564Y-31714D01*
X89564Y-31757D01*
X89550Y-31814D01*
X89535Y-31842D01*
X89507Y-31871D01*
X89464Y-31885D01*
X89392Y-31885D01*
X89664Y-31585D02*
X89850Y-31585D01*
X89750Y-31700D01*
X89792Y-31700D01*
X89821Y-31714D01*
X89835Y-31728D01*
X89850Y-31757D01*
X89850Y-31828D01*
X89835Y-31857D01*
X89821Y-31871D01*
X89792Y-31885D01*
X89707Y-31885D01*
X89678Y-31871D01*
X89664Y-31857D01*
X89992Y-31885D02*
X90050Y-31885D01*
X90078Y-31871D01*
X90092Y-31857D01*
X90121Y-31814D01*
X90135Y-31757D01*
X90135Y-31642D01*
X90121Y-31614D01*
X90107Y-31600D01*
X90078Y-31585D01*
X90021Y-31585D01*
X89992Y-31600D01*
X89978Y-31614D01*
X89964Y-31642D01*
X89964Y-31714D01*
X89978Y-31742D01*
X89992Y-31757D01*
X90021Y-31771D01*
X90078Y-31771D01*
X90107Y-31757D01*
X90121Y-31742D01*
X90135Y-31714D01*
X89021Y-34135D02*
X88878Y-34135D01*
X88878Y-33835D01*
X89121Y-33978D02*
X89221Y-33978D01*
X89264Y-34135D02*
X89121Y-34135D01*
X89121Y-33835D01*
X89264Y-33835D01*
X89392Y-34135D02*
X89392Y-33835D01*
X89464Y-33835D01*
X89507Y-33850D01*
X89535Y-33878D01*
X89550Y-33907D01*
X89564Y-33964D01*
X89564Y-34007D01*
X89550Y-34064D01*
X89535Y-34092D01*
X89507Y-34121D01*
X89464Y-34135D01*
X89392Y-34135D01*
X89821Y-33935D02*
X89821Y-34135D01*
X89750Y-33821D02*
X89678Y-34035D01*
X89864Y-34035D01*
X90035Y-33835D02*
X90064Y-33835D01*
X90092Y-33850D01*
X90107Y-33864D01*
X90121Y-33892D01*
X90135Y-33950D01*
X90135Y-34021D01*
X90121Y-34078D01*
X90107Y-34107D01*
X90092Y-34121D01*
X90064Y-34135D01*
X90035Y-34135D01*
X90007Y-34121D01*
X89992Y-34107D01*
X89978Y-34078D01*
X89964Y-34021D01*
X89964Y-33950D01*
X89978Y-33892D01*
X89992Y-33864D01*
X90007Y-33850D01*
X90035Y-33835D01*
X89021Y-36385D02*
X88878Y-36385D01*
X88878Y-36085D01*
X89121Y-36228D02*
X89221Y-36228D01*
X89264Y-36385D02*
X89121Y-36385D01*
X89121Y-36085D01*
X89264Y-36085D01*
X89392Y-36385D02*
X89392Y-36085D01*
X89464Y-36085D01*
X89507Y-36100D01*
X89535Y-36128D01*
X89550Y-36157D01*
X89564Y-36214D01*
X89564Y-36257D01*
X89550Y-36314D01*
X89535Y-36342D01*
X89507Y-36371D01*
X89464Y-36385D01*
X89392Y-36385D01*
X89821Y-36185D02*
X89821Y-36385D01*
X89750Y-36071D02*
X89678Y-36285D01*
X89864Y-36285D01*
X90135Y-36385D02*
X89964Y-36385D01*
X90050Y-36385D02*
X90050Y-36085D01*
X90021Y-36128D01*
X89992Y-36157D01*
X89964Y-36171D01*
X89021Y-38635D02*
X88878Y-38635D01*
X88878Y-38335D01*
X89121Y-38478D02*
X89221Y-38478D01*
X89264Y-38635D02*
X89121Y-38635D01*
X89121Y-38335D01*
X89264Y-38335D01*
X89392Y-38635D02*
X89392Y-38335D01*
X89464Y-38335D01*
X89507Y-38350D01*
X89535Y-38378D01*
X89550Y-38407D01*
X89564Y-38464D01*
X89564Y-38507D01*
X89550Y-38564D01*
X89535Y-38592D01*
X89507Y-38621D01*
X89464Y-38635D01*
X89392Y-38635D01*
X89821Y-38435D02*
X89821Y-38635D01*
X89750Y-38321D02*
X89678Y-38535D01*
X89864Y-38535D01*
X89964Y-38364D02*
X89978Y-38350D01*
X90007Y-38335D01*
X90078Y-38335D01*
X90107Y-38350D01*
X90121Y-38364D01*
X90135Y-38392D01*
X90135Y-38421D01*
X90121Y-38464D01*
X89950Y-38635D01*
X90135Y-38635D01*
X64271Y-31885D02*
X64128Y-31885D01*
X64128Y-31585D01*
X64371Y-31728D02*
X64471Y-31728D01*
X64514Y-31885D02*
X64371Y-31885D01*
X64371Y-31585D01*
X64514Y-31585D01*
X64642Y-31885D02*
X64642Y-31585D01*
X64714Y-31585D01*
X64757Y-31600D01*
X64785Y-31628D01*
X64800Y-31657D01*
X64814Y-31714D01*
X64814Y-31757D01*
X64800Y-31814D01*
X64785Y-31842D01*
X64757Y-31871D01*
X64714Y-31885D01*
X64642Y-31885D01*
X65071Y-31685D02*
X65071Y-31885D01*
X65000Y-31571D02*
X64928Y-31785D01*
X65114Y-31785D01*
X65200Y-31585D02*
X65385Y-31585D01*
X65285Y-31700D01*
X65328Y-31700D01*
X65357Y-31714D01*
X65371Y-31728D01*
X65385Y-31757D01*
X65385Y-31828D01*
X65371Y-31857D01*
X65357Y-31871D01*
X65328Y-31885D01*
X65242Y-31885D01*
X65214Y-31871D01*
X65200Y-31857D01*
X64271Y-34135D02*
X64128Y-34135D01*
X64128Y-33835D01*
X64371Y-33978D02*
X64471Y-33978D01*
X64514Y-34135D02*
X64371Y-34135D01*
X64371Y-33835D01*
X64514Y-33835D01*
X64642Y-34135D02*
X64642Y-33835D01*
X64714Y-33835D01*
X64757Y-33850D01*
X64785Y-33878D01*
X64800Y-33907D01*
X64814Y-33964D01*
X64814Y-34007D01*
X64800Y-34064D01*
X64785Y-34092D01*
X64757Y-34121D01*
X64714Y-34135D01*
X64642Y-34135D01*
X65071Y-33935D02*
X65071Y-34135D01*
X65000Y-33821D02*
X64928Y-34035D01*
X65114Y-34035D01*
X65357Y-33935D02*
X65357Y-34135D01*
X65285Y-33821D02*
X65214Y-34035D01*
X65400Y-34035D01*
X64271Y-36385D02*
X64128Y-36385D01*
X64128Y-36085D01*
X64371Y-36228D02*
X64471Y-36228D01*
X64514Y-36385D02*
X64371Y-36385D01*
X64371Y-36085D01*
X64514Y-36085D01*
X64642Y-36385D02*
X64642Y-36085D01*
X64714Y-36085D01*
X64757Y-36100D01*
X64785Y-36128D01*
X64800Y-36157D01*
X64814Y-36214D01*
X64814Y-36257D01*
X64800Y-36314D01*
X64785Y-36342D01*
X64757Y-36371D01*
X64714Y-36385D01*
X64642Y-36385D01*
X65071Y-36185D02*
X65071Y-36385D01*
X65000Y-36071D02*
X64928Y-36285D01*
X65114Y-36285D01*
X65371Y-36085D02*
X65228Y-36085D01*
X65214Y-36228D01*
X65228Y-36214D01*
X65257Y-36200D01*
X65328Y-36200D01*
X65357Y-36214D01*
X65371Y-36228D01*
X65385Y-36257D01*
X65385Y-36328D01*
X65371Y-36357D01*
X65357Y-36371D01*
X65328Y-36385D01*
X65257Y-36385D01*
X65228Y-36371D01*
X65214Y-36357D01*
X64271Y-38635D02*
X64128Y-38635D01*
X64128Y-38335D01*
X64371Y-38478D02*
X64471Y-38478D01*
X64514Y-38635D02*
X64371Y-38635D01*
X64371Y-38335D01*
X64514Y-38335D01*
X64642Y-38635D02*
X64642Y-38335D01*
X64714Y-38335D01*
X64757Y-38350D01*
X64785Y-38378D01*
X64800Y-38407D01*
X64814Y-38464D01*
X64814Y-38507D01*
X64800Y-38564D01*
X64785Y-38592D01*
X64757Y-38621D01*
X64714Y-38635D01*
X64642Y-38635D01*
X65071Y-38435D02*
X65071Y-38635D01*
X65000Y-38321D02*
X64928Y-38535D01*
X65114Y-38535D01*
X65357Y-38335D02*
X65300Y-38335D01*
X65271Y-38350D01*
X65257Y-38364D01*
X65228Y-38407D01*
X65214Y-38464D01*
X65214Y-38578D01*
X65228Y-38607D01*
X65242Y-38621D01*
X65271Y-38635D01*
X65328Y-38635D01*
X65357Y-38621D01*
X65371Y-38607D01*
X65385Y-38578D01*
X65385Y-38507D01*
X65371Y-38478D01*
X65357Y-38464D01*
X65328Y-38450D01*
X65271Y-38450D01*
X65242Y-38464D01*
X65228Y-38478D01*
X65214Y-38507D01*
X86771Y-31885D02*
X86628Y-31885D01*
X86628Y-31585D01*
X86871Y-31728D02*
X86971Y-31728D01*
X87014Y-31885D02*
X86871Y-31885D01*
X86871Y-31585D01*
X87014Y-31585D01*
X87142Y-31885D02*
X87142Y-31585D01*
X87214Y-31585D01*
X87257Y-31600D01*
X87285Y-31628D01*
X87300Y-31657D01*
X87314Y-31714D01*
X87314Y-31757D01*
X87300Y-31814D01*
X87285Y-31842D01*
X87257Y-31871D01*
X87214Y-31885D01*
X87142Y-31885D01*
X87571Y-31685D02*
X87571Y-31885D01*
X87500Y-31571D02*
X87428Y-31785D01*
X87614Y-31785D01*
X87700Y-31585D02*
X87900Y-31585D01*
X87771Y-31885D01*
X86771Y-34135D02*
X86628Y-34135D01*
X86628Y-33835D01*
X86871Y-33978D02*
X86971Y-33978D01*
X87014Y-34135D02*
X86871Y-34135D01*
X86871Y-33835D01*
X87014Y-33835D01*
X87142Y-34135D02*
X87142Y-33835D01*
X87214Y-33835D01*
X87257Y-33850D01*
X87285Y-33878D01*
X87300Y-33907D01*
X87314Y-33964D01*
X87314Y-34007D01*
X87300Y-34064D01*
X87285Y-34092D01*
X87257Y-34121D01*
X87214Y-34135D01*
X87142Y-34135D01*
X87571Y-33935D02*
X87571Y-34135D01*
X87500Y-33821D02*
X87428Y-34035D01*
X87614Y-34035D01*
X87771Y-33964D02*
X87742Y-33950D01*
X87728Y-33935D01*
X87714Y-33907D01*
X87714Y-33892D01*
X87728Y-33864D01*
X87742Y-33850D01*
X87771Y-33835D01*
X87828Y-33835D01*
X87857Y-33850D01*
X87871Y-33864D01*
X87885Y-33892D01*
X87885Y-33907D01*
X87871Y-33935D01*
X87857Y-33950D01*
X87828Y-33964D01*
X87771Y-33964D01*
X87742Y-33978D01*
X87728Y-33992D01*
X87714Y-34021D01*
X87714Y-34078D01*
X87728Y-34107D01*
X87742Y-34121D01*
X87771Y-34135D01*
X87828Y-34135D01*
X87857Y-34121D01*
X87871Y-34107D01*
X87885Y-34078D01*
X87885Y-34021D01*
X87871Y-33992D01*
X87857Y-33978D01*
X87828Y-33964D01*
X86771Y-36385D02*
X86628Y-36385D01*
X86628Y-36085D01*
X86871Y-36228D02*
X86971Y-36228D01*
X87014Y-36385D02*
X86871Y-36385D01*
X86871Y-36085D01*
X87014Y-36085D01*
X87142Y-36385D02*
X87142Y-36085D01*
X87214Y-36085D01*
X87257Y-36100D01*
X87285Y-36128D01*
X87300Y-36157D01*
X87314Y-36214D01*
X87314Y-36257D01*
X87300Y-36314D01*
X87285Y-36342D01*
X87257Y-36371D01*
X87214Y-36385D01*
X87142Y-36385D01*
X87571Y-36185D02*
X87571Y-36385D01*
X87500Y-36071D02*
X87428Y-36285D01*
X87614Y-36285D01*
X87742Y-36385D02*
X87800Y-36385D01*
X87828Y-36371D01*
X87842Y-36357D01*
X87871Y-36314D01*
X87885Y-36257D01*
X87885Y-36142D01*
X87871Y-36114D01*
X87857Y-36100D01*
X87828Y-36085D01*
X87771Y-36085D01*
X87742Y-36100D01*
X87728Y-36114D01*
X87714Y-36142D01*
X87714Y-36214D01*
X87728Y-36242D01*
X87742Y-36257D01*
X87771Y-36271D01*
X87828Y-36271D01*
X87857Y-36257D01*
X87871Y-36242D01*
X87885Y-36214D01*
X86771Y-38635D02*
X86628Y-38635D01*
X86628Y-38335D01*
X86871Y-38478D02*
X86971Y-38478D01*
X87014Y-38635D02*
X86871Y-38635D01*
X86871Y-38335D01*
X87014Y-38335D01*
X87142Y-38635D02*
X87142Y-38335D01*
X87214Y-38335D01*
X87257Y-38350D01*
X87285Y-38378D01*
X87300Y-38407D01*
X87314Y-38464D01*
X87314Y-38507D01*
X87300Y-38564D01*
X87285Y-38592D01*
X87257Y-38621D01*
X87214Y-38635D01*
X87142Y-38635D01*
X87585Y-38335D02*
X87442Y-38335D01*
X87428Y-38478D01*
X87442Y-38464D01*
X87471Y-38450D01*
X87542Y-38450D01*
X87571Y-38464D01*
X87585Y-38478D01*
X87600Y-38507D01*
X87600Y-38578D01*
X87585Y-38607D01*
X87571Y-38621D01*
X87542Y-38635D01*
X87471Y-38635D01*
X87442Y-38621D01*
X87428Y-38607D01*
X87785Y-38335D02*
X87814Y-38335D01*
X87842Y-38350D01*
X87857Y-38364D01*
X87871Y-38392D01*
X87885Y-38450D01*
X87885Y-38521D01*
X87871Y-38578D01*
X87857Y-38607D01*
X87842Y-38621D01*
X87814Y-38635D01*
X87785Y-38635D01*
X87757Y-38621D01*
X87742Y-38607D01*
X87728Y-38578D01*
X87714Y-38521D01*
X87714Y-38450D01*
X87728Y-38392D01*
X87742Y-38364D01*
X87757Y-38350D01*
X87785Y-38335D01*
X66521Y-31885D02*
X66378Y-31885D01*
X66378Y-31585D01*
X66621Y-31728D02*
X66721Y-31728D01*
X66764Y-31885D02*
X66621Y-31885D01*
X66621Y-31585D01*
X66764Y-31585D01*
X66892Y-31885D02*
X66892Y-31585D01*
X66964Y-31585D01*
X67007Y-31600D01*
X67035Y-31628D01*
X67050Y-31657D01*
X67064Y-31714D01*
X67064Y-31757D01*
X67050Y-31814D01*
X67035Y-31842D01*
X67007Y-31871D01*
X66964Y-31885D01*
X66892Y-31885D01*
X67335Y-31585D02*
X67192Y-31585D01*
X67178Y-31728D01*
X67192Y-31714D01*
X67221Y-31700D01*
X67292Y-31700D01*
X67321Y-31714D01*
X67335Y-31728D01*
X67350Y-31757D01*
X67350Y-31828D01*
X67335Y-31857D01*
X67321Y-31871D01*
X67292Y-31885D01*
X67221Y-31885D01*
X67192Y-31871D01*
X67178Y-31857D01*
X67635Y-31885D02*
X67464Y-31885D01*
X67550Y-31885D02*
X67550Y-31585D01*
X67521Y-31628D01*
X67492Y-31657D01*
X67464Y-31671D01*
X66521Y-34135D02*
X66378Y-34135D01*
X66378Y-33835D01*
X66621Y-33978D02*
X66721Y-33978D01*
X66764Y-34135D02*
X66621Y-34135D01*
X66621Y-33835D01*
X66764Y-33835D01*
X66892Y-34135D02*
X66892Y-33835D01*
X66964Y-33835D01*
X67007Y-33850D01*
X67035Y-33878D01*
X67050Y-33907D01*
X67064Y-33964D01*
X67064Y-34007D01*
X67050Y-34064D01*
X67035Y-34092D01*
X67007Y-34121D01*
X66964Y-34135D01*
X66892Y-34135D01*
X67335Y-33835D02*
X67192Y-33835D01*
X67178Y-33978D01*
X67192Y-33964D01*
X67221Y-33950D01*
X67292Y-33950D01*
X67321Y-33964D01*
X67335Y-33978D01*
X67350Y-34007D01*
X67350Y-34078D01*
X67335Y-34107D01*
X67321Y-34121D01*
X67292Y-34135D01*
X67221Y-34135D01*
X67192Y-34121D01*
X67178Y-34107D01*
X67464Y-33864D02*
X67478Y-33850D01*
X67507Y-33835D01*
X67578Y-33835D01*
X67607Y-33850D01*
X67621Y-33864D01*
X67635Y-33892D01*
X67635Y-33921D01*
X67621Y-33964D01*
X67450Y-34135D01*
X67635Y-34135D01*
X66521Y-36385D02*
X66378Y-36385D01*
X66378Y-36085D01*
X66621Y-36228D02*
X66721Y-36228D01*
X66764Y-36385D02*
X66621Y-36385D01*
X66621Y-36085D01*
X66764Y-36085D01*
X66892Y-36385D02*
X66892Y-36085D01*
X66964Y-36085D01*
X67007Y-36100D01*
X67035Y-36128D01*
X67050Y-36157D01*
X67064Y-36214D01*
X67064Y-36257D01*
X67050Y-36314D01*
X67035Y-36342D01*
X67007Y-36371D01*
X66964Y-36385D01*
X66892Y-36385D01*
X67335Y-36085D02*
X67192Y-36085D01*
X67178Y-36228D01*
X67192Y-36214D01*
X67221Y-36200D01*
X67292Y-36200D01*
X67321Y-36214D01*
X67335Y-36228D01*
X67350Y-36257D01*
X67350Y-36328D01*
X67335Y-36357D01*
X67321Y-36371D01*
X67292Y-36385D01*
X67221Y-36385D01*
X67192Y-36371D01*
X67178Y-36357D01*
X67450Y-36085D02*
X67635Y-36085D01*
X67535Y-36200D01*
X67578Y-36200D01*
X67607Y-36214D01*
X67621Y-36228D01*
X67635Y-36257D01*
X67635Y-36328D01*
X67621Y-36357D01*
X67607Y-36371D01*
X67578Y-36385D01*
X67492Y-36385D01*
X67464Y-36371D01*
X67450Y-36357D01*
X66521Y-38635D02*
X66378Y-38635D01*
X66378Y-38335D01*
X66621Y-38478D02*
X66721Y-38478D01*
X66764Y-38635D02*
X66621Y-38635D01*
X66621Y-38335D01*
X66764Y-38335D01*
X66892Y-38635D02*
X66892Y-38335D01*
X66964Y-38335D01*
X67007Y-38350D01*
X67035Y-38378D01*
X67050Y-38407D01*
X67064Y-38464D01*
X67064Y-38507D01*
X67050Y-38564D01*
X67035Y-38592D01*
X67007Y-38621D01*
X66964Y-38635D01*
X66892Y-38635D01*
X67335Y-38335D02*
X67192Y-38335D01*
X67178Y-38478D01*
X67192Y-38464D01*
X67221Y-38450D01*
X67292Y-38450D01*
X67321Y-38464D01*
X67335Y-38478D01*
X67350Y-38507D01*
X67350Y-38578D01*
X67335Y-38607D01*
X67321Y-38621D01*
X67292Y-38635D01*
X67221Y-38635D01*
X67192Y-38621D01*
X67178Y-38607D01*
X67607Y-38435D02*
X67607Y-38635D01*
X67535Y-38321D02*
X67464Y-38535D01*
X67650Y-38535D01*
X84521Y-31885D02*
X84378Y-31885D01*
X84378Y-31585D01*
X84621Y-31728D02*
X84721Y-31728D01*
X84764Y-31885D02*
X84621Y-31885D01*
X84621Y-31585D01*
X84764Y-31585D01*
X84892Y-31885D02*
X84892Y-31585D01*
X84964Y-31585D01*
X85007Y-31600D01*
X85035Y-31628D01*
X85050Y-31657D01*
X85064Y-31714D01*
X85064Y-31757D01*
X85050Y-31814D01*
X85035Y-31842D01*
X85007Y-31871D01*
X84964Y-31885D01*
X84892Y-31885D01*
X85335Y-31585D02*
X85192Y-31585D01*
X85178Y-31728D01*
X85192Y-31714D01*
X85221Y-31700D01*
X85292Y-31700D01*
X85321Y-31714D01*
X85335Y-31728D01*
X85350Y-31757D01*
X85350Y-31828D01*
X85335Y-31857D01*
X85321Y-31871D01*
X85292Y-31885D01*
X85221Y-31885D01*
X85192Y-31871D01*
X85178Y-31857D01*
X85621Y-31585D02*
X85478Y-31585D01*
X85464Y-31728D01*
X85478Y-31714D01*
X85507Y-31700D01*
X85578Y-31700D01*
X85607Y-31714D01*
X85621Y-31728D01*
X85635Y-31757D01*
X85635Y-31828D01*
X85621Y-31857D01*
X85607Y-31871D01*
X85578Y-31885D01*
X85507Y-31885D01*
X85478Y-31871D01*
X85464Y-31857D01*
X84521Y-34135D02*
X84378Y-34135D01*
X84378Y-33835D01*
X84621Y-33978D02*
X84721Y-33978D01*
X84764Y-34135D02*
X84621Y-34135D01*
X84621Y-33835D01*
X84764Y-33835D01*
X84892Y-34135D02*
X84892Y-33835D01*
X84964Y-33835D01*
X85007Y-33850D01*
X85035Y-33878D01*
X85050Y-33907D01*
X85064Y-33964D01*
X85064Y-34007D01*
X85050Y-34064D01*
X85035Y-34092D01*
X85007Y-34121D01*
X84964Y-34135D01*
X84892Y-34135D01*
X85335Y-33835D02*
X85192Y-33835D01*
X85178Y-33978D01*
X85192Y-33964D01*
X85221Y-33950D01*
X85292Y-33950D01*
X85321Y-33964D01*
X85335Y-33978D01*
X85350Y-34007D01*
X85350Y-34078D01*
X85335Y-34107D01*
X85321Y-34121D01*
X85292Y-34135D01*
X85221Y-34135D01*
X85192Y-34121D01*
X85178Y-34107D01*
X85607Y-33835D02*
X85550Y-33835D01*
X85521Y-33850D01*
X85507Y-33864D01*
X85478Y-33907D01*
X85464Y-33964D01*
X85464Y-34078D01*
X85478Y-34107D01*
X85492Y-34121D01*
X85521Y-34135D01*
X85578Y-34135D01*
X85607Y-34121D01*
X85621Y-34107D01*
X85635Y-34078D01*
X85635Y-34007D01*
X85621Y-33978D01*
X85607Y-33964D01*
X85578Y-33950D01*
X85521Y-33950D01*
X85492Y-33964D01*
X85478Y-33978D01*
X85464Y-34007D01*
X84521Y-36385D02*
X84378Y-36385D01*
X84378Y-36085D01*
X84621Y-36228D02*
X84721Y-36228D01*
X84764Y-36385D02*
X84621Y-36385D01*
X84621Y-36085D01*
X84764Y-36085D01*
X84892Y-36385D02*
X84892Y-36085D01*
X84964Y-36085D01*
X85007Y-36100D01*
X85035Y-36128D01*
X85050Y-36157D01*
X85064Y-36214D01*
X85064Y-36257D01*
X85050Y-36314D01*
X85035Y-36342D01*
X85007Y-36371D01*
X84964Y-36385D01*
X84892Y-36385D01*
X85335Y-36085D02*
X85192Y-36085D01*
X85178Y-36228D01*
X85192Y-36214D01*
X85221Y-36200D01*
X85292Y-36200D01*
X85321Y-36214D01*
X85335Y-36228D01*
X85350Y-36257D01*
X85350Y-36328D01*
X85335Y-36357D01*
X85321Y-36371D01*
X85292Y-36385D01*
X85221Y-36385D01*
X85192Y-36371D01*
X85178Y-36357D01*
X85450Y-36085D02*
X85650Y-36085D01*
X85521Y-36385D01*
X84521Y-38635D02*
X84378Y-38635D01*
X84378Y-38335D01*
X84621Y-38478D02*
X84721Y-38478D01*
X84764Y-38635D02*
X84621Y-38635D01*
X84621Y-38335D01*
X84764Y-38335D01*
X84892Y-38635D02*
X84892Y-38335D01*
X84964Y-38335D01*
X85007Y-38350D01*
X85035Y-38378D01*
X85050Y-38407D01*
X85064Y-38464D01*
X85064Y-38507D01*
X85050Y-38564D01*
X85035Y-38592D01*
X85007Y-38621D01*
X84964Y-38635D01*
X84892Y-38635D01*
X85335Y-38335D02*
X85192Y-38335D01*
X85178Y-38478D01*
X85192Y-38464D01*
X85221Y-38450D01*
X85292Y-38450D01*
X85321Y-38464D01*
X85335Y-38478D01*
X85350Y-38507D01*
X85350Y-38578D01*
X85335Y-38607D01*
X85321Y-38621D01*
X85292Y-38635D01*
X85221Y-38635D01*
X85192Y-38621D01*
X85178Y-38607D01*
X85521Y-38464D02*
X85492Y-38450D01*
X85478Y-38435D01*
X85464Y-38407D01*
X85464Y-38392D01*
X85478Y-38364D01*
X85492Y-38350D01*
X85521Y-38335D01*
X85578Y-38335D01*
X85607Y-38350D01*
X85621Y-38364D01*
X85635Y-38392D01*
X85635Y-38407D01*
X85621Y-38435D01*
X85607Y-38450D01*
X85578Y-38464D01*
X85521Y-38464D01*
X85492Y-38478D01*
X85478Y-38492D01*
X85464Y-38521D01*
X85464Y-38578D01*
X85478Y-38607D01*
X85492Y-38621D01*
X85521Y-38635D01*
X85578Y-38635D01*
X85607Y-38621D01*
X85621Y-38607D01*
X85635Y-38578D01*
X85635Y-38521D01*
X85621Y-38492D01*
X85607Y-38478D01*
X85578Y-38464D01*
X68771Y-31885D02*
X68628Y-31885D01*
X68628Y-31585D01*
X68871Y-31728D02*
X68971Y-31728D01*
X69014Y-31885D02*
X68871Y-31885D01*
X68871Y-31585D01*
X69014Y-31585D01*
X69142Y-31885D02*
X69142Y-31585D01*
X69214Y-31585D01*
X69257Y-31600D01*
X69285Y-31628D01*
X69300Y-31657D01*
X69314Y-31714D01*
X69314Y-31757D01*
X69300Y-31814D01*
X69285Y-31842D01*
X69257Y-31871D01*
X69214Y-31885D01*
X69142Y-31885D01*
X69585Y-31585D02*
X69442Y-31585D01*
X69428Y-31728D01*
X69442Y-31714D01*
X69471Y-31700D01*
X69542Y-31700D01*
X69571Y-31714D01*
X69585Y-31728D01*
X69600Y-31757D01*
X69600Y-31828D01*
X69585Y-31857D01*
X69571Y-31871D01*
X69542Y-31885D01*
X69471Y-31885D01*
X69442Y-31871D01*
X69428Y-31857D01*
X69742Y-31885D02*
X69800Y-31885D01*
X69828Y-31871D01*
X69842Y-31857D01*
X69871Y-31814D01*
X69885Y-31757D01*
X69885Y-31642D01*
X69871Y-31614D01*
X69857Y-31600D01*
X69828Y-31585D01*
X69771Y-31585D01*
X69742Y-31600D01*
X69728Y-31614D01*
X69714Y-31642D01*
X69714Y-31714D01*
X69728Y-31742D01*
X69742Y-31757D01*
X69771Y-31771D01*
X69828Y-31771D01*
X69857Y-31757D01*
X69871Y-31742D01*
X69885Y-31714D01*
X68771Y-34135D02*
X68628Y-34135D01*
X68628Y-33835D01*
X68871Y-33978D02*
X68971Y-33978D01*
X69014Y-34135D02*
X68871Y-34135D01*
X68871Y-33835D01*
X69014Y-33835D01*
X69142Y-34135D02*
X69142Y-33835D01*
X69214Y-33835D01*
X69257Y-33850D01*
X69285Y-33878D01*
X69300Y-33907D01*
X69314Y-33964D01*
X69314Y-34007D01*
X69300Y-34064D01*
X69285Y-34092D01*
X69257Y-34121D01*
X69214Y-34135D01*
X69142Y-34135D01*
X69571Y-33835D02*
X69514Y-33835D01*
X69485Y-33850D01*
X69471Y-33864D01*
X69442Y-33907D01*
X69428Y-33964D01*
X69428Y-34078D01*
X69442Y-34107D01*
X69457Y-34121D01*
X69485Y-34135D01*
X69542Y-34135D01*
X69571Y-34121D01*
X69585Y-34107D01*
X69600Y-34078D01*
X69600Y-34007D01*
X69585Y-33978D01*
X69571Y-33964D01*
X69542Y-33950D01*
X69485Y-33950D01*
X69457Y-33964D01*
X69442Y-33978D01*
X69428Y-34007D01*
X69785Y-33835D02*
X69814Y-33835D01*
X69842Y-33850D01*
X69857Y-33864D01*
X69871Y-33892D01*
X69885Y-33950D01*
X69885Y-34021D01*
X69871Y-34078D01*
X69857Y-34107D01*
X69842Y-34121D01*
X69814Y-34135D01*
X69785Y-34135D01*
X69757Y-34121D01*
X69742Y-34107D01*
X69728Y-34078D01*
X69714Y-34021D01*
X69714Y-33950D01*
X69728Y-33892D01*
X69742Y-33864D01*
X69757Y-33850D01*
X69785Y-33835D01*
X68771Y-36385D02*
X68628Y-36385D01*
X68628Y-36085D01*
X68871Y-36228D02*
X68971Y-36228D01*
X69014Y-36385D02*
X68871Y-36385D01*
X68871Y-36085D01*
X69014Y-36085D01*
X69142Y-36385D02*
X69142Y-36085D01*
X69214Y-36085D01*
X69257Y-36100D01*
X69285Y-36128D01*
X69300Y-36157D01*
X69314Y-36214D01*
X69314Y-36257D01*
X69300Y-36314D01*
X69285Y-36342D01*
X69257Y-36371D01*
X69214Y-36385D01*
X69142Y-36385D01*
X69571Y-36085D02*
X69514Y-36085D01*
X69485Y-36100D01*
X69471Y-36114D01*
X69442Y-36157D01*
X69428Y-36214D01*
X69428Y-36328D01*
X69442Y-36357D01*
X69457Y-36371D01*
X69485Y-36385D01*
X69542Y-36385D01*
X69571Y-36371D01*
X69585Y-36357D01*
X69600Y-36328D01*
X69600Y-36257D01*
X69585Y-36228D01*
X69571Y-36214D01*
X69542Y-36200D01*
X69485Y-36200D01*
X69457Y-36214D01*
X69442Y-36228D01*
X69428Y-36257D01*
X69885Y-36385D02*
X69714Y-36385D01*
X69800Y-36385D02*
X69800Y-36085D01*
X69771Y-36128D01*
X69742Y-36157D01*
X69714Y-36171D01*
X68771Y-38635D02*
X68628Y-38635D01*
X68628Y-38335D01*
X68871Y-38478D02*
X68971Y-38478D01*
X69014Y-38635D02*
X68871Y-38635D01*
X68871Y-38335D01*
X69014Y-38335D01*
X69142Y-38635D02*
X69142Y-38335D01*
X69214Y-38335D01*
X69257Y-38350D01*
X69285Y-38378D01*
X69300Y-38407D01*
X69314Y-38464D01*
X69314Y-38507D01*
X69300Y-38564D01*
X69285Y-38592D01*
X69257Y-38621D01*
X69214Y-38635D01*
X69142Y-38635D01*
X69571Y-38335D02*
X69514Y-38335D01*
X69485Y-38350D01*
X69471Y-38364D01*
X69442Y-38407D01*
X69428Y-38464D01*
X69428Y-38578D01*
X69442Y-38607D01*
X69457Y-38621D01*
X69485Y-38635D01*
X69542Y-38635D01*
X69571Y-38621D01*
X69585Y-38607D01*
X69600Y-38578D01*
X69600Y-38507D01*
X69585Y-38478D01*
X69571Y-38464D01*
X69542Y-38450D01*
X69485Y-38450D01*
X69457Y-38464D01*
X69442Y-38478D01*
X69428Y-38507D01*
X69714Y-38364D02*
X69728Y-38350D01*
X69757Y-38335D01*
X69828Y-38335D01*
X69857Y-38350D01*
X69871Y-38364D01*
X69885Y-38392D01*
X69885Y-38421D01*
X69871Y-38464D01*
X69700Y-38635D01*
X69885Y-38635D01*
X82271Y-31885D02*
X82128Y-31885D01*
X82128Y-31585D01*
X82371Y-31728D02*
X82471Y-31728D01*
X82514Y-31885D02*
X82371Y-31885D01*
X82371Y-31585D01*
X82514Y-31585D01*
X82642Y-31885D02*
X82642Y-31585D01*
X82714Y-31585D01*
X82757Y-31600D01*
X82785Y-31628D01*
X82800Y-31657D01*
X82814Y-31714D01*
X82814Y-31757D01*
X82800Y-31814D01*
X82785Y-31842D01*
X82757Y-31871D01*
X82714Y-31885D01*
X82642Y-31885D01*
X83071Y-31585D02*
X83014Y-31585D01*
X82985Y-31600D01*
X82971Y-31614D01*
X82942Y-31657D01*
X82928Y-31714D01*
X82928Y-31828D01*
X82942Y-31857D01*
X82957Y-31871D01*
X82985Y-31885D01*
X83042Y-31885D01*
X83071Y-31871D01*
X83085Y-31857D01*
X83100Y-31828D01*
X83100Y-31757D01*
X83085Y-31728D01*
X83071Y-31714D01*
X83042Y-31700D01*
X82985Y-31700D01*
X82957Y-31714D01*
X82942Y-31728D01*
X82928Y-31757D01*
X83200Y-31585D02*
X83385Y-31585D01*
X83285Y-31700D01*
X83328Y-31700D01*
X83357Y-31714D01*
X83371Y-31728D01*
X83385Y-31757D01*
X83385Y-31828D01*
X83371Y-31857D01*
X83357Y-31871D01*
X83328Y-31885D01*
X83242Y-31885D01*
X83214Y-31871D01*
X83200Y-31857D01*
X82271Y-34135D02*
X82128Y-34135D01*
X82128Y-33835D01*
X82371Y-33978D02*
X82471Y-33978D01*
X82514Y-34135D02*
X82371Y-34135D01*
X82371Y-33835D01*
X82514Y-33835D01*
X82642Y-34135D02*
X82642Y-33835D01*
X82714Y-33835D01*
X82757Y-33850D01*
X82785Y-33878D01*
X82800Y-33907D01*
X82814Y-33964D01*
X82814Y-34007D01*
X82800Y-34064D01*
X82785Y-34092D01*
X82757Y-34121D01*
X82714Y-34135D01*
X82642Y-34135D01*
X83071Y-33835D02*
X83014Y-33835D01*
X82985Y-33850D01*
X82971Y-33864D01*
X82942Y-33907D01*
X82928Y-33964D01*
X82928Y-34078D01*
X82942Y-34107D01*
X82957Y-34121D01*
X82985Y-34135D01*
X83042Y-34135D01*
X83071Y-34121D01*
X83085Y-34107D01*
X83100Y-34078D01*
X83100Y-34007D01*
X83085Y-33978D01*
X83071Y-33964D01*
X83042Y-33950D01*
X82985Y-33950D01*
X82957Y-33964D01*
X82942Y-33978D01*
X82928Y-34007D01*
X83357Y-33935D02*
X83357Y-34135D01*
X83285Y-33821D02*
X83214Y-34035D01*
X83400Y-34035D01*
X82271Y-36385D02*
X82128Y-36385D01*
X82128Y-36085D01*
X82371Y-36228D02*
X82471Y-36228D01*
X82514Y-36385D02*
X82371Y-36385D01*
X82371Y-36085D01*
X82514Y-36085D01*
X82642Y-36385D02*
X82642Y-36085D01*
X82714Y-36085D01*
X82757Y-36100D01*
X82785Y-36128D01*
X82800Y-36157D01*
X82814Y-36214D01*
X82814Y-36257D01*
X82800Y-36314D01*
X82785Y-36342D01*
X82757Y-36371D01*
X82714Y-36385D01*
X82642Y-36385D01*
X83071Y-36085D02*
X83014Y-36085D01*
X82985Y-36100D01*
X82971Y-36114D01*
X82942Y-36157D01*
X82928Y-36214D01*
X82928Y-36328D01*
X82942Y-36357D01*
X82957Y-36371D01*
X82985Y-36385D01*
X83042Y-36385D01*
X83071Y-36371D01*
X83085Y-36357D01*
X83100Y-36328D01*
X83100Y-36257D01*
X83085Y-36228D01*
X83071Y-36214D01*
X83042Y-36200D01*
X82985Y-36200D01*
X82957Y-36214D01*
X82942Y-36228D01*
X82928Y-36257D01*
X83371Y-36085D02*
X83228Y-36085D01*
X83214Y-36228D01*
X83228Y-36214D01*
X83257Y-36200D01*
X83328Y-36200D01*
X83357Y-36214D01*
X83371Y-36228D01*
X83385Y-36257D01*
X83385Y-36328D01*
X83371Y-36357D01*
X83357Y-36371D01*
X83328Y-36385D01*
X83257Y-36385D01*
X83228Y-36371D01*
X83214Y-36357D01*
X82271Y-38635D02*
X82128Y-38635D01*
X82128Y-38335D01*
X82371Y-38478D02*
X82471Y-38478D01*
X82514Y-38635D02*
X82371Y-38635D01*
X82371Y-38335D01*
X82514Y-38335D01*
X82642Y-38635D02*
X82642Y-38335D01*
X82714Y-38335D01*
X82757Y-38350D01*
X82785Y-38378D01*
X82800Y-38407D01*
X82814Y-38464D01*
X82814Y-38507D01*
X82800Y-38564D01*
X82785Y-38592D01*
X82757Y-38621D01*
X82714Y-38635D01*
X82642Y-38635D01*
X83071Y-38335D02*
X83014Y-38335D01*
X82985Y-38350D01*
X82971Y-38364D01*
X82942Y-38407D01*
X82928Y-38464D01*
X82928Y-38578D01*
X82942Y-38607D01*
X82957Y-38621D01*
X82985Y-38635D01*
X83042Y-38635D01*
X83071Y-38621D01*
X83085Y-38607D01*
X83100Y-38578D01*
X83100Y-38507D01*
X83085Y-38478D01*
X83071Y-38464D01*
X83042Y-38450D01*
X82985Y-38450D01*
X82957Y-38464D01*
X82942Y-38478D01*
X82928Y-38507D01*
X83357Y-38335D02*
X83300Y-38335D01*
X83271Y-38350D01*
X83257Y-38364D01*
X83228Y-38407D01*
X83214Y-38464D01*
X83214Y-38578D01*
X83228Y-38607D01*
X83242Y-38621D01*
X83271Y-38635D01*
X83328Y-38635D01*
X83357Y-38621D01*
X83371Y-38607D01*
X83385Y-38578D01*
X83385Y-38507D01*
X83371Y-38478D01*
X83357Y-38464D01*
X83328Y-38450D01*
X83271Y-38450D01*
X83242Y-38464D01*
X83228Y-38478D01*
X83214Y-38507D01*
X71021Y-31885D02*
X70878Y-31885D01*
X70878Y-31585D01*
X71121Y-31728D02*
X71221Y-31728D01*
X71264Y-31885D02*
X71121Y-31885D01*
X71121Y-31585D01*
X71264Y-31585D01*
X71392Y-31885D02*
X71392Y-31585D01*
X71464Y-31585D01*
X71507Y-31600D01*
X71535Y-31628D01*
X71550Y-31657D01*
X71564Y-31714D01*
X71564Y-31757D01*
X71550Y-31814D01*
X71535Y-31842D01*
X71507Y-31871D01*
X71464Y-31885D01*
X71392Y-31885D01*
X71821Y-31585D02*
X71764Y-31585D01*
X71735Y-31600D01*
X71721Y-31614D01*
X71692Y-31657D01*
X71678Y-31714D01*
X71678Y-31828D01*
X71692Y-31857D01*
X71707Y-31871D01*
X71735Y-31885D01*
X71792Y-31885D01*
X71821Y-31871D01*
X71835Y-31857D01*
X71850Y-31828D01*
X71850Y-31757D01*
X71835Y-31728D01*
X71821Y-31714D01*
X71792Y-31700D01*
X71735Y-31700D01*
X71707Y-31714D01*
X71692Y-31728D01*
X71678Y-31757D01*
X71950Y-31585D02*
X72150Y-31585D01*
X72021Y-31885D01*
X71021Y-34135D02*
X70878Y-34135D01*
X70878Y-33835D01*
X71121Y-33978D02*
X71221Y-33978D01*
X71264Y-34135D02*
X71121Y-34135D01*
X71121Y-33835D01*
X71264Y-33835D01*
X71392Y-34135D02*
X71392Y-33835D01*
X71464Y-33835D01*
X71507Y-33850D01*
X71535Y-33878D01*
X71550Y-33907D01*
X71564Y-33964D01*
X71564Y-34007D01*
X71550Y-34064D01*
X71535Y-34092D01*
X71507Y-34121D01*
X71464Y-34135D01*
X71392Y-34135D01*
X71821Y-33835D02*
X71764Y-33835D01*
X71735Y-33850D01*
X71721Y-33864D01*
X71692Y-33907D01*
X71678Y-33964D01*
X71678Y-34078D01*
X71692Y-34107D01*
X71707Y-34121D01*
X71735Y-34135D01*
X71792Y-34135D01*
X71821Y-34121D01*
X71835Y-34107D01*
X71850Y-34078D01*
X71850Y-34007D01*
X71835Y-33978D01*
X71821Y-33964D01*
X71792Y-33950D01*
X71735Y-33950D01*
X71707Y-33964D01*
X71692Y-33978D01*
X71678Y-34007D01*
X72021Y-33964D02*
X71992Y-33950D01*
X71978Y-33935D01*
X71964Y-33907D01*
X71964Y-33892D01*
X71978Y-33864D01*
X71992Y-33850D01*
X72021Y-33835D01*
X72078Y-33835D01*
X72107Y-33850D01*
X72121Y-33864D01*
X72135Y-33892D01*
X72135Y-33907D01*
X72121Y-33935D01*
X72107Y-33950D01*
X72078Y-33964D01*
X72021Y-33964D01*
X71992Y-33978D01*
X71978Y-33992D01*
X71964Y-34021D01*
X71964Y-34078D01*
X71978Y-34107D01*
X71992Y-34121D01*
X72021Y-34135D01*
X72078Y-34135D01*
X72107Y-34121D01*
X72121Y-34107D01*
X72135Y-34078D01*
X72135Y-34021D01*
X72121Y-33992D01*
X72107Y-33978D01*
X72078Y-33964D01*
X71021Y-36385D02*
X70878Y-36385D01*
X70878Y-36085D01*
X71121Y-36228D02*
X71221Y-36228D01*
X71264Y-36385D02*
X71121Y-36385D01*
X71121Y-36085D01*
X71264Y-36085D01*
X71392Y-36385D02*
X71392Y-36085D01*
X71464Y-36085D01*
X71507Y-36100D01*
X71535Y-36128D01*
X71550Y-36157D01*
X71564Y-36214D01*
X71564Y-36257D01*
X71550Y-36314D01*
X71535Y-36342D01*
X71507Y-36371D01*
X71464Y-36385D01*
X71392Y-36385D01*
X71821Y-36085D02*
X71764Y-36085D01*
X71735Y-36100D01*
X71721Y-36114D01*
X71692Y-36157D01*
X71678Y-36214D01*
X71678Y-36328D01*
X71692Y-36357D01*
X71707Y-36371D01*
X71735Y-36385D01*
X71792Y-36385D01*
X71821Y-36371D01*
X71835Y-36357D01*
X71850Y-36328D01*
X71850Y-36257D01*
X71835Y-36228D01*
X71821Y-36214D01*
X71792Y-36200D01*
X71735Y-36200D01*
X71707Y-36214D01*
X71692Y-36228D01*
X71678Y-36257D01*
X71992Y-36385D02*
X72050Y-36385D01*
X72078Y-36371D01*
X72092Y-36357D01*
X72121Y-36314D01*
X72135Y-36257D01*
X72135Y-36142D01*
X72121Y-36114D01*
X72107Y-36100D01*
X72078Y-36085D01*
X72021Y-36085D01*
X71992Y-36100D01*
X71978Y-36114D01*
X71964Y-36142D01*
X71964Y-36214D01*
X71978Y-36242D01*
X71992Y-36257D01*
X72021Y-36271D01*
X72078Y-36271D01*
X72107Y-36257D01*
X72121Y-36242D01*
X72135Y-36214D01*
X71021Y-38635D02*
X70878Y-38635D01*
X70878Y-38335D01*
X71121Y-38478D02*
X71221Y-38478D01*
X71264Y-38635D02*
X71121Y-38635D01*
X71121Y-38335D01*
X71264Y-38335D01*
X71392Y-38635D02*
X71392Y-38335D01*
X71464Y-38335D01*
X71507Y-38350D01*
X71535Y-38378D01*
X71550Y-38407D01*
X71564Y-38464D01*
X71564Y-38507D01*
X71550Y-38564D01*
X71535Y-38592D01*
X71507Y-38621D01*
X71464Y-38635D01*
X71392Y-38635D01*
X71664Y-38335D02*
X71864Y-38335D01*
X71735Y-38635D01*
X72035Y-38335D02*
X72064Y-38335D01*
X72092Y-38350D01*
X72107Y-38364D01*
X72121Y-38392D01*
X72135Y-38450D01*
X72135Y-38521D01*
X72121Y-38578D01*
X72107Y-38607D01*
X72092Y-38621D01*
X72064Y-38635D01*
X72035Y-38635D01*
X72007Y-38621D01*
X71992Y-38607D01*
X71978Y-38578D01*
X71964Y-38521D01*
X71964Y-38450D01*
X71978Y-38392D01*
X71992Y-38364D01*
X72007Y-38350D01*
X72035Y-38335D01*
X80021Y-31885D02*
X79878Y-31885D01*
X79878Y-31585D01*
X80121Y-31728D02*
X80221Y-31728D01*
X80264Y-31885D02*
X80121Y-31885D01*
X80121Y-31585D01*
X80264Y-31585D01*
X80392Y-31885D02*
X80392Y-31585D01*
X80464Y-31585D01*
X80507Y-31600D01*
X80535Y-31628D01*
X80550Y-31657D01*
X80564Y-31714D01*
X80564Y-31757D01*
X80550Y-31814D01*
X80535Y-31842D01*
X80507Y-31871D01*
X80464Y-31885D01*
X80392Y-31885D01*
X80664Y-31585D02*
X80864Y-31585D01*
X80735Y-31885D01*
X81135Y-31885D02*
X80964Y-31885D01*
X81050Y-31885D02*
X81050Y-31585D01*
X81021Y-31628D01*
X80992Y-31657D01*
X80964Y-31671D01*
X80021Y-34135D02*
X79878Y-34135D01*
X79878Y-33835D01*
X80121Y-33978D02*
X80221Y-33978D01*
X80264Y-34135D02*
X80121Y-34135D01*
X80121Y-33835D01*
X80264Y-33835D01*
X80392Y-34135D02*
X80392Y-33835D01*
X80464Y-33835D01*
X80507Y-33850D01*
X80535Y-33878D01*
X80550Y-33907D01*
X80564Y-33964D01*
X80564Y-34007D01*
X80550Y-34064D01*
X80535Y-34092D01*
X80507Y-34121D01*
X80464Y-34135D01*
X80392Y-34135D01*
X80664Y-33835D02*
X80864Y-33835D01*
X80735Y-34135D01*
X80964Y-33864D02*
X80978Y-33850D01*
X81007Y-33835D01*
X81078Y-33835D01*
X81107Y-33850D01*
X81121Y-33864D01*
X81135Y-33892D01*
X81135Y-33921D01*
X81121Y-33964D01*
X80950Y-34135D01*
X81135Y-34135D01*
X80021Y-36385D02*
X79878Y-36385D01*
X79878Y-36085D01*
X80121Y-36228D02*
X80221Y-36228D01*
X80264Y-36385D02*
X80121Y-36385D01*
X80121Y-36085D01*
X80264Y-36085D01*
X80392Y-36385D02*
X80392Y-36085D01*
X80464Y-36085D01*
X80507Y-36100D01*
X80535Y-36128D01*
X80550Y-36157D01*
X80564Y-36214D01*
X80564Y-36257D01*
X80550Y-36314D01*
X80535Y-36342D01*
X80507Y-36371D01*
X80464Y-36385D01*
X80392Y-36385D01*
X80664Y-36085D02*
X80864Y-36085D01*
X80735Y-36385D01*
X80950Y-36085D02*
X81135Y-36085D01*
X81035Y-36200D01*
X81078Y-36200D01*
X81107Y-36214D01*
X81121Y-36228D01*
X81135Y-36257D01*
X81135Y-36328D01*
X81121Y-36357D01*
X81107Y-36371D01*
X81078Y-36385D01*
X80992Y-36385D01*
X80964Y-36371D01*
X80950Y-36357D01*
X80021Y-38635D02*
X79878Y-38635D01*
X79878Y-38335D01*
X80121Y-38478D02*
X80221Y-38478D01*
X80264Y-38635D02*
X80121Y-38635D01*
X80121Y-38335D01*
X80264Y-38335D01*
X80392Y-38635D02*
X80392Y-38335D01*
X80464Y-38335D01*
X80507Y-38350D01*
X80535Y-38378D01*
X80550Y-38407D01*
X80564Y-38464D01*
X80564Y-38507D01*
X80550Y-38564D01*
X80535Y-38592D01*
X80507Y-38621D01*
X80464Y-38635D01*
X80392Y-38635D01*
X80664Y-38335D02*
X80864Y-38335D01*
X80735Y-38635D01*
X81107Y-38435D02*
X81107Y-38635D01*
X81035Y-38321D02*
X80964Y-38535D01*
X81150Y-38535D01*
X73271Y-31885D02*
X73128Y-31885D01*
X73128Y-31585D01*
X73371Y-31728D02*
X73471Y-31728D01*
X73514Y-31885D02*
X73371Y-31885D01*
X73371Y-31585D01*
X73514Y-31585D01*
X73642Y-31885D02*
X73642Y-31585D01*
X73714Y-31585D01*
X73757Y-31600D01*
X73785Y-31628D01*
X73800Y-31657D01*
X73814Y-31714D01*
X73814Y-31757D01*
X73800Y-31814D01*
X73785Y-31842D01*
X73757Y-31871D01*
X73714Y-31885D01*
X73642Y-31885D01*
X73914Y-31585D02*
X74114Y-31585D01*
X73985Y-31885D01*
X74371Y-31585D02*
X74228Y-31585D01*
X74214Y-31728D01*
X74228Y-31714D01*
X74257Y-31700D01*
X74328Y-31700D01*
X74357Y-31714D01*
X74371Y-31728D01*
X74385Y-31757D01*
X74385Y-31828D01*
X74371Y-31857D01*
X74357Y-31871D01*
X74328Y-31885D01*
X74257Y-31885D01*
X74228Y-31871D01*
X74214Y-31857D01*
X73271Y-34135D02*
X73128Y-34135D01*
X73128Y-33835D01*
X73371Y-33978D02*
X73471Y-33978D01*
X73514Y-34135D02*
X73371Y-34135D01*
X73371Y-33835D01*
X73514Y-33835D01*
X73642Y-34135D02*
X73642Y-33835D01*
X73714Y-33835D01*
X73757Y-33850D01*
X73785Y-33878D01*
X73800Y-33907D01*
X73814Y-33964D01*
X73814Y-34007D01*
X73800Y-34064D01*
X73785Y-34092D01*
X73757Y-34121D01*
X73714Y-34135D01*
X73642Y-34135D01*
X73914Y-33835D02*
X74114Y-33835D01*
X73985Y-34135D01*
X74357Y-33835D02*
X74300Y-33835D01*
X74271Y-33850D01*
X74257Y-33864D01*
X74228Y-33907D01*
X74214Y-33964D01*
X74214Y-34078D01*
X74228Y-34107D01*
X74242Y-34121D01*
X74271Y-34135D01*
X74328Y-34135D01*
X74357Y-34121D01*
X74371Y-34107D01*
X74385Y-34078D01*
X74385Y-34007D01*
X74371Y-33978D01*
X74357Y-33964D01*
X74328Y-33950D01*
X74271Y-33950D01*
X74242Y-33964D01*
X74228Y-33978D01*
X74214Y-34007D01*
X73271Y-36385D02*
X73128Y-36385D01*
X73128Y-36085D01*
X73371Y-36228D02*
X73471Y-36228D01*
X73514Y-36385D02*
X73371Y-36385D01*
X73371Y-36085D01*
X73514Y-36085D01*
X73642Y-36385D02*
X73642Y-36085D01*
X73714Y-36085D01*
X73757Y-36100D01*
X73785Y-36128D01*
X73800Y-36157D01*
X73814Y-36214D01*
X73814Y-36257D01*
X73800Y-36314D01*
X73785Y-36342D01*
X73757Y-36371D01*
X73714Y-36385D01*
X73642Y-36385D01*
X73914Y-36085D02*
X74114Y-36085D01*
X73985Y-36385D01*
X74200Y-36085D02*
X74400Y-36085D01*
X74271Y-36385D01*
X73271Y-38635D02*
X73128Y-38635D01*
X73128Y-38335D01*
X73371Y-38478D02*
X73471Y-38478D01*
X73514Y-38635D02*
X73371Y-38635D01*
X73371Y-38335D01*
X73514Y-38335D01*
X73642Y-38635D02*
X73642Y-38335D01*
X73714Y-38335D01*
X73757Y-38350D01*
X73785Y-38378D01*
X73800Y-38407D01*
X73814Y-38464D01*
X73814Y-38507D01*
X73800Y-38564D01*
X73785Y-38592D01*
X73757Y-38621D01*
X73714Y-38635D01*
X73642Y-38635D01*
X73914Y-38335D02*
X74114Y-38335D01*
X73985Y-38635D01*
X74271Y-38464D02*
X74242Y-38450D01*
X74228Y-38435D01*
X74214Y-38407D01*
X74214Y-38392D01*
X74228Y-38364D01*
X74242Y-38350D01*
X74271Y-38335D01*
X74328Y-38335D01*
X74357Y-38350D01*
X74371Y-38364D01*
X74385Y-38392D01*
X74385Y-38407D01*
X74371Y-38435D01*
X74357Y-38450D01*
X74328Y-38464D01*
X74271Y-38464D01*
X74242Y-38478D01*
X74228Y-38492D01*
X74214Y-38521D01*
X74214Y-38578D01*
X74228Y-38607D01*
X74242Y-38621D01*
X74271Y-38635D01*
X74328Y-38635D01*
X74357Y-38621D01*
X74371Y-38607D01*
X74385Y-38578D01*
X74385Y-38521D01*
X74371Y-38492D01*
X74357Y-38478D01*
X74328Y-38464D01*
X77771Y-31885D02*
X77628Y-31885D01*
X77628Y-31585D01*
X77871Y-31728D02*
X77971Y-31728D01*
X78014Y-31885D02*
X77871Y-31885D01*
X77871Y-31585D01*
X78014Y-31585D01*
X78142Y-31885D02*
X78142Y-31585D01*
X78214Y-31585D01*
X78257Y-31600D01*
X78285Y-31628D01*
X78300Y-31657D01*
X78314Y-31714D01*
X78314Y-31757D01*
X78300Y-31814D01*
X78285Y-31842D01*
X78257Y-31871D01*
X78214Y-31885D01*
X78142Y-31885D01*
X78414Y-31585D02*
X78614Y-31585D01*
X78485Y-31885D01*
X78742Y-31885D02*
X78800Y-31885D01*
X78828Y-31871D01*
X78842Y-31857D01*
X78871Y-31814D01*
X78885Y-31757D01*
X78885Y-31642D01*
X78871Y-31614D01*
X78857Y-31600D01*
X78828Y-31585D01*
X78771Y-31585D01*
X78742Y-31600D01*
X78728Y-31614D01*
X78714Y-31642D01*
X78714Y-31714D01*
X78728Y-31742D01*
X78742Y-31757D01*
X78771Y-31771D01*
X78828Y-31771D01*
X78857Y-31757D01*
X78871Y-31742D01*
X78885Y-31714D01*
X77771Y-34135D02*
X77628Y-34135D01*
X77628Y-33835D01*
X77871Y-33978D02*
X77971Y-33978D01*
X78014Y-34135D02*
X77871Y-34135D01*
X77871Y-33835D01*
X78014Y-33835D01*
X78142Y-34135D02*
X78142Y-33835D01*
X78214Y-33835D01*
X78257Y-33850D01*
X78285Y-33878D01*
X78300Y-33907D01*
X78314Y-33964D01*
X78314Y-34007D01*
X78300Y-34064D01*
X78285Y-34092D01*
X78257Y-34121D01*
X78214Y-34135D01*
X78142Y-34135D01*
X78485Y-33964D02*
X78457Y-33950D01*
X78442Y-33935D01*
X78428Y-33907D01*
X78428Y-33892D01*
X78442Y-33864D01*
X78457Y-33850D01*
X78485Y-33835D01*
X78542Y-33835D01*
X78571Y-33850D01*
X78585Y-33864D01*
X78600Y-33892D01*
X78600Y-33907D01*
X78585Y-33935D01*
X78571Y-33950D01*
X78542Y-33964D01*
X78485Y-33964D01*
X78457Y-33978D01*
X78442Y-33992D01*
X78428Y-34021D01*
X78428Y-34078D01*
X78442Y-34107D01*
X78457Y-34121D01*
X78485Y-34135D01*
X78542Y-34135D01*
X78571Y-34121D01*
X78585Y-34107D01*
X78600Y-34078D01*
X78600Y-34021D01*
X78585Y-33992D01*
X78571Y-33978D01*
X78542Y-33964D01*
X78785Y-33835D02*
X78814Y-33835D01*
X78842Y-33850D01*
X78857Y-33864D01*
X78871Y-33892D01*
X78885Y-33950D01*
X78885Y-34021D01*
X78871Y-34078D01*
X78857Y-34107D01*
X78842Y-34121D01*
X78814Y-34135D01*
X78785Y-34135D01*
X78757Y-34121D01*
X78742Y-34107D01*
X78728Y-34078D01*
X78714Y-34021D01*
X78714Y-33950D01*
X78728Y-33892D01*
X78742Y-33864D01*
X78757Y-33850D01*
X78785Y-33835D01*
X77771Y-36385D02*
X77628Y-36385D01*
X77628Y-36085D01*
X77871Y-36228D02*
X77971Y-36228D01*
X78014Y-36385D02*
X77871Y-36385D01*
X77871Y-36085D01*
X78014Y-36085D01*
X78142Y-36385D02*
X78142Y-36085D01*
X78214Y-36085D01*
X78257Y-36100D01*
X78285Y-36128D01*
X78300Y-36157D01*
X78314Y-36214D01*
X78314Y-36257D01*
X78300Y-36314D01*
X78285Y-36342D01*
X78257Y-36371D01*
X78214Y-36385D01*
X78142Y-36385D01*
X78485Y-36214D02*
X78457Y-36200D01*
X78442Y-36185D01*
X78428Y-36157D01*
X78428Y-36142D01*
X78442Y-36114D01*
X78457Y-36100D01*
X78485Y-36085D01*
X78542Y-36085D01*
X78571Y-36100D01*
X78585Y-36114D01*
X78600Y-36142D01*
X78600Y-36157D01*
X78585Y-36185D01*
X78571Y-36200D01*
X78542Y-36214D01*
X78485Y-36214D01*
X78457Y-36228D01*
X78442Y-36242D01*
X78428Y-36271D01*
X78428Y-36328D01*
X78442Y-36357D01*
X78457Y-36371D01*
X78485Y-36385D01*
X78542Y-36385D01*
X78571Y-36371D01*
X78585Y-36357D01*
X78600Y-36328D01*
X78600Y-36271D01*
X78585Y-36242D01*
X78571Y-36228D01*
X78542Y-36214D01*
X78885Y-36385D02*
X78714Y-36385D01*
X78800Y-36385D02*
X78800Y-36085D01*
X78771Y-36128D01*
X78742Y-36157D01*
X78714Y-36171D01*
X77771Y-38635D02*
X77628Y-38635D01*
X77628Y-38335D01*
X77871Y-38478D02*
X77971Y-38478D01*
X78014Y-38635D02*
X77871Y-38635D01*
X77871Y-38335D01*
X78014Y-38335D01*
X78142Y-38635D02*
X78142Y-38335D01*
X78214Y-38335D01*
X78257Y-38350D01*
X78285Y-38378D01*
X78300Y-38407D01*
X78314Y-38464D01*
X78314Y-38507D01*
X78300Y-38564D01*
X78285Y-38592D01*
X78257Y-38621D01*
X78214Y-38635D01*
X78142Y-38635D01*
X78485Y-38464D02*
X78457Y-38450D01*
X78442Y-38435D01*
X78428Y-38407D01*
X78428Y-38392D01*
X78442Y-38364D01*
X78457Y-38350D01*
X78485Y-38335D01*
X78542Y-38335D01*
X78571Y-38350D01*
X78585Y-38364D01*
X78600Y-38392D01*
X78600Y-38407D01*
X78585Y-38435D01*
X78571Y-38450D01*
X78542Y-38464D01*
X78485Y-38464D01*
X78457Y-38478D01*
X78442Y-38492D01*
X78428Y-38521D01*
X78428Y-38578D01*
X78442Y-38607D01*
X78457Y-38621D01*
X78485Y-38635D01*
X78542Y-38635D01*
X78571Y-38621D01*
X78585Y-38607D01*
X78600Y-38578D01*
X78600Y-38521D01*
X78585Y-38492D01*
X78571Y-38478D01*
X78542Y-38464D01*
X78714Y-38364D02*
X78728Y-38350D01*
X78757Y-38335D01*
X78828Y-38335D01*
X78857Y-38350D01*
X78871Y-38364D01*
X78885Y-38392D01*
X78885Y-38421D01*
X78871Y-38464D01*
X78700Y-38635D01*
X78885Y-38635D01*
X75521Y-31885D02*
X75378Y-31885D01*
X75378Y-31585D01*
X75621Y-31728D02*
X75721Y-31728D01*
X75764Y-31885D02*
X75621Y-31885D01*
X75621Y-31585D01*
X75764Y-31585D01*
X75892Y-31885D02*
X75892Y-31585D01*
X75964Y-31585D01*
X76007Y-31600D01*
X76035Y-31628D01*
X76050Y-31657D01*
X76064Y-31714D01*
X76064Y-31757D01*
X76050Y-31814D01*
X76035Y-31842D01*
X76007Y-31871D01*
X75964Y-31885D01*
X75892Y-31885D01*
X76235Y-31714D02*
X76207Y-31700D01*
X76192Y-31685D01*
X76178Y-31657D01*
X76178Y-31642D01*
X76192Y-31614D01*
X76207Y-31600D01*
X76235Y-31585D01*
X76292Y-31585D01*
X76321Y-31600D01*
X76335Y-31614D01*
X76350Y-31642D01*
X76350Y-31657D01*
X76335Y-31685D01*
X76321Y-31700D01*
X76292Y-31714D01*
X76235Y-31714D01*
X76207Y-31728D01*
X76192Y-31742D01*
X76178Y-31771D01*
X76178Y-31828D01*
X76192Y-31857D01*
X76207Y-31871D01*
X76235Y-31885D01*
X76292Y-31885D01*
X76321Y-31871D01*
X76335Y-31857D01*
X76350Y-31828D01*
X76350Y-31771D01*
X76335Y-31742D01*
X76321Y-31728D01*
X76292Y-31714D01*
X76450Y-31585D02*
X76635Y-31585D01*
X76535Y-31700D01*
X76578Y-31700D01*
X76607Y-31714D01*
X76621Y-31728D01*
X76635Y-31757D01*
X76635Y-31828D01*
X76621Y-31857D01*
X76607Y-31871D01*
X76578Y-31885D01*
X76492Y-31885D01*
X76464Y-31871D01*
X76450Y-31857D01*
X75521Y-34135D02*
X75378Y-34135D01*
X75378Y-33835D01*
X75621Y-33978D02*
X75721Y-33978D01*
X75764Y-34135D02*
X75621Y-34135D01*
X75621Y-33835D01*
X75764Y-33835D01*
X75892Y-34135D02*
X75892Y-33835D01*
X75964Y-33835D01*
X76007Y-33850D01*
X76035Y-33878D01*
X76050Y-33907D01*
X76064Y-33964D01*
X76064Y-34007D01*
X76050Y-34064D01*
X76035Y-34092D01*
X76007Y-34121D01*
X75964Y-34135D01*
X75892Y-34135D01*
X76235Y-33964D02*
X76207Y-33950D01*
X76192Y-33935D01*
X76178Y-33907D01*
X76178Y-33892D01*
X76192Y-33864D01*
X76207Y-33850D01*
X76235Y-33835D01*
X76292Y-33835D01*
X76321Y-33850D01*
X76335Y-33864D01*
X76350Y-33892D01*
X76350Y-33907D01*
X76335Y-33935D01*
X76321Y-33950D01*
X76292Y-33964D01*
X76235Y-33964D01*
X76207Y-33978D01*
X76192Y-33992D01*
X76178Y-34021D01*
X76178Y-34078D01*
X76192Y-34107D01*
X76207Y-34121D01*
X76235Y-34135D01*
X76292Y-34135D01*
X76321Y-34121D01*
X76335Y-34107D01*
X76350Y-34078D01*
X76350Y-34021D01*
X76335Y-33992D01*
X76321Y-33978D01*
X76292Y-33964D01*
X76607Y-33935D02*
X76607Y-34135D01*
X76535Y-33821D02*
X76464Y-34035D01*
X76650Y-34035D01*
X75521Y-36385D02*
X75378Y-36385D01*
X75378Y-36085D01*
X75621Y-36228D02*
X75721Y-36228D01*
X75764Y-36385D02*
X75621Y-36385D01*
X75621Y-36085D01*
X75764Y-36085D01*
X75892Y-36385D02*
X75892Y-36085D01*
X75964Y-36085D01*
X76007Y-36100D01*
X76035Y-36128D01*
X76050Y-36157D01*
X76064Y-36214D01*
X76064Y-36257D01*
X76050Y-36314D01*
X76035Y-36342D01*
X76007Y-36371D01*
X75964Y-36385D01*
X75892Y-36385D01*
X76235Y-36214D02*
X76207Y-36200D01*
X76192Y-36185D01*
X76178Y-36157D01*
X76178Y-36142D01*
X76192Y-36114D01*
X76207Y-36100D01*
X76235Y-36085D01*
X76292Y-36085D01*
X76321Y-36100D01*
X76335Y-36114D01*
X76350Y-36142D01*
X76350Y-36157D01*
X76335Y-36185D01*
X76321Y-36200D01*
X76292Y-36214D01*
X76235Y-36214D01*
X76207Y-36228D01*
X76192Y-36242D01*
X76178Y-36271D01*
X76178Y-36328D01*
X76192Y-36357D01*
X76207Y-36371D01*
X76235Y-36385D01*
X76292Y-36385D01*
X76321Y-36371D01*
X76335Y-36357D01*
X76350Y-36328D01*
X76350Y-36271D01*
X76335Y-36242D01*
X76321Y-36228D01*
X76292Y-36214D01*
X76621Y-36085D02*
X76478Y-36085D01*
X76464Y-36228D01*
X76478Y-36214D01*
X76507Y-36200D01*
X76578Y-36200D01*
X76607Y-36214D01*
X76621Y-36228D01*
X76635Y-36257D01*
X76635Y-36328D01*
X76621Y-36357D01*
X76607Y-36371D01*
X76578Y-36385D01*
X76507Y-36385D01*
X76478Y-36371D01*
X76464Y-36357D01*
X75521Y-38635D02*
X75378Y-38635D01*
X75378Y-38335D01*
X75621Y-38478D02*
X75721Y-38478D01*
X75764Y-38635D02*
X75621Y-38635D01*
X75621Y-38335D01*
X75764Y-38335D01*
X75892Y-38635D02*
X75892Y-38335D01*
X75964Y-38335D01*
X76007Y-38350D01*
X76035Y-38378D01*
X76050Y-38407D01*
X76064Y-38464D01*
X76064Y-38507D01*
X76050Y-38564D01*
X76035Y-38592D01*
X76007Y-38621D01*
X75964Y-38635D01*
X75892Y-38635D01*
X76235Y-38464D02*
X76207Y-38450D01*
X76192Y-38435D01*
X76178Y-38407D01*
X76178Y-38392D01*
X76192Y-38364D01*
X76207Y-38350D01*
X76235Y-38335D01*
X76292Y-38335D01*
X76321Y-38350D01*
X76335Y-38364D01*
X76350Y-38392D01*
X76350Y-38407D01*
X76335Y-38435D01*
X76321Y-38450D01*
X76292Y-38464D01*
X76235Y-38464D01*
X76207Y-38478D01*
X76192Y-38492D01*
X76178Y-38521D01*
X76178Y-38578D01*
X76192Y-38607D01*
X76207Y-38621D01*
X76235Y-38635D01*
X76292Y-38635D01*
X76321Y-38621D01*
X76335Y-38607D01*
X76350Y-38578D01*
X76350Y-38521D01*
X76335Y-38492D01*
X76321Y-38478D01*
X76292Y-38464D01*
X76607Y-38335D02*
X76550Y-38335D01*
X76521Y-38350D01*
X76507Y-38364D01*
X76478Y-38407D01*
X76464Y-38464D01*
X76464Y-38578D01*
X76478Y-38607D01*
X76492Y-38621D01*
X76521Y-38635D01*
X76578Y-38635D01*
X76607Y-38621D01*
X76621Y-38607D01*
X76635Y-38578D01*
X76635Y-38507D01*
X76621Y-38478D01*
X76607Y-38464D01*
X76578Y-38450D01*
X76521Y-38450D01*
X76492Y-38464D01*
X76478Y-38478D01*
X76464Y-38507D01*
X76528Y-42385D02*
X76528Y-42085D01*
X76642Y-42085D01*
X76671Y-42100D01*
X76685Y-42114D01*
X76700Y-42142D01*
X76700Y-42185D01*
X76685Y-42214D01*
X76671Y-42228D01*
X76642Y-42242D01*
X76528Y-42242D01*
X76985Y-42385D02*
X76814Y-42385D01*
X76900Y-42385D02*
X76900Y-42085D01*
X76871Y-42128D01*
X76842Y-42157D01*
X76814Y-42171D01*
X76421Y-42800D02*
X76564Y-42800D01*
X76392Y-42885D02*
X76492Y-42585D01*
X76592Y-42885D01*
X76650Y-42585D02*
X76750Y-42885D01*
X76850Y-42585D01*
X77121Y-42885D02*
X77021Y-42742D01*
X76950Y-42885D02*
X76950Y-42585D01*
X77064Y-42585D01*
X77092Y-42600D01*
X77107Y-42614D01*
X77121Y-42642D01*
X77121Y-42685D01*
X77107Y-42714D01*
X77092Y-42728D01*
X77064Y-42742D01*
X76950Y-42742D01*
X77178Y-42914D02*
X77407Y-42914D01*
X77478Y-42885D02*
X77478Y-42585D01*
X77607Y-42871D02*
X77650Y-42885D01*
X77721Y-42885D01*
X77750Y-42871D01*
X77764Y-42857D01*
X77778Y-42828D01*
X77778Y-42800D01*
X77764Y-42771D01*
X77750Y-42757D01*
X77721Y-42742D01*
X77664Y-42728D01*
X77635Y-42714D01*
X77621Y-42700D01*
X77607Y-42671D01*
X77607Y-42642D01*
X77621Y-42614D01*
X77635Y-42600D01*
X77664Y-42585D01*
X77735Y-42585D01*
X77778Y-42600D01*
X77907Y-42885D02*
X77907Y-42585D01*
X78021Y-42585D01*
X78050Y-42600D01*
X78064Y-42614D01*
X78078Y-42642D01*
X78078Y-42685D01*
X78064Y-42714D01*
X78050Y-42728D01*
X78021Y-42742D01*
X77907Y-42742D01*
X85780Y-40028D02*
X85766Y-40057D01*
X85737Y-40085D01*
X85694Y-40128D01*
X85680Y-40157D01*
X85680Y-40185D01*
X85751Y-40171D02*
X85737Y-40200D01*
X85708Y-40228D01*
X85651Y-40242D01*
X85551Y-40242D01*
X85494Y-40228D01*
X85466Y-40200D01*
X85451Y-40171D01*
X85451Y-40114D01*
X85466Y-40085D01*
X85494Y-40057D01*
X85551Y-40042D01*
X85651Y-40042D01*
X85708Y-40057D01*
X85737Y-40085D01*
X85751Y-40114D01*
X85751Y-40171D01*
X85751Y-39757D02*
X85751Y-39928D01*
X85751Y-39842D02*
X85451Y-39842D01*
X85494Y-39871D01*
X85523Y-39900D01*
X85537Y-39928D01*
X87530Y-40028D02*
X87516Y-40057D01*
X87487Y-40085D01*
X87444Y-40128D01*
X87430Y-40157D01*
X87430Y-40185D01*
X87501Y-40171D02*
X87487Y-40200D01*
X87458Y-40228D01*
X87401Y-40242D01*
X87301Y-40242D01*
X87244Y-40228D01*
X87216Y-40200D01*
X87201Y-40171D01*
X87201Y-40114D01*
X87216Y-40085D01*
X87244Y-40057D01*
X87301Y-40042D01*
X87401Y-40042D01*
X87458Y-40057D01*
X87487Y-40085D01*
X87501Y-40114D01*
X87501Y-40171D01*
X87230Y-39928D02*
X87216Y-39914D01*
X87201Y-39885D01*
X87201Y-39814D01*
X87216Y-39785D01*
X87230Y-39771D01*
X87258Y-39757D01*
X87287Y-39757D01*
X87330Y-39771D01*
X87501Y-39942D01*
X87501Y-39757D01*
X89280Y-40028D02*
X89266Y-40057D01*
X89237Y-40085D01*
X89194Y-40128D01*
X89180Y-40157D01*
X89180Y-40185D01*
X89251Y-40171D02*
X89237Y-40200D01*
X89208Y-40228D01*
X89151Y-40242D01*
X89051Y-40242D01*
X88994Y-40228D01*
X88966Y-40200D01*
X88951Y-40171D01*
X88951Y-40114D01*
X88966Y-40085D01*
X88994Y-40057D01*
X89051Y-40042D01*
X89151Y-40042D01*
X89208Y-40057D01*
X89237Y-40085D01*
X89251Y-40114D01*
X89251Y-40171D01*
X88951Y-39942D02*
X88951Y-39757D01*
X89066Y-39857D01*
X89066Y-39814D01*
X89080Y-39785D01*
X89094Y-39771D01*
X89123Y-39757D01*
X89194Y-39757D01*
X89223Y-39771D01*
X89237Y-39785D01*
X89251Y-39814D01*
X89251Y-39900D01*
X89237Y-39928D01*
X89223Y-39942D01*
X91030Y-40028D02*
X91016Y-40057D01*
X90987Y-40085D01*
X90944Y-40128D01*
X90930Y-40157D01*
X90930Y-40185D01*
X91001Y-40171D02*
X90987Y-40200D01*
X90958Y-40228D01*
X90901Y-40242D01*
X90801Y-40242D01*
X90744Y-40228D01*
X90716Y-40200D01*
X90701Y-40171D01*
X90701Y-40114D01*
X90716Y-40085D01*
X90744Y-40057D01*
X90801Y-40042D01*
X90901Y-40042D01*
X90958Y-40057D01*
X90987Y-40085D01*
X91001Y-40114D01*
X91001Y-40171D01*
X90801Y-39785D02*
X91001Y-39785D01*
X90687Y-39857D02*
X90901Y-39928D01*
X90901Y-39742D01*
X92780Y-40028D02*
X92766Y-40057D01*
X92737Y-40085D01*
X92694Y-40128D01*
X92680Y-40157D01*
X92680Y-40185D01*
X92751Y-40171D02*
X92737Y-40200D01*
X92708Y-40228D01*
X92651Y-40242D01*
X92551Y-40242D01*
X92494Y-40228D01*
X92466Y-40200D01*
X92451Y-40171D01*
X92451Y-40114D01*
X92466Y-40085D01*
X92494Y-40057D01*
X92551Y-40042D01*
X92651Y-40042D01*
X92708Y-40057D01*
X92737Y-40085D01*
X92751Y-40114D01*
X92751Y-40171D01*
X92451Y-39771D02*
X92451Y-39914D01*
X92594Y-39928D01*
X92580Y-39914D01*
X92566Y-39885D01*
X92566Y-39814D01*
X92580Y-39785D01*
X92594Y-39771D01*
X92623Y-39757D01*
X92694Y-39757D01*
X92723Y-39771D01*
X92737Y-39785D01*
X92751Y-39814D01*
X92751Y-39885D01*
X92737Y-39914D01*
X92723Y-39928D01*
X94530Y-40028D02*
X94516Y-40057D01*
X94487Y-40085D01*
X94444Y-40128D01*
X94430Y-40157D01*
X94430Y-40185D01*
X94501Y-40171D02*
X94487Y-40200D01*
X94458Y-40228D01*
X94401Y-40242D01*
X94301Y-40242D01*
X94244Y-40228D01*
X94216Y-40200D01*
X94201Y-40171D01*
X94201Y-40114D01*
X94216Y-40085D01*
X94244Y-40057D01*
X94301Y-40042D01*
X94401Y-40042D01*
X94458Y-40057D01*
X94487Y-40085D01*
X94501Y-40114D01*
X94501Y-40171D01*
X94201Y-39785D02*
X94201Y-39842D01*
X94216Y-39871D01*
X94230Y-39885D01*
X94273Y-39914D01*
X94330Y-39928D01*
X94444Y-39928D01*
X94473Y-39914D01*
X94487Y-39900D01*
X94501Y-39871D01*
X94501Y-39814D01*
X94487Y-39785D01*
X94473Y-39771D01*
X94444Y-39757D01*
X94373Y-39757D01*
X94344Y-39771D01*
X94330Y-39785D01*
X94316Y-39814D01*
X94316Y-39871D01*
X94330Y-39900D01*
X94344Y-39914D01*
X94373Y-39928D01*
X96280Y-40028D02*
X96266Y-40057D01*
X96237Y-40085D01*
X96194Y-40128D01*
X96180Y-40157D01*
X96180Y-40185D01*
X96251Y-40171D02*
X96237Y-40200D01*
X96208Y-40228D01*
X96151Y-40242D01*
X96051Y-40242D01*
X95994Y-40228D01*
X95966Y-40200D01*
X95951Y-40171D01*
X95951Y-40114D01*
X95966Y-40085D01*
X95994Y-40057D01*
X96051Y-40042D01*
X96151Y-40042D01*
X96208Y-40057D01*
X96237Y-40085D01*
X96251Y-40114D01*
X96251Y-40171D01*
X95951Y-39942D02*
X95951Y-39742D01*
X96251Y-39871D01*
X98030Y-40028D02*
X98016Y-40057D01*
X97987Y-40085D01*
X97944Y-40128D01*
X97930Y-40157D01*
X97930Y-40185D01*
X98001Y-40171D02*
X97987Y-40200D01*
X97958Y-40228D01*
X97901Y-40242D01*
X97801Y-40242D01*
X97744Y-40228D01*
X97716Y-40200D01*
X97701Y-40171D01*
X97701Y-40114D01*
X97716Y-40085D01*
X97744Y-40057D01*
X97801Y-40042D01*
X97901Y-40042D01*
X97958Y-40057D01*
X97987Y-40085D01*
X98001Y-40114D01*
X98001Y-40171D01*
X97830Y-39871D02*
X97816Y-39900D01*
X97801Y-39914D01*
X97773Y-39928D01*
X97758Y-39928D01*
X97730Y-39914D01*
X97716Y-39900D01*
X97701Y-39871D01*
X97701Y-39814D01*
X97716Y-39785D01*
X97730Y-39771D01*
X97758Y-39757D01*
X97773Y-39757D01*
X97801Y-39771D01*
X97816Y-39785D01*
X97830Y-39814D01*
X97830Y-39871D01*
X97844Y-39900D01*
X97858Y-39914D01*
X97887Y-39928D01*
X97944Y-39928D01*
X97973Y-39914D01*
X97987Y-39900D01*
X98001Y-39871D01*
X98001Y-39814D01*
X97987Y-39785D01*
X97973Y-39771D01*
X97944Y-39757D01*
X97887Y-39757D01*
X97858Y-39771D01*
X97844Y-39785D01*
X97830Y-39814D01*
X53721Y-41164D02*
X53692Y-41150D01*
X53664Y-41121D01*
X53621Y-41078D01*
X53592Y-41064D01*
X53564Y-41064D01*
X53578Y-41135D02*
X53550Y-41121D01*
X53521Y-41092D01*
X53507Y-41035D01*
X53507Y-40935D01*
X53521Y-40878D01*
X53550Y-40850D01*
X53578Y-40835D01*
X53635Y-40835D01*
X53664Y-40850D01*
X53692Y-40878D01*
X53707Y-40935D01*
X53707Y-41035D01*
X53692Y-41092D01*
X53664Y-41121D01*
X53635Y-41135D01*
X53578Y-41135D01*
X53850Y-41135D02*
X53907Y-41135D01*
X53935Y-41121D01*
X53950Y-41107D01*
X53978Y-41064D01*
X53992Y-41007D01*
X53992Y-40892D01*
X53978Y-40864D01*
X53964Y-40850D01*
X53935Y-40835D01*
X53878Y-40835D01*
X53850Y-40850D01*
X53835Y-40864D01*
X53821Y-40892D01*
X53821Y-40964D01*
X53835Y-40992D01*
X53850Y-41007D01*
X53878Y-41021D01*
X53935Y-41021D01*
X53964Y-41007D01*
X53978Y-40992D01*
X53992Y-40964D01*
X55828Y-41164D02*
X55800Y-41150D01*
X55771Y-41121D01*
X55728Y-41078D01*
X55700Y-41064D01*
X55671Y-41064D01*
X55685Y-41135D02*
X55657Y-41121D01*
X55628Y-41092D01*
X55614Y-41035D01*
X55614Y-40935D01*
X55628Y-40878D01*
X55657Y-40850D01*
X55685Y-40835D01*
X55742Y-40835D01*
X55771Y-40850D01*
X55800Y-40878D01*
X55814Y-40935D01*
X55814Y-41035D01*
X55800Y-41092D01*
X55771Y-41121D01*
X55742Y-41135D01*
X55685Y-41135D01*
X56100Y-41135D02*
X55928Y-41135D01*
X56014Y-41135D02*
X56014Y-40835D01*
X55985Y-40878D01*
X55957Y-40907D01*
X55928Y-40921D01*
X56285Y-40835D02*
X56314Y-40835D01*
X56342Y-40850D01*
X56357Y-40864D01*
X56371Y-40892D01*
X56385Y-40950D01*
X56385Y-41021D01*
X56371Y-41078D01*
X56357Y-41107D01*
X56342Y-41121D01*
X56314Y-41135D01*
X56285Y-41135D01*
X56257Y-41121D01*
X56242Y-41107D01*
X56228Y-41078D01*
X56214Y-41021D01*
X56214Y-40950D01*
X56228Y-40892D01*
X56242Y-40864D01*
X56257Y-40850D01*
X56285Y-40835D01*
X58078Y-41164D02*
X58050Y-41150D01*
X58021Y-41121D01*
X57978Y-41078D01*
X57950Y-41064D01*
X57921Y-41064D01*
X57935Y-41135D02*
X57907Y-41121D01*
X57878Y-41092D01*
X57864Y-41035D01*
X57864Y-40935D01*
X57878Y-40878D01*
X57907Y-40850D01*
X57935Y-40835D01*
X57992Y-40835D01*
X58021Y-40850D01*
X58050Y-40878D01*
X58064Y-40935D01*
X58064Y-41035D01*
X58050Y-41092D01*
X58021Y-41121D01*
X57992Y-41135D01*
X57935Y-41135D01*
X58350Y-41135D02*
X58178Y-41135D01*
X58264Y-41135D02*
X58264Y-40835D01*
X58235Y-40878D01*
X58207Y-40907D01*
X58178Y-40921D01*
X58635Y-41135D02*
X58464Y-41135D01*
X58550Y-41135D02*
X58550Y-40835D01*
X58521Y-40878D01*
X58492Y-40907D01*
X58464Y-40921D01*
X60328Y-41164D02*
X60300Y-41150D01*
X60271Y-41121D01*
X60228Y-41078D01*
X60200Y-41064D01*
X60171Y-41064D01*
X60185Y-41135D02*
X60157Y-41121D01*
X60128Y-41092D01*
X60114Y-41035D01*
X60114Y-40935D01*
X60128Y-40878D01*
X60157Y-40850D01*
X60185Y-40835D01*
X60242Y-40835D01*
X60271Y-40850D01*
X60300Y-40878D01*
X60314Y-40935D01*
X60314Y-41035D01*
X60300Y-41092D01*
X60271Y-41121D01*
X60242Y-41135D01*
X60185Y-41135D01*
X60600Y-41135D02*
X60428Y-41135D01*
X60514Y-41135D02*
X60514Y-40835D01*
X60485Y-40878D01*
X60457Y-40907D01*
X60428Y-40921D01*
X60714Y-40864D02*
X60728Y-40850D01*
X60757Y-40835D01*
X60828Y-40835D01*
X60857Y-40850D01*
X60871Y-40864D01*
X60885Y-40892D01*
X60885Y-40921D01*
X60871Y-40964D01*
X60700Y-41135D01*
X60885Y-41135D01*
X62578Y-41164D02*
X62550Y-41150D01*
X62521Y-41121D01*
X62478Y-41078D01*
X62450Y-41064D01*
X62421Y-41064D01*
X62435Y-41135D02*
X62407Y-41121D01*
X62378Y-41092D01*
X62364Y-41035D01*
X62364Y-40935D01*
X62378Y-40878D01*
X62407Y-40850D01*
X62435Y-40835D01*
X62492Y-40835D01*
X62521Y-40850D01*
X62550Y-40878D01*
X62564Y-40935D01*
X62564Y-41035D01*
X62550Y-41092D01*
X62521Y-41121D01*
X62492Y-41135D01*
X62435Y-41135D01*
X62850Y-41135D02*
X62678Y-41135D01*
X62764Y-41135D02*
X62764Y-40835D01*
X62735Y-40878D01*
X62707Y-40907D01*
X62678Y-40921D01*
X62950Y-40835D02*
X63135Y-40835D01*
X63035Y-40950D01*
X63078Y-40950D01*
X63107Y-40964D01*
X63121Y-40978D01*
X63135Y-41007D01*
X63135Y-41078D01*
X63121Y-41107D01*
X63107Y-41121D01*
X63078Y-41135D01*
X62992Y-41135D01*
X62964Y-41121D01*
X62950Y-41107D01*
X64828Y-41164D02*
X64800Y-41150D01*
X64771Y-41121D01*
X64728Y-41078D01*
X64700Y-41064D01*
X64671Y-41064D01*
X64685Y-41135D02*
X64657Y-41121D01*
X64628Y-41092D01*
X64614Y-41035D01*
X64614Y-40935D01*
X64628Y-40878D01*
X64657Y-40850D01*
X64685Y-40835D01*
X64742Y-40835D01*
X64771Y-40850D01*
X64800Y-40878D01*
X64814Y-40935D01*
X64814Y-41035D01*
X64800Y-41092D01*
X64771Y-41121D01*
X64742Y-41135D01*
X64685Y-41135D01*
X65100Y-41135D02*
X64928Y-41135D01*
X65014Y-41135D02*
X65014Y-40835D01*
X64985Y-40878D01*
X64957Y-40907D01*
X64928Y-40921D01*
X65357Y-40935D02*
X65357Y-41135D01*
X65285Y-40821D02*
X65214Y-41035D01*
X65400Y-41035D01*
X67078Y-41164D02*
X67050Y-41150D01*
X67021Y-41121D01*
X66978Y-41078D01*
X66950Y-41064D01*
X66921Y-41064D01*
X66935Y-41135D02*
X66907Y-41121D01*
X66878Y-41092D01*
X66864Y-41035D01*
X66864Y-40935D01*
X66878Y-40878D01*
X66907Y-40850D01*
X66935Y-40835D01*
X66992Y-40835D01*
X67021Y-40850D01*
X67050Y-40878D01*
X67064Y-40935D01*
X67064Y-41035D01*
X67050Y-41092D01*
X67021Y-41121D01*
X66992Y-41135D01*
X66935Y-41135D01*
X67350Y-41135D02*
X67178Y-41135D01*
X67264Y-41135D02*
X67264Y-40835D01*
X67235Y-40878D01*
X67207Y-40907D01*
X67178Y-40921D01*
X67621Y-40835D02*
X67478Y-40835D01*
X67464Y-40978D01*
X67478Y-40964D01*
X67507Y-40950D01*
X67578Y-40950D01*
X67607Y-40964D01*
X67621Y-40978D01*
X67635Y-41007D01*
X67635Y-41078D01*
X67621Y-41107D01*
X67607Y-41121D01*
X67578Y-41135D01*
X67507Y-41135D01*
X67478Y-41121D01*
X67464Y-41107D01*
X69328Y-41164D02*
X69300Y-41150D01*
X69271Y-41121D01*
X69228Y-41078D01*
X69200Y-41064D01*
X69171Y-41064D01*
X69185Y-41135D02*
X69157Y-41121D01*
X69128Y-41092D01*
X69114Y-41035D01*
X69114Y-40935D01*
X69128Y-40878D01*
X69157Y-40850D01*
X69185Y-40835D01*
X69242Y-40835D01*
X69271Y-40850D01*
X69300Y-40878D01*
X69314Y-40935D01*
X69314Y-41035D01*
X69300Y-41092D01*
X69271Y-41121D01*
X69242Y-41135D01*
X69185Y-41135D01*
X69600Y-41135D02*
X69428Y-41135D01*
X69514Y-41135D02*
X69514Y-40835D01*
X69485Y-40878D01*
X69457Y-40907D01*
X69428Y-40921D01*
X69857Y-40835D02*
X69800Y-40835D01*
X69771Y-40850D01*
X69757Y-40864D01*
X69728Y-40907D01*
X69714Y-40964D01*
X69714Y-41078D01*
X69728Y-41107D01*
X69742Y-41121D01*
X69771Y-41135D01*
X69828Y-41135D01*
X69857Y-41121D01*
X69871Y-41107D01*
X69885Y-41078D01*
X69885Y-41007D01*
X69871Y-40978D01*
X69857Y-40964D01*
X69828Y-40950D01*
X69771Y-40950D01*
X69742Y-40964D01*
X69728Y-40978D01*
X69714Y-41007D01*
X71578Y-41164D02*
X71550Y-41150D01*
X71521Y-41121D01*
X71478Y-41078D01*
X71450Y-41064D01*
X71421Y-41064D01*
X71435Y-41135D02*
X71407Y-41121D01*
X71378Y-41092D01*
X71364Y-41035D01*
X71364Y-40935D01*
X71378Y-40878D01*
X71407Y-40850D01*
X71435Y-40835D01*
X71492Y-40835D01*
X71521Y-40850D01*
X71550Y-40878D01*
X71564Y-40935D01*
X71564Y-41035D01*
X71550Y-41092D01*
X71521Y-41121D01*
X71492Y-41135D01*
X71435Y-41135D01*
X71850Y-41135D02*
X71678Y-41135D01*
X71764Y-41135D02*
X71764Y-40835D01*
X71735Y-40878D01*
X71707Y-40907D01*
X71678Y-40921D01*
X71950Y-40835D02*
X72150Y-40835D01*
X72021Y-41135D01*
X73828Y-41164D02*
X73800Y-41150D01*
X73771Y-41121D01*
X73728Y-41078D01*
X73700Y-41064D01*
X73671Y-41064D01*
X73685Y-41135D02*
X73657Y-41121D01*
X73628Y-41092D01*
X73614Y-41035D01*
X73614Y-40935D01*
X73628Y-40878D01*
X73657Y-40850D01*
X73685Y-40835D01*
X73742Y-40835D01*
X73771Y-40850D01*
X73800Y-40878D01*
X73814Y-40935D01*
X73814Y-41035D01*
X73800Y-41092D01*
X73771Y-41121D01*
X73742Y-41135D01*
X73685Y-41135D01*
X74100Y-41135D02*
X73928Y-41135D01*
X74014Y-41135D02*
X74014Y-40835D01*
X73985Y-40878D01*
X73957Y-40907D01*
X73928Y-40921D01*
X74271Y-40964D02*
X74242Y-40950D01*
X74228Y-40935D01*
X74214Y-40907D01*
X74214Y-40892D01*
X74228Y-40864D01*
X74242Y-40850D01*
X74271Y-40835D01*
X74328Y-40835D01*
X74357Y-40850D01*
X74371Y-40864D01*
X74385Y-40892D01*
X74385Y-40907D01*
X74371Y-40935D01*
X74357Y-40950D01*
X74328Y-40964D01*
X74271Y-40964D01*
X74242Y-40978D01*
X74228Y-40992D01*
X74214Y-41021D01*
X74214Y-41078D01*
X74228Y-41107D01*
X74242Y-41121D01*
X74271Y-41135D01*
X74328Y-41135D01*
X74357Y-41121D01*
X74371Y-41107D01*
X74385Y-41078D01*
X74385Y-41021D01*
X74371Y-40992D01*
X74357Y-40978D01*
X74328Y-40964D01*
X76828Y-40414D02*
X76800Y-40400D01*
X76771Y-40371D01*
X76728Y-40328D01*
X76700Y-40314D01*
X76671Y-40314D01*
X76685Y-40385D02*
X76657Y-40371D01*
X76628Y-40342D01*
X76614Y-40285D01*
X76614Y-40185D01*
X76628Y-40128D01*
X76657Y-40100D01*
X76685Y-40085D01*
X76742Y-40085D01*
X76771Y-40100D01*
X76800Y-40128D01*
X76814Y-40185D01*
X76814Y-40285D01*
X76800Y-40342D01*
X76771Y-40371D01*
X76742Y-40385D01*
X76685Y-40385D01*
X77100Y-40385D02*
X76928Y-40385D01*
X77014Y-40385D02*
X77014Y-40085D01*
X76985Y-40128D01*
X76957Y-40157D01*
X76928Y-40171D01*
X77242Y-40385D02*
X77300Y-40385D01*
X77328Y-40371D01*
X77342Y-40357D01*
X77371Y-40314D01*
X77385Y-40257D01*
X77385Y-40142D01*
X77371Y-40114D01*
X77357Y-40100D01*
X77328Y-40085D01*
X77271Y-40085D01*
X77242Y-40100D01*
X77228Y-40114D01*
X77214Y-40142D01*
X77214Y-40214D01*
X77228Y-40242D01*
X77242Y-40257D01*
X77271Y-40271D01*
X77328Y-40271D01*
X77357Y-40257D01*
X77371Y-40242D01*
X77385Y-40214D01*
X69800Y-45885D02*
X69700Y-45742D01*
X69628Y-45885D02*
X69628Y-45585D01*
X69742Y-45585D01*
X69771Y-45600D01*
X69785Y-45614D01*
X69800Y-45642D01*
X69800Y-45685D01*
X69785Y-45714D01*
X69771Y-45728D01*
X69742Y-45742D01*
X69628Y-45742D01*
X70085Y-45885D02*
X69914Y-45885D01*
X70000Y-45885D02*
X70000Y-45585D01*
X69971Y-45628D01*
X69942Y-45657D01*
X69914Y-45671D01*
X90385Y-43800D02*
X90242Y-43900D01*
X90385Y-43971D02*
X90085Y-43971D01*
X90085Y-43857D01*
X90100Y-43828D01*
X90114Y-43814D01*
X90142Y-43800D01*
X90185Y-43800D01*
X90214Y-43814D01*
X90228Y-43828D01*
X90242Y-43857D01*
X90242Y-43971D01*
X90114Y-43685D02*
X90100Y-43671D01*
X90085Y-43642D01*
X90085Y-43571D01*
X90100Y-43542D01*
X90114Y-43528D01*
X90142Y-43514D01*
X90171Y-43514D01*
X90214Y-43528D01*
X90385Y-43700D01*
X90385Y-43514D01*
X95850Y-44635D02*
X95750Y-44492D01*
X95678Y-44635D02*
X95678Y-44335D01*
X95792Y-44335D01*
X95821Y-44350D01*
X95835Y-44364D01*
X95850Y-44392D01*
X95850Y-44435D01*
X95835Y-44464D01*
X95821Y-44478D01*
X95792Y-44492D01*
X95678Y-44492D01*
X95950Y-44335D02*
X96135Y-44335D01*
X96035Y-44450D01*
X96078Y-44450D01*
X96107Y-44464D01*
X96121Y-44478D01*
X96135Y-44507D01*
X96135Y-44578D01*
X96121Y-44607D01*
X96107Y-44621D01*
X96078Y-44635D01*
X95992Y-44635D01*
X95964Y-44621D01*
X95950Y-44607D01*
X95850Y-43885D02*
X95750Y-43742D01*
X95678Y-43885D02*
X95678Y-43585D01*
X95792Y-43585D01*
X95821Y-43600D01*
X95835Y-43614D01*
X95850Y-43642D01*
X95850Y-43685D01*
X95835Y-43714D01*
X95821Y-43728D01*
X95792Y-43742D01*
X95678Y-43742D01*
X96107Y-43685D02*
X96107Y-43885D01*
X96035Y-43571D02*
X95964Y-43785D01*
X96150Y-43785D01*
X90450Y-45885D02*
X90350Y-45742D01*
X90278Y-45885D02*
X90278Y-45585D01*
X90392Y-45585D01*
X90421Y-45600D01*
X90435Y-45614D01*
X90450Y-45642D01*
X90450Y-45685D01*
X90435Y-45714D01*
X90421Y-45728D01*
X90392Y-45742D01*
X90278Y-45742D01*
X90721Y-45585D02*
X90578Y-45585D01*
X90564Y-45728D01*
X90578Y-45714D01*
X90607Y-45700D01*
X90678Y-45700D01*
X90707Y-45714D01*
X90721Y-45728D01*
X90735Y-45757D01*
X90735Y-45828D01*
X90721Y-45857D01*
X90707Y-45871D01*
X90678Y-45885D01*
X90607Y-45885D01*
X90578Y-45871D01*
X90564Y-45857D01*
X90450Y-45135D02*
X90350Y-44992D01*
X90278Y-45135D02*
X90278Y-44835D01*
X90392Y-44835D01*
X90421Y-44850D01*
X90435Y-44864D01*
X90450Y-44892D01*
X90450Y-44935D01*
X90435Y-44964D01*
X90421Y-44978D01*
X90392Y-44992D01*
X90278Y-44992D01*
X90707Y-44835D02*
X90650Y-44835D01*
X90621Y-44850D01*
X90607Y-44864D01*
X90578Y-44907D01*
X90564Y-44964D01*
X90564Y-45078D01*
X90578Y-45107D01*
X90592Y-45121D01*
X90621Y-45135D01*
X90678Y-45135D01*
X90707Y-45121D01*
X90721Y-45107D01*
X90735Y-45078D01*
X90735Y-45007D01*
X90721Y-44978D01*
X90707Y-44964D01*
X90678Y-44950D01*
X90621Y-44950D01*
X90592Y-44964D01*
X90578Y-44978D01*
X90564Y-45007D01*
X54635Y-40550D02*
X54492Y-40650D01*
X54635Y-40721D02*
X54335Y-40721D01*
X54335Y-40607D01*
X54350Y-40578D01*
X54364Y-40564D01*
X54392Y-40550D01*
X54435Y-40550D01*
X54464Y-40564D01*
X54478Y-40578D01*
X54492Y-40607D01*
X54492Y-40721D01*
X54335Y-40450D02*
X54335Y-40250D01*
X54635Y-40378D01*
X56885Y-40550D02*
X56742Y-40650D01*
X56885Y-40721D02*
X56585Y-40721D01*
X56585Y-40607D01*
X56600Y-40578D01*
X56614Y-40564D01*
X56642Y-40550D01*
X56685Y-40550D01*
X56714Y-40564D01*
X56728Y-40578D01*
X56742Y-40607D01*
X56742Y-40721D01*
X56885Y-40407D02*
X56885Y-40350D01*
X56871Y-40321D01*
X56857Y-40307D01*
X56814Y-40278D01*
X56757Y-40264D01*
X56642Y-40264D01*
X56614Y-40278D01*
X56600Y-40292D01*
X56585Y-40321D01*
X56585Y-40378D01*
X56600Y-40407D01*
X56614Y-40421D01*
X56642Y-40435D01*
X56714Y-40435D01*
X56742Y-40421D01*
X56757Y-40407D01*
X56771Y-40378D01*
X56771Y-40321D01*
X56757Y-40292D01*
X56742Y-40278D01*
X56714Y-40264D01*
X59135Y-40692D02*
X58992Y-40792D01*
X59135Y-40864D02*
X58835Y-40864D01*
X58835Y-40750D01*
X58850Y-40721D01*
X58864Y-40707D01*
X58892Y-40692D01*
X58935Y-40692D01*
X58964Y-40707D01*
X58978Y-40721D01*
X58992Y-40750D01*
X58992Y-40864D01*
X59135Y-40407D02*
X59135Y-40578D01*
X59135Y-40492D02*
X58835Y-40492D01*
X58878Y-40521D01*
X58907Y-40550D01*
X58921Y-40578D01*
X59135Y-40121D02*
X59135Y-40292D01*
X59135Y-40207D02*
X58835Y-40207D01*
X58878Y-40235D01*
X58907Y-40264D01*
X58921Y-40292D01*
X61385Y-40692D02*
X61242Y-40792D01*
X61385Y-40864D02*
X61085Y-40864D01*
X61085Y-40750D01*
X61100Y-40721D01*
X61114Y-40707D01*
X61142Y-40692D01*
X61185Y-40692D01*
X61214Y-40707D01*
X61228Y-40721D01*
X61242Y-40750D01*
X61242Y-40864D01*
X61385Y-40407D02*
X61385Y-40578D01*
X61385Y-40492D02*
X61085Y-40492D01*
X61128Y-40521D01*
X61157Y-40550D01*
X61171Y-40578D01*
X61085Y-40307D02*
X61085Y-40121D01*
X61200Y-40221D01*
X61200Y-40178D01*
X61214Y-40150D01*
X61228Y-40135D01*
X61257Y-40121D01*
X61328Y-40121D01*
X61357Y-40135D01*
X61371Y-40150D01*
X61385Y-40178D01*
X61385Y-40264D01*
X61371Y-40292D01*
X61357Y-40307D01*
X63635Y-40692D02*
X63492Y-40792D01*
X63635Y-40864D02*
X63335Y-40864D01*
X63335Y-40750D01*
X63350Y-40721D01*
X63364Y-40707D01*
X63392Y-40692D01*
X63435Y-40692D01*
X63464Y-40707D01*
X63478Y-40721D01*
X63492Y-40750D01*
X63492Y-40864D01*
X63635Y-40407D02*
X63635Y-40578D01*
X63635Y-40492D02*
X63335Y-40492D01*
X63378Y-40521D01*
X63407Y-40550D01*
X63421Y-40578D01*
X63335Y-40135D02*
X63335Y-40278D01*
X63478Y-40292D01*
X63464Y-40278D01*
X63450Y-40250D01*
X63450Y-40178D01*
X63464Y-40150D01*
X63478Y-40135D01*
X63507Y-40121D01*
X63578Y-40121D01*
X63607Y-40135D01*
X63621Y-40150D01*
X63635Y-40178D01*
X63635Y-40250D01*
X63621Y-40278D01*
X63607Y-40292D01*
X65885Y-40692D02*
X65742Y-40792D01*
X65885Y-40864D02*
X65585Y-40864D01*
X65585Y-40750D01*
X65600Y-40721D01*
X65614Y-40707D01*
X65642Y-40692D01*
X65685Y-40692D01*
X65714Y-40707D01*
X65728Y-40721D01*
X65742Y-40750D01*
X65742Y-40864D01*
X65885Y-40407D02*
X65885Y-40578D01*
X65885Y-40492D02*
X65585Y-40492D01*
X65628Y-40521D01*
X65657Y-40550D01*
X65671Y-40578D01*
X65585Y-40307D02*
X65585Y-40107D01*
X65885Y-40235D01*
X68135Y-40692D02*
X67992Y-40792D01*
X68135Y-40864D02*
X67835Y-40864D01*
X67835Y-40750D01*
X67850Y-40721D01*
X67864Y-40707D01*
X67892Y-40692D01*
X67935Y-40692D01*
X67964Y-40707D01*
X67978Y-40721D01*
X67992Y-40750D01*
X67992Y-40864D01*
X68135Y-40407D02*
X68135Y-40578D01*
X68135Y-40492D02*
X67835Y-40492D01*
X67878Y-40521D01*
X67907Y-40550D01*
X67921Y-40578D01*
X68135Y-40264D02*
X68135Y-40207D01*
X68121Y-40178D01*
X68107Y-40164D01*
X68064Y-40135D01*
X68007Y-40121D01*
X67892Y-40121D01*
X67864Y-40135D01*
X67850Y-40150D01*
X67835Y-40178D01*
X67835Y-40235D01*
X67850Y-40264D01*
X67864Y-40278D01*
X67892Y-40292D01*
X67964Y-40292D01*
X67992Y-40278D01*
X68007Y-40264D01*
X68021Y-40235D01*
X68021Y-40178D01*
X68007Y-40150D01*
X67992Y-40135D01*
X67964Y-40121D01*
X70385Y-40692D02*
X70242Y-40792D01*
X70385Y-40864D02*
X70085Y-40864D01*
X70085Y-40750D01*
X70100Y-40721D01*
X70114Y-40707D01*
X70142Y-40692D01*
X70185Y-40692D01*
X70214Y-40707D01*
X70228Y-40721D01*
X70242Y-40750D01*
X70242Y-40864D01*
X70114Y-40578D02*
X70100Y-40564D01*
X70085Y-40535D01*
X70085Y-40464D01*
X70100Y-40435D01*
X70114Y-40421D01*
X70142Y-40407D01*
X70171Y-40407D01*
X70214Y-40421D01*
X70385Y-40592D01*
X70385Y-40407D01*
X70385Y-40121D02*
X70385Y-40292D01*
X70385Y-40207D02*
X70085Y-40207D01*
X70128Y-40235D01*
X70157Y-40264D01*
X70171Y-40292D01*
X72635Y-40692D02*
X72492Y-40792D01*
X72635Y-40864D02*
X72335Y-40864D01*
X72335Y-40750D01*
X72350Y-40721D01*
X72364Y-40707D01*
X72392Y-40692D01*
X72435Y-40692D01*
X72464Y-40707D01*
X72478Y-40721D01*
X72492Y-40750D01*
X72492Y-40864D01*
X72364Y-40578D02*
X72350Y-40564D01*
X72335Y-40535D01*
X72335Y-40464D01*
X72350Y-40435D01*
X72364Y-40421D01*
X72392Y-40407D01*
X72421Y-40407D01*
X72464Y-40421D01*
X72635Y-40592D01*
X72635Y-40407D01*
X72335Y-40307D02*
X72335Y-40121D01*
X72450Y-40221D01*
X72450Y-40178D01*
X72464Y-40150D01*
X72478Y-40135D01*
X72507Y-40121D01*
X72578Y-40121D01*
X72607Y-40135D01*
X72621Y-40150D01*
X72635Y-40178D01*
X72635Y-40264D01*
X72621Y-40292D01*
X72607Y-40307D01*
X74885Y-40692D02*
X74742Y-40792D01*
X74885Y-40864D02*
X74585Y-40864D01*
X74585Y-40750D01*
X74600Y-40721D01*
X74614Y-40707D01*
X74642Y-40692D01*
X74685Y-40692D01*
X74714Y-40707D01*
X74728Y-40721D01*
X74742Y-40750D01*
X74742Y-40864D01*
X74614Y-40578D02*
X74600Y-40564D01*
X74585Y-40535D01*
X74585Y-40464D01*
X74600Y-40435D01*
X74614Y-40421D01*
X74642Y-40407D01*
X74671Y-40407D01*
X74714Y-40421D01*
X74885Y-40592D01*
X74885Y-40407D01*
X74585Y-40135D02*
X74585Y-40278D01*
X74728Y-40292D01*
X74714Y-40278D01*
X74700Y-40250D01*
X74700Y-40178D01*
X74714Y-40150D01*
X74728Y-40135D01*
X74757Y-40121D01*
X74828Y-40121D01*
X74857Y-40135D01*
X74871Y-40150D01*
X74885Y-40178D01*
X74885Y-40250D01*
X74871Y-40278D01*
X74857Y-40292D01*
X77635Y-39692D02*
X77492Y-39792D01*
X77635Y-39864D02*
X77335Y-39864D01*
X77335Y-39750D01*
X77350Y-39721D01*
X77364Y-39707D01*
X77392Y-39692D01*
X77435Y-39692D01*
X77464Y-39707D01*
X77478Y-39721D01*
X77492Y-39750D01*
X77492Y-39864D01*
X77364Y-39578D02*
X77350Y-39564D01*
X77335Y-39535D01*
X77335Y-39464D01*
X77350Y-39435D01*
X77364Y-39421D01*
X77392Y-39407D01*
X77421Y-39407D01*
X77464Y-39421D01*
X77635Y-39592D01*
X77635Y-39407D01*
X77335Y-39307D02*
X77335Y-39107D01*
X77635Y-39235D01*
X85492Y-44142D02*
X85635Y-44142D01*
X85335Y-44242D02*
X85492Y-44142D01*
X85335Y-44042D01*
X85635Y-43785D02*
X85635Y-43957D01*
X85635Y-43871D02*
X85335Y-43871D01*
X85378Y-43899D01*
X85407Y-43928D01*
X85421Y-43957D01*
X86135Y-44507D02*
X86135Y-44678D01*
X86135Y-44592D02*
X85835Y-44592D01*
X85878Y-44621D01*
X85907Y-44650D01*
X85921Y-44678D01*
X85835Y-44250D02*
X85835Y-44307D01*
X85850Y-44335D01*
X85864Y-44350D01*
X85907Y-44378D01*
X85964Y-44392D01*
X86078Y-44392D01*
X86107Y-44378D01*
X86121Y-44364D01*
X86135Y-44335D01*
X86135Y-44278D01*
X86121Y-44250D01*
X86107Y-44235D01*
X86078Y-44221D01*
X86007Y-44221D01*
X85978Y-44235D01*
X85964Y-44250D01*
X85950Y-44278D01*
X85950Y-44335D01*
X85964Y-44364D01*
X85978Y-44378D01*
X86007Y-44392D01*
X86135Y-44092D02*
X85835Y-44092D01*
X86050Y-43992D01*
X85835Y-43892D01*
X86135Y-43892D01*
X86135Y-43750D02*
X85835Y-43750D01*
X85978Y-43750D02*
X85978Y-43578D01*
X86135Y-43578D02*
X85835Y-43578D01*
X85935Y-43464D02*
X85935Y-43307D01*
X86135Y-43464D01*
X86135Y-43307D01*
X56907Y-40957D02*
X56892Y-40971D01*
X56850Y-40985D01*
X56821Y-40985D01*
X56778Y-40971D01*
X56750Y-40942D01*
X56735Y-40914D01*
X56721Y-40857D01*
X56721Y-40814D01*
X56735Y-40757D01*
X56750Y-40728D01*
X56778Y-40700D01*
X56821Y-40685D01*
X56850Y-40685D01*
X56892Y-40700D01*
X56907Y-40714D01*
X57192Y-40985D02*
X57021Y-40985D01*
X57107Y-40985D02*
X57107Y-40685D01*
X57078Y-40728D01*
X57050Y-40757D01*
X57021Y-40771D01*
X57450Y-40785D02*
X57450Y-40985D01*
X57378Y-40671D02*
X57307Y-40885D01*
X57492Y-40885D01*
X59207Y-42957D02*
X59192Y-42971D01*
X59150Y-42985D01*
X59121Y-42985D01*
X59078Y-42971D01*
X59050Y-42942D01*
X59035Y-42914D01*
X59021Y-42857D01*
X59021Y-42814D01*
X59035Y-42757D01*
X59050Y-42728D01*
X59078Y-42700D01*
X59121Y-42685D01*
X59150Y-42685D01*
X59192Y-42700D01*
X59207Y-42714D01*
X59492Y-42985D02*
X59321Y-42985D01*
X59407Y-42985D02*
X59407Y-42685D01*
X59378Y-42728D01*
X59350Y-42757D01*
X59321Y-42771D01*
X59764Y-42685D02*
X59621Y-42685D01*
X59607Y-42828D01*
X59621Y-42814D01*
X59650Y-42800D01*
X59721Y-42800D01*
X59750Y-42814D01*
X59764Y-42828D01*
X59778Y-42857D01*
X59778Y-42928D01*
X59764Y-42957D01*
X59750Y-42971D01*
X59721Y-42985D01*
X59650Y-42985D01*
X59621Y-42971D01*
X59607Y-42957D01*
%LPC*%
G54D17*
X92525Y-41750D03*
X91974Y-41750D03*
X94974Y-45500D03*
X95525Y-45500D03*
X67775Y-45750D03*
X67224Y-45750D03*
X96474Y-43000D03*
X97025Y-43000D03*
X96474Y-45250D03*
X97025Y-45250D03*
X91974Y-44000D03*
X92525Y-44000D03*
X91974Y-43250D03*
X92525Y-43250D03*
X91974Y-42500D03*
X92525Y-42500D03*
X78474Y-40000D03*
X79025Y-40000D03*
X84000Y-42974D03*
X84000Y-43525D03*
X84000Y-45025D03*
X84000Y-44474D03*
X82500Y-45025D03*
X82500Y-44474D03*
X83250Y-45025D03*
X83250Y-44474D03*
X91224Y-45750D03*
X91775Y-45750D03*
G54D18*
X94051Y-45500D03*
X92948Y-45500D03*
G54D19*
X89396Y-41618D03*
X89140Y-41618D03*
X88884Y-41618D03*
X88628Y-41618D03*
X88372Y-41618D03*
X88116Y-41618D03*
X87860Y-41618D03*
X87604Y-41618D03*
X87604Y-43882D03*
X87860Y-43882D03*
X88116Y-43882D03*
X88372Y-43882D03*
X88628Y-43882D03*
X88884Y-43882D03*
X89140Y-43882D03*
X89396Y-43882D03*
G54D20*
X67147Y-44645D03*
X67147Y-44901D03*
X67147Y-44389D03*
X67147Y-44133D03*
X67147Y-43877D03*
X67147Y-43622D03*
X67147Y-43366D03*
X67147Y-43110D03*
X69352Y-42598D03*
X69352Y-42854D03*
X69352Y-43110D03*
X69352Y-43366D03*
X69352Y-44901D03*
X69352Y-44645D03*
X69352Y-44389D03*
X69352Y-44133D03*
X69352Y-43877D03*
X69352Y-43622D03*
G54D21*
X68250Y-43750D03*
G54D20*
X67147Y-42854D03*
X67147Y-42598D03*
G54D19*
X93604Y-44132D03*
X93860Y-44132D03*
X94116Y-44132D03*
X94372Y-44132D03*
X94628Y-44132D03*
X94884Y-44132D03*
X95140Y-44132D03*
X95396Y-44132D03*
X95396Y-41868D03*
X95140Y-41868D03*
X94884Y-41868D03*
X94628Y-41868D03*
X94372Y-41868D03*
X94116Y-41868D03*
X93860Y-41868D03*
X93604Y-41868D03*
G54D22*
X59155Y-43029D03*
X58250Y-43029D03*
X57344Y-43029D03*
G54D23*
X58250Y-45470D03*
G54D10*
G36*
X81668Y-44338D02*
X81529Y-44477D01*
X81111Y-44059D01*
X81251Y-43920D01*
X81668Y-44338D01*
X81668Y-44338D01*
G37*
G36*
X81891Y-44115D02*
X81752Y-44254D01*
X81334Y-43836D01*
X81473Y-43697D01*
X81891Y-44115D01*
X81891Y-44115D01*
G37*
G36*
X82114Y-43892D02*
X81975Y-44031D01*
X81557Y-43614D01*
X81696Y-43474D01*
X82114Y-43892D01*
X82114Y-43892D01*
G37*
G36*
X82337Y-43669D02*
X82197Y-43809D01*
X81779Y-43391D01*
X81919Y-43251D01*
X82337Y-43669D01*
X82337Y-43669D01*
G37*
G36*
X82559Y-43447D02*
X82419Y-43587D01*
X82001Y-43169D01*
X82141Y-43029D01*
X82559Y-43447D01*
X82559Y-43447D01*
G37*
G36*
X82781Y-43225D02*
X82642Y-43364D01*
X82224Y-42946D01*
X82364Y-42807D01*
X82781Y-43225D01*
X82781Y-43225D01*
G37*
G36*
X83004Y-43002D02*
X82865Y-43141D01*
X82447Y-42723D01*
X82586Y-42584D01*
X83004Y-43002D01*
X83004Y-43002D01*
G37*
G36*
X83227Y-42779D02*
X83088Y-42918D01*
X82670Y-42501D01*
X82809Y-42361D01*
X83227Y-42779D01*
X83227Y-42779D01*
G37*
G36*
X83088Y-41581D02*
X83227Y-41720D01*
X82809Y-42138D01*
X82670Y-41998D01*
X83088Y-41581D01*
X83088Y-41581D01*
G37*
G36*
X82865Y-41358D02*
X83004Y-41497D01*
X82586Y-41915D01*
X82447Y-41776D01*
X82865Y-41358D01*
X82865Y-41358D01*
G37*
G36*
X82642Y-41135D02*
X82781Y-41274D01*
X82364Y-41692D01*
X82224Y-41553D01*
X82642Y-41135D01*
X82642Y-41135D01*
G37*
G36*
X82419Y-40912D02*
X82559Y-41052D01*
X82141Y-41470D01*
X82001Y-41330D01*
X82419Y-40912D01*
X82419Y-40912D01*
G37*
G36*
X82197Y-40690D02*
X82337Y-40830D01*
X81919Y-41248D01*
X81779Y-41108D01*
X82197Y-40690D01*
X82197Y-40690D01*
G37*
G36*
X81975Y-40468D02*
X82114Y-40607D01*
X81696Y-41025D01*
X81557Y-40885D01*
X81975Y-40468D01*
X81975Y-40468D01*
G37*
G36*
X81752Y-40245D02*
X81891Y-40384D01*
X81473Y-40802D01*
X81334Y-40663D01*
X81752Y-40245D01*
X81752Y-40245D01*
G37*
G36*
X81529Y-40022D02*
X81668Y-40161D01*
X81251Y-40579D01*
X81111Y-40440D01*
X81529Y-40022D01*
X81529Y-40022D01*
G37*
G36*
X80331Y-40161D02*
X80470Y-40022D01*
X80888Y-40440D01*
X80748Y-40579D01*
X80331Y-40161D01*
X80331Y-40161D01*
G37*
G36*
X80108Y-40384D02*
X80247Y-40245D01*
X80665Y-40663D01*
X80526Y-40802D01*
X80108Y-40384D01*
X80108Y-40384D01*
G37*
G36*
X79885Y-40607D02*
X80024Y-40468D01*
X80442Y-40885D01*
X80303Y-41025D01*
X79885Y-40607D01*
X79885Y-40607D01*
G37*
G36*
X79662Y-40830D02*
X79802Y-40690D01*
X80220Y-41108D01*
X80080Y-41248D01*
X79662Y-40830D01*
X79662Y-40830D01*
G37*
G36*
X79440Y-41052D02*
X79580Y-40912D01*
X79998Y-41330D01*
X79858Y-41470D01*
X79440Y-41052D01*
X79440Y-41052D01*
G37*
G36*
X79218Y-41274D02*
X79357Y-41135D01*
X79775Y-41553D01*
X79635Y-41692D01*
X79218Y-41274D01*
X79218Y-41274D01*
G37*
G36*
X78995Y-41497D02*
X79134Y-41358D01*
X79552Y-41776D01*
X79413Y-41915D01*
X78995Y-41497D01*
X78995Y-41497D01*
G37*
G36*
X78772Y-41720D02*
X78911Y-41581D01*
X79329Y-41998D01*
X79190Y-42138D01*
X78772Y-41720D01*
X78772Y-41720D01*
G37*
G36*
X78911Y-42918D02*
X78772Y-42779D01*
X79190Y-42361D01*
X79329Y-42501D01*
X78911Y-42918D01*
X78911Y-42918D01*
G37*
G36*
X79134Y-43141D02*
X78995Y-43002D01*
X79413Y-42584D01*
X79552Y-42723D01*
X79134Y-43141D01*
X79134Y-43141D01*
G37*
G36*
X79357Y-43364D02*
X79218Y-43225D01*
X79635Y-42807D01*
X79775Y-42946D01*
X79357Y-43364D01*
X79357Y-43364D01*
G37*
G36*
X79580Y-43587D02*
X79440Y-43447D01*
X79858Y-43029D01*
X79998Y-43169D01*
X79580Y-43587D01*
X79580Y-43587D01*
G37*
G36*
X79802Y-43809D02*
X79662Y-43669D01*
X80080Y-43251D01*
X80220Y-43391D01*
X79802Y-43809D01*
X79802Y-43809D01*
G37*
G36*
X80024Y-44031D02*
X79885Y-43892D01*
X80303Y-43474D01*
X80442Y-43614D01*
X80024Y-44031D01*
X80024Y-44031D01*
G37*
G36*
X80247Y-44254D02*
X80108Y-44115D01*
X80526Y-43697D01*
X80665Y-43836D01*
X80247Y-44254D01*
X80247Y-44254D01*
G37*
G36*
X80470Y-44477D02*
X80331Y-44338D01*
X80748Y-43920D01*
X80888Y-44059D01*
X80470Y-44477D01*
X80470Y-44477D01*
G37*
G54D24*
X98047Y-44611D03*
X98047Y-44355D03*
X98047Y-44100D03*
X98047Y-43844D03*
X98047Y-43588D03*
G54D25*
X99169Y-45576D03*
X99169Y-42623D03*
G54D26*
X99169Y-43647D03*
X99169Y-44552D03*
G54D27*
X71500Y-45500D03*
G54D28*
X72500Y-45500D03*
X73500Y-45500D03*
X74500Y-45500D03*
G54D27*
X71500Y-43500D03*
G54D28*
X72500Y-43500D03*
X73500Y-43500D03*
X74500Y-43500D03*
G54D27*
X62000Y-43500D03*
G54D28*
X63000Y-43500D03*
X64000Y-43500D03*
X65000Y-43500D03*
G54D27*
X62000Y-45500D03*
G54D28*
X63000Y-45500D03*
X64000Y-45500D03*
X65000Y-45500D03*
G54D29*
X53500Y-43250D03*
G54D30*
X53500Y-45250D03*
G54D17*
X88525Y-45750D03*
X87974Y-45750D03*
X88525Y-45000D03*
X87974Y-45000D03*
G54D31*
X53000Y-31250D03*
X54000Y-31250D03*
X53000Y-33500D03*
X54000Y-33500D03*
X53000Y-35750D03*
X54000Y-35750D03*
X53000Y-38000D03*
X54000Y-38000D03*
X98000Y-31250D03*
X99000Y-31250D03*
X98000Y-33500D03*
X99000Y-33500D03*
X98000Y-35750D03*
X99000Y-35750D03*
X98000Y-38000D03*
X99000Y-38000D03*
X55250Y-31250D03*
X56250Y-31250D03*
X55250Y-33500D03*
X56250Y-33500D03*
X55250Y-35750D03*
X56250Y-35750D03*
X55250Y-38000D03*
X56250Y-38000D03*
X95750Y-31250D03*
X96750Y-31250D03*
X95750Y-33500D03*
X96750Y-33500D03*
X95750Y-35750D03*
X96750Y-35750D03*
X95750Y-38000D03*
X96750Y-38000D03*
X57500Y-31250D03*
X58500Y-31250D03*
X57500Y-33500D03*
X58500Y-33500D03*
X57500Y-35750D03*
X58500Y-35750D03*
X57500Y-38000D03*
X58500Y-38000D03*
X93500Y-31250D03*
X94500Y-31250D03*
X93500Y-33500D03*
X94500Y-33500D03*
X93500Y-35750D03*
X94500Y-35750D03*
X93500Y-38000D03*
X94500Y-38000D03*
X59750Y-31250D03*
X60750Y-31250D03*
X59750Y-33500D03*
X60750Y-33500D03*
X59750Y-35750D03*
X60750Y-35750D03*
X59750Y-38000D03*
X60750Y-38000D03*
X91250Y-31250D03*
X92250Y-31250D03*
X91250Y-33500D03*
X92250Y-33500D03*
X91250Y-35750D03*
X92250Y-35750D03*
X91250Y-38000D03*
X92250Y-38000D03*
X62000Y-31250D03*
X63000Y-31250D03*
X62000Y-33500D03*
X63000Y-33500D03*
X62000Y-35750D03*
X63000Y-35750D03*
X62000Y-38000D03*
X63000Y-38000D03*
X89000Y-31250D03*
X90000Y-31250D03*
X89000Y-33500D03*
X90000Y-33500D03*
X89000Y-35750D03*
X90000Y-35750D03*
X89000Y-38000D03*
X90000Y-38000D03*
X64250Y-31250D03*
X65250Y-31250D03*
X64250Y-33500D03*
X65250Y-33500D03*
X64250Y-35750D03*
X65250Y-35750D03*
X64250Y-38000D03*
X65250Y-38000D03*
X86750Y-31250D03*
X87750Y-31250D03*
X86750Y-33500D03*
X87750Y-33500D03*
X86750Y-35750D03*
X87750Y-35750D03*
X86750Y-38000D03*
X87750Y-38000D03*
X66500Y-31250D03*
X67500Y-31250D03*
X66500Y-33500D03*
X67500Y-33500D03*
X66500Y-35750D03*
X67500Y-35750D03*
X66500Y-38000D03*
X67500Y-38000D03*
X84500Y-31250D03*
X85500Y-31250D03*
X84500Y-33500D03*
X85500Y-33500D03*
X84500Y-35750D03*
X85500Y-35750D03*
X84500Y-38000D03*
X85500Y-38000D03*
X68750Y-31250D03*
X69750Y-31250D03*
X68750Y-33500D03*
X69750Y-33500D03*
X68750Y-35750D03*
X69750Y-35750D03*
X68750Y-38000D03*
X69750Y-38000D03*
X82250Y-31250D03*
X83250Y-31250D03*
X82250Y-33500D03*
X83250Y-33500D03*
X82250Y-35750D03*
X83250Y-35750D03*
X82250Y-38000D03*
X83250Y-38000D03*
X71000Y-31250D03*
X72000Y-31250D03*
X71000Y-33500D03*
X72000Y-33500D03*
X71000Y-35750D03*
X72000Y-35750D03*
X71000Y-38000D03*
X72000Y-38000D03*
X80000Y-31250D03*
X81000Y-31250D03*
X80000Y-33500D03*
X81000Y-33500D03*
X80000Y-35750D03*
X81000Y-35750D03*
X80000Y-38000D03*
X81000Y-38000D03*
X73250Y-31250D03*
X74250Y-31250D03*
X73250Y-33500D03*
X74250Y-33500D03*
X73250Y-35750D03*
X74250Y-35750D03*
X73250Y-38000D03*
X74250Y-38000D03*
X77750Y-31250D03*
X78750Y-31250D03*
X77750Y-33500D03*
X78750Y-33500D03*
X77750Y-35750D03*
X78750Y-35750D03*
X77750Y-38000D03*
X78750Y-38000D03*
X75500Y-31250D03*
X76500Y-31250D03*
X75500Y-33500D03*
X76500Y-33500D03*
X75500Y-35750D03*
X76500Y-35750D03*
X75500Y-38000D03*
X76500Y-38000D03*
G54D32*
X76750Y-43500D03*
G54D33*
X77750Y-43500D03*
X76750Y-44500D03*
X77750Y-44500D03*
X76750Y-45500D03*
X77750Y-45500D03*
G54D34*
X84375Y-40433D03*
X84750Y-39566D03*
X85124Y-40433D03*
X86125Y-40433D03*
X86500Y-39566D03*
X86874Y-40433D03*
X87875Y-40433D03*
X88250Y-39566D03*
X88624Y-40433D03*
X89625Y-40433D03*
X90000Y-39566D03*
X90374Y-40433D03*
X91375Y-40433D03*
X91750Y-39566D03*
X92124Y-40433D03*
X93125Y-40433D03*
X93500Y-39566D03*
X93874Y-40433D03*
X94875Y-40433D03*
X95250Y-39566D03*
X95624Y-40433D03*
X96625Y-40433D03*
X97000Y-39566D03*
X97374Y-40433D03*
X53125Y-40433D03*
X53500Y-39566D03*
X53874Y-40433D03*
X55375Y-40433D03*
X55750Y-39566D03*
X56124Y-40433D03*
X57625Y-40433D03*
X58000Y-39566D03*
X58374Y-40433D03*
X59875Y-40433D03*
X60250Y-39566D03*
X60624Y-40433D03*
X62125Y-40433D03*
X62500Y-39566D03*
X62874Y-40433D03*
X64375Y-40433D03*
X64750Y-39566D03*
X65124Y-40433D03*
X66625Y-40433D03*
X67000Y-39566D03*
X67374Y-40433D03*
X68875Y-40433D03*
X69250Y-39566D03*
X69624Y-40433D03*
X71125Y-40433D03*
X71500Y-39566D03*
X71874Y-40433D03*
X73375Y-40433D03*
X73750Y-39566D03*
X74124Y-40433D03*
X75625Y-40433D03*
X76000Y-39566D03*
X76374Y-40433D03*
G54D17*
X68724Y-45750D03*
X69275Y-45750D03*
X90250Y-43025D03*
X90250Y-42474D03*
X97025Y-44500D03*
X96474Y-44500D03*
X97025Y-43750D03*
X96474Y-43750D03*
X89775Y-45750D03*
X89224Y-45750D03*
X89775Y-45000D03*
X89224Y-45000D03*
X54500Y-39775D03*
X54500Y-39224D03*
X56750Y-39775D03*
X56750Y-39224D03*
X59000Y-39775D03*
X59000Y-39224D03*
X61250Y-39775D03*
X61250Y-39224D03*
X63500Y-39775D03*
X63500Y-39224D03*
X65750Y-39775D03*
X65750Y-39224D03*
X68000Y-39775D03*
X68000Y-39224D03*
X70250Y-39775D03*
X70250Y-39224D03*
X72500Y-39775D03*
X72500Y-39224D03*
X74750Y-39775D03*
X74750Y-39224D03*
X77000Y-39775D03*
X77000Y-39224D03*
G54D35*
X85500Y-44960D03*
X85500Y-43039D03*
G54D18*
X57651Y-41850D03*
X56548Y-41850D03*
X58848Y-41850D03*
X59951Y-41850D03*
M02*
