M48
;DRILL file {Pcbnew (2014-03-18 BZR 4754)-product} date Tue 01 Apr 2014 06:20:57 PM CDT
;FORMAT={2:4/ absolute / inch / keep zeros}
FMAT,2
INCH,TZ
T1C0.015
T2C0.028
T3C0.031
T4C0.035
T5C0.051
%
G90
G05
M72
T1
X052900Y-039200
X054600Y-030600
X054600Y-032300
X054600Y-034550
X054600Y-036700
X055400Y-041150
X055400Y-041600
X055750Y-042000
X057350Y-039250
X059600Y-039200
X060950Y-041800
X061450Y-041800
X061650Y-041400
X061900Y-039200
X064100Y-039200
X065950Y-042150
X066300Y-044800
X066350Y-039200
X067750Y-042750
X067750Y-043250
X067750Y-043750
X067750Y-044250
X067750Y-044750
X068150Y-042000
X068250Y-042750
X068250Y-043250
X068250Y-043750
X068250Y-044250
X068250Y-044750
X068650Y-039200
X068750Y-042750
X068750Y-043250
X068750Y-043750
X068750Y-044250
X068750Y-044750
X070150Y-042200
X070550Y-042000
X070850Y-039250
X072700Y-034850
X072700Y-036900
X073050Y-039300
X074850Y-034850
X074900Y-041200
X075000Y-036500
X075350Y-041200
X075400Y-039300
X075450Y-044500
X075650Y-041500
X076250Y-041150
X076900Y-040800
X077150Y-034850
X077550Y-041350
X077950Y-039950
X078000Y-041400
X078150Y-041800
X078600Y-044100
X079400Y-034850
X080000Y-045100
X080000Y-045550
X080700Y-045100
X080728Y-042200
X080750Y-044650
X081050Y-043400
X081200Y-044650
X081350Y-041200
X081800Y-041650
X082050Y-045750
X082650Y-040700
X082900Y-040000
X083100Y-041200
X083250Y-040250
X083400Y-041550
X083600Y-045850
X083700Y-040300
X084000Y-036250
X084000Y-036750
X084150Y-039350
X084150Y-039800
X084300Y-045450
X084500Y-036750
X085550Y-039500
X086000Y-036750
X086800Y-043200
X086800Y-045850
X087100Y-041650
X087350Y-039500
X088550Y-042500
X089100Y-039450
X089700Y-042500
X090000Y-041900
X090400Y-045350
X090750Y-043000
X090850Y-039400
X090850Y-045250
X091450Y-042500
X092550Y-039500
X092950Y-041750
X093000Y-042500
X093000Y-043600
X093000Y-044350
X094100Y-042650
X094150Y-043600
X094350Y-039500
X094500Y-042500
X094750Y-036750
X094750Y-037250
X094800Y-044900
X094900Y-042400
X094900Y-043600
X095200Y-041150
X095650Y-041200
X096150Y-039450
X097400Y-030500
X097400Y-032400
X097400Y-034650
X097400Y-036950
X098200Y-041100
X098350Y-045250
T2
X085500Y-043039
X085500Y-044961
T3
X053000Y-031250
X053000Y-033500
X053000Y-035750
X053000Y-038000
X054000Y-031250
X054000Y-033500
X054000Y-035750
X054000Y-038000
X055250Y-031250
X055250Y-033500
X055250Y-035750
X055250Y-038000
X056250Y-031250
X056250Y-033500
X056250Y-035750
X056250Y-038000
X057500Y-031250
X057500Y-033500
X057500Y-035750
X057500Y-038000
X058500Y-031250
X058500Y-033500
X058500Y-035750
X058500Y-038000
X059750Y-031250
X059750Y-033500
X059750Y-035750
X059750Y-038000
X060750Y-031250
X060750Y-033500
X060750Y-035750
X060750Y-038000
X062000Y-031250
X062000Y-033500
X062000Y-035750
X062000Y-038000
X063000Y-031250
X063000Y-033500
X063000Y-035750
X063000Y-038000
X064250Y-031250
X064250Y-033500
X064250Y-035750
X064250Y-038000
X065250Y-031250
X065250Y-033500
X065250Y-035750
X065250Y-038000
X066500Y-031250
X066500Y-033500
X066500Y-035750
X066500Y-038000
X067500Y-031250
X067500Y-033500
X067500Y-035750
X067500Y-038000
X068750Y-031250
X068750Y-033500
X068750Y-035750
X068750Y-038000
X069750Y-031250
X069750Y-033500
X069750Y-035750
X069750Y-038000
X071000Y-031250
X071000Y-033500
X071000Y-035750
X071000Y-038000
X072000Y-031250
X072000Y-033500
X072000Y-035750
X072000Y-038000
X073250Y-031250
X073250Y-033500
X073250Y-035750
X073250Y-038000
X074250Y-031250
X074250Y-033500
X074250Y-035750
X074250Y-038000
X075500Y-031250
X075500Y-033500
X075500Y-035750
X075500Y-038000
X076500Y-031250
X076500Y-033500
X076500Y-035750
X076500Y-038000
X077750Y-031250
X077750Y-033500
X077750Y-035750
X077750Y-038000
X078750Y-031250
X078750Y-033500
X078750Y-035750
X078750Y-038000
X080000Y-031250
X080000Y-033500
X080000Y-035750
X080000Y-038000
X081000Y-031250
X081000Y-033500
X081000Y-035750
X081000Y-038000
X082250Y-031250
X082250Y-033500
X082250Y-035750
X082250Y-038000
X083250Y-031250
X083250Y-033500
X083250Y-035750
X083250Y-038000
X084500Y-031250
X084500Y-033500
X084500Y-035750
X084500Y-038000
X085500Y-031250
X085500Y-033500
X085500Y-035750
X085500Y-038000
X086750Y-031250
X086750Y-033500
X086750Y-035750
X086750Y-038000
X087750Y-031250
X087750Y-033500
X087750Y-035750
X087750Y-038000
X089000Y-031250
X089000Y-033500
X089000Y-035750
X089000Y-038000
X090000Y-031250
X090000Y-033500
X090000Y-035750
X090000Y-038000
X091250Y-031250
X091250Y-033500
X091250Y-035750
X091250Y-038000
X092250Y-031250
X092250Y-033500
X092250Y-035750
X092250Y-038000
X093500Y-031250
X093500Y-033500
X093500Y-035750
X093500Y-038000
X094500Y-031250
X094500Y-033500
X094500Y-035750
X094500Y-038000
X095750Y-031250
X095750Y-033500
X095750Y-035750
X095750Y-038000
X096750Y-031250
X096750Y-033500
X096750Y-035750
X096750Y-038000
X098000Y-031250
X098000Y-033500
X098000Y-035750
X098000Y-038000
X099000Y-031250
X099000Y-033500
X099000Y-035750
X099000Y-038000
T4
X062000Y-043500
X062000Y-045500
X063000Y-043500
X063000Y-045500
X064000Y-043500
X064000Y-045500
X065000Y-043500
X065000Y-045500
X071500Y-043500
X071500Y-045500
X072500Y-043500
X072500Y-045500
X073500Y-043500
X073500Y-045500
X074500Y-043500
X074500Y-045500
X076750Y-043500
X076750Y-044500
X076750Y-045500
X077750Y-043500
X077750Y-044500
X077750Y-045500
T5
X053500Y-043250
X053500Y-045250
T0
M30
