%FSLAX34Y34*%
G04 Gerber Fmt 3.4, Leading zero omitted, Abs format*
G04 (created by PCBNEW (2014-03-18 BZR 4754)-product) date Tue 01 Apr 2014 06:21:33 PM CDT*
%MOIN*%
G01*
G70*
G90*
G04 APERTURE LIST*
%ADD10C,0.006000*%
%ADD11R,0.070866X0.070866*%
%ADD12C,0.070866*%
%ADD13R,0.086614X0.086614*%
%ADD14C,0.086614*%
%ADD15C,0.062992*%
%ADD16R,0.066929X0.066929*%
%ADD17C,0.066929*%
%ADD18C,0.055118*%
%ADD19C,0.030000*%
%ADD20C,0.010000*%
G04 APERTURE END LIST*
G54D10*
G54D11*
X71500Y-45500D03*
G54D12*
X72500Y-45500D03*
X73500Y-45500D03*
X74500Y-45500D03*
G54D11*
X71500Y-43500D03*
G54D12*
X72500Y-43500D03*
X73500Y-43500D03*
X74500Y-43500D03*
G54D11*
X62000Y-43500D03*
G54D12*
X63000Y-43500D03*
X64000Y-43500D03*
X65000Y-43500D03*
G54D11*
X62000Y-45500D03*
G54D12*
X63000Y-45500D03*
X64000Y-45500D03*
X65000Y-45500D03*
G54D13*
X53500Y-43250D03*
G54D14*
X53500Y-45250D03*
G54D15*
X53000Y-31250D03*
X54000Y-31250D03*
X53000Y-33500D03*
X54000Y-33500D03*
X53000Y-35750D03*
X54000Y-35750D03*
X53000Y-38000D03*
X54000Y-38000D03*
X98000Y-31250D03*
X99000Y-31250D03*
X98000Y-33500D03*
X99000Y-33500D03*
X98000Y-35750D03*
X99000Y-35750D03*
X98000Y-38000D03*
X99000Y-38000D03*
X55250Y-31250D03*
X56250Y-31250D03*
X55250Y-33500D03*
X56250Y-33500D03*
X55250Y-35750D03*
X56250Y-35750D03*
X55250Y-38000D03*
X56250Y-38000D03*
X95750Y-31250D03*
X96750Y-31250D03*
X95750Y-33500D03*
X96750Y-33500D03*
X95750Y-35750D03*
X96750Y-35750D03*
X95750Y-38000D03*
X96750Y-38000D03*
X57500Y-31250D03*
X58500Y-31250D03*
X57500Y-33500D03*
X58500Y-33500D03*
X57500Y-35750D03*
X58500Y-35750D03*
X57500Y-38000D03*
X58500Y-38000D03*
X93500Y-31250D03*
X94500Y-31250D03*
X93500Y-33500D03*
X94500Y-33500D03*
X93500Y-35750D03*
X94500Y-35750D03*
X93500Y-38000D03*
X94500Y-38000D03*
X59750Y-31250D03*
X60750Y-31250D03*
X59750Y-33500D03*
X60750Y-33500D03*
X59750Y-35750D03*
X60750Y-35750D03*
X59750Y-38000D03*
X60750Y-38000D03*
X91250Y-31250D03*
X92250Y-31250D03*
X91250Y-33500D03*
X92250Y-33500D03*
X91250Y-35750D03*
X92250Y-35750D03*
X91250Y-38000D03*
X92250Y-38000D03*
X62000Y-31250D03*
X63000Y-31250D03*
X62000Y-33500D03*
X63000Y-33500D03*
X62000Y-35750D03*
X63000Y-35750D03*
X62000Y-38000D03*
X63000Y-38000D03*
X89000Y-31250D03*
X90000Y-31250D03*
X89000Y-33500D03*
X90000Y-33500D03*
X89000Y-35750D03*
X90000Y-35750D03*
X89000Y-38000D03*
X90000Y-38000D03*
X64250Y-31250D03*
X65250Y-31250D03*
X64250Y-33500D03*
X65250Y-33500D03*
X64250Y-35750D03*
X65250Y-35750D03*
X64250Y-38000D03*
X65250Y-38000D03*
X86750Y-31250D03*
X87750Y-31250D03*
X86750Y-33500D03*
X87750Y-33500D03*
X86750Y-35750D03*
X87750Y-35750D03*
X86750Y-38000D03*
X87750Y-38000D03*
X66500Y-31250D03*
X67500Y-31250D03*
X66500Y-33500D03*
X67500Y-33500D03*
X66500Y-35750D03*
X67500Y-35750D03*
X66500Y-38000D03*
X67500Y-38000D03*
X84500Y-31250D03*
X85500Y-31250D03*
X84500Y-33500D03*
X85500Y-33500D03*
X84500Y-35750D03*
X85500Y-35750D03*
X84500Y-38000D03*
X85500Y-38000D03*
X68750Y-31250D03*
X69750Y-31250D03*
X68750Y-33500D03*
X69750Y-33500D03*
X68750Y-35750D03*
X69750Y-35750D03*
X68750Y-38000D03*
X69750Y-38000D03*
X82250Y-31250D03*
X83250Y-31250D03*
X82250Y-33500D03*
X83250Y-33500D03*
X82250Y-35750D03*
X83250Y-35750D03*
X82250Y-38000D03*
X83250Y-38000D03*
X71000Y-31250D03*
X72000Y-31250D03*
X71000Y-33500D03*
X72000Y-33500D03*
X71000Y-35750D03*
X72000Y-35750D03*
X71000Y-38000D03*
X72000Y-38000D03*
X80000Y-31250D03*
X81000Y-31250D03*
X80000Y-33500D03*
X81000Y-33500D03*
X80000Y-35750D03*
X81000Y-35750D03*
X80000Y-38000D03*
X81000Y-38000D03*
X73250Y-31250D03*
X74250Y-31250D03*
X73250Y-33500D03*
X74250Y-33500D03*
X73250Y-35750D03*
X74250Y-35750D03*
X73250Y-38000D03*
X74250Y-38000D03*
X77750Y-31250D03*
X78750Y-31250D03*
X77750Y-33500D03*
X78750Y-33500D03*
X77750Y-35750D03*
X78750Y-35750D03*
X77750Y-38000D03*
X78750Y-38000D03*
X75500Y-31250D03*
X76500Y-31250D03*
X75500Y-33500D03*
X76500Y-33500D03*
X75500Y-35750D03*
X76500Y-35750D03*
X75500Y-38000D03*
X76500Y-38000D03*
G54D16*
X76750Y-43500D03*
G54D17*
X77750Y-43500D03*
X76750Y-44500D03*
X77750Y-44500D03*
X76750Y-45500D03*
X77750Y-45500D03*
G54D18*
X85500Y-44960D03*
X85500Y-43039D03*
G54D19*
X83700Y-40300D03*
X84150Y-39800D03*
X78600Y-44100D03*
X82900Y-40000D03*
X91450Y-42500D03*
X80000Y-45550D03*
X80000Y-45100D03*
X95650Y-41200D03*
X84150Y-39350D03*
X83250Y-40250D03*
X80700Y-45100D03*
X95200Y-41150D03*
X61450Y-41800D03*
X55400Y-41600D03*
X81800Y-41650D03*
X65950Y-42150D03*
X81350Y-41200D03*
X68150Y-42000D03*
X55400Y-41150D03*
X61650Y-41400D03*
X80750Y-44650D03*
X70150Y-42200D03*
X81200Y-44650D03*
X70550Y-42000D03*
X81050Y-43400D03*
X78150Y-41800D03*
X83400Y-41550D03*
X78000Y-41400D03*
X77550Y-41350D03*
X83100Y-41200D03*
X82650Y-40700D03*
X75650Y-41500D03*
X76900Y-40800D03*
X74900Y-41200D03*
X75350Y-41200D03*
X76250Y-41150D03*
X84000Y-36250D03*
X84000Y-36750D03*
X75000Y-36500D03*
X84500Y-36750D03*
X86000Y-36750D03*
X94750Y-36750D03*
X94750Y-37250D03*
X54600Y-32300D03*
X54600Y-36700D03*
X54600Y-34550D03*
X54600Y-30600D03*
X52900Y-39200D03*
X60950Y-41800D03*
X55750Y-42000D03*
X73050Y-39300D03*
X70850Y-39250D03*
X66350Y-39200D03*
X61900Y-39200D03*
X57350Y-39250D03*
X59600Y-39200D03*
X64100Y-39200D03*
X68650Y-39200D03*
X94800Y-44900D03*
X98350Y-45250D03*
X75450Y-44500D03*
X75400Y-39300D03*
X97400Y-32400D03*
X97400Y-36950D03*
X96150Y-39450D03*
X97400Y-34650D03*
X97400Y-30500D03*
X72700Y-36900D03*
X77150Y-34850D03*
X77950Y-39950D03*
X74850Y-34850D03*
X72700Y-34850D03*
X79400Y-34850D03*
X84300Y-45450D03*
X80727Y-42200D03*
X90750Y-43000D03*
X92950Y-41750D03*
X82050Y-45750D03*
X85550Y-39500D03*
X87350Y-39500D03*
X89100Y-39450D03*
X90850Y-39400D03*
X92550Y-39500D03*
X94350Y-39500D03*
X98200Y-41100D03*
X68750Y-43750D03*
X68250Y-43750D03*
X67750Y-43750D03*
X68750Y-44250D03*
X68250Y-44250D03*
X67750Y-44250D03*
X68750Y-44750D03*
X68250Y-44750D03*
X67750Y-44750D03*
X67750Y-43250D03*
X68750Y-43250D03*
X68250Y-43250D03*
X68750Y-42750D03*
X68250Y-42750D03*
X67750Y-42750D03*
X86800Y-45850D03*
X83600Y-45850D03*
X90000Y-41900D03*
X86800Y-43200D03*
X87100Y-41650D03*
X66300Y-44800D03*
X94900Y-42400D03*
X94150Y-43600D03*
X93000Y-43600D03*
X93000Y-44350D03*
X93000Y-42500D03*
X94500Y-42500D03*
X89700Y-42500D03*
X88550Y-42500D03*
X90400Y-45350D03*
X94900Y-43600D03*
X90850Y-45250D03*
X94100Y-42650D03*
G54D20*
X83700Y-40300D02*
X83700Y-40700D01*
X83450Y-42400D02*
X83200Y-42650D01*
X83600Y-42400D02*
X83450Y-42400D01*
X84250Y-41750D02*
X83600Y-42400D01*
X84250Y-41250D02*
X84250Y-41750D01*
X83700Y-40700D02*
X84250Y-41250D01*
X83700Y-40300D02*
X84150Y-39850D01*
X84150Y-39850D02*
X84150Y-39800D01*
X76250Y-44750D02*
X76500Y-45000D01*
X76500Y-45000D02*
X78500Y-45000D01*
X78500Y-45000D02*
X79250Y-44250D01*
X79250Y-44250D02*
X81600Y-44250D01*
X81600Y-44250D02*
X83200Y-42650D01*
X76750Y-43500D02*
X76250Y-44000D01*
X76250Y-44000D02*
X76250Y-44750D01*
X82900Y-40000D02*
X82900Y-40500D01*
X81450Y-43750D02*
X78950Y-43750D01*
X83300Y-41900D02*
X81450Y-43750D01*
X83500Y-41900D02*
X83300Y-41900D01*
X83750Y-41650D02*
X83500Y-41900D01*
X83750Y-41350D02*
X83750Y-41650D01*
X82900Y-40500D02*
X83750Y-41350D01*
X78950Y-43750D02*
X78600Y-44100D01*
X91450Y-41850D02*
X91450Y-42500D01*
X90900Y-41300D02*
X91450Y-41850D01*
X86200Y-41300D02*
X90900Y-41300D01*
X83950Y-43550D02*
X86200Y-41300D01*
X83800Y-43550D02*
X83950Y-43550D01*
X81600Y-45750D02*
X83800Y-43550D01*
X80200Y-45750D02*
X81600Y-45750D01*
X80000Y-45550D02*
X80200Y-45750D01*
X80200Y-45100D02*
X80000Y-45100D01*
X80600Y-45500D02*
X80200Y-45100D01*
X81550Y-45500D02*
X80600Y-45500D01*
X83733Y-43316D02*
X81550Y-45500D01*
X83883Y-43316D02*
X83733Y-43316D01*
X86150Y-41050D02*
X83883Y-43316D01*
X94650Y-41050D02*
X86150Y-41050D01*
X95150Y-41550D02*
X94650Y-41050D01*
X95300Y-41550D02*
X95150Y-41550D01*
X95650Y-41200D02*
X95300Y-41550D01*
X81100Y-44000D02*
X81500Y-44000D01*
X83250Y-40550D02*
X83250Y-40250D01*
X84000Y-41300D02*
X83250Y-40550D01*
X84000Y-41700D02*
X84000Y-41300D01*
X83550Y-42150D02*
X84000Y-41700D01*
X83350Y-42150D02*
X83550Y-42150D01*
X81500Y-44000D02*
X83350Y-42150D01*
X77800Y-44000D02*
X78000Y-44000D01*
X78750Y-44450D02*
X79200Y-44000D01*
X78450Y-44450D02*
X78750Y-44450D01*
X78000Y-44000D02*
X78450Y-44450D01*
X83250Y-40250D02*
X84150Y-39350D01*
X76750Y-44500D02*
X77250Y-44000D01*
X77250Y-44000D02*
X77800Y-44000D01*
X79200Y-44000D02*
X81100Y-44000D01*
X80850Y-45250D02*
X80700Y-45100D01*
X81500Y-45250D02*
X80850Y-45250D01*
X83658Y-43091D02*
X81500Y-45250D01*
X83808Y-43091D02*
X83658Y-43091D01*
X86100Y-40800D02*
X83808Y-43091D01*
X94850Y-40800D02*
X86100Y-40800D01*
X95200Y-41150D02*
X94850Y-40800D01*
X61050Y-41400D02*
X61450Y-41800D01*
X59900Y-41400D02*
X61050Y-41400D01*
X59700Y-41600D02*
X59900Y-41400D01*
X55400Y-41600D02*
X59700Y-41600D01*
X81700Y-41550D02*
X81800Y-41650D01*
X81250Y-41550D02*
X81700Y-41550D01*
X81050Y-41350D02*
X81250Y-41550D01*
X80850Y-41350D02*
X81050Y-41350D01*
X80150Y-42050D02*
X80850Y-41350D01*
X78650Y-42050D02*
X80150Y-42050D01*
X78300Y-42400D02*
X78650Y-42050D01*
X78000Y-42400D02*
X78300Y-42400D01*
X77550Y-41950D02*
X78000Y-42400D01*
X77350Y-41950D02*
X77550Y-41950D01*
X77050Y-41650D02*
X77350Y-41950D01*
X76800Y-41650D02*
X77050Y-41650D01*
X76350Y-42100D02*
X76800Y-41650D01*
X75450Y-42100D02*
X76350Y-42100D01*
X75150Y-41800D02*
X75450Y-42100D01*
X74450Y-41800D02*
X75150Y-41800D01*
X73750Y-42500D02*
X74450Y-41800D01*
X70850Y-42500D02*
X73750Y-42500D01*
X70550Y-42800D02*
X70850Y-42500D01*
X70000Y-42800D02*
X70550Y-42800D01*
X69400Y-42200D02*
X70000Y-42800D01*
X68400Y-42200D02*
X69400Y-42200D01*
X68250Y-42350D02*
X68400Y-42200D01*
X68000Y-42350D02*
X68250Y-42350D01*
X67600Y-41950D02*
X68000Y-42350D01*
X66150Y-41950D02*
X67600Y-41950D01*
X65950Y-42150D02*
X66150Y-41950D01*
X68500Y-41950D02*
X69450Y-41950D01*
X69450Y-41950D02*
X70050Y-42550D01*
X70050Y-42550D02*
X70300Y-42550D01*
X70300Y-42550D02*
X70500Y-42350D01*
X70500Y-42350D02*
X70700Y-42350D01*
X70700Y-42350D02*
X70800Y-42250D01*
X70800Y-42250D02*
X73700Y-42250D01*
X73700Y-42250D02*
X74400Y-41550D01*
X74400Y-41550D02*
X75200Y-41550D01*
X75200Y-41550D02*
X75500Y-41850D01*
X75500Y-41850D02*
X76300Y-41850D01*
X76300Y-41850D02*
X76750Y-41400D01*
X76750Y-41400D02*
X77100Y-41400D01*
X77100Y-41400D02*
X77400Y-41700D01*
X77400Y-41700D02*
X77600Y-41700D01*
X77600Y-41700D02*
X78050Y-42150D01*
X78050Y-42150D02*
X78250Y-42150D01*
X78250Y-42150D02*
X78600Y-41800D01*
X78600Y-41800D02*
X80100Y-41800D01*
X80100Y-41800D02*
X80800Y-41100D01*
X80800Y-41100D02*
X81250Y-41100D01*
X81250Y-41100D02*
X81350Y-41200D01*
X68150Y-42000D02*
X68200Y-41950D01*
X68200Y-41950D02*
X68500Y-41950D01*
X55600Y-41350D02*
X55400Y-41150D01*
X59650Y-41350D02*
X55600Y-41350D01*
X59850Y-41150D02*
X59650Y-41350D01*
X61400Y-41150D02*
X59850Y-41150D01*
X61650Y-41400D02*
X61400Y-41150D01*
X70150Y-42200D02*
X70150Y-41900D01*
X81100Y-45000D02*
X80750Y-44650D01*
X81450Y-45000D02*
X81100Y-45000D01*
X83583Y-42866D02*
X81450Y-45000D01*
X83733Y-42866D02*
X83583Y-42866D01*
X84750Y-41850D02*
X83733Y-42866D01*
X84750Y-41150D02*
X84750Y-41850D01*
X84300Y-40700D02*
X84750Y-41150D01*
X84300Y-40450D02*
X84300Y-40700D01*
X84750Y-40000D02*
X84300Y-40450D01*
X84750Y-39200D02*
X84750Y-40000D01*
X84300Y-38750D02*
X84750Y-39200D01*
X84000Y-38750D02*
X84300Y-38750D01*
X83350Y-39400D02*
X84000Y-38750D01*
X82750Y-39400D02*
X83350Y-39400D01*
X82550Y-39600D02*
X82750Y-39400D01*
X80400Y-39600D02*
X82550Y-39600D01*
X79700Y-40300D02*
X80400Y-39600D01*
X77250Y-40300D02*
X79700Y-40300D01*
X77150Y-40200D02*
X77250Y-40300D01*
X76650Y-40200D02*
X77150Y-40200D01*
X76550Y-40300D02*
X76650Y-40200D01*
X75050Y-40300D02*
X76550Y-40300D01*
X73600Y-41750D02*
X75050Y-40300D01*
X70850Y-41750D02*
X73600Y-41750D01*
X70750Y-41650D02*
X70850Y-41750D01*
X70400Y-41650D02*
X70750Y-41650D01*
X70150Y-41900D02*
X70400Y-41650D01*
X81200Y-44650D02*
X81350Y-44500D01*
X81350Y-44500D02*
X81650Y-44500D01*
X81650Y-44500D02*
X83500Y-42650D01*
X83500Y-42650D02*
X83650Y-42650D01*
X83650Y-42650D02*
X84500Y-41800D01*
X84500Y-41800D02*
X84500Y-41200D01*
X84500Y-41200D02*
X84050Y-40750D01*
X84050Y-40750D02*
X84050Y-40400D01*
X84050Y-40400D02*
X84500Y-39950D01*
X84500Y-39950D02*
X84500Y-39250D01*
X84500Y-39250D02*
X84250Y-39000D01*
X84250Y-39000D02*
X84050Y-39000D01*
X84050Y-39000D02*
X83400Y-39650D01*
X83400Y-39650D02*
X82800Y-39650D01*
X82800Y-39650D02*
X82600Y-39850D01*
X82600Y-39850D02*
X80450Y-39850D01*
X80450Y-39850D02*
X79750Y-40550D01*
X79750Y-40550D02*
X77150Y-40550D01*
X77150Y-40550D02*
X77050Y-40450D01*
X77050Y-40450D02*
X76750Y-40450D01*
X76750Y-40450D02*
X76650Y-40550D01*
X76650Y-40550D02*
X75100Y-40550D01*
X75100Y-40550D02*
X73650Y-42000D01*
X73650Y-42000D02*
X70550Y-42000D01*
X81100Y-43350D02*
X81550Y-43350D01*
X81050Y-43400D02*
X81100Y-43350D01*
X78400Y-41550D02*
X78600Y-41550D01*
X78150Y-41800D02*
X78400Y-41550D01*
X78600Y-41550D02*
X80050Y-41550D01*
X80050Y-41550D02*
X80750Y-40850D01*
X80750Y-40850D02*
X81650Y-40850D01*
X81650Y-40850D02*
X82650Y-41850D01*
X82650Y-41850D02*
X82650Y-42250D01*
X82650Y-42250D02*
X81550Y-43350D01*
X83400Y-41550D02*
X83000Y-41550D01*
X83000Y-41550D02*
X82750Y-41300D01*
X82750Y-41300D02*
X82400Y-41300D01*
X82400Y-41300D02*
X82050Y-40950D01*
X82050Y-40950D02*
X82050Y-40750D01*
X82050Y-40750D02*
X81900Y-40600D01*
X81900Y-40600D02*
X80700Y-40600D01*
X80700Y-40600D02*
X80000Y-41300D01*
X80000Y-41300D02*
X78350Y-41300D01*
X78000Y-41400D02*
X78100Y-41300D01*
X78100Y-41300D02*
X78350Y-41300D01*
X77850Y-41050D02*
X78150Y-41050D01*
X77550Y-41350D02*
X77850Y-41050D01*
X82950Y-41050D02*
X83100Y-41200D01*
X82500Y-41050D02*
X82950Y-41050D01*
X82300Y-40850D02*
X82500Y-41050D01*
X82300Y-40700D02*
X82300Y-40850D01*
X81950Y-40350D02*
X82300Y-40700D01*
X80650Y-40350D02*
X81950Y-40350D01*
X79950Y-41050D02*
X80650Y-40350D01*
X78150Y-41050D02*
X79950Y-41050D01*
X76950Y-41150D02*
X77000Y-41150D01*
X82050Y-40100D02*
X82650Y-40700D01*
X80750Y-40100D02*
X82050Y-40100D01*
X79800Y-40800D02*
X80500Y-40100D01*
X80500Y-40100D02*
X80750Y-40100D01*
X75650Y-41500D02*
X76350Y-41500D01*
X76350Y-41500D02*
X76700Y-41150D01*
X76700Y-41150D02*
X76950Y-41150D01*
X77000Y-41150D02*
X77350Y-40800D01*
X77350Y-40800D02*
X79800Y-40800D01*
X74900Y-41200D02*
X75300Y-40800D01*
X75300Y-40800D02*
X76900Y-40800D01*
X74900Y-41200D02*
X74900Y-41150D01*
X75350Y-41200D02*
X75350Y-41150D01*
X76150Y-41050D02*
X76250Y-41150D01*
X75450Y-41050D02*
X76150Y-41050D01*
X75350Y-41150D02*
X75450Y-41050D01*
X75500Y-31250D02*
X76000Y-31750D01*
X76250Y-36250D02*
X84000Y-36250D01*
X76000Y-36000D02*
X76250Y-36250D01*
X76000Y-31750D02*
X76000Y-36000D01*
X83500Y-36500D02*
X83750Y-36750D01*
X75500Y-33500D02*
X75500Y-35000D01*
X75000Y-36000D02*
X75500Y-36500D01*
X75000Y-35500D02*
X75000Y-36000D01*
X75500Y-35000D02*
X75000Y-35500D01*
X75500Y-36500D02*
X83500Y-36500D01*
X83750Y-36750D02*
X84000Y-36750D01*
X83250Y-36750D02*
X83500Y-37000D01*
X75250Y-36750D02*
X83250Y-36750D01*
X75000Y-36500D02*
X75250Y-36750D01*
X83750Y-37250D02*
X83500Y-37000D01*
X84000Y-37250D02*
X83750Y-37250D01*
X84500Y-36750D02*
X84000Y-37250D01*
X83250Y-37250D02*
X83000Y-37000D01*
X86000Y-36750D02*
X85000Y-36750D01*
X85000Y-36750D02*
X84250Y-37500D01*
X84250Y-37500D02*
X83500Y-37500D01*
X83500Y-37500D02*
X83250Y-37250D01*
X76500Y-37000D02*
X75500Y-38000D01*
X83000Y-37000D02*
X76500Y-37000D01*
X95250Y-31750D02*
X95750Y-31250D01*
X95250Y-33500D02*
X95250Y-31750D01*
X95000Y-33750D02*
X95250Y-33500D01*
X95000Y-36500D02*
X95000Y-33750D01*
X94750Y-36750D02*
X95000Y-36500D01*
X95250Y-34000D02*
X95750Y-33500D01*
X95250Y-36750D02*
X95250Y-34000D01*
X94750Y-37250D02*
X95250Y-36750D01*
X80500Y-38500D02*
X78250Y-38500D01*
X78250Y-38500D02*
X77750Y-38000D01*
X82750Y-38500D02*
X80500Y-38500D01*
X80500Y-38500D02*
X80000Y-38000D01*
X85000Y-38500D02*
X82750Y-38500D01*
X82750Y-38500D02*
X82250Y-38000D01*
X87250Y-38500D02*
X85000Y-38500D01*
X85000Y-38500D02*
X84500Y-38000D01*
X89500Y-38500D02*
X87250Y-38500D01*
X87250Y-38500D02*
X86750Y-38000D01*
X91750Y-38500D02*
X89500Y-38500D01*
X89500Y-38500D02*
X89000Y-38000D01*
X95750Y-38000D02*
X95250Y-38500D01*
X95250Y-38500D02*
X93000Y-38500D01*
X91250Y-38000D02*
X91750Y-38500D01*
X91750Y-38500D02*
X93000Y-38500D01*
X93000Y-38500D02*
X93500Y-38000D01*
X54600Y-38650D02*
X54600Y-38700D01*
X54600Y-30600D02*
X54600Y-32300D01*
X54600Y-34550D02*
X54600Y-36700D01*
X54600Y-38650D02*
X54600Y-36700D01*
X54600Y-32300D02*
X54600Y-34550D01*
X54600Y-38700D02*
X55100Y-39200D01*
X52900Y-39200D02*
X52900Y-41400D01*
X55100Y-39200D02*
X52900Y-39200D01*
X53500Y-42000D02*
X55750Y-42000D01*
X52900Y-41400D02*
X53500Y-42000D01*
X55750Y-42000D02*
X60750Y-42000D01*
X60750Y-42000D02*
X60950Y-41800D01*
X68650Y-39200D02*
X70800Y-39200D01*
X70900Y-39300D02*
X70850Y-39250D01*
X73050Y-39300D02*
X70900Y-39300D01*
X70800Y-39200D02*
X70850Y-39250D01*
X68650Y-39200D02*
X66350Y-39200D01*
X64100Y-39200D02*
X61900Y-39200D01*
X57350Y-39250D02*
X59550Y-39250D01*
X57300Y-39200D02*
X57350Y-39250D01*
X57300Y-39200D02*
X55100Y-39200D01*
X59550Y-39250D02*
X59600Y-39200D01*
X61900Y-39200D02*
X59600Y-39200D01*
X66350Y-39200D02*
X64100Y-39200D01*
X94800Y-44900D02*
X97350Y-44900D01*
X97700Y-45250D02*
X98350Y-45250D01*
X97350Y-44900D02*
X97700Y-45250D01*
X80727Y-42200D02*
X80727Y-42272D01*
X75450Y-42950D02*
X75450Y-44500D01*
X75950Y-42450D02*
X75450Y-42950D01*
X76750Y-42450D02*
X75950Y-42450D01*
X76850Y-42350D02*
X76750Y-42450D01*
X77250Y-42350D02*
X76850Y-42350D01*
X77750Y-42850D02*
X77250Y-42350D01*
X80150Y-42850D02*
X77750Y-42850D01*
X80727Y-42272D02*
X80150Y-42850D01*
X97400Y-30500D02*
X97400Y-32400D01*
X97400Y-34650D02*
X97400Y-36950D01*
X96800Y-39450D02*
X97400Y-38850D01*
X97400Y-38850D02*
X97400Y-36950D01*
X96150Y-39450D02*
X96800Y-39450D01*
X97400Y-32400D02*
X97400Y-34650D01*
X72600Y-36700D02*
X72600Y-36800D01*
X72600Y-36800D02*
X72700Y-36900D01*
X77950Y-39950D02*
X77950Y-39400D01*
X72600Y-34950D02*
X72700Y-34850D01*
X72600Y-38850D02*
X72600Y-36700D01*
X72600Y-36700D02*
X72600Y-34950D01*
X73050Y-39300D02*
X72600Y-38850D01*
X77850Y-39300D02*
X75400Y-39300D01*
X75400Y-39300D02*
X73050Y-39300D01*
X77950Y-39400D02*
X77850Y-39300D01*
X80727Y-42200D02*
X80750Y-42200D01*
X74600Y-44950D02*
X74900Y-44950D01*
X76000Y-45550D02*
X76000Y-44600D01*
X75800Y-45750D02*
X76000Y-45550D01*
X75300Y-45750D02*
X75800Y-45750D01*
X75150Y-45600D02*
X75300Y-45750D01*
X75150Y-45200D02*
X75150Y-45600D01*
X74900Y-44950D02*
X75150Y-45200D01*
X76500Y-42850D02*
X76100Y-42850D01*
X76000Y-42950D02*
X76000Y-44600D01*
X76100Y-42850D02*
X76000Y-42950D01*
X85050Y-45850D02*
X86800Y-45850D01*
X83600Y-45850D02*
X85050Y-45850D01*
X87200Y-41550D02*
X87100Y-41650D01*
X89650Y-41550D02*
X87200Y-41550D01*
X90000Y-41900D02*
X89650Y-41550D01*
X86800Y-41950D02*
X86800Y-43200D01*
X87100Y-41650D02*
X86800Y-41950D01*
X71500Y-45500D02*
X71000Y-45500D01*
X65950Y-45150D02*
X66300Y-44800D01*
X65950Y-45550D02*
X65950Y-45150D01*
X66150Y-45750D02*
X65950Y-45550D01*
X70750Y-45750D02*
X66150Y-45750D01*
X71000Y-45500D02*
X70750Y-45750D01*
X71500Y-45500D02*
X71500Y-45000D01*
X77100Y-42850D02*
X77750Y-43500D01*
X76500Y-42850D02*
X77100Y-42850D01*
X71550Y-44950D02*
X74600Y-44950D01*
X71500Y-45000D02*
X71550Y-44950D01*
X71500Y-43500D02*
X71500Y-45500D01*
X62400Y-44800D02*
X62000Y-45200D01*
X66300Y-44800D02*
X62400Y-44800D01*
X62000Y-45200D02*
X62000Y-45500D01*
X94900Y-42800D02*
X94900Y-42850D01*
X94900Y-42400D02*
X94900Y-42800D01*
X94150Y-43600D02*
X94900Y-42850D01*
X93000Y-43600D02*
X93000Y-44350D01*
X93200Y-42300D02*
X93000Y-42500D01*
X94300Y-42300D02*
X93200Y-42300D01*
X94500Y-42500D02*
X94300Y-42300D01*
X88550Y-42500D02*
X89700Y-42500D01*
X94300Y-43950D02*
X93400Y-43950D01*
X93350Y-44000D02*
X93350Y-44450D01*
X93400Y-43950D02*
X93350Y-44000D01*
X90800Y-45750D02*
X90400Y-45350D01*
X92050Y-45750D02*
X90800Y-45750D01*
X93350Y-44450D02*
X92050Y-45750D01*
X94550Y-43950D02*
X94300Y-43950D01*
X94900Y-43600D02*
X94550Y-43950D01*
X94100Y-42650D02*
X94150Y-42650D01*
X93550Y-43650D02*
X93150Y-43250D01*
X93650Y-43650D02*
X93550Y-43650D01*
X94050Y-43250D02*
X93650Y-43650D01*
X94150Y-43250D02*
X94050Y-43250D01*
X94350Y-43050D02*
X94150Y-43250D01*
X94350Y-42850D02*
X94350Y-43050D01*
X94150Y-42650D02*
X94350Y-42850D01*
X92850Y-43250D02*
X93150Y-43250D01*
X92650Y-43450D02*
X92850Y-43250D01*
X92650Y-44750D02*
X92650Y-43450D01*
X91900Y-45500D02*
X92650Y-44750D01*
X91100Y-45500D02*
X91900Y-45500D01*
X90850Y-45250D02*
X91100Y-45500D01*
X99000Y-33500D02*
X99000Y-33400D01*
X99000Y-33400D02*
X99250Y-33150D01*
X99250Y-31500D02*
X99000Y-31250D01*
X99250Y-33150D02*
X99250Y-31500D01*
X99000Y-35750D02*
X99000Y-35700D01*
X99000Y-35700D02*
X99250Y-35450D01*
X99250Y-33750D02*
X99000Y-33500D01*
X99250Y-35450D02*
X99250Y-33750D01*
X99000Y-38000D02*
X99000Y-37750D01*
X99000Y-37750D02*
X99250Y-37500D01*
X99250Y-36000D02*
X99000Y-35750D01*
X99250Y-37500D02*
X99250Y-36000D01*
X54000Y-38000D02*
X53850Y-38000D01*
X53850Y-38000D02*
X53300Y-37450D01*
X53450Y-36300D02*
X54000Y-35750D01*
X53150Y-36300D02*
X53450Y-36300D01*
X52850Y-36600D02*
X53150Y-36300D01*
X52850Y-37350D02*
X52850Y-36600D01*
X52950Y-37450D02*
X52850Y-37350D01*
X53300Y-37450D02*
X52950Y-37450D01*
X54000Y-35750D02*
X53850Y-35750D01*
X53850Y-35750D02*
X53250Y-35150D01*
X53400Y-34100D02*
X54000Y-33500D01*
X52950Y-34100D02*
X53400Y-34100D01*
X52700Y-34350D02*
X52950Y-34100D01*
X52700Y-34950D02*
X52700Y-34350D01*
X52900Y-35150D02*
X52700Y-34950D01*
X53250Y-35150D02*
X52900Y-35150D01*
X54000Y-31250D02*
X53500Y-31750D01*
X53450Y-32950D02*
X54000Y-33500D01*
X52800Y-32950D02*
X53450Y-32950D01*
X52650Y-32800D02*
X52800Y-32950D01*
X52650Y-31950D02*
X52650Y-32800D01*
X52850Y-31750D02*
X52650Y-31950D01*
X53500Y-31750D02*
X52850Y-31750D01*
X96750Y-31250D02*
X96450Y-31250D01*
X96450Y-31250D02*
X95950Y-31750D01*
X96250Y-33000D02*
X96750Y-33500D01*
X95750Y-33000D02*
X96250Y-33000D01*
X95500Y-32750D02*
X95750Y-33000D01*
X95500Y-32000D02*
X95500Y-32750D01*
X95750Y-31750D02*
X95500Y-32000D01*
X95950Y-31750D02*
X95750Y-31750D01*
X96750Y-35750D02*
X96500Y-35750D01*
X96500Y-35750D02*
X96000Y-35250D01*
X96250Y-34000D02*
X96750Y-33500D01*
X95800Y-34000D02*
X96250Y-34000D01*
X95500Y-34300D02*
X95800Y-34000D01*
X95500Y-35100D02*
X95500Y-34300D01*
X95650Y-35250D02*
X95500Y-35100D01*
X96000Y-35250D02*
X95650Y-35250D01*
X96750Y-38000D02*
X96500Y-38000D01*
X96500Y-38000D02*
X96000Y-37500D01*
X96250Y-36250D02*
X96750Y-35750D01*
X95750Y-36250D02*
X96250Y-36250D01*
X95500Y-36500D02*
X95750Y-36250D01*
X95500Y-36850D02*
X95500Y-36500D01*
X95200Y-37150D02*
X95500Y-36850D01*
X95200Y-37350D02*
X95200Y-37150D01*
X95350Y-37500D02*
X95200Y-37350D01*
X96000Y-37500D02*
X95350Y-37500D01*
X56250Y-35750D02*
X56250Y-38000D01*
X56250Y-33500D02*
X56250Y-35750D01*
X56250Y-31250D02*
X56250Y-33500D01*
X94500Y-38000D02*
X93750Y-37250D01*
X93750Y-36500D02*
X94500Y-35750D01*
X93750Y-37250D02*
X93750Y-36500D01*
X94500Y-33500D02*
X94500Y-31250D01*
X94500Y-35750D02*
X94500Y-33500D01*
X58500Y-33500D02*
X58500Y-31250D01*
X58500Y-35750D02*
X58500Y-33500D01*
X58500Y-38000D02*
X58500Y-35750D01*
X92250Y-33500D02*
X92250Y-35750D01*
X92250Y-31250D02*
X92250Y-33500D01*
X92250Y-38000D02*
X92250Y-35750D01*
X60750Y-35750D02*
X60750Y-38000D01*
X60750Y-33500D02*
X60750Y-35750D01*
X60750Y-31250D02*
X60750Y-33500D01*
X90000Y-33500D02*
X90000Y-31250D01*
X90000Y-35750D02*
X90000Y-33500D01*
X90000Y-38000D02*
X90000Y-35750D01*
X63000Y-35750D02*
X63000Y-38000D01*
X63000Y-33500D02*
X63000Y-35750D01*
X63000Y-31250D02*
X63000Y-33500D01*
X87750Y-33500D02*
X87750Y-35750D01*
X87750Y-31250D02*
X87750Y-33500D01*
X65250Y-31250D02*
X65250Y-33500D01*
X65250Y-33500D02*
X65250Y-35750D01*
X65250Y-38000D02*
X65250Y-35750D01*
X85500Y-33500D02*
X85500Y-35750D01*
X85500Y-31250D02*
X85500Y-33500D01*
X67500Y-38000D02*
X67500Y-35750D01*
X67500Y-33500D02*
X67500Y-35750D01*
X67500Y-31250D02*
X67500Y-33500D01*
X83250Y-35750D02*
X83250Y-33500D01*
X83250Y-33500D02*
X83250Y-31250D01*
X69750Y-35750D02*
X69750Y-38000D01*
X69750Y-33500D02*
X69750Y-35750D01*
X69750Y-31250D02*
X69750Y-33500D01*
X75000Y-30500D02*
X74500Y-30500D01*
X74250Y-30750D02*
X72250Y-30750D01*
X74500Y-30500D02*
X74250Y-30750D01*
X81000Y-31250D02*
X80500Y-30750D01*
X78750Y-30750D02*
X78500Y-30500D01*
X79750Y-30750D02*
X78750Y-30750D01*
X80500Y-30750D02*
X79750Y-30750D01*
X81000Y-31250D02*
X81000Y-33500D01*
X81000Y-33500D02*
X81000Y-35750D01*
X72000Y-31250D02*
X72000Y-31000D01*
X72000Y-31000D02*
X72250Y-30750D01*
X75000Y-30500D02*
X78500Y-30500D01*
X72000Y-31250D02*
X72000Y-33500D01*
X72000Y-35750D02*
X72000Y-33500D01*
X72000Y-38000D02*
X72000Y-35750D01*
X78750Y-31250D02*
X78250Y-30750D01*
X74750Y-30750D02*
X74250Y-31250D01*
X78250Y-30750D02*
X74750Y-30750D01*
X78750Y-33500D02*
X78750Y-35750D01*
X78750Y-31250D02*
X78750Y-33500D01*
X74250Y-38000D02*
X74250Y-35750D01*
X74250Y-33500D02*
X74250Y-35750D01*
X74250Y-31250D02*
X74250Y-33500D01*
X76500Y-33500D02*
X76500Y-31250D01*
X76500Y-35750D02*
X76500Y-33500D01*
G54D10*
G36*
X75700Y-32971D02*
X75612Y-32935D01*
X75388Y-32934D01*
X75180Y-33020D01*
X75021Y-33179D01*
X74935Y-33387D01*
X74934Y-33611D01*
X75020Y-33819D01*
X75179Y-33978D01*
X75200Y-33987D01*
X75200Y-34875D01*
X74787Y-35287D01*
X74722Y-35385D01*
X74716Y-35417D01*
X74570Y-35271D01*
X74550Y-35262D01*
X74550Y-33987D01*
X74569Y-33979D01*
X74728Y-33820D01*
X74814Y-33612D01*
X74815Y-33388D01*
X74729Y-33180D01*
X74570Y-33021D01*
X74550Y-33012D01*
X74550Y-31737D01*
X74569Y-31729D01*
X74728Y-31570D01*
X74814Y-31362D01*
X74815Y-31138D01*
X74806Y-31117D01*
X74874Y-31050D01*
X74971Y-31050D01*
X74935Y-31137D01*
X74934Y-31361D01*
X75020Y-31569D01*
X75179Y-31728D01*
X75387Y-31814D01*
X75611Y-31815D01*
X75632Y-31806D01*
X75700Y-31874D01*
X75700Y-32971D01*
X75700Y-32971D01*
G37*
G54D20*
X75700Y-32971D02*
X75612Y-32935D01*
X75388Y-32934D01*
X75180Y-33020D01*
X75021Y-33179D01*
X74935Y-33387D01*
X74934Y-33611D01*
X75020Y-33819D01*
X75179Y-33978D01*
X75200Y-33987D01*
X75200Y-34875D01*
X74787Y-35287D01*
X74722Y-35385D01*
X74716Y-35417D01*
X74570Y-35271D01*
X74550Y-35262D01*
X74550Y-33987D01*
X74569Y-33979D01*
X74728Y-33820D01*
X74814Y-33612D01*
X74815Y-33388D01*
X74729Y-33180D01*
X74570Y-33021D01*
X74550Y-33012D01*
X74550Y-31737D01*
X74569Y-31729D01*
X74728Y-31570D01*
X74814Y-31362D01*
X74815Y-31138D01*
X74806Y-31117D01*
X74874Y-31050D01*
X74971Y-31050D01*
X74935Y-31137D01*
X74934Y-31361D01*
X75020Y-31569D01*
X75179Y-31728D01*
X75387Y-31814D01*
X75611Y-31815D01*
X75632Y-31806D01*
X75700Y-31874D01*
X75700Y-32971D01*
G54D10*
G36*
X78450Y-35262D02*
X78430Y-35270D01*
X78271Y-35429D01*
X78250Y-35480D01*
X78229Y-35430D01*
X78070Y-35271D01*
X77862Y-35185D01*
X77638Y-35184D01*
X77430Y-35270D01*
X77271Y-35429D01*
X77185Y-35637D01*
X77184Y-35861D01*
X77221Y-35950D01*
X77028Y-35950D01*
X77064Y-35862D01*
X77065Y-35638D01*
X76979Y-35430D01*
X76820Y-35271D01*
X76800Y-35262D01*
X76800Y-33987D01*
X76819Y-33979D01*
X76978Y-33820D01*
X77064Y-33612D01*
X77065Y-33388D01*
X76979Y-33180D01*
X76820Y-33021D01*
X76800Y-33012D01*
X76800Y-31737D01*
X76819Y-31729D01*
X76978Y-31570D01*
X77064Y-31362D01*
X77065Y-31138D01*
X77028Y-31050D01*
X77221Y-31050D01*
X77185Y-31137D01*
X77184Y-31361D01*
X77270Y-31569D01*
X77429Y-31728D01*
X77637Y-31814D01*
X77861Y-31815D01*
X78069Y-31729D01*
X78228Y-31570D01*
X78249Y-31519D01*
X78270Y-31569D01*
X78429Y-31728D01*
X78450Y-31737D01*
X78450Y-33012D01*
X78430Y-33020D01*
X78271Y-33179D01*
X78250Y-33230D01*
X78229Y-33180D01*
X78070Y-33021D01*
X77862Y-32935D01*
X77638Y-32934D01*
X77430Y-33020D01*
X77271Y-33179D01*
X77185Y-33387D01*
X77184Y-33611D01*
X77270Y-33819D01*
X77429Y-33978D01*
X77637Y-34064D01*
X77861Y-34065D01*
X78069Y-33979D01*
X78228Y-33820D01*
X78249Y-33769D01*
X78270Y-33819D01*
X78429Y-33978D01*
X78450Y-33987D01*
X78450Y-35262D01*
X78450Y-35262D01*
G37*
G54D20*
X78450Y-35262D02*
X78430Y-35270D01*
X78271Y-35429D01*
X78250Y-35480D01*
X78229Y-35430D01*
X78070Y-35271D01*
X77862Y-35185D01*
X77638Y-35184D01*
X77430Y-35270D01*
X77271Y-35429D01*
X77185Y-35637D01*
X77184Y-35861D01*
X77221Y-35950D01*
X77028Y-35950D01*
X77064Y-35862D01*
X77065Y-35638D01*
X76979Y-35430D01*
X76820Y-35271D01*
X76800Y-35262D01*
X76800Y-33987D01*
X76819Y-33979D01*
X76978Y-33820D01*
X77064Y-33612D01*
X77065Y-33388D01*
X76979Y-33180D01*
X76820Y-33021D01*
X76800Y-33012D01*
X76800Y-31737D01*
X76819Y-31729D01*
X76978Y-31570D01*
X77064Y-31362D01*
X77065Y-31138D01*
X77028Y-31050D01*
X77221Y-31050D01*
X77185Y-31137D01*
X77184Y-31361D01*
X77270Y-31569D01*
X77429Y-31728D01*
X77637Y-31814D01*
X77861Y-31815D01*
X78069Y-31729D01*
X78228Y-31570D01*
X78249Y-31519D01*
X78270Y-31569D01*
X78429Y-31728D01*
X78450Y-31737D01*
X78450Y-33012D01*
X78430Y-33020D01*
X78271Y-33179D01*
X78250Y-33230D01*
X78229Y-33180D01*
X78070Y-33021D01*
X77862Y-32935D01*
X77638Y-32934D01*
X77430Y-33020D01*
X77271Y-33179D01*
X77185Y-33387D01*
X77184Y-33611D01*
X77270Y-33819D01*
X77429Y-33978D01*
X77637Y-34064D01*
X77861Y-34065D01*
X78069Y-33979D01*
X78228Y-33820D01*
X78249Y-33769D01*
X78270Y-33819D01*
X78429Y-33978D01*
X78450Y-33987D01*
X78450Y-35262D01*
G54D10*
G36*
X80395Y-44838D02*
X80372Y-44861D01*
X80314Y-44822D01*
X80281Y-44816D01*
X80281Y-44816D01*
X80226Y-44761D01*
X80079Y-44700D01*
X79920Y-44699D01*
X79773Y-44760D01*
X79661Y-44873D01*
X79600Y-45020D01*
X79599Y-45179D01*
X79660Y-45325D01*
X79600Y-45470D01*
X79599Y-45629D01*
X79660Y-45776D01*
X79773Y-45888D01*
X79920Y-45949D01*
X79975Y-45949D01*
X79987Y-45962D01*
X79987Y-45962D01*
X80015Y-45980D01*
X78068Y-45980D01*
X78090Y-45911D01*
X77750Y-45570D01*
X77409Y-45911D01*
X77431Y-45980D01*
X77096Y-45980D01*
X77245Y-45831D01*
X77253Y-45812D01*
X77338Y-45840D01*
X77679Y-45500D01*
X77673Y-45494D01*
X77744Y-45423D01*
X77750Y-45429D01*
X77755Y-45423D01*
X77826Y-45494D01*
X77820Y-45500D01*
X78161Y-45840D01*
X78259Y-45808D01*
X78339Y-45590D01*
X78328Y-45357D01*
X78304Y-45300D01*
X78500Y-45300D01*
X78500Y-45299D01*
X78614Y-45277D01*
X78614Y-45277D01*
X78712Y-45212D01*
X79374Y-44550D01*
X80358Y-44550D01*
X80350Y-44570D01*
X80349Y-44729D01*
X80395Y-44838D01*
X80395Y-44838D01*
G37*
G54D20*
X80395Y-44838D02*
X80372Y-44861D01*
X80314Y-44822D01*
X80281Y-44816D01*
X80281Y-44816D01*
X80226Y-44761D01*
X80079Y-44700D01*
X79920Y-44699D01*
X79773Y-44760D01*
X79661Y-44873D01*
X79600Y-45020D01*
X79599Y-45179D01*
X79660Y-45325D01*
X79600Y-45470D01*
X79599Y-45629D01*
X79660Y-45776D01*
X79773Y-45888D01*
X79920Y-45949D01*
X79975Y-45949D01*
X79987Y-45962D01*
X79987Y-45962D01*
X80015Y-45980D01*
X78068Y-45980D01*
X78090Y-45911D01*
X77750Y-45570D01*
X77409Y-45911D01*
X77431Y-45980D01*
X77096Y-45980D01*
X77245Y-45831D01*
X77253Y-45812D01*
X77338Y-45840D01*
X77679Y-45500D01*
X77673Y-45494D01*
X77744Y-45423D01*
X77750Y-45429D01*
X77755Y-45423D01*
X77826Y-45494D01*
X77820Y-45500D01*
X78161Y-45840D01*
X78259Y-45808D01*
X78339Y-45590D01*
X78328Y-45357D01*
X78304Y-45300D01*
X78500Y-45300D01*
X78500Y-45299D01*
X78614Y-45277D01*
X78614Y-45277D01*
X78712Y-45212D01*
X79374Y-44550D01*
X80358Y-44550D01*
X80350Y-44570D01*
X80349Y-44729D01*
X80395Y-44838D01*
G54D10*
G36*
X80700Y-35262D02*
X80680Y-35270D01*
X80521Y-35429D01*
X80500Y-35480D01*
X80479Y-35430D01*
X80320Y-35271D01*
X80112Y-35185D01*
X79888Y-35184D01*
X79680Y-35270D01*
X79521Y-35429D01*
X79435Y-35637D01*
X79434Y-35861D01*
X79471Y-35950D01*
X79278Y-35950D01*
X79314Y-35862D01*
X79315Y-35638D01*
X79229Y-35430D01*
X79070Y-35271D01*
X79050Y-35262D01*
X79050Y-33987D01*
X79069Y-33979D01*
X79228Y-33820D01*
X79314Y-33612D01*
X79315Y-33388D01*
X79229Y-33180D01*
X79070Y-33021D01*
X79050Y-33012D01*
X79050Y-31737D01*
X79069Y-31729D01*
X79228Y-31570D01*
X79314Y-31362D01*
X79315Y-31138D01*
X79278Y-31050D01*
X79471Y-31050D01*
X79435Y-31137D01*
X79434Y-31361D01*
X79520Y-31569D01*
X79679Y-31728D01*
X79887Y-31814D01*
X80111Y-31815D01*
X80319Y-31729D01*
X80478Y-31570D01*
X80499Y-31519D01*
X80520Y-31569D01*
X80679Y-31728D01*
X80700Y-31737D01*
X80700Y-33012D01*
X80680Y-33020D01*
X80521Y-33179D01*
X80500Y-33230D01*
X80479Y-33180D01*
X80320Y-33021D01*
X80112Y-32935D01*
X79888Y-32934D01*
X79680Y-33020D01*
X79521Y-33179D01*
X79435Y-33387D01*
X79434Y-33611D01*
X79520Y-33819D01*
X79679Y-33978D01*
X79887Y-34064D01*
X80111Y-34065D01*
X80319Y-33979D01*
X80478Y-33820D01*
X80499Y-33769D01*
X80520Y-33819D01*
X80679Y-33978D01*
X80700Y-33987D01*
X80700Y-35262D01*
X80700Y-35262D01*
G37*
G54D20*
X80700Y-35262D02*
X80680Y-35270D01*
X80521Y-35429D01*
X80500Y-35480D01*
X80479Y-35430D01*
X80320Y-35271D01*
X80112Y-35185D01*
X79888Y-35184D01*
X79680Y-35270D01*
X79521Y-35429D01*
X79435Y-35637D01*
X79434Y-35861D01*
X79471Y-35950D01*
X79278Y-35950D01*
X79314Y-35862D01*
X79315Y-35638D01*
X79229Y-35430D01*
X79070Y-35271D01*
X79050Y-35262D01*
X79050Y-33987D01*
X79069Y-33979D01*
X79228Y-33820D01*
X79314Y-33612D01*
X79315Y-33388D01*
X79229Y-33180D01*
X79070Y-33021D01*
X79050Y-33012D01*
X79050Y-31737D01*
X79069Y-31729D01*
X79228Y-31570D01*
X79314Y-31362D01*
X79315Y-31138D01*
X79278Y-31050D01*
X79471Y-31050D01*
X79435Y-31137D01*
X79434Y-31361D01*
X79520Y-31569D01*
X79679Y-31728D01*
X79887Y-31814D01*
X80111Y-31815D01*
X80319Y-31729D01*
X80478Y-31570D01*
X80499Y-31519D01*
X80520Y-31569D01*
X80679Y-31728D01*
X80700Y-31737D01*
X80700Y-33012D01*
X80680Y-33020D01*
X80521Y-33179D01*
X80500Y-33230D01*
X80479Y-33180D01*
X80320Y-33021D01*
X80112Y-32935D01*
X79888Y-32934D01*
X79680Y-33020D01*
X79521Y-33179D01*
X79435Y-33387D01*
X79434Y-33611D01*
X79520Y-33819D01*
X79679Y-33978D01*
X79887Y-34064D01*
X80111Y-34065D01*
X80319Y-33979D01*
X80478Y-33820D01*
X80499Y-33769D01*
X80520Y-33819D01*
X80679Y-33978D01*
X80700Y-33987D01*
X80700Y-35262D01*
G54D10*
G36*
X83525Y-38800D02*
X83225Y-39100D01*
X82750Y-39100D01*
X82635Y-39122D01*
X82537Y-39187D01*
X82425Y-39300D01*
X80400Y-39300D01*
X80285Y-39322D01*
X80246Y-39348D01*
X80187Y-39387D01*
X79575Y-40000D01*
X77374Y-40000D01*
X77362Y-39987D01*
X77264Y-39922D01*
X77150Y-39900D01*
X76650Y-39900D01*
X76535Y-39922D01*
X76437Y-39987D01*
X76425Y-40000D01*
X75050Y-40000D01*
X74935Y-40022D01*
X74837Y-40087D01*
X73475Y-41450D01*
X70974Y-41450D01*
X70962Y-41437D01*
X70864Y-41372D01*
X70750Y-41350D01*
X70400Y-41350D01*
X70315Y-41366D01*
X70315Y-37888D01*
X70229Y-37680D01*
X70070Y-37521D01*
X70050Y-37512D01*
X70050Y-36237D01*
X70069Y-36229D01*
X70228Y-36070D01*
X70314Y-35862D01*
X70315Y-35638D01*
X70229Y-35430D01*
X70070Y-35271D01*
X70050Y-35262D01*
X70050Y-33987D01*
X70069Y-33979D01*
X70228Y-33820D01*
X70314Y-33612D01*
X70315Y-33388D01*
X70229Y-33180D01*
X70070Y-33021D01*
X70050Y-33012D01*
X70050Y-31737D01*
X70069Y-31729D01*
X70228Y-31570D01*
X70314Y-31362D01*
X70315Y-31138D01*
X70229Y-30930D01*
X70070Y-30771D01*
X69862Y-30685D01*
X69638Y-30684D01*
X69430Y-30770D01*
X69271Y-30929D01*
X69250Y-30980D01*
X69229Y-30930D01*
X69070Y-30771D01*
X68862Y-30685D01*
X68638Y-30684D01*
X68430Y-30770D01*
X68271Y-30929D01*
X68185Y-31137D01*
X68184Y-31361D01*
X68270Y-31569D01*
X68429Y-31728D01*
X68637Y-31814D01*
X68861Y-31815D01*
X69069Y-31729D01*
X69228Y-31570D01*
X69249Y-31519D01*
X69270Y-31569D01*
X69429Y-31728D01*
X69450Y-31737D01*
X69450Y-33012D01*
X69430Y-33020D01*
X69271Y-33179D01*
X69250Y-33230D01*
X69229Y-33180D01*
X69070Y-33021D01*
X68862Y-32935D01*
X68638Y-32934D01*
X68430Y-33020D01*
X68271Y-33179D01*
X68185Y-33387D01*
X68184Y-33611D01*
X68270Y-33819D01*
X68429Y-33978D01*
X68637Y-34064D01*
X68861Y-34065D01*
X69069Y-33979D01*
X69228Y-33820D01*
X69249Y-33769D01*
X69270Y-33819D01*
X69429Y-33978D01*
X69450Y-33987D01*
X69450Y-35262D01*
X69430Y-35270D01*
X69271Y-35429D01*
X69250Y-35480D01*
X69229Y-35430D01*
X69070Y-35271D01*
X68862Y-35185D01*
X68638Y-35184D01*
X68430Y-35270D01*
X68271Y-35429D01*
X68185Y-35637D01*
X68184Y-35861D01*
X68270Y-36069D01*
X68429Y-36228D01*
X68637Y-36314D01*
X68861Y-36315D01*
X69069Y-36229D01*
X69228Y-36070D01*
X69249Y-36019D01*
X69270Y-36069D01*
X69429Y-36228D01*
X69450Y-36237D01*
X69450Y-37512D01*
X69430Y-37520D01*
X69271Y-37679D01*
X69250Y-37730D01*
X69229Y-37680D01*
X69070Y-37521D01*
X68862Y-37435D01*
X68638Y-37434D01*
X68430Y-37520D01*
X68271Y-37679D01*
X68185Y-37887D01*
X68184Y-38111D01*
X68270Y-38319D01*
X68429Y-38478D01*
X68637Y-38564D01*
X68861Y-38565D01*
X69069Y-38479D01*
X69228Y-38320D01*
X69249Y-38269D01*
X69270Y-38319D01*
X69429Y-38478D01*
X69637Y-38564D01*
X69861Y-38565D01*
X70069Y-38479D01*
X70228Y-38320D01*
X70314Y-38112D01*
X70315Y-37888D01*
X70315Y-41366D01*
X70285Y-41372D01*
X70246Y-41398D01*
X70187Y-41437D01*
X69937Y-41687D01*
X69872Y-41785D01*
X69850Y-41900D01*
X69850Y-41925D01*
X69662Y-41737D01*
X69564Y-41672D01*
X69450Y-41650D01*
X68500Y-41650D01*
X68350Y-41650D01*
X68229Y-41600D01*
X68070Y-41599D01*
X68065Y-41602D01*
X68065Y-37888D01*
X67979Y-37680D01*
X67820Y-37521D01*
X67800Y-37512D01*
X67800Y-36237D01*
X67819Y-36229D01*
X67978Y-36070D01*
X68064Y-35862D01*
X68065Y-35638D01*
X67979Y-35430D01*
X67820Y-35271D01*
X67800Y-35262D01*
X67800Y-33987D01*
X67819Y-33979D01*
X67978Y-33820D01*
X68064Y-33612D01*
X68065Y-33388D01*
X67979Y-33180D01*
X67820Y-33021D01*
X67800Y-33012D01*
X67800Y-31737D01*
X67819Y-31729D01*
X67978Y-31570D01*
X68064Y-31362D01*
X68065Y-31138D01*
X67979Y-30930D01*
X67820Y-30771D01*
X67612Y-30685D01*
X67388Y-30684D01*
X67180Y-30770D01*
X67021Y-30929D01*
X67000Y-30980D01*
X66979Y-30930D01*
X66820Y-30771D01*
X66612Y-30685D01*
X66388Y-30684D01*
X66180Y-30770D01*
X66021Y-30929D01*
X65935Y-31137D01*
X65934Y-31361D01*
X66020Y-31569D01*
X66179Y-31728D01*
X66387Y-31814D01*
X66611Y-31815D01*
X66819Y-31729D01*
X66978Y-31570D01*
X66999Y-31519D01*
X67020Y-31569D01*
X67179Y-31728D01*
X67200Y-31737D01*
X67200Y-33012D01*
X67180Y-33020D01*
X67021Y-33179D01*
X67000Y-33230D01*
X66979Y-33180D01*
X66820Y-33021D01*
X66612Y-32935D01*
X66388Y-32934D01*
X66180Y-33020D01*
X66021Y-33179D01*
X65935Y-33387D01*
X65934Y-33611D01*
X66020Y-33819D01*
X66179Y-33978D01*
X66387Y-34064D01*
X66611Y-34065D01*
X66819Y-33979D01*
X66978Y-33820D01*
X66999Y-33769D01*
X67020Y-33819D01*
X67179Y-33978D01*
X67200Y-33987D01*
X67200Y-35262D01*
X67180Y-35270D01*
X67021Y-35429D01*
X67000Y-35480D01*
X66979Y-35430D01*
X66820Y-35271D01*
X66612Y-35185D01*
X66388Y-35184D01*
X66180Y-35270D01*
X66021Y-35429D01*
X65935Y-35637D01*
X65934Y-35861D01*
X66020Y-36069D01*
X66179Y-36228D01*
X66387Y-36314D01*
X66611Y-36315D01*
X66819Y-36229D01*
X66978Y-36070D01*
X66999Y-36019D01*
X67020Y-36069D01*
X67179Y-36228D01*
X67200Y-36237D01*
X67200Y-37512D01*
X67180Y-37520D01*
X67021Y-37679D01*
X67000Y-37730D01*
X66979Y-37680D01*
X66820Y-37521D01*
X66612Y-37435D01*
X66388Y-37434D01*
X66180Y-37520D01*
X66021Y-37679D01*
X65935Y-37887D01*
X65934Y-38111D01*
X66020Y-38319D01*
X66179Y-38478D01*
X66387Y-38564D01*
X66611Y-38565D01*
X66819Y-38479D01*
X66978Y-38320D01*
X66999Y-38269D01*
X67020Y-38319D01*
X67179Y-38478D01*
X67387Y-38564D01*
X67611Y-38565D01*
X67819Y-38479D01*
X67978Y-38320D01*
X68064Y-38112D01*
X68065Y-37888D01*
X68065Y-41602D01*
X67923Y-41660D01*
X67829Y-41754D01*
X67812Y-41737D01*
X67714Y-41672D01*
X67600Y-41650D01*
X66150Y-41650D01*
X66035Y-41672D01*
X65937Y-41737D01*
X65925Y-41749D01*
X65870Y-41749D01*
X65815Y-41772D01*
X65815Y-37888D01*
X65729Y-37680D01*
X65570Y-37521D01*
X65550Y-37512D01*
X65550Y-36237D01*
X65569Y-36229D01*
X65728Y-36070D01*
X65814Y-35862D01*
X65815Y-35638D01*
X65729Y-35430D01*
X65570Y-35271D01*
X65550Y-35262D01*
X65550Y-33987D01*
X65569Y-33979D01*
X65728Y-33820D01*
X65814Y-33612D01*
X65815Y-33388D01*
X65729Y-33180D01*
X65570Y-33021D01*
X65550Y-33012D01*
X65550Y-31737D01*
X65569Y-31729D01*
X65728Y-31570D01*
X65814Y-31362D01*
X65815Y-31138D01*
X65729Y-30930D01*
X65570Y-30771D01*
X65362Y-30685D01*
X65138Y-30684D01*
X64930Y-30770D01*
X64771Y-30929D01*
X64750Y-30980D01*
X64729Y-30930D01*
X64570Y-30771D01*
X64362Y-30685D01*
X64138Y-30684D01*
X63930Y-30770D01*
X63771Y-30929D01*
X63685Y-31137D01*
X63684Y-31361D01*
X63770Y-31569D01*
X63929Y-31728D01*
X64137Y-31814D01*
X64361Y-31815D01*
X64569Y-31729D01*
X64728Y-31570D01*
X64749Y-31519D01*
X64770Y-31569D01*
X64929Y-31728D01*
X64950Y-31737D01*
X64950Y-33012D01*
X64930Y-33020D01*
X64771Y-33179D01*
X64750Y-33230D01*
X64729Y-33180D01*
X64570Y-33021D01*
X64362Y-32935D01*
X64138Y-32934D01*
X63930Y-33020D01*
X63771Y-33179D01*
X63685Y-33387D01*
X63684Y-33611D01*
X63770Y-33819D01*
X63929Y-33978D01*
X64137Y-34064D01*
X64361Y-34065D01*
X64569Y-33979D01*
X64728Y-33820D01*
X64749Y-33769D01*
X64770Y-33819D01*
X64929Y-33978D01*
X64950Y-33987D01*
X64950Y-35262D01*
X64930Y-35270D01*
X64771Y-35429D01*
X64750Y-35480D01*
X64729Y-35430D01*
X64570Y-35271D01*
X64362Y-35185D01*
X64138Y-35184D01*
X63930Y-35270D01*
X63771Y-35429D01*
X63685Y-35637D01*
X63684Y-35861D01*
X63770Y-36069D01*
X63929Y-36228D01*
X64137Y-36314D01*
X64361Y-36315D01*
X64569Y-36229D01*
X64728Y-36070D01*
X64749Y-36019D01*
X64770Y-36069D01*
X64929Y-36228D01*
X64950Y-36237D01*
X64950Y-37512D01*
X64930Y-37520D01*
X64771Y-37679D01*
X64750Y-37730D01*
X64729Y-37680D01*
X64570Y-37521D01*
X64362Y-37435D01*
X64138Y-37434D01*
X63930Y-37520D01*
X63771Y-37679D01*
X63685Y-37887D01*
X63684Y-38111D01*
X63770Y-38319D01*
X63929Y-38478D01*
X64137Y-38564D01*
X64361Y-38565D01*
X64569Y-38479D01*
X64728Y-38320D01*
X64749Y-38269D01*
X64770Y-38319D01*
X64929Y-38478D01*
X65137Y-38564D01*
X65361Y-38565D01*
X65569Y-38479D01*
X65728Y-38320D01*
X65814Y-38112D01*
X65815Y-37888D01*
X65815Y-41772D01*
X65723Y-41810D01*
X65611Y-41923D01*
X65550Y-42070D01*
X65549Y-42229D01*
X65610Y-42376D01*
X65723Y-42488D01*
X65870Y-42549D01*
X66029Y-42550D01*
X66176Y-42489D01*
X66288Y-42376D01*
X66341Y-42250D01*
X67475Y-42250D01*
X67787Y-42562D01*
X67885Y-42627D01*
X67885Y-42627D01*
X68000Y-42650D01*
X68250Y-42650D01*
X68250Y-42649D01*
X68364Y-42627D01*
X68364Y-42627D01*
X68462Y-42562D01*
X68524Y-42500D01*
X69275Y-42500D01*
X69787Y-43012D01*
X69787Y-43012D01*
X69885Y-43077D01*
X70000Y-43100D01*
X70550Y-43100D01*
X70550Y-43099D01*
X70664Y-43077D01*
X70664Y-43077D01*
X70762Y-43012D01*
X70974Y-42800D01*
X73750Y-42800D01*
X73750Y-42799D01*
X73864Y-42777D01*
X73864Y-42777D01*
X73962Y-42712D01*
X74574Y-42100D01*
X75025Y-42100D01*
X75237Y-42312D01*
X75296Y-42351D01*
X75335Y-42377D01*
X75335Y-42377D01*
X75450Y-42400D01*
X76350Y-42400D01*
X76350Y-42399D01*
X76464Y-42377D01*
X76464Y-42377D01*
X76562Y-42312D01*
X76924Y-41950D01*
X76925Y-41950D01*
X77137Y-42162D01*
X77196Y-42201D01*
X77235Y-42227D01*
X77235Y-42227D01*
X77350Y-42250D01*
X77425Y-42250D01*
X77787Y-42612D01*
X77885Y-42677D01*
X78000Y-42700D01*
X78300Y-42700D01*
X78300Y-42699D01*
X78414Y-42677D01*
X78414Y-42677D01*
X78512Y-42612D01*
X78774Y-42350D01*
X80150Y-42350D01*
X80150Y-42349D01*
X80264Y-42327D01*
X80264Y-42327D01*
X80362Y-42262D01*
X80950Y-41674D01*
X81037Y-41762D01*
X81037Y-41762D01*
X81135Y-41827D01*
X81250Y-41850D01*
X81449Y-41850D01*
X81460Y-41876D01*
X81573Y-41988D01*
X81720Y-42049D01*
X81879Y-42050D01*
X82026Y-41989D01*
X82138Y-41876D01*
X82172Y-41796D01*
X82350Y-41974D01*
X82350Y-42125D01*
X81425Y-43050D01*
X81250Y-43050D01*
X81129Y-43000D01*
X80970Y-42999D01*
X80823Y-43060D01*
X80711Y-43173D01*
X80650Y-43320D01*
X80649Y-43450D01*
X78950Y-43450D01*
X78835Y-43472D01*
X78737Y-43537D01*
X78575Y-43699D01*
X78520Y-43699D01*
X78373Y-43760D01*
X78279Y-43854D01*
X78248Y-43824D01*
X78334Y-43616D01*
X78334Y-43384D01*
X78245Y-43169D01*
X78081Y-43004D01*
X77866Y-42915D01*
X77634Y-42915D01*
X77602Y-42928D01*
X77312Y-42637D01*
X77214Y-42572D01*
X77100Y-42550D01*
X76500Y-42550D01*
X76100Y-42550D01*
X75985Y-42572D01*
X75887Y-42637D01*
X75787Y-42737D01*
X75722Y-42835D01*
X75700Y-42950D01*
X75700Y-44600D01*
X75700Y-45425D01*
X75675Y-45450D01*
X75450Y-45450D01*
X75450Y-45200D01*
X75427Y-45085D01*
X75427Y-45085D01*
X75401Y-45046D01*
X75362Y-44987D01*
X75112Y-44737D01*
X75014Y-44672D01*
X74900Y-44650D01*
X74600Y-44650D01*
X71800Y-44650D01*
X71800Y-44104D01*
X71904Y-44104D01*
X71995Y-44066D01*
X72066Y-43995D01*
X72088Y-43942D01*
X72157Y-44012D01*
X72379Y-44104D01*
X72619Y-44104D01*
X72841Y-44012D01*
X73000Y-43854D01*
X73157Y-44012D01*
X73379Y-44104D01*
X73619Y-44104D01*
X73841Y-44012D01*
X74000Y-43854D01*
X74157Y-44012D01*
X74379Y-44104D01*
X74619Y-44104D01*
X74841Y-44012D01*
X75012Y-43842D01*
X75104Y-43620D01*
X75104Y-43380D01*
X75012Y-43158D01*
X74842Y-42987D01*
X74620Y-42895D01*
X74380Y-42895D01*
X74158Y-42987D01*
X73999Y-43145D01*
X73842Y-42987D01*
X73620Y-42895D01*
X73380Y-42895D01*
X73158Y-42987D01*
X72999Y-43145D01*
X72842Y-42987D01*
X72620Y-42895D01*
X72380Y-42895D01*
X72158Y-42987D01*
X72088Y-43057D01*
X72066Y-43004D01*
X71995Y-42933D01*
X71904Y-42895D01*
X71804Y-42895D01*
X71095Y-42895D01*
X71004Y-42933D01*
X70933Y-43004D01*
X70895Y-43095D01*
X70895Y-43195D01*
X70895Y-43904D01*
X70933Y-43995D01*
X71004Y-44066D01*
X71095Y-44104D01*
X71195Y-44104D01*
X71200Y-44104D01*
X71200Y-44895D01*
X71095Y-44895D01*
X71004Y-44933D01*
X70933Y-45004D01*
X70895Y-45095D01*
X70895Y-45195D01*
X70895Y-45220D01*
X70885Y-45222D01*
X70846Y-45248D01*
X70787Y-45287D01*
X70625Y-45450D01*
X66274Y-45450D01*
X66250Y-45425D01*
X66250Y-45274D01*
X66324Y-45200D01*
X66379Y-45200D01*
X66526Y-45139D01*
X66638Y-45026D01*
X66699Y-44879D01*
X66700Y-44720D01*
X66639Y-44573D01*
X66526Y-44461D01*
X66379Y-44400D01*
X66220Y-44399D01*
X66073Y-44460D01*
X66034Y-44500D01*
X65604Y-44500D01*
X65604Y-43380D01*
X65512Y-43158D01*
X65342Y-42987D01*
X65120Y-42895D01*
X64880Y-42895D01*
X64658Y-42987D01*
X64499Y-43145D01*
X64342Y-42987D01*
X64120Y-42895D01*
X63880Y-42895D01*
X63658Y-42987D01*
X63565Y-43080D01*
X63565Y-37888D01*
X63479Y-37680D01*
X63320Y-37521D01*
X63300Y-37512D01*
X63300Y-36237D01*
X63319Y-36229D01*
X63478Y-36070D01*
X63564Y-35862D01*
X63565Y-35638D01*
X63479Y-35430D01*
X63320Y-35271D01*
X63300Y-35262D01*
X63300Y-33987D01*
X63319Y-33979D01*
X63478Y-33820D01*
X63564Y-33612D01*
X63565Y-33388D01*
X63479Y-33180D01*
X63320Y-33021D01*
X63300Y-33012D01*
X63300Y-31737D01*
X63319Y-31729D01*
X63478Y-31570D01*
X63564Y-31362D01*
X63565Y-31138D01*
X63479Y-30930D01*
X63320Y-30771D01*
X63112Y-30685D01*
X62888Y-30684D01*
X62680Y-30770D01*
X62521Y-30929D01*
X62500Y-30980D01*
X62479Y-30930D01*
X62320Y-30771D01*
X62112Y-30685D01*
X61888Y-30684D01*
X61680Y-30770D01*
X61521Y-30929D01*
X61435Y-31137D01*
X61434Y-31361D01*
X61520Y-31569D01*
X61679Y-31728D01*
X61887Y-31814D01*
X62111Y-31815D01*
X62319Y-31729D01*
X62478Y-31570D01*
X62499Y-31519D01*
X62520Y-31569D01*
X62679Y-31728D01*
X62700Y-31737D01*
X62700Y-33012D01*
X62680Y-33020D01*
X62521Y-33179D01*
X62500Y-33230D01*
X62479Y-33180D01*
X62320Y-33021D01*
X62112Y-32935D01*
X61888Y-32934D01*
X61680Y-33020D01*
X61521Y-33179D01*
X61435Y-33387D01*
X61434Y-33611D01*
X61520Y-33819D01*
X61679Y-33978D01*
X61887Y-34064D01*
X62111Y-34065D01*
X62319Y-33979D01*
X62478Y-33820D01*
X62499Y-33769D01*
X62520Y-33819D01*
X62679Y-33978D01*
X62700Y-33987D01*
X62700Y-35262D01*
X62680Y-35270D01*
X62521Y-35429D01*
X62500Y-35480D01*
X62479Y-35430D01*
X62320Y-35271D01*
X62112Y-35185D01*
X61888Y-35184D01*
X61680Y-35270D01*
X61521Y-35429D01*
X61435Y-35637D01*
X61434Y-35861D01*
X61520Y-36069D01*
X61679Y-36228D01*
X61887Y-36314D01*
X62111Y-36315D01*
X62319Y-36229D01*
X62478Y-36070D01*
X62499Y-36019D01*
X62520Y-36069D01*
X62679Y-36228D01*
X62700Y-36237D01*
X62700Y-37512D01*
X62680Y-37520D01*
X62521Y-37679D01*
X62500Y-37730D01*
X62479Y-37680D01*
X62320Y-37521D01*
X62112Y-37435D01*
X61888Y-37434D01*
X61680Y-37520D01*
X61521Y-37679D01*
X61435Y-37887D01*
X61434Y-38111D01*
X61520Y-38319D01*
X61679Y-38478D01*
X61887Y-38564D01*
X62111Y-38565D01*
X62319Y-38479D01*
X62478Y-38320D01*
X62499Y-38269D01*
X62520Y-38319D01*
X62679Y-38478D01*
X62887Y-38564D01*
X63111Y-38565D01*
X63319Y-38479D01*
X63478Y-38320D01*
X63564Y-38112D01*
X63565Y-37888D01*
X63565Y-43080D01*
X63499Y-43145D01*
X63342Y-42987D01*
X63120Y-42895D01*
X62880Y-42895D01*
X62658Y-42987D01*
X62588Y-43057D01*
X62566Y-43004D01*
X62495Y-42933D01*
X62404Y-42895D01*
X62304Y-42895D01*
X62050Y-42895D01*
X62050Y-41320D01*
X61989Y-41173D01*
X61876Y-41061D01*
X61729Y-41000D01*
X61674Y-41000D01*
X61612Y-40937D01*
X61514Y-40872D01*
X61400Y-40850D01*
X61315Y-40850D01*
X61315Y-37888D01*
X61229Y-37680D01*
X61070Y-37521D01*
X61050Y-37512D01*
X61050Y-36237D01*
X61069Y-36229D01*
X61228Y-36070D01*
X61314Y-35862D01*
X61315Y-35638D01*
X61229Y-35430D01*
X61070Y-35271D01*
X61050Y-35262D01*
X61050Y-33987D01*
X61069Y-33979D01*
X61228Y-33820D01*
X61314Y-33612D01*
X61315Y-33388D01*
X61229Y-33180D01*
X61070Y-33021D01*
X61050Y-33012D01*
X61050Y-31737D01*
X61069Y-31729D01*
X61228Y-31570D01*
X61314Y-31362D01*
X61315Y-31138D01*
X61229Y-30930D01*
X61070Y-30771D01*
X60862Y-30685D01*
X60638Y-30684D01*
X60430Y-30770D01*
X60271Y-30929D01*
X60250Y-30980D01*
X60229Y-30930D01*
X60070Y-30771D01*
X59862Y-30685D01*
X59638Y-30684D01*
X59430Y-30770D01*
X59271Y-30929D01*
X59185Y-31137D01*
X59184Y-31361D01*
X59270Y-31569D01*
X59429Y-31728D01*
X59637Y-31814D01*
X59861Y-31815D01*
X60069Y-31729D01*
X60228Y-31570D01*
X60249Y-31519D01*
X60270Y-31569D01*
X60429Y-31728D01*
X60450Y-31737D01*
X60450Y-33012D01*
X60430Y-33020D01*
X60271Y-33179D01*
X60250Y-33230D01*
X60229Y-33180D01*
X60070Y-33021D01*
X59862Y-32935D01*
X59638Y-32934D01*
X59430Y-33020D01*
X59271Y-33179D01*
X59185Y-33387D01*
X59184Y-33611D01*
X59270Y-33819D01*
X59429Y-33978D01*
X59637Y-34064D01*
X59861Y-34065D01*
X60069Y-33979D01*
X60228Y-33820D01*
X60249Y-33769D01*
X60270Y-33819D01*
X60429Y-33978D01*
X60450Y-33987D01*
X60450Y-35262D01*
X60430Y-35270D01*
X60271Y-35429D01*
X60250Y-35480D01*
X60229Y-35430D01*
X60070Y-35271D01*
X59862Y-35185D01*
X59638Y-35184D01*
X59430Y-35270D01*
X59271Y-35429D01*
X59185Y-35637D01*
X59184Y-35861D01*
X59270Y-36069D01*
X59429Y-36228D01*
X59637Y-36314D01*
X59861Y-36315D01*
X60069Y-36229D01*
X60228Y-36070D01*
X60249Y-36019D01*
X60270Y-36069D01*
X60429Y-36228D01*
X60450Y-36237D01*
X60450Y-37512D01*
X60430Y-37520D01*
X60271Y-37679D01*
X60250Y-37730D01*
X60229Y-37680D01*
X60070Y-37521D01*
X59862Y-37435D01*
X59638Y-37434D01*
X59430Y-37520D01*
X59271Y-37679D01*
X59185Y-37887D01*
X59184Y-38111D01*
X59270Y-38319D01*
X59429Y-38478D01*
X59637Y-38564D01*
X59861Y-38565D01*
X60069Y-38479D01*
X60228Y-38320D01*
X60249Y-38269D01*
X60270Y-38319D01*
X60429Y-38478D01*
X60637Y-38564D01*
X60861Y-38565D01*
X61069Y-38479D01*
X61228Y-38320D01*
X61314Y-38112D01*
X61315Y-37888D01*
X61315Y-40850D01*
X59850Y-40850D01*
X59735Y-40872D01*
X59637Y-40937D01*
X59525Y-41050D01*
X59065Y-41050D01*
X59065Y-37888D01*
X58979Y-37680D01*
X58820Y-37521D01*
X58800Y-37512D01*
X58800Y-36237D01*
X58819Y-36229D01*
X58978Y-36070D01*
X59064Y-35862D01*
X59065Y-35638D01*
X58979Y-35430D01*
X58820Y-35271D01*
X58800Y-35262D01*
X58800Y-33987D01*
X58819Y-33979D01*
X58978Y-33820D01*
X59064Y-33612D01*
X59065Y-33388D01*
X58979Y-33180D01*
X58820Y-33021D01*
X58800Y-33012D01*
X58800Y-31737D01*
X58819Y-31729D01*
X58978Y-31570D01*
X59064Y-31362D01*
X59065Y-31138D01*
X58979Y-30930D01*
X58820Y-30771D01*
X58612Y-30685D01*
X58388Y-30684D01*
X58180Y-30770D01*
X58021Y-30929D01*
X58000Y-30980D01*
X57979Y-30930D01*
X57820Y-30771D01*
X57612Y-30685D01*
X57388Y-30684D01*
X57180Y-30770D01*
X57021Y-30929D01*
X56935Y-31137D01*
X56934Y-31361D01*
X57020Y-31569D01*
X57179Y-31728D01*
X57387Y-31814D01*
X57611Y-31815D01*
X57819Y-31729D01*
X57978Y-31570D01*
X57999Y-31519D01*
X58020Y-31569D01*
X58179Y-31728D01*
X58200Y-31737D01*
X58200Y-33012D01*
X58180Y-33020D01*
X58021Y-33179D01*
X58000Y-33230D01*
X57979Y-33180D01*
X57820Y-33021D01*
X57612Y-32935D01*
X57388Y-32934D01*
X57180Y-33020D01*
X57021Y-33179D01*
X56935Y-33387D01*
X56934Y-33611D01*
X57020Y-33819D01*
X57179Y-33978D01*
X57387Y-34064D01*
X57611Y-34065D01*
X57819Y-33979D01*
X57978Y-33820D01*
X57999Y-33769D01*
X58020Y-33819D01*
X58179Y-33978D01*
X58200Y-33987D01*
X58200Y-35262D01*
X58180Y-35270D01*
X58021Y-35429D01*
X58000Y-35480D01*
X57979Y-35430D01*
X57820Y-35271D01*
X57612Y-35185D01*
X57388Y-35184D01*
X57180Y-35270D01*
X57021Y-35429D01*
X56935Y-35637D01*
X56934Y-35861D01*
X57020Y-36069D01*
X57179Y-36228D01*
X57387Y-36314D01*
X57611Y-36315D01*
X57819Y-36229D01*
X57978Y-36070D01*
X57999Y-36019D01*
X58020Y-36069D01*
X58179Y-36228D01*
X58200Y-36237D01*
X58200Y-37512D01*
X58180Y-37520D01*
X58021Y-37679D01*
X58000Y-37730D01*
X57979Y-37680D01*
X57820Y-37521D01*
X57612Y-37435D01*
X57388Y-37434D01*
X57180Y-37520D01*
X57021Y-37679D01*
X56935Y-37887D01*
X56934Y-38111D01*
X57020Y-38319D01*
X57179Y-38478D01*
X57387Y-38564D01*
X57611Y-38565D01*
X57819Y-38479D01*
X57978Y-38320D01*
X57999Y-38269D01*
X58020Y-38319D01*
X58179Y-38478D01*
X58387Y-38564D01*
X58611Y-38565D01*
X58819Y-38479D01*
X58978Y-38320D01*
X59064Y-38112D01*
X59065Y-37888D01*
X59065Y-41050D01*
X56815Y-41050D01*
X56815Y-37888D01*
X56729Y-37680D01*
X56570Y-37521D01*
X56550Y-37512D01*
X56550Y-36237D01*
X56569Y-36229D01*
X56728Y-36070D01*
X56814Y-35862D01*
X56815Y-35638D01*
X56729Y-35430D01*
X56570Y-35271D01*
X56550Y-35262D01*
X56550Y-33987D01*
X56569Y-33979D01*
X56728Y-33820D01*
X56814Y-33612D01*
X56815Y-33388D01*
X56729Y-33180D01*
X56570Y-33021D01*
X56550Y-33012D01*
X56550Y-31737D01*
X56569Y-31729D01*
X56728Y-31570D01*
X56814Y-31362D01*
X56815Y-31138D01*
X56729Y-30930D01*
X56570Y-30771D01*
X56362Y-30685D01*
X56138Y-30684D01*
X55930Y-30770D01*
X55771Y-30929D01*
X55750Y-30980D01*
X55729Y-30930D01*
X55570Y-30771D01*
X55362Y-30685D01*
X55138Y-30684D01*
X54930Y-30770D01*
X54771Y-30929D01*
X54685Y-31137D01*
X54684Y-31361D01*
X54770Y-31569D01*
X54929Y-31728D01*
X55137Y-31814D01*
X55361Y-31815D01*
X55569Y-31729D01*
X55728Y-31570D01*
X55749Y-31519D01*
X55770Y-31569D01*
X55929Y-31728D01*
X55950Y-31737D01*
X55950Y-33012D01*
X55930Y-33020D01*
X55771Y-33179D01*
X55750Y-33230D01*
X55729Y-33180D01*
X55570Y-33021D01*
X55362Y-32935D01*
X55138Y-32934D01*
X54930Y-33020D01*
X54771Y-33179D01*
X54685Y-33387D01*
X54684Y-33611D01*
X54770Y-33819D01*
X54929Y-33978D01*
X55137Y-34064D01*
X55361Y-34065D01*
X55569Y-33979D01*
X55728Y-33820D01*
X55749Y-33769D01*
X55770Y-33819D01*
X55929Y-33978D01*
X55950Y-33987D01*
X55950Y-35262D01*
X55930Y-35270D01*
X55771Y-35429D01*
X55750Y-35480D01*
X55729Y-35430D01*
X55570Y-35271D01*
X55362Y-35185D01*
X55138Y-35184D01*
X54930Y-35270D01*
X54771Y-35429D01*
X54685Y-35637D01*
X54684Y-35861D01*
X54770Y-36069D01*
X54929Y-36228D01*
X55137Y-36314D01*
X55361Y-36315D01*
X55569Y-36229D01*
X55728Y-36070D01*
X55749Y-36019D01*
X55770Y-36069D01*
X55929Y-36228D01*
X55950Y-36237D01*
X55950Y-37512D01*
X55930Y-37520D01*
X55771Y-37679D01*
X55750Y-37730D01*
X55729Y-37680D01*
X55570Y-37521D01*
X55362Y-37435D01*
X55138Y-37434D01*
X54930Y-37520D01*
X54771Y-37679D01*
X54685Y-37887D01*
X54684Y-38111D01*
X54770Y-38319D01*
X54929Y-38478D01*
X55137Y-38564D01*
X55361Y-38565D01*
X55569Y-38479D01*
X55728Y-38320D01*
X55749Y-38269D01*
X55770Y-38319D01*
X55929Y-38478D01*
X56137Y-38564D01*
X56361Y-38565D01*
X56569Y-38479D01*
X56728Y-38320D01*
X56814Y-38112D01*
X56815Y-37888D01*
X56815Y-41050D01*
X55791Y-41050D01*
X55739Y-40923D01*
X55626Y-40811D01*
X55479Y-40750D01*
X55320Y-40749D01*
X55173Y-40810D01*
X55061Y-40923D01*
X55000Y-41070D01*
X54999Y-41229D01*
X55060Y-41375D01*
X55000Y-41520D01*
X54999Y-41679D01*
X55060Y-41826D01*
X55173Y-41938D01*
X55320Y-41999D01*
X55479Y-42000D01*
X55626Y-41939D01*
X55665Y-41900D01*
X59700Y-41900D01*
X59700Y-41899D01*
X59814Y-41877D01*
X59814Y-41877D01*
X59912Y-41812D01*
X60024Y-41700D01*
X60925Y-41700D01*
X61049Y-41824D01*
X61049Y-41879D01*
X61110Y-42026D01*
X61223Y-42138D01*
X61370Y-42199D01*
X61529Y-42200D01*
X61676Y-42139D01*
X61788Y-42026D01*
X61849Y-41879D01*
X61850Y-41750D01*
X61876Y-41739D01*
X61988Y-41626D01*
X62049Y-41479D01*
X62050Y-41320D01*
X62050Y-42895D01*
X61595Y-42895D01*
X61504Y-42933D01*
X61433Y-43004D01*
X61395Y-43095D01*
X61395Y-43195D01*
X61395Y-43904D01*
X61433Y-43995D01*
X61504Y-44066D01*
X61595Y-44104D01*
X61695Y-44104D01*
X62404Y-44104D01*
X62495Y-44066D01*
X62566Y-43995D01*
X62588Y-43942D01*
X62657Y-44012D01*
X62879Y-44104D01*
X63119Y-44104D01*
X63341Y-44012D01*
X63500Y-43854D01*
X63657Y-44012D01*
X63879Y-44104D01*
X64119Y-44104D01*
X64341Y-44012D01*
X64500Y-43854D01*
X64657Y-44012D01*
X64879Y-44104D01*
X65119Y-44104D01*
X65341Y-44012D01*
X65512Y-43842D01*
X65604Y-43620D01*
X65604Y-43380D01*
X65604Y-44500D01*
X62400Y-44500D01*
X62285Y-44522D01*
X62187Y-44587D01*
X61880Y-44895D01*
X61595Y-44895D01*
X61504Y-44933D01*
X61433Y-45004D01*
X61395Y-45095D01*
X61395Y-45195D01*
X61395Y-45904D01*
X61427Y-45980D01*
X54187Y-45980D01*
X54187Y-45363D01*
X54183Y-45238D01*
X54183Y-43732D01*
X54183Y-43633D01*
X54183Y-42767D01*
X54145Y-42675D01*
X54074Y-42604D01*
X53982Y-42566D01*
X53883Y-42566D01*
X53017Y-42566D01*
X52925Y-42604D01*
X52854Y-42675D01*
X52816Y-42767D01*
X52816Y-42866D01*
X52816Y-43732D01*
X52854Y-43824D01*
X52925Y-43895D01*
X53017Y-43933D01*
X53116Y-43933D01*
X53982Y-43933D01*
X54074Y-43895D01*
X54145Y-43824D01*
X54183Y-43732D01*
X54183Y-45238D01*
X54178Y-45091D01*
X54091Y-44882D01*
X53982Y-44838D01*
X53911Y-44909D01*
X53911Y-44767D01*
X53867Y-44658D01*
X53613Y-44562D01*
X53341Y-44571D01*
X53132Y-44658D01*
X53088Y-44767D01*
X53500Y-45179D01*
X53911Y-44767D01*
X53911Y-44909D01*
X53570Y-45250D01*
X53982Y-45661D01*
X54091Y-45617D01*
X54187Y-45363D01*
X54187Y-45980D01*
X53911Y-45980D01*
X53911Y-45732D01*
X53500Y-45320D01*
X53429Y-45391D01*
X53429Y-45250D01*
X53017Y-44838D01*
X52908Y-44882D01*
X52812Y-45136D01*
X52821Y-45408D01*
X52908Y-45617D01*
X53017Y-45661D01*
X53429Y-45250D01*
X53429Y-45391D01*
X53088Y-45732D01*
X53132Y-45841D01*
X53386Y-45937D01*
X53658Y-45928D01*
X53867Y-45841D01*
X53911Y-45732D01*
X53911Y-45980D01*
X52519Y-45980D01*
X52519Y-38316D01*
X52520Y-38319D01*
X52679Y-38478D01*
X52887Y-38564D01*
X53111Y-38565D01*
X53319Y-38479D01*
X53478Y-38320D01*
X53499Y-38269D01*
X53520Y-38319D01*
X53679Y-38478D01*
X53887Y-38564D01*
X54111Y-38565D01*
X54319Y-38479D01*
X54478Y-38320D01*
X54564Y-38112D01*
X54565Y-37888D01*
X54479Y-37680D01*
X54320Y-37521D01*
X54112Y-37435D01*
X53888Y-37434D01*
X53761Y-37487D01*
X53512Y-37237D01*
X53414Y-37172D01*
X53300Y-37150D01*
X53150Y-37150D01*
X53150Y-36724D01*
X53274Y-36600D01*
X53450Y-36600D01*
X53450Y-36599D01*
X53564Y-36577D01*
X53564Y-36577D01*
X53662Y-36512D01*
X53867Y-36306D01*
X53887Y-36314D01*
X54111Y-36315D01*
X54319Y-36229D01*
X54478Y-36070D01*
X54564Y-35862D01*
X54565Y-35638D01*
X54479Y-35430D01*
X54320Y-35271D01*
X54112Y-35185D01*
X53888Y-35184D01*
X53761Y-35237D01*
X53462Y-34937D01*
X53364Y-34872D01*
X53250Y-34850D01*
X53024Y-34850D01*
X53000Y-34825D01*
X53000Y-34474D01*
X53074Y-34400D01*
X53400Y-34400D01*
X53400Y-34399D01*
X53514Y-34377D01*
X53514Y-34377D01*
X53612Y-34312D01*
X53867Y-34056D01*
X53887Y-34064D01*
X54111Y-34065D01*
X54319Y-33979D01*
X54478Y-33820D01*
X54564Y-33612D01*
X54565Y-33388D01*
X54479Y-33180D01*
X54320Y-33021D01*
X54112Y-32935D01*
X53888Y-32934D01*
X53867Y-32943D01*
X53662Y-32737D01*
X53564Y-32672D01*
X53450Y-32650D01*
X52950Y-32650D01*
X52950Y-32074D01*
X52974Y-32050D01*
X53500Y-32050D01*
X53500Y-32049D01*
X53614Y-32027D01*
X53614Y-32027D01*
X53712Y-31962D01*
X53867Y-31806D01*
X53887Y-31814D01*
X54111Y-31815D01*
X54319Y-31729D01*
X54478Y-31570D01*
X54564Y-31362D01*
X54565Y-31138D01*
X54479Y-30930D01*
X54320Y-30771D01*
X54112Y-30685D01*
X53888Y-30684D01*
X53680Y-30770D01*
X53521Y-30929D01*
X53500Y-30980D01*
X53479Y-30930D01*
X53320Y-30771D01*
X53112Y-30685D01*
X52888Y-30684D01*
X52680Y-30770D01*
X52521Y-30929D01*
X52519Y-30933D01*
X52519Y-30269D01*
X74315Y-30269D01*
X74287Y-30287D01*
X74125Y-30450D01*
X72250Y-30450D01*
X72135Y-30472D01*
X72096Y-30498D01*
X72037Y-30537D01*
X71890Y-30684D01*
X71888Y-30684D01*
X71680Y-30770D01*
X71521Y-30929D01*
X71500Y-30980D01*
X71479Y-30930D01*
X71320Y-30771D01*
X71112Y-30685D01*
X70888Y-30684D01*
X70680Y-30770D01*
X70521Y-30929D01*
X70435Y-31137D01*
X70434Y-31361D01*
X70520Y-31569D01*
X70679Y-31728D01*
X70887Y-31814D01*
X71111Y-31815D01*
X71319Y-31729D01*
X71478Y-31570D01*
X71499Y-31519D01*
X71520Y-31569D01*
X71679Y-31728D01*
X71700Y-31737D01*
X71700Y-33012D01*
X71680Y-33020D01*
X71521Y-33179D01*
X71500Y-33230D01*
X71479Y-33180D01*
X71320Y-33021D01*
X71112Y-32935D01*
X70888Y-32934D01*
X70680Y-33020D01*
X70521Y-33179D01*
X70435Y-33387D01*
X70434Y-33611D01*
X70520Y-33819D01*
X70679Y-33978D01*
X70887Y-34064D01*
X71111Y-34065D01*
X71319Y-33979D01*
X71478Y-33820D01*
X71499Y-33769D01*
X71520Y-33819D01*
X71679Y-33978D01*
X71700Y-33987D01*
X71700Y-35262D01*
X71680Y-35270D01*
X71521Y-35429D01*
X71500Y-35480D01*
X71479Y-35430D01*
X71320Y-35271D01*
X71112Y-35185D01*
X70888Y-35184D01*
X70680Y-35270D01*
X70521Y-35429D01*
X70435Y-35637D01*
X70434Y-35861D01*
X70520Y-36069D01*
X70679Y-36228D01*
X70887Y-36314D01*
X71111Y-36315D01*
X71319Y-36229D01*
X71478Y-36070D01*
X71499Y-36019D01*
X71520Y-36069D01*
X71679Y-36228D01*
X71700Y-36237D01*
X71700Y-37512D01*
X71680Y-37520D01*
X71521Y-37679D01*
X71500Y-37730D01*
X71479Y-37680D01*
X71320Y-37521D01*
X71112Y-37435D01*
X70888Y-37434D01*
X70680Y-37520D01*
X70521Y-37679D01*
X70435Y-37887D01*
X70434Y-38111D01*
X70520Y-38319D01*
X70679Y-38478D01*
X70887Y-38564D01*
X71111Y-38565D01*
X71319Y-38479D01*
X71478Y-38320D01*
X71499Y-38269D01*
X71520Y-38319D01*
X71679Y-38478D01*
X71887Y-38564D01*
X72111Y-38565D01*
X72319Y-38479D01*
X72478Y-38320D01*
X72564Y-38112D01*
X72565Y-37888D01*
X72479Y-37680D01*
X72320Y-37521D01*
X72300Y-37512D01*
X72300Y-36237D01*
X72319Y-36229D01*
X72478Y-36070D01*
X72564Y-35862D01*
X72565Y-35638D01*
X72479Y-35430D01*
X72320Y-35271D01*
X72300Y-35262D01*
X72300Y-33987D01*
X72319Y-33979D01*
X72478Y-33820D01*
X72564Y-33612D01*
X72565Y-33388D01*
X72479Y-33180D01*
X72320Y-33021D01*
X72300Y-33012D01*
X72300Y-31737D01*
X72319Y-31729D01*
X72478Y-31570D01*
X72564Y-31362D01*
X72565Y-31138D01*
X72528Y-31050D01*
X72721Y-31050D01*
X72685Y-31137D01*
X72684Y-31361D01*
X72770Y-31569D01*
X72929Y-31728D01*
X73137Y-31814D01*
X73361Y-31815D01*
X73569Y-31729D01*
X73728Y-31570D01*
X73749Y-31519D01*
X73770Y-31569D01*
X73929Y-31728D01*
X73950Y-31737D01*
X73950Y-33012D01*
X73930Y-33020D01*
X73771Y-33179D01*
X73750Y-33230D01*
X73729Y-33180D01*
X73570Y-33021D01*
X73362Y-32935D01*
X73138Y-32934D01*
X72930Y-33020D01*
X72771Y-33179D01*
X72685Y-33387D01*
X72684Y-33611D01*
X72770Y-33819D01*
X72929Y-33978D01*
X73137Y-34064D01*
X73361Y-34065D01*
X73569Y-33979D01*
X73728Y-33820D01*
X73749Y-33769D01*
X73770Y-33819D01*
X73929Y-33978D01*
X73950Y-33987D01*
X73950Y-35262D01*
X73930Y-35270D01*
X73771Y-35429D01*
X73750Y-35480D01*
X73729Y-35430D01*
X73570Y-35271D01*
X73362Y-35185D01*
X73138Y-35184D01*
X72930Y-35270D01*
X72771Y-35429D01*
X72685Y-35637D01*
X72684Y-35861D01*
X72770Y-36069D01*
X72929Y-36228D01*
X73137Y-36314D01*
X73361Y-36315D01*
X73569Y-36229D01*
X73728Y-36070D01*
X73749Y-36019D01*
X73770Y-36069D01*
X73929Y-36228D01*
X73950Y-36237D01*
X73950Y-37512D01*
X73930Y-37520D01*
X73771Y-37679D01*
X73750Y-37730D01*
X73729Y-37680D01*
X73570Y-37521D01*
X73362Y-37435D01*
X73138Y-37434D01*
X72930Y-37520D01*
X72771Y-37679D01*
X72685Y-37887D01*
X72684Y-38111D01*
X72770Y-38319D01*
X72929Y-38478D01*
X73137Y-38564D01*
X73361Y-38565D01*
X73569Y-38479D01*
X73728Y-38320D01*
X73749Y-38269D01*
X73770Y-38319D01*
X73929Y-38478D01*
X74137Y-38564D01*
X74361Y-38565D01*
X74569Y-38479D01*
X74728Y-38320D01*
X74814Y-38112D01*
X74815Y-37888D01*
X74729Y-37680D01*
X74570Y-37521D01*
X74550Y-37512D01*
X74550Y-36237D01*
X74569Y-36229D01*
X74716Y-36082D01*
X74722Y-36114D01*
X74761Y-36172D01*
X74661Y-36273D01*
X74600Y-36420D01*
X74599Y-36579D01*
X74660Y-36726D01*
X74773Y-36838D01*
X74920Y-36899D01*
X74975Y-36899D01*
X75037Y-36962D01*
X75096Y-37001D01*
X75135Y-37027D01*
X75135Y-37027D01*
X75250Y-37050D01*
X76025Y-37050D01*
X75632Y-37443D01*
X75612Y-37435D01*
X75388Y-37434D01*
X75180Y-37520D01*
X75021Y-37679D01*
X74935Y-37887D01*
X74934Y-38111D01*
X75020Y-38319D01*
X75179Y-38478D01*
X75387Y-38564D01*
X75611Y-38565D01*
X75819Y-38479D01*
X75978Y-38320D01*
X75999Y-38269D01*
X76020Y-38319D01*
X76179Y-38478D01*
X76387Y-38564D01*
X76611Y-38565D01*
X76819Y-38479D01*
X76978Y-38320D01*
X77064Y-38112D01*
X77065Y-37888D01*
X76979Y-37680D01*
X76820Y-37521D01*
X76612Y-37435D01*
X76489Y-37435D01*
X76624Y-37300D01*
X82875Y-37300D01*
X83037Y-37462D01*
X83037Y-37462D01*
X83047Y-37472D01*
X82930Y-37520D01*
X82771Y-37679D01*
X82750Y-37730D01*
X82729Y-37680D01*
X82570Y-37521D01*
X82362Y-37435D01*
X82138Y-37434D01*
X81930Y-37520D01*
X81771Y-37679D01*
X81685Y-37887D01*
X81684Y-38111D01*
X81721Y-38200D01*
X81528Y-38200D01*
X81564Y-38112D01*
X81565Y-37888D01*
X81479Y-37680D01*
X81320Y-37521D01*
X81112Y-37435D01*
X80888Y-37434D01*
X80680Y-37520D01*
X80521Y-37679D01*
X80500Y-37730D01*
X80479Y-37680D01*
X80320Y-37521D01*
X80112Y-37435D01*
X79888Y-37434D01*
X79680Y-37520D01*
X79521Y-37679D01*
X79435Y-37887D01*
X79434Y-38111D01*
X79471Y-38200D01*
X79278Y-38200D01*
X79314Y-38112D01*
X79315Y-37888D01*
X79229Y-37680D01*
X79070Y-37521D01*
X78862Y-37435D01*
X78638Y-37434D01*
X78430Y-37520D01*
X78271Y-37679D01*
X78250Y-37730D01*
X78229Y-37680D01*
X78070Y-37521D01*
X77862Y-37435D01*
X77638Y-37434D01*
X77430Y-37520D01*
X77271Y-37679D01*
X77185Y-37887D01*
X77184Y-38111D01*
X77270Y-38319D01*
X77429Y-38478D01*
X77637Y-38564D01*
X77861Y-38565D01*
X77882Y-38556D01*
X78037Y-38712D01*
X78037Y-38712D01*
X78135Y-38777D01*
X78250Y-38800D01*
X80500Y-38800D01*
X82750Y-38800D01*
X83525Y-38800D01*
X83525Y-38800D01*
G37*
G54D20*
X83525Y-38800D02*
X83225Y-39100D01*
X82750Y-39100D01*
X82635Y-39122D01*
X82537Y-39187D01*
X82425Y-39300D01*
X80400Y-39300D01*
X80285Y-39322D01*
X80246Y-39348D01*
X80187Y-39387D01*
X79575Y-40000D01*
X77374Y-40000D01*
X77362Y-39987D01*
X77264Y-39922D01*
X77150Y-39900D01*
X76650Y-39900D01*
X76535Y-39922D01*
X76437Y-39987D01*
X76425Y-40000D01*
X75050Y-40000D01*
X74935Y-40022D01*
X74837Y-40087D01*
X73475Y-41450D01*
X70974Y-41450D01*
X70962Y-41437D01*
X70864Y-41372D01*
X70750Y-41350D01*
X70400Y-41350D01*
X70315Y-41366D01*
X70315Y-37888D01*
X70229Y-37680D01*
X70070Y-37521D01*
X70050Y-37512D01*
X70050Y-36237D01*
X70069Y-36229D01*
X70228Y-36070D01*
X70314Y-35862D01*
X70315Y-35638D01*
X70229Y-35430D01*
X70070Y-35271D01*
X70050Y-35262D01*
X70050Y-33987D01*
X70069Y-33979D01*
X70228Y-33820D01*
X70314Y-33612D01*
X70315Y-33388D01*
X70229Y-33180D01*
X70070Y-33021D01*
X70050Y-33012D01*
X70050Y-31737D01*
X70069Y-31729D01*
X70228Y-31570D01*
X70314Y-31362D01*
X70315Y-31138D01*
X70229Y-30930D01*
X70070Y-30771D01*
X69862Y-30685D01*
X69638Y-30684D01*
X69430Y-30770D01*
X69271Y-30929D01*
X69250Y-30980D01*
X69229Y-30930D01*
X69070Y-30771D01*
X68862Y-30685D01*
X68638Y-30684D01*
X68430Y-30770D01*
X68271Y-30929D01*
X68185Y-31137D01*
X68184Y-31361D01*
X68270Y-31569D01*
X68429Y-31728D01*
X68637Y-31814D01*
X68861Y-31815D01*
X69069Y-31729D01*
X69228Y-31570D01*
X69249Y-31519D01*
X69270Y-31569D01*
X69429Y-31728D01*
X69450Y-31737D01*
X69450Y-33012D01*
X69430Y-33020D01*
X69271Y-33179D01*
X69250Y-33230D01*
X69229Y-33180D01*
X69070Y-33021D01*
X68862Y-32935D01*
X68638Y-32934D01*
X68430Y-33020D01*
X68271Y-33179D01*
X68185Y-33387D01*
X68184Y-33611D01*
X68270Y-33819D01*
X68429Y-33978D01*
X68637Y-34064D01*
X68861Y-34065D01*
X69069Y-33979D01*
X69228Y-33820D01*
X69249Y-33769D01*
X69270Y-33819D01*
X69429Y-33978D01*
X69450Y-33987D01*
X69450Y-35262D01*
X69430Y-35270D01*
X69271Y-35429D01*
X69250Y-35480D01*
X69229Y-35430D01*
X69070Y-35271D01*
X68862Y-35185D01*
X68638Y-35184D01*
X68430Y-35270D01*
X68271Y-35429D01*
X68185Y-35637D01*
X68184Y-35861D01*
X68270Y-36069D01*
X68429Y-36228D01*
X68637Y-36314D01*
X68861Y-36315D01*
X69069Y-36229D01*
X69228Y-36070D01*
X69249Y-36019D01*
X69270Y-36069D01*
X69429Y-36228D01*
X69450Y-36237D01*
X69450Y-37512D01*
X69430Y-37520D01*
X69271Y-37679D01*
X69250Y-37730D01*
X69229Y-37680D01*
X69070Y-37521D01*
X68862Y-37435D01*
X68638Y-37434D01*
X68430Y-37520D01*
X68271Y-37679D01*
X68185Y-37887D01*
X68184Y-38111D01*
X68270Y-38319D01*
X68429Y-38478D01*
X68637Y-38564D01*
X68861Y-38565D01*
X69069Y-38479D01*
X69228Y-38320D01*
X69249Y-38269D01*
X69270Y-38319D01*
X69429Y-38478D01*
X69637Y-38564D01*
X69861Y-38565D01*
X70069Y-38479D01*
X70228Y-38320D01*
X70314Y-38112D01*
X70315Y-37888D01*
X70315Y-41366D01*
X70285Y-41372D01*
X70246Y-41398D01*
X70187Y-41437D01*
X69937Y-41687D01*
X69872Y-41785D01*
X69850Y-41900D01*
X69850Y-41925D01*
X69662Y-41737D01*
X69564Y-41672D01*
X69450Y-41650D01*
X68500Y-41650D01*
X68350Y-41650D01*
X68229Y-41600D01*
X68070Y-41599D01*
X68065Y-41602D01*
X68065Y-37888D01*
X67979Y-37680D01*
X67820Y-37521D01*
X67800Y-37512D01*
X67800Y-36237D01*
X67819Y-36229D01*
X67978Y-36070D01*
X68064Y-35862D01*
X68065Y-35638D01*
X67979Y-35430D01*
X67820Y-35271D01*
X67800Y-35262D01*
X67800Y-33987D01*
X67819Y-33979D01*
X67978Y-33820D01*
X68064Y-33612D01*
X68065Y-33388D01*
X67979Y-33180D01*
X67820Y-33021D01*
X67800Y-33012D01*
X67800Y-31737D01*
X67819Y-31729D01*
X67978Y-31570D01*
X68064Y-31362D01*
X68065Y-31138D01*
X67979Y-30930D01*
X67820Y-30771D01*
X67612Y-30685D01*
X67388Y-30684D01*
X67180Y-30770D01*
X67021Y-30929D01*
X67000Y-30980D01*
X66979Y-30930D01*
X66820Y-30771D01*
X66612Y-30685D01*
X66388Y-30684D01*
X66180Y-30770D01*
X66021Y-30929D01*
X65935Y-31137D01*
X65934Y-31361D01*
X66020Y-31569D01*
X66179Y-31728D01*
X66387Y-31814D01*
X66611Y-31815D01*
X66819Y-31729D01*
X66978Y-31570D01*
X66999Y-31519D01*
X67020Y-31569D01*
X67179Y-31728D01*
X67200Y-31737D01*
X67200Y-33012D01*
X67180Y-33020D01*
X67021Y-33179D01*
X67000Y-33230D01*
X66979Y-33180D01*
X66820Y-33021D01*
X66612Y-32935D01*
X66388Y-32934D01*
X66180Y-33020D01*
X66021Y-33179D01*
X65935Y-33387D01*
X65934Y-33611D01*
X66020Y-33819D01*
X66179Y-33978D01*
X66387Y-34064D01*
X66611Y-34065D01*
X66819Y-33979D01*
X66978Y-33820D01*
X66999Y-33769D01*
X67020Y-33819D01*
X67179Y-33978D01*
X67200Y-33987D01*
X67200Y-35262D01*
X67180Y-35270D01*
X67021Y-35429D01*
X67000Y-35480D01*
X66979Y-35430D01*
X66820Y-35271D01*
X66612Y-35185D01*
X66388Y-35184D01*
X66180Y-35270D01*
X66021Y-35429D01*
X65935Y-35637D01*
X65934Y-35861D01*
X66020Y-36069D01*
X66179Y-36228D01*
X66387Y-36314D01*
X66611Y-36315D01*
X66819Y-36229D01*
X66978Y-36070D01*
X66999Y-36019D01*
X67020Y-36069D01*
X67179Y-36228D01*
X67200Y-36237D01*
X67200Y-37512D01*
X67180Y-37520D01*
X67021Y-37679D01*
X67000Y-37730D01*
X66979Y-37680D01*
X66820Y-37521D01*
X66612Y-37435D01*
X66388Y-37434D01*
X66180Y-37520D01*
X66021Y-37679D01*
X65935Y-37887D01*
X65934Y-38111D01*
X66020Y-38319D01*
X66179Y-38478D01*
X66387Y-38564D01*
X66611Y-38565D01*
X66819Y-38479D01*
X66978Y-38320D01*
X66999Y-38269D01*
X67020Y-38319D01*
X67179Y-38478D01*
X67387Y-38564D01*
X67611Y-38565D01*
X67819Y-38479D01*
X67978Y-38320D01*
X68064Y-38112D01*
X68065Y-37888D01*
X68065Y-41602D01*
X67923Y-41660D01*
X67829Y-41754D01*
X67812Y-41737D01*
X67714Y-41672D01*
X67600Y-41650D01*
X66150Y-41650D01*
X66035Y-41672D01*
X65937Y-41737D01*
X65925Y-41749D01*
X65870Y-41749D01*
X65815Y-41772D01*
X65815Y-37888D01*
X65729Y-37680D01*
X65570Y-37521D01*
X65550Y-37512D01*
X65550Y-36237D01*
X65569Y-36229D01*
X65728Y-36070D01*
X65814Y-35862D01*
X65815Y-35638D01*
X65729Y-35430D01*
X65570Y-35271D01*
X65550Y-35262D01*
X65550Y-33987D01*
X65569Y-33979D01*
X65728Y-33820D01*
X65814Y-33612D01*
X65815Y-33388D01*
X65729Y-33180D01*
X65570Y-33021D01*
X65550Y-33012D01*
X65550Y-31737D01*
X65569Y-31729D01*
X65728Y-31570D01*
X65814Y-31362D01*
X65815Y-31138D01*
X65729Y-30930D01*
X65570Y-30771D01*
X65362Y-30685D01*
X65138Y-30684D01*
X64930Y-30770D01*
X64771Y-30929D01*
X64750Y-30980D01*
X64729Y-30930D01*
X64570Y-30771D01*
X64362Y-30685D01*
X64138Y-30684D01*
X63930Y-30770D01*
X63771Y-30929D01*
X63685Y-31137D01*
X63684Y-31361D01*
X63770Y-31569D01*
X63929Y-31728D01*
X64137Y-31814D01*
X64361Y-31815D01*
X64569Y-31729D01*
X64728Y-31570D01*
X64749Y-31519D01*
X64770Y-31569D01*
X64929Y-31728D01*
X64950Y-31737D01*
X64950Y-33012D01*
X64930Y-33020D01*
X64771Y-33179D01*
X64750Y-33230D01*
X64729Y-33180D01*
X64570Y-33021D01*
X64362Y-32935D01*
X64138Y-32934D01*
X63930Y-33020D01*
X63771Y-33179D01*
X63685Y-33387D01*
X63684Y-33611D01*
X63770Y-33819D01*
X63929Y-33978D01*
X64137Y-34064D01*
X64361Y-34065D01*
X64569Y-33979D01*
X64728Y-33820D01*
X64749Y-33769D01*
X64770Y-33819D01*
X64929Y-33978D01*
X64950Y-33987D01*
X64950Y-35262D01*
X64930Y-35270D01*
X64771Y-35429D01*
X64750Y-35480D01*
X64729Y-35430D01*
X64570Y-35271D01*
X64362Y-35185D01*
X64138Y-35184D01*
X63930Y-35270D01*
X63771Y-35429D01*
X63685Y-35637D01*
X63684Y-35861D01*
X63770Y-36069D01*
X63929Y-36228D01*
X64137Y-36314D01*
X64361Y-36315D01*
X64569Y-36229D01*
X64728Y-36070D01*
X64749Y-36019D01*
X64770Y-36069D01*
X64929Y-36228D01*
X64950Y-36237D01*
X64950Y-37512D01*
X64930Y-37520D01*
X64771Y-37679D01*
X64750Y-37730D01*
X64729Y-37680D01*
X64570Y-37521D01*
X64362Y-37435D01*
X64138Y-37434D01*
X63930Y-37520D01*
X63771Y-37679D01*
X63685Y-37887D01*
X63684Y-38111D01*
X63770Y-38319D01*
X63929Y-38478D01*
X64137Y-38564D01*
X64361Y-38565D01*
X64569Y-38479D01*
X64728Y-38320D01*
X64749Y-38269D01*
X64770Y-38319D01*
X64929Y-38478D01*
X65137Y-38564D01*
X65361Y-38565D01*
X65569Y-38479D01*
X65728Y-38320D01*
X65814Y-38112D01*
X65815Y-37888D01*
X65815Y-41772D01*
X65723Y-41810D01*
X65611Y-41923D01*
X65550Y-42070D01*
X65549Y-42229D01*
X65610Y-42376D01*
X65723Y-42488D01*
X65870Y-42549D01*
X66029Y-42550D01*
X66176Y-42489D01*
X66288Y-42376D01*
X66341Y-42250D01*
X67475Y-42250D01*
X67787Y-42562D01*
X67885Y-42627D01*
X67885Y-42627D01*
X68000Y-42650D01*
X68250Y-42650D01*
X68250Y-42649D01*
X68364Y-42627D01*
X68364Y-42627D01*
X68462Y-42562D01*
X68524Y-42500D01*
X69275Y-42500D01*
X69787Y-43012D01*
X69787Y-43012D01*
X69885Y-43077D01*
X70000Y-43100D01*
X70550Y-43100D01*
X70550Y-43099D01*
X70664Y-43077D01*
X70664Y-43077D01*
X70762Y-43012D01*
X70974Y-42800D01*
X73750Y-42800D01*
X73750Y-42799D01*
X73864Y-42777D01*
X73864Y-42777D01*
X73962Y-42712D01*
X74574Y-42100D01*
X75025Y-42100D01*
X75237Y-42312D01*
X75296Y-42351D01*
X75335Y-42377D01*
X75335Y-42377D01*
X75450Y-42400D01*
X76350Y-42400D01*
X76350Y-42399D01*
X76464Y-42377D01*
X76464Y-42377D01*
X76562Y-42312D01*
X76924Y-41950D01*
X76925Y-41950D01*
X77137Y-42162D01*
X77196Y-42201D01*
X77235Y-42227D01*
X77235Y-42227D01*
X77350Y-42250D01*
X77425Y-42250D01*
X77787Y-42612D01*
X77885Y-42677D01*
X78000Y-42700D01*
X78300Y-42700D01*
X78300Y-42699D01*
X78414Y-42677D01*
X78414Y-42677D01*
X78512Y-42612D01*
X78774Y-42350D01*
X80150Y-42350D01*
X80150Y-42349D01*
X80264Y-42327D01*
X80264Y-42327D01*
X80362Y-42262D01*
X80950Y-41674D01*
X81037Y-41762D01*
X81037Y-41762D01*
X81135Y-41827D01*
X81250Y-41850D01*
X81449Y-41850D01*
X81460Y-41876D01*
X81573Y-41988D01*
X81720Y-42049D01*
X81879Y-42050D01*
X82026Y-41989D01*
X82138Y-41876D01*
X82172Y-41796D01*
X82350Y-41974D01*
X82350Y-42125D01*
X81425Y-43050D01*
X81250Y-43050D01*
X81129Y-43000D01*
X80970Y-42999D01*
X80823Y-43060D01*
X80711Y-43173D01*
X80650Y-43320D01*
X80649Y-43450D01*
X78950Y-43450D01*
X78835Y-43472D01*
X78737Y-43537D01*
X78575Y-43699D01*
X78520Y-43699D01*
X78373Y-43760D01*
X78279Y-43854D01*
X78248Y-43824D01*
X78334Y-43616D01*
X78334Y-43384D01*
X78245Y-43169D01*
X78081Y-43004D01*
X77866Y-42915D01*
X77634Y-42915D01*
X77602Y-42928D01*
X77312Y-42637D01*
X77214Y-42572D01*
X77100Y-42550D01*
X76500Y-42550D01*
X76100Y-42550D01*
X75985Y-42572D01*
X75887Y-42637D01*
X75787Y-42737D01*
X75722Y-42835D01*
X75700Y-42950D01*
X75700Y-44600D01*
X75700Y-45425D01*
X75675Y-45450D01*
X75450Y-45450D01*
X75450Y-45200D01*
X75427Y-45085D01*
X75427Y-45085D01*
X75401Y-45046D01*
X75362Y-44987D01*
X75112Y-44737D01*
X75014Y-44672D01*
X74900Y-44650D01*
X74600Y-44650D01*
X71800Y-44650D01*
X71800Y-44104D01*
X71904Y-44104D01*
X71995Y-44066D01*
X72066Y-43995D01*
X72088Y-43942D01*
X72157Y-44012D01*
X72379Y-44104D01*
X72619Y-44104D01*
X72841Y-44012D01*
X73000Y-43854D01*
X73157Y-44012D01*
X73379Y-44104D01*
X73619Y-44104D01*
X73841Y-44012D01*
X74000Y-43854D01*
X74157Y-44012D01*
X74379Y-44104D01*
X74619Y-44104D01*
X74841Y-44012D01*
X75012Y-43842D01*
X75104Y-43620D01*
X75104Y-43380D01*
X75012Y-43158D01*
X74842Y-42987D01*
X74620Y-42895D01*
X74380Y-42895D01*
X74158Y-42987D01*
X73999Y-43145D01*
X73842Y-42987D01*
X73620Y-42895D01*
X73380Y-42895D01*
X73158Y-42987D01*
X72999Y-43145D01*
X72842Y-42987D01*
X72620Y-42895D01*
X72380Y-42895D01*
X72158Y-42987D01*
X72088Y-43057D01*
X72066Y-43004D01*
X71995Y-42933D01*
X71904Y-42895D01*
X71804Y-42895D01*
X71095Y-42895D01*
X71004Y-42933D01*
X70933Y-43004D01*
X70895Y-43095D01*
X70895Y-43195D01*
X70895Y-43904D01*
X70933Y-43995D01*
X71004Y-44066D01*
X71095Y-44104D01*
X71195Y-44104D01*
X71200Y-44104D01*
X71200Y-44895D01*
X71095Y-44895D01*
X71004Y-44933D01*
X70933Y-45004D01*
X70895Y-45095D01*
X70895Y-45195D01*
X70895Y-45220D01*
X70885Y-45222D01*
X70846Y-45248D01*
X70787Y-45287D01*
X70625Y-45450D01*
X66274Y-45450D01*
X66250Y-45425D01*
X66250Y-45274D01*
X66324Y-45200D01*
X66379Y-45200D01*
X66526Y-45139D01*
X66638Y-45026D01*
X66699Y-44879D01*
X66700Y-44720D01*
X66639Y-44573D01*
X66526Y-44461D01*
X66379Y-44400D01*
X66220Y-44399D01*
X66073Y-44460D01*
X66034Y-44500D01*
X65604Y-44500D01*
X65604Y-43380D01*
X65512Y-43158D01*
X65342Y-42987D01*
X65120Y-42895D01*
X64880Y-42895D01*
X64658Y-42987D01*
X64499Y-43145D01*
X64342Y-42987D01*
X64120Y-42895D01*
X63880Y-42895D01*
X63658Y-42987D01*
X63565Y-43080D01*
X63565Y-37888D01*
X63479Y-37680D01*
X63320Y-37521D01*
X63300Y-37512D01*
X63300Y-36237D01*
X63319Y-36229D01*
X63478Y-36070D01*
X63564Y-35862D01*
X63565Y-35638D01*
X63479Y-35430D01*
X63320Y-35271D01*
X63300Y-35262D01*
X63300Y-33987D01*
X63319Y-33979D01*
X63478Y-33820D01*
X63564Y-33612D01*
X63565Y-33388D01*
X63479Y-33180D01*
X63320Y-33021D01*
X63300Y-33012D01*
X63300Y-31737D01*
X63319Y-31729D01*
X63478Y-31570D01*
X63564Y-31362D01*
X63565Y-31138D01*
X63479Y-30930D01*
X63320Y-30771D01*
X63112Y-30685D01*
X62888Y-30684D01*
X62680Y-30770D01*
X62521Y-30929D01*
X62500Y-30980D01*
X62479Y-30930D01*
X62320Y-30771D01*
X62112Y-30685D01*
X61888Y-30684D01*
X61680Y-30770D01*
X61521Y-30929D01*
X61435Y-31137D01*
X61434Y-31361D01*
X61520Y-31569D01*
X61679Y-31728D01*
X61887Y-31814D01*
X62111Y-31815D01*
X62319Y-31729D01*
X62478Y-31570D01*
X62499Y-31519D01*
X62520Y-31569D01*
X62679Y-31728D01*
X62700Y-31737D01*
X62700Y-33012D01*
X62680Y-33020D01*
X62521Y-33179D01*
X62500Y-33230D01*
X62479Y-33180D01*
X62320Y-33021D01*
X62112Y-32935D01*
X61888Y-32934D01*
X61680Y-33020D01*
X61521Y-33179D01*
X61435Y-33387D01*
X61434Y-33611D01*
X61520Y-33819D01*
X61679Y-33978D01*
X61887Y-34064D01*
X62111Y-34065D01*
X62319Y-33979D01*
X62478Y-33820D01*
X62499Y-33769D01*
X62520Y-33819D01*
X62679Y-33978D01*
X62700Y-33987D01*
X62700Y-35262D01*
X62680Y-35270D01*
X62521Y-35429D01*
X62500Y-35480D01*
X62479Y-35430D01*
X62320Y-35271D01*
X62112Y-35185D01*
X61888Y-35184D01*
X61680Y-35270D01*
X61521Y-35429D01*
X61435Y-35637D01*
X61434Y-35861D01*
X61520Y-36069D01*
X61679Y-36228D01*
X61887Y-36314D01*
X62111Y-36315D01*
X62319Y-36229D01*
X62478Y-36070D01*
X62499Y-36019D01*
X62520Y-36069D01*
X62679Y-36228D01*
X62700Y-36237D01*
X62700Y-37512D01*
X62680Y-37520D01*
X62521Y-37679D01*
X62500Y-37730D01*
X62479Y-37680D01*
X62320Y-37521D01*
X62112Y-37435D01*
X61888Y-37434D01*
X61680Y-37520D01*
X61521Y-37679D01*
X61435Y-37887D01*
X61434Y-38111D01*
X61520Y-38319D01*
X61679Y-38478D01*
X61887Y-38564D01*
X62111Y-38565D01*
X62319Y-38479D01*
X62478Y-38320D01*
X62499Y-38269D01*
X62520Y-38319D01*
X62679Y-38478D01*
X62887Y-38564D01*
X63111Y-38565D01*
X63319Y-38479D01*
X63478Y-38320D01*
X63564Y-38112D01*
X63565Y-37888D01*
X63565Y-43080D01*
X63499Y-43145D01*
X63342Y-42987D01*
X63120Y-42895D01*
X62880Y-42895D01*
X62658Y-42987D01*
X62588Y-43057D01*
X62566Y-43004D01*
X62495Y-42933D01*
X62404Y-42895D01*
X62304Y-42895D01*
X62050Y-42895D01*
X62050Y-41320D01*
X61989Y-41173D01*
X61876Y-41061D01*
X61729Y-41000D01*
X61674Y-41000D01*
X61612Y-40937D01*
X61514Y-40872D01*
X61400Y-40850D01*
X61315Y-40850D01*
X61315Y-37888D01*
X61229Y-37680D01*
X61070Y-37521D01*
X61050Y-37512D01*
X61050Y-36237D01*
X61069Y-36229D01*
X61228Y-36070D01*
X61314Y-35862D01*
X61315Y-35638D01*
X61229Y-35430D01*
X61070Y-35271D01*
X61050Y-35262D01*
X61050Y-33987D01*
X61069Y-33979D01*
X61228Y-33820D01*
X61314Y-33612D01*
X61315Y-33388D01*
X61229Y-33180D01*
X61070Y-33021D01*
X61050Y-33012D01*
X61050Y-31737D01*
X61069Y-31729D01*
X61228Y-31570D01*
X61314Y-31362D01*
X61315Y-31138D01*
X61229Y-30930D01*
X61070Y-30771D01*
X60862Y-30685D01*
X60638Y-30684D01*
X60430Y-30770D01*
X60271Y-30929D01*
X60250Y-30980D01*
X60229Y-30930D01*
X60070Y-30771D01*
X59862Y-30685D01*
X59638Y-30684D01*
X59430Y-30770D01*
X59271Y-30929D01*
X59185Y-31137D01*
X59184Y-31361D01*
X59270Y-31569D01*
X59429Y-31728D01*
X59637Y-31814D01*
X59861Y-31815D01*
X60069Y-31729D01*
X60228Y-31570D01*
X60249Y-31519D01*
X60270Y-31569D01*
X60429Y-31728D01*
X60450Y-31737D01*
X60450Y-33012D01*
X60430Y-33020D01*
X60271Y-33179D01*
X60250Y-33230D01*
X60229Y-33180D01*
X60070Y-33021D01*
X59862Y-32935D01*
X59638Y-32934D01*
X59430Y-33020D01*
X59271Y-33179D01*
X59185Y-33387D01*
X59184Y-33611D01*
X59270Y-33819D01*
X59429Y-33978D01*
X59637Y-34064D01*
X59861Y-34065D01*
X60069Y-33979D01*
X60228Y-33820D01*
X60249Y-33769D01*
X60270Y-33819D01*
X60429Y-33978D01*
X60450Y-33987D01*
X60450Y-35262D01*
X60430Y-35270D01*
X60271Y-35429D01*
X60250Y-35480D01*
X60229Y-35430D01*
X60070Y-35271D01*
X59862Y-35185D01*
X59638Y-35184D01*
X59430Y-35270D01*
X59271Y-35429D01*
X59185Y-35637D01*
X59184Y-35861D01*
X59270Y-36069D01*
X59429Y-36228D01*
X59637Y-36314D01*
X59861Y-36315D01*
X60069Y-36229D01*
X60228Y-36070D01*
X60249Y-36019D01*
X60270Y-36069D01*
X60429Y-36228D01*
X60450Y-36237D01*
X60450Y-37512D01*
X60430Y-37520D01*
X60271Y-37679D01*
X60250Y-37730D01*
X60229Y-37680D01*
X60070Y-37521D01*
X59862Y-37435D01*
X59638Y-37434D01*
X59430Y-37520D01*
X59271Y-37679D01*
X59185Y-37887D01*
X59184Y-38111D01*
X59270Y-38319D01*
X59429Y-38478D01*
X59637Y-38564D01*
X59861Y-38565D01*
X60069Y-38479D01*
X60228Y-38320D01*
X60249Y-38269D01*
X60270Y-38319D01*
X60429Y-38478D01*
X60637Y-38564D01*
X60861Y-38565D01*
X61069Y-38479D01*
X61228Y-38320D01*
X61314Y-38112D01*
X61315Y-37888D01*
X61315Y-40850D01*
X59850Y-40850D01*
X59735Y-40872D01*
X59637Y-40937D01*
X59525Y-41050D01*
X59065Y-41050D01*
X59065Y-37888D01*
X58979Y-37680D01*
X58820Y-37521D01*
X58800Y-37512D01*
X58800Y-36237D01*
X58819Y-36229D01*
X58978Y-36070D01*
X59064Y-35862D01*
X59065Y-35638D01*
X58979Y-35430D01*
X58820Y-35271D01*
X58800Y-35262D01*
X58800Y-33987D01*
X58819Y-33979D01*
X58978Y-33820D01*
X59064Y-33612D01*
X59065Y-33388D01*
X58979Y-33180D01*
X58820Y-33021D01*
X58800Y-33012D01*
X58800Y-31737D01*
X58819Y-31729D01*
X58978Y-31570D01*
X59064Y-31362D01*
X59065Y-31138D01*
X58979Y-30930D01*
X58820Y-30771D01*
X58612Y-30685D01*
X58388Y-30684D01*
X58180Y-30770D01*
X58021Y-30929D01*
X58000Y-30980D01*
X57979Y-30930D01*
X57820Y-30771D01*
X57612Y-30685D01*
X57388Y-30684D01*
X57180Y-30770D01*
X57021Y-30929D01*
X56935Y-31137D01*
X56934Y-31361D01*
X57020Y-31569D01*
X57179Y-31728D01*
X57387Y-31814D01*
X57611Y-31815D01*
X57819Y-31729D01*
X57978Y-31570D01*
X57999Y-31519D01*
X58020Y-31569D01*
X58179Y-31728D01*
X58200Y-31737D01*
X58200Y-33012D01*
X58180Y-33020D01*
X58021Y-33179D01*
X58000Y-33230D01*
X57979Y-33180D01*
X57820Y-33021D01*
X57612Y-32935D01*
X57388Y-32934D01*
X57180Y-33020D01*
X57021Y-33179D01*
X56935Y-33387D01*
X56934Y-33611D01*
X57020Y-33819D01*
X57179Y-33978D01*
X57387Y-34064D01*
X57611Y-34065D01*
X57819Y-33979D01*
X57978Y-33820D01*
X57999Y-33769D01*
X58020Y-33819D01*
X58179Y-33978D01*
X58200Y-33987D01*
X58200Y-35262D01*
X58180Y-35270D01*
X58021Y-35429D01*
X58000Y-35480D01*
X57979Y-35430D01*
X57820Y-35271D01*
X57612Y-35185D01*
X57388Y-35184D01*
X57180Y-35270D01*
X57021Y-35429D01*
X56935Y-35637D01*
X56934Y-35861D01*
X57020Y-36069D01*
X57179Y-36228D01*
X57387Y-36314D01*
X57611Y-36315D01*
X57819Y-36229D01*
X57978Y-36070D01*
X57999Y-36019D01*
X58020Y-36069D01*
X58179Y-36228D01*
X58200Y-36237D01*
X58200Y-37512D01*
X58180Y-37520D01*
X58021Y-37679D01*
X58000Y-37730D01*
X57979Y-37680D01*
X57820Y-37521D01*
X57612Y-37435D01*
X57388Y-37434D01*
X57180Y-37520D01*
X57021Y-37679D01*
X56935Y-37887D01*
X56934Y-38111D01*
X57020Y-38319D01*
X57179Y-38478D01*
X57387Y-38564D01*
X57611Y-38565D01*
X57819Y-38479D01*
X57978Y-38320D01*
X57999Y-38269D01*
X58020Y-38319D01*
X58179Y-38478D01*
X58387Y-38564D01*
X58611Y-38565D01*
X58819Y-38479D01*
X58978Y-38320D01*
X59064Y-38112D01*
X59065Y-37888D01*
X59065Y-41050D01*
X56815Y-41050D01*
X56815Y-37888D01*
X56729Y-37680D01*
X56570Y-37521D01*
X56550Y-37512D01*
X56550Y-36237D01*
X56569Y-36229D01*
X56728Y-36070D01*
X56814Y-35862D01*
X56815Y-35638D01*
X56729Y-35430D01*
X56570Y-35271D01*
X56550Y-35262D01*
X56550Y-33987D01*
X56569Y-33979D01*
X56728Y-33820D01*
X56814Y-33612D01*
X56815Y-33388D01*
X56729Y-33180D01*
X56570Y-33021D01*
X56550Y-33012D01*
X56550Y-31737D01*
X56569Y-31729D01*
X56728Y-31570D01*
X56814Y-31362D01*
X56815Y-31138D01*
X56729Y-30930D01*
X56570Y-30771D01*
X56362Y-30685D01*
X56138Y-30684D01*
X55930Y-30770D01*
X55771Y-30929D01*
X55750Y-30980D01*
X55729Y-30930D01*
X55570Y-30771D01*
X55362Y-30685D01*
X55138Y-30684D01*
X54930Y-30770D01*
X54771Y-30929D01*
X54685Y-31137D01*
X54684Y-31361D01*
X54770Y-31569D01*
X54929Y-31728D01*
X55137Y-31814D01*
X55361Y-31815D01*
X55569Y-31729D01*
X55728Y-31570D01*
X55749Y-31519D01*
X55770Y-31569D01*
X55929Y-31728D01*
X55950Y-31737D01*
X55950Y-33012D01*
X55930Y-33020D01*
X55771Y-33179D01*
X55750Y-33230D01*
X55729Y-33180D01*
X55570Y-33021D01*
X55362Y-32935D01*
X55138Y-32934D01*
X54930Y-33020D01*
X54771Y-33179D01*
X54685Y-33387D01*
X54684Y-33611D01*
X54770Y-33819D01*
X54929Y-33978D01*
X55137Y-34064D01*
X55361Y-34065D01*
X55569Y-33979D01*
X55728Y-33820D01*
X55749Y-33769D01*
X55770Y-33819D01*
X55929Y-33978D01*
X55950Y-33987D01*
X55950Y-35262D01*
X55930Y-35270D01*
X55771Y-35429D01*
X55750Y-35480D01*
X55729Y-35430D01*
X55570Y-35271D01*
X55362Y-35185D01*
X55138Y-35184D01*
X54930Y-35270D01*
X54771Y-35429D01*
X54685Y-35637D01*
X54684Y-35861D01*
X54770Y-36069D01*
X54929Y-36228D01*
X55137Y-36314D01*
X55361Y-36315D01*
X55569Y-36229D01*
X55728Y-36070D01*
X55749Y-36019D01*
X55770Y-36069D01*
X55929Y-36228D01*
X55950Y-36237D01*
X55950Y-37512D01*
X55930Y-37520D01*
X55771Y-37679D01*
X55750Y-37730D01*
X55729Y-37680D01*
X55570Y-37521D01*
X55362Y-37435D01*
X55138Y-37434D01*
X54930Y-37520D01*
X54771Y-37679D01*
X54685Y-37887D01*
X54684Y-38111D01*
X54770Y-38319D01*
X54929Y-38478D01*
X55137Y-38564D01*
X55361Y-38565D01*
X55569Y-38479D01*
X55728Y-38320D01*
X55749Y-38269D01*
X55770Y-38319D01*
X55929Y-38478D01*
X56137Y-38564D01*
X56361Y-38565D01*
X56569Y-38479D01*
X56728Y-38320D01*
X56814Y-38112D01*
X56815Y-37888D01*
X56815Y-41050D01*
X55791Y-41050D01*
X55739Y-40923D01*
X55626Y-40811D01*
X55479Y-40750D01*
X55320Y-40749D01*
X55173Y-40810D01*
X55061Y-40923D01*
X55000Y-41070D01*
X54999Y-41229D01*
X55060Y-41375D01*
X55000Y-41520D01*
X54999Y-41679D01*
X55060Y-41826D01*
X55173Y-41938D01*
X55320Y-41999D01*
X55479Y-42000D01*
X55626Y-41939D01*
X55665Y-41900D01*
X59700Y-41900D01*
X59700Y-41899D01*
X59814Y-41877D01*
X59814Y-41877D01*
X59912Y-41812D01*
X60024Y-41700D01*
X60925Y-41700D01*
X61049Y-41824D01*
X61049Y-41879D01*
X61110Y-42026D01*
X61223Y-42138D01*
X61370Y-42199D01*
X61529Y-42200D01*
X61676Y-42139D01*
X61788Y-42026D01*
X61849Y-41879D01*
X61850Y-41750D01*
X61876Y-41739D01*
X61988Y-41626D01*
X62049Y-41479D01*
X62050Y-41320D01*
X62050Y-42895D01*
X61595Y-42895D01*
X61504Y-42933D01*
X61433Y-43004D01*
X61395Y-43095D01*
X61395Y-43195D01*
X61395Y-43904D01*
X61433Y-43995D01*
X61504Y-44066D01*
X61595Y-44104D01*
X61695Y-44104D01*
X62404Y-44104D01*
X62495Y-44066D01*
X62566Y-43995D01*
X62588Y-43942D01*
X62657Y-44012D01*
X62879Y-44104D01*
X63119Y-44104D01*
X63341Y-44012D01*
X63500Y-43854D01*
X63657Y-44012D01*
X63879Y-44104D01*
X64119Y-44104D01*
X64341Y-44012D01*
X64500Y-43854D01*
X64657Y-44012D01*
X64879Y-44104D01*
X65119Y-44104D01*
X65341Y-44012D01*
X65512Y-43842D01*
X65604Y-43620D01*
X65604Y-43380D01*
X65604Y-44500D01*
X62400Y-44500D01*
X62285Y-44522D01*
X62187Y-44587D01*
X61880Y-44895D01*
X61595Y-44895D01*
X61504Y-44933D01*
X61433Y-45004D01*
X61395Y-45095D01*
X61395Y-45195D01*
X61395Y-45904D01*
X61427Y-45980D01*
X54187Y-45980D01*
X54187Y-45363D01*
X54183Y-45238D01*
X54183Y-43732D01*
X54183Y-43633D01*
X54183Y-42767D01*
X54145Y-42675D01*
X54074Y-42604D01*
X53982Y-42566D01*
X53883Y-42566D01*
X53017Y-42566D01*
X52925Y-42604D01*
X52854Y-42675D01*
X52816Y-42767D01*
X52816Y-42866D01*
X52816Y-43732D01*
X52854Y-43824D01*
X52925Y-43895D01*
X53017Y-43933D01*
X53116Y-43933D01*
X53982Y-43933D01*
X54074Y-43895D01*
X54145Y-43824D01*
X54183Y-43732D01*
X54183Y-45238D01*
X54178Y-45091D01*
X54091Y-44882D01*
X53982Y-44838D01*
X53911Y-44909D01*
X53911Y-44767D01*
X53867Y-44658D01*
X53613Y-44562D01*
X53341Y-44571D01*
X53132Y-44658D01*
X53088Y-44767D01*
X53500Y-45179D01*
X53911Y-44767D01*
X53911Y-44909D01*
X53570Y-45250D01*
X53982Y-45661D01*
X54091Y-45617D01*
X54187Y-45363D01*
X54187Y-45980D01*
X53911Y-45980D01*
X53911Y-45732D01*
X53500Y-45320D01*
X53429Y-45391D01*
X53429Y-45250D01*
X53017Y-44838D01*
X52908Y-44882D01*
X52812Y-45136D01*
X52821Y-45408D01*
X52908Y-45617D01*
X53017Y-45661D01*
X53429Y-45250D01*
X53429Y-45391D01*
X53088Y-45732D01*
X53132Y-45841D01*
X53386Y-45937D01*
X53658Y-45928D01*
X53867Y-45841D01*
X53911Y-45732D01*
X53911Y-45980D01*
X52519Y-45980D01*
X52519Y-38316D01*
X52520Y-38319D01*
X52679Y-38478D01*
X52887Y-38564D01*
X53111Y-38565D01*
X53319Y-38479D01*
X53478Y-38320D01*
X53499Y-38269D01*
X53520Y-38319D01*
X53679Y-38478D01*
X53887Y-38564D01*
X54111Y-38565D01*
X54319Y-38479D01*
X54478Y-38320D01*
X54564Y-38112D01*
X54565Y-37888D01*
X54479Y-37680D01*
X54320Y-37521D01*
X54112Y-37435D01*
X53888Y-37434D01*
X53761Y-37487D01*
X53512Y-37237D01*
X53414Y-37172D01*
X53300Y-37150D01*
X53150Y-37150D01*
X53150Y-36724D01*
X53274Y-36600D01*
X53450Y-36600D01*
X53450Y-36599D01*
X53564Y-36577D01*
X53564Y-36577D01*
X53662Y-36512D01*
X53867Y-36306D01*
X53887Y-36314D01*
X54111Y-36315D01*
X54319Y-36229D01*
X54478Y-36070D01*
X54564Y-35862D01*
X54565Y-35638D01*
X54479Y-35430D01*
X54320Y-35271D01*
X54112Y-35185D01*
X53888Y-35184D01*
X53761Y-35237D01*
X53462Y-34937D01*
X53364Y-34872D01*
X53250Y-34850D01*
X53024Y-34850D01*
X53000Y-34825D01*
X53000Y-34474D01*
X53074Y-34400D01*
X53400Y-34400D01*
X53400Y-34399D01*
X53514Y-34377D01*
X53514Y-34377D01*
X53612Y-34312D01*
X53867Y-34056D01*
X53887Y-34064D01*
X54111Y-34065D01*
X54319Y-33979D01*
X54478Y-33820D01*
X54564Y-33612D01*
X54565Y-33388D01*
X54479Y-33180D01*
X54320Y-33021D01*
X54112Y-32935D01*
X53888Y-32934D01*
X53867Y-32943D01*
X53662Y-32737D01*
X53564Y-32672D01*
X53450Y-32650D01*
X52950Y-32650D01*
X52950Y-32074D01*
X52974Y-32050D01*
X53500Y-32050D01*
X53500Y-32049D01*
X53614Y-32027D01*
X53614Y-32027D01*
X53712Y-31962D01*
X53867Y-31806D01*
X53887Y-31814D01*
X54111Y-31815D01*
X54319Y-31729D01*
X54478Y-31570D01*
X54564Y-31362D01*
X54565Y-31138D01*
X54479Y-30930D01*
X54320Y-30771D01*
X54112Y-30685D01*
X53888Y-30684D01*
X53680Y-30770D01*
X53521Y-30929D01*
X53500Y-30980D01*
X53479Y-30930D01*
X53320Y-30771D01*
X53112Y-30685D01*
X52888Y-30684D01*
X52680Y-30770D01*
X52521Y-30929D01*
X52519Y-30933D01*
X52519Y-30269D01*
X74315Y-30269D01*
X74287Y-30287D01*
X74125Y-30450D01*
X72250Y-30450D01*
X72135Y-30472D01*
X72096Y-30498D01*
X72037Y-30537D01*
X71890Y-30684D01*
X71888Y-30684D01*
X71680Y-30770D01*
X71521Y-30929D01*
X71500Y-30980D01*
X71479Y-30930D01*
X71320Y-30771D01*
X71112Y-30685D01*
X70888Y-30684D01*
X70680Y-30770D01*
X70521Y-30929D01*
X70435Y-31137D01*
X70434Y-31361D01*
X70520Y-31569D01*
X70679Y-31728D01*
X70887Y-31814D01*
X71111Y-31815D01*
X71319Y-31729D01*
X71478Y-31570D01*
X71499Y-31519D01*
X71520Y-31569D01*
X71679Y-31728D01*
X71700Y-31737D01*
X71700Y-33012D01*
X71680Y-33020D01*
X71521Y-33179D01*
X71500Y-33230D01*
X71479Y-33180D01*
X71320Y-33021D01*
X71112Y-32935D01*
X70888Y-32934D01*
X70680Y-33020D01*
X70521Y-33179D01*
X70435Y-33387D01*
X70434Y-33611D01*
X70520Y-33819D01*
X70679Y-33978D01*
X70887Y-34064D01*
X71111Y-34065D01*
X71319Y-33979D01*
X71478Y-33820D01*
X71499Y-33769D01*
X71520Y-33819D01*
X71679Y-33978D01*
X71700Y-33987D01*
X71700Y-35262D01*
X71680Y-35270D01*
X71521Y-35429D01*
X71500Y-35480D01*
X71479Y-35430D01*
X71320Y-35271D01*
X71112Y-35185D01*
X70888Y-35184D01*
X70680Y-35270D01*
X70521Y-35429D01*
X70435Y-35637D01*
X70434Y-35861D01*
X70520Y-36069D01*
X70679Y-36228D01*
X70887Y-36314D01*
X71111Y-36315D01*
X71319Y-36229D01*
X71478Y-36070D01*
X71499Y-36019D01*
X71520Y-36069D01*
X71679Y-36228D01*
X71700Y-36237D01*
X71700Y-37512D01*
X71680Y-37520D01*
X71521Y-37679D01*
X71500Y-37730D01*
X71479Y-37680D01*
X71320Y-37521D01*
X71112Y-37435D01*
X70888Y-37434D01*
X70680Y-37520D01*
X70521Y-37679D01*
X70435Y-37887D01*
X70434Y-38111D01*
X70520Y-38319D01*
X70679Y-38478D01*
X70887Y-38564D01*
X71111Y-38565D01*
X71319Y-38479D01*
X71478Y-38320D01*
X71499Y-38269D01*
X71520Y-38319D01*
X71679Y-38478D01*
X71887Y-38564D01*
X72111Y-38565D01*
X72319Y-38479D01*
X72478Y-38320D01*
X72564Y-38112D01*
X72565Y-37888D01*
X72479Y-37680D01*
X72320Y-37521D01*
X72300Y-37512D01*
X72300Y-36237D01*
X72319Y-36229D01*
X72478Y-36070D01*
X72564Y-35862D01*
X72565Y-35638D01*
X72479Y-35430D01*
X72320Y-35271D01*
X72300Y-35262D01*
X72300Y-33987D01*
X72319Y-33979D01*
X72478Y-33820D01*
X72564Y-33612D01*
X72565Y-33388D01*
X72479Y-33180D01*
X72320Y-33021D01*
X72300Y-33012D01*
X72300Y-31737D01*
X72319Y-31729D01*
X72478Y-31570D01*
X72564Y-31362D01*
X72565Y-31138D01*
X72528Y-31050D01*
X72721Y-31050D01*
X72685Y-31137D01*
X72684Y-31361D01*
X72770Y-31569D01*
X72929Y-31728D01*
X73137Y-31814D01*
X73361Y-31815D01*
X73569Y-31729D01*
X73728Y-31570D01*
X73749Y-31519D01*
X73770Y-31569D01*
X73929Y-31728D01*
X73950Y-31737D01*
X73950Y-33012D01*
X73930Y-33020D01*
X73771Y-33179D01*
X73750Y-33230D01*
X73729Y-33180D01*
X73570Y-33021D01*
X73362Y-32935D01*
X73138Y-32934D01*
X72930Y-33020D01*
X72771Y-33179D01*
X72685Y-33387D01*
X72684Y-33611D01*
X72770Y-33819D01*
X72929Y-33978D01*
X73137Y-34064D01*
X73361Y-34065D01*
X73569Y-33979D01*
X73728Y-33820D01*
X73749Y-33769D01*
X73770Y-33819D01*
X73929Y-33978D01*
X73950Y-33987D01*
X73950Y-35262D01*
X73930Y-35270D01*
X73771Y-35429D01*
X73750Y-35480D01*
X73729Y-35430D01*
X73570Y-35271D01*
X73362Y-35185D01*
X73138Y-35184D01*
X72930Y-35270D01*
X72771Y-35429D01*
X72685Y-35637D01*
X72684Y-35861D01*
X72770Y-36069D01*
X72929Y-36228D01*
X73137Y-36314D01*
X73361Y-36315D01*
X73569Y-36229D01*
X73728Y-36070D01*
X73749Y-36019D01*
X73770Y-36069D01*
X73929Y-36228D01*
X73950Y-36237D01*
X73950Y-37512D01*
X73930Y-37520D01*
X73771Y-37679D01*
X73750Y-37730D01*
X73729Y-37680D01*
X73570Y-37521D01*
X73362Y-37435D01*
X73138Y-37434D01*
X72930Y-37520D01*
X72771Y-37679D01*
X72685Y-37887D01*
X72684Y-38111D01*
X72770Y-38319D01*
X72929Y-38478D01*
X73137Y-38564D01*
X73361Y-38565D01*
X73569Y-38479D01*
X73728Y-38320D01*
X73749Y-38269D01*
X73770Y-38319D01*
X73929Y-38478D01*
X74137Y-38564D01*
X74361Y-38565D01*
X74569Y-38479D01*
X74728Y-38320D01*
X74814Y-38112D01*
X74815Y-37888D01*
X74729Y-37680D01*
X74570Y-37521D01*
X74550Y-37512D01*
X74550Y-36237D01*
X74569Y-36229D01*
X74716Y-36082D01*
X74722Y-36114D01*
X74761Y-36172D01*
X74661Y-36273D01*
X74600Y-36420D01*
X74599Y-36579D01*
X74660Y-36726D01*
X74773Y-36838D01*
X74920Y-36899D01*
X74975Y-36899D01*
X75037Y-36962D01*
X75096Y-37001D01*
X75135Y-37027D01*
X75135Y-37027D01*
X75250Y-37050D01*
X76025Y-37050D01*
X75632Y-37443D01*
X75612Y-37435D01*
X75388Y-37434D01*
X75180Y-37520D01*
X75021Y-37679D01*
X74935Y-37887D01*
X74934Y-38111D01*
X75020Y-38319D01*
X75179Y-38478D01*
X75387Y-38564D01*
X75611Y-38565D01*
X75819Y-38479D01*
X75978Y-38320D01*
X75999Y-38269D01*
X76020Y-38319D01*
X76179Y-38478D01*
X76387Y-38564D01*
X76611Y-38565D01*
X76819Y-38479D01*
X76978Y-38320D01*
X77064Y-38112D01*
X77065Y-37888D01*
X76979Y-37680D01*
X76820Y-37521D01*
X76612Y-37435D01*
X76489Y-37435D01*
X76624Y-37300D01*
X82875Y-37300D01*
X83037Y-37462D01*
X83037Y-37462D01*
X83047Y-37472D01*
X82930Y-37520D01*
X82771Y-37679D01*
X82750Y-37730D01*
X82729Y-37680D01*
X82570Y-37521D01*
X82362Y-37435D01*
X82138Y-37434D01*
X81930Y-37520D01*
X81771Y-37679D01*
X81685Y-37887D01*
X81684Y-38111D01*
X81721Y-38200D01*
X81528Y-38200D01*
X81564Y-38112D01*
X81565Y-37888D01*
X81479Y-37680D01*
X81320Y-37521D01*
X81112Y-37435D01*
X80888Y-37434D01*
X80680Y-37520D01*
X80521Y-37679D01*
X80500Y-37730D01*
X80479Y-37680D01*
X80320Y-37521D01*
X80112Y-37435D01*
X79888Y-37434D01*
X79680Y-37520D01*
X79521Y-37679D01*
X79435Y-37887D01*
X79434Y-38111D01*
X79471Y-38200D01*
X79278Y-38200D01*
X79314Y-38112D01*
X79315Y-37888D01*
X79229Y-37680D01*
X79070Y-37521D01*
X78862Y-37435D01*
X78638Y-37434D01*
X78430Y-37520D01*
X78271Y-37679D01*
X78250Y-37730D01*
X78229Y-37680D01*
X78070Y-37521D01*
X77862Y-37435D01*
X77638Y-37434D01*
X77430Y-37520D01*
X77271Y-37679D01*
X77185Y-37887D01*
X77184Y-38111D01*
X77270Y-38319D01*
X77429Y-38478D01*
X77637Y-38564D01*
X77861Y-38565D01*
X77882Y-38556D01*
X78037Y-38712D01*
X78037Y-38712D01*
X78135Y-38777D01*
X78250Y-38800D01*
X80500Y-38800D01*
X82750Y-38800D01*
X83525Y-38800D01*
G54D10*
G36*
X99480Y-45980D02*
X92234Y-45980D01*
X92262Y-45962D01*
X93562Y-44662D01*
X93627Y-44564D01*
X93649Y-44450D01*
X93650Y-44450D01*
X93650Y-44250D01*
X94300Y-44250D01*
X94550Y-44250D01*
X94550Y-44249D01*
X94664Y-44227D01*
X94664Y-44227D01*
X94762Y-44162D01*
X94924Y-44000D01*
X94979Y-44000D01*
X95126Y-43939D01*
X95238Y-43826D01*
X95299Y-43679D01*
X95300Y-43520D01*
X95239Y-43373D01*
X95126Y-43261D01*
X94979Y-43200D01*
X94974Y-43200D01*
X95112Y-43062D01*
X95177Y-42964D01*
X95177Y-42964D01*
X95200Y-42850D01*
X95200Y-42800D01*
X95200Y-42665D01*
X95238Y-42626D01*
X95299Y-42479D01*
X95300Y-42320D01*
X95239Y-42173D01*
X95126Y-42061D01*
X94979Y-42000D01*
X94820Y-41999D01*
X94673Y-42060D01*
X94618Y-42116D01*
X94579Y-42100D01*
X94524Y-42100D01*
X94512Y-42087D01*
X94414Y-42022D01*
X94300Y-42000D01*
X93200Y-42000D01*
X93085Y-42022D01*
X92987Y-42087D01*
X92975Y-42099D01*
X92920Y-42099D01*
X92773Y-42160D01*
X92661Y-42273D01*
X92600Y-42420D01*
X92599Y-42579D01*
X92660Y-42726D01*
X92773Y-42838D01*
X92920Y-42899D01*
X93079Y-42900D01*
X93226Y-42839D01*
X93338Y-42726D01*
X93391Y-42600D01*
X93700Y-42600D01*
X93699Y-42729D01*
X93760Y-42876D01*
X93873Y-42988D01*
X93896Y-42998D01*
X93837Y-43037D01*
X93600Y-43275D01*
X93362Y-43037D01*
X93264Y-42972D01*
X93150Y-42950D01*
X92850Y-42950D01*
X92735Y-42972D01*
X92637Y-43037D01*
X92437Y-43237D01*
X92372Y-43335D01*
X92350Y-43450D01*
X92350Y-44625D01*
X91775Y-45200D01*
X91250Y-45200D01*
X91250Y-45170D01*
X91189Y-45023D01*
X91076Y-44911D01*
X90929Y-44850D01*
X90770Y-44849D01*
X90623Y-44910D01*
X90553Y-44980D01*
X90479Y-44950D01*
X90320Y-44949D01*
X90173Y-45010D01*
X90061Y-45123D01*
X90000Y-45270D01*
X89999Y-45429D01*
X90060Y-45576D01*
X90173Y-45688D01*
X90320Y-45749D01*
X90375Y-45749D01*
X90587Y-45962D01*
X90615Y-45980D01*
X87179Y-45980D01*
X87199Y-45929D01*
X87200Y-45770D01*
X87139Y-45623D01*
X87026Y-45511D01*
X86879Y-45450D01*
X86720Y-45449D01*
X86573Y-45510D01*
X86534Y-45550D01*
X86025Y-45550D01*
X86025Y-44856D01*
X85945Y-44663D01*
X85798Y-44515D01*
X85605Y-44435D01*
X85395Y-44434D01*
X85202Y-44514D01*
X85054Y-44662D01*
X84974Y-44855D01*
X84974Y-45064D01*
X85054Y-45257D01*
X85201Y-45405D01*
X85394Y-45486D01*
X85604Y-45486D01*
X85797Y-45406D01*
X85945Y-45258D01*
X86025Y-45065D01*
X86025Y-44856D01*
X86025Y-45550D01*
X85050Y-45550D01*
X83865Y-45550D01*
X83826Y-45511D01*
X83679Y-45450D01*
X83520Y-45449D01*
X83373Y-45510D01*
X83261Y-45623D01*
X83200Y-45770D01*
X83199Y-45929D01*
X83221Y-45980D01*
X81784Y-45980D01*
X81812Y-45962D01*
X83924Y-43850D01*
X83950Y-43850D01*
X83950Y-43849D01*
X84064Y-43827D01*
X84064Y-43827D01*
X84162Y-43762D01*
X84974Y-42949D01*
X84974Y-43143D01*
X85054Y-43336D01*
X85201Y-43484D01*
X85394Y-43564D01*
X85604Y-43565D01*
X85797Y-43485D01*
X85945Y-43337D01*
X86025Y-43144D01*
X86025Y-42935D01*
X85945Y-42742D01*
X85798Y-42594D01*
X85605Y-42513D01*
X85410Y-42513D01*
X86324Y-41600D01*
X86700Y-41600D01*
X86700Y-41625D01*
X86587Y-41737D01*
X86522Y-41835D01*
X86500Y-41950D01*
X86500Y-42934D01*
X86461Y-42973D01*
X86400Y-43120D01*
X86399Y-43279D01*
X86460Y-43426D01*
X86573Y-43538D01*
X86720Y-43599D01*
X86879Y-43600D01*
X87026Y-43539D01*
X87138Y-43426D01*
X87199Y-43279D01*
X87200Y-43120D01*
X87139Y-42973D01*
X87100Y-42934D01*
X87100Y-42074D01*
X87124Y-42050D01*
X87179Y-42050D01*
X87326Y-41989D01*
X87438Y-41876D01*
X87450Y-41850D01*
X89525Y-41850D01*
X89599Y-41924D01*
X89599Y-41979D01*
X89649Y-42099D01*
X89620Y-42099D01*
X89473Y-42160D01*
X89434Y-42200D01*
X88815Y-42200D01*
X88776Y-42161D01*
X88629Y-42100D01*
X88470Y-42099D01*
X88323Y-42160D01*
X88211Y-42273D01*
X88150Y-42420D01*
X88149Y-42579D01*
X88210Y-42726D01*
X88323Y-42838D01*
X88470Y-42899D01*
X88629Y-42900D01*
X88776Y-42839D01*
X88815Y-42800D01*
X89434Y-42800D01*
X89473Y-42838D01*
X89620Y-42899D01*
X89779Y-42900D01*
X89926Y-42839D01*
X90038Y-42726D01*
X90099Y-42579D01*
X90100Y-42420D01*
X90050Y-42300D01*
X90079Y-42300D01*
X90226Y-42239D01*
X90338Y-42126D01*
X90399Y-41979D01*
X90400Y-41820D01*
X90339Y-41673D01*
X90265Y-41600D01*
X90775Y-41600D01*
X91150Y-41974D01*
X91150Y-42234D01*
X91111Y-42273D01*
X91050Y-42420D01*
X91049Y-42579D01*
X91110Y-42726D01*
X91223Y-42838D01*
X91370Y-42899D01*
X91529Y-42900D01*
X91676Y-42839D01*
X91788Y-42726D01*
X91849Y-42579D01*
X91850Y-42420D01*
X91789Y-42273D01*
X91750Y-42234D01*
X91750Y-41850D01*
X91727Y-41735D01*
X91662Y-41637D01*
X91662Y-41637D01*
X91374Y-41350D01*
X94525Y-41350D01*
X94937Y-41762D01*
X94937Y-41762D01*
X95035Y-41827D01*
X95150Y-41850D01*
X95300Y-41850D01*
X95300Y-41849D01*
X95414Y-41827D01*
X95414Y-41827D01*
X95512Y-41762D01*
X95674Y-41600D01*
X95729Y-41600D01*
X95876Y-41539D01*
X95988Y-41426D01*
X96049Y-41279D01*
X96050Y-41120D01*
X95989Y-40973D01*
X95876Y-40861D01*
X95729Y-40800D01*
X95570Y-40799D01*
X95461Y-40845D01*
X95426Y-40811D01*
X95279Y-40750D01*
X95224Y-40750D01*
X95062Y-40587D01*
X94964Y-40522D01*
X94850Y-40500D01*
X86100Y-40500D01*
X85985Y-40522D01*
X85946Y-40548D01*
X85887Y-40587D01*
X85050Y-41425D01*
X85050Y-41150D01*
X85027Y-41035D01*
X84962Y-40937D01*
X84600Y-40575D01*
X84600Y-40574D01*
X84962Y-40212D01*
X85027Y-40114D01*
X85049Y-40000D01*
X85050Y-40000D01*
X85050Y-39200D01*
X85027Y-39085D01*
X84962Y-38987D01*
X84774Y-38800D01*
X85000Y-38800D01*
X87250Y-38800D01*
X89500Y-38800D01*
X91750Y-38800D01*
X93000Y-38800D01*
X95250Y-38800D01*
X95250Y-38799D01*
X95364Y-38777D01*
X95364Y-38777D01*
X95462Y-38712D01*
X95617Y-38556D01*
X95637Y-38564D01*
X95861Y-38565D01*
X96069Y-38479D01*
X96228Y-38320D01*
X96249Y-38269D01*
X96270Y-38319D01*
X96429Y-38478D01*
X96637Y-38564D01*
X96861Y-38565D01*
X97069Y-38479D01*
X97228Y-38320D01*
X97314Y-38112D01*
X97315Y-37888D01*
X97229Y-37680D01*
X97070Y-37521D01*
X96862Y-37435D01*
X96638Y-37434D01*
X96440Y-37516D01*
X96212Y-37287D01*
X96114Y-37222D01*
X96000Y-37200D01*
X95574Y-37200D01*
X95712Y-37062D01*
X95712Y-37062D01*
X95751Y-37003D01*
X95777Y-36964D01*
X95777Y-36964D01*
X95800Y-36850D01*
X95800Y-36624D01*
X95874Y-36550D01*
X96250Y-36550D01*
X96250Y-36549D01*
X96364Y-36527D01*
X96364Y-36527D01*
X96462Y-36462D01*
X96617Y-36306D01*
X96637Y-36314D01*
X96861Y-36315D01*
X97069Y-36229D01*
X97228Y-36070D01*
X97314Y-35862D01*
X97315Y-35638D01*
X97229Y-35430D01*
X97070Y-35271D01*
X96862Y-35185D01*
X96638Y-35184D01*
X96440Y-35266D01*
X96212Y-35037D01*
X96114Y-34972D01*
X96000Y-34950D01*
X95800Y-34950D01*
X95800Y-34424D01*
X95924Y-34300D01*
X96250Y-34300D01*
X96250Y-34299D01*
X96364Y-34277D01*
X96364Y-34277D01*
X96462Y-34212D01*
X96617Y-34056D01*
X96637Y-34064D01*
X96861Y-34065D01*
X97069Y-33979D01*
X97228Y-33820D01*
X97314Y-33612D01*
X97315Y-33388D01*
X97229Y-33180D01*
X97070Y-33021D01*
X96862Y-32935D01*
X96638Y-32934D01*
X96617Y-32943D01*
X96462Y-32787D01*
X96364Y-32722D01*
X96250Y-32700D01*
X95874Y-32700D01*
X95800Y-32625D01*
X95800Y-32124D01*
X95874Y-32050D01*
X95950Y-32050D01*
X95950Y-32049D01*
X96064Y-32027D01*
X96064Y-32027D01*
X96162Y-31962D01*
X96412Y-31711D01*
X96429Y-31728D01*
X96637Y-31814D01*
X96861Y-31815D01*
X97069Y-31729D01*
X97228Y-31570D01*
X97314Y-31362D01*
X97315Y-31138D01*
X97229Y-30930D01*
X97070Y-30771D01*
X96862Y-30685D01*
X96638Y-30684D01*
X96430Y-30770D01*
X96271Y-30929D01*
X96250Y-30980D01*
X96229Y-30930D01*
X96070Y-30771D01*
X95862Y-30685D01*
X95638Y-30684D01*
X95430Y-30770D01*
X95271Y-30929D01*
X95185Y-31137D01*
X95184Y-31361D01*
X95193Y-31382D01*
X95037Y-31537D01*
X94972Y-31635D01*
X94950Y-31750D01*
X94950Y-33151D01*
X94820Y-33021D01*
X94800Y-33012D01*
X94800Y-31737D01*
X94819Y-31729D01*
X94978Y-31570D01*
X95064Y-31362D01*
X95065Y-31138D01*
X94979Y-30930D01*
X94820Y-30771D01*
X94612Y-30685D01*
X94388Y-30684D01*
X94180Y-30770D01*
X94021Y-30929D01*
X94000Y-30980D01*
X93979Y-30930D01*
X93820Y-30771D01*
X93612Y-30685D01*
X93388Y-30684D01*
X93180Y-30770D01*
X93021Y-30929D01*
X92935Y-31137D01*
X92934Y-31361D01*
X93020Y-31569D01*
X93179Y-31728D01*
X93387Y-31814D01*
X93611Y-31815D01*
X93819Y-31729D01*
X93978Y-31570D01*
X93999Y-31519D01*
X94020Y-31569D01*
X94179Y-31728D01*
X94200Y-31737D01*
X94200Y-33012D01*
X94180Y-33020D01*
X94021Y-33179D01*
X94000Y-33230D01*
X93979Y-33180D01*
X93820Y-33021D01*
X93612Y-32935D01*
X93388Y-32934D01*
X93180Y-33020D01*
X93021Y-33179D01*
X92935Y-33387D01*
X92934Y-33611D01*
X93020Y-33819D01*
X93179Y-33978D01*
X93387Y-34064D01*
X93611Y-34065D01*
X93819Y-33979D01*
X93978Y-33820D01*
X93999Y-33769D01*
X94020Y-33819D01*
X94179Y-33978D01*
X94200Y-33987D01*
X94200Y-35262D01*
X94180Y-35270D01*
X94021Y-35429D01*
X94000Y-35480D01*
X93979Y-35430D01*
X93820Y-35271D01*
X93612Y-35185D01*
X93388Y-35184D01*
X93180Y-35270D01*
X93021Y-35429D01*
X92935Y-35637D01*
X92934Y-35861D01*
X93020Y-36069D01*
X93179Y-36228D01*
X93387Y-36314D01*
X93519Y-36314D01*
X93472Y-36385D01*
X93450Y-36500D01*
X93450Y-37250D01*
X93472Y-37364D01*
X93519Y-37435D01*
X93388Y-37434D01*
X93180Y-37520D01*
X93021Y-37679D01*
X92935Y-37887D01*
X92934Y-38111D01*
X92943Y-38132D01*
X92875Y-38200D01*
X92778Y-38200D01*
X92814Y-38112D01*
X92815Y-37888D01*
X92729Y-37680D01*
X92570Y-37521D01*
X92550Y-37512D01*
X92550Y-36237D01*
X92569Y-36229D01*
X92728Y-36070D01*
X92814Y-35862D01*
X92815Y-35638D01*
X92729Y-35430D01*
X92570Y-35271D01*
X92550Y-35262D01*
X92550Y-33987D01*
X92569Y-33979D01*
X92728Y-33820D01*
X92814Y-33612D01*
X92815Y-33388D01*
X92729Y-33180D01*
X92570Y-33021D01*
X92550Y-33012D01*
X92550Y-31737D01*
X92569Y-31729D01*
X92728Y-31570D01*
X92814Y-31362D01*
X92815Y-31138D01*
X92729Y-30930D01*
X92570Y-30771D01*
X92362Y-30685D01*
X92138Y-30684D01*
X91930Y-30770D01*
X91771Y-30929D01*
X91750Y-30980D01*
X91729Y-30930D01*
X91570Y-30771D01*
X91362Y-30685D01*
X91138Y-30684D01*
X90930Y-30770D01*
X90771Y-30929D01*
X90685Y-31137D01*
X90684Y-31361D01*
X90770Y-31569D01*
X90929Y-31728D01*
X91137Y-31814D01*
X91361Y-31815D01*
X91569Y-31729D01*
X91728Y-31570D01*
X91749Y-31519D01*
X91770Y-31569D01*
X91929Y-31728D01*
X91950Y-31737D01*
X91950Y-33012D01*
X91930Y-33020D01*
X91771Y-33179D01*
X91750Y-33230D01*
X91729Y-33180D01*
X91570Y-33021D01*
X91362Y-32935D01*
X91138Y-32934D01*
X90930Y-33020D01*
X90771Y-33179D01*
X90685Y-33387D01*
X90684Y-33611D01*
X90770Y-33819D01*
X90929Y-33978D01*
X91137Y-34064D01*
X91361Y-34065D01*
X91569Y-33979D01*
X91728Y-33820D01*
X91749Y-33769D01*
X91770Y-33819D01*
X91929Y-33978D01*
X91950Y-33987D01*
X91950Y-35262D01*
X91930Y-35270D01*
X91771Y-35429D01*
X91750Y-35480D01*
X91729Y-35430D01*
X91570Y-35271D01*
X91362Y-35185D01*
X91138Y-35184D01*
X90930Y-35270D01*
X90771Y-35429D01*
X90685Y-35637D01*
X90684Y-35861D01*
X90770Y-36069D01*
X90929Y-36228D01*
X91137Y-36314D01*
X91361Y-36315D01*
X91569Y-36229D01*
X91728Y-36070D01*
X91749Y-36019D01*
X91770Y-36069D01*
X91929Y-36228D01*
X91950Y-36237D01*
X91950Y-37512D01*
X91930Y-37520D01*
X91771Y-37679D01*
X91750Y-37730D01*
X91729Y-37680D01*
X91570Y-37521D01*
X91362Y-37435D01*
X91138Y-37434D01*
X90930Y-37520D01*
X90771Y-37679D01*
X90685Y-37887D01*
X90684Y-38111D01*
X90721Y-38200D01*
X90528Y-38200D01*
X90564Y-38112D01*
X90565Y-37888D01*
X90479Y-37680D01*
X90320Y-37521D01*
X90300Y-37512D01*
X90300Y-36237D01*
X90319Y-36229D01*
X90478Y-36070D01*
X90564Y-35862D01*
X90565Y-35638D01*
X90479Y-35430D01*
X90320Y-35271D01*
X90300Y-35262D01*
X90300Y-33987D01*
X90319Y-33979D01*
X90478Y-33820D01*
X90564Y-33612D01*
X90565Y-33388D01*
X90479Y-33180D01*
X90320Y-33021D01*
X90300Y-33012D01*
X90300Y-31737D01*
X90319Y-31729D01*
X90478Y-31570D01*
X90564Y-31362D01*
X90565Y-31138D01*
X90479Y-30930D01*
X90320Y-30771D01*
X90112Y-30685D01*
X89888Y-30684D01*
X89680Y-30770D01*
X89521Y-30929D01*
X89500Y-30980D01*
X89479Y-30930D01*
X89320Y-30771D01*
X89112Y-30685D01*
X88888Y-30684D01*
X88680Y-30770D01*
X88521Y-30929D01*
X88435Y-31137D01*
X88434Y-31361D01*
X88520Y-31569D01*
X88679Y-31728D01*
X88887Y-31814D01*
X89111Y-31815D01*
X89319Y-31729D01*
X89478Y-31570D01*
X89499Y-31519D01*
X89520Y-31569D01*
X89679Y-31728D01*
X89700Y-31737D01*
X89700Y-33012D01*
X89680Y-33020D01*
X89521Y-33179D01*
X89500Y-33230D01*
X89479Y-33180D01*
X89320Y-33021D01*
X89112Y-32935D01*
X88888Y-32934D01*
X88680Y-33020D01*
X88521Y-33179D01*
X88435Y-33387D01*
X88434Y-33611D01*
X88520Y-33819D01*
X88679Y-33978D01*
X88887Y-34064D01*
X89111Y-34065D01*
X89319Y-33979D01*
X89478Y-33820D01*
X89499Y-33769D01*
X89520Y-33819D01*
X89679Y-33978D01*
X89700Y-33987D01*
X89700Y-35262D01*
X89680Y-35270D01*
X89521Y-35429D01*
X89500Y-35480D01*
X89479Y-35430D01*
X89320Y-35271D01*
X89112Y-35185D01*
X88888Y-35184D01*
X88680Y-35270D01*
X88521Y-35429D01*
X88435Y-35637D01*
X88434Y-35861D01*
X88520Y-36069D01*
X88679Y-36228D01*
X88887Y-36314D01*
X89111Y-36315D01*
X89319Y-36229D01*
X89478Y-36070D01*
X89499Y-36019D01*
X89520Y-36069D01*
X89679Y-36228D01*
X89700Y-36237D01*
X89700Y-37512D01*
X89680Y-37520D01*
X89521Y-37679D01*
X89500Y-37730D01*
X89479Y-37680D01*
X89320Y-37521D01*
X89112Y-37435D01*
X88888Y-37434D01*
X88680Y-37520D01*
X88521Y-37679D01*
X88435Y-37887D01*
X88434Y-38111D01*
X88471Y-38200D01*
X88278Y-38200D01*
X88314Y-38112D01*
X88315Y-37888D01*
X88315Y-35638D01*
X88229Y-35430D01*
X88070Y-35271D01*
X88050Y-35262D01*
X88050Y-33987D01*
X88069Y-33979D01*
X88228Y-33820D01*
X88314Y-33612D01*
X88315Y-33388D01*
X88229Y-33180D01*
X88070Y-33021D01*
X88050Y-33012D01*
X88050Y-31737D01*
X88069Y-31729D01*
X88228Y-31570D01*
X88314Y-31362D01*
X88315Y-31138D01*
X88229Y-30930D01*
X88070Y-30771D01*
X87862Y-30685D01*
X87638Y-30684D01*
X87430Y-30770D01*
X87271Y-30929D01*
X87250Y-30980D01*
X87229Y-30930D01*
X87070Y-30771D01*
X86862Y-30685D01*
X86638Y-30684D01*
X86430Y-30770D01*
X86271Y-30929D01*
X86185Y-31137D01*
X86184Y-31361D01*
X86270Y-31569D01*
X86429Y-31728D01*
X86637Y-31814D01*
X86861Y-31815D01*
X87069Y-31729D01*
X87228Y-31570D01*
X87249Y-31519D01*
X87270Y-31569D01*
X87429Y-31728D01*
X87450Y-31737D01*
X87450Y-33012D01*
X87430Y-33020D01*
X87271Y-33179D01*
X87250Y-33230D01*
X87229Y-33180D01*
X87070Y-33021D01*
X86862Y-32935D01*
X86638Y-32934D01*
X86430Y-33020D01*
X86271Y-33179D01*
X86185Y-33387D01*
X86184Y-33611D01*
X86270Y-33819D01*
X86429Y-33978D01*
X86637Y-34064D01*
X86861Y-34065D01*
X87069Y-33979D01*
X87228Y-33820D01*
X87249Y-33769D01*
X87270Y-33819D01*
X87429Y-33978D01*
X87450Y-33987D01*
X87450Y-35262D01*
X87430Y-35270D01*
X87271Y-35429D01*
X87250Y-35480D01*
X87229Y-35430D01*
X87070Y-35271D01*
X86862Y-35185D01*
X86638Y-35184D01*
X86430Y-35270D01*
X86271Y-35429D01*
X86185Y-35637D01*
X86184Y-35861D01*
X86270Y-36069D01*
X86429Y-36228D01*
X86637Y-36314D01*
X86861Y-36315D01*
X87069Y-36229D01*
X87228Y-36070D01*
X87249Y-36019D01*
X87270Y-36069D01*
X87429Y-36228D01*
X87637Y-36314D01*
X87861Y-36315D01*
X88069Y-36229D01*
X88228Y-36070D01*
X88314Y-35862D01*
X88315Y-35638D01*
X88315Y-37888D01*
X88229Y-37680D01*
X88070Y-37521D01*
X87862Y-37435D01*
X87638Y-37434D01*
X87430Y-37520D01*
X87271Y-37679D01*
X87250Y-37730D01*
X87229Y-37680D01*
X87070Y-37521D01*
X86862Y-37435D01*
X86638Y-37434D01*
X86430Y-37520D01*
X86271Y-37679D01*
X86185Y-37887D01*
X86184Y-38111D01*
X86221Y-38200D01*
X86028Y-38200D01*
X86064Y-38112D01*
X86065Y-37888D01*
X85979Y-37680D01*
X85820Y-37521D01*
X85612Y-37435D01*
X85388Y-37434D01*
X85180Y-37520D01*
X85021Y-37679D01*
X85000Y-37730D01*
X84979Y-37680D01*
X84820Y-37521D01*
X84702Y-37472D01*
X85124Y-37050D01*
X85734Y-37050D01*
X85773Y-37088D01*
X85920Y-37149D01*
X86079Y-37150D01*
X86226Y-37089D01*
X86338Y-36976D01*
X86399Y-36829D01*
X86400Y-36670D01*
X86339Y-36523D01*
X86226Y-36411D01*
X86079Y-36350D01*
X85920Y-36349D01*
X85773Y-36410D01*
X85734Y-36450D01*
X85000Y-36450D01*
X84885Y-36472D01*
X84827Y-36511D01*
X84726Y-36411D01*
X84579Y-36350D01*
X84420Y-36349D01*
X84385Y-36364D01*
X84399Y-36329D01*
X84399Y-36314D01*
X84611Y-36315D01*
X84819Y-36229D01*
X84978Y-36070D01*
X84999Y-36019D01*
X85020Y-36069D01*
X85179Y-36228D01*
X85387Y-36314D01*
X85611Y-36315D01*
X85819Y-36229D01*
X85978Y-36070D01*
X86064Y-35862D01*
X86065Y-35638D01*
X85979Y-35430D01*
X85820Y-35271D01*
X85800Y-35262D01*
X85800Y-33987D01*
X85819Y-33979D01*
X85978Y-33820D01*
X86064Y-33612D01*
X86065Y-33388D01*
X85979Y-33180D01*
X85820Y-33021D01*
X85800Y-33012D01*
X85800Y-31737D01*
X85819Y-31729D01*
X85978Y-31570D01*
X86064Y-31362D01*
X86065Y-31138D01*
X85979Y-30930D01*
X85820Y-30771D01*
X85612Y-30685D01*
X85388Y-30684D01*
X85180Y-30770D01*
X85021Y-30929D01*
X85000Y-30980D01*
X84979Y-30930D01*
X84820Y-30771D01*
X84612Y-30685D01*
X84388Y-30684D01*
X84180Y-30770D01*
X84021Y-30929D01*
X83935Y-31137D01*
X83934Y-31361D01*
X84020Y-31569D01*
X84179Y-31728D01*
X84387Y-31814D01*
X84611Y-31815D01*
X84819Y-31729D01*
X84978Y-31570D01*
X84999Y-31519D01*
X85020Y-31569D01*
X85179Y-31728D01*
X85200Y-31737D01*
X85200Y-33012D01*
X85180Y-33020D01*
X85021Y-33179D01*
X85000Y-33230D01*
X84979Y-33180D01*
X84820Y-33021D01*
X84612Y-32935D01*
X84388Y-32934D01*
X84180Y-33020D01*
X84021Y-33179D01*
X83935Y-33387D01*
X83934Y-33611D01*
X84020Y-33819D01*
X84179Y-33978D01*
X84387Y-34064D01*
X84611Y-34065D01*
X84819Y-33979D01*
X84978Y-33820D01*
X84999Y-33769D01*
X85020Y-33819D01*
X85179Y-33978D01*
X85200Y-33987D01*
X85200Y-35262D01*
X85180Y-35270D01*
X85021Y-35429D01*
X85000Y-35480D01*
X84979Y-35430D01*
X84820Y-35271D01*
X84612Y-35185D01*
X84388Y-35184D01*
X84180Y-35270D01*
X84021Y-35429D01*
X83935Y-35637D01*
X83934Y-35849D01*
X83920Y-35849D01*
X83799Y-35900D01*
X83814Y-35862D01*
X83815Y-35638D01*
X83729Y-35430D01*
X83570Y-35271D01*
X83550Y-35262D01*
X83550Y-33987D01*
X83569Y-33979D01*
X83728Y-33820D01*
X83814Y-33612D01*
X83815Y-33388D01*
X83729Y-33180D01*
X83570Y-33021D01*
X83550Y-33012D01*
X83550Y-31737D01*
X83569Y-31729D01*
X83728Y-31570D01*
X83814Y-31362D01*
X83815Y-31138D01*
X83729Y-30930D01*
X83570Y-30771D01*
X83362Y-30685D01*
X83138Y-30684D01*
X82930Y-30770D01*
X82771Y-30929D01*
X82750Y-30980D01*
X82729Y-30930D01*
X82570Y-30771D01*
X82362Y-30685D01*
X82138Y-30684D01*
X81930Y-30770D01*
X81771Y-30929D01*
X81685Y-31137D01*
X81684Y-31361D01*
X81770Y-31569D01*
X81929Y-31728D01*
X82137Y-31814D01*
X82361Y-31815D01*
X82569Y-31729D01*
X82728Y-31570D01*
X82749Y-31519D01*
X82770Y-31569D01*
X82929Y-31728D01*
X82950Y-31737D01*
X82950Y-33012D01*
X82930Y-33020D01*
X82771Y-33179D01*
X82750Y-33230D01*
X82729Y-33180D01*
X82570Y-33021D01*
X82362Y-32935D01*
X82138Y-32934D01*
X81930Y-33020D01*
X81771Y-33179D01*
X81685Y-33387D01*
X81684Y-33611D01*
X81770Y-33819D01*
X81929Y-33978D01*
X82137Y-34064D01*
X82361Y-34065D01*
X82569Y-33979D01*
X82728Y-33820D01*
X82749Y-33769D01*
X82770Y-33819D01*
X82929Y-33978D01*
X82950Y-33987D01*
X82950Y-35262D01*
X82930Y-35270D01*
X82771Y-35429D01*
X82750Y-35480D01*
X82729Y-35430D01*
X82570Y-35271D01*
X82362Y-35185D01*
X82138Y-35184D01*
X81930Y-35270D01*
X81771Y-35429D01*
X81685Y-35637D01*
X81684Y-35861D01*
X81721Y-35950D01*
X81528Y-35950D01*
X81564Y-35862D01*
X81565Y-35638D01*
X81479Y-35430D01*
X81320Y-35271D01*
X81300Y-35262D01*
X81300Y-33987D01*
X81319Y-33979D01*
X81478Y-33820D01*
X81564Y-33612D01*
X81565Y-33388D01*
X81479Y-33180D01*
X81320Y-33021D01*
X81300Y-33012D01*
X81300Y-31737D01*
X81319Y-31729D01*
X81478Y-31570D01*
X81564Y-31362D01*
X81565Y-31138D01*
X81479Y-30930D01*
X81320Y-30771D01*
X81112Y-30685D01*
X80888Y-30684D01*
X80867Y-30693D01*
X80712Y-30537D01*
X80614Y-30472D01*
X80500Y-30450D01*
X79750Y-30450D01*
X78874Y-30450D01*
X78712Y-30287D01*
X78684Y-30269D01*
X99480Y-30269D01*
X99480Y-30933D01*
X99479Y-30930D01*
X99320Y-30771D01*
X99112Y-30685D01*
X98888Y-30684D01*
X98680Y-30770D01*
X98521Y-30929D01*
X98500Y-30980D01*
X98479Y-30930D01*
X98320Y-30771D01*
X98112Y-30685D01*
X97888Y-30684D01*
X97680Y-30770D01*
X97521Y-30929D01*
X97435Y-31137D01*
X97434Y-31361D01*
X97520Y-31569D01*
X97679Y-31728D01*
X97887Y-31814D01*
X98111Y-31815D01*
X98319Y-31729D01*
X98478Y-31570D01*
X98499Y-31519D01*
X98520Y-31569D01*
X98679Y-31728D01*
X98887Y-31814D01*
X98950Y-31814D01*
X98950Y-32934D01*
X98888Y-32934D01*
X98680Y-33020D01*
X98521Y-33179D01*
X98500Y-33230D01*
X98479Y-33180D01*
X98320Y-33021D01*
X98112Y-32935D01*
X97888Y-32934D01*
X97680Y-33020D01*
X97521Y-33179D01*
X97435Y-33387D01*
X97434Y-33611D01*
X97520Y-33819D01*
X97679Y-33978D01*
X97887Y-34064D01*
X98111Y-34065D01*
X98319Y-33979D01*
X98478Y-33820D01*
X98499Y-33769D01*
X98520Y-33819D01*
X98679Y-33978D01*
X98887Y-34064D01*
X98950Y-34064D01*
X98950Y-35184D01*
X98888Y-35184D01*
X98680Y-35270D01*
X98521Y-35429D01*
X98500Y-35480D01*
X98479Y-35430D01*
X98320Y-35271D01*
X98112Y-35185D01*
X97888Y-35184D01*
X97680Y-35270D01*
X97521Y-35429D01*
X97435Y-35637D01*
X97434Y-35861D01*
X97520Y-36069D01*
X97679Y-36228D01*
X97887Y-36314D01*
X98111Y-36315D01*
X98319Y-36229D01*
X98478Y-36070D01*
X98499Y-36019D01*
X98520Y-36069D01*
X98679Y-36228D01*
X98887Y-36314D01*
X98950Y-36314D01*
X98950Y-37375D01*
X98890Y-37434D01*
X98888Y-37434D01*
X98680Y-37520D01*
X98521Y-37679D01*
X98500Y-37730D01*
X98479Y-37680D01*
X98320Y-37521D01*
X98112Y-37435D01*
X97888Y-37434D01*
X97680Y-37520D01*
X97521Y-37679D01*
X97435Y-37887D01*
X97434Y-38111D01*
X97520Y-38319D01*
X97679Y-38478D01*
X97887Y-38564D01*
X98111Y-38565D01*
X98319Y-38479D01*
X98478Y-38320D01*
X98499Y-38269D01*
X98520Y-38319D01*
X98679Y-38478D01*
X98887Y-38564D01*
X99111Y-38565D01*
X99319Y-38479D01*
X99478Y-38320D01*
X99480Y-38316D01*
X99480Y-45980D01*
X99480Y-45980D01*
G37*
G54D20*
X99480Y-45980D02*
X92234Y-45980D01*
X92262Y-45962D01*
X93562Y-44662D01*
X93627Y-44564D01*
X93649Y-44450D01*
X93650Y-44450D01*
X93650Y-44250D01*
X94300Y-44250D01*
X94550Y-44250D01*
X94550Y-44249D01*
X94664Y-44227D01*
X94664Y-44227D01*
X94762Y-44162D01*
X94924Y-44000D01*
X94979Y-44000D01*
X95126Y-43939D01*
X95238Y-43826D01*
X95299Y-43679D01*
X95300Y-43520D01*
X95239Y-43373D01*
X95126Y-43261D01*
X94979Y-43200D01*
X94974Y-43200D01*
X95112Y-43062D01*
X95177Y-42964D01*
X95177Y-42964D01*
X95200Y-42850D01*
X95200Y-42800D01*
X95200Y-42665D01*
X95238Y-42626D01*
X95299Y-42479D01*
X95300Y-42320D01*
X95239Y-42173D01*
X95126Y-42061D01*
X94979Y-42000D01*
X94820Y-41999D01*
X94673Y-42060D01*
X94618Y-42116D01*
X94579Y-42100D01*
X94524Y-42100D01*
X94512Y-42087D01*
X94414Y-42022D01*
X94300Y-42000D01*
X93200Y-42000D01*
X93085Y-42022D01*
X92987Y-42087D01*
X92975Y-42099D01*
X92920Y-42099D01*
X92773Y-42160D01*
X92661Y-42273D01*
X92600Y-42420D01*
X92599Y-42579D01*
X92660Y-42726D01*
X92773Y-42838D01*
X92920Y-42899D01*
X93079Y-42900D01*
X93226Y-42839D01*
X93338Y-42726D01*
X93391Y-42600D01*
X93700Y-42600D01*
X93699Y-42729D01*
X93760Y-42876D01*
X93873Y-42988D01*
X93896Y-42998D01*
X93837Y-43037D01*
X93600Y-43275D01*
X93362Y-43037D01*
X93264Y-42972D01*
X93150Y-42950D01*
X92850Y-42950D01*
X92735Y-42972D01*
X92637Y-43037D01*
X92437Y-43237D01*
X92372Y-43335D01*
X92350Y-43450D01*
X92350Y-44625D01*
X91775Y-45200D01*
X91250Y-45200D01*
X91250Y-45170D01*
X91189Y-45023D01*
X91076Y-44911D01*
X90929Y-44850D01*
X90770Y-44849D01*
X90623Y-44910D01*
X90553Y-44980D01*
X90479Y-44950D01*
X90320Y-44949D01*
X90173Y-45010D01*
X90061Y-45123D01*
X90000Y-45270D01*
X89999Y-45429D01*
X90060Y-45576D01*
X90173Y-45688D01*
X90320Y-45749D01*
X90375Y-45749D01*
X90587Y-45962D01*
X90615Y-45980D01*
X87179Y-45980D01*
X87199Y-45929D01*
X87200Y-45770D01*
X87139Y-45623D01*
X87026Y-45511D01*
X86879Y-45450D01*
X86720Y-45449D01*
X86573Y-45510D01*
X86534Y-45550D01*
X86025Y-45550D01*
X86025Y-44856D01*
X85945Y-44663D01*
X85798Y-44515D01*
X85605Y-44435D01*
X85395Y-44434D01*
X85202Y-44514D01*
X85054Y-44662D01*
X84974Y-44855D01*
X84974Y-45064D01*
X85054Y-45257D01*
X85201Y-45405D01*
X85394Y-45486D01*
X85604Y-45486D01*
X85797Y-45406D01*
X85945Y-45258D01*
X86025Y-45065D01*
X86025Y-44856D01*
X86025Y-45550D01*
X85050Y-45550D01*
X83865Y-45550D01*
X83826Y-45511D01*
X83679Y-45450D01*
X83520Y-45449D01*
X83373Y-45510D01*
X83261Y-45623D01*
X83200Y-45770D01*
X83199Y-45929D01*
X83221Y-45980D01*
X81784Y-45980D01*
X81812Y-45962D01*
X83924Y-43850D01*
X83950Y-43850D01*
X83950Y-43849D01*
X84064Y-43827D01*
X84064Y-43827D01*
X84162Y-43762D01*
X84974Y-42949D01*
X84974Y-43143D01*
X85054Y-43336D01*
X85201Y-43484D01*
X85394Y-43564D01*
X85604Y-43565D01*
X85797Y-43485D01*
X85945Y-43337D01*
X86025Y-43144D01*
X86025Y-42935D01*
X85945Y-42742D01*
X85798Y-42594D01*
X85605Y-42513D01*
X85410Y-42513D01*
X86324Y-41600D01*
X86700Y-41600D01*
X86700Y-41625D01*
X86587Y-41737D01*
X86522Y-41835D01*
X86500Y-41950D01*
X86500Y-42934D01*
X86461Y-42973D01*
X86400Y-43120D01*
X86399Y-43279D01*
X86460Y-43426D01*
X86573Y-43538D01*
X86720Y-43599D01*
X86879Y-43600D01*
X87026Y-43539D01*
X87138Y-43426D01*
X87199Y-43279D01*
X87200Y-43120D01*
X87139Y-42973D01*
X87100Y-42934D01*
X87100Y-42074D01*
X87124Y-42050D01*
X87179Y-42050D01*
X87326Y-41989D01*
X87438Y-41876D01*
X87450Y-41850D01*
X89525Y-41850D01*
X89599Y-41924D01*
X89599Y-41979D01*
X89649Y-42099D01*
X89620Y-42099D01*
X89473Y-42160D01*
X89434Y-42200D01*
X88815Y-42200D01*
X88776Y-42161D01*
X88629Y-42100D01*
X88470Y-42099D01*
X88323Y-42160D01*
X88211Y-42273D01*
X88150Y-42420D01*
X88149Y-42579D01*
X88210Y-42726D01*
X88323Y-42838D01*
X88470Y-42899D01*
X88629Y-42900D01*
X88776Y-42839D01*
X88815Y-42800D01*
X89434Y-42800D01*
X89473Y-42838D01*
X89620Y-42899D01*
X89779Y-42900D01*
X89926Y-42839D01*
X90038Y-42726D01*
X90099Y-42579D01*
X90100Y-42420D01*
X90050Y-42300D01*
X90079Y-42300D01*
X90226Y-42239D01*
X90338Y-42126D01*
X90399Y-41979D01*
X90400Y-41820D01*
X90339Y-41673D01*
X90265Y-41600D01*
X90775Y-41600D01*
X91150Y-41974D01*
X91150Y-42234D01*
X91111Y-42273D01*
X91050Y-42420D01*
X91049Y-42579D01*
X91110Y-42726D01*
X91223Y-42838D01*
X91370Y-42899D01*
X91529Y-42900D01*
X91676Y-42839D01*
X91788Y-42726D01*
X91849Y-42579D01*
X91850Y-42420D01*
X91789Y-42273D01*
X91750Y-42234D01*
X91750Y-41850D01*
X91727Y-41735D01*
X91662Y-41637D01*
X91662Y-41637D01*
X91374Y-41350D01*
X94525Y-41350D01*
X94937Y-41762D01*
X94937Y-41762D01*
X95035Y-41827D01*
X95150Y-41850D01*
X95300Y-41850D01*
X95300Y-41849D01*
X95414Y-41827D01*
X95414Y-41827D01*
X95512Y-41762D01*
X95674Y-41600D01*
X95729Y-41600D01*
X95876Y-41539D01*
X95988Y-41426D01*
X96049Y-41279D01*
X96050Y-41120D01*
X95989Y-40973D01*
X95876Y-40861D01*
X95729Y-40800D01*
X95570Y-40799D01*
X95461Y-40845D01*
X95426Y-40811D01*
X95279Y-40750D01*
X95224Y-40750D01*
X95062Y-40587D01*
X94964Y-40522D01*
X94850Y-40500D01*
X86100Y-40500D01*
X85985Y-40522D01*
X85946Y-40548D01*
X85887Y-40587D01*
X85050Y-41425D01*
X85050Y-41150D01*
X85027Y-41035D01*
X84962Y-40937D01*
X84600Y-40575D01*
X84600Y-40574D01*
X84962Y-40212D01*
X85027Y-40114D01*
X85049Y-40000D01*
X85050Y-40000D01*
X85050Y-39200D01*
X85027Y-39085D01*
X84962Y-38987D01*
X84774Y-38800D01*
X85000Y-38800D01*
X87250Y-38800D01*
X89500Y-38800D01*
X91750Y-38800D01*
X93000Y-38800D01*
X95250Y-38800D01*
X95250Y-38799D01*
X95364Y-38777D01*
X95364Y-38777D01*
X95462Y-38712D01*
X95617Y-38556D01*
X95637Y-38564D01*
X95861Y-38565D01*
X96069Y-38479D01*
X96228Y-38320D01*
X96249Y-38269D01*
X96270Y-38319D01*
X96429Y-38478D01*
X96637Y-38564D01*
X96861Y-38565D01*
X97069Y-38479D01*
X97228Y-38320D01*
X97314Y-38112D01*
X97315Y-37888D01*
X97229Y-37680D01*
X97070Y-37521D01*
X96862Y-37435D01*
X96638Y-37434D01*
X96440Y-37516D01*
X96212Y-37287D01*
X96114Y-37222D01*
X96000Y-37200D01*
X95574Y-37200D01*
X95712Y-37062D01*
X95712Y-37062D01*
X95751Y-37003D01*
X95777Y-36964D01*
X95777Y-36964D01*
X95800Y-36850D01*
X95800Y-36624D01*
X95874Y-36550D01*
X96250Y-36550D01*
X96250Y-36549D01*
X96364Y-36527D01*
X96364Y-36527D01*
X96462Y-36462D01*
X96617Y-36306D01*
X96637Y-36314D01*
X96861Y-36315D01*
X97069Y-36229D01*
X97228Y-36070D01*
X97314Y-35862D01*
X97315Y-35638D01*
X97229Y-35430D01*
X97070Y-35271D01*
X96862Y-35185D01*
X96638Y-35184D01*
X96440Y-35266D01*
X96212Y-35037D01*
X96114Y-34972D01*
X96000Y-34950D01*
X95800Y-34950D01*
X95800Y-34424D01*
X95924Y-34300D01*
X96250Y-34300D01*
X96250Y-34299D01*
X96364Y-34277D01*
X96364Y-34277D01*
X96462Y-34212D01*
X96617Y-34056D01*
X96637Y-34064D01*
X96861Y-34065D01*
X97069Y-33979D01*
X97228Y-33820D01*
X97314Y-33612D01*
X97315Y-33388D01*
X97229Y-33180D01*
X97070Y-33021D01*
X96862Y-32935D01*
X96638Y-32934D01*
X96617Y-32943D01*
X96462Y-32787D01*
X96364Y-32722D01*
X96250Y-32700D01*
X95874Y-32700D01*
X95800Y-32625D01*
X95800Y-32124D01*
X95874Y-32050D01*
X95950Y-32050D01*
X95950Y-32049D01*
X96064Y-32027D01*
X96064Y-32027D01*
X96162Y-31962D01*
X96412Y-31711D01*
X96429Y-31728D01*
X96637Y-31814D01*
X96861Y-31815D01*
X97069Y-31729D01*
X97228Y-31570D01*
X97314Y-31362D01*
X97315Y-31138D01*
X97229Y-30930D01*
X97070Y-30771D01*
X96862Y-30685D01*
X96638Y-30684D01*
X96430Y-30770D01*
X96271Y-30929D01*
X96250Y-30980D01*
X96229Y-30930D01*
X96070Y-30771D01*
X95862Y-30685D01*
X95638Y-30684D01*
X95430Y-30770D01*
X95271Y-30929D01*
X95185Y-31137D01*
X95184Y-31361D01*
X95193Y-31382D01*
X95037Y-31537D01*
X94972Y-31635D01*
X94950Y-31750D01*
X94950Y-33151D01*
X94820Y-33021D01*
X94800Y-33012D01*
X94800Y-31737D01*
X94819Y-31729D01*
X94978Y-31570D01*
X95064Y-31362D01*
X95065Y-31138D01*
X94979Y-30930D01*
X94820Y-30771D01*
X94612Y-30685D01*
X94388Y-30684D01*
X94180Y-30770D01*
X94021Y-30929D01*
X94000Y-30980D01*
X93979Y-30930D01*
X93820Y-30771D01*
X93612Y-30685D01*
X93388Y-30684D01*
X93180Y-30770D01*
X93021Y-30929D01*
X92935Y-31137D01*
X92934Y-31361D01*
X93020Y-31569D01*
X93179Y-31728D01*
X93387Y-31814D01*
X93611Y-31815D01*
X93819Y-31729D01*
X93978Y-31570D01*
X93999Y-31519D01*
X94020Y-31569D01*
X94179Y-31728D01*
X94200Y-31737D01*
X94200Y-33012D01*
X94180Y-33020D01*
X94021Y-33179D01*
X94000Y-33230D01*
X93979Y-33180D01*
X93820Y-33021D01*
X93612Y-32935D01*
X93388Y-32934D01*
X93180Y-33020D01*
X93021Y-33179D01*
X92935Y-33387D01*
X92934Y-33611D01*
X93020Y-33819D01*
X93179Y-33978D01*
X93387Y-34064D01*
X93611Y-34065D01*
X93819Y-33979D01*
X93978Y-33820D01*
X93999Y-33769D01*
X94020Y-33819D01*
X94179Y-33978D01*
X94200Y-33987D01*
X94200Y-35262D01*
X94180Y-35270D01*
X94021Y-35429D01*
X94000Y-35480D01*
X93979Y-35430D01*
X93820Y-35271D01*
X93612Y-35185D01*
X93388Y-35184D01*
X93180Y-35270D01*
X93021Y-35429D01*
X92935Y-35637D01*
X92934Y-35861D01*
X93020Y-36069D01*
X93179Y-36228D01*
X93387Y-36314D01*
X93519Y-36314D01*
X93472Y-36385D01*
X93450Y-36500D01*
X93450Y-37250D01*
X93472Y-37364D01*
X93519Y-37435D01*
X93388Y-37434D01*
X93180Y-37520D01*
X93021Y-37679D01*
X92935Y-37887D01*
X92934Y-38111D01*
X92943Y-38132D01*
X92875Y-38200D01*
X92778Y-38200D01*
X92814Y-38112D01*
X92815Y-37888D01*
X92729Y-37680D01*
X92570Y-37521D01*
X92550Y-37512D01*
X92550Y-36237D01*
X92569Y-36229D01*
X92728Y-36070D01*
X92814Y-35862D01*
X92815Y-35638D01*
X92729Y-35430D01*
X92570Y-35271D01*
X92550Y-35262D01*
X92550Y-33987D01*
X92569Y-33979D01*
X92728Y-33820D01*
X92814Y-33612D01*
X92815Y-33388D01*
X92729Y-33180D01*
X92570Y-33021D01*
X92550Y-33012D01*
X92550Y-31737D01*
X92569Y-31729D01*
X92728Y-31570D01*
X92814Y-31362D01*
X92815Y-31138D01*
X92729Y-30930D01*
X92570Y-30771D01*
X92362Y-30685D01*
X92138Y-30684D01*
X91930Y-30770D01*
X91771Y-30929D01*
X91750Y-30980D01*
X91729Y-30930D01*
X91570Y-30771D01*
X91362Y-30685D01*
X91138Y-30684D01*
X90930Y-30770D01*
X90771Y-30929D01*
X90685Y-31137D01*
X90684Y-31361D01*
X90770Y-31569D01*
X90929Y-31728D01*
X91137Y-31814D01*
X91361Y-31815D01*
X91569Y-31729D01*
X91728Y-31570D01*
X91749Y-31519D01*
X91770Y-31569D01*
X91929Y-31728D01*
X91950Y-31737D01*
X91950Y-33012D01*
X91930Y-33020D01*
X91771Y-33179D01*
X91750Y-33230D01*
X91729Y-33180D01*
X91570Y-33021D01*
X91362Y-32935D01*
X91138Y-32934D01*
X90930Y-33020D01*
X90771Y-33179D01*
X90685Y-33387D01*
X90684Y-33611D01*
X90770Y-33819D01*
X90929Y-33978D01*
X91137Y-34064D01*
X91361Y-34065D01*
X91569Y-33979D01*
X91728Y-33820D01*
X91749Y-33769D01*
X91770Y-33819D01*
X91929Y-33978D01*
X91950Y-33987D01*
X91950Y-35262D01*
X91930Y-35270D01*
X91771Y-35429D01*
X91750Y-35480D01*
X91729Y-35430D01*
X91570Y-35271D01*
X91362Y-35185D01*
X91138Y-35184D01*
X90930Y-35270D01*
X90771Y-35429D01*
X90685Y-35637D01*
X90684Y-35861D01*
X90770Y-36069D01*
X90929Y-36228D01*
X91137Y-36314D01*
X91361Y-36315D01*
X91569Y-36229D01*
X91728Y-36070D01*
X91749Y-36019D01*
X91770Y-36069D01*
X91929Y-36228D01*
X91950Y-36237D01*
X91950Y-37512D01*
X91930Y-37520D01*
X91771Y-37679D01*
X91750Y-37730D01*
X91729Y-37680D01*
X91570Y-37521D01*
X91362Y-37435D01*
X91138Y-37434D01*
X90930Y-37520D01*
X90771Y-37679D01*
X90685Y-37887D01*
X90684Y-38111D01*
X90721Y-38200D01*
X90528Y-38200D01*
X90564Y-38112D01*
X90565Y-37888D01*
X90479Y-37680D01*
X90320Y-37521D01*
X90300Y-37512D01*
X90300Y-36237D01*
X90319Y-36229D01*
X90478Y-36070D01*
X90564Y-35862D01*
X90565Y-35638D01*
X90479Y-35430D01*
X90320Y-35271D01*
X90300Y-35262D01*
X90300Y-33987D01*
X90319Y-33979D01*
X90478Y-33820D01*
X90564Y-33612D01*
X90565Y-33388D01*
X90479Y-33180D01*
X90320Y-33021D01*
X90300Y-33012D01*
X90300Y-31737D01*
X90319Y-31729D01*
X90478Y-31570D01*
X90564Y-31362D01*
X90565Y-31138D01*
X90479Y-30930D01*
X90320Y-30771D01*
X90112Y-30685D01*
X89888Y-30684D01*
X89680Y-30770D01*
X89521Y-30929D01*
X89500Y-30980D01*
X89479Y-30930D01*
X89320Y-30771D01*
X89112Y-30685D01*
X88888Y-30684D01*
X88680Y-30770D01*
X88521Y-30929D01*
X88435Y-31137D01*
X88434Y-31361D01*
X88520Y-31569D01*
X88679Y-31728D01*
X88887Y-31814D01*
X89111Y-31815D01*
X89319Y-31729D01*
X89478Y-31570D01*
X89499Y-31519D01*
X89520Y-31569D01*
X89679Y-31728D01*
X89700Y-31737D01*
X89700Y-33012D01*
X89680Y-33020D01*
X89521Y-33179D01*
X89500Y-33230D01*
X89479Y-33180D01*
X89320Y-33021D01*
X89112Y-32935D01*
X88888Y-32934D01*
X88680Y-33020D01*
X88521Y-33179D01*
X88435Y-33387D01*
X88434Y-33611D01*
X88520Y-33819D01*
X88679Y-33978D01*
X88887Y-34064D01*
X89111Y-34065D01*
X89319Y-33979D01*
X89478Y-33820D01*
X89499Y-33769D01*
X89520Y-33819D01*
X89679Y-33978D01*
X89700Y-33987D01*
X89700Y-35262D01*
X89680Y-35270D01*
X89521Y-35429D01*
X89500Y-35480D01*
X89479Y-35430D01*
X89320Y-35271D01*
X89112Y-35185D01*
X88888Y-35184D01*
X88680Y-35270D01*
X88521Y-35429D01*
X88435Y-35637D01*
X88434Y-35861D01*
X88520Y-36069D01*
X88679Y-36228D01*
X88887Y-36314D01*
X89111Y-36315D01*
X89319Y-36229D01*
X89478Y-36070D01*
X89499Y-36019D01*
X89520Y-36069D01*
X89679Y-36228D01*
X89700Y-36237D01*
X89700Y-37512D01*
X89680Y-37520D01*
X89521Y-37679D01*
X89500Y-37730D01*
X89479Y-37680D01*
X89320Y-37521D01*
X89112Y-37435D01*
X88888Y-37434D01*
X88680Y-37520D01*
X88521Y-37679D01*
X88435Y-37887D01*
X88434Y-38111D01*
X88471Y-38200D01*
X88278Y-38200D01*
X88314Y-38112D01*
X88315Y-37888D01*
X88315Y-35638D01*
X88229Y-35430D01*
X88070Y-35271D01*
X88050Y-35262D01*
X88050Y-33987D01*
X88069Y-33979D01*
X88228Y-33820D01*
X88314Y-33612D01*
X88315Y-33388D01*
X88229Y-33180D01*
X88070Y-33021D01*
X88050Y-33012D01*
X88050Y-31737D01*
X88069Y-31729D01*
X88228Y-31570D01*
X88314Y-31362D01*
X88315Y-31138D01*
X88229Y-30930D01*
X88070Y-30771D01*
X87862Y-30685D01*
X87638Y-30684D01*
X87430Y-30770D01*
X87271Y-30929D01*
X87250Y-30980D01*
X87229Y-30930D01*
X87070Y-30771D01*
X86862Y-30685D01*
X86638Y-30684D01*
X86430Y-30770D01*
X86271Y-30929D01*
X86185Y-31137D01*
X86184Y-31361D01*
X86270Y-31569D01*
X86429Y-31728D01*
X86637Y-31814D01*
X86861Y-31815D01*
X87069Y-31729D01*
X87228Y-31570D01*
X87249Y-31519D01*
X87270Y-31569D01*
X87429Y-31728D01*
X87450Y-31737D01*
X87450Y-33012D01*
X87430Y-33020D01*
X87271Y-33179D01*
X87250Y-33230D01*
X87229Y-33180D01*
X87070Y-33021D01*
X86862Y-32935D01*
X86638Y-32934D01*
X86430Y-33020D01*
X86271Y-33179D01*
X86185Y-33387D01*
X86184Y-33611D01*
X86270Y-33819D01*
X86429Y-33978D01*
X86637Y-34064D01*
X86861Y-34065D01*
X87069Y-33979D01*
X87228Y-33820D01*
X87249Y-33769D01*
X87270Y-33819D01*
X87429Y-33978D01*
X87450Y-33987D01*
X87450Y-35262D01*
X87430Y-35270D01*
X87271Y-35429D01*
X87250Y-35480D01*
X87229Y-35430D01*
X87070Y-35271D01*
X86862Y-35185D01*
X86638Y-35184D01*
X86430Y-35270D01*
X86271Y-35429D01*
X86185Y-35637D01*
X86184Y-35861D01*
X86270Y-36069D01*
X86429Y-36228D01*
X86637Y-36314D01*
X86861Y-36315D01*
X87069Y-36229D01*
X87228Y-36070D01*
X87249Y-36019D01*
X87270Y-36069D01*
X87429Y-36228D01*
X87637Y-36314D01*
X87861Y-36315D01*
X88069Y-36229D01*
X88228Y-36070D01*
X88314Y-35862D01*
X88315Y-35638D01*
X88315Y-37888D01*
X88229Y-37680D01*
X88070Y-37521D01*
X87862Y-37435D01*
X87638Y-37434D01*
X87430Y-37520D01*
X87271Y-37679D01*
X87250Y-37730D01*
X87229Y-37680D01*
X87070Y-37521D01*
X86862Y-37435D01*
X86638Y-37434D01*
X86430Y-37520D01*
X86271Y-37679D01*
X86185Y-37887D01*
X86184Y-38111D01*
X86221Y-38200D01*
X86028Y-38200D01*
X86064Y-38112D01*
X86065Y-37888D01*
X85979Y-37680D01*
X85820Y-37521D01*
X85612Y-37435D01*
X85388Y-37434D01*
X85180Y-37520D01*
X85021Y-37679D01*
X85000Y-37730D01*
X84979Y-37680D01*
X84820Y-37521D01*
X84702Y-37472D01*
X85124Y-37050D01*
X85734Y-37050D01*
X85773Y-37088D01*
X85920Y-37149D01*
X86079Y-37150D01*
X86226Y-37089D01*
X86338Y-36976D01*
X86399Y-36829D01*
X86400Y-36670D01*
X86339Y-36523D01*
X86226Y-36411D01*
X86079Y-36350D01*
X85920Y-36349D01*
X85773Y-36410D01*
X85734Y-36450D01*
X85000Y-36450D01*
X84885Y-36472D01*
X84827Y-36511D01*
X84726Y-36411D01*
X84579Y-36350D01*
X84420Y-36349D01*
X84385Y-36364D01*
X84399Y-36329D01*
X84399Y-36314D01*
X84611Y-36315D01*
X84819Y-36229D01*
X84978Y-36070D01*
X84999Y-36019D01*
X85020Y-36069D01*
X85179Y-36228D01*
X85387Y-36314D01*
X85611Y-36315D01*
X85819Y-36229D01*
X85978Y-36070D01*
X86064Y-35862D01*
X86065Y-35638D01*
X85979Y-35430D01*
X85820Y-35271D01*
X85800Y-35262D01*
X85800Y-33987D01*
X85819Y-33979D01*
X85978Y-33820D01*
X86064Y-33612D01*
X86065Y-33388D01*
X85979Y-33180D01*
X85820Y-33021D01*
X85800Y-33012D01*
X85800Y-31737D01*
X85819Y-31729D01*
X85978Y-31570D01*
X86064Y-31362D01*
X86065Y-31138D01*
X85979Y-30930D01*
X85820Y-30771D01*
X85612Y-30685D01*
X85388Y-30684D01*
X85180Y-30770D01*
X85021Y-30929D01*
X85000Y-30980D01*
X84979Y-30930D01*
X84820Y-30771D01*
X84612Y-30685D01*
X84388Y-30684D01*
X84180Y-30770D01*
X84021Y-30929D01*
X83935Y-31137D01*
X83934Y-31361D01*
X84020Y-31569D01*
X84179Y-31728D01*
X84387Y-31814D01*
X84611Y-31815D01*
X84819Y-31729D01*
X84978Y-31570D01*
X84999Y-31519D01*
X85020Y-31569D01*
X85179Y-31728D01*
X85200Y-31737D01*
X85200Y-33012D01*
X85180Y-33020D01*
X85021Y-33179D01*
X85000Y-33230D01*
X84979Y-33180D01*
X84820Y-33021D01*
X84612Y-32935D01*
X84388Y-32934D01*
X84180Y-33020D01*
X84021Y-33179D01*
X83935Y-33387D01*
X83934Y-33611D01*
X84020Y-33819D01*
X84179Y-33978D01*
X84387Y-34064D01*
X84611Y-34065D01*
X84819Y-33979D01*
X84978Y-33820D01*
X84999Y-33769D01*
X85020Y-33819D01*
X85179Y-33978D01*
X85200Y-33987D01*
X85200Y-35262D01*
X85180Y-35270D01*
X85021Y-35429D01*
X85000Y-35480D01*
X84979Y-35430D01*
X84820Y-35271D01*
X84612Y-35185D01*
X84388Y-35184D01*
X84180Y-35270D01*
X84021Y-35429D01*
X83935Y-35637D01*
X83934Y-35849D01*
X83920Y-35849D01*
X83799Y-35900D01*
X83814Y-35862D01*
X83815Y-35638D01*
X83729Y-35430D01*
X83570Y-35271D01*
X83550Y-35262D01*
X83550Y-33987D01*
X83569Y-33979D01*
X83728Y-33820D01*
X83814Y-33612D01*
X83815Y-33388D01*
X83729Y-33180D01*
X83570Y-33021D01*
X83550Y-33012D01*
X83550Y-31737D01*
X83569Y-31729D01*
X83728Y-31570D01*
X83814Y-31362D01*
X83815Y-31138D01*
X83729Y-30930D01*
X83570Y-30771D01*
X83362Y-30685D01*
X83138Y-30684D01*
X82930Y-30770D01*
X82771Y-30929D01*
X82750Y-30980D01*
X82729Y-30930D01*
X82570Y-30771D01*
X82362Y-30685D01*
X82138Y-30684D01*
X81930Y-30770D01*
X81771Y-30929D01*
X81685Y-31137D01*
X81684Y-31361D01*
X81770Y-31569D01*
X81929Y-31728D01*
X82137Y-31814D01*
X82361Y-31815D01*
X82569Y-31729D01*
X82728Y-31570D01*
X82749Y-31519D01*
X82770Y-31569D01*
X82929Y-31728D01*
X82950Y-31737D01*
X82950Y-33012D01*
X82930Y-33020D01*
X82771Y-33179D01*
X82750Y-33230D01*
X82729Y-33180D01*
X82570Y-33021D01*
X82362Y-32935D01*
X82138Y-32934D01*
X81930Y-33020D01*
X81771Y-33179D01*
X81685Y-33387D01*
X81684Y-33611D01*
X81770Y-33819D01*
X81929Y-33978D01*
X82137Y-34064D01*
X82361Y-34065D01*
X82569Y-33979D01*
X82728Y-33820D01*
X82749Y-33769D01*
X82770Y-33819D01*
X82929Y-33978D01*
X82950Y-33987D01*
X82950Y-35262D01*
X82930Y-35270D01*
X82771Y-35429D01*
X82750Y-35480D01*
X82729Y-35430D01*
X82570Y-35271D01*
X82362Y-35185D01*
X82138Y-35184D01*
X81930Y-35270D01*
X81771Y-35429D01*
X81685Y-35637D01*
X81684Y-35861D01*
X81721Y-35950D01*
X81528Y-35950D01*
X81564Y-35862D01*
X81565Y-35638D01*
X81479Y-35430D01*
X81320Y-35271D01*
X81300Y-35262D01*
X81300Y-33987D01*
X81319Y-33979D01*
X81478Y-33820D01*
X81564Y-33612D01*
X81565Y-33388D01*
X81479Y-33180D01*
X81320Y-33021D01*
X81300Y-33012D01*
X81300Y-31737D01*
X81319Y-31729D01*
X81478Y-31570D01*
X81564Y-31362D01*
X81565Y-31138D01*
X81479Y-30930D01*
X81320Y-30771D01*
X81112Y-30685D01*
X80888Y-30684D01*
X80867Y-30693D01*
X80712Y-30537D01*
X80614Y-30472D01*
X80500Y-30450D01*
X79750Y-30450D01*
X78874Y-30450D01*
X78712Y-30287D01*
X78684Y-30269D01*
X99480Y-30269D01*
X99480Y-30933D01*
X99479Y-30930D01*
X99320Y-30771D01*
X99112Y-30685D01*
X98888Y-30684D01*
X98680Y-30770D01*
X98521Y-30929D01*
X98500Y-30980D01*
X98479Y-30930D01*
X98320Y-30771D01*
X98112Y-30685D01*
X97888Y-30684D01*
X97680Y-30770D01*
X97521Y-30929D01*
X97435Y-31137D01*
X97434Y-31361D01*
X97520Y-31569D01*
X97679Y-31728D01*
X97887Y-31814D01*
X98111Y-31815D01*
X98319Y-31729D01*
X98478Y-31570D01*
X98499Y-31519D01*
X98520Y-31569D01*
X98679Y-31728D01*
X98887Y-31814D01*
X98950Y-31814D01*
X98950Y-32934D01*
X98888Y-32934D01*
X98680Y-33020D01*
X98521Y-33179D01*
X98500Y-33230D01*
X98479Y-33180D01*
X98320Y-33021D01*
X98112Y-32935D01*
X97888Y-32934D01*
X97680Y-33020D01*
X97521Y-33179D01*
X97435Y-33387D01*
X97434Y-33611D01*
X97520Y-33819D01*
X97679Y-33978D01*
X97887Y-34064D01*
X98111Y-34065D01*
X98319Y-33979D01*
X98478Y-33820D01*
X98499Y-33769D01*
X98520Y-33819D01*
X98679Y-33978D01*
X98887Y-34064D01*
X98950Y-34064D01*
X98950Y-35184D01*
X98888Y-35184D01*
X98680Y-35270D01*
X98521Y-35429D01*
X98500Y-35480D01*
X98479Y-35430D01*
X98320Y-35271D01*
X98112Y-35185D01*
X97888Y-35184D01*
X97680Y-35270D01*
X97521Y-35429D01*
X97435Y-35637D01*
X97434Y-35861D01*
X97520Y-36069D01*
X97679Y-36228D01*
X97887Y-36314D01*
X98111Y-36315D01*
X98319Y-36229D01*
X98478Y-36070D01*
X98499Y-36019D01*
X98520Y-36069D01*
X98679Y-36228D01*
X98887Y-36314D01*
X98950Y-36314D01*
X98950Y-37375D01*
X98890Y-37434D01*
X98888Y-37434D01*
X98680Y-37520D01*
X98521Y-37679D01*
X98500Y-37730D01*
X98479Y-37680D01*
X98320Y-37521D01*
X98112Y-37435D01*
X97888Y-37434D01*
X97680Y-37520D01*
X97521Y-37679D01*
X97435Y-37887D01*
X97434Y-38111D01*
X97520Y-38319D01*
X97679Y-38478D01*
X97887Y-38564D01*
X98111Y-38565D01*
X98319Y-38479D01*
X98478Y-38320D01*
X98499Y-38269D01*
X98520Y-38319D01*
X98679Y-38478D01*
X98887Y-38564D01*
X99111Y-38565D01*
X99319Y-38479D01*
X99478Y-38320D01*
X99480Y-38316D01*
X99480Y-45980D01*
M02*
