%FSLAX34Y34*%
G04 Gerber Fmt 3.4, Leading zero omitted, Abs format*
G04 (created by PCBNEW (2014-03-18 BZR 4754)-product) date Tue 01 Apr 2014 06:21:33 PM CDT*
%MOIN*%
G01*
G70*
G90*
G04 APERTURE LIST*
%ADD10C,0.006000*%
%ADD11R,0.027559X0.027559*%
%ADD12R,0.062992X0.070866*%
%ADD13R,0.013800X0.055100*%
%ADD14R,0.068504X0.017323*%
%ADD15R,0.109134X0.135906*%
%ADD16R,0.047244X0.086614*%
%ADD17R,0.137795X0.086614*%
%ADD18R,0.062992X0.023622*%
%ADD19R,0.082677X0.098425*%
%ADD20R,0.082677X0.078740*%
%ADD21R,0.070866X0.070866*%
%ADD22C,0.070866*%
%ADD23R,0.086614X0.086614*%
%ADD24C,0.086614*%
%ADD25C,0.062992*%
%ADD26R,0.066929X0.066929*%
%ADD27C,0.066929*%
%ADD28R,0.033465X0.049606*%
%ADD29C,0.055118*%
G04 APERTURE END LIST*
G54D10*
G54D11*
X92525Y-41750D03*
X91974Y-41750D03*
X94974Y-45500D03*
X95525Y-45500D03*
X67775Y-45750D03*
X67224Y-45750D03*
X96474Y-43000D03*
X97025Y-43000D03*
X96474Y-45250D03*
X97025Y-45250D03*
X91974Y-44000D03*
X92525Y-44000D03*
X91974Y-43250D03*
X92525Y-43250D03*
X91974Y-42500D03*
X92525Y-42500D03*
X78474Y-40000D03*
X79025Y-40000D03*
X84000Y-42974D03*
X84000Y-43525D03*
X84000Y-45025D03*
X84000Y-44474D03*
X82500Y-45025D03*
X82500Y-44474D03*
X83250Y-45025D03*
X83250Y-44474D03*
X91224Y-45750D03*
X91775Y-45750D03*
G54D12*
X94051Y-45500D03*
X92948Y-45500D03*
G54D13*
X89396Y-41618D03*
X89140Y-41618D03*
X88884Y-41618D03*
X88628Y-41618D03*
X88372Y-41618D03*
X88116Y-41618D03*
X87860Y-41618D03*
X87604Y-41618D03*
X87604Y-43882D03*
X87860Y-43882D03*
X88116Y-43882D03*
X88372Y-43882D03*
X88628Y-43882D03*
X88884Y-43882D03*
X89140Y-43882D03*
X89396Y-43882D03*
G54D14*
X67147Y-44645D03*
X67147Y-44901D03*
X67147Y-44389D03*
X67147Y-44133D03*
X67147Y-43877D03*
X67147Y-43622D03*
X67147Y-43366D03*
X67147Y-43110D03*
X69352Y-42598D03*
X69352Y-42854D03*
X69352Y-43110D03*
X69352Y-43366D03*
X69352Y-44901D03*
X69352Y-44645D03*
X69352Y-44389D03*
X69352Y-44133D03*
X69352Y-43877D03*
X69352Y-43622D03*
G54D15*
X68250Y-43750D03*
G54D14*
X67147Y-42854D03*
X67147Y-42598D03*
G54D13*
X93604Y-44132D03*
X93860Y-44132D03*
X94116Y-44132D03*
X94372Y-44132D03*
X94628Y-44132D03*
X94884Y-44132D03*
X95140Y-44132D03*
X95396Y-44132D03*
X95396Y-41868D03*
X95140Y-41868D03*
X94884Y-41868D03*
X94628Y-41868D03*
X94372Y-41868D03*
X94116Y-41868D03*
X93860Y-41868D03*
X93604Y-41868D03*
G54D16*
X59155Y-43029D03*
X58250Y-43029D03*
X57344Y-43029D03*
G54D17*
X58250Y-45470D03*
G54D10*
G36*
X81668Y-44338D02*
X81529Y-44477D01*
X81111Y-44059D01*
X81251Y-43920D01*
X81668Y-44338D01*
X81668Y-44338D01*
G37*
G36*
X81891Y-44115D02*
X81752Y-44254D01*
X81334Y-43836D01*
X81473Y-43697D01*
X81891Y-44115D01*
X81891Y-44115D01*
G37*
G36*
X82114Y-43892D02*
X81975Y-44031D01*
X81557Y-43614D01*
X81696Y-43474D01*
X82114Y-43892D01*
X82114Y-43892D01*
G37*
G36*
X82337Y-43669D02*
X82197Y-43809D01*
X81779Y-43391D01*
X81919Y-43251D01*
X82337Y-43669D01*
X82337Y-43669D01*
G37*
G36*
X82559Y-43447D02*
X82419Y-43587D01*
X82001Y-43169D01*
X82141Y-43029D01*
X82559Y-43447D01*
X82559Y-43447D01*
G37*
G36*
X82781Y-43225D02*
X82642Y-43364D01*
X82224Y-42946D01*
X82364Y-42807D01*
X82781Y-43225D01*
X82781Y-43225D01*
G37*
G36*
X83004Y-43002D02*
X82865Y-43141D01*
X82447Y-42723D01*
X82586Y-42584D01*
X83004Y-43002D01*
X83004Y-43002D01*
G37*
G36*
X83227Y-42779D02*
X83088Y-42918D01*
X82670Y-42501D01*
X82809Y-42361D01*
X83227Y-42779D01*
X83227Y-42779D01*
G37*
G36*
X83088Y-41581D02*
X83227Y-41720D01*
X82809Y-42138D01*
X82670Y-41998D01*
X83088Y-41581D01*
X83088Y-41581D01*
G37*
G36*
X82865Y-41358D02*
X83004Y-41497D01*
X82586Y-41915D01*
X82447Y-41776D01*
X82865Y-41358D01*
X82865Y-41358D01*
G37*
G36*
X82642Y-41135D02*
X82781Y-41274D01*
X82364Y-41692D01*
X82224Y-41553D01*
X82642Y-41135D01*
X82642Y-41135D01*
G37*
G36*
X82419Y-40912D02*
X82559Y-41052D01*
X82141Y-41470D01*
X82001Y-41330D01*
X82419Y-40912D01*
X82419Y-40912D01*
G37*
G36*
X82197Y-40690D02*
X82337Y-40830D01*
X81919Y-41248D01*
X81779Y-41108D01*
X82197Y-40690D01*
X82197Y-40690D01*
G37*
G36*
X81975Y-40468D02*
X82114Y-40607D01*
X81696Y-41025D01*
X81557Y-40885D01*
X81975Y-40468D01*
X81975Y-40468D01*
G37*
G36*
X81752Y-40245D02*
X81891Y-40384D01*
X81473Y-40802D01*
X81334Y-40663D01*
X81752Y-40245D01*
X81752Y-40245D01*
G37*
G36*
X81529Y-40022D02*
X81668Y-40161D01*
X81251Y-40579D01*
X81111Y-40440D01*
X81529Y-40022D01*
X81529Y-40022D01*
G37*
G36*
X80331Y-40161D02*
X80470Y-40022D01*
X80888Y-40440D01*
X80748Y-40579D01*
X80331Y-40161D01*
X80331Y-40161D01*
G37*
G36*
X80108Y-40384D02*
X80247Y-40245D01*
X80665Y-40663D01*
X80526Y-40802D01*
X80108Y-40384D01*
X80108Y-40384D01*
G37*
G36*
X79885Y-40607D02*
X80024Y-40468D01*
X80442Y-40885D01*
X80303Y-41025D01*
X79885Y-40607D01*
X79885Y-40607D01*
G37*
G36*
X79662Y-40830D02*
X79802Y-40690D01*
X80220Y-41108D01*
X80080Y-41248D01*
X79662Y-40830D01*
X79662Y-40830D01*
G37*
G36*
X79440Y-41052D02*
X79580Y-40912D01*
X79998Y-41330D01*
X79858Y-41470D01*
X79440Y-41052D01*
X79440Y-41052D01*
G37*
G36*
X79218Y-41274D02*
X79357Y-41135D01*
X79775Y-41553D01*
X79635Y-41692D01*
X79218Y-41274D01*
X79218Y-41274D01*
G37*
G36*
X78995Y-41497D02*
X79134Y-41358D01*
X79552Y-41776D01*
X79413Y-41915D01*
X78995Y-41497D01*
X78995Y-41497D01*
G37*
G36*
X78772Y-41720D02*
X78911Y-41581D01*
X79329Y-41998D01*
X79190Y-42138D01*
X78772Y-41720D01*
X78772Y-41720D01*
G37*
G36*
X78911Y-42918D02*
X78772Y-42779D01*
X79190Y-42361D01*
X79329Y-42501D01*
X78911Y-42918D01*
X78911Y-42918D01*
G37*
G36*
X79134Y-43141D02*
X78995Y-43002D01*
X79413Y-42584D01*
X79552Y-42723D01*
X79134Y-43141D01*
X79134Y-43141D01*
G37*
G36*
X79357Y-43364D02*
X79218Y-43225D01*
X79635Y-42807D01*
X79775Y-42946D01*
X79357Y-43364D01*
X79357Y-43364D01*
G37*
G36*
X79580Y-43587D02*
X79440Y-43447D01*
X79858Y-43029D01*
X79998Y-43169D01*
X79580Y-43587D01*
X79580Y-43587D01*
G37*
G36*
X79802Y-43809D02*
X79662Y-43669D01*
X80080Y-43251D01*
X80220Y-43391D01*
X79802Y-43809D01*
X79802Y-43809D01*
G37*
G36*
X80024Y-44031D02*
X79885Y-43892D01*
X80303Y-43474D01*
X80442Y-43614D01*
X80024Y-44031D01*
X80024Y-44031D01*
G37*
G36*
X80247Y-44254D02*
X80108Y-44115D01*
X80526Y-43697D01*
X80665Y-43836D01*
X80247Y-44254D01*
X80247Y-44254D01*
G37*
G36*
X80470Y-44477D02*
X80331Y-44338D01*
X80748Y-43920D01*
X80888Y-44059D01*
X80470Y-44477D01*
X80470Y-44477D01*
G37*
G54D18*
X98047Y-44611D03*
X98047Y-44355D03*
X98047Y-44100D03*
X98047Y-43844D03*
X98047Y-43588D03*
G54D19*
X99169Y-45576D03*
X99169Y-42623D03*
G54D20*
X99169Y-43647D03*
X99169Y-44552D03*
G54D21*
X71500Y-45500D03*
G54D22*
X72500Y-45500D03*
X73500Y-45500D03*
X74500Y-45500D03*
G54D21*
X71500Y-43500D03*
G54D22*
X72500Y-43500D03*
X73500Y-43500D03*
X74500Y-43500D03*
G54D21*
X62000Y-43500D03*
G54D22*
X63000Y-43500D03*
X64000Y-43500D03*
X65000Y-43500D03*
G54D21*
X62000Y-45500D03*
G54D22*
X63000Y-45500D03*
X64000Y-45500D03*
X65000Y-45500D03*
G54D23*
X53500Y-43250D03*
G54D24*
X53500Y-45250D03*
G54D11*
X88525Y-45750D03*
X87974Y-45750D03*
X88525Y-45000D03*
X87974Y-45000D03*
G54D25*
X53000Y-31250D03*
X54000Y-31250D03*
X53000Y-33500D03*
X54000Y-33500D03*
X53000Y-35750D03*
X54000Y-35750D03*
X53000Y-38000D03*
X54000Y-38000D03*
X98000Y-31250D03*
X99000Y-31250D03*
X98000Y-33500D03*
X99000Y-33500D03*
X98000Y-35750D03*
X99000Y-35750D03*
X98000Y-38000D03*
X99000Y-38000D03*
X55250Y-31250D03*
X56250Y-31250D03*
X55250Y-33500D03*
X56250Y-33500D03*
X55250Y-35750D03*
X56250Y-35750D03*
X55250Y-38000D03*
X56250Y-38000D03*
X95750Y-31250D03*
X96750Y-31250D03*
X95750Y-33500D03*
X96750Y-33500D03*
X95750Y-35750D03*
X96750Y-35750D03*
X95750Y-38000D03*
X96750Y-38000D03*
X57500Y-31250D03*
X58500Y-31250D03*
X57500Y-33500D03*
X58500Y-33500D03*
X57500Y-35750D03*
X58500Y-35750D03*
X57500Y-38000D03*
X58500Y-38000D03*
X93500Y-31250D03*
X94500Y-31250D03*
X93500Y-33500D03*
X94500Y-33500D03*
X93500Y-35750D03*
X94500Y-35750D03*
X93500Y-38000D03*
X94500Y-38000D03*
X59750Y-31250D03*
X60750Y-31250D03*
X59750Y-33500D03*
X60750Y-33500D03*
X59750Y-35750D03*
X60750Y-35750D03*
X59750Y-38000D03*
X60750Y-38000D03*
X91250Y-31250D03*
X92250Y-31250D03*
X91250Y-33500D03*
X92250Y-33500D03*
X91250Y-35750D03*
X92250Y-35750D03*
X91250Y-38000D03*
X92250Y-38000D03*
X62000Y-31250D03*
X63000Y-31250D03*
X62000Y-33500D03*
X63000Y-33500D03*
X62000Y-35750D03*
X63000Y-35750D03*
X62000Y-38000D03*
X63000Y-38000D03*
X89000Y-31250D03*
X90000Y-31250D03*
X89000Y-33500D03*
X90000Y-33500D03*
X89000Y-35750D03*
X90000Y-35750D03*
X89000Y-38000D03*
X90000Y-38000D03*
X64250Y-31250D03*
X65250Y-31250D03*
X64250Y-33500D03*
X65250Y-33500D03*
X64250Y-35750D03*
X65250Y-35750D03*
X64250Y-38000D03*
X65250Y-38000D03*
X86750Y-31250D03*
X87750Y-31250D03*
X86750Y-33500D03*
X87750Y-33500D03*
X86750Y-35750D03*
X87750Y-35750D03*
X86750Y-38000D03*
X87750Y-38000D03*
X66500Y-31250D03*
X67500Y-31250D03*
X66500Y-33500D03*
X67500Y-33500D03*
X66500Y-35750D03*
X67500Y-35750D03*
X66500Y-38000D03*
X67500Y-38000D03*
X84500Y-31250D03*
X85500Y-31250D03*
X84500Y-33500D03*
X85500Y-33500D03*
X84500Y-35750D03*
X85500Y-35750D03*
X84500Y-38000D03*
X85500Y-38000D03*
X68750Y-31250D03*
X69750Y-31250D03*
X68750Y-33500D03*
X69750Y-33500D03*
X68750Y-35750D03*
X69750Y-35750D03*
X68750Y-38000D03*
X69750Y-38000D03*
X82250Y-31250D03*
X83250Y-31250D03*
X82250Y-33500D03*
X83250Y-33500D03*
X82250Y-35750D03*
X83250Y-35750D03*
X82250Y-38000D03*
X83250Y-38000D03*
X71000Y-31250D03*
X72000Y-31250D03*
X71000Y-33500D03*
X72000Y-33500D03*
X71000Y-35750D03*
X72000Y-35750D03*
X71000Y-38000D03*
X72000Y-38000D03*
X80000Y-31250D03*
X81000Y-31250D03*
X80000Y-33500D03*
X81000Y-33500D03*
X80000Y-35750D03*
X81000Y-35750D03*
X80000Y-38000D03*
X81000Y-38000D03*
X73250Y-31250D03*
X74250Y-31250D03*
X73250Y-33500D03*
X74250Y-33500D03*
X73250Y-35750D03*
X74250Y-35750D03*
X73250Y-38000D03*
X74250Y-38000D03*
X77750Y-31250D03*
X78750Y-31250D03*
X77750Y-33500D03*
X78750Y-33500D03*
X77750Y-35750D03*
X78750Y-35750D03*
X77750Y-38000D03*
X78750Y-38000D03*
X75500Y-31250D03*
X76500Y-31250D03*
X75500Y-33500D03*
X76500Y-33500D03*
X75500Y-35750D03*
X76500Y-35750D03*
X75500Y-38000D03*
X76500Y-38000D03*
G54D26*
X76750Y-43500D03*
G54D27*
X77750Y-43500D03*
X76750Y-44500D03*
X77750Y-44500D03*
X76750Y-45500D03*
X77750Y-45500D03*
G54D28*
X84375Y-40433D03*
X84750Y-39566D03*
X85124Y-40433D03*
X86125Y-40433D03*
X86500Y-39566D03*
X86874Y-40433D03*
X87875Y-40433D03*
X88250Y-39566D03*
X88624Y-40433D03*
X89625Y-40433D03*
X90000Y-39566D03*
X90374Y-40433D03*
X91375Y-40433D03*
X91750Y-39566D03*
X92124Y-40433D03*
X93125Y-40433D03*
X93500Y-39566D03*
X93874Y-40433D03*
X94875Y-40433D03*
X95250Y-39566D03*
X95624Y-40433D03*
X96625Y-40433D03*
X97000Y-39566D03*
X97374Y-40433D03*
X53125Y-40433D03*
X53500Y-39566D03*
X53874Y-40433D03*
X55375Y-40433D03*
X55750Y-39566D03*
X56124Y-40433D03*
X57625Y-40433D03*
X58000Y-39566D03*
X58374Y-40433D03*
X59875Y-40433D03*
X60250Y-39566D03*
X60624Y-40433D03*
X62125Y-40433D03*
X62500Y-39566D03*
X62874Y-40433D03*
X64375Y-40433D03*
X64750Y-39566D03*
X65124Y-40433D03*
X66625Y-40433D03*
X67000Y-39566D03*
X67374Y-40433D03*
X68875Y-40433D03*
X69250Y-39566D03*
X69624Y-40433D03*
X71125Y-40433D03*
X71500Y-39566D03*
X71874Y-40433D03*
X73375Y-40433D03*
X73750Y-39566D03*
X74124Y-40433D03*
X75625Y-40433D03*
X76000Y-39566D03*
X76374Y-40433D03*
G54D11*
X68724Y-45750D03*
X69275Y-45750D03*
X90250Y-43025D03*
X90250Y-42474D03*
X97025Y-44500D03*
X96474Y-44500D03*
X97025Y-43750D03*
X96474Y-43750D03*
X89775Y-45750D03*
X89224Y-45750D03*
X89775Y-45000D03*
X89224Y-45000D03*
X54500Y-39775D03*
X54500Y-39224D03*
X56750Y-39775D03*
X56750Y-39224D03*
X59000Y-39775D03*
X59000Y-39224D03*
X61250Y-39775D03*
X61250Y-39224D03*
X63500Y-39775D03*
X63500Y-39224D03*
X65750Y-39775D03*
X65750Y-39224D03*
X68000Y-39775D03*
X68000Y-39224D03*
X70250Y-39775D03*
X70250Y-39224D03*
X72500Y-39775D03*
X72500Y-39224D03*
X74750Y-39775D03*
X74750Y-39224D03*
X77000Y-39775D03*
X77000Y-39224D03*
G54D29*
X85500Y-44960D03*
X85500Y-43039D03*
G54D12*
X57651Y-41850D03*
X56548Y-41850D03*
X58848Y-41850D03*
X59951Y-41850D03*
M02*
