%FSLAX34Y34*%
G04 Gerber Fmt 3.4, Leading zero omitted, Abs format*
G04 (created by PCBNEW (2014-03-18 BZR 4754)-product) date Tue 01 Apr 2014 06:21:33 PM CDT*
%MOIN*%
G01*
G70*
G90*
G04 APERTURE LIST*
%ADD10C,0.006000*%
%ADD11C,0.016000*%
%ADD12C,0.010000*%
%ADD13R,0.070866X0.070866*%
%ADD14C,0.070866*%
%ADD15R,0.086614X0.086614*%
%ADD16C,0.086614*%
%ADD17C,0.062992*%
%ADD18R,0.066929X0.066929*%
%ADD19C,0.066929*%
%ADD20C,0.055118*%
G04 APERTURE END LIST*
G54D10*
G54D11*
X57838Y-45447D02*
X57838Y-45600D01*
X57800Y-45676D01*
X57761Y-45714D01*
X57647Y-45790D01*
X57495Y-45828D01*
X57190Y-45828D01*
X57114Y-45790D01*
X57076Y-45752D01*
X57038Y-45676D01*
X57038Y-45523D01*
X57076Y-45447D01*
X57114Y-45409D01*
X57190Y-45371D01*
X57380Y-45371D01*
X57457Y-45409D01*
X57495Y-45447D01*
X57533Y-45523D01*
X57533Y-45676D01*
X57495Y-45752D01*
X57457Y-45790D01*
X57380Y-45828D01*
X57342Y-45028D02*
X57342Y-44419D01*
X57038Y-43619D02*
X57038Y-44076D01*
X57038Y-43847D02*
X57838Y-43847D01*
X57723Y-43923D01*
X57647Y-44000D01*
X57609Y-44076D01*
X57761Y-43314D02*
X57800Y-43276D01*
X57838Y-43200D01*
X57838Y-43009D01*
X57800Y-42933D01*
X57761Y-42895D01*
X57685Y-42857D01*
X57609Y-42857D01*
X57495Y-42895D01*
X57038Y-43352D01*
X57038Y-42857D01*
X57838Y-42628D02*
X57038Y-42361D01*
X57838Y-42095D01*
G54D12*
X55400Y-45250D02*
X56400Y-45250D01*
X55900Y-42600D02*
X55900Y-43600D01*
X55400Y-43100D02*
X56400Y-43100D01*
G54D10*
X99300Y-40785D02*
X99300Y-40485D01*
X99300Y-40771D02*
X99328Y-40785D01*
X99385Y-40785D01*
X99414Y-40771D01*
X99428Y-40757D01*
X99442Y-40728D01*
X99442Y-40642D01*
X99428Y-40614D01*
X99414Y-40600D01*
X99385Y-40585D01*
X99328Y-40585D01*
X99300Y-40600D01*
X99042Y-40771D02*
X99071Y-40785D01*
X99128Y-40785D01*
X99157Y-40771D01*
X99171Y-40742D01*
X99171Y-40628D01*
X99157Y-40600D01*
X99128Y-40585D01*
X99071Y-40585D01*
X99042Y-40600D01*
X99028Y-40628D01*
X99028Y-40657D01*
X99171Y-40685D01*
X98914Y-40771D02*
X98885Y-40785D01*
X98828Y-40785D01*
X98799Y-40771D01*
X98785Y-40742D01*
X98785Y-40728D01*
X98799Y-40700D01*
X98828Y-40685D01*
X98871Y-40685D01*
X98899Y-40671D01*
X98914Y-40642D01*
X98914Y-40628D01*
X98899Y-40600D01*
X98871Y-40585D01*
X98828Y-40585D01*
X98799Y-40600D01*
X98657Y-40785D02*
X98657Y-40585D01*
X98657Y-40485D02*
X98671Y-40500D01*
X98657Y-40514D01*
X98642Y-40500D01*
X98657Y-40485D01*
X98657Y-40514D01*
X98385Y-40585D02*
X98385Y-40828D01*
X98400Y-40857D01*
X98414Y-40871D01*
X98442Y-40885D01*
X98485Y-40885D01*
X98514Y-40871D01*
X98385Y-40771D02*
X98414Y-40785D01*
X98471Y-40785D01*
X98500Y-40771D01*
X98514Y-40757D01*
X98528Y-40728D01*
X98528Y-40642D01*
X98514Y-40614D01*
X98500Y-40600D01*
X98471Y-40585D01*
X98414Y-40585D01*
X98385Y-40600D01*
X98242Y-40585D02*
X98242Y-40785D01*
X98242Y-40614D02*
X98228Y-40600D01*
X98199Y-40585D01*
X98157Y-40585D01*
X98128Y-40600D01*
X98114Y-40628D01*
X98114Y-40785D01*
X97857Y-40771D02*
X97885Y-40785D01*
X97942Y-40785D01*
X97971Y-40771D01*
X97985Y-40742D01*
X97985Y-40628D01*
X97971Y-40600D01*
X97942Y-40585D01*
X97885Y-40585D01*
X97857Y-40600D01*
X97842Y-40628D01*
X97842Y-40657D01*
X97985Y-40685D01*
X97585Y-40785D02*
X97585Y-40485D01*
X97585Y-40771D02*
X97614Y-40785D01*
X97671Y-40785D01*
X97699Y-40771D01*
X97714Y-40757D01*
X97728Y-40728D01*
X97728Y-40642D01*
X97714Y-40614D01*
X97699Y-40600D01*
X97671Y-40585D01*
X97614Y-40585D01*
X97585Y-40600D01*
X97214Y-40785D02*
X97214Y-40485D01*
X97214Y-40600D02*
X97185Y-40585D01*
X97128Y-40585D01*
X97099Y-40600D01*
X97085Y-40614D01*
X97071Y-40642D01*
X97071Y-40728D01*
X97085Y-40757D01*
X97099Y-40771D01*
X97128Y-40785D01*
X97185Y-40785D01*
X97214Y-40771D01*
X96971Y-40585D02*
X96899Y-40785D01*
X96828Y-40585D02*
X96899Y-40785D01*
X96928Y-40857D01*
X96942Y-40871D01*
X96971Y-40885D01*
X96514Y-40585D02*
X96457Y-40785D01*
X96399Y-40642D01*
X96342Y-40785D01*
X96285Y-40585D01*
X96171Y-40785D02*
X96171Y-40585D01*
X96171Y-40485D02*
X96185Y-40500D01*
X96171Y-40514D01*
X96157Y-40500D01*
X96171Y-40485D01*
X96171Y-40514D01*
X95985Y-40785D02*
X96014Y-40771D01*
X96028Y-40742D01*
X96028Y-40485D01*
X95757Y-40771D02*
X95785Y-40785D01*
X95842Y-40785D01*
X95871Y-40771D01*
X95885Y-40742D01*
X95885Y-40628D01*
X95871Y-40600D01*
X95842Y-40585D01*
X95785Y-40585D01*
X95757Y-40600D01*
X95742Y-40628D01*
X95742Y-40657D01*
X95885Y-40685D01*
X95642Y-40585D02*
X95571Y-40785D01*
X95499Y-40585D02*
X95571Y-40785D01*
X95599Y-40857D01*
X95614Y-40871D01*
X95642Y-40885D01*
X95028Y-40771D02*
X95057Y-40785D01*
X95114Y-40785D01*
X95142Y-40771D01*
X95157Y-40757D01*
X95171Y-40728D01*
X95171Y-40642D01*
X95157Y-40614D01*
X95142Y-40600D01*
X95114Y-40585D01*
X95057Y-40585D01*
X95028Y-40600D01*
X94857Y-40785D02*
X94885Y-40771D01*
X94899Y-40757D01*
X94914Y-40728D01*
X94914Y-40642D01*
X94899Y-40614D01*
X94885Y-40600D01*
X94857Y-40585D01*
X94814Y-40585D01*
X94785Y-40600D01*
X94771Y-40614D01*
X94757Y-40642D01*
X94757Y-40728D01*
X94771Y-40757D01*
X94785Y-40771D01*
X94814Y-40785D01*
X94857Y-40785D01*
X94499Y-40585D02*
X94499Y-40785D01*
X94628Y-40585D02*
X94628Y-40742D01*
X94614Y-40771D01*
X94585Y-40785D01*
X94542Y-40785D01*
X94514Y-40771D01*
X94499Y-40757D01*
X94371Y-40771D02*
X94342Y-40785D01*
X94285Y-40785D01*
X94257Y-40771D01*
X94242Y-40742D01*
X94242Y-40728D01*
X94257Y-40700D01*
X94285Y-40685D01*
X94328Y-40685D01*
X94357Y-40671D01*
X94371Y-40642D01*
X94371Y-40628D01*
X94357Y-40600D01*
X94328Y-40585D01*
X94285Y-40585D01*
X94257Y-40600D01*
X94114Y-40785D02*
X94114Y-40585D01*
X94114Y-40485D02*
X94128Y-40500D01*
X94114Y-40514D01*
X94099Y-40500D01*
X94114Y-40485D01*
X94114Y-40514D01*
X93971Y-40585D02*
X93971Y-40785D01*
X93971Y-40614D02*
X93957Y-40600D01*
X93928Y-40585D01*
X93885Y-40585D01*
X93857Y-40600D01*
X93842Y-40628D01*
X93842Y-40785D01*
X93714Y-40771D02*
X93685Y-40785D01*
X93628Y-40785D01*
X93599Y-40771D01*
X93585Y-40742D01*
X93585Y-40728D01*
X93599Y-40700D01*
X93628Y-40685D01*
X93671Y-40685D01*
X93699Y-40671D01*
X93714Y-40642D01*
X93714Y-40628D01*
X93699Y-40600D01*
X93671Y-40585D01*
X93628Y-40585D01*
X93599Y-40600D01*
X93271Y-40585D02*
X93157Y-40585D01*
X93228Y-40785D02*
X93228Y-40528D01*
X93214Y-40500D01*
X93185Y-40485D01*
X93157Y-40485D01*
X93014Y-40785D02*
X93042Y-40771D01*
X93057Y-40757D01*
X93071Y-40728D01*
X93071Y-40642D01*
X93057Y-40614D01*
X93042Y-40600D01*
X93014Y-40585D01*
X92971Y-40585D01*
X92942Y-40600D01*
X92928Y-40614D01*
X92914Y-40642D01*
X92914Y-40728D01*
X92928Y-40757D01*
X92942Y-40771D01*
X92971Y-40785D01*
X93014Y-40785D01*
X92785Y-40785D02*
X92785Y-40585D01*
X92785Y-40642D02*
X92771Y-40614D01*
X92757Y-40600D01*
X92728Y-40585D01*
X92699Y-40585D01*
X92371Y-40785D02*
X92371Y-40485D01*
X92371Y-40600D02*
X92342Y-40585D01*
X92285Y-40585D01*
X92257Y-40600D01*
X92242Y-40614D01*
X92228Y-40642D01*
X92228Y-40728D01*
X92242Y-40757D01*
X92257Y-40771D01*
X92285Y-40785D01*
X92342Y-40785D01*
X92371Y-40771D01*
X91971Y-40785D02*
X91971Y-40628D01*
X91985Y-40600D01*
X92014Y-40585D01*
X92071Y-40585D01*
X92099Y-40600D01*
X91971Y-40771D02*
X91999Y-40785D01*
X92071Y-40785D01*
X92099Y-40771D01*
X92114Y-40742D01*
X92114Y-40714D01*
X92099Y-40685D01*
X92071Y-40671D01*
X91999Y-40671D01*
X91971Y-40657D01*
X91828Y-40785D02*
X91828Y-40585D01*
X91828Y-40642D02*
X91814Y-40614D01*
X91799Y-40600D01*
X91771Y-40585D01*
X91742Y-40585D01*
X91685Y-40585D02*
X91571Y-40585D01*
X91642Y-40485D02*
X91642Y-40742D01*
X91628Y-40771D01*
X91599Y-40785D01*
X91571Y-40785D01*
X91428Y-40785D02*
X91457Y-40771D01*
X91471Y-40757D01*
X91485Y-40728D01*
X91485Y-40642D01*
X91471Y-40614D01*
X91457Y-40600D01*
X91428Y-40585D01*
X91385Y-40585D01*
X91357Y-40600D01*
X91342Y-40614D01*
X91328Y-40642D01*
X91328Y-40728D01*
X91342Y-40757D01*
X91357Y-40771D01*
X91385Y-40785D01*
X91428Y-40785D01*
X91199Y-40585D02*
X91199Y-40785D01*
X91199Y-40614D02*
X91185Y-40600D01*
X91157Y-40585D01*
X91114Y-40585D01*
X91085Y-40600D01*
X91071Y-40628D01*
X91071Y-40785D01*
X90571Y-40585D02*
X90571Y-40828D01*
X90585Y-40857D01*
X90599Y-40871D01*
X90628Y-40885D01*
X90671Y-40885D01*
X90699Y-40871D01*
X90571Y-40771D02*
X90599Y-40785D01*
X90657Y-40785D01*
X90685Y-40771D01*
X90699Y-40757D01*
X90714Y-40728D01*
X90714Y-40642D01*
X90699Y-40614D01*
X90685Y-40600D01*
X90657Y-40585D01*
X90599Y-40585D01*
X90571Y-40600D01*
X90428Y-40785D02*
X90428Y-40585D01*
X90428Y-40485D02*
X90442Y-40500D01*
X90428Y-40514D01*
X90414Y-40500D01*
X90428Y-40485D01*
X90428Y-40514D01*
X90242Y-40785D02*
X90271Y-40771D01*
X90285Y-40742D01*
X90285Y-40485D01*
X90085Y-40785D02*
X90114Y-40771D01*
X90128Y-40742D01*
X90128Y-40485D01*
X89857Y-40771D02*
X89885Y-40785D01*
X89942Y-40785D01*
X89971Y-40771D01*
X89985Y-40742D01*
X89985Y-40628D01*
X89971Y-40600D01*
X89942Y-40585D01*
X89885Y-40585D01*
X89857Y-40600D01*
X89842Y-40628D01*
X89842Y-40657D01*
X89985Y-40685D01*
X89742Y-40585D02*
X89671Y-40785D01*
X89599Y-40585D02*
X89671Y-40785D01*
X89699Y-40857D01*
X89714Y-40871D01*
X89742Y-40885D01*
X89257Y-40785D02*
X89257Y-40485D01*
X89257Y-40600D02*
X89228Y-40585D01*
X89171Y-40585D01*
X89142Y-40600D01*
X89128Y-40614D01*
X89114Y-40642D01*
X89114Y-40728D01*
X89128Y-40757D01*
X89142Y-40771D01*
X89171Y-40785D01*
X89228Y-40785D01*
X89257Y-40771D01*
X88871Y-40771D02*
X88899Y-40785D01*
X88957Y-40785D01*
X88985Y-40771D01*
X88999Y-40742D01*
X88999Y-40628D01*
X88985Y-40600D01*
X88957Y-40585D01*
X88899Y-40585D01*
X88871Y-40600D01*
X88857Y-40628D01*
X88857Y-40657D01*
X88999Y-40685D01*
X88599Y-40771D02*
X88628Y-40785D01*
X88685Y-40785D01*
X88714Y-40771D01*
X88728Y-40757D01*
X88742Y-40728D01*
X88742Y-40642D01*
X88728Y-40614D01*
X88714Y-40600D01*
X88685Y-40585D01*
X88628Y-40585D01*
X88599Y-40600D01*
X88342Y-40785D02*
X88342Y-40628D01*
X88357Y-40600D01*
X88385Y-40585D01*
X88442Y-40585D01*
X88471Y-40600D01*
X88342Y-40771D02*
X88371Y-40785D01*
X88442Y-40785D01*
X88471Y-40771D01*
X88485Y-40742D01*
X88485Y-40714D01*
X88471Y-40685D01*
X88442Y-40671D01*
X88371Y-40671D01*
X88342Y-40657D01*
X88071Y-40585D02*
X88071Y-40785D01*
X88199Y-40585D02*
X88199Y-40742D01*
X88185Y-40771D01*
X88157Y-40785D01*
X88114Y-40785D01*
X88085Y-40771D01*
X88071Y-40757D01*
X87942Y-40771D02*
X87914Y-40785D01*
X87857Y-40785D01*
X87828Y-40771D01*
X87814Y-40742D01*
X87814Y-40728D01*
X87828Y-40700D01*
X87857Y-40685D01*
X87899Y-40685D01*
X87928Y-40671D01*
X87942Y-40642D01*
X87942Y-40628D01*
X87928Y-40600D01*
X87899Y-40585D01*
X87857Y-40585D01*
X87828Y-40600D01*
X87571Y-40771D02*
X87599Y-40785D01*
X87657Y-40785D01*
X87685Y-40771D01*
X87699Y-40742D01*
X87699Y-40628D01*
X87685Y-40600D01*
X87657Y-40585D01*
X87599Y-40585D01*
X87571Y-40600D01*
X87557Y-40628D01*
X87557Y-40657D01*
X87699Y-40685D01*
X87199Y-40785D02*
X87199Y-40485D01*
X87071Y-40785D02*
X87071Y-40628D01*
X87085Y-40600D01*
X87114Y-40585D01*
X87157Y-40585D01*
X87185Y-40600D01*
X87199Y-40614D01*
X86814Y-40771D02*
X86842Y-40785D01*
X86899Y-40785D01*
X86928Y-40771D01*
X86942Y-40742D01*
X86942Y-40628D01*
X86928Y-40600D01*
X86899Y-40585D01*
X86842Y-40585D01*
X86814Y-40600D01*
X86799Y-40628D01*
X86799Y-40657D01*
X86942Y-40685D01*
X86657Y-40485D02*
X86685Y-40542D01*
X86542Y-40771D02*
X86514Y-40785D01*
X86457Y-40785D01*
X86428Y-40771D01*
X86414Y-40742D01*
X86414Y-40728D01*
X86428Y-40700D01*
X86457Y-40685D01*
X86499Y-40685D01*
X86528Y-40671D01*
X86542Y-40642D01*
X86542Y-40628D01*
X86528Y-40600D01*
X86499Y-40585D01*
X86457Y-40585D01*
X86428Y-40600D01*
X85928Y-40785D02*
X85928Y-40628D01*
X85942Y-40600D01*
X85971Y-40585D01*
X86028Y-40585D01*
X86057Y-40600D01*
X85928Y-40771D02*
X85957Y-40785D01*
X86028Y-40785D01*
X86057Y-40771D01*
X86071Y-40742D01*
X86071Y-40714D01*
X86057Y-40685D01*
X86028Y-40671D01*
X85957Y-40671D01*
X85928Y-40657D01*
X85428Y-40771D02*
X85457Y-40785D01*
X85514Y-40785D01*
X85542Y-40771D01*
X85557Y-40757D01*
X85571Y-40728D01*
X85571Y-40642D01*
X85557Y-40614D01*
X85542Y-40600D01*
X85514Y-40585D01*
X85457Y-40585D01*
X85428Y-40600D01*
X85257Y-40785D02*
X85285Y-40771D01*
X85299Y-40757D01*
X85314Y-40728D01*
X85314Y-40642D01*
X85299Y-40614D01*
X85285Y-40600D01*
X85257Y-40585D01*
X85214Y-40585D01*
X85185Y-40600D01*
X85171Y-40614D01*
X85157Y-40642D01*
X85157Y-40728D01*
X85171Y-40757D01*
X85185Y-40771D01*
X85214Y-40785D01*
X85257Y-40785D01*
X84985Y-40785D02*
X85014Y-40771D01*
X85028Y-40757D01*
X85042Y-40728D01*
X85042Y-40642D01*
X85028Y-40614D01*
X85014Y-40600D01*
X84985Y-40585D01*
X84942Y-40585D01*
X84914Y-40600D01*
X84899Y-40614D01*
X84885Y-40642D01*
X84885Y-40728D01*
X84899Y-40757D01*
X84914Y-40771D01*
X84942Y-40785D01*
X84985Y-40785D01*
X84714Y-40785D02*
X84742Y-40771D01*
X84757Y-40742D01*
X84757Y-40485D01*
X84242Y-40785D02*
X84242Y-40485D01*
X84242Y-40771D02*
X84271Y-40785D01*
X84328Y-40785D01*
X84357Y-40771D01*
X84371Y-40757D01*
X84385Y-40728D01*
X84385Y-40642D01*
X84371Y-40614D01*
X84357Y-40600D01*
X84328Y-40585D01*
X84271Y-40585D01*
X84242Y-40600D01*
X83971Y-40585D02*
X83971Y-40785D01*
X84099Y-40585D02*
X84099Y-40742D01*
X84085Y-40771D01*
X84057Y-40785D01*
X84014Y-40785D01*
X83985Y-40771D01*
X83971Y-40757D01*
X83699Y-40785D02*
X83699Y-40485D01*
X83699Y-40771D02*
X83728Y-40785D01*
X83785Y-40785D01*
X83814Y-40771D01*
X83828Y-40757D01*
X83842Y-40728D01*
X83842Y-40642D01*
X83828Y-40614D01*
X83814Y-40600D01*
X83785Y-40585D01*
X83728Y-40585D01*
X83699Y-40600D01*
X83442Y-40771D02*
X83471Y-40785D01*
X83528Y-40785D01*
X83557Y-40771D01*
X83571Y-40742D01*
X83571Y-40628D01*
X83557Y-40600D01*
X83528Y-40585D01*
X83471Y-40585D01*
X83442Y-40600D01*
X83428Y-40628D01*
X83428Y-40657D01*
X83571Y-40685D01*
X99428Y-43115D02*
X99428Y-42915D01*
X99428Y-42972D02*
X99414Y-42944D01*
X99400Y-42930D01*
X99371Y-42915D01*
X99342Y-42915D01*
X99128Y-43101D02*
X99157Y-43115D01*
X99214Y-43115D01*
X99242Y-43101D01*
X99257Y-43072D01*
X99257Y-42958D01*
X99242Y-42930D01*
X99214Y-42915D01*
X99157Y-42915D01*
X99128Y-42930D01*
X99114Y-42958D01*
X99114Y-42987D01*
X99257Y-43015D01*
X98857Y-43115D02*
X98857Y-42958D01*
X98871Y-42930D01*
X98900Y-42915D01*
X98957Y-42915D01*
X98985Y-42930D01*
X98857Y-43101D02*
X98885Y-43115D01*
X98957Y-43115D01*
X98985Y-43101D01*
X99000Y-43072D01*
X99000Y-43044D01*
X98985Y-43015D01*
X98957Y-43001D01*
X98885Y-43001D01*
X98857Y-42987D01*
X98714Y-43115D02*
X98714Y-42915D01*
X98714Y-42972D02*
X98700Y-42944D01*
X98685Y-42930D01*
X98657Y-42915D01*
X98628Y-42915D01*
X98300Y-43115D02*
X98300Y-42815D01*
X98171Y-43115D02*
X98171Y-42958D01*
X98185Y-42930D01*
X98214Y-42915D01*
X98257Y-42915D01*
X98285Y-42930D01*
X98300Y-42944D01*
X97914Y-43101D02*
X97942Y-43115D01*
X98000Y-43115D01*
X98028Y-43101D01*
X98042Y-43072D01*
X98042Y-42958D01*
X98028Y-42930D01*
X98000Y-42915D01*
X97942Y-42915D01*
X97914Y-42930D01*
X97900Y-42958D01*
X97900Y-42987D01*
X98042Y-43015D01*
X97642Y-43115D02*
X97642Y-42958D01*
X97657Y-42930D01*
X97685Y-42915D01*
X97742Y-42915D01*
X97771Y-42930D01*
X97642Y-43101D02*
X97671Y-43115D01*
X97742Y-43115D01*
X97771Y-43101D01*
X97785Y-43072D01*
X97785Y-43044D01*
X97771Y-43015D01*
X97742Y-43001D01*
X97671Y-43001D01*
X97642Y-42987D01*
X97371Y-43115D02*
X97371Y-42815D01*
X97371Y-43101D02*
X97399Y-43115D01*
X97457Y-43115D01*
X97485Y-43101D01*
X97499Y-43087D01*
X97514Y-43058D01*
X97514Y-42972D01*
X97499Y-42944D01*
X97485Y-42930D01*
X97457Y-42915D01*
X97399Y-42915D01*
X97371Y-42930D01*
X96999Y-42915D02*
X96999Y-43215D01*
X96999Y-42930D02*
X96971Y-42915D01*
X96914Y-42915D01*
X96885Y-42930D01*
X96871Y-42944D01*
X96857Y-42972D01*
X96857Y-43058D01*
X96871Y-43087D01*
X96885Y-43101D01*
X96914Y-43115D01*
X96971Y-43115D01*
X96999Y-43101D01*
X96599Y-43115D02*
X96599Y-42958D01*
X96614Y-42930D01*
X96642Y-42915D01*
X96699Y-42915D01*
X96728Y-42930D01*
X96599Y-43101D02*
X96628Y-43115D01*
X96699Y-43115D01*
X96728Y-43101D01*
X96742Y-43072D01*
X96742Y-43044D01*
X96728Y-43015D01*
X96699Y-43001D01*
X96628Y-43001D01*
X96599Y-42987D01*
X96457Y-42915D02*
X96457Y-43115D01*
X96457Y-42944D02*
X96442Y-42930D01*
X96414Y-42915D01*
X96371Y-42915D01*
X96342Y-42930D01*
X96328Y-42958D01*
X96328Y-43115D01*
X96071Y-43101D02*
X96099Y-43115D01*
X96157Y-43115D01*
X96185Y-43101D01*
X96199Y-43072D01*
X96199Y-42958D01*
X96185Y-42930D01*
X96157Y-42915D01*
X96099Y-42915D01*
X96071Y-42930D01*
X96057Y-42958D01*
X96057Y-42987D01*
X96199Y-43015D01*
X95885Y-43115D02*
X95914Y-43101D01*
X95928Y-43072D01*
X95928Y-42815D01*
X99428Y-43595D02*
X99428Y-43395D01*
X99428Y-43424D02*
X99414Y-43410D01*
X99385Y-43395D01*
X99342Y-43395D01*
X99314Y-43410D01*
X99300Y-43438D01*
X99300Y-43595D01*
X99300Y-43438D02*
X99285Y-43410D01*
X99257Y-43395D01*
X99214Y-43395D01*
X99185Y-43410D01*
X99171Y-43438D01*
X99171Y-43595D01*
X99028Y-43395D02*
X99028Y-43652D01*
X99042Y-43681D01*
X99071Y-43695D01*
X99085Y-43695D01*
X99028Y-43295D02*
X99042Y-43310D01*
X99028Y-43324D01*
X99014Y-43310D01*
X99028Y-43295D01*
X99028Y-43324D01*
X98757Y-43581D02*
X98785Y-43595D01*
X98842Y-43595D01*
X98871Y-43581D01*
X98885Y-43567D01*
X98900Y-43538D01*
X98900Y-43452D01*
X98885Y-43424D01*
X98871Y-43410D01*
X98842Y-43395D01*
X98785Y-43395D01*
X98757Y-43410D01*
X98414Y-43324D02*
X98400Y-43310D01*
X98371Y-43295D01*
X98300Y-43295D01*
X98271Y-43310D01*
X98257Y-43324D01*
X98242Y-43352D01*
X98242Y-43381D01*
X98257Y-43424D01*
X98428Y-43595D01*
X98242Y-43595D01*
X98057Y-43295D02*
X98028Y-43295D01*
X98000Y-43310D01*
X97985Y-43324D01*
X97971Y-43352D01*
X97957Y-43410D01*
X97957Y-43481D01*
X97971Y-43538D01*
X97985Y-43567D01*
X98000Y-43581D01*
X98028Y-43595D01*
X98057Y-43595D01*
X98085Y-43581D01*
X98100Y-43567D01*
X98114Y-43538D01*
X98128Y-43481D01*
X98128Y-43410D01*
X98114Y-43352D01*
X98100Y-43324D01*
X98085Y-43310D01*
X98057Y-43295D01*
X97671Y-43595D02*
X97842Y-43595D01*
X97757Y-43595D02*
X97757Y-43295D01*
X97785Y-43338D01*
X97814Y-43367D01*
X97842Y-43381D01*
X97414Y-43395D02*
X97414Y-43595D01*
X97485Y-43281D02*
X97557Y-43495D01*
X97371Y-43495D01*
X97257Y-43481D02*
X97028Y-43481D01*
X96828Y-43295D02*
X96800Y-43295D01*
X96771Y-43310D01*
X96757Y-43324D01*
X96742Y-43352D01*
X96728Y-43410D01*
X96728Y-43481D01*
X96742Y-43538D01*
X96757Y-43567D01*
X96771Y-43581D01*
X96800Y-43595D01*
X96828Y-43595D01*
X96857Y-43581D01*
X96871Y-43567D01*
X96885Y-43538D01*
X96900Y-43481D01*
X96900Y-43410D01*
X96885Y-43352D01*
X96871Y-43324D01*
X96857Y-43310D01*
X96828Y-43295D01*
X96471Y-43395D02*
X96471Y-43595D01*
X96542Y-43281D02*
X96614Y-43495D01*
X96428Y-43495D01*
X96314Y-43481D02*
X96085Y-43481D01*
X95885Y-43295D02*
X95857Y-43295D01*
X95828Y-43310D01*
X95814Y-43324D01*
X95800Y-43352D01*
X95785Y-43410D01*
X95785Y-43481D01*
X95800Y-43538D01*
X95814Y-43567D01*
X95828Y-43581D01*
X95857Y-43595D01*
X95885Y-43595D01*
X95914Y-43581D01*
X95928Y-43567D01*
X95942Y-43538D01*
X95957Y-43481D01*
X95957Y-43410D01*
X95942Y-43352D01*
X95928Y-43324D01*
X95914Y-43310D01*
X95885Y-43295D01*
X95500Y-43595D02*
X95671Y-43595D01*
X95585Y-43595D02*
X95585Y-43295D01*
X95614Y-43338D01*
X95642Y-43367D01*
X95671Y-43381D01*
X99385Y-44075D02*
X99414Y-44061D01*
X99428Y-44047D01*
X99442Y-44018D01*
X99442Y-43932D01*
X99428Y-43904D01*
X99414Y-43890D01*
X99385Y-43875D01*
X99342Y-43875D01*
X99314Y-43890D01*
X99300Y-43904D01*
X99285Y-43932D01*
X99285Y-44018D01*
X99300Y-44047D01*
X99314Y-44061D01*
X99342Y-44075D01*
X99385Y-44075D01*
X99157Y-43875D02*
X99157Y-44175D01*
X99157Y-43890D02*
X99128Y-43875D01*
X99071Y-43875D01*
X99042Y-43890D01*
X99028Y-43904D01*
X99014Y-43932D01*
X99014Y-44018D01*
X99028Y-44047D01*
X99042Y-44061D01*
X99071Y-44075D01*
X99128Y-44075D01*
X99157Y-44061D01*
X98771Y-44061D02*
X98799Y-44075D01*
X98857Y-44075D01*
X98885Y-44061D01*
X98899Y-44032D01*
X98899Y-43918D01*
X98885Y-43890D01*
X98857Y-43875D01*
X98799Y-43875D01*
X98771Y-43890D01*
X98757Y-43918D01*
X98757Y-43947D01*
X98899Y-43975D01*
X98628Y-43875D02*
X98628Y-44075D01*
X98628Y-43904D02*
X98614Y-43890D01*
X98585Y-43875D01*
X98542Y-43875D01*
X98514Y-43890D01*
X98499Y-43918D01*
X98499Y-44075D01*
X98142Y-44061D02*
X98114Y-44075D01*
X98057Y-44075D01*
X98028Y-44061D01*
X98014Y-44032D01*
X98014Y-44018D01*
X98028Y-43990D01*
X98057Y-43975D01*
X98099Y-43975D01*
X98128Y-43961D01*
X98142Y-43932D01*
X98142Y-43918D01*
X98128Y-43890D01*
X98099Y-43875D01*
X98057Y-43875D01*
X98028Y-43890D01*
X97842Y-44075D02*
X97871Y-44061D01*
X97885Y-44047D01*
X97899Y-44018D01*
X97899Y-43932D01*
X97885Y-43904D01*
X97871Y-43890D01*
X97842Y-43875D01*
X97799Y-43875D01*
X97771Y-43890D01*
X97757Y-43904D01*
X97742Y-43932D01*
X97742Y-44018D01*
X97757Y-44047D01*
X97771Y-44061D01*
X97799Y-44075D01*
X97842Y-44075D01*
X97485Y-43875D02*
X97485Y-44075D01*
X97614Y-43875D02*
X97614Y-44032D01*
X97599Y-44061D01*
X97571Y-44075D01*
X97528Y-44075D01*
X97499Y-44061D01*
X97485Y-44047D01*
X97342Y-44075D02*
X97342Y-43875D01*
X97342Y-43932D02*
X97328Y-43904D01*
X97314Y-43890D01*
X97285Y-43875D01*
X97257Y-43875D01*
X97028Y-44061D02*
X97057Y-44075D01*
X97114Y-44075D01*
X97142Y-44061D01*
X97157Y-44047D01*
X97171Y-44018D01*
X97171Y-43932D01*
X97157Y-43904D01*
X97142Y-43890D01*
X97114Y-43875D01*
X97057Y-43875D01*
X97028Y-43890D01*
X96785Y-44061D02*
X96814Y-44075D01*
X96871Y-44075D01*
X96899Y-44061D01*
X96914Y-44032D01*
X96914Y-43918D01*
X96899Y-43890D01*
X96871Y-43875D01*
X96814Y-43875D01*
X96785Y-43890D01*
X96771Y-43918D01*
X96771Y-43947D01*
X96914Y-43975D01*
X96414Y-44075D02*
X96414Y-43775D01*
X96285Y-44075D02*
X96285Y-43918D01*
X96299Y-43890D01*
X96328Y-43875D01*
X96371Y-43875D01*
X96399Y-43890D01*
X96414Y-43904D01*
X96014Y-44075D02*
X96014Y-43918D01*
X96028Y-43890D01*
X96057Y-43875D01*
X96114Y-43875D01*
X96142Y-43890D01*
X96014Y-44061D02*
X96042Y-44075D01*
X96114Y-44075D01*
X96142Y-44061D01*
X96157Y-44032D01*
X96157Y-44004D01*
X96142Y-43975D01*
X96114Y-43961D01*
X96042Y-43961D01*
X96014Y-43947D01*
X95871Y-44075D02*
X95871Y-43875D01*
X95871Y-43932D02*
X95857Y-43904D01*
X95842Y-43890D01*
X95814Y-43875D01*
X95785Y-43875D01*
X95557Y-44075D02*
X95557Y-43775D01*
X95557Y-44061D02*
X95585Y-44075D01*
X95642Y-44075D01*
X95671Y-44061D01*
X95685Y-44047D01*
X95699Y-44018D01*
X95699Y-43932D01*
X95685Y-43904D01*
X95671Y-43890D01*
X95642Y-43875D01*
X95585Y-43875D01*
X95557Y-43890D01*
X95442Y-43875D02*
X95385Y-44075D01*
X95328Y-43932D01*
X95271Y-44075D01*
X95214Y-43875D01*
X94971Y-44075D02*
X94971Y-43918D01*
X94985Y-43890D01*
X95014Y-43875D01*
X95071Y-43875D01*
X95099Y-43890D01*
X94971Y-44061D02*
X94999Y-44075D01*
X95071Y-44075D01*
X95099Y-44061D01*
X95114Y-44032D01*
X95114Y-44004D01*
X95099Y-43975D01*
X95071Y-43961D01*
X94999Y-43961D01*
X94971Y-43947D01*
X94828Y-44075D02*
X94828Y-43875D01*
X94828Y-43932D02*
X94814Y-43904D01*
X94799Y-43890D01*
X94771Y-43875D01*
X94742Y-43875D01*
X94528Y-44061D02*
X94557Y-44075D01*
X94614Y-44075D01*
X94642Y-44061D01*
X94657Y-44032D01*
X94657Y-43918D01*
X94642Y-43890D01*
X94614Y-43875D01*
X94557Y-43875D01*
X94528Y-43890D01*
X94514Y-43918D01*
X94514Y-43947D01*
X94657Y-43975D01*
X94385Y-44047D02*
X94371Y-44061D01*
X94385Y-44075D01*
X94399Y-44061D01*
X94385Y-44047D01*
X94385Y-44075D01*
X94385Y-43890D02*
X94371Y-43904D01*
X94385Y-43918D01*
X94399Y-43904D01*
X94385Y-43890D01*
X94385Y-43918D01*
X93885Y-44061D02*
X93914Y-44075D01*
X93971Y-44075D01*
X93999Y-44061D01*
X94014Y-44047D01*
X94028Y-44018D01*
X94028Y-43932D01*
X94014Y-43904D01*
X93999Y-43890D01*
X93971Y-43875D01*
X93914Y-43875D01*
X93885Y-43890D01*
X93628Y-44061D02*
X93657Y-44075D01*
X93714Y-44075D01*
X93742Y-44061D01*
X93757Y-44047D01*
X93771Y-44018D01*
X93771Y-43932D01*
X93757Y-43904D01*
X93742Y-43890D01*
X93714Y-43875D01*
X93657Y-43875D01*
X93628Y-43890D01*
X93271Y-44075D02*
X93271Y-43775D01*
X93271Y-43890D02*
X93242Y-43875D01*
X93185Y-43875D01*
X93157Y-43890D01*
X93142Y-43904D01*
X93128Y-43932D01*
X93128Y-44018D01*
X93142Y-44047D01*
X93157Y-44061D01*
X93185Y-44075D01*
X93242Y-44075D01*
X93271Y-44061D01*
X93028Y-43875D02*
X92957Y-44075D01*
X92885Y-43875D02*
X92957Y-44075D01*
X92985Y-44147D01*
X92999Y-44161D01*
X93028Y-44175D01*
X92771Y-43961D02*
X92542Y-43961D01*
X92414Y-44061D02*
X92385Y-44075D01*
X92328Y-44075D01*
X92299Y-44061D01*
X92285Y-44032D01*
X92285Y-44018D01*
X92299Y-43990D01*
X92328Y-43975D01*
X92371Y-43975D01*
X92399Y-43961D01*
X92414Y-43932D01*
X92414Y-43918D01*
X92399Y-43890D01*
X92371Y-43875D01*
X92328Y-43875D01*
X92299Y-43890D01*
X92028Y-44075D02*
X92028Y-43918D01*
X92042Y-43890D01*
X92071Y-43875D01*
X92128Y-43875D01*
X92157Y-43890D01*
X92028Y-44061D02*
X92057Y-44075D01*
X92128Y-44075D01*
X92157Y-44061D01*
X92171Y-44032D01*
X92171Y-44004D01*
X92157Y-43975D01*
X92128Y-43961D01*
X92057Y-43961D01*
X92028Y-43947D01*
X91528Y-43875D02*
X91528Y-44075D01*
X91599Y-43761D02*
X91671Y-43975D01*
X91485Y-43975D01*
X91371Y-44047D02*
X91357Y-44061D01*
X91371Y-44075D01*
X91385Y-44061D01*
X91371Y-44047D01*
X91371Y-44075D01*
X91171Y-43775D02*
X91142Y-43775D01*
X91114Y-43790D01*
X91099Y-43804D01*
X91085Y-43832D01*
X91071Y-43890D01*
X91071Y-43961D01*
X91085Y-44018D01*
X91099Y-44047D01*
X91114Y-44061D01*
X91142Y-44075D01*
X91171Y-44075D01*
X91199Y-44061D01*
X91214Y-44047D01*
X91228Y-44018D01*
X91242Y-43961D01*
X91242Y-43890D01*
X91228Y-43832D01*
X91214Y-43804D01*
X91199Y-43790D01*
X91171Y-43775D01*
X99300Y-44355D02*
X99300Y-44598D01*
X99314Y-44627D01*
X99328Y-44641D01*
X99357Y-44655D01*
X99400Y-44655D01*
X99428Y-44641D01*
X99300Y-44541D02*
X99328Y-44555D01*
X99385Y-44555D01*
X99414Y-44541D01*
X99428Y-44527D01*
X99442Y-44498D01*
X99442Y-44412D01*
X99428Y-44384D01*
X99414Y-44370D01*
X99385Y-44355D01*
X99328Y-44355D01*
X99300Y-44370D01*
X99157Y-44555D02*
X99157Y-44355D01*
X99157Y-44255D02*
X99171Y-44270D01*
X99157Y-44284D01*
X99142Y-44270D01*
X99157Y-44255D01*
X99157Y-44284D01*
X99057Y-44355D02*
X98942Y-44355D01*
X99014Y-44255D02*
X99014Y-44512D01*
X99000Y-44541D01*
X98971Y-44555D01*
X98942Y-44555D01*
X98842Y-44555D02*
X98842Y-44255D01*
X98714Y-44555D02*
X98714Y-44398D01*
X98728Y-44370D01*
X98757Y-44355D01*
X98799Y-44355D01*
X98828Y-44370D01*
X98842Y-44384D01*
X98442Y-44355D02*
X98442Y-44555D01*
X98571Y-44355D02*
X98571Y-44512D01*
X98557Y-44541D01*
X98528Y-44555D01*
X98485Y-44555D01*
X98457Y-44541D01*
X98442Y-44527D01*
X98299Y-44555D02*
X98299Y-44255D01*
X98299Y-44370D02*
X98271Y-44355D01*
X98214Y-44355D01*
X98185Y-44370D01*
X98171Y-44384D01*
X98157Y-44412D01*
X98157Y-44498D01*
X98171Y-44527D01*
X98185Y-44541D01*
X98214Y-44555D01*
X98271Y-44555D01*
X98299Y-44541D01*
X98028Y-44527D02*
X98014Y-44541D01*
X98028Y-44555D01*
X98042Y-44541D01*
X98028Y-44527D01*
X98028Y-44555D01*
X97757Y-44541D02*
X97785Y-44555D01*
X97842Y-44555D01*
X97871Y-44541D01*
X97885Y-44527D01*
X97899Y-44498D01*
X97899Y-44412D01*
X97885Y-44384D01*
X97871Y-44370D01*
X97842Y-44355D01*
X97785Y-44355D01*
X97757Y-44370D01*
X97585Y-44555D02*
X97614Y-44541D01*
X97628Y-44527D01*
X97642Y-44498D01*
X97642Y-44412D01*
X97628Y-44384D01*
X97614Y-44370D01*
X97585Y-44355D01*
X97542Y-44355D01*
X97514Y-44370D01*
X97499Y-44384D01*
X97485Y-44412D01*
X97485Y-44498D01*
X97499Y-44527D01*
X97514Y-44541D01*
X97542Y-44555D01*
X97585Y-44555D01*
X97357Y-44555D02*
X97357Y-44355D01*
X97357Y-44384D02*
X97342Y-44370D01*
X97314Y-44355D01*
X97271Y-44355D01*
X97242Y-44370D01*
X97228Y-44398D01*
X97228Y-44555D01*
X97228Y-44398D02*
X97214Y-44370D01*
X97185Y-44355D01*
X97142Y-44355D01*
X97114Y-44370D01*
X97099Y-44398D01*
X97099Y-44555D01*
X96742Y-44241D02*
X96999Y-44627D01*
X96642Y-44555D02*
X96642Y-44355D01*
X96642Y-44384D02*
X96628Y-44370D01*
X96599Y-44355D01*
X96557Y-44355D01*
X96528Y-44370D01*
X96514Y-44398D01*
X96514Y-44555D01*
X96514Y-44398D02*
X96499Y-44370D01*
X96471Y-44355D01*
X96428Y-44355D01*
X96399Y-44370D01*
X96385Y-44398D01*
X96385Y-44555D01*
X96114Y-44541D02*
X96142Y-44555D01*
X96199Y-44555D01*
X96228Y-44541D01*
X96242Y-44527D01*
X96257Y-44498D01*
X96257Y-44412D01*
X96242Y-44384D01*
X96228Y-44370D01*
X96199Y-44355D01*
X96142Y-44355D01*
X96114Y-44370D01*
X95942Y-44555D02*
X95971Y-44541D01*
X95985Y-44527D01*
X95999Y-44498D01*
X95999Y-44412D01*
X95985Y-44384D01*
X95971Y-44370D01*
X95942Y-44355D01*
X95899Y-44355D01*
X95871Y-44370D01*
X95857Y-44384D01*
X95842Y-44412D01*
X95842Y-44498D01*
X95857Y-44527D01*
X95871Y-44541D01*
X95899Y-44555D01*
X95942Y-44555D01*
X95585Y-44355D02*
X95585Y-44555D01*
X95714Y-44355D02*
X95714Y-44512D01*
X95699Y-44541D01*
X95671Y-44555D01*
X95628Y-44555D01*
X95599Y-44541D01*
X95585Y-44527D01*
X95457Y-44541D02*
X95428Y-44555D01*
X95371Y-44555D01*
X95342Y-44541D01*
X95328Y-44512D01*
X95328Y-44498D01*
X95342Y-44470D01*
X95371Y-44455D01*
X95414Y-44455D01*
X95442Y-44441D01*
X95457Y-44412D01*
X95457Y-44398D01*
X95442Y-44370D01*
X95414Y-44355D01*
X95371Y-44355D01*
X95342Y-44370D01*
X94985Y-44241D02*
X95242Y-44627D01*
X94885Y-44555D02*
X94885Y-44355D01*
X94885Y-44412D02*
X94871Y-44384D01*
X94857Y-44370D01*
X94828Y-44355D01*
X94799Y-44355D01*
X94714Y-44284D02*
X94699Y-44270D01*
X94671Y-44255D01*
X94599Y-44255D01*
X94571Y-44270D01*
X94557Y-44284D01*
X94542Y-44312D01*
X94542Y-44341D01*
X94557Y-44384D01*
X94728Y-44555D01*
X94542Y-44555D01*
X94285Y-44555D02*
X94285Y-44255D01*
X94285Y-44541D02*
X94314Y-44555D01*
X94371Y-44555D01*
X94399Y-44541D01*
X94414Y-44527D01*
X94428Y-44498D01*
X94428Y-44412D01*
X94414Y-44384D01*
X94399Y-44370D01*
X94371Y-44355D01*
X94314Y-44355D01*
X94285Y-44370D01*
X94142Y-44555D02*
X94142Y-44255D01*
X94142Y-44370D02*
X94114Y-44355D01*
X94057Y-44355D01*
X94028Y-44370D01*
X94014Y-44384D01*
X93999Y-44412D01*
X93999Y-44498D01*
X94014Y-44527D01*
X94028Y-44541D01*
X94057Y-44555D01*
X94114Y-44555D01*
X94142Y-44541D01*
X93871Y-44555D02*
X93871Y-44355D01*
X93871Y-44412D02*
X93857Y-44384D01*
X93842Y-44370D01*
X93814Y-44355D01*
X93785Y-44355D01*
X93571Y-44541D02*
X93599Y-44555D01*
X93657Y-44555D01*
X93685Y-44541D01*
X93699Y-44512D01*
X93699Y-44398D01*
X93685Y-44370D01*
X93657Y-44355D01*
X93599Y-44355D01*
X93571Y-44370D01*
X93557Y-44398D01*
X93557Y-44427D01*
X93699Y-44455D01*
X93457Y-44355D02*
X93399Y-44555D01*
X93342Y-44412D01*
X93285Y-44555D01*
X93228Y-44355D01*
%LPC*%
G54D13*
X71500Y-45500D03*
G54D14*
X72500Y-45500D03*
X73500Y-45500D03*
X74500Y-45500D03*
G54D13*
X71500Y-43500D03*
G54D14*
X72500Y-43500D03*
X73500Y-43500D03*
X74500Y-43500D03*
G54D13*
X62000Y-43500D03*
G54D14*
X63000Y-43500D03*
X64000Y-43500D03*
X65000Y-43500D03*
G54D13*
X62000Y-45500D03*
G54D14*
X63000Y-45500D03*
X64000Y-45500D03*
X65000Y-45500D03*
G54D15*
X53500Y-43250D03*
G54D16*
X53500Y-45250D03*
G54D17*
X53000Y-31250D03*
X54000Y-31250D03*
X53000Y-33500D03*
X54000Y-33500D03*
X53000Y-35750D03*
X54000Y-35750D03*
X53000Y-38000D03*
X54000Y-38000D03*
X98000Y-31250D03*
X99000Y-31250D03*
X98000Y-33500D03*
X99000Y-33500D03*
X98000Y-35750D03*
X99000Y-35750D03*
X98000Y-38000D03*
X99000Y-38000D03*
X55250Y-31250D03*
X56250Y-31250D03*
X55250Y-33500D03*
X56250Y-33500D03*
X55250Y-35750D03*
X56250Y-35750D03*
X55250Y-38000D03*
X56250Y-38000D03*
X95750Y-31250D03*
X96750Y-31250D03*
X95750Y-33500D03*
X96750Y-33500D03*
X95750Y-35750D03*
X96750Y-35750D03*
X95750Y-38000D03*
X96750Y-38000D03*
X57500Y-31250D03*
X58500Y-31250D03*
X57500Y-33500D03*
X58500Y-33500D03*
X57500Y-35750D03*
X58500Y-35750D03*
X57500Y-38000D03*
X58500Y-38000D03*
X93500Y-31250D03*
X94500Y-31250D03*
X93500Y-33500D03*
X94500Y-33500D03*
X93500Y-35750D03*
X94500Y-35750D03*
X93500Y-38000D03*
X94500Y-38000D03*
X59750Y-31250D03*
X60750Y-31250D03*
X59750Y-33500D03*
X60750Y-33500D03*
X59750Y-35750D03*
X60750Y-35750D03*
X59750Y-38000D03*
X60750Y-38000D03*
X91250Y-31250D03*
X92250Y-31250D03*
X91250Y-33500D03*
X92250Y-33500D03*
X91250Y-35750D03*
X92250Y-35750D03*
X91250Y-38000D03*
X92250Y-38000D03*
X62000Y-31250D03*
X63000Y-31250D03*
X62000Y-33500D03*
X63000Y-33500D03*
X62000Y-35750D03*
X63000Y-35750D03*
X62000Y-38000D03*
X63000Y-38000D03*
X89000Y-31250D03*
X90000Y-31250D03*
X89000Y-33500D03*
X90000Y-33500D03*
X89000Y-35750D03*
X90000Y-35750D03*
X89000Y-38000D03*
X90000Y-38000D03*
X64250Y-31250D03*
X65250Y-31250D03*
X64250Y-33500D03*
X65250Y-33500D03*
X64250Y-35750D03*
X65250Y-35750D03*
X64250Y-38000D03*
X65250Y-38000D03*
X86750Y-31250D03*
X87750Y-31250D03*
X86750Y-33500D03*
X87750Y-33500D03*
X86750Y-35750D03*
X87750Y-35750D03*
X86750Y-38000D03*
X87750Y-38000D03*
X66500Y-31250D03*
X67500Y-31250D03*
X66500Y-33500D03*
X67500Y-33500D03*
X66500Y-35750D03*
X67500Y-35750D03*
X66500Y-38000D03*
X67500Y-38000D03*
X84500Y-31250D03*
X85500Y-31250D03*
X84500Y-33500D03*
X85500Y-33500D03*
X84500Y-35750D03*
X85500Y-35750D03*
X84500Y-38000D03*
X85500Y-38000D03*
X68750Y-31250D03*
X69750Y-31250D03*
X68750Y-33500D03*
X69750Y-33500D03*
X68750Y-35750D03*
X69750Y-35750D03*
X68750Y-38000D03*
X69750Y-38000D03*
X82250Y-31250D03*
X83250Y-31250D03*
X82250Y-33500D03*
X83250Y-33500D03*
X82250Y-35750D03*
X83250Y-35750D03*
X82250Y-38000D03*
X83250Y-38000D03*
X71000Y-31250D03*
X72000Y-31250D03*
X71000Y-33500D03*
X72000Y-33500D03*
X71000Y-35750D03*
X72000Y-35750D03*
X71000Y-38000D03*
X72000Y-38000D03*
X80000Y-31250D03*
X81000Y-31250D03*
X80000Y-33500D03*
X81000Y-33500D03*
X80000Y-35750D03*
X81000Y-35750D03*
X80000Y-38000D03*
X81000Y-38000D03*
X73250Y-31250D03*
X74250Y-31250D03*
X73250Y-33500D03*
X74250Y-33500D03*
X73250Y-35750D03*
X74250Y-35750D03*
X73250Y-38000D03*
X74250Y-38000D03*
X77750Y-31250D03*
X78750Y-31250D03*
X77750Y-33500D03*
X78750Y-33500D03*
X77750Y-35750D03*
X78750Y-35750D03*
X77750Y-38000D03*
X78750Y-38000D03*
X75500Y-31250D03*
X76500Y-31250D03*
X75500Y-33500D03*
X76500Y-33500D03*
X75500Y-35750D03*
X76500Y-35750D03*
X75500Y-38000D03*
X76500Y-38000D03*
G54D18*
X76750Y-43500D03*
G54D19*
X77750Y-43500D03*
X76750Y-44500D03*
X77750Y-44500D03*
X76750Y-45500D03*
X77750Y-45500D03*
G54D20*
X85500Y-44960D03*
X85500Y-43039D03*
M02*
