%FSLAX34Y34*%
G04 Gerber Fmt 3.4, Leading zero omitted, Abs format*
G04 (created by PCBNEW (2014-03-18 BZR 4754)-product) date Tue 01 Apr 2014 06:21:33 PM CDT*
%MOIN*%
G01*
G70*
G90*
G04 APERTURE LIST*
%ADD10C,0.006000*%
%ADD11R,0.027559X0.027559*%
%ADD12R,0.062992X0.070866*%
%ADD13R,0.013800X0.055100*%
%ADD14R,0.062992X0.011811*%
%ADD15R,0.133858X0.255906*%
%ADD16R,0.047244X0.086614*%
%ADD17R,0.137795X0.086614*%
%ADD18R,0.055118X0.015748*%
%ADD19R,0.074803X0.090551*%
%ADD20R,0.074803X0.070866*%
%ADD21R,0.070866X0.070866*%
%ADD22C,0.070866*%
%ADD23R,0.086614X0.086614*%
%ADD24C,0.086614*%
%ADD25C,0.062992*%
%ADD26R,0.066929X0.066929*%
%ADD27C,0.066929*%
%ADD28R,0.025591X0.041732*%
%ADD29C,0.055118*%
%ADD30C,0.030000*%
%ADD31C,0.010000*%
G04 APERTURE END LIST*
G54D10*
G54D11*
X92525Y-41750D03*
X91974Y-41750D03*
X94974Y-45500D03*
X95525Y-45500D03*
X67775Y-45750D03*
X67224Y-45750D03*
X96474Y-43000D03*
X97025Y-43000D03*
X96474Y-45250D03*
X97025Y-45250D03*
X91974Y-44000D03*
X92525Y-44000D03*
X91974Y-43250D03*
X92525Y-43250D03*
X91974Y-42500D03*
X92525Y-42500D03*
X78474Y-40000D03*
X79025Y-40000D03*
X84000Y-42974D03*
X84000Y-43525D03*
X84000Y-45025D03*
X84000Y-44474D03*
X82500Y-45025D03*
X82500Y-44474D03*
X83250Y-45025D03*
X83250Y-44474D03*
X91224Y-45750D03*
X91775Y-45750D03*
G54D12*
X94051Y-45500D03*
X92948Y-45500D03*
G54D13*
X89396Y-41618D03*
X89140Y-41618D03*
X88884Y-41618D03*
X88628Y-41618D03*
X88372Y-41618D03*
X88116Y-41618D03*
X87860Y-41618D03*
X87604Y-41618D03*
X87604Y-43882D03*
X87860Y-43882D03*
X88116Y-43882D03*
X88372Y-43882D03*
X88628Y-43882D03*
X88884Y-43882D03*
X89140Y-43882D03*
X89396Y-43882D03*
G54D14*
X67147Y-44645D03*
X67147Y-44901D03*
X67147Y-44389D03*
X67147Y-44133D03*
X67147Y-43877D03*
X67147Y-43622D03*
X67147Y-43366D03*
X67147Y-43110D03*
X69352Y-42598D03*
X69352Y-42854D03*
X69352Y-43110D03*
X69352Y-43366D03*
X69352Y-44901D03*
X69352Y-44645D03*
X69352Y-44389D03*
X69352Y-44133D03*
X69352Y-43877D03*
X69352Y-43622D03*
G54D15*
X68250Y-43750D03*
G54D14*
X67147Y-42854D03*
X67147Y-42598D03*
G54D13*
X93604Y-44132D03*
X93860Y-44132D03*
X94116Y-44132D03*
X94372Y-44132D03*
X94628Y-44132D03*
X94884Y-44132D03*
X95140Y-44132D03*
X95396Y-44132D03*
X95396Y-41868D03*
X95140Y-41868D03*
X94884Y-41868D03*
X94628Y-41868D03*
X94372Y-41868D03*
X94116Y-41868D03*
X93860Y-41868D03*
X93604Y-41868D03*
G54D16*
X59155Y-43029D03*
X58250Y-43029D03*
X57344Y-43029D03*
G54D17*
X58250Y-45470D03*
G54D10*
G36*
X81668Y-44338D02*
X81529Y-44477D01*
X81111Y-44059D01*
X81251Y-43920D01*
X81668Y-44338D01*
X81668Y-44338D01*
G37*
G36*
X81891Y-44115D02*
X81752Y-44254D01*
X81334Y-43836D01*
X81473Y-43697D01*
X81891Y-44115D01*
X81891Y-44115D01*
G37*
G36*
X82114Y-43892D02*
X81975Y-44031D01*
X81557Y-43614D01*
X81696Y-43474D01*
X82114Y-43892D01*
X82114Y-43892D01*
G37*
G36*
X82337Y-43669D02*
X82197Y-43809D01*
X81779Y-43391D01*
X81919Y-43251D01*
X82337Y-43669D01*
X82337Y-43669D01*
G37*
G36*
X82559Y-43447D02*
X82419Y-43587D01*
X82001Y-43169D01*
X82141Y-43029D01*
X82559Y-43447D01*
X82559Y-43447D01*
G37*
G36*
X82781Y-43225D02*
X82642Y-43364D01*
X82224Y-42946D01*
X82364Y-42807D01*
X82781Y-43225D01*
X82781Y-43225D01*
G37*
G36*
X83004Y-43002D02*
X82865Y-43141D01*
X82447Y-42723D01*
X82586Y-42584D01*
X83004Y-43002D01*
X83004Y-43002D01*
G37*
G36*
X83227Y-42779D02*
X83088Y-42918D01*
X82670Y-42501D01*
X82809Y-42361D01*
X83227Y-42779D01*
X83227Y-42779D01*
G37*
G36*
X83088Y-41581D02*
X83227Y-41720D01*
X82809Y-42138D01*
X82670Y-41998D01*
X83088Y-41581D01*
X83088Y-41581D01*
G37*
G36*
X82865Y-41358D02*
X83004Y-41497D01*
X82586Y-41915D01*
X82447Y-41776D01*
X82865Y-41358D01*
X82865Y-41358D01*
G37*
G36*
X82642Y-41135D02*
X82781Y-41274D01*
X82364Y-41692D01*
X82224Y-41553D01*
X82642Y-41135D01*
X82642Y-41135D01*
G37*
G36*
X82419Y-40912D02*
X82559Y-41052D01*
X82141Y-41470D01*
X82001Y-41330D01*
X82419Y-40912D01*
X82419Y-40912D01*
G37*
G36*
X82197Y-40690D02*
X82337Y-40830D01*
X81919Y-41248D01*
X81779Y-41108D01*
X82197Y-40690D01*
X82197Y-40690D01*
G37*
G36*
X81975Y-40468D02*
X82114Y-40607D01*
X81696Y-41025D01*
X81557Y-40885D01*
X81975Y-40468D01*
X81975Y-40468D01*
G37*
G36*
X81752Y-40245D02*
X81891Y-40384D01*
X81473Y-40802D01*
X81334Y-40663D01*
X81752Y-40245D01*
X81752Y-40245D01*
G37*
G36*
X81529Y-40022D02*
X81668Y-40161D01*
X81251Y-40579D01*
X81111Y-40440D01*
X81529Y-40022D01*
X81529Y-40022D01*
G37*
G36*
X80331Y-40161D02*
X80470Y-40022D01*
X80888Y-40440D01*
X80748Y-40579D01*
X80331Y-40161D01*
X80331Y-40161D01*
G37*
G36*
X80108Y-40384D02*
X80247Y-40245D01*
X80665Y-40663D01*
X80526Y-40802D01*
X80108Y-40384D01*
X80108Y-40384D01*
G37*
G36*
X79885Y-40607D02*
X80024Y-40468D01*
X80442Y-40885D01*
X80303Y-41025D01*
X79885Y-40607D01*
X79885Y-40607D01*
G37*
G36*
X79662Y-40830D02*
X79802Y-40690D01*
X80220Y-41108D01*
X80080Y-41248D01*
X79662Y-40830D01*
X79662Y-40830D01*
G37*
G36*
X79440Y-41052D02*
X79580Y-40912D01*
X79998Y-41330D01*
X79858Y-41470D01*
X79440Y-41052D01*
X79440Y-41052D01*
G37*
G36*
X79218Y-41274D02*
X79357Y-41135D01*
X79775Y-41553D01*
X79635Y-41692D01*
X79218Y-41274D01*
X79218Y-41274D01*
G37*
G36*
X78995Y-41497D02*
X79134Y-41358D01*
X79552Y-41776D01*
X79413Y-41915D01*
X78995Y-41497D01*
X78995Y-41497D01*
G37*
G36*
X78772Y-41720D02*
X78911Y-41581D01*
X79329Y-41998D01*
X79190Y-42138D01*
X78772Y-41720D01*
X78772Y-41720D01*
G37*
G36*
X78911Y-42918D02*
X78772Y-42779D01*
X79190Y-42361D01*
X79329Y-42501D01*
X78911Y-42918D01*
X78911Y-42918D01*
G37*
G36*
X79134Y-43141D02*
X78995Y-43002D01*
X79413Y-42584D01*
X79552Y-42723D01*
X79134Y-43141D01*
X79134Y-43141D01*
G37*
G36*
X79357Y-43364D02*
X79218Y-43225D01*
X79635Y-42807D01*
X79775Y-42946D01*
X79357Y-43364D01*
X79357Y-43364D01*
G37*
G36*
X79580Y-43587D02*
X79440Y-43447D01*
X79858Y-43029D01*
X79998Y-43169D01*
X79580Y-43587D01*
X79580Y-43587D01*
G37*
G36*
X79802Y-43809D02*
X79662Y-43669D01*
X80080Y-43251D01*
X80220Y-43391D01*
X79802Y-43809D01*
X79802Y-43809D01*
G37*
G36*
X80024Y-44031D02*
X79885Y-43892D01*
X80303Y-43474D01*
X80442Y-43614D01*
X80024Y-44031D01*
X80024Y-44031D01*
G37*
G36*
X80247Y-44254D02*
X80108Y-44115D01*
X80526Y-43697D01*
X80665Y-43836D01*
X80247Y-44254D01*
X80247Y-44254D01*
G37*
G36*
X80470Y-44477D02*
X80331Y-44338D01*
X80748Y-43920D01*
X80888Y-44059D01*
X80470Y-44477D01*
X80470Y-44477D01*
G37*
G54D18*
X98047Y-44611D03*
X98047Y-44355D03*
X98047Y-44100D03*
X98047Y-43844D03*
X98047Y-43588D03*
G54D19*
X99169Y-45576D03*
X99169Y-42623D03*
G54D20*
X99169Y-43647D03*
X99169Y-44552D03*
G54D21*
X71500Y-45500D03*
G54D22*
X72500Y-45500D03*
X73500Y-45500D03*
X74500Y-45500D03*
G54D21*
X71500Y-43500D03*
G54D22*
X72500Y-43500D03*
X73500Y-43500D03*
X74500Y-43500D03*
G54D21*
X62000Y-43500D03*
G54D22*
X63000Y-43500D03*
X64000Y-43500D03*
X65000Y-43500D03*
G54D21*
X62000Y-45500D03*
G54D22*
X63000Y-45500D03*
X64000Y-45500D03*
X65000Y-45500D03*
G54D23*
X53500Y-43250D03*
G54D24*
X53500Y-45250D03*
G54D11*
X88525Y-45750D03*
X87974Y-45750D03*
X88525Y-45000D03*
X87974Y-45000D03*
G54D25*
X53000Y-31250D03*
X54000Y-31250D03*
X53000Y-33500D03*
X54000Y-33500D03*
X53000Y-35750D03*
X54000Y-35750D03*
X53000Y-38000D03*
X54000Y-38000D03*
X98000Y-31250D03*
X99000Y-31250D03*
X98000Y-33500D03*
X99000Y-33500D03*
X98000Y-35750D03*
X99000Y-35750D03*
X98000Y-38000D03*
X99000Y-38000D03*
X55250Y-31250D03*
X56250Y-31250D03*
X55250Y-33500D03*
X56250Y-33500D03*
X55250Y-35750D03*
X56250Y-35750D03*
X55250Y-38000D03*
X56250Y-38000D03*
X95750Y-31250D03*
X96750Y-31250D03*
X95750Y-33500D03*
X96750Y-33500D03*
X95750Y-35750D03*
X96750Y-35750D03*
X95750Y-38000D03*
X96750Y-38000D03*
X57500Y-31250D03*
X58500Y-31250D03*
X57500Y-33500D03*
X58500Y-33500D03*
X57500Y-35750D03*
X58500Y-35750D03*
X57500Y-38000D03*
X58500Y-38000D03*
X93500Y-31250D03*
X94500Y-31250D03*
X93500Y-33500D03*
X94500Y-33500D03*
X93500Y-35750D03*
X94500Y-35750D03*
X93500Y-38000D03*
X94500Y-38000D03*
X59750Y-31250D03*
X60750Y-31250D03*
X59750Y-33500D03*
X60750Y-33500D03*
X59750Y-35750D03*
X60750Y-35750D03*
X59750Y-38000D03*
X60750Y-38000D03*
X91250Y-31250D03*
X92250Y-31250D03*
X91250Y-33500D03*
X92250Y-33500D03*
X91250Y-35750D03*
X92250Y-35750D03*
X91250Y-38000D03*
X92250Y-38000D03*
X62000Y-31250D03*
X63000Y-31250D03*
X62000Y-33500D03*
X63000Y-33500D03*
X62000Y-35750D03*
X63000Y-35750D03*
X62000Y-38000D03*
X63000Y-38000D03*
X89000Y-31250D03*
X90000Y-31250D03*
X89000Y-33500D03*
X90000Y-33500D03*
X89000Y-35750D03*
X90000Y-35750D03*
X89000Y-38000D03*
X90000Y-38000D03*
X64250Y-31250D03*
X65250Y-31250D03*
X64250Y-33500D03*
X65250Y-33500D03*
X64250Y-35750D03*
X65250Y-35750D03*
X64250Y-38000D03*
X65250Y-38000D03*
X86750Y-31250D03*
X87750Y-31250D03*
X86750Y-33500D03*
X87750Y-33500D03*
X86750Y-35750D03*
X87750Y-35750D03*
X86750Y-38000D03*
X87750Y-38000D03*
X66500Y-31250D03*
X67500Y-31250D03*
X66500Y-33500D03*
X67500Y-33500D03*
X66500Y-35750D03*
X67500Y-35750D03*
X66500Y-38000D03*
X67500Y-38000D03*
X84500Y-31250D03*
X85500Y-31250D03*
X84500Y-33500D03*
X85500Y-33500D03*
X84500Y-35750D03*
X85500Y-35750D03*
X84500Y-38000D03*
X85500Y-38000D03*
X68750Y-31250D03*
X69750Y-31250D03*
X68750Y-33500D03*
X69750Y-33500D03*
X68750Y-35750D03*
X69750Y-35750D03*
X68750Y-38000D03*
X69750Y-38000D03*
X82250Y-31250D03*
X83250Y-31250D03*
X82250Y-33500D03*
X83250Y-33500D03*
X82250Y-35750D03*
X83250Y-35750D03*
X82250Y-38000D03*
X83250Y-38000D03*
X71000Y-31250D03*
X72000Y-31250D03*
X71000Y-33500D03*
X72000Y-33500D03*
X71000Y-35750D03*
X72000Y-35750D03*
X71000Y-38000D03*
X72000Y-38000D03*
X80000Y-31250D03*
X81000Y-31250D03*
X80000Y-33500D03*
X81000Y-33500D03*
X80000Y-35750D03*
X81000Y-35750D03*
X80000Y-38000D03*
X81000Y-38000D03*
X73250Y-31250D03*
X74250Y-31250D03*
X73250Y-33500D03*
X74250Y-33500D03*
X73250Y-35750D03*
X74250Y-35750D03*
X73250Y-38000D03*
X74250Y-38000D03*
X77750Y-31250D03*
X78750Y-31250D03*
X77750Y-33500D03*
X78750Y-33500D03*
X77750Y-35750D03*
X78750Y-35750D03*
X77750Y-38000D03*
X78750Y-38000D03*
X75500Y-31250D03*
X76500Y-31250D03*
X75500Y-33500D03*
X76500Y-33500D03*
X75500Y-35750D03*
X76500Y-35750D03*
X75500Y-38000D03*
X76500Y-38000D03*
G54D26*
X76750Y-43500D03*
G54D27*
X77750Y-43500D03*
X76750Y-44500D03*
X77750Y-44500D03*
X76750Y-45500D03*
X77750Y-45500D03*
G54D28*
X84375Y-40433D03*
X84750Y-39566D03*
X85124Y-40433D03*
X86125Y-40433D03*
X86500Y-39566D03*
X86874Y-40433D03*
X87875Y-40433D03*
X88250Y-39566D03*
X88624Y-40433D03*
X89625Y-40433D03*
X90000Y-39566D03*
X90374Y-40433D03*
X91375Y-40433D03*
X91750Y-39566D03*
X92124Y-40433D03*
X93125Y-40433D03*
X93500Y-39566D03*
X93874Y-40433D03*
X94875Y-40433D03*
X95250Y-39566D03*
X95624Y-40433D03*
X96625Y-40433D03*
X97000Y-39566D03*
X97374Y-40433D03*
X53125Y-40433D03*
X53500Y-39566D03*
X53874Y-40433D03*
X55375Y-40433D03*
X55750Y-39566D03*
X56124Y-40433D03*
X57625Y-40433D03*
X58000Y-39566D03*
X58374Y-40433D03*
X59875Y-40433D03*
X60250Y-39566D03*
X60624Y-40433D03*
X62125Y-40433D03*
X62500Y-39566D03*
X62874Y-40433D03*
X64375Y-40433D03*
X64750Y-39566D03*
X65124Y-40433D03*
X66625Y-40433D03*
X67000Y-39566D03*
X67374Y-40433D03*
X68875Y-40433D03*
X69250Y-39566D03*
X69624Y-40433D03*
X71125Y-40433D03*
X71500Y-39566D03*
X71874Y-40433D03*
X73375Y-40433D03*
X73750Y-39566D03*
X74124Y-40433D03*
X75625Y-40433D03*
X76000Y-39566D03*
X76374Y-40433D03*
G54D11*
X68724Y-45750D03*
X69275Y-45750D03*
X90250Y-43025D03*
X90250Y-42474D03*
X97025Y-44500D03*
X96474Y-44500D03*
X97025Y-43750D03*
X96474Y-43750D03*
X89775Y-45750D03*
X89224Y-45750D03*
X89775Y-45000D03*
X89224Y-45000D03*
X54500Y-39775D03*
X54500Y-39224D03*
X56750Y-39775D03*
X56750Y-39224D03*
X59000Y-39775D03*
X59000Y-39224D03*
X61250Y-39775D03*
X61250Y-39224D03*
X63500Y-39775D03*
X63500Y-39224D03*
X65750Y-39775D03*
X65750Y-39224D03*
X68000Y-39775D03*
X68000Y-39224D03*
X70250Y-39775D03*
X70250Y-39224D03*
X72500Y-39775D03*
X72500Y-39224D03*
X74750Y-39775D03*
X74750Y-39224D03*
X77000Y-39775D03*
X77000Y-39224D03*
G54D29*
X85500Y-44960D03*
X85500Y-43039D03*
G54D12*
X57651Y-41850D03*
X56548Y-41850D03*
X58848Y-41850D03*
X59951Y-41850D03*
G54D30*
X83700Y-40300D03*
X84150Y-39800D03*
X78600Y-44100D03*
X82900Y-40000D03*
X91450Y-42500D03*
X80000Y-45550D03*
X80000Y-45100D03*
X95650Y-41200D03*
X84150Y-39350D03*
X83250Y-40250D03*
X80700Y-45100D03*
X95200Y-41150D03*
X61450Y-41800D03*
X55400Y-41600D03*
X81800Y-41650D03*
X65950Y-42150D03*
X81350Y-41200D03*
X68150Y-42000D03*
X55400Y-41150D03*
X61650Y-41400D03*
X80750Y-44650D03*
X70150Y-42200D03*
X81200Y-44650D03*
X70550Y-42000D03*
X81050Y-43400D03*
X78150Y-41800D03*
X83400Y-41550D03*
X78000Y-41400D03*
X77550Y-41350D03*
X83100Y-41200D03*
X82650Y-40700D03*
X75650Y-41500D03*
X76900Y-40800D03*
X74900Y-41200D03*
X75350Y-41200D03*
X76250Y-41150D03*
X84000Y-36250D03*
X84000Y-36750D03*
X75000Y-36500D03*
X84500Y-36750D03*
X86000Y-36750D03*
X94750Y-36750D03*
X94750Y-37250D03*
X54600Y-32300D03*
X54600Y-36700D03*
X54600Y-34550D03*
X54600Y-30600D03*
X52900Y-39200D03*
X60950Y-41800D03*
X55750Y-42000D03*
X73050Y-39300D03*
X70850Y-39250D03*
X66350Y-39200D03*
X61900Y-39200D03*
X57350Y-39250D03*
X59600Y-39200D03*
X64100Y-39200D03*
X68650Y-39200D03*
X94800Y-44900D03*
X98350Y-45250D03*
X75450Y-44500D03*
X75400Y-39300D03*
X97400Y-32400D03*
X97400Y-36950D03*
X96150Y-39450D03*
X97400Y-34650D03*
X97400Y-30500D03*
X72700Y-36900D03*
X77150Y-34850D03*
X77950Y-39950D03*
X74850Y-34850D03*
X72700Y-34850D03*
X79400Y-34850D03*
X84300Y-45450D03*
X80727Y-42200D03*
X90750Y-43000D03*
X92950Y-41750D03*
X82050Y-45750D03*
X85550Y-39500D03*
X87350Y-39500D03*
X89100Y-39450D03*
X90850Y-39400D03*
X92550Y-39500D03*
X94350Y-39500D03*
X98200Y-41100D03*
X68750Y-43750D03*
X68250Y-43750D03*
X67750Y-43750D03*
X68750Y-44250D03*
X68250Y-44250D03*
X67750Y-44250D03*
X68750Y-44750D03*
X68250Y-44750D03*
X67750Y-44750D03*
X67750Y-43250D03*
X68750Y-43250D03*
X68250Y-43250D03*
X68750Y-42750D03*
X68250Y-42750D03*
X67750Y-42750D03*
X86800Y-45850D03*
X83600Y-45850D03*
X90000Y-41900D03*
X86800Y-43200D03*
X87100Y-41650D03*
X66300Y-44800D03*
X94900Y-42400D03*
X94150Y-43600D03*
X93000Y-43600D03*
X93000Y-44350D03*
X93000Y-42500D03*
X94500Y-42500D03*
X89700Y-42500D03*
X88550Y-42500D03*
X90400Y-45350D03*
X94900Y-43600D03*
X90850Y-45250D03*
X94100Y-42650D03*
G54D31*
X87860Y-43882D02*
X87860Y-43210D01*
X85950Y-41300D02*
X85450Y-41300D01*
X87860Y-43210D02*
X85950Y-41300D01*
X83850Y-40600D02*
X83850Y-40850D01*
X83850Y-40850D02*
X84300Y-41300D01*
X83850Y-40600D02*
X83850Y-40350D01*
X83850Y-40350D02*
X83800Y-40300D01*
X83800Y-40300D02*
X83700Y-40300D01*
X84300Y-41300D02*
X85450Y-41300D01*
X82041Y-39650D02*
X81390Y-40301D01*
X84150Y-39800D02*
X84000Y-39650D01*
X84000Y-39650D02*
X82041Y-39650D01*
X88116Y-43882D02*
X88116Y-43166D01*
X86000Y-41050D02*
X85650Y-41050D01*
X88116Y-43166D02*
X86000Y-41050D01*
X78200Y-44500D02*
X77750Y-44500D01*
X78600Y-44100D02*
X78200Y-44500D01*
X84075Y-40400D02*
X84075Y-40775D01*
X84350Y-41050D02*
X85650Y-41050D01*
X84075Y-40775D02*
X84350Y-41050D01*
X84075Y-40400D02*
X84075Y-40225D01*
X83750Y-39900D02*
X82550Y-39900D01*
X84075Y-40225D02*
X83750Y-39900D01*
X82550Y-39900D02*
X82237Y-39900D01*
X82237Y-39900D02*
X81613Y-40523D01*
X77750Y-44400D02*
X77750Y-44500D01*
X82800Y-39900D02*
X82900Y-40000D01*
X82550Y-39900D02*
X82800Y-39900D01*
X79536Y-43936D02*
X79536Y-45186D01*
X91450Y-42500D02*
X91974Y-42500D01*
X79900Y-45550D02*
X80000Y-45550D01*
X79536Y-45186D02*
X79900Y-45550D01*
X77250Y-45000D02*
X78472Y-45000D01*
X78472Y-45000D02*
X79536Y-43936D01*
X79536Y-43936D02*
X79941Y-43530D01*
X76750Y-45500D02*
X77250Y-45000D01*
X95396Y-41868D02*
X95396Y-41454D01*
X79800Y-44117D02*
X80164Y-43753D01*
X79800Y-44900D02*
X79800Y-44117D01*
X80000Y-45100D02*
X79800Y-44900D01*
X95396Y-41454D02*
X95650Y-41200D01*
X87604Y-43882D02*
X87604Y-43254D01*
X85900Y-41550D02*
X85650Y-41550D01*
X87604Y-43254D02*
X85900Y-41550D01*
X83600Y-40700D02*
X83600Y-40950D01*
X84200Y-41550D02*
X85650Y-41550D01*
X83600Y-40950D02*
X84200Y-41550D01*
X81510Y-39400D02*
X80609Y-40301D01*
X84100Y-39400D02*
X81510Y-39400D01*
X84150Y-39350D02*
X84100Y-39400D01*
X83250Y-40350D02*
X83250Y-40250D01*
X83600Y-40700D02*
X83600Y-40700D01*
X83600Y-40700D02*
X83250Y-40350D01*
X94628Y-41868D02*
X94628Y-41322D01*
X80050Y-44312D02*
X80386Y-43976D01*
X80050Y-44650D02*
X80050Y-44312D01*
X80400Y-45000D02*
X80050Y-44650D01*
X80600Y-45000D02*
X80400Y-45000D01*
X80700Y-45100D02*
X80600Y-45000D01*
X95050Y-41300D02*
X95200Y-41150D01*
X94650Y-41300D02*
X95050Y-41300D01*
X94628Y-41322D02*
X94650Y-41300D01*
X69352Y-43877D02*
X69927Y-43877D01*
X73950Y-44950D02*
X74500Y-45500D01*
X73300Y-44950D02*
X73950Y-44950D01*
X73050Y-44700D02*
X73300Y-44950D01*
X72400Y-44700D02*
X73050Y-44700D01*
X72150Y-44450D02*
X72400Y-44700D01*
X70500Y-44450D02*
X72150Y-44450D01*
X69927Y-43877D02*
X70500Y-44450D01*
X74500Y-43500D02*
X74500Y-43050D01*
X71067Y-42550D02*
X70506Y-43110D01*
X72750Y-42550D02*
X71067Y-42550D01*
X73000Y-42800D02*
X72750Y-42550D01*
X74250Y-42800D02*
X73000Y-42800D01*
X74500Y-43050D02*
X74250Y-42800D01*
X69800Y-43110D02*
X70506Y-43110D01*
X69352Y-43110D02*
X69800Y-43110D01*
X67147Y-43622D02*
X65122Y-43622D01*
X65122Y-43622D02*
X65000Y-43500D01*
X67147Y-44389D02*
X66110Y-44389D01*
X66110Y-44389D02*
X65000Y-45500D01*
X69352Y-44133D02*
X69833Y-44133D01*
X72950Y-44950D02*
X73500Y-45500D01*
X72300Y-44950D02*
X72950Y-44950D01*
X72050Y-44700D02*
X72300Y-44950D01*
X70400Y-44700D02*
X72050Y-44700D01*
X69833Y-44133D02*
X70400Y-44700D01*
X69900Y-43366D02*
X70583Y-43366D01*
X72700Y-42800D02*
X73400Y-43500D01*
X71150Y-42800D02*
X72700Y-42800D01*
X70583Y-43366D02*
X71150Y-42800D01*
X73400Y-43500D02*
X73500Y-43500D01*
X73250Y-43500D02*
X73500Y-43500D01*
X69800Y-43366D02*
X69900Y-43366D01*
X69352Y-43366D02*
X69800Y-43366D01*
X67147Y-43366D02*
X65666Y-43366D01*
X64550Y-42950D02*
X64000Y-43500D01*
X65250Y-42950D02*
X64550Y-42950D01*
X65666Y-43366D02*
X65250Y-42950D01*
X67147Y-44133D02*
X66016Y-44133D01*
X64550Y-44950D02*
X64000Y-45500D01*
X65200Y-44950D02*
X64550Y-44950D01*
X66016Y-44133D02*
X65200Y-44950D01*
X53125Y-40433D02*
X53125Y-40975D01*
X62050Y-41800D02*
X62000Y-41800D01*
X61450Y-41800D02*
X62050Y-41800D01*
X53750Y-41600D02*
X55400Y-41600D01*
X53125Y-40975D02*
X53750Y-41600D01*
X81800Y-41650D02*
X82258Y-41191D01*
X65850Y-42050D02*
X65950Y-42150D01*
X64050Y-42050D02*
X65850Y-42050D01*
X63800Y-41800D02*
X64050Y-42050D01*
X62000Y-41800D02*
X63800Y-41800D01*
X82258Y-41191D02*
X82280Y-41191D01*
X62050Y-41550D02*
X61800Y-41550D01*
X62050Y-41550D02*
X63850Y-41550D01*
X63850Y-41550D02*
X64100Y-41800D01*
X64100Y-41800D02*
X66050Y-41800D01*
X66050Y-41800D02*
X66300Y-42050D01*
X66300Y-42050D02*
X67250Y-42050D01*
X81350Y-41200D02*
X81450Y-41300D01*
X81450Y-41300D02*
X81727Y-41300D01*
X82058Y-40969D02*
X81727Y-41300D01*
X68100Y-42050D02*
X68150Y-42000D01*
X67250Y-42050D02*
X68100Y-42050D01*
X55375Y-41125D02*
X55375Y-40433D01*
X55400Y-41150D02*
X55375Y-41125D01*
X61800Y-41550D02*
X61650Y-41400D01*
X76750Y-41400D02*
X77032Y-41400D01*
X78500Y-41450D02*
X78500Y-41850D01*
X78050Y-41000D02*
X78500Y-41450D01*
X77432Y-41000D02*
X78050Y-41000D01*
X77032Y-41400D02*
X77432Y-41000D01*
X76750Y-41400D02*
X76550Y-41400D01*
X76450Y-41500D02*
X76150Y-41500D01*
X76550Y-41400D02*
X76450Y-41500D01*
X75625Y-40975D02*
X75625Y-40433D01*
X76150Y-41500D02*
X75625Y-40975D01*
X78800Y-42150D02*
X78800Y-42389D01*
X78800Y-42389D02*
X79051Y-42640D01*
X78500Y-41850D02*
X78800Y-42150D01*
X75625Y-40433D02*
X75625Y-40625D01*
X67975Y-41675D02*
X68275Y-41675D01*
X68275Y-41675D02*
X68500Y-41900D01*
X67000Y-41800D02*
X67850Y-41800D01*
X68650Y-42050D02*
X68750Y-42050D01*
X68500Y-41900D02*
X68650Y-42050D01*
X67850Y-41800D02*
X67925Y-41725D01*
X67925Y-41725D02*
X67975Y-41675D01*
X80400Y-44408D02*
X80609Y-44198D01*
X80400Y-44600D02*
X80400Y-44408D01*
X80450Y-44650D02*
X80400Y-44600D01*
X80750Y-44650D02*
X80450Y-44650D01*
X80609Y-44198D02*
X80609Y-44190D01*
X57625Y-40433D02*
X57625Y-40725D01*
X70000Y-42050D02*
X70150Y-42200D01*
X68750Y-42050D02*
X70000Y-42050D01*
X66350Y-41800D02*
X67000Y-41800D01*
X66100Y-41550D02*
X66350Y-41800D01*
X64150Y-41550D02*
X66100Y-41550D01*
X63900Y-41300D02*
X64150Y-41550D01*
X62100Y-41300D02*
X63900Y-41300D01*
X61850Y-41050D02*
X62100Y-41300D01*
X59900Y-41050D02*
X61850Y-41050D01*
X59650Y-40800D02*
X59900Y-41050D01*
X57700Y-40800D02*
X59650Y-40800D01*
X57625Y-40725D02*
X57700Y-40800D01*
X67600Y-41550D02*
X67800Y-41550D01*
X67800Y-41550D02*
X67900Y-41450D01*
X67900Y-41450D02*
X68350Y-41450D01*
X66700Y-41550D02*
X67600Y-41550D01*
X68700Y-41800D02*
X69100Y-41800D01*
X68350Y-41450D02*
X68700Y-41800D01*
X81390Y-44198D02*
X81390Y-44240D01*
X81390Y-44240D02*
X81650Y-44500D01*
X81650Y-44500D02*
X81650Y-44650D01*
X81650Y-44650D02*
X81500Y-44800D01*
X81500Y-44800D02*
X81350Y-44800D01*
X81350Y-44800D02*
X81200Y-44650D01*
X59875Y-40433D02*
X59875Y-40725D01*
X70350Y-41800D02*
X70550Y-42000D01*
X69100Y-41800D02*
X70350Y-41800D01*
X66400Y-41550D02*
X66700Y-41550D01*
X66150Y-41300D02*
X66400Y-41550D01*
X64200Y-41300D02*
X66150Y-41300D01*
X63950Y-41050D02*
X64200Y-41300D01*
X62150Y-41050D02*
X63950Y-41050D01*
X61900Y-40800D02*
X62150Y-41050D01*
X59950Y-40800D02*
X61900Y-40800D01*
X59875Y-40725D02*
X59950Y-40800D01*
X81613Y-43976D02*
X81613Y-43963D01*
X81613Y-43963D02*
X81050Y-43400D01*
X67350Y-41300D02*
X67750Y-41300D01*
X67750Y-41300D02*
X67850Y-41200D01*
X67850Y-41200D02*
X68400Y-41200D01*
X65900Y-41050D02*
X66350Y-41050D01*
X68750Y-41550D02*
X69000Y-41550D01*
X68400Y-41200D02*
X68750Y-41550D01*
X66600Y-41300D02*
X67350Y-41300D01*
X66350Y-41050D02*
X66600Y-41300D01*
X76950Y-42150D02*
X77250Y-42150D01*
X78050Y-41800D02*
X78150Y-41800D01*
X77900Y-41950D02*
X78050Y-41800D01*
X77450Y-41950D02*
X77900Y-41950D01*
X77250Y-42150D02*
X77450Y-41950D01*
X62125Y-40725D02*
X62200Y-40800D01*
X62200Y-40800D02*
X64000Y-40800D01*
X64000Y-40800D02*
X64250Y-41050D01*
X64250Y-41050D02*
X65900Y-41050D01*
X69000Y-41550D02*
X70550Y-41550D01*
X70550Y-41550D02*
X70800Y-41800D01*
X70800Y-41800D02*
X72900Y-41800D01*
X72900Y-41800D02*
X73150Y-42050D01*
X62125Y-40433D02*
X62125Y-40725D01*
X74700Y-42350D02*
X76600Y-42350D01*
X76600Y-42350D02*
X76800Y-42150D01*
X76800Y-42150D02*
X76950Y-42150D01*
X74400Y-42050D02*
X74700Y-42350D01*
X73150Y-42050D02*
X74400Y-42050D01*
X81576Y-43976D02*
X81613Y-43976D01*
X67550Y-41050D02*
X67700Y-41050D01*
X67700Y-41050D02*
X67800Y-40950D01*
X67800Y-40950D02*
X68450Y-40950D01*
X66250Y-40800D02*
X66400Y-40800D01*
X68800Y-41300D02*
X69150Y-41300D01*
X68450Y-40950D02*
X68800Y-41300D01*
X66650Y-41050D02*
X67550Y-41050D01*
X66400Y-40800D02*
X66650Y-41050D01*
X76850Y-41900D02*
X77150Y-41900D01*
X72950Y-41550D02*
X73200Y-41800D01*
X70900Y-41550D02*
X72950Y-41550D01*
X70650Y-41300D02*
X70900Y-41550D01*
X69150Y-41300D02*
X70650Y-41300D01*
X74750Y-42100D02*
X76500Y-42100D01*
X76500Y-42100D02*
X76700Y-41900D01*
X76700Y-41900D02*
X76850Y-41900D01*
X74450Y-41800D02*
X74750Y-42100D01*
X73200Y-41800D02*
X74450Y-41800D01*
X83250Y-41550D02*
X83400Y-41550D01*
X82948Y-41851D02*
X83250Y-41550D01*
X77150Y-41900D02*
X77350Y-41700D01*
X77350Y-41700D02*
X77700Y-41700D01*
X77700Y-41700D02*
X78000Y-41400D01*
X82948Y-41859D02*
X82948Y-41851D01*
X64375Y-40725D02*
X64450Y-40800D01*
X64450Y-40800D02*
X66250Y-40800D01*
X66250Y-40800D02*
X66300Y-40800D01*
X64375Y-40433D02*
X64375Y-40725D01*
X67300Y-40800D02*
X67650Y-40800D01*
X67650Y-40800D02*
X67750Y-40700D01*
X67750Y-40700D02*
X68500Y-40700D01*
X68850Y-41050D02*
X69050Y-41050D01*
X68500Y-40700D02*
X68850Y-41050D01*
X76800Y-41650D02*
X77100Y-41650D01*
X77400Y-41350D02*
X77550Y-41350D01*
X77100Y-41650D02*
X77400Y-41350D01*
X66625Y-40725D02*
X66700Y-40800D01*
X66700Y-40800D02*
X67300Y-40800D01*
X69050Y-41050D02*
X70700Y-41050D01*
X70700Y-41050D02*
X70950Y-41300D01*
X70950Y-41300D02*
X73000Y-41300D01*
X73000Y-41300D02*
X73250Y-41550D01*
X66625Y-40433D02*
X66625Y-40725D01*
X76650Y-41650D02*
X76800Y-41650D01*
X76450Y-41850D02*
X76650Y-41650D01*
X74800Y-41850D02*
X76450Y-41850D01*
X74500Y-41550D02*
X74800Y-41850D01*
X73250Y-41550D02*
X74500Y-41550D01*
X83050Y-41312D02*
X82726Y-41636D01*
X83050Y-41250D02*
X83050Y-41312D01*
X83100Y-41200D02*
X83050Y-41250D01*
X73300Y-41300D02*
X74550Y-41300D01*
X74550Y-41300D02*
X74800Y-41550D01*
X82750Y-40800D02*
X82750Y-41167D01*
X82650Y-40700D02*
X82750Y-40800D01*
X82750Y-41167D02*
X82503Y-41414D01*
X74800Y-41550D02*
X75600Y-41550D01*
X75600Y-41550D02*
X75650Y-41500D01*
X68875Y-40433D02*
X68875Y-40675D01*
X73050Y-41050D02*
X73300Y-41300D01*
X71000Y-41050D02*
X73050Y-41050D01*
X70750Y-40800D02*
X71000Y-41050D01*
X69000Y-40800D02*
X70750Y-40800D01*
X68875Y-40675D02*
X69000Y-40800D01*
X76900Y-40800D02*
X77200Y-40500D01*
X78137Y-40500D02*
X78437Y-40800D01*
X77200Y-40500D02*
X78137Y-40500D01*
X72800Y-40800D02*
X73150Y-40800D01*
X73150Y-40800D02*
X73400Y-41050D01*
X74750Y-41050D02*
X74900Y-41200D01*
X73400Y-41050D02*
X74750Y-41050D01*
X78437Y-40800D02*
X79273Y-41636D01*
X71125Y-40675D02*
X71250Y-40800D01*
X71250Y-40800D02*
X72800Y-40800D01*
X71125Y-40675D02*
X71125Y-40433D01*
X76900Y-41150D02*
X77000Y-41150D01*
X77000Y-41150D02*
X77400Y-40750D01*
X78750Y-41400D02*
X78750Y-41558D01*
X78100Y-40750D02*
X78750Y-41400D01*
X77400Y-40750D02*
X78100Y-40750D01*
X73375Y-40433D02*
X73375Y-40675D01*
X73375Y-40675D02*
X73500Y-40800D01*
X74950Y-40800D02*
X75000Y-40850D01*
X73500Y-40800D02*
X74950Y-40800D01*
X75000Y-40850D02*
X75350Y-41200D01*
X76800Y-41150D02*
X76900Y-41150D01*
X76700Y-41050D02*
X76800Y-41150D01*
X76350Y-41050D02*
X76700Y-41050D01*
X76250Y-41150D02*
X76350Y-41050D01*
X78750Y-41558D02*
X79051Y-41859D01*
X79051Y-41851D02*
X78900Y-41700D01*
X79051Y-41859D02*
X79051Y-41851D01*
X87050Y-41150D02*
X86500Y-41150D01*
X84550Y-40800D02*
X84400Y-40650D01*
X86150Y-40800D02*
X84550Y-40800D01*
X86500Y-41150D02*
X86150Y-40800D01*
X84400Y-40457D02*
X84400Y-40650D01*
X87860Y-41210D02*
X87800Y-41150D01*
X87800Y-41150D02*
X87050Y-41150D01*
X87860Y-41210D02*
X87860Y-41618D01*
X84400Y-40457D02*
X84375Y-40433D01*
X86125Y-40433D02*
X86133Y-40433D01*
X86133Y-40433D02*
X86600Y-40900D01*
X88116Y-41166D02*
X88116Y-41618D01*
X87850Y-40900D02*
X88116Y-41166D01*
X86600Y-40900D02*
X87850Y-40900D01*
X88372Y-41618D02*
X88372Y-41072D01*
X88372Y-41072D02*
X87875Y-40575D01*
X87875Y-40575D02*
X87875Y-40433D01*
X89625Y-40433D02*
X89316Y-40433D01*
X89316Y-40433D02*
X88950Y-40800D01*
X88628Y-41618D02*
X88628Y-41122D01*
X88628Y-41122D02*
X88950Y-40800D01*
X90550Y-40800D02*
X91250Y-40800D01*
X91375Y-40674D02*
X91375Y-40433D01*
X91250Y-40800D02*
X91375Y-40674D01*
X88884Y-41618D02*
X88884Y-41216D01*
X89300Y-40800D02*
X90550Y-40800D01*
X88884Y-41216D02*
X89300Y-40800D01*
X90900Y-41050D02*
X91400Y-41050D01*
X91400Y-41050D02*
X91650Y-40800D01*
X89140Y-41618D02*
X89140Y-41260D01*
X93125Y-40674D02*
X93125Y-40433D01*
X93000Y-40800D02*
X93125Y-40674D01*
X91650Y-40800D02*
X93000Y-40800D01*
X89350Y-41050D02*
X90900Y-41050D01*
X89140Y-41260D02*
X89350Y-41050D01*
X89396Y-41618D02*
X89396Y-41354D01*
X89396Y-41354D02*
X89450Y-41300D01*
X89450Y-41300D02*
X91450Y-41300D01*
X91450Y-41300D02*
X91700Y-41050D01*
X91700Y-41050D02*
X93100Y-41050D01*
X93100Y-41050D02*
X93350Y-40800D01*
X93350Y-40800D02*
X94750Y-40800D01*
X94750Y-40800D02*
X94875Y-40674D01*
X94875Y-40674D02*
X94875Y-40433D01*
X89140Y-43882D02*
X89140Y-42560D01*
X96625Y-40674D02*
X96625Y-40433D01*
X96500Y-40800D02*
X96625Y-40674D01*
X95100Y-40800D02*
X96500Y-40800D01*
X94850Y-41050D02*
X95100Y-40800D01*
X93450Y-41050D02*
X94850Y-41050D01*
X93200Y-41300D02*
X93450Y-41050D01*
X91750Y-41300D02*
X93200Y-41300D01*
X91500Y-41550D02*
X91750Y-41300D01*
X89800Y-41550D02*
X91500Y-41550D01*
X89650Y-41700D02*
X89800Y-41550D01*
X89650Y-42050D02*
X89650Y-41700D01*
X89140Y-42560D02*
X89650Y-42050D01*
X54500Y-39775D02*
X53708Y-39775D01*
X53708Y-39775D02*
X53500Y-39566D01*
X56750Y-39775D02*
X55958Y-39775D01*
X55958Y-39775D02*
X55750Y-39566D01*
X77000Y-39775D02*
X76208Y-39775D01*
X76208Y-39775D02*
X76000Y-39566D01*
X59000Y-39775D02*
X58208Y-39775D01*
X58208Y-39775D02*
X58000Y-39566D01*
X61250Y-39775D02*
X60458Y-39775D01*
X60458Y-39775D02*
X60250Y-39566D01*
X63500Y-39775D02*
X62708Y-39775D01*
X62708Y-39775D02*
X62500Y-39566D01*
X65750Y-39775D02*
X64958Y-39775D01*
X64958Y-39775D02*
X64750Y-39566D01*
X68000Y-39775D02*
X67208Y-39775D01*
X67208Y-39775D02*
X67000Y-39566D01*
X70250Y-39775D02*
X69458Y-39775D01*
X69458Y-39775D02*
X69250Y-39566D01*
X72500Y-39775D02*
X71708Y-39775D01*
X71708Y-39775D02*
X71500Y-39566D01*
X74750Y-39775D02*
X73958Y-39775D01*
X73958Y-39775D02*
X73750Y-39566D01*
X55250Y-31250D02*
X55750Y-30750D01*
X55250Y-31250D02*
X54700Y-31250D01*
X54700Y-31250D02*
X54200Y-30750D01*
X83500Y-37000D02*
X83750Y-37250D01*
X83750Y-37250D02*
X83750Y-37750D01*
X84000Y-36250D02*
X83500Y-36750D01*
X83500Y-36750D02*
X83500Y-37000D01*
X84750Y-39566D02*
X84750Y-39250D01*
X84500Y-39000D02*
X84000Y-39000D01*
X84000Y-39000D02*
X83750Y-38750D01*
X83750Y-38750D02*
X83750Y-37750D01*
X84750Y-39250D02*
X84500Y-39000D01*
X72750Y-30750D02*
X75000Y-30750D01*
X75000Y-30750D02*
X75500Y-31250D01*
X70500Y-30750D02*
X72750Y-30750D01*
X72750Y-30750D02*
X73250Y-31250D01*
X68250Y-30750D02*
X70500Y-30750D01*
X70500Y-30750D02*
X71000Y-31250D01*
X66000Y-30750D02*
X68250Y-30750D01*
X68250Y-30750D02*
X68750Y-31250D01*
X63750Y-30750D02*
X66000Y-30750D01*
X66000Y-30750D02*
X66500Y-31250D01*
X61500Y-30750D02*
X63750Y-30750D01*
X63750Y-30750D02*
X64250Y-31250D01*
X59250Y-30750D02*
X61500Y-30750D01*
X61500Y-30750D02*
X62000Y-31250D01*
X57000Y-30750D02*
X59250Y-30750D01*
X59250Y-30750D02*
X59750Y-31250D01*
X55750Y-30750D02*
X57000Y-30750D01*
X57000Y-30750D02*
X57500Y-31250D01*
X53000Y-31250D02*
X53500Y-30750D01*
X53500Y-30750D02*
X54200Y-30750D01*
X86250Y-39000D02*
X86500Y-39250D01*
X84000Y-36750D02*
X84000Y-38500D01*
X84000Y-38500D02*
X84250Y-38750D01*
X84250Y-38750D02*
X84750Y-38750D01*
X84750Y-38750D02*
X85000Y-39000D01*
X85000Y-39000D02*
X86250Y-39000D01*
X86500Y-39250D02*
X86500Y-39566D01*
X72750Y-34000D02*
X75000Y-34000D01*
X75000Y-34000D02*
X75500Y-33500D01*
X70500Y-34000D02*
X72750Y-34000D01*
X72750Y-34000D02*
X73250Y-33500D01*
X68750Y-33500D02*
X69250Y-34000D01*
X70500Y-34000D02*
X71000Y-33500D01*
X69250Y-34000D02*
X70500Y-34000D01*
X66000Y-33000D02*
X68250Y-33000D01*
X68250Y-33000D02*
X68750Y-33500D01*
X63750Y-33000D02*
X66000Y-33000D01*
X66000Y-33000D02*
X66500Y-33500D01*
X61500Y-33000D02*
X63750Y-33000D01*
X63750Y-33000D02*
X64250Y-33500D01*
X59250Y-33000D02*
X61500Y-33000D01*
X61500Y-33000D02*
X62000Y-33500D01*
X57000Y-33000D02*
X59250Y-33000D01*
X59250Y-33000D02*
X59750Y-33500D01*
X54750Y-33000D02*
X57000Y-33000D01*
X57000Y-33000D02*
X57500Y-33500D01*
X53000Y-33500D02*
X53500Y-33000D01*
X54750Y-33000D02*
X55250Y-33500D01*
X53500Y-33000D02*
X54750Y-33000D01*
X84500Y-37250D02*
X84500Y-36750D01*
X75500Y-36000D02*
X75000Y-36500D01*
X88250Y-39250D02*
X88000Y-39000D01*
X88000Y-39000D02*
X86750Y-39000D01*
X86750Y-39000D02*
X86500Y-38750D01*
X86500Y-38750D02*
X85250Y-38750D01*
X85250Y-38750D02*
X85000Y-38500D01*
X85000Y-38500D02*
X85000Y-37750D01*
X85000Y-37750D02*
X84750Y-37500D01*
X84750Y-37500D02*
X84500Y-37250D01*
X88250Y-39250D02*
X88250Y-39566D01*
X75500Y-35750D02*
X75500Y-36000D01*
X72750Y-35250D02*
X75000Y-35250D01*
X75000Y-35250D02*
X75500Y-35750D01*
X70500Y-35250D02*
X72750Y-35250D01*
X72750Y-35250D02*
X73250Y-35750D01*
X68250Y-35250D02*
X70500Y-35250D01*
X70500Y-35250D02*
X71000Y-35750D01*
X66000Y-35250D02*
X68250Y-35250D01*
X68250Y-35250D02*
X68750Y-35750D01*
X63750Y-35250D02*
X66000Y-35250D01*
X66000Y-35250D02*
X66500Y-35750D01*
X61500Y-35250D02*
X63750Y-35250D01*
X63750Y-35250D02*
X64250Y-35750D01*
X59250Y-35250D02*
X61500Y-35250D01*
X61500Y-35250D02*
X62000Y-35750D01*
X57000Y-35250D02*
X59250Y-35250D01*
X59250Y-35250D02*
X59750Y-35750D01*
X54750Y-35250D02*
X57000Y-35250D01*
X57000Y-35250D02*
X57500Y-35750D01*
X53000Y-35750D02*
X53500Y-35250D01*
X54750Y-35250D02*
X55250Y-35750D01*
X53500Y-35250D02*
X54750Y-35250D01*
X90000Y-39250D02*
X89750Y-39000D01*
X89750Y-39000D02*
X88500Y-39000D01*
X88500Y-39000D02*
X88250Y-38750D01*
X88250Y-38750D02*
X87000Y-38750D01*
X87000Y-38750D02*
X86750Y-38500D01*
X86750Y-38500D02*
X86250Y-38500D01*
X86250Y-38500D02*
X86000Y-38250D01*
X86000Y-38250D02*
X86000Y-36750D01*
X90000Y-39566D02*
X90000Y-39250D01*
X72750Y-37500D02*
X75000Y-37500D01*
X75000Y-37500D02*
X75500Y-38000D01*
X70500Y-37500D02*
X72750Y-37500D01*
X72750Y-37500D02*
X73250Y-38000D01*
X68250Y-37500D02*
X70500Y-37500D01*
X70500Y-37500D02*
X71000Y-38000D01*
X66000Y-37500D02*
X68250Y-37500D01*
X68250Y-37500D02*
X68750Y-38000D01*
X63750Y-37500D02*
X66000Y-37500D01*
X66000Y-37500D02*
X66500Y-38000D01*
X61500Y-37500D02*
X63750Y-37500D01*
X63750Y-37500D02*
X64250Y-38000D01*
X59250Y-37500D02*
X61500Y-37500D01*
X61500Y-37500D02*
X62000Y-38000D01*
X57000Y-37500D02*
X59250Y-37500D01*
X59250Y-37500D02*
X59750Y-38000D01*
X54750Y-37500D02*
X57000Y-37500D01*
X57000Y-37500D02*
X57500Y-38000D01*
X53000Y-38000D02*
X53500Y-37500D01*
X54750Y-37500D02*
X55250Y-38000D01*
X53500Y-37500D02*
X54750Y-37500D01*
X98000Y-31250D02*
X97450Y-31250D01*
X97450Y-31250D02*
X96950Y-30750D01*
X91750Y-39566D02*
X91750Y-39250D01*
X94000Y-37500D02*
X94750Y-36750D01*
X93250Y-37500D02*
X94000Y-37500D01*
X93000Y-37750D02*
X93250Y-37500D01*
X93000Y-38750D02*
X93000Y-37750D01*
X92750Y-39000D02*
X93000Y-38750D01*
X92000Y-39000D02*
X92750Y-39000D01*
X91750Y-39250D02*
X92000Y-39000D01*
X80500Y-30750D02*
X78250Y-30750D01*
X78250Y-30750D02*
X77750Y-31250D01*
X82750Y-30750D02*
X80500Y-30750D01*
X80500Y-30750D02*
X80000Y-31250D01*
X85000Y-30750D02*
X82750Y-30750D01*
X82750Y-30750D02*
X82250Y-31250D01*
X87250Y-30750D02*
X85000Y-30750D01*
X85000Y-30750D02*
X84500Y-31250D01*
X89500Y-30750D02*
X87250Y-30750D01*
X87250Y-30750D02*
X86750Y-31250D01*
X91750Y-30750D02*
X89500Y-30750D01*
X89500Y-30750D02*
X89000Y-31250D01*
X94000Y-30750D02*
X91750Y-30750D01*
X91750Y-30750D02*
X91250Y-31250D01*
X96250Y-30750D02*
X94000Y-30750D01*
X94000Y-30750D02*
X93500Y-31250D01*
X96250Y-30750D02*
X95750Y-31250D01*
X96950Y-30750D02*
X96250Y-30750D01*
X84500Y-33500D02*
X85000Y-33000D01*
X85000Y-33000D02*
X87250Y-33000D01*
X84500Y-33500D02*
X84000Y-34000D01*
X84000Y-34000D02*
X82750Y-34000D01*
X93500Y-39566D02*
X93500Y-39250D01*
X95000Y-37500D02*
X94750Y-37250D01*
X95000Y-38500D02*
X95000Y-37500D01*
X94500Y-39000D02*
X95000Y-38500D01*
X93750Y-39000D02*
X94500Y-39000D01*
X93500Y-39250D02*
X93750Y-39000D01*
X80500Y-34000D02*
X78250Y-34000D01*
X78250Y-34000D02*
X77750Y-33500D01*
X82750Y-34000D02*
X80500Y-34000D01*
X80500Y-34000D02*
X80000Y-33500D01*
X82750Y-34000D02*
X82250Y-33500D01*
X89500Y-33000D02*
X87250Y-33000D01*
X87250Y-33000D02*
X86750Y-33500D01*
X91750Y-33000D02*
X89500Y-33000D01*
X89500Y-33000D02*
X89000Y-33500D01*
X94000Y-33000D02*
X91750Y-33000D01*
X91750Y-33000D02*
X91250Y-33500D01*
X96250Y-33000D02*
X94000Y-33000D01*
X94000Y-33000D02*
X93500Y-33500D01*
X98000Y-33500D02*
X97500Y-33000D01*
X96250Y-33000D02*
X95750Y-33500D01*
X97500Y-33000D02*
X96250Y-33000D01*
X86750Y-33500D02*
X86750Y-33450D01*
X95250Y-39566D02*
X95250Y-36250D01*
X95250Y-36250D02*
X95750Y-35750D01*
X80500Y-35250D02*
X78250Y-35250D01*
X78250Y-35250D02*
X77750Y-35750D01*
X82750Y-35250D02*
X80500Y-35250D01*
X80500Y-35250D02*
X80000Y-35750D01*
X85000Y-35250D02*
X82750Y-35250D01*
X82750Y-35250D02*
X82250Y-35750D01*
X87250Y-35250D02*
X85000Y-35250D01*
X85000Y-35250D02*
X84500Y-35750D01*
X89500Y-35250D02*
X87250Y-35250D01*
X87250Y-35250D02*
X86750Y-35750D01*
X91750Y-35250D02*
X89500Y-35250D01*
X89500Y-35250D02*
X89000Y-35750D01*
X94000Y-35250D02*
X91750Y-35250D01*
X91750Y-35250D02*
X91250Y-35750D01*
X96250Y-35250D02*
X94000Y-35250D01*
X94000Y-35250D02*
X93500Y-35750D01*
X98000Y-35750D02*
X97500Y-35250D01*
X96250Y-35250D02*
X95750Y-35750D01*
X97500Y-35250D02*
X96250Y-35250D01*
X97000Y-39566D02*
X97000Y-39000D01*
X97000Y-39000D02*
X98000Y-38000D01*
X98000Y-38000D02*
X97500Y-37500D01*
X96250Y-37500D02*
X95750Y-38000D01*
X97500Y-37500D02*
X96250Y-37500D01*
X69352Y-44389D02*
X69789Y-44389D01*
X71950Y-44950D02*
X72500Y-45500D01*
X70350Y-44950D02*
X71950Y-44950D01*
X69789Y-44389D02*
X70350Y-44950D01*
X69352Y-43622D02*
X70022Y-43622D01*
X72150Y-44200D02*
X72500Y-43850D01*
X70600Y-44200D02*
X72150Y-44200D01*
X70022Y-43622D02*
X70600Y-44200D01*
X72500Y-43850D02*
X72500Y-43500D01*
X72500Y-43400D02*
X72500Y-43500D01*
X67147Y-43110D02*
X65760Y-43110D01*
X63550Y-42950D02*
X63000Y-43500D01*
X64200Y-42950D02*
X63550Y-42950D01*
X64450Y-42700D02*
X64200Y-42950D01*
X65350Y-42700D02*
X64450Y-42700D01*
X65760Y-43110D02*
X65350Y-42700D01*
X67147Y-43877D02*
X65922Y-43877D01*
X63550Y-44950D02*
X63000Y-45500D01*
X64200Y-44950D02*
X63550Y-44950D01*
X64450Y-44700D02*
X64200Y-44950D01*
X65100Y-44700D02*
X64450Y-44700D01*
X65922Y-43877D02*
X65100Y-44700D01*
X69950Y-42598D02*
X70401Y-42598D01*
X70401Y-42598D02*
X70950Y-42050D01*
X79100Y-43350D02*
X79232Y-43350D01*
X78150Y-42400D02*
X79100Y-43350D01*
X76850Y-42400D02*
X78150Y-42400D01*
X76650Y-42600D02*
X76850Y-42400D01*
X74650Y-42600D02*
X76650Y-42600D01*
X74350Y-42300D02*
X74650Y-42600D01*
X73100Y-42300D02*
X74350Y-42300D01*
X72850Y-42050D02*
X73100Y-42300D01*
X70950Y-42050D02*
X72850Y-42050D01*
X69352Y-42598D02*
X69950Y-42598D01*
X79232Y-43350D02*
X79496Y-43085D01*
X69950Y-42854D02*
X70445Y-42854D01*
X70445Y-42854D02*
X71000Y-42300D01*
X79050Y-43600D02*
X79427Y-43600D01*
X78100Y-42650D02*
X79050Y-43600D01*
X76900Y-42650D02*
X78100Y-42650D01*
X76700Y-42850D02*
X76900Y-42650D01*
X74600Y-42850D02*
X76700Y-42850D01*
X74300Y-42550D02*
X74600Y-42850D01*
X73050Y-42550D02*
X74300Y-42550D01*
X72800Y-42300D02*
X73050Y-42550D01*
X71000Y-42300D02*
X72800Y-42300D01*
X69352Y-42854D02*
X69950Y-42854D01*
X79427Y-43600D02*
X79719Y-43308D01*
X87350Y-43550D02*
X87350Y-43300D01*
X87350Y-43300D02*
X86200Y-42150D01*
X82241Y-40341D02*
X81835Y-40746D01*
X83350Y-41000D02*
X83350Y-40800D01*
X85850Y-41800D02*
X84150Y-41800D01*
X86200Y-42150D02*
X85850Y-41800D01*
X83350Y-40800D02*
X82900Y-40350D01*
X84150Y-41800D02*
X83350Y-41000D01*
X82891Y-40341D02*
X82900Y-40350D01*
X82241Y-40341D02*
X82891Y-40341D01*
X88884Y-43882D02*
X88884Y-44266D01*
X87350Y-44300D02*
X87350Y-43550D01*
X87400Y-44350D02*
X87350Y-44300D01*
X88800Y-44350D02*
X87400Y-44350D01*
X88884Y-44266D02*
X88800Y-44350D01*
X60950Y-41800D02*
X60900Y-41850D01*
X60900Y-41850D02*
X59951Y-41850D01*
X56548Y-41850D02*
X55900Y-41850D01*
X55900Y-41850D02*
X55750Y-42000D01*
X94628Y-44728D02*
X94800Y-44900D01*
X94628Y-44132D02*
X94628Y-44728D01*
X95624Y-39975D02*
X95624Y-40433D01*
X95624Y-39975D02*
X96150Y-39450D01*
X79400Y-34850D02*
X77150Y-34850D01*
X78000Y-40000D02*
X77950Y-39950D01*
X78000Y-40000D02*
X78474Y-40000D01*
X72700Y-34850D02*
X74850Y-34850D01*
X77150Y-34850D02*
X74850Y-34850D01*
X84000Y-45025D02*
X84000Y-45150D01*
X84000Y-45150D02*
X84300Y-45450D01*
X80900Y-42750D02*
X80900Y-42372D01*
X81400Y-43350D02*
X81400Y-43250D01*
X81400Y-43250D02*
X80900Y-42750D01*
X81803Y-43753D02*
X81400Y-43350D01*
X80900Y-42372D02*
X80727Y-42200D01*
X81835Y-43753D02*
X81803Y-43753D01*
X90250Y-43025D02*
X90724Y-43025D01*
X90724Y-43025D02*
X90750Y-43000D01*
X94372Y-41868D02*
X94372Y-41372D01*
X93050Y-41750D02*
X92950Y-41750D01*
X92950Y-41750D02*
X92525Y-41750D01*
X93500Y-41300D02*
X93050Y-41750D01*
X94300Y-41300D02*
X93500Y-41300D01*
X94372Y-41372D02*
X94300Y-41300D01*
X89396Y-43882D02*
X89918Y-43882D01*
X90250Y-43550D02*
X90250Y-43025D01*
X89918Y-43882D02*
X90250Y-43550D01*
X82500Y-45025D02*
X82500Y-45300D01*
X82500Y-45300D02*
X82050Y-45750D01*
X85124Y-40433D02*
X85124Y-39925D01*
X85124Y-39925D02*
X85550Y-39500D01*
X86874Y-40433D02*
X86874Y-39975D01*
X86874Y-39975D02*
X87350Y-39500D01*
X88624Y-40433D02*
X88624Y-39925D01*
X88624Y-39925D02*
X89100Y-39450D01*
X90374Y-40433D02*
X90374Y-39875D01*
X90374Y-39875D02*
X90850Y-39400D01*
X92124Y-40433D02*
X92124Y-39925D01*
X92124Y-39925D02*
X92550Y-39500D01*
X93874Y-40433D02*
X93874Y-39975D01*
X93874Y-39975D02*
X94350Y-39500D01*
X98047Y-43588D02*
X98047Y-41252D01*
X98047Y-41252D02*
X98200Y-41100D01*
X82280Y-43308D02*
X82258Y-43308D01*
X80727Y-42200D02*
X79719Y-41191D01*
X68724Y-44775D02*
X68750Y-44750D01*
X68750Y-44750D02*
X68250Y-43750D01*
X69352Y-44645D02*
X68854Y-44645D01*
X68854Y-44645D02*
X68750Y-44750D01*
X68750Y-44750D02*
X68250Y-43750D01*
X78474Y-40000D02*
X78474Y-40224D01*
X78927Y-40400D02*
X79719Y-41191D01*
X78650Y-40400D02*
X78927Y-40400D01*
X78474Y-40224D02*
X78650Y-40400D01*
X82500Y-45025D02*
X82375Y-45025D01*
X82375Y-45025D02*
X82200Y-44850D01*
X82200Y-44850D02*
X82200Y-44117D01*
X82200Y-44117D02*
X81835Y-43753D01*
X83250Y-45025D02*
X83075Y-45025D01*
X82950Y-43977D02*
X82280Y-43308D01*
X82950Y-44900D02*
X82950Y-43977D01*
X83075Y-45025D02*
X82950Y-44900D01*
X68250Y-43750D02*
X68750Y-43750D01*
X68250Y-43750D02*
X67750Y-43750D01*
X68250Y-43750D02*
X68750Y-44250D01*
X68250Y-43750D02*
X68250Y-44250D01*
X68250Y-43750D02*
X67750Y-44250D01*
X68250Y-44250D02*
X68750Y-44750D01*
X68250Y-43750D02*
X68250Y-44750D01*
X68250Y-44250D02*
X67750Y-44750D01*
X68250Y-43750D02*
X67750Y-43250D01*
X68250Y-43750D02*
X68750Y-43250D01*
X68250Y-43750D02*
X68250Y-43250D01*
X68250Y-43250D02*
X68750Y-42750D01*
X68250Y-43750D02*
X68250Y-42750D01*
X68250Y-43250D02*
X67750Y-42750D01*
X56124Y-40433D02*
X57083Y-40433D01*
X58848Y-41298D02*
X58848Y-41850D01*
X58600Y-41050D02*
X58848Y-41298D01*
X57500Y-41050D02*
X58600Y-41050D01*
X57200Y-40750D02*
X57500Y-41050D01*
X57200Y-40550D02*
X57200Y-40750D01*
X57083Y-40433D02*
X57200Y-40550D01*
X83250Y-44474D02*
X83524Y-44474D01*
X86950Y-45700D02*
X87650Y-45700D01*
X86800Y-45850D02*
X86950Y-45700D01*
X83600Y-44550D02*
X83600Y-45850D01*
X83524Y-44474D02*
X83600Y-44550D01*
X82058Y-43530D02*
X82058Y-43508D01*
X82058Y-43508D02*
X81750Y-43200D01*
X81917Y-42782D02*
X82200Y-42782D01*
X81750Y-42950D02*
X81917Y-42782D01*
X81750Y-43200D02*
X81750Y-42950D01*
X91224Y-45750D02*
X91224Y-45074D01*
X87974Y-44825D02*
X87974Y-45000D01*
X88200Y-44600D02*
X87974Y-44825D01*
X90750Y-44600D02*
X88200Y-44600D01*
X91224Y-45074D02*
X90750Y-44600D01*
X91974Y-41750D02*
X91700Y-41750D01*
X90100Y-41800D02*
X90000Y-41900D01*
X91650Y-41800D02*
X90100Y-41800D01*
X91700Y-41750D02*
X91650Y-41800D01*
X87604Y-41618D02*
X87132Y-41618D01*
X87650Y-44950D02*
X87650Y-45100D01*
X87100Y-44400D02*
X87650Y-44950D01*
X87100Y-43500D02*
X87100Y-44400D01*
X86800Y-43200D02*
X87100Y-43500D01*
X87132Y-41618D02*
X87100Y-41650D01*
X87974Y-45000D02*
X87750Y-45000D01*
X87700Y-45750D02*
X87974Y-45750D01*
X87650Y-45700D02*
X87700Y-45750D01*
X87650Y-45100D02*
X87650Y-45700D01*
X87750Y-45000D02*
X87650Y-45100D01*
X80386Y-40523D02*
X80386Y-40536D01*
X80386Y-40536D02*
X80950Y-41100D01*
X82200Y-42782D02*
X82503Y-43085D01*
X82200Y-42500D02*
X82200Y-42782D01*
X80950Y-41250D02*
X82200Y-42500D01*
X80950Y-41100D02*
X80950Y-41250D01*
X79025Y-40000D02*
X79025Y-39625D01*
X77900Y-39500D02*
X77750Y-39650D01*
X78900Y-39500D02*
X77900Y-39500D01*
X79025Y-39625D02*
X78900Y-39500D01*
X76966Y-40433D02*
X76374Y-40433D01*
X77750Y-39650D02*
X76966Y-40433D01*
X66600Y-44750D02*
X66350Y-44750D01*
X66350Y-44750D02*
X66300Y-44800D01*
X74124Y-40433D02*
X74124Y-40225D01*
X74124Y-40225D02*
X74300Y-40050D01*
X71874Y-40433D02*
X71874Y-40225D01*
X71874Y-40225D02*
X72050Y-40050D01*
X72050Y-40050D02*
X72000Y-40100D01*
X72000Y-40100D02*
X72000Y-40050D01*
X69624Y-40433D02*
X69624Y-40225D01*
X69624Y-40225D02*
X69800Y-40050D01*
X67374Y-40433D02*
X67374Y-40225D01*
X67374Y-40225D02*
X67550Y-40050D01*
X65124Y-40433D02*
X65124Y-40225D01*
X65124Y-40225D02*
X65300Y-40050D01*
X62874Y-40433D02*
X62874Y-40225D01*
X62874Y-40225D02*
X63050Y-40050D01*
X60624Y-40433D02*
X60624Y-40225D01*
X60624Y-40225D02*
X60800Y-40050D01*
X58374Y-40433D02*
X58374Y-40225D01*
X58374Y-40225D02*
X58550Y-40050D01*
X56124Y-40433D02*
X56124Y-40225D01*
X56124Y-40225D02*
X56300Y-40050D01*
X76374Y-40433D02*
X76374Y-40124D01*
X76374Y-40124D02*
X76300Y-40050D01*
X76300Y-40050D02*
X75200Y-40050D01*
X75200Y-40050D02*
X75150Y-40100D01*
X75150Y-40100D02*
X74450Y-40100D01*
X74450Y-40100D02*
X74400Y-40050D01*
X74400Y-40050D02*
X74300Y-40050D01*
X53874Y-40175D02*
X53874Y-40433D01*
X54000Y-40050D02*
X53874Y-40175D01*
X54150Y-40050D02*
X54000Y-40050D01*
X54200Y-40100D02*
X54150Y-40050D01*
X54800Y-40100D02*
X54200Y-40100D01*
X54850Y-40050D02*
X54800Y-40100D01*
X56400Y-40050D02*
X56300Y-40050D01*
X56300Y-40050D02*
X54850Y-40050D01*
X56450Y-40100D02*
X56400Y-40050D01*
X57150Y-40100D02*
X56450Y-40100D01*
X57200Y-40050D02*
X57150Y-40100D01*
X58650Y-40050D02*
X58550Y-40050D01*
X58550Y-40050D02*
X57200Y-40050D01*
X58700Y-40100D02*
X58650Y-40050D01*
X59400Y-40100D02*
X58700Y-40100D01*
X59450Y-40050D02*
X59400Y-40100D01*
X60900Y-40050D02*
X60800Y-40050D01*
X60800Y-40050D02*
X59450Y-40050D01*
X60950Y-40100D02*
X60900Y-40050D01*
X61650Y-40100D02*
X60950Y-40100D01*
X61700Y-40050D02*
X61650Y-40100D01*
X63150Y-40050D02*
X63050Y-40050D01*
X63050Y-40050D02*
X61700Y-40050D01*
X63200Y-40100D02*
X63150Y-40050D01*
X63850Y-40100D02*
X63200Y-40100D01*
X63900Y-40050D02*
X63850Y-40100D01*
X65400Y-40050D02*
X65300Y-40050D01*
X65300Y-40050D02*
X63900Y-40050D01*
X65450Y-40100D02*
X65400Y-40050D01*
X66100Y-40100D02*
X65450Y-40100D01*
X66150Y-40050D02*
X66100Y-40100D01*
X67650Y-40050D02*
X67550Y-40050D01*
X67550Y-40050D02*
X66150Y-40050D01*
X67700Y-40100D02*
X67650Y-40050D01*
X68400Y-40100D02*
X67700Y-40100D01*
X68450Y-40050D02*
X68400Y-40100D01*
X69900Y-40050D02*
X69800Y-40050D01*
X69800Y-40050D02*
X68450Y-40050D01*
X69950Y-40100D02*
X69900Y-40050D01*
X70650Y-40100D02*
X69950Y-40100D01*
X70700Y-40050D02*
X70650Y-40100D01*
X72150Y-40050D02*
X72000Y-40050D01*
X72000Y-40050D02*
X70700Y-40050D01*
X72200Y-40100D02*
X72150Y-40050D01*
X72950Y-40100D02*
X72200Y-40100D01*
X73000Y-40050D02*
X72950Y-40100D01*
X74300Y-40050D02*
X73000Y-40050D01*
X80386Y-40523D02*
X80386Y-40486D01*
X80386Y-40486D02*
X79900Y-40000D01*
X79900Y-40000D02*
X79025Y-40000D01*
X66651Y-44901D02*
X66651Y-45451D01*
X66950Y-45750D02*
X67224Y-45750D01*
X66651Y-45451D02*
X66950Y-45750D01*
X67147Y-44645D02*
X66654Y-44645D01*
X66651Y-44901D02*
X67147Y-44901D01*
X66600Y-44850D02*
X66651Y-44901D01*
X66600Y-44700D02*
X66600Y-44750D01*
X66600Y-44750D02*
X66600Y-44850D01*
X66654Y-44645D02*
X66600Y-44700D01*
X79025Y-40000D02*
X79025Y-40053D01*
X79025Y-40053D02*
X79941Y-40969D01*
X82500Y-44474D02*
X82500Y-43972D01*
X82500Y-43972D02*
X82058Y-43530D01*
X83250Y-44474D02*
X83250Y-43832D01*
X83250Y-43832D02*
X82503Y-43085D01*
X83250Y-44474D02*
X83250Y-44450D01*
X83250Y-44450D02*
X83200Y-44400D01*
X83200Y-44400D02*
X83250Y-44474D01*
X62000Y-45500D02*
X62000Y-43500D01*
X97500Y-45200D02*
X97500Y-45450D01*
X96100Y-45600D02*
X95850Y-45850D01*
X97350Y-45600D02*
X96100Y-45600D01*
X97500Y-45450D02*
X97350Y-45600D01*
X94974Y-45500D02*
X94051Y-45500D01*
X98047Y-44611D02*
X97638Y-44611D01*
X94974Y-45774D02*
X94974Y-45500D01*
X95050Y-45850D02*
X94974Y-45774D01*
X95850Y-45850D02*
X95050Y-45850D01*
X97500Y-44750D02*
X97500Y-45200D01*
X97638Y-44611D02*
X97500Y-44750D01*
X94076Y-45474D02*
X94051Y-45500D01*
X98047Y-44100D02*
X97375Y-44100D01*
X97375Y-44100D02*
X97025Y-43750D01*
X97025Y-43750D02*
X97025Y-43000D01*
X98047Y-44355D02*
X97169Y-44355D01*
X97169Y-44355D02*
X97025Y-44500D01*
X97025Y-44500D02*
X97025Y-45250D01*
X94884Y-41868D02*
X94884Y-42384D01*
X94884Y-42384D02*
X94900Y-42400D01*
X94116Y-44132D02*
X94116Y-43634D01*
X94116Y-43634D02*
X94150Y-43600D01*
X92525Y-44000D02*
X93100Y-44000D01*
X93400Y-44600D02*
X94050Y-44600D01*
X93350Y-44550D02*
X93400Y-44600D01*
X93350Y-44250D02*
X93350Y-44550D01*
X93100Y-44000D02*
X93350Y-44250D01*
X93860Y-44132D02*
X93860Y-44510D01*
X94116Y-44534D02*
X94116Y-44132D01*
X94050Y-44600D02*
X94116Y-44534D01*
X93950Y-44600D02*
X94050Y-44600D01*
X93860Y-44510D02*
X93950Y-44600D01*
X92948Y-45500D02*
X92948Y-44651D01*
X92948Y-44651D02*
X93000Y-44600D01*
X92525Y-43250D02*
X92900Y-43250D01*
X92900Y-43250D02*
X93000Y-43350D01*
X93000Y-43350D02*
X93000Y-43600D01*
X93000Y-44350D02*
X93000Y-44600D01*
X94372Y-44628D02*
X94372Y-44132D01*
X93000Y-44600D02*
X93250Y-44850D01*
X93250Y-44850D02*
X94150Y-44850D01*
X94150Y-44850D02*
X94372Y-44628D01*
X92948Y-45500D02*
X92025Y-45500D01*
X92025Y-45500D02*
X91775Y-45750D01*
X95140Y-41868D02*
X95140Y-42190D01*
X93000Y-42500D02*
X92525Y-42500D01*
X94750Y-42750D02*
X94500Y-42500D01*
X95000Y-42750D02*
X94750Y-42750D01*
X95250Y-42500D02*
X95000Y-42750D01*
X95250Y-42300D02*
X95250Y-42500D01*
X95140Y-42190D02*
X95250Y-42300D01*
X84000Y-43525D02*
X85013Y-43525D01*
X85013Y-43525D02*
X85500Y-43039D01*
X84000Y-43525D02*
X83834Y-43525D01*
X83834Y-43525D02*
X82948Y-42640D01*
X84000Y-44474D02*
X85013Y-44474D01*
X85013Y-44474D02*
X85500Y-44960D01*
X84000Y-44474D02*
X83974Y-44474D01*
X83974Y-44474D02*
X83500Y-44000D01*
X83500Y-43637D02*
X82726Y-42863D01*
X83500Y-44000D02*
X83500Y-43637D01*
X88550Y-43400D02*
X88550Y-42500D01*
X89725Y-42474D02*
X90250Y-42474D01*
X89700Y-42500D02*
X89725Y-42474D01*
X88372Y-43882D02*
X88372Y-43478D01*
X88628Y-43478D02*
X88628Y-43882D01*
X88550Y-43400D02*
X88628Y-43478D01*
X88450Y-43400D02*
X88550Y-43400D01*
X88372Y-43478D02*
X88450Y-43400D01*
X69352Y-44901D02*
X69651Y-44901D01*
X69651Y-44901D02*
X69750Y-45000D01*
X69750Y-45000D02*
X69750Y-45500D01*
X69750Y-45500D02*
X69500Y-45750D01*
X69500Y-45750D02*
X69275Y-45750D01*
X96000Y-43900D02*
X96000Y-43550D01*
X94000Y-43250D02*
X93750Y-43500D01*
X95700Y-43250D02*
X94000Y-43250D01*
X96000Y-43550D02*
X95700Y-43250D01*
X96474Y-44500D02*
X96250Y-44500D01*
X93604Y-43646D02*
X93604Y-44132D01*
X93750Y-43500D02*
X93604Y-43646D01*
X96000Y-44250D02*
X96000Y-43900D01*
X96250Y-44500D02*
X96000Y-44250D01*
X94884Y-44132D02*
X94884Y-43616D01*
X90000Y-45750D02*
X89775Y-45750D01*
X90400Y-45350D02*
X90000Y-45750D01*
X94884Y-43616D02*
X94900Y-43600D01*
X89775Y-45000D02*
X90600Y-45000D01*
X90600Y-45000D02*
X90850Y-45250D01*
X93860Y-42560D02*
X93860Y-41868D01*
X93950Y-42650D02*
X93860Y-42560D01*
X94100Y-42650D02*
X93950Y-42650D01*
X93604Y-42600D02*
X93604Y-42654D01*
X95750Y-43000D02*
X96000Y-43250D01*
X93950Y-43000D02*
X95750Y-43000D01*
X93604Y-42654D02*
X93950Y-43000D01*
X96474Y-43750D02*
X96474Y-43724D01*
X96474Y-43724D02*
X96000Y-43250D01*
X93604Y-42600D02*
X93604Y-41868D01*
X89224Y-45750D02*
X88525Y-45750D01*
X88525Y-45000D02*
X89224Y-45000D01*
X99000Y-33500D02*
X98500Y-34000D01*
X54500Y-34000D02*
X54000Y-33500D01*
X56250Y-34000D02*
X54500Y-34000D01*
X56500Y-34250D02*
X56250Y-34000D01*
X68250Y-34250D02*
X56500Y-34250D01*
X68500Y-34500D02*
X68250Y-34250D01*
X84500Y-34500D02*
X68500Y-34500D01*
X84750Y-34250D02*
X84500Y-34500D01*
X96500Y-34250D02*
X84750Y-34250D01*
X96750Y-34000D02*
X96500Y-34250D01*
X98500Y-34000D02*
X96750Y-34000D01*
X54000Y-38000D02*
X54000Y-38724D01*
X54000Y-38724D02*
X54500Y-39224D01*
X56250Y-33500D02*
X56750Y-34000D01*
X96250Y-34000D02*
X96750Y-33500D01*
X84500Y-34000D02*
X96250Y-34000D01*
X84250Y-34250D02*
X84500Y-34000D01*
X69000Y-34250D02*
X84250Y-34250D01*
X68750Y-34000D02*
X69000Y-34250D01*
X56750Y-34000D02*
X68750Y-34000D01*
X56250Y-38000D02*
X56250Y-38724D01*
X56250Y-38724D02*
X56750Y-39224D01*
X58500Y-31250D02*
X59000Y-31750D01*
X59000Y-31750D02*
X60750Y-31750D01*
X60750Y-31750D02*
X61000Y-32000D01*
X61000Y-32000D02*
X62750Y-32000D01*
X62750Y-32000D02*
X63000Y-32250D01*
X63000Y-32250D02*
X64750Y-32250D01*
X64750Y-32250D02*
X65000Y-32500D01*
X65000Y-32500D02*
X66750Y-32500D01*
X66750Y-32500D02*
X67049Y-32799D01*
X67049Y-32799D02*
X68799Y-32799D01*
X68799Y-32799D02*
X69000Y-33000D01*
X69000Y-33000D02*
X84000Y-33000D01*
X84000Y-33000D02*
X84250Y-32750D01*
X84250Y-32750D02*
X86000Y-32750D01*
X86000Y-32750D02*
X86250Y-32500D01*
X86250Y-32500D02*
X88000Y-32500D01*
X88000Y-32500D02*
X88250Y-32250D01*
X88250Y-32250D02*
X90000Y-32250D01*
X90000Y-32250D02*
X90250Y-32000D01*
X90250Y-32000D02*
X92000Y-32000D01*
X92000Y-32000D02*
X92250Y-31750D01*
X92250Y-31750D02*
X94000Y-31750D01*
X94000Y-31750D02*
X94500Y-31250D01*
X58500Y-38000D02*
X58500Y-38724D01*
X58500Y-38724D02*
X59000Y-39224D01*
X92250Y-31250D02*
X91750Y-31750D01*
X61250Y-31750D02*
X60750Y-31250D01*
X63000Y-31750D02*
X61250Y-31750D01*
X63250Y-32000D02*
X63000Y-31750D01*
X65000Y-32000D02*
X63250Y-32000D01*
X65250Y-32250D02*
X65000Y-32000D01*
X67000Y-32250D02*
X65250Y-32250D01*
X67250Y-32500D02*
X67000Y-32250D01*
X69000Y-32500D02*
X67250Y-32500D01*
X69250Y-32750D02*
X69000Y-32500D01*
X83750Y-32750D02*
X69250Y-32750D01*
X84000Y-32500D02*
X83750Y-32750D01*
X85750Y-32500D02*
X84000Y-32500D01*
X86000Y-32250D02*
X85750Y-32500D01*
X87750Y-32250D02*
X86000Y-32250D01*
X88000Y-32000D02*
X87750Y-32250D01*
X89750Y-32000D02*
X88000Y-32000D01*
X90000Y-31750D02*
X89750Y-32000D01*
X91750Y-31750D02*
X90000Y-31750D01*
X60750Y-38000D02*
X60750Y-38724D01*
X60750Y-38724D02*
X61250Y-39224D01*
X63000Y-31250D02*
X63500Y-31750D01*
X63500Y-31750D02*
X65250Y-31750D01*
X65250Y-31750D02*
X65500Y-32000D01*
X65500Y-32000D02*
X67250Y-32000D01*
X67250Y-32000D02*
X67500Y-32250D01*
X67500Y-32250D02*
X69250Y-32250D01*
X69250Y-32250D02*
X69500Y-32500D01*
X69500Y-32500D02*
X83500Y-32500D01*
X83500Y-32500D02*
X83750Y-32250D01*
X83750Y-32250D02*
X85500Y-32250D01*
X85500Y-32250D02*
X85750Y-32000D01*
X85750Y-32000D02*
X87500Y-32000D01*
X87500Y-32000D02*
X87750Y-31750D01*
X87750Y-31750D02*
X89500Y-31750D01*
X89500Y-31750D02*
X90000Y-31250D01*
X63000Y-38000D02*
X63000Y-38724D01*
X63000Y-38724D02*
X63500Y-39224D01*
X87750Y-38000D02*
X87600Y-38000D01*
X87600Y-38000D02*
X87100Y-37500D01*
X87200Y-36300D02*
X87750Y-35750D01*
X86500Y-36300D02*
X87200Y-36300D01*
X86350Y-36450D02*
X86500Y-36300D01*
X86350Y-37300D02*
X86350Y-36450D01*
X86550Y-37500D02*
X86350Y-37300D01*
X87100Y-37500D02*
X86550Y-37500D01*
X65750Y-31750D02*
X67500Y-31750D01*
X65250Y-31250D02*
X65750Y-31750D01*
X87250Y-31750D02*
X87750Y-31250D01*
X85500Y-31750D02*
X87250Y-31750D01*
X85250Y-32000D02*
X85500Y-31750D01*
X83500Y-32000D02*
X85250Y-32000D01*
X83250Y-32250D02*
X83500Y-32000D01*
X69750Y-32250D02*
X83250Y-32250D01*
X69500Y-32000D02*
X69750Y-32250D01*
X67750Y-32000D02*
X69500Y-32000D01*
X67500Y-31750D02*
X67750Y-32000D01*
X65250Y-38000D02*
X65250Y-38724D01*
X65250Y-38724D02*
X65750Y-39224D01*
X85500Y-38000D02*
X85500Y-35750D01*
X85500Y-31250D02*
X85000Y-31750D01*
X68000Y-31750D02*
X67500Y-31250D01*
X69750Y-31750D02*
X68000Y-31750D01*
X70000Y-32000D02*
X69750Y-31750D01*
X83000Y-32000D02*
X70000Y-32000D01*
X83250Y-31750D02*
X83000Y-32000D01*
X85000Y-31750D02*
X83250Y-31750D01*
X67500Y-38000D02*
X67500Y-38724D01*
X67500Y-38724D02*
X68000Y-39224D01*
X83250Y-38000D02*
X83250Y-35750D01*
X69750Y-31250D02*
X70250Y-31750D01*
X82750Y-31750D02*
X83250Y-31250D01*
X70250Y-31750D02*
X82750Y-31750D01*
X69750Y-38000D02*
X69750Y-38724D01*
X69750Y-38724D02*
X70250Y-39224D01*
X81000Y-35750D02*
X81000Y-38000D01*
X72000Y-38000D02*
X72000Y-38724D01*
X72000Y-38724D02*
X72500Y-39224D01*
X78750Y-38000D02*
X78750Y-35750D01*
X74250Y-38000D02*
X74250Y-38724D01*
X74250Y-38724D02*
X74750Y-39224D01*
X76500Y-38000D02*
X76500Y-35750D01*
X76500Y-38000D02*
X76500Y-38724D01*
X76500Y-38724D02*
X77000Y-39224D01*
G54D10*
G36*
X62350Y-45900D02*
X59000Y-45900D01*
X57550Y-45900D01*
X57550Y-45007D01*
X58000Y-43457D01*
X58000Y-42567D01*
X58174Y-42349D01*
X58178Y-42345D01*
X58178Y-42343D01*
X58574Y-41850D01*
X58850Y-41850D01*
X58850Y-42179D01*
X58500Y-42529D01*
X58500Y-43458D01*
X58563Y-43650D01*
X58753Y-43650D01*
X58777Y-43674D01*
X58869Y-43712D01*
X58969Y-43712D01*
X59441Y-43712D01*
X59533Y-43674D01*
X59558Y-43649D01*
X61606Y-43150D01*
X62350Y-43150D01*
X62350Y-45900D01*
X62350Y-45900D01*
G37*
G54D31*
X62350Y-45900D02*
X59000Y-45900D01*
X57550Y-45900D01*
X57550Y-45007D01*
X58000Y-43457D01*
X58000Y-42567D01*
X58174Y-42349D01*
X58178Y-42345D01*
X58178Y-42343D01*
X58574Y-41850D01*
X58850Y-41850D01*
X58850Y-42179D01*
X58500Y-42529D01*
X58500Y-43458D01*
X58563Y-43650D01*
X58753Y-43650D01*
X58777Y-43674D01*
X58869Y-43712D01*
X58969Y-43712D01*
X59441Y-43712D01*
X59533Y-43674D01*
X59558Y-43649D01*
X61606Y-43150D01*
X62350Y-43150D01*
X62350Y-45900D01*
G54D10*
G36*
X57900Y-42181D02*
X57600Y-42531D01*
X57600Y-43450D01*
X57048Y-43450D01*
X53948Y-43650D01*
X53100Y-43650D01*
X53100Y-42850D01*
X53952Y-42850D01*
X57074Y-42598D01*
X57390Y-42229D01*
X57627Y-41850D01*
X57900Y-41850D01*
X57900Y-42181D01*
X57900Y-42181D01*
G37*
G54D31*
X57900Y-42181D02*
X57600Y-42531D01*
X57600Y-43450D01*
X57048Y-43450D01*
X53948Y-43650D01*
X53100Y-43650D01*
X53100Y-42850D01*
X53952Y-42850D01*
X57074Y-42598D01*
X57390Y-42229D01*
X57627Y-41850D01*
X57900Y-41850D01*
X57900Y-42181D01*
G54D10*
G36*
X57275Y-41250D02*
X57194Y-41283D01*
X57124Y-41354D01*
X57100Y-41412D01*
X57075Y-41354D01*
X57005Y-41283D01*
X56913Y-41245D01*
X56661Y-41245D01*
X56598Y-41308D01*
X56598Y-41800D01*
X56606Y-41800D01*
X56606Y-41900D01*
X56598Y-41900D01*
X56598Y-41907D01*
X56498Y-41907D01*
X56498Y-41900D01*
X56498Y-41800D01*
X56498Y-41308D01*
X56436Y-41245D01*
X56184Y-41245D01*
X56092Y-41283D01*
X56021Y-41354D01*
X55983Y-41445D01*
X55983Y-41545D01*
X55983Y-41737D01*
X56046Y-41800D01*
X56498Y-41800D01*
X56498Y-41900D01*
X56046Y-41900D01*
X55983Y-41962D01*
X55983Y-42154D01*
X55983Y-42254D01*
X55986Y-42259D01*
X52700Y-42452D01*
X52700Y-44050D01*
X57200Y-44050D01*
X57200Y-45980D01*
X54187Y-45980D01*
X54187Y-45363D01*
X54178Y-45091D01*
X54091Y-44882D01*
X53982Y-44838D01*
X53911Y-44909D01*
X53911Y-44767D01*
X53867Y-44658D01*
X53613Y-44562D01*
X53341Y-44571D01*
X53132Y-44658D01*
X53088Y-44767D01*
X53500Y-45179D01*
X53911Y-44767D01*
X53911Y-44909D01*
X53570Y-45250D01*
X53982Y-45661D01*
X54091Y-45617D01*
X54187Y-45363D01*
X54187Y-45980D01*
X53911Y-45980D01*
X53911Y-45732D01*
X53500Y-45320D01*
X53429Y-45391D01*
X53429Y-45250D01*
X53017Y-44838D01*
X52908Y-44882D01*
X52812Y-45136D01*
X52821Y-45408D01*
X52908Y-45617D01*
X53017Y-45661D01*
X53429Y-45250D01*
X53429Y-45391D01*
X53088Y-45732D01*
X53132Y-45841D01*
X53386Y-45937D01*
X53658Y-45928D01*
X53867Y-45841D01*
X53911Y-45732D01*
X53911Y-45980D01*
X52519Y-45980D01*
X52519Y-38316D01*
X52520Y-38319D01*
X52679Y-38478D01*
X52887Y-38564D01*
X53111Y-38565D01*
X53319Y-38479D01*
X53478Y-38320D01*
X53499Y-38269D01*
X53520Y-38319D01*
X53679Y-38478D01*
X53700Y-38487D01*
X53700Y-38724D01*
X53722Y-38839D01*
X53787Y-38936D01*
X54112Y-39260D01*
X54112Y-39411D01*
X54138Y-39475D01*
X53877Y-39475D01*
X53877Y-39308D01*
X53839Y-39216D01*
X53769Y-39146D01*
X53677Y-39108D01*
X53578Y-39108D01*
X53322Y-39108D01*
X53230Y-39146D01*
X53160Y-39216D01*
X53122Y-39308D01*
X53122Y-39407D01*
X53122Y-39825D01*
X53160Y-39917D01*
X53217Y-39974D01*
X53204Y-39974D01*
X52948Y-39974D01*
X52856Y-40012D01*
X52786Y-40082D01*
X52748Y-40174D01*
X52748Y-40274D01*
X52748Y-40691D01*
X52786Y-40783D01*
X52825Y-40823D01*
X52825Y-40975D01*
X52848Y-41090D01*
X52913Y-41188D01*
X53537Y-41812D01*
X53537Y-41812D01*
X53635Y-41877D01*
X53750Y-41900D01*
X55134Y-41900D01*
X55173Y-41938D01*
X55320Y-41999D01*
X55479Y-42000D01*
X55626Y-41939D01*
X55738Y-41826D01*
X55799Y-41679D01*
X55800Y-41520D01*
X55739Y-41374D01*
X55799Y-41229D01*
X55800Y-41070D01*
X55739Y-40923D01*
X55675Y-40860D01*
X55675Y-40823D01*
X55715Y-40783D01*
X55750Y-40700D01*
X55784Y-40783D01*
X55854Y-40853D01*
X55946Y-40891D01*
X56045Y-40891D01*
X56301Y-40891D01*
X56393Y-40853D01*
X56463Y-40783D01*
X56484Y-40733D01*
X56900Y-40733D01*
X56900Y-40750D01*
X56922Y-40864D01*
X56987Y-40962D01*
X57275Y-41250D01*
X57275Y-41250D01*
G37*
G54D31*
X57275Y-41250D02*
X57194Y-41283D01*
X57124Y-41354D01*
X57100Y-41412D01*
X57075Y-41354D01*
X57005Y-41283D01*
X56913Y-41245D01*
X56661Y-41245D01*
X56598Y-41308D01*
X56598Y-41800D01*
X56606Y-41800D01*
X56606Y-41900D01*
X56598Y-41900D01*
X56598Y-41907D01*
X56498Y-41907D01*
X56498Y-41900D01*
X56498Y-41800D01*
X56498Y-41308D01*
X56436Y-41245D01*
X56184Y-41245D01*
X56092Y-41283D01*
X56021Y-41354D01*
X55983Y-41445D01*
X55983Y-41545D01*
X55983Y-41737D01*
X56046Y-41800D01*
X56498Y-41800D01*
X56498Y-41900D01*
X56046Y-41900D01*
X55983Y-41962D01*
X55983Y-42154D01*
X55983Y-42254D01*
X55986Y-42259D01*
X52700Y-42452D01*
X52700Y-44050D01*
X57200Y-44050D01*
X57200Y-45980D01*
X54187Y-45980D01*
X54187Y-45363D01*
X54178Y-45091D01*
X54091Y-44882D01*
X53982Y-44838D01*
X53911Y-44909D01*
X53911Y-44767D01*
X53867Y-44658D01*
X53613Y-44562D01*
X53341Y-44571D01*
X53132Y-44658D01*
X53088Y-44767D01*
X53500Y-45179D01*
X53911Y-44767D01*
X53911Y-44909D01*
X53570Y-45250D01*
X53982Y-45661D01*
X54091Y-45617D01*
X54187Y-45363D01*
X54187Y-45980D01*
X53911Y-45980D01*
X53911Y-45732D01*
X53500Y-45320D01*
X53429Y-45391D01*
X53429Y-45250D01*
X53017Y-44838D01*
X52908Y-44882D01*
X52812Y-45136D01*
X52821Y-45408D01*
X52908Y-45617D01*
X53017Y-45661D01*
X53429Y-45250D01*
X53429Y-45391D01*
X53088Y-45732D01*
X53132Y-45841D01*
X53386Y-45937D01*
X53658Y-45928D01*
X53867Y-45841D01*
X53911Y-45732D01*
X53911Y-45980D01*
X52519Y-45980D01*
X52519Y-38316D01*
X52520Y-38319D01*
X52679Y-38478D01*
X52887Y-38564D01*
X53111Y-38565D01*
X53319Y-38479D01*
X53478Y-38320D01*
X53499Y-38269D01*
X53520Y-38319D01*
X53679Y-38478D01*
X53700Y-38487D01*
X53700Y-38724D01*
X53722Y-38839D01*
X53787Y-38936D01*
X54112Y-39260D01*
X54112Y-39411D01*
X54138Y-39475D01*
X53877Y-39475D01*
X53877Y-39308D01*
X53839Y-39216D01*
X53769Y-39146D01*
X53677Y-39108D01*
X53578Y-39108D01*
X53322Y-39108D01*
X53230Y-39146D01*
X53160Y-39216D01*
X53122Y-39308D01*
X53122Y-39407D01*
X53122Y-39825D01*
X53160Y-39917D01*
X53217Y-39974D01*
X53204Y-39974D01*
X52948Y-39974D01*
X52856Y-40012D01*
X52786Y-40082D01*
X52748Y-40174D01*
X52748Y-40274D01*
X52748Y-40691D01*
X52786Y-40783D01*
X52825Y-40823D01*
X52825Y-40975D01*
X52848Y-41090D01*
X52913Y-41188D01*
X53537Y-41812D01*
X53537Y-41812D01*
X53635Y-41877D01*
X53750Y-41900D01*
X55134Y-41900D01*
X55173Y-41938D01*
X55320Y-41999D01*
X55479Y-42000D01*
X55626Y-41939D01*
X55738Y-41826D01*
X55799Y-41679D01*
X55800Y-41520D01*
X55739Y-41374D01*
X55799Y-41229D01*
X55800Y-41070D01*
X55739Y-40923D01*
X55675Y-40860D01*
X55675Y-40823D01*
X55715Y-40783D01*
X55750Y-40700D01*
X55784Y-40783D01*
X55854Y-40853D01*
X55946Y-40891D01*
X56045Y-40891D01*
X56301Y-40891D01*
X56393Y-40853D01*
X56463Y-40783D01*
X56484Y-40733D01*
X56900Y-40733D01*
X56900Y-40750D01*
X56922Y-40864D01*
X56987Y-40962D01*
X57275Y-41250D01*
G54D10*
G36*
X58638Y-39475D02*
X58377Y-39475D01*
X58377Y-39308D01*
X58339Y-39216D01*
X58269Y-39146D01*
X58177Y-39108D01*
X58078Y-39108D01*
X57822Y-39108D01*
X57730Y-39146D01*
X57660Y-39216D01*
X57622Y-39308D01*
X57622Y-39407D01*
X57622Y-39750D01*
X57200Y-39750D01*
X57137Y-39762D01*
X57137Y-39588D01*
X57101Y-39500D01*
X57137Y-39411D01*
X57137Y-39312D01*
X57137Y-39036D01*
X57099Y-38945D01*
X57029Y-38874D01*
X56937Y-38836D01*
X56838Y-38836D01*
X56786Y-38836D01*
X56550Y-38600D01*
X56550Y-38487D01*
X56569Y-38479D01*
X56728Y-38320D01*
X56814Y-38112D01*
X56815Y-37888D01*
X56778Y-37800D01*
X56875Y-37800D01*
X56943Y-37867D01*
X56935Y-37887D01*
X56934Y-38111D01*
X57020Y-38319D01*
X57179Y-38478D01*
X57387Y-38564D01*
X57611Y-38565D01*
X57819Y-38479D01*
X57978Y-38320D01*
X57999Y-38269D01*
X58020Y-38319D01*
X58179Y-38478D01*
X58200Y-38487D01*
X58200Y-38724D01*
X58222Y-38839D01*
X58287Y-38936D01*
X58612Y-39260D01*
X58612Y-39411D01*
X58638Y-39475D01*
X58638Y-39475D01*
G37*
G54D31*
X58638Y-39475D02*
X58377Y-39475D01*
X58377Y-39308D01*
X58339Y-39216D01*
X58269Y-39146D01*
X58177Y-39108D01*
X58078Y-39108D01*
X57822Y-39108D01*
X57730Y-39146D01*
X57660Y-39216D01*
X57622Y-39308D01*
X57622Y-39407D01*
X57622Y-39750D01*
X57200Y-39750D01*
X57137Y-39762D01*
X57137Y-39588D01*
X57101Y-39500D01*
X57137Y-39411D01*
X57137Y-39312D01*
X57137Y-39036D01*
X57099Y-38945D01*
X57029Y-38874D01*
X56937Y-38836D01*
X56838Y-38836D01*
X56786Y-38836D01*
X56550Y-38600D01*
X56550Y-38487D01*
X56569Y-38479D01*
X56728Y-38320D01*
X56814Y-38112D01*
X56815Y-37888D01*
X56778Y-37800D01*
X56875Y-37800D01*
X56943Y-37867D01*
X56935Y-37887D01*
X56934Y-38111D01*
X57020Y-38319D01*
X57179Y-38478D01*
X57387Y-38564D01*
X57611Y-38565D01*
X57819Y-38479D01*
X57978Y-38320D01*
X57999Y-38269D01*
X58020Y-38319D01*
X58179Y-38478D01*
X58200Y-38487D01*
X58200Y-38724D01*
X58222Y-38839D01*
X58287Y-38936D01*
X58612Y-39260D01*
X58612Y-39411D01*
X58638Y-39475D01*
G54D10*
G36*
X60888Y-39475D02*
X60627Y-39475D01*
X60627Y-39308D01*
X60589Y-39216D01*
X60519Y-39146D01*
X60427Y-39108D01*
X60328Y-39108D01*
X60072Y-39108D01*
X59980Y-39146D01*
X59910Y-39216D01*
X59872Y-39308D01*
X59872Y-39407D01*
X59872Y-39750D01*
X59450Y-39750D01*
X59387Y-39762D01*
X59387Y-39588D01*
X59351Y-39500D01*
X59387Y-39411D01*
X59387Y-39312D01*
X59387Y-39036D01*
X59349Y-38945D01*
X59279Y-38874D01*
X59187Y-38836D01*
X59088Y-38836D01*
X59036Y-38836D01*
X58800Y-38600D01*
X58800Y-38487D01*
X58819Y-38479D01*
X58978Y-38320D01*
X59064Y-38112D01*
X59065Y-37888D01*
X59028Y-37800D01*
X59125Y-37800D01*
X59193Y-37867D01*
X59185Y-37887D01*
X59184Y-38111D01*
X59270Y-38319D01*
X59429Y-38478D01*
X59637Y-38564D01*
X59861Y-38565D01*
X60069Y-38479D01*
X60228Y-38320D01*
X60249Y-38269D01*
X60270Y-38319D01*
X60429Y-38478D01*
X60450Y-38487D01*
X60450Y-38724D01*
X60472Y-38839D01*
X60537Y-38936D01*
X60862Y-39260D01*
X60862Y-39411D01*
X60888Y-39475D01*
X60888Y-39475D01*
G37*
G54D31*
X60888Y-39475D02*
X60627Y-39475D01*
X60627Y-39308D01*
X60589Y-39216D01*
X60519Y-39146D01*
X60427Y-39108D01*
X60328Y-39108D01*
X60072Y-39108D01*
X59980Y-39146D01*
X59910Y-39216D01*
X59872Y-39308D01*
X59872Y-39407D01*
X59872Y-39750D01*
X59450Y-39750D01*
X59387Y-39762D01*
X59387Y-39588D01*
X59351Y-39500D01*
X59387Y-39411D01*
X59387Y-39312D01*
X59387Y-39036D01*
X59349Y-38945D01*
X59279Y-38874D01*
X59187Y-38836D01*
X59088Y-38836D01*
X59036Y-38836D01*
X58800Y-38600D01*
X58800Y-38487D01*
X58819Y-38479D01*
X58978Y-38320D01*
X59064Y-38112D01*
X59065Y-37888D01*
X59028Y-37800D01*
X59125Y-37800D01*
X59193Y-37867D01*
X59185Y-37887D01*
X59184Y-38111D01*
X59270Y-38319D01*
X59429Y-38478D01*
X59637Y-38564D01*
X59861Y-38565D01*
X60069Y-38479D01*
X60228Y-38320D01*
X60249Y-38269D01*
X60270Y-38319D01*
X60429Y-38478D01*
X60450Y-38487D01*
X60450Y-38724D01*
X60472Y-38839D01*
X60537Y-38936D01*
X60862Y-39260D01*
X60862Y-39411D01*
X60888Y-39475D01*
G54D10*
G36*
X63138Y-39475D02*
X62877Y-39475D01*
X62877Y-39308D01*
X62839Y-39216D01*
X62769Y-39146D01*
X62677Y-39108D01*
X62578Y-39108D01*
X62322Y-39108D01*
X62230Y-39146D01*
X62160Y-39216D01*
X62122Y-39308D01*
X62122Y-39407D01*
X62122Y-39750D01*
X61700Y-39750D01*
X61637Y-39762D01*
X61637Y-39588D01*
X61601Y-39500D01*
X61637Y-39411D01*
X61637Y-39312D01*
X61637Y-39036D01*
X61599Y-38945D01*
X61529Y-38874D01*
X61437Y-38836D01*
X61338Y-38836D01*
X61286Y-38836D01*
X61050Y-38600D01*
X61050Y-38487D01*
X61069Y-38479D01*
X61228Y-38320D01*
X61314Y-38112D01*
X61315Y-37888D01*
X61278Y-37800D01*
X61375Y-37800D01*
X61443Y-37867D01*
X61435Y-37887D01*
X61434Y-38111D01*
X61520Y-38319D01*
X61679Y-38478D01*
X61887Y-38564D01*
X62111Y-38565D01*
X62319Y-38479D01*
X62478Y-38320D01*
X62499Y-38269D01*
X62520Y-38319D01*
X62679Y-38478D01*
X62700Y-38487D01*
X62700Y-38724D01*
X62722Y-38839D01*
X62787Y-38936D01*
X63112Y-39260D01*
X63112Y-39411D01*
X63138Y-39475D01*
X63138Y-39475D01*
G37*
G54D31*
X63138Y-39475D02*
X62877Y-39475D01*
X62877Y-39308D01*
X62839Y-39216D01*
X62769Y-39146D01*
X62677Y-39108D01*
X62578Y-39108D01*
X62322Y-39108D01*
X62230Y-39146D01*
X62160Y-39216D01*
X62122Y-39308D01*
X62122Y-39407D01*
X62122Y-39750D01*
X61700Y-39750D01*
X61637Y-39762D01*
X61637Y-39588D01*
X61601Y-39500D01*
X61637Y-39411D01*
X61637Y-39312D01*
X61637Y-39036D01*
X61599Y-38945D01*
X61529Y-38874D01*
X61437Y-38836D01*
X61338Y-38836D01*
X61286Y-38836D01*
X61050Y-38600D01*
X61050Y-38487D01*
X61069Y-38479D01*
X61228Y-38320D01*
X61314Y-38112D01*
X61315Y-37888D01*
X61278Y-37800D01*
X61375Y-37800D01*
X61443Y-37867D01*
X61435Y-37887D01*
X61434Y-38111D01*
X61520Y-38319D01*
X61679Y-38478D01*
X61887Y-38564D01*
X62111Y-38565D01*
X62319Y-38479D01*
X62478Y-38320D01*
X62499Y-38269D01*
X62520Y-38319D01*
X62679Y-38478D01*
X62700Y-38487D01*
X62700Y-38724D01*
X62722Y-38839D01*
X62787Y-38936D01*
X63112Y-39260D01*
X63112Y-39411D01*
X63138Y-39475D01*
G54D10*
G36*
X64775Y-32700D02*
X63750Y-32700D01*
X61500Y-32700D01*
X59250Y-32700D01*
X57000Y-32700D01*
X54750Y-32700D01*
X53500Y-32700D01*
X53385Y-32722D01*
X53287Y-32787D01*
X53132Y-32943D01*
X53112Y-32935D01*
X52888Y-32934D01*
X52680Y-33020D01*
X52521Y-33179D01*
X52519Y-33183D01*
X52519Y-31566D01*
X52520Y-31569D01*
X52679Y-31728D01*
X52887Y-31814D01*
X53111Y-31815D01*
X53319Y-31729D01*
X53478Y-31570D01*
X53499Y-31519D01*
X53520Y-31569D01*
X53679Y-31728D01*
X53887Y-31814D01*
X54111Y-31815D01*
X54319Y-31729D01*
X54478Y-31570D01*
X54515Y-31480D01*
X54585Y-31527D01*
X54700Y-31550D01*
X54762Y-31550D01*
X54770Y-31569D01*
X54929Y-31728D01*
X55137Y-31814D01*
X55361Y-31815D01*
X55569Y-31729D01*
X55728Y-31570D01*
X55749Y-31519D01*
X55770Y-31569D01*
X55929Y-31728D01*
X56137Y-31814D01*
X56361Y-31815D01*
X56569Y-31729D01*
X56728Y-31570D01*
X56814Y-31362D01*
X56815Y-31138D01*
X56778Y-31050D01*
X56875Y-31050D01*
X56943Y-31117D01*
X56935Y-31137D01*
X56934Y-31361D01*
X57020Y-31569D01*
X57179Y-31728D01*
X57387Y-31814D01*
X57611Y-31815D01*
X57819Y-31729D01*
X57978Y-31570D01*
X57999Y-31519D01*
X58020Y-31569D01*
X58179Y-31728D01*
X58387Y-31814D01*
X58611Y-31815D01*
X58632Y-31806D01*
X58787Y-31962D01*
X58787Y-31962D01*
X58885Y-32027D01*
X59000Y-32050D01*
X60625Y-32050D01*
X60787Y-32212D01*
X60846Y-32251D01*
X60885Y-32277D01*
X60885Y-32277D01*
X61000Y-32300D01*
X62625Y-32300D01*
X62787Y-32462D01*
X62846Y-32501D01*
X62885Y-32527D01*
X62885Y-32527D01*
X63000Y-32550D01*
X64625Y-32550D01*
X64775Y-32700D01*
X64775Y-32700D01*
G37*
G54D31*
X64775Y-32700D02*
X63750Y-32700D01*
X61500Y-32700D01*
X59250Y-32700D01*
X57000Y-32700D01*
X54750Y-32700D01*
X53500Y-32700D01*
X53385Y-32722D01*
X53287Y-32787D01*
X53132Y-32943D01*
X53112Y-32935D01*
X52888Y-32934D01*
X52680Y-33020D01*
X52521Y-33179D01*
X52519Y-33183D01*
X52519Y-31566D01*
X52520Y-31569D01*
X52679Y-31728D01*
X52887Y-31814D01*
X53111Y-31815D01*
X53319Y-31729D01*
X53478Y-31570D01*
X53499Y-31519D01*
X53520Y-31569D01*
X53679Y-31728D01*
X53887Y-31814D01*
X54111Y-31815D01*
X54319Y-31729D01*
X54478Y-31570D01*
X54515Y-31480D01*
X54585Y-31527D01*
X54700Y-31550D01*
X54762Y-31550D01*
X54770Y-31569D01*
X54929Y-31728D01*
X55137Y-31814D01*
X55361Y-31815D01*
X55569Y-31729D01*
X55728Y-31570D01*
X55749Y-31519D01*
X55770Y-31569D01*
X55929Y-31728D01*
X56137Y-31814D01*
X56361Y-31815D01*
X56569Y-31729D01*
X56728Y-31570D01*
X56814Y-31362D01*
X56815Y-31138D01*
X56778Y-31050D01*
X56875Y-31050D01*
X56943Y-31117D01*
X56935Y-31137D01*
X56934Y-31361D01*
X57020Y-31569D01*
X57179Y-31728D01*
X57387Y-31814D01*
X57611Y-31815D01*
X57819Y-31729D01*
X57978Y-31570D01*
X57999Y-31519D01*
X58020Y-31569D01*
X58179Y-31728D01*
X58387Y-31814D01*
X58611Y-31815D01*
X58632Y-31806D01*
X58787Y-31962D01*
X58787Y-31962D01*
X58885Y-32027D01*
X59000Y-32050D01*
X60625Y-32050D01*
X60787Y-32212D01*
X60846Y-32251D01*
X60885Y-32277D01*
X60885Y-32277D01*
X61000Y-32300D01*
X62625Y-32300D01*
X62787Y-32462D01*
X62846Y-32501D01*
X62885Y-32527D01*
X62885Y-32527D01*
X63000Y-32550D01*
X64625Y-32550D01*
X64775Y-32700D01*
G54D10*
G36*
X65388Y-39475D02*
X65127Y-39475D01*
X65127Y-39308D01*
X65089Y-39216D01*
X65019Y-39146D01*
X64927Y-39108D01*
X64828Y-39108D01*
X64572Y-39108D01*
X64480Y-39146D01*
X64410Y-39216D01*
X64372Y-39308D01*
X64372Y-39407D01*
X64372Y-39750D01*
X63900Y-39750D01*
X63887Y-39752D01*
X63887Y-39588D01*
X63851Y-39500D01*
X63887Y-39411D01*
X63887Y-39312D01*
X63887Y-39036D01*
X63849Y-38945D01*
X63779Y-38874D01*
X63687Y-38836D01*
X63588Y-38836D01*
X63536Y-38836D01*
X63300Y-38600D01*
X63300Y-38487D01*
X63319Y-38479D01*
X63478Y-38320D01*
X63564Y-38112D01*
X63565Y-37888D01*
X63528Y-37800D01*
X63625Y-37800D01*
X63693Y-37867D01*
X63685Y-37887D01*
X63684Y-38111D01*
X63770Y-38319D01*
X63929Y-38478D01*
X64137Y-38564D01*
X64361Y-38565D01*
X64569Y-38479D01*
X64728Y-38320D01*
X64749Y-38269D01*
X64770Y-38319D01*
X64929Y-38478D01*
X64950Y-38487D01*
X64950Y-38724D01*
X64972Y-38839D01*
X65037Y-38936D01*
X65362Y-39260D01*
X65362Y-39411D01*
X65388Y-39475D01*
X65388Y-39475D01*
G37*
G54D31*
X65388Y-39475D02*
X65127Y-39475D01*
X65127Y-39308D01*
X65089Y-39216D01*
X65019Y-39146D01*
X64927Y-39108D01*
X64828Y-39108D01*
X64572Y-39108D01*
X64480Y-39146D01*
X64410Y-39216D01*
X64372Y-39308D01*
X64372Y-39407D01*
X64372Y-39750D01*
X63900Y-39750D01*
X63887Y-39752D01*
X63887Y-39588D01*
X63851Y-39500D01*
X63887Y-39411D01*
X63887Y-39312D01*
X63887Y-39036D01*
X63849Y-38945D01*
X63779Y-38874D01*
X63687Y-38836D01*
X63588Y-38836D01*
X63536Y-38836D01*
X63300Y-38600D01*
X63300Y-38487D01*
X63319Y-38479D01*
X63478Y-38320D01*
X63564Y-38112D01*
X63565Y-37888D01*
X63528Y-37800D01*
X63625Y-37800D01*
X63693Y-37867D01*
X63685Y-37887D01*
X63684Y-38111D01*
X63770Y-38319D01*
X63929Y-38478D01*
X64137Y-38564D01*
X64361Y-38565D01*
X64569Y-38479D01*
X64728Y-38320D01*
X64749Y-38269D01*
X64770Y-38319D01*
X64929Y-38478D01*
X64950Y-38487D01*
X64950Y-38724D01*
X64972Y-38839D01*
X65037Y-38936D01*
X65362Y-39260D01*
X65362Y-39411D01*
X65388Y-39475D01*
G54D10*
G36*
X66668Y-42350D02*
X66620Y-42397D01*
X66582Y-42489D01*
X66582Y-42589D01*
X66582Y-42707D01*
X66590Y-42726D01*
X66582Y-42745D01*
X66582Y-42810D01*
X65884Y-42810D01*
X65562Y-42487D01*
X65464Y-42422D01*
X65350Y-42400D01*
X64450Y-42400D01*
X64335Y-42422D01*
X64296Y-42448D01*
X64237Y-42487D01*
X64075Y-42650D01*
X63550Y-42650D01*
X63435Y-42672D01*
X63337Y-42737D01*
X63162Y-42913D01*
X63120Y-42895D01*
X62880Y-42895D01*
X62800Y-42928D01*
X62800Y-42700D01*
X61492Y-42700D01*
X60516Y-42979D01*
X60516Y-42254D01*
X60516Y-42154D01*
X60516Y-41962D01*
X60453Y-41900D01*
X60001Y-41900D01*
X60001Y-42391D01*
X60063Y-42454D01*
X60315Y-42454D01*
X60407Y-42416D01*
X60478Y-42345D01*
X60516Y-42254D01*
X60516Y-42979D01*
X59742Y-43200D01*
X59641Y-43200D01*
X59641Y-43142D01*
X59579Y-43079D01*
X59205Y-43079D01*
X59205Y-43087D01*
X59105Y-43087D01*
X59105Y-43079D01*
X59097Y-43079D01*
X59097Y-42979D01*
X59105Y-42979D01*
X59105Y-42971D01*
X59205Y-42971D01*
X59205Y-42979D01*
X59579Y-42979D01*
X59641Y-42917D01*
X59641Y-42546D01*
X59603Y-42454D01*
X59603Y-42454D01*
X59838Y-42454D01*
X59901Y-42391D01*
X59901Y-41900D01*
X59893Y-41900D01*
X59893Y-41800D01*
X59901Y-41800D01*
X59901Y-41792D01*
X60001Y-41792D01*
X60001Y-41800D01*
X60453Y-41800D01*
X60516Y-41737D01*
X60516Y-41545D01*
X60516Y-41445D01*
X60478Y-41354D01*
X60474Y-41350D01*
X61250Y-41350D01*
X61249Y-41449D01*
X61223Y-41460D01*
X61111Y-41573D01*
X61050Y-41720D01*
X61049Y-41879D01*
X61110Y-42026D01*
X61223Y-42138D01*
X61370Y-42199D01*
X61529Y-42200D01*
X61676Y-42139D01*
X61715Y-42100D01*
X62000Y-42100D01*
X62050Y-42100D01*
X63675Y-42100D01*
X63837Y-42262D01*
X63896Y-42301D01*
X63935Y-42327D01*
X63935Y-42327D01*
X64050Y-42350D01*
X65599Y-42350D01*
X65610Y-42376D01*
X65723Y-42488D01*
X65870Y-42549D01*
X66029Y-42550D01*
X66176Y-42489D01*
X66288Y-42376D01*
X66300Y-42350D01*
X66668Y-42350D01*
X66668Y-42350D01*
G37*
G54D31*
X66668Y-42350D02*
X66620Y-42397D01*
X66582Y-42489D01*
X66582Y-42589D01*
X66582Y-42707D01*
X66590Y-42726D01*
X66582Y-42745D01*
X66582Y-42810D01*
X65884Y-42810D01*
X65562Y-42487D01*
X65464Y-42422D01*
X65350Y-42400D01*
X64450Y-42400D01*
X64335Y-42422D01*
X64296Y-42448D01*
X64237Y-42487D01*
X64075Y-42650D01*
X63550Y-42650D01*
X63435Y-42672D01*
X63337Y-42737D01*
X63162Y-42913D01*
X63120Y-42895D01*
X62880Y-42895D01*
X62800Y-42928D01*
X62800Y-42700D01*
X61492Y-42700D01*
X60516Y-42979D01*
X60516Y-42254D01*
X60516Y-42154D01*
X60516Y-41962D01*
X60453Y-41900D01*
X60001Y-41900D01*
X60001Y-42391D01*
X60063Y-42454D01*
X60315Y-42454D01*
X60407Y-42416D01*
X60478Y-42345D01*
X60516Y-42254D01*
X60516Y-42979D01*
X59742Y-43200D01*
X59641Y-43200D01*
X59641Y-43142D01*
X59579Y-43079D01*
X59205Y-43079D01*
X59205Y-43087D01*
X59105Y-43087D01*
X59105Y-43079D01*
X59097Y-43079D01*
X59097Y-42979D01*
X59105Y-42979D01*
X59105Y-42971D01*
X59205Y-42971D01*
X59205Y-42979D01*
X59579Y-42979D01*
X59641Y-42917D01*
X59641Y-42546D01*
X59603Y-42454D01*
X59603Y-42454D01*
X59838Y-42454D01*
X59901Y-42391D01*
X59901Y-41900D01*
X59893Y-41900D01*
X59893Y-41800D01*
X59901Y-41800D01*
X59901Y-41792D01*
X60001Y-41792D01*
X60001Y-41800D01*
X60453Y-41800D01*
X60516Y-41737D01*
X60516Y-41545D01*
X60516Y-41445D01*
X60478Y-41354D01*
X60474Y-41350D01*
X61250Y-41350D01*
X61249Y-41449D01*
X61223Y-41460D01*
X61111Y-41573D01*
X61050Y-41720D01*
X61049Y-41879D01*
X61110Y-42026D01*
X61223Y-42138D01*
X61370Y-42199D01*
X61529Y-42200D01*
X61676Y-42139D01*
X61715Y-42100D01*
X62000Y-42100D01*
X62050Y-42100D01*
X63675Y-42100D01*
X63837Y-42262D01*
X63896Y-42301D01*
X63935Y-42327D01*
X63935Y-42327D01*
X64050Y-42350D01*
X65599Y-42350D01*
X65610Y-42376D01*
X65723Y-42488D01*
X65870Y-42549D01*
X66029Y-42550D01*
X66176Y-42489D01*
X66288Y-42376D01*
X66300Y-42350D01*
X66668Y-42350D01*
G54D10*
G36*
X67638Y-39475D02*
X67377Y-39475D01*
X67377Y-39308D01*
X67339Y-39216D01*
X67269Y-39146D01*
X67177Y-39108D01*
X67078Y-39108D01*
X66822Y-39108D01*
X66730Y-39146D01*
X66660Y-39216D01*
X66622Y-39308D01*
X66622Y-39407D01*
X66622Y-39750D01*
X66150Y-39750D01*
X66137Y-39752D01*
X66137Y-39588D01*
X66101Y-39500D01*
X66137Y-39411D01*
X66137Y-39312D01*
X66137Y-39036D01*
X66099Y-38945D01*
X66029Y-38874D01*
X65937Y-38836D01*
X65838Y-38836D01*
X65786Y-38836D01*
X65550Y-38600D01*
X65550Y-38487D01*
X65569Y-38479D01*
X65728Y-38320D01*
X65814Y-38112D01*
X65815Y-37888D01*
X65778Y-37800D01*
X65875Y-37800D01*
X65943Y-37867D01*
X65935Y-37887D01*
X65934Y-38111D01*
X66020Y-38319D01*
X66179Y-38478D01*
X66387Y-38564D01*
X66611Y-38565D01*
X66819Y-38479D01*
X66978Y-38320D01*
X66999Y-38269D01*
X67020Y-38319D01*
X67179Y-38478D01*
X67200Y-38487D01*
X67200Y-38724D01*
X67222Y-38839D01*
X67287Y-38936D01*
X67612Y-39260D01*
X67612Y-39411D01*
X67638Y-39475D01*
X67638Y-39475D01*
G37*
G54D31*
X67638Y-39475D02*
X67377Y-39475D01*
X67377Y-39308D01*
X67339Y-39216D01*
X67269Y-39146D01*
X67177Y-39108D01*
X67078Y-39108D01*
X66822Y-39108D01*
X66730Y-39146D01*
X66660Y-39216D01*
X66622Y-39308D01*
X66622Y-39407D01*
X66622Y-39750D01*
X66150Y-39750D01*
X66137Y-39752D01*
X66137Y-39588D01*
X66101Y-39500D01*
X66137Y-39411D01*
X66137Y-39312D01*
X66137Y-39036D01*
X66099Y-38945D01*
X66029Y-38874D01*
X65937Y-38836D01*
X65838Y-38836D01*
X65786Y-38836D01*
X65550Y-38600D01*
X65550Y-38487D01*
X65569Y-38479D01*
X65728Y-38320D01*
X65814Y-38112D01*
X65815Y-37888D01*
X65778Y-37800D01*
X65875Y-37800D01*
X65943Y-37867D01*
X65935Y-37887D01*
X65934Y-38111D01*
X66020Y-38319D01*
X66179Y-38478D01*
X66387Y-38564D01*
X66611Y-38565D01*
X66819Y-38479D01*
X66978Y-38320D01*
X66999Y-38269D01*
X67020Y-38319D01*
X67179Y-38478D01*
X67200Y-38487D01*
X67200Y-38724D01*
X67222Y-38839D01*
X67287Y-38936D01*
X67612Y-39260D01*
X67612Y-39411D01*
X67638Y-39475D01*
G54D10*
G36*
X69450Y-45362D02*
X69363Y-45362D01*
X69088Y-45362D01*
X69000Y-45398D01*
X68911Y-45362D01*
X68836Y-45362D01*
X68774Y-45424D01*
X68774Y-45700D01*
X68782Y-45700D01*
X68782Y-45800D01*
X68774Y-45800D01*
X68774Y-45807D01*
X68674Y-45807D01*
X68674Y-45800D01*
X68674Y-45700D01*
X68674Y-45424D01*
X68611Y-45362D01*
X68536Y-45362D01*
X68445Y-45400D01*
X68374Y-45470D01*
X68336Y-45562D01*
X68336Y-45637D01*
X68399Y-45700D01*
X68674Y-45700D01*
X68674Y-45800D01*
X68399Y-45800D01*
X68336Y-45862D01*
X68336Y-45937D01*
X68354Y-45980D01*
X68145Y-45980D01*
X68163Y-45937D01*
X68163Y-45862D01*
X68163Y-45637D01*
X68163Y-45562D01*
X68125Y-45470D01*
X68054Y-45400D01*
X67963Y-45362D01*
X67888Y-45362D01*
X67825Y-45424D01*
X67825Y-45700D01*
X68100Y-45700D01*
X68163Y-45637D01*
X68163Y-45862D01*
X68100Y-45800D01*
X67825Y-45800D01*
X67825Y-45807D01*
X67725Y-45807D01*
X67725Y-45800D01*
X67717Y-45800D01*
X67717Y-45700D01*
X67725Y-45700D01*
X67725Y-45424D01*
X67663Y-45362D01*
X67588Y-45362D01*
X67500Y-45398D01*
X67411Y-45362D01*
X67312Y-45362D01*
X67036Y-45362D01*
X67001Y-45376D01*
X66951Y-45327D01*
X66951Y-45210D01*
X67408Y-45210D01*
X67439Y-45241D01*
X67530Y-45279D01*
X68137Y-45279D01*
X68200Y-45217D01*
X68200Y-43800D01*
X68192Y-43800D01*
X68192Y-43700D01*
X68200Y-43700D01*
X68200Y-43692D01*
X68300Y-43692D01*
X68300Y-43700D01*
X68307Y-43700D01*
X68307Y-43800D01*
X68300Y-43800D01*
X68300Y-45217D01*
X68362Y-45279D01*
X68969Y-45279D01*
X69060Y-45241D01*
X69091Y-45210D01*
X69450Y-45210D01*
X69450Y-45362D01*
X69450Y-45362D01*
G37*
G54D31*
X69450Y-45362D02*
X69363Y-45362D01*
X69088Y-45362D01*
X69000Y-45398D01*
X68911Y-45362D01*
X68836Y-45362D01*
X68774Y-45424D01*
X68774Y-45700D01*
X68782Y-45700D01*
X68782Y-45800D01*
X68774Y-45800D01*
X68774Y-45807D01*
X68674Y-45807D01*
X68674Y-45800D01*
X68674Y-45700D01*
X68674Y-45424D01*
X68611Y-45362D01*
X68536Y-45362D01*
X68445Y-45400D01*
X68374Y-45470D01*
X68336Y-45562D01*
X68336Y-45637D01*
X68399Y-45700D01*
X68674Y-45700D01*
X68674Y-45800D01*
X68399Y-45800D01*
X68336Y-45862D01*
X68336Y-45937D01*
X68354Y-45980D01*
X68145Y-45980D01*
X68163Y-45937D01*
X68163Y-45862D01*
X68163Y-45637D01*
X68163Y-45562D01*
X68125Y-45470D01*
X68054Y-45400D01*
X67963Y-45362D01*
X67888Y-45362D01*
X67825Y-45424D01*
X67825Y-45700D01*
X68100Y-45700D01*
X68163Y-45637D01*
X68163Y-45862D01*
X68100Y-45800D01*
X67825Y-45800D01*
X67825Y-45807D01*
X67725Y-45807D01*
X67725Y-45800D01*
X67717Y-45800D01*
X67717Y-45700D01*
X67725Y-45700D01*
X67725Y-45424D01*
X67663Y-45362D01*
X67588Y-45362D01*
X67500Y-45398D01*
X67411Y-45362D01*
X67312Y-45362D01*
X67036Y-45362D01*
X67001Y-45376D01*
X66951Y-45327D01*
X66951Y-45210D01*
X67408Y-45210D01*
X67439Y-45241D01*
X67530Y-45279D01*
X68137Y-45279D01*
X68200Y-45217D01*
X68200Y-43800D01*
X68192Y-43800D01*
X68192Y-43700D01*
X68200Y-43700D01*
X68200Y-43692D01*
X68300Y-43692D01*
X68300Y-43700D01*
X68307Y-43700D01*
X68307Y-43800D01*
X68300Y-43800D01*
X68300Y-45217D01*
X68362Y-45279D01*
X68969Y-45279D01*
X69060Y-45241D01*
X69091Y-45210D01*
X69450Y-45210D01*
X69450Y-45362D01*
G54D10*
G36*
X69888Y-39475D02*
X69627Y-39475D01*
X69627Y-39308D01*
X69589Y-39216D01*
X69519Y-39146D01*
X69427Y-39108D01*
X69328Y-39108D01*
X69072Y-39108D01*
X68980Y-39146D01*
X68910Y-39216D01*
X68872Y-39308D01*
X68872Y-39407D01*
X68872Y-39750D01*
X68450Y-39750D01*
X68387Y-39762D01*
X68387Y-39588D01*
X68351Y-39500D01*
X68387Y-39411D01*
X68387Y-39312D01*
X68387Y-39036D01*
X68349Y-38945D01*
X68279Y-38874D01*
X68187Y-38836D01*
X68088Y-38836D01*
X68036Y-38836D01*
X67800Y-38600D01*
X67800Y-38487D01*
X67819Y-38479D01*
X67978Y-38320D01*
X68064Y-38112D01*
X68065Y-37888D01*
X68028Y-37800D01*
X68125Y-37800D01*
X68193Y-37867D01*
X68185Y-37887D01*
X68184Y-38111D01*
X68270Y-38319D01*
X68429Y-38478D01*
X68637Y-38564D01*
X68861Y-38565D01*
X69069Y-38479D01*
X69228Y-38320D01*
X69249Y-38269D01*
X69270Y-38319D01*
X69429Y-38478D01*
X69450Y-38487D01*
X69450Y-38724D01*
X69472Y-38839D01*
X69537Y-38936D01*
X69862Y-39260D01*
X69862Y-39411D01*
X69888Y-39475D01*
X69888Y-39475D01*
G37*
G54D31*
X69888Y-39475D02*
X69627Y-39475D01*
X69627Y-39308D01*
X69589Y-39216D01*
X69519Y-39146D01*
X69427Y-39108D01*
X69328Y-39108D01*
X69072Y-39108D01*
X68980Y-39146D01*
X68910Y-39216D01*
X68872Y-39308D01*
X68872Y-39407D01*
X68872Y-39750D01*
X68450Y-39750D01*
X68387Y-39762D01*
X68387Y-39588D01*
X68351Y-39500D01*
X68387Y-39411D01*
X68387Y-39312D01*
X68387Y-39036D01*
X68349Y-38945D01*
X68279Y-38874D01*
X68187Y-38836D01*
X68088Y-38836D01*
X68036Y-38836D01*
X67800Y-38600D01*
X67800Y-38487D01*
X67819Y-38479D01*
X67978Y-38320D01*
X68064Y-38112D01*
X68065Y-37888D01*
X68028Y-37800D01*
X68125Y-37800D01*
X68193Y-37867D01*
X68185Y-37887D01*
X68184Y-38111D01*
X68270Y-38319D01*
X68429Y-38478D01*
X68637Y-38564D01*
X68861Y-38565D01*
X69069Y-38479D01*
X69228Y-38320D01*
X69249Y-38269D01*
X69270Y-38319D01*
X69429Y-38478D01*
X69450Y-38487D01*
X69450Y-38724D01*
X69472Y-38839D01*
X69537Y-38936D01*
X69862Y-39260D01*
X69862Y-39411D01*
X69888Y-39475D01*
G54D10*
G36*
X72138Y-39475D02*
X71877Y-39475D01*
X71877Y-39308D01*
X71839Y-39216D01*
X71769Y-39146D01*
X71677Y-39108D01*
X71578Y-39108D01*
X71322Y-39108D01*
X71230Y-39146D01*
X71160Y-39216D01*
X71122Y-39308D01*
X71122Y-39407D01*
X71122Y-39750D01*
X70700Y-39750D01*
X70637Y-39762D01*
X70637Y-39588D01*
X70601Y-39500D01*
X70637Y-39411D01*
X70637Y-39312D01*
X70637Y-39036D01*
X70599Y-38945D01*
X70529Y-38874D01*
X70437Y-38836D01*
X70338Y-38836D01*
X70286Y-38836D01*
X70050Y-38600D01*
X70050Y-38487D01*
X70069Y-38479D01*
X70228Y-38320D01*
X70314Y-38112D01*
X70315Y-37888D01*
X70278Y-37800D01*
X70375Y-37800D01*
X70443Y-37867D01*
X70435Y-37887D01*
X70434Y-38111D01*
X70520Y-38319D01*
X70679Y-38478D01*
X70887Y-38564D01*
X71111Y-38565D01*
X71319Y-38479D01*
X71478Y-38320D01*
X71499Y-38269D01*
X71520Y-38319D01*
X71679Y-38478D01*
X71700Y-38487D01*
X71700Y-38724D01*
X71722Y-38839D01*
X71787Y-38936D01*
X72112Y-39260D01*
X72112Y-39411D01*
X72138Y-39475D01*
X72138Y-39475D01*
G37*
G54D31*
X72138Y-39475D02*
X71877Y-39475D01*
X71877Y-39308D01*
X71839Y-39216D01*
X71769Y-39146D01*
X71677Y-39108D01*
X71578Y-39108D01*
X71322Y-39108D01*
X71230Y-39146D01*
X71160Y-39216D01*
X71122Y-39308D01*
X71122Y-39407D01*
X71122Y-39750D01*
X70700Y-39750D01*
X70637Y-39762D01*
X70637Y-39588D01*
X70601Y-39500D01*
X70637Y-39411D01*
X70637Y-39312D01*
X70637Y-39036D01*
X70599Y-38945D01*
X70529Y-38874D01*
X70437Y-38836D01*
X70338Y-38836D01*
X70286Y-38836D01*
X70050Y-38600D01*
X70050Y-38487D01*
X70069Y-38479D01*
X70228Y-38320D01*
X70314Y-38112D01*
X70315Y-37888D01*
X70278Y-37800D01*
X70375Y-37800D01*
X70443Y-37867D01*
X70435Y-37887D01*
X70434Y-38111D01*
X70520Y-38319D01*
X70679Y-38478D01*
X70887Y-38564D01*
X71111Y-38565D01*
X71319Y-38479D01*
X71478Y-38320D01*
X71499Y-38269D01*
X71520Y-38319D01*
X71679Y-38478D01*
X71700Y-38487D01*
X71700Y-38724D01*
X71722Y-38839D01*
X71787Y-38936D01*
X72112Y-39260D01*
X72112Y-39411D01*
X72138Y-39475D01*
G54D10*
G36*
X74388Y-39475D02*
X74127Y-39475D01*
X74127Y-39308D01*
X74089Y-39216D01*
X74019Y-39146D01*
X73927Y-39108D01*
X73828Y-39108D01*
X73572Y-39108D01*
X73480Y-39146D01*
X73410Y-39216D01*
X73372Y-39308D01*
X73372Y-39407D01*
X73372Y-39750D01*
X73000Y-39750D01*
X72887Y-39772D01*
X72887Y-39588D01*
X72851Y-39500D01*
X72887Y-39411D01*
X72887Y-39312D01*
X72887Y-39036D01*
X72849Y-38945D01*
X72779Y-38874D01*
X72687Y-38836D01*
X72588Y-38836D01*
X72536Y-38836D01*
X72300Y-38600D01*
X72300Y-38487D01*
X72319Y-38479D01*
X72478Y-38320D01*
X72564Y-38112D01*
X72565Y-37888D01*
X72528Y-37800D01*
X72625Y-37800D01*
X72693Y-37867D01*
X72685Y-37887D01*
X72684Y-38111D01*
X72770Y-38319D01*
X72929Y-38478D01*
X73137Y-38564D01*
X73361Y-38565D01*
X73569Y-38479D01*
X73728Y-38320D01*
X73749Y-38269D01*
X73770Y-38319D01*
X73929Y-38478D01*
X73950Y-38487D01*
X73950Y-38724D01*
X73972Y-38839D01*
X74037Y-38936D01*
X74362Y-39260D01*
X74362Y-39411D01*
X74388Y-39475D01*
X74388Y-39475D01*
G37*
G54D31*
X74388Y-39475D02*
X74127Y-39475D01*
X74127Y-39308D01*
X74089Y-39216D01*
X74019Y-39146D01*
X73927Y-39108D01*
X73828Y-39108D01*
X73572Y-39108D01*
X73480Y-39146D01*
X73410Y-39216D01*
X73372Y-39308D01*
X73372Y-39407D01*
X73372Y-39750D01*
X73000Y-39750D01*
X72887Y-39772D01*
X72887Y-39588D01*
X72851Y-39500D01*
X72887Y-39411D01*
X72887Y-39312D01*
X72887Y-39036D01*
X72849Y-38945D01*
X72779Y-38874D01*
X72687Y-38836D01*
X72588Y-38836D01*
X72536Y-38836D01*
X72300Y-38600D01*
X72300Y-38487D01*
X72319Y-38479D01*
X72478Y-38320D01*
X72564Y-38112D01*
X72565Y-37888D01*
X72528Y-37800D01*
X72625Y-37800D01*
X72693Y-37867D01*
X72685Y-37887D01*
X72684Y-38111D01*
X72770Y-38319D01*
X72929Y-38478D01*
X73137Y-38564D01*
X73361Y-38565D01*
X73569Y-38479D01*
X73728Y-38320D01*
X73749Y-38269D01*
X73770Y-38319D01*
X73929Y-38478D01*
X73950Y-38487D01*
X73950Y-38724D01*
X73972Y-38839D01*
X74037Y-38936D01*
X74362Y-39260D01*
X74362Y-39411D01*
X74388Y-39475D01*
G54D10*
G36*
X76200Y-37512D02*
X76180Y-37520D01*
X76021Y-37679D01*
X76000Y-37730D01*
X75979Y-37680D01*
X75820Y-37521D01*
X75612Y-37435D01*
X75388Y-37434D01*
X75367Y-37443D01*
X75212Y-37287D01*
X75114Y-37222D01*
X75000Y-37200D01*
X72750Y-37200D01*
X70500Y-37200D01*
X68250Y-37200D01*
X66000Y-37200D01*
X63750Y-37200D01*
X61500Y-37200D01*
X59250Y-37200D01*
X57000Y-37200D01*
X54750Y-37200D01*
X53500Y-37200D01*
X53385Y-37222D01*
X53287Y-37287D01*
X53132Y-37443D01*
X53112Y-37435D01*
X52888Y-37434D01*
X52680Y-37520D01*
X52521Y-37679D01*
X52519Y-37683D01*
X52519Y-36066D01*
X52520Y-36069D01*
X52679Y-36228D01*
X52887Y-36314D01*
X53111Y-36315D01*
X53319Y-36229D01*
X53478Y-36070D01*
X53499Y-36019D01*
X53520Y-36069D01*
X53679Y-36228D01*
X53887Y-36314D01*
X54111Y-36315D01*
X54319Y-36229D01*
X54478Y-36070D01*
X54564Y-35862D01*
X54565Y-35638D01*
X54528Y-35550D01*
X54625Y-35550D01*
X54693Y-35617D01*
X54685Y-35637D01*
X54684Y-35861D01*
X54770Y-36069D01*
X54929Y-36228D01*
X55137Y-36314D01*
X55361Y-36315D01*
X55569Y-36229D01*
X55728Y-36070D01*
X55749Y-36019D01*
X55770Y-36069D01*
X55929Y-36228D01*
X56137Y-36314D01*
X56361Y-36315D01*
X56569Y-36229D01*
X56728Y-36070D01*
X56814Y-35862D01*
X56815Y-35638D01*
X56778Y-35550D01*
X56875Y-35550D01*
X56943Y-35617D01*
X56935Y-35637D01*
X56934Y-35861D01*
X57020Y-36069D01*
X57179Y-36228D01*
X57387Y-36314D01*
X57611Y-36315D01*
X57819Y-36229D01*
X57978Y-36070D01*
X57999Y-36019D01*
X58020Y-36069D01*
X58179Y-36228D01*
X58387Y-36314D01*
X58611Y-36315D01*
X58819Y-36229D01*
X58978Y-36070D01*
X59064Y-35862D01*
X59065Y-35638D01*
X59028Y-35550D01*
X59125Y-35550D01*
X59193Y-35617D01*
X59185Y-35637D01*
X59184Y-35861D01*
X59270Y-36069D01*
X59429Y-36228D01*
X59637Y-36314D01*
X59861Y-36315D01*
X60069Y-36229D01*
X60228Y-36070D01*
X60249Y-36019D01*
X60270Y-36069D01*
X60429Y-36228D01*
X60637Y-36314D01*
X60861Y-36315D01*
X61069Y-36229D01*
X61228Y-36070D01*
X61314Y-35862D01*
X61315Y-35638D01*
X61278Y-35550D01*
X61375Y-35550D01*
X61443Y-35617D01*
X61435Y-35637D01*
X61434Y-35861D01*
X61520Y-36069D01*
X61679Y-36228D01*
X61887Y-36314D01*
X62111Y-36315D01*
X62319Y-36229D01*
X62478Y-36070D01*
X62499Y-36019D01*
X62520Y-36069D01*
X62679Y-36228D01*
X62887Y-36314D01*
X63111Y-36315D01*
X63319Y-36229D01*
X63478Y-36070D01*
X63564Y-35862D01*
X63565Y-35638D01*
X63528Y-35550D01*
X63625Y-35550D01*
X63693Y-35617D01*
X63685Y-35637D01*
X63684Y-35861D01*
X63770Y-36069D01*
X63929Y-36228D01*
X64137Y-36314D01*
X64361Y-36315D01*
X64569Y-36229D01*
X64728Y-36070D01*
X64749Y-36019D01*
X64770Y-36069D01*
X64929Y-36228D01*
X65137Y-36314D01*
X65361Y-36315D01*
X65569Y-36229D01*
X65728Y-36070D01*
X65814Y-35862D01*
X65815Y-35638D01*
X65778Y-35550D01*
X65875Y-35550D01*
X65943Y-35617D01*
X65935Y-35637D01*
X65934Y-35861D01*
X66020Y-36069D01*
X66179Y-36228D01*
X66387Y-36314D01*
X66611Y-36315D01*
X66819Y-36229D01*
X66978Y-36070D01*
X66999Y-36019D01*
X67020Y-36069D01*
X67179Y-36228D01*
X67387Y-36314D01*
X67611Y-36315D01*
X67819Y-36229D01*
X67978Y-36070D01*
X68064Y-35862D01*
X68065Y-35638D01*
X68028Y-35550D01*
X68125Y-35550D01*
X68193Y-35617D01*
X68185Y-35637D01*
X68184Y-35861D01*
X68270Y-36069D01*
X68429Y-36228D01*
X68637Y-36314D01*
X68861Y-36315D01*
X69069Y-36229D01*
X69228Y-36070D01*
X69249Y-36019D01*
X69270Y-36069D01*
X69429Y-36228D01*
X69637Y-36314D01*
X69861Y-36315D01*
X70069Y-36229D01*
X70228Y-36070D01*
X70314Y-35862D01*
X70315Y-35638D01*
X70278Y-35550D01*
X70375Y-35550D01*
X70443Y-35617D01*
X70435Y-35637D01*
X70434Y-35861D01*
X70520Y-36069D01*
X70679Y-36228D01*
X70887Y-36314D01*
X71111Y-36315D01*
X71319Y-36229D01*
X71478Y-36070D01*
X71499Y-36019D01*
X71520Y-36069D01*
X71679Y-36228D01*
X71887Y-36314D01*
X72111Y-36315D01*
X72319Y-36229D01*
X72478Y-36070D01*
X72564Y-35862D01*
X72565Y-35638D01*
X72528Y-35550D01*
X72625Y-35550D01*
X72693Y-35617D01*
X72685Y-35637D01*
X72684Y-35861D01*
X72770Y-36069D01*
X72929Y-36228D01*
X73137Y-36314D01*
X73361Y-36315D01*
X73569Y-36229D01*
X73728Y-36070D01*
X73749Y-36019D01*
X73770Y-36069D01*
X73929Y-36228D01*
X74137Y-36314D01*
X74361Y-36315D01*
X74569Y-36229D01*
X74728Y-36070D01*
X74814Y-35862D01*
X74815Y-35638D01*
X74778Y-35550D01*
X74875Y-35550D01*
X74943Y-35617D01*
X74935Y-35637D01*
X74934Y-35861D01*
X75016Y-36059D01*
X74975Y-36099D01*
X74920Y-36099D01*
X74773Y-36160D01*
X74661Y-36273D01*
X74600Y-36420D01*
X74599Y-36579D01*
X74660Y-36726D01*
X74773Y-36838D01*
X74920Y-36899D01*
X75079Y-36900D01*
X75226Y-36839D01*
X75338Y-36726D01*
X75399Y-36579D01*
X75399Y-36524D01*
X75609Y-36315D01*
X75611Y-36315D01*
X75819Y-36229D01*
X75978Y-36070D01*
X75999Y-36019D01*
X76020Y-36069D01*
X76179Y-36228D01*
X76200Y-36237D01*
X76200Y-37512D01*
X76200Y-37512D01*
G37*
G54D31*
X76200Y-37512D02*
X76180Y-37520D01*
X76021Y-37679D01*
X76000Y-37730D01*
X75979Y-37680D01*
X75820Y-37521D01*
X75612Y-37435D01*
X75388Y-37434D01*
X75367Y-37443D01*
X75212Y-37287D01*
X75114Y-37222D01*
X75000Y-37200D01*
X72750Y-37200D01*
X70500Y-37200D01*
X68250Y-37200D01*
X66000Y-37200D01*
X63750Y-37200D01*
X61500Y-37200D01*
X59250Y-37200D01*
X57000Y-37200D01*
X54750Y-37200D01*
X53500Y-37200D01*
X53385Y-37222D01*
X53287Y-37287D01*
X53132Y-37443D01*
X53112Y-37435D01*
X52888Y-37434D01*
X52680Y-37520D01*
X52521Y-37679D01*
X52519Y-37683D01*
X52519Y-36066D01*
X52520Y-36069D01*
X52679Y-36228D01*
X52887Y-36314D01*
X53111Y-36315D01*
X53319Y-36229D01*
X53478Y-36070D01*
X53499Y-36019D01*
X53520Y-36069D01*
X53679Y-36228D01*
X53887Y-36314D01*
X54111Y-36315D01*
X54319Y-36229D01*
X54478Y-36070D01*
X54564Y-35862D01*
X54565Y-35638D01*
X54528Y-35550D01*
X54625Y-35550D01*
X54693Y-35617D01*
X54685Y-35637D01*
X54684Y-35861D01*
X54770Y-36069D01*
X54929Y-36228D01*
X55137Y-36314D01*
X55361Y-36315D01*
X55569Y-36229D01*
X55728Y-36070D01*
X55749Y-36019D01*
X55770Y-36069D01*
X55929Y-36228D01*
X56137Y-36314D01*
X56361Y-36315D01*
X56569Y-36229D01*
X56728Y-36070D01*
X56814Y-35862D01*
X56815Y-35638D01*
X56778Y-35550D01*
X56875Y-35550D01*
X56943Y-35617D01*
X56935Y-35637D01*
X56934Y-35861D01*
X57020Y-36069D01*
X57179Y-36228D01*
X57387Y-36314D01*
X57611Y-36315D01*
X57819Y-36229D01*
X57978Y-36070D01*
X57999Y-36019D01*
X58020Y-36069D01*
X58179Y-36228D01*
X58387Y-36314D01*
X58611Y-36315D01*
X58819Y-36229D01*
X58978Y-36070D01*
X59064Y-35862D01*
X59065Y-35638D01*
X59028Y-35550D01*
X59125Y-35550D01*
X59193Y-35617D01*
X59185Y-35637D01*
X59184Y-35861D01*
X59270Y-36069D01*
X59429Y-36228D01*
X59637Y-36314D01*
X59861Y-36315D01*
X60069Y-36229D01*
X60228Y-36070D01*
X60249Y-36019D01*
X60270Y-36069D01*
X60429Y-36228D01*
X60637Y-36314D01*
X60861Y-36315D01*
X61069Y-36229D01*
X61228Y-36070D01*
X61314Y-35862D01*
X61315Y-35638D01*
X61278Y-35550D01*
X61375Y-35550D01*
X61443Y-35617D01*
X61435Y-35637D01*
X61434Y-35861D01*
X61520Y-36069D01*
X61679Y-36228D01*
X61887Y-36314D01*
X62111Y-36315D01*
X62319Y-36229D01*
X62478Y-36070D01*
X62499Y-36019D01*
X62520Y-36069D01*
X62679Y-36228D01*
X62887Y-36314D01*
X63111Y-36315D01*
X63319Y-36229D01*
X63478Y-36070D01*
X63564Y-35862D01*
X63565Y-35638D01*
X63528Y-35550D01*
X63625Y-35550D01*
X63693Y-35617D01*
X63685Y-35637D01*
X63684Y-35861D01*
X63770Y-36069D01*
X63929Y-36228D01*
X64137Y-36314D01*
X64361Y-36315D01*
X64569Y-36229D01*
X64728Y-36070D01*
X64749Y-36019D01*
X64770Y-36069D01*
X64929Y-36228D01*
X65137Y-36314D01*
X65361Y-36315D01*
X65569Y-36229D01*
X65728Y-36070D01*
X65814Y-35862D01*
X65815Y-35638D01*
X65778Y-35550D01*
X65875Y-35550D01*
X65943Y-35617D01*
X65935Y-35637D01*
X65934Y-35861D01*
X66020Y-36069D01*
X66179Y-36228D01*
X66387Y-36314D01*
X66611Y-36315D01*
X66819Y-36229D01*
X66978Y-36070D01*
X66999Y-36019D01*
X67020Y-36069D01*
X67179Y-36228D01*
X67387Y-36314D01*
X67611Y-36315D01*
X67819Y-36229D01*
X67978Y-36070D01*
X68064Y-35862D01*
X68065Y-35638D01*
X68028Y-35550D01*
X68125Y-35550D01*
X68193Y-35617D01*
X68185Y-35637D01*
X68184Y-35861D01*
X68270Y-36069D01*
X68429Y-36228D01*
X68637Y-36314D01*
X68861Y-36315D01*
X69069Y-36229D01*
X69228Y-36070D01*
X69249Y-36019D01*
X69270Y-36069D01*
X69429Y-36228D01*
X69637Y-36314D01*
X69861Y-36315D01*
X70069Y-36229D01*
X70228Y-36070D01*
X70314Y-35862D01*
X70315Y-35638D01*
X70278Y-35550D01*
X70375Y-35550D01*
X70443Y-35617D01*
X70435Y-35637D01*
X70434Y-35861D01*
X70520Y-36069D01*
X70679Y-36228D01*
X70887Y-36314D01*
X71111Y-36315D01*
X71319Y-36229D01*
X71478Y-36070D01*
X71499Y-36019D01*
X71520Y-36069D01*
X71679Y-36228D01*
X71887Y-36314D01*
X72111Y-36315D01*
X72319Y-36229D01*
X72478Y-36070D01*
X72564Y-35862D01*
X72565Y-35638D01*
X72528Y-35550D01*
X72625Y-35550D01*
X72693Y-35617D01*
X72685Y-35637D01*
X72684Y-35861D01*
X72770Y-36069D01*
X72929Y-36228D01*
X73137Y-36314D01*
X73361Y-36315D01*
X73569Y-36229D01*
X73728Y-36070D01*
X73749Y-36019D01*
X73770Y-36069D01*
X73929Y-36228D01*
X74137Y-36314D01*
X74361Y-36315D01*
X74569Y-36229D01*
X74728Y-36070D01*
X74814Y-35862D01*
X74815Y-35638D01*
X74778Y-35550D01*
X74875Y-35550D01*
X74943Y-35617D01*
X74935Y-35637D01*
X74934Y-35861D01*
X75016Y-36059D01*
X74975Y-36099D01*
X74920Y-36099D01*
X74773Y-36160D01*
X74661Y-36273D01*
X74600Y-36420D01*
X74599Y-36579D01*
X74660Y-36726D01*
X74773Y-36838D01*
X74920Y-36899D01*
X75079Y-36900D01*
X75226Y-36839D01*
X75338Y-36726D01*
X75399Y-36579D01*
X75399Y-36524D01*
X75609Y-36315D01*
X75611Y-36315D01*
X75819Y-36229D01*
X75978Y-36070D01*
X75999Y-36019D01*
X76020Y-36069D01*
X76179Y-36228D01*
X76200Y-36237D01*
X76200Y-37512D01*
G54D10*
G36*
X76429Y-44999D02*
X76419Y-45004D01*
X76254Y-45168D01*
X76165Y-45383D01*
X76165Y-45615D01*
X76254Y-45830D01*
X76403Y-45980D01*
X74874Y-45980D01*
X75012Y-45842D01*
X75104Y-45620D01*
X75104Y-45380D01*
X75012Y-45158D01*
X74842Y-44987D01*
X74620Y-44895D01*
X74380Y-44895D01*
X74337Y-44913D01*
X74162Y-44737D01*
X74064Y-44672D01*
X73950Y-44650D01*
X73424Y-44650D01*
X73262Y-44487D01*
X73164Y-44422D01*
X73050Y-44400D01*
X72524Y-44400D01*
X72449Y-44324D01*
X72705Y-44069D01*
X72841Y-44012D01*
X73000Y-43854D01*
X73157Y-44012D01*
X73379Y-44104D01*
X73619Y-44104D01*
X73841Y-44012D01*
X74000Y-43854D01*
X74157Y-44012D01*
X74379Y-44104D01*
X74619Y-44104D01*
X74841Y-44012D01*
X75012Y-43842D01*
X75104Y-43620D01*
X75104Y-43380D01*
X75012Y-43158D01*
X75004Y-43150D01*
X76165Y-43150D01*
X76165Y-43215D01*
X76165Y-43884D01*
X76203Y-43976D01*
X76273Y-44046D01*
X76346Y-44076D01*
X76254Y-44168D01*
X76165Y-44383D01*
X76165Y-44615D01*
X76254Y-44830D01*
X76418Y-44995D01*
X76429Y-44999D01*
X76429Y-44999D01*
G37*
G54D31*
X76429Y-44999D02*
X76419Y-45004D01*
X76254Y-45168D01*
X76165Y-45383D01*
X76165Y-45615D01*
X76254Y-45830D01*
X76403Y-45980D01*
X74874Y-45980D01*
X75012Y-45842D01*
X75104Y-45620D01*
X75104Y-45380D01*
X75012Y-45158D01*
X74842Y-44987D01*
X74620Y-44895D01*
X74380Y-44895D01*
X74337Y-44913D01*
X74162Y-44737D01*
X74064Y-44672D01*
X73950Y-44650D01*
X73424Y-44650D01*
X73262Y-44487D01*
X73164Y-44422D01*
X73050Y-44400D01*
X72524Y-44400D01*
X72449Y-44324D01*
X72705Y-44069D01*
X72841Y-44012D01*
X73000Y-43854D01*
X73157Y-44012D01*
X73379Y-44104D01*
X73619Y-44104D01*
X73841Y-44012D01*
X74000Y-43854D01*
X74157Y-44012D01*
X74379Y-44104D01*
X74619Y-44104D01*
X74841Y-44012D01*
X75012Y-43842D01*
X75104Y-43620D01*
X75104Y-43380D01*
X75012Y-43158D01*
X75004Y-43150D01*
X76165Y-43150D01*
X76165Y-43215D01*
X76165Y-43884D01*
X76203Y-43976D01*
X76273Y-44046D01*
X76346Y-44076D01*
X76254Y-44168D01*
X76165Y-44383D01*
X76165Y-44615D01*
X76254Y-44830D01*
X76418Y-44995D01*
X76429Y-44999D01*
G54D10*
G36*
X76638Y-39475D02*
X76377Y-39475D01*
X76377Y-39308D01*
X76339Y-39216D01*
X76269Y-39146D01*
X76177Y-39108D01*
X76078Y-39108D01*
X75822Y-39108D01*
X75730Y-39146D01*
X75660Y-39216D01*
X75622Y-39308D01*
X75622Y-39407D01*
X75622Y-39750D01*
X75200Y-39750D01*
X75137Y-39762D01*
X75137Y-39588D01*
X75101Y-39500D01*
X75137Y-39411D01*
X75137Y-39312D01*
X75137Y-39036D01*
X75099Y-38945D01*
X75029Y-38874D01*
X74937Y-38836D01*
X74838Y-38836D01*
X74786Y-38836D01*
X74550Y-38600D01*
X74550Y-38487D01*
X74569Y-38479D01*
X74728Y-38320D01*
X74814Y-38112D01*
X74815Y-37888D01*
X74778Y-37800D01*
X74875Y-37800D01*
X74943Y-37867D01*
X74935Y-37887D01*
X74934Y-38111D01*
X75020Y-38319D01*
X75179Y-38478D01*
X75387Y-38564D01*
X75611Y-38565D01*
X75819Y-38479D01*
X75978Y-38320D01*
X75999Y-38269D01*
X76020Y-38319D01*
X76179Y-38478D01*
X76200Y-38487D01*
X76200Y-38724D01*
X76222Y-38839D01*
X76287Y-38936D01*
X76612Y-39260D01*
X76612Y-39411D01*
X76638Y-39475D01*
X76638Y-39475D01*
G37*
G54D31*
X76638Y-39475D02*
X76377Y-39475D01*
X76377Y-39308D01*
X76339Y-39216D01*
X76269Y-39146D01*
X76177Y-39108D01*
X76078Y-39108D01*
X75822Y-39108D01*
X75730Y-39146D01*
X75660Y-39216D01*
X75622Y-39308D01*
X75622Y-39407D01*
X75622Y-39750D01*
X75200Y-39750D01*
X75137Y-39762D01*
X75137Y-39588D01*
X75101Y-39500D01*
X75137Y-39411D01*
X75137Y-39312D01*
X75137Y-39036D01*
X75099Y-38945D01*
X75029Y-38874D01*
X74937Y-38836D01*
X74838Y-38836D01*
X74786Y-38836D01*
X74550Y-38600D01*
X74550Y-38487D01*
X74569Y-38479D01*
X74728Y-38320D01*
X74814Y-38112D01*
X74815Y-37888D01*
X74778Y-37800D01*
X74875Y-37800D01*
X74943Y-37867D01*
X74935Y-37887D01*
X74934Y-38111D01*
X75020Y-38319D01*
X75179Y-38478D01*
X75387Y-38564D01*
X75611Y-38565D01*
X75819Y-38479D01*
X75978Y-38320D01*
X75999Y-38269D01*
X76020Y-38319D01*
X76179Y-38478D01*
X76200Y-38487D01*
X76200Y-38724D01*
X76222Y-38839D01*
X76287Y-38936D01*
X76612Y-39260D01*
X76612Y-39411D01*
X76638Y-39475D01*
G54D10*
G36*
X79416Y-40889D02*
X79407Y-40885D01*
X79343Y-40885D01*
X79343Y-40884D01*
X79254Y-40884D01*
X79228Y-40910D01*
X79225Y-40919D01*
X79215Y-40923D01*
X79145Y-40993D01*
X79100Y-41039D01*
X78649Y-40587D01*
X78649Y-40587D01*
X78405Y-40344D01*
X78424Y-40325D01*
X78424Y-40050D01*
X78149Y-40050D01*
X78086Y-40112D01*
X78086Y-40187D01*
X78091Y-40200D01*
X77624Y-40200D01*
X77962Y-39862D01*
X77962Y-39862D01*
X77962Y-39862D01*
X78024Y-39800D01*
X78091Y-39800D01*
X78086Y-39812D01*
X78086Y-39887D01*
X78149Y-39950D01*
X78424Y-39950D01*
X78424Y-39942D01*
X78524Y-39942D01*
X78524Y-39950D01*
X78532Y-39950D01*
X78532Y-40050D01*
X78524Y-40050D01*
X78524Y-40325D01*
X78586Y-40387D01*
X78661Y-40387D01*
X78749Y-40351D01*
X78838Y-40387D01*
X78935Y-40387D01*
X79412Y-40865D01*
X79412Y-40879D01*
X79416Y-40889D01*
X79416Y-40889D01*
G37*
G54D31*
X79416Y-40889D02*
X79407Y-40885D01*
X79343Y-40885D01*
X79343Y-40884D01*
X79254Y-40884D01*
X79228Y-40910D01*
X79225Y-40919D01*
X79215Y-40923D01*
X79145Y-40993D01*
X79100Y-41039D01*
X78649Y-40587D01*
X78649Y-40587D01*
X78405Y-40344D01*
X78424Y-40325D01*
X78424Y-40050D01*
X78149Y-40050D01*
X78086Y-40112D01*
X78086Y-40187D01*
X78091Y-40200D01*
X77624Y-40200D01*
X77962Y-39862D01*
X77962Y-39862D01*
X77962Y-39862D01*
X78024Y-39800D01*
X78091Y-39800D01*
X78086Y-39812D01*
X78086Y-39887D01*
X78149Y-39950D01*
X78424Y-39950D01*
X78424Y-39942D01*
X78524Y-39942D01*
X78524Y-39950D01*
X78532Y-39950D01*
X78532Y-40050D01*
X78524Y-40050D01*
X78524Y-40325D01*
X78586Y-40387D01*
X78661Y-40387D01*
X78749Y-40351D01*
X78838Y-40387D01*
X78935Y-40387D01*
X79412Y-40865D01*
X79412Y-40879D01*
X79416Y-40889D01*
G54D10*
G36*
X81789Y-42513D02*
X81705Y-42570D01*
X81537Y-42737D01*
X81472Y-42835D01*
X81450Y-42950D01*
X81450Y-43200D01*
X81472Y-43314D01*
X81484Y-43332D01*
X81529Y-43400D01*
X81529Y-43440D01*
X81534Y-43452D01*
X81523Y-43447D01*
X81521Y-43447D01*
X81450Y-43375D01*
X81450Y-43320D01*
X81389Y-43173D01*
X81276Y-43061D01*
X81129Y-43000D01*
X80970Y-42999D01*
X80823Y-43060D01*
X80711Y-43173D01*
X80650Y-43320D01*
X80649Y-43467D01*
X80584Y-43402D01*
X80445Y-43262D01*
X80435Y-43258D01*
X80432Y-43249D01*
X80361Y-43179D01*
X80222Y-43040D01*
X80213Y-43036D01*
X80209Y-43027D01*
X80139Y-42957D01*
X80000Y-42817D01*
X79991Y-42814D01*
X79987Y-42804D01*
X79916Y-42734D01*
X79777Y-42595D01*
X79768Y-42591D01*
X79764Y-42582D01*
X79694Y-42511D01*
X79554Y-42372D01*
X79545Y-42368D01*
X79541Y-42359D01*
X79471Y-42289D01*
X79432Y-42250D01*
X79541Y-42140D01*
X79545Y-42131D01*
X79554Y-42127D01*
X79625Y-42057D01*
X79764Y-41917D01*
X79768Y-41908D01*
X79777Y-41904D01*
X79847Y-41834D01*
X79987Y-41695D01*
X79991Y-41685D01*
X80000Y-41682D01*
X80026Y-41656D01*
X80026Y-41567D01*
X80025Y-41566D01*
X80025Y-41503D01*
X80021Y-41493D01*
X80031Y-41498D01*
X80095Y-41498D01*
X80095Y-41498D01*
X80184Y-41498D01*
X80209Y-41472D01*
X80213Y-41463D01*
X80222Y-41459D01*
X80292Y-41389D01*
X80432Y-41250D01*
X80435Y-41241D01*
X80445Y-41237D01*
X80515Y-41166D01*
X80554Y-41128D01*
X80650Y-41224D01*
X80650Y-41250D01*
X80672Y-41364D01*
X80737Y-41462D01*
X81789Y-42513D01*
X81789Y-42513D01*
G37*
G54D31*
X81789Y-42513D02*
X81705Y-42570D01*
X81537Y-42737D01*
X81472Y-42835D01*
X81450Y-42950D01*
X81450Y-43200D01*
X81472Y-43314D01*
X81484Y-43332D01*
X81529Y-43400D01*
X81529Y-43440D01*
X81534Y-43452D01*
X81523Y-43447D01*
X81521Y-43447D01*
X81450Y-43375D01*
X81450Y-43320D01*
X81389Y-43173D01*
X81276Y-43061D01*
X81129Y-43000D01*
X80970Y-42999D01*
X80823Y-43060D01*
X80711Y-43173D01*
X80650Y-43320D01*
X80649Y-43467D01*
X80584Y-43402D01*
X80445Y-43262D01*
X80435Y-43258D01*
X80432Y-43249D01*
X80361Y-43179D01*
X80222Y-43040D01*
X80213Y-43036D01*
X80209Y-43027D01*
X80139Y-42957D01*
X80000Y-42817D01*
X79991Y-42814D01*
X79987Y-42804D01*
X79916Y-42734D01*
X79777Y-42595D01*
X79768Y-42591D01*
X79764Y-42582D01*
X79694Y-42511D01*
X79554Y-42372D01*
X79545Y-42368D01*
X79541Y-42359D01*
X79471Y-42289D01*
X79432Y-42250D01*
X79541Y-42140D01*
X79545Y-42131D01*
X79554Y-42127D01*
X79625Y-42057D01*
X79764Y-41917D01*
X79768Y-41908D01*
X79777Y-41904D01*
X79847Y-41834D01*
X79987Y-41695D01*
X79991Y-41685D01*
X80000Y-41682D01*
X80026Y-41656D01*
X80026Y-41567D01*
X80025Y-41566D01*
X80025Y-41503D01*
X80021Y-41493D01*
X80031Y-41498D01*
X80095Y-41498D01*
X80095Y-41498D01*
X80184Y-41498D01*
X80209Y-41472D01*
X80213Y-41463D01*
X80222Y-41459D01*
X80292Y-41389D01*
X80432Y-41250D01*
X80435Y-41241D01*
X80445Y-41237D01*
X80515Y-41166D01*
X80554Y-41128D01*
X80650Y-41224D01*
X80650Y-41250D01*
X80672Y-41364D01*
X80737Y-41462D01*
X81789Y-42513D01*
G54D10*
G36*
X83300Y-45584D02*
X83261Y-45623D01*
X83200Y-45770D01*
X83200Y-45849D01*
X83200Y-45350D01*
X83200Y-45075D01*
X82924Y-45075D01*
X82875Y-45125D01*
X82825Y-45075D01*
X82550Y-45075D01*
X82550Y-45350D01*
X82612Y-45413D01*
X82687Y-45413D01*
X82779Y-45375D01*
X82849Y-45304D01*
X82875Y-45244D01*
X82900Y-45304D01*
X82970Y-45375D01*
X83062Y-45413D01*
X83137Y-45413D01*
X83200Y-45350D01*
X83200Y-45849D01*
X83199Y-45929D01*
X83221Y-45980D01*
X82450Y-45980D01*
X82450Y-45350D01*
X82450Y-45075D01*
X82174Y-45075D01*
X82112Y-45138D01*
X82112Y-45213D01*
X82150Y-45304D01*
X82220Y-45375D01*
X82312Y-45413D01*
X82387Y-45413D01*
X82450Y-45350D01*
X82450Y-45980D01*
X78068Y-45980D01*
X78090Y-45911D01*
X77750Y-45570D01*
X77409Y-45911D01*
X77431Y-45980D01*
X77096Y-45980D01*
X77245Y-45831D01*
X77253Y-45812D01*
X77338Y-45840D01*
X77679Y-45500D01*
X77673Y-45494D01*
X77744Y-45423D01*
X77750Y-45429D01*
X77755Y-45423D01*
X77826Y-45494D01*
X77820Y-45500D01*
X78161Y-45840D01*
X78259Y-45808D01*
X78339Y-45590D01*
X78328Y-45357D01*
X78304Y-45300D01*
X78472Y-45300D01*
X78472Y-45299D01*
X78586Y-45277D01*
X78586Y-45277D01*
X78684Y-45212D01*
X79236Y-44660D01*
X79236Y-45186D01*
X79258Y-45300D01*
X79323Y-45398D01*
X79631Y-45705D01*
X79660Y-45776D01*
X79773Y-45888D01*
X79920Y-45949D01*
X80079Y-45950D01*
X80226Y-45889D01*
X80338Y-45776D01*
X80399Y-45629D01*
X80400Y-45470D01*
X80339Y-45324D01*
X80349Y-45300D01*
X80360Y-45326D01*
X80473Y-45438D01*
X80620Y-45499D01*
X80779Y-45500D01*
X80926Y-45439D01*
X81038Y-45326D01*
X81099Y-45179D01*
X81100Y-45041D01*
X81120Y-45049D01*
X81194Y-45049D01*
X81235Y-45077D01*
X81350Y-45100D01*
X81500Y-45100D01*
X81500Y-45099D01*
X81614Y-45077D01*
X81614Y-45077D01*
X81712Y-45012D01*
X81862Y-44862D01*
X81862Y-44862D01*
X81927Y-44764D01*
X81949Y-44650D01*
X81950Y-44650D01*
X81950Y-44500D01*
X81935Y-44425D01*
X81964Y-44396D01*
X82103Y-44256D01*
X82107Y-44247D01*
X82116Y-44243D01*
X82139Y-44221D01*
X82112Y-44286D01*
X82112Y-44386D01*
X82112Y-44661D01*
X82148Y-44750D01*
X82112Y-44838D01*
X82112Y-44913D01*
X82174Y-44975D01*
X82450Y-44975D01*
X82450Y-44967D01*
X82550Y-44967D01*
X82550Y-44975D01*
X82825Y-44975D01*
X82875Y-44925D01*
X82924Y-44975D01*
X83200Y-44975D01*
X83200Y-44967D01*
X83300Y-44967D01*
X83300Y-44975D01*
X83300Y-45075D01*
X83300Y-45350D01*
X83300Y-45584D01*
X83300Y-45584D01*
G37*
G54D31*
X83300Y-45584D02*
X83261Y-45623D01*
X83200Y-45770D01*
X83200Y-45849D01*
X83200Y-45350D01*
X83200Y-45075D01*
X82924Y-45075D01*
X82875Y-45125D01*
X82825Y-45075D01*
X82550Y-45075D01*
X82550Y-45350D01*
X82612Y-45413D01*
X82687Y-45413D01*
X82779Y-45375D01*
X82849Y-45304D01*
X82875Y-45244D01*
X82900Y-45304D01*
X82970Y-45375D01*
X83062Y-45413D01*
X83137Y-45413D01*
X83200Y-45350D01*
X83200Y-45849D01*
X83199Y-45929D01*
X83221Y-45980D01*
X82450Y-45980D01*
X82450Y-45350D01*
X82450Y-45075D01*
X82174Y-45075D01*
X82112Y-45138D01*
X82112Y-45213D01*
X82150Y-45304D01*
X82220Y-45375D01*
X82312Y-45413D01*
X82387Y-45413D01*
X82450Y-45350D01*
X82450Y-45980D01*
X78068Y-45980D01*
X78090Y-45911D01*
X77750Y-45570D01*
X77409Y-45911D01*
X77431Y-45980D01*
X77096Y-45980D01*
X77245Y-45831D01*
X77253Y-45812D01*
X77338Y-45840D01*
X77679Y-45500D01*
X77673Y-45494D01*
X77744Y-45423D01*
X77750Y-45429D01*
X77755Y-45423D01*
X77826Y-45494D01*
X77820Y-45500D01*
X78161Y-45840D01*
X78259Y-45808D01*
X78339Y-45590D01*
X78328Y-45357D01*
X78304Y-45300D01*
X78472Y-45300D01*
X78472Y-45299D01*
X78586Y-45277D01*
X78586Y-45277D01*
X78684Y-45212D01*
X79236Y-44660D01*
X79236Y-45186D01*
X79258Y-45300D01*
X79323Y-45398D01*
X79631Y-45705D01*
X79660Y-45776D01*
X79773Y-45888D01*
X79920Y-45949D01*
X80079Y-45950D01*
X80226Y-45889D01*
X80338Y-45776D01*
X80399Y-45629D01*
X80400Y-45470D01*
X80339Y-45324D01*
X80349Y-45300D01*
X80360Y-45326D01*
X80473Y-45438D01*
X80620Y-45499D01*
X80779Y-45500D01*
X80926Y-45439D01*
X81038Y-45326D01*
X81099Y-45179D01*
X81100Y-45041D01*
X81120Y-45049D01*
X81194Y-45049D01*
X81235Y-45077D01*
X81350Y-45100D01*
X81500Y-45100D01*
X81500Y-45099D01*
X81614Y-45077D01*
X81614Y-45077D01*
X81712Y-45012D01*
X81862Y-44862D01*
X81862Y-44862D01*
X81927Y-44764D01*
X81949Y-44650D01*
X81950Y-44650D01*
X81950Y-44500D01*
X81935Y-44425D01*
X81964Y-44396D01*
X82103Y-44256D01*
X82107Y-44247D01*
X82116Y-44243D01*
X82139Y-44221D01*
X82112Y-44286D01*
X82112Y-44386D01*
X82112Y-44661D01*
X82148Y-44750D01*
X82112Y-44838D01*
X82112Y-44913D01*
X82174Y-44975D01*
X82450Y-44975D01*
X82450Y-44967D01*
X82550Y-44967D01*
X82550Y-44975D01*
X82825Y-44975D01*
X82875Y-44925D01*
X82924Y-44975D01*
X83200Y-44975D01*
X83200Y-44967D01*
X83300Y-44967D01*
X83300Y-44975D01*
X83300Y-45075D01*
X83300Y-45350D01*
X83300Y-45584D01*
G54D10*
G36*
X86217Y-39974D02*
X86204Y-39974D01*
X85948Y-39974D01*
X85856Y-40012D01*
X85786Y-40082D01*
X85748Y-40174D01*
X85748Y-40274D01*
X85748Y-40500D01*
X85501Y-40500D01*
X85501Y-40320D01*
X85501Y-40174D01*
X85463Y-40082D01*
X85393Y-40012D01*
X85301Y-39974D01*
X85236Y-39974D01*
X85174Y-40036D01*
X85174Y-40383D01*
X85439Y-40383D01*
X85501Y-40320D01*
X85501Y-40500D01*
X85456Y-40500D01*
X85439Y-40483D01*
X85174Y-40483D01*
X85174Y-40490D01*
X85074Y-40490D01*
X85074Y-40483D01*
X85066Y-40483D01*
X85066Y-40383D01*
X85074Y-40383D01*
X85074Y-40036D01*
X85022Y-39984D01*
X85032Y-39974D01*
X85089Y-39917D01*
X85127Y-39825D01*
X85127Y-39725D01*
X85127Y-39308D01*
X85124Y-39300D01*
X86125Y-39300D01*
X86122Y-39308D01*
X86122Y-39407D01*
X86122Y-39825D01*
X86160Y-39917D01*
X86217Y-39974D01*
X86217Y-39974D01*
G37*
G54D31*
X86217Y-39974D02*
X86204Y-39974D01*
X85948Y-39974D01*
X85856Y-40012D01*
X85786Y-40082D01*
X85748Y-40174D01*
X85748Y-40274D01*
X85748Y-40500D01*
X85501Y-40500D01*
X85501Y-40320D01*
X85501Y-40174D01*
X85463Y-40082D01*
X85393Y-40012D01*
X85301Y-39974D01*
X85236Y-39974D01*
X85174Y-40036D01*
X85174Y-40383D01*
X85439Y-40383D01*
X85501Y-40320D01*
X85501Y-40500D01*
X85456Y-40500D01*
X85439Y-40483D01*
X85174Y-40483D01*
X85174Y-40490D01*
X85074Y-40490D01*
X85074Y-40483D01*
X85066Y-40483D01*
X85066Y-40383D01*
X85074Y-40383D01*
X85074Y-40036D01*
X85022Y-39984D01*
X85032Y-39974D01*
X85089Y-39917D01*
X85127Y-39825D01*
X85127Y-39725D01*
X85127Y-39308D01*
X85124Y-39300D01*
X86125Y-39300D01*
X86122Y-39308D01*
X86122Y-39407D01*
X86122Y-39825D01*
X86160Y-39917D01*
X86217Y-39974D01*
G54D10*
G36*
X87350Y-45400D02*
X86950Y-45400D01*
X86835Y-45422D01*
X86794Y-45449D01*
X86720Y-45449D01*
X86573Y-45510D01*
X86461Y-45623D01*
X86400Y-45770D01*
X86399Y-45929D01*
X86421Y-45980D01*
X84387Y-45980D01*
X84387Y-45213D01*
X84387Y-45138D01*
X84325Y-45075D01*
X84050Y-45075D01*
X84050Y-45350D01*
X84112Y-45413D01*
X84187Y-45413D01*
X84279Y-45375D01*
X84349Y-45304D01*
X84387Y-45213D01*
X84387Y-45980D01*
X83979Y-45980D01*
X83999Y-45929D01*
X84000Y-45770D01*
X83939Y-45623D01*
X83900Y-45584D01*
X83900Y-45413D01*
X83900Y-45400D01*
X83950Y-45350D01*
X83950Y-45075D01*
X83942Y-45075D01*
X83942Y-44975D01*
X83950Y-44975D01*
X83950Y-44967D01*
X84050Y-44967D01*
X84050Y-44975D01*
X84325Y-44975D01*
X84387Y-44913D01*
X84387Y-44838D01*
X84361Y-44774D01*
X84889Y-44774D01*
X84974Y-44859D01*
X84974Y-45064D01*
X85054Y-45257D01*
X85201Y-45405D01*
X85394Y-45486D01*
X85604Y-45486D01*
X85797Y-45406D01*
X85945Y-45258D01*
X86025Y-45065D01*
X86025Y-44856D01*
X85945Y-44663D01*
X85798Y-44515D01*
X85605Y-44435D01*
X85398Y-44434D01*
X85225Y-44262D01*
X85128Y-44197D01*
X85013Y-44174D01*
X84329Y-44174D01*
X84279Y-44124D01*
X84187Y-44086D01*
X84088Y-44086D01*
X84010Y-44086D01*
X83837Y-43913D01*
X83911Y-43913D01*
X84187Y-43913D01*
X84279Y-43875D01*
X84329Y-43825D01*
X85013Y-43825D01*
X85013Y-43825D01*
X85128Y-43802D01*
X85128Y-43802D01*
X85225Y-43737D01*
X85398Y-43564D01*
X85604Y-43565D01*
X85797Y-43485D01*
X85945Y-43337D01*
X86025Y-43144D01*
X86025Y-42935D01*
X85945Y-42742D01*
X85798Y-42594D01*
X85605Y-42513D01*
X85395Y-42513D01*
X85202Y-42593D01*
X85054Y-42741D01*
X84974Y-42934D01*
X84974Y-43140D01*
X84889Y-43225D01*
X84361Y-43225D01*
X84387Y-43161D01*
X84387Y-43086D01*
X84387Y-42861D01*
X84387Y-42786D01*
X84349Y-42695D01*
X84279Y-42624D01*
X84187Y-42586D01*
X84112Y-42586D01*
X84050Y-42649D01*
X84050Y-42924D01*
X84325Y-42924D01*
X84387Y-42861D01*
X84387Y-43086D01*
X84325Y-43024D01*
X84050Y-43024D01*
X84050Y-43032D01*
X83950Y-43032D01*
X83950Y-43024D01*
X83942Y-43024D01*
X83942Y-42924D01*
X83950Y-42924D01*
X83950Y-42649D01*
X83887Y-42586D01*
X83812Y-42586D01*
X83720Y-42624D01*
X83650Y-42695D01*
X83612Y-42786D01*
X83612Y-42861D01*
X83674Y-42924D01*
X83657Y-42924D01*
X83477Y-42744D01*
X83477Y-42729D01*
X83439Y-42638D01*
X83369Y-42567D01*
X83051Y-42250D01*
X83351Y-41949D01*
X83479Y-41950D01*
X83626Y-41889D01*
X83720Y-41795D01*
X83937Y-42012D01*
X84035Y-42077D01*
X84035Y-42077D01*
X84150Y-42100D01*
X85725Y-42100D01*
X85987Y-42362D01*
X86530Y-42904D01*
X86461Y-42973D01*
X86400Y-43120D01*
X86399Y-43279D01*
X86460Y-43426D01*
X86573Y-43538D01*
X86720Y-43599D01*
X86775Y-43599D01*
X86800Y-43624D01*
X86800Y-44400D01*
X86822Y-44514D01*
X86887Y-44612D01*
X87350Y-45074D01*
X87350Y-45100D01*
X87350Y-45400D01*
X87350Y-45400D01*
G37*
G54D31*
X87350Y-45400D02*
X86950Y-45400D01*
X86835Y-45422D01*
X86794Y-45449D01*
X86720Y-45449D01*
X86573Y-45510D01*
X86461Y-45623D01*
X86400Y-45770D01*
X86399Y-45929D01*
X86421Y-45980D01*
X84387Y-45980D01*
X84387Y-45213D01*
X84387Y-45138D01*
X84325Y-45075D01*
X84050Y-45075D01*
X84050Y-45350D01*
X84112Y-45413D01*
X84187Y-45413D01*
X84279Y-45375D01*
X84349Y-45304D01*
X84387Y-45213D01*
X84387Y-45980D01*
X83979Y-45980D01*
X83999Y-45929D01*
X84000Y-45770D01*
X83939Y-45623D01*
X83900Y-45584D01*
X83900Y-45413D01*
X83900Y-45400D01*
X83950Y-45350D01*
X83950Y-45075D01*
X83942Y-45075D01*
X83942Y-44975D01*
X83950Y-44975D01*
X83950Y-44967D01*
X84050Y-44967D01*
X84050Y-44975D01*
X84325Y-44975D01*
X84387Y-44913D01*
X84387Y-44838D01*
X84361Y-44774D01*
X84889Y-44774D01*
X84974Y-44859D01*
X84974Y-45064D01*
X85054Y-45257D01*
X85201Y-45405D01*
X85394Y-45486D01*
X85604Y-45486D01*
X85797Y-45406D01*
X85945Y-45258D01*
X86025Y-45065D01*
X86025Y-44856D01*
X85945Y-44663D01*
X85798Y-44515D01*
X85605Y-44435D01*
X85398Y-44434D01*
X85225Y-44262D01*
X85128Y-44197D01*
X85013Y-44174D01*
X84329Y-44174D01*
X84279Y-44124D01*
X84187Y-44086D01*
X84088Y-44086D01*
X84010Y-44086D01*
X83837Y-43913D01*
X83911Y-43913D01*
X84187Y-43913D01*
X84279Y-43875D01*
X84329Y-43825D01*
X85013Y-43825D01*
X85013Y-43825D01*
X85128Y-43802D01*
X85128Y-43802D01*
X85225Y-43737D01*
X85398Y-43564D01*
X85604Y-43565D01*
X85797Y-43485D01*
X85945Y-43337D01*
X86025Y-43144D01*
X86025Y-42935D01*
X85945Y-42742D01*
X85798Y-42594D01*
X85605Y-42513D01*
X85395Y-42513D01*
X85202Y-42593D01*
X85054Y-42741D01*
X84974Y-42934D01*
X84974Y-43140D01*
X84889Y-43225D01*
X84361Y-43225D01*
X84387Y-43161D01*
X84387Y-43086D01*
X84387Y-42861D01*
X84387Y-42786D01*
X84349Y-42695D01*
X84279Y-42624D01*
X84187Y-42586D01*
X84112Y-42586D01*
X84050Y-42649D01*
X84050Y-42924D01*
X84325Y-42924D01*
X84387Y-42861D01*
X84387Y-43086D01*
X84325Y-43024D01*
X84050Y-43024D01*
X84050Y-43032D01*
X83950Y-43032D01*
X83950Y-43024D01*
X83942Y-43024D01*
X83942Y-42924D01*
X83950Y-42924D01*
X83950Y-42649D01*
X83887Y-42586D01*
X83812Y-42586D01*
X83720Y-42624D01*
X83650Y-42695D01*
X83612Y-42786D01*
X83612Y-42861D01*
X83674Y-42924D01*
X83657Y-42924D01*
X83477Y-42744D01*
X83477Y-42729D01*
X83439Y-42638D01*
X83369Y-42567D01*
X83051Y-42250D01*
X83351Y-41949D01*
X83479Y-41950D01*
X83626Y-41889D01*
X83720Y-41795D01*
X83937Y-42012D01*
X84035Y-42077D01*
X84035Y-42077D01*
X84150Y-42100D01*
X85725Y-42100D01*
X85987Y-42362D01*
X86530Y-42904D01*
X86461Y-42973D01*
X86400Y-43120D01*
X86399Y-43279D01*
X86460Y-43426D01*
X86573Y-43538D01*
X86720Y-43599D01*
X86775Y-43599D01*
X86800Y-43624D01*
X86800Y-44400D01*
X86822Y-44514D01*
X86887Y-44612D01*
X87350Y-45074D01*
X87350Y-45100D01*
X87350Y-45400D01*
G54D10*
G36*
X87967Y-39974D02*
X87954Y-39974D01*
X87698Y-39974D01*
X87606Y-40012D01*
X87536Y-40082D01*
X87498Y-40174D01*
X87498Y-40274D01*
X87498Y-40600D01*
X87251Y-40600D01*
X87251Y-40545D01*
X87251Y-40320D01*
X87251Y-40174D01*
X87213Y-40082D01*
X87143Y-40012D01*
X87051Y-39974D01*
X86986Y-39974D01*
X86924Y-40036D01*
X86924Y-40383D01*
X87189Y-40383D01*
X87251Y-40320D01*
X87251Y-40545D01*
X87189Y-40483D01*
X86924Y-40483D01*
X86924Y-40490D01*
X86824Y-40490D01*
X86824Y-40483D01*
X86816Y-40483D01*
X86816Y-40383D01*
X86824Y-40383D01*
X86824Y-40036D01*
X86772Y-39984D01*
X86782Y-39974D01*
X86839Y-39917D01*
X86877Y-39825D01*
X86877Y-39725D01*
X86877Y-39308D01*
X86874Y-39300D01*
X87875Y-39300D01*
X87872Y-39308D01*
X87872Y-39407D01*
X87872Y-39825D01*
X87910Y-39917D01*
X87967Y-39974D01*
X87967Y-39974D01*
G37*
G54D31*
X87967Y-39974D02*
X87954Y-39974D01*
X87698Y-39974D01*
X87606Y-40012D01*
X87536Y-40082D01*
X87498Y-40174D01*
X87498Y-40274D01*
X87498Y-40600D01*
X87251Y-40600D01*
X87251Y-40545D01*
X87251Y-40320D01*
X87251Y-40174D01*
X87213Y-40082D01*
X87143Y-40012D01*
X87051Y-39974D01*
X86986Y-39974D01*
X86924Y-40036D01*
X86924Y-40383D01*
X87189Y-40383D01*
X87251Y-40320D01*
X87251Y-40545D01*
X87189Y-40483D01*
X86924Y-40483D01*
X86924Y-40490D01*
X86824Y-40490D01*
X86824Y-40483D01*
X86816Y-40483D01*
X86816Y-40383D01*
X86824Y-40383D01*
X86824Y-40036D01*
X86772Y-39984D01*
X86782Y-39974D01*
X86839Y-39917D01*
X86877Y-39825D01*
X86877Y-39725D01*
X86877Y-39308D01*
X86874Y-39300D01*
X87875Y-39300D01*
X87872Y-39308D01*
X87872Y-39407D01*
X87872Y-39825D01*
X87910Y-39917D01*
X87967Y-39974D01*
G54D10*
G36*
X89717Y-39974D02*
X89704Y-39974D01*
X89448Y-39974D01*
X89356Y-40012D01*
X89286Y-40082D01*
X89260Y-40144D01*
X89202Y-40155D01*
X89104Y-40220D01*
X89001Y-40323D01*
X88942Y-40383D01*
X88939Y-40383D01*
X89001Y-40320D01*
X89001Y-40174D01*
X88963Y-40082D01*
X88893Y-40012D01*
X88801Y-39974D01*
X88736Y-39974D01*
X88674Y-40036D01*
X88674Y-40383D01*
X88681Y-40383D01*
X88681Y-40483D01*
X88674Y-40483D01*
X88674Y-40490D01*
X88574Y-40490D01*
X88574Y-40483D01*
X88566Y-40483D01*
X88566Y-40383D01*
X88574Y-40383D01*
X88574Y-40036D01*
X88522Y-39984D01*
X88532Y-39974D01*
X88589Y-39917D01*
X88627Y-39825D01*
X88627Y-39725D01*
X88627Y-39308D01*
X88624Y-39300D01*
X89625Y-39300D01*
X89622Y-39308D01*
X89622Y-39407D01*
X89622Y-39825D01*
X89660Y-39917D01*
X89717Y-39974D01*
X89717Y-39974D01*
G37*
G54D31*
X89717Y-39974D02*
X89704Y-39974D01*
X89448Y-39974D01*
X89356Y-40012D01*
X89286Y-40082D01*
X89260Y-40144D01*
X89202Y-40155D01*
X89104Y-40220D01*
X89001Y-40323D01*
X88942Y-40383D01*
X88939Y-40383D01*
X89001Y-40320D01*
X89001Y-40174D01*
X88963Y-40082D01*
X88893Y-40012D01*
X88801Y-39974D01*
X88736Y-39974D01*
X88674Y-40036D01*
X88674Y-40383D01*
X88681Y-40383D01*
X88681Y-40483D01*
X88674Y-40483D01*
X88674Y-40490D01*
X88574Y-40490D01*
X88574Y-40483D01*
X88566Y-40483D01*
X88566Y-40383D01*
X88574Y-40383D01*
X88574Y-40036D01*
X88522Y-39984D01*
X88532Y-39974D01*
X88589Y-39917D01*
X88627Y-39825D01*
X88627Y-39725D01*
X88627Y-39308D01*
X88624Y-39300D01*
X89625Y-39300D01*
X89622Y-39308D01*
X89622Y-39407D01*
X89622Y-39825D01*
X89660Y-39917D01*
X89717Y-39974D01*
G54D10*
G36*
X92663Y-44578D02*
X92648Y-44651D01*
X92648Y-44895D01*
X92584Y-44895D01*
X92492Y-44933D01*
X92421Y-45004D01*
X92383Y-45095D01*
X92383Y-45195D01*
X92383Y-45200D01*
X92025Y-45200D01*
X91924Y-45220D01*
X91924Y-44325D01*
X91924Y-44050D01*
X91924Y-43950D01*
X91924Y-43674D01*
X91874Y-43625D01*
X91924Y-43575D01*
X91924Y-43300D01*
X91649Y-43300D01*
X91586Y-43362D01*
X91586Y-43437D01*
X91624Y-43529D01*
X91695Y-43599D01*
X91755Y-43625D01*
X91695Y-43650D01*
X91624Y-43720D01*
X91586Y-43812D01*
X91586Y-43887D01*
X91649Y-43950D01*
X91924Y-43950D01*
X91924Y-44050D01*
X91649Y-44050D01*
X91586Y-44112D01*
X91586Y-44187D01*
X91624Y-44279D01*
X91695Y-44349D01*
X91786Y-44387D01*
X91861Y-44387D01*
X91924Y-44325D01*
X91924Y-45220D01*
X91910Y-45222D01*
X91871Y-45248D01*
X91813Y-45287D01*
X91739Y-45362D01*
X91588Y-45362D01*
X91524Y-45388D01*
X91524Y-45074D01*
X91501Y-44959D01*
X91436Y-44862D01*
X91436Y-44862D01*
X90962Y-44387D01*
X90864Y-44322D01*
X90750Y-44300D01*
X90637Y-44300D01*
X90637Y-43213D01*
X90637Y-43138D01*
X90575Y-43075D01*
X90300Y-43075D01*
X90300Y-43350D01*
X90362Y-43413D01*
X90437Y-43413D01*
X90529Y-43375D01*
X90599Y-43304D01*
X90637Y-43213D01*
X90637Y-44300D01*
X90200Y-44300D01*
X90200Y-43350D01*
X90200Y-43075D01*
X89924Y-43075D01*
X89862Y-43138D01*
X89862Y-43213D01*
X89900Y-43304D01*
X89970Y-43375D01*
X90062Y-43413D01*
X90137Y-43413D01*
X90200Y-43350D01*
X90200Y-44300D01*
X89676Y-44300D01*
X89676Y-44299D01*
X89715Y-44207D01*
X89715Y-43994D01*
X89652Y-43932D01*
X89459Y-43932D01*
X89459Y-43832D01*
X89652Y-43832D01*
X89715Y-43769D01*
X89715Y-43556D01*
X89676Y-43464D01*
X89606Y-43394D01*
X89514Y-43356D01*
X89493Y-43356D01*
X89446Y-43403D01*
X89446Y-43356D01*
X89440Y-43356D01*
X89440Y-42805D01*
X89473Y-42838D01*
X89620Y-42899D01*
X89779Y-42900D01*
X89862Y-42865D01*
X89862Y-42913D01*
X89924Y-42975D01*
X90200Y-42975D01*
X90200Y-42967D01*
X90300Y-42967D01*
X90300Y-42975D01*
X90575Y-42975D01*
X90637Y-42913D01*
X90637Y-42838D01*
X90601Y-42750D01*
X90637Y-42661D01*
X90637Y-42562D01*
X90637Y-42286D01*
X90599Y-42195D01*
X90529Y-42124D01*
X90469Y-42100D01*
X91370Y-42100D01*
X91223Y-42160D01*
X91111Y-42273D01*
X91050Y-42420D01*
X91049Y-42579D01*
X91110Y-42726D01*
X91223Y-42838D01*
X91370Y-42899D01*
X91529Y-42900D01*
X91676Y-42839D01*
X91680Y-42835D01*
X91695Y-42849D01*
X91755Y-42875D01*
X91695Y-42900D01*
X91624Y-42970D01*
X91586Y-43062D01*
X91586Y-43137D01*
X91649Y-43200D01*
X91924Y-43200D01*
X91924Y-43192D01*
X92024Y-43192D01*
X92024Y-43200D01*
X92032Y-43200D01*
X92032Y-43300D01*
X92024Y-43300D01*
X92024Y-43575D01*
X92074Y-43625D01*
X92024Y-43674D01*
X92024Y-43950D01*
X92032Y-43950D01*
X92032Y-44050D01*
X92024Y-44050D01*
X92024Y-44325D01*
X92086Y-44387D01*
X92161Y-44387D01*
X92249Y-44351D01*
X92338Y-44387D01*
X92437Y-44387D01*
X92599Y-44387D01*
X92599Y-44429D01*
X92660Y-44576D01*
X92663Y-44578D01*
X92663Y-44578D01*
X92663Y-44578D01*
G37*
G54D31*
X92663Y-44578D02*
X92648Y-44651D01*
X92648Y-44895D01*
X92584Y-44895D01*
X92492Y-44933D01*
X92421Y-45004D01*
X92383Y-45095D01*
X92383Y-45195D01*
X92383Y-45200D01*
X92025Y-45200D01*
X91924Y-45220D01*
X91924Y-44325D01*
X91924Y-44050D01*
X91924Y-43950D01*
X91924Y-43674D01*
X91874Y-43625D01*
X91924Y-43575D01*
X91924Y-43300D01*
X91649Y-43300D01*
X91586Y-43362D01*
X91586Y-43437D01*
X91624Y-43529D01*
X91695Y-43599D01*
X91755Y-43625D01*
X91695Y-43650D01*
X91624Y-43720D01*
X91586Y-43812D01*
X91586Y-43887D01*
X91649Y-43950D01*
X91924Y-43950D01*
X91924Y-44050D01*
X91649Y-44050D01*
X91586Y-44112D01*
X91586Y-44187D01*
X91624Y-44279D01*
X91695Y-44349D01*
X91786Y-44387D01*
X91861Y-44387D01*
X91924Y-44325D01*
X91924Y-45220D01*
X91910Y-45222D01*
X91871Y-45248D01*
X91813Y-45287D01*
X91739Y-45362D01*
X91588Y-45362D01*
X91524Y-45388D01*
X91524Y-45074D01*
X91501Y-44959D01*
X91436Y-44862D01*
X91436Y-44862D01*
X90962Y-44387D01*
X90864Y-44322D01*
X90750Y-44300D01*
X90637Y-44300D01*
X90637Y-43213D01*
X90637Y-43138D01*
X90575Y-43075D01*
X90300Y-43075D01*
X90300Y-43350D01*
X90362Y-43413D01*
X90437Y-43413D01*
X90529Y-43375D01*
X90599Y-43304D01*
X90637Y-43213D01*
X90637Y-44300D01*
X90200Y-44300D01*
X90200Y-43350D01*
X90200Y-43075D01*
X89924Y-43075D01*
X89862Y-43138D01*
X89862Y-43213D01*
X89900Y-43304D01*
X89970Y-43375D01*
X90062Y-43413D01*
X90137Y-43413D01*
X90200Y-43350D01*
X90200Y-44300D01*
X89676Y-44300D01*
X89676Y-44299D01*
X89715Y-44207D01*
X89715Y-43994D01*
X89652Y-43932D01*
X89459Y-43932D01*
X89459Y-43832D01*
X89652Y-43832D01*
X89715Y-43769D01*
X89715Y-43556D01*
X89676Y-43464D01*
X89606Y-43394D01*
X89514Y-43356D01*
X89493Y-43356D01*
X89446Y-43403D01*
X89446Y-43356D01*
X89440Y-43356D01*
X89440Y-42805D01*
X89473Y-42838D01*
X89620Y-42899D01*
X89779Y-42900D01*
X89862Y-42865D01*
X89862Y-42913D01*
X89924Y-42975D01*
X90200Y-42975D01*
X90200Y-42967D01*
X90300Y-42967D01*
X90300Y-42975D01*
X90575Y-42975D01*
X90637Y-42913D01*
X90637Y-42838D01*
X90601Y-42750D01*
X90637Y-42661D01*
X90637Y-42562D01*
X90637Y-42286D01*
X90599Y-42195D01*
X90529Y-42124D01*
X90469Y-42100D01*
X91370Y-42100D01*
X91223Y-42160D01*
X91111Y-42273D01*
X91050Y-42420D01*
X91049Y-42579D01*
X91110Y-42726D01*
X91223Y-42838D01*
X91370Y-42899D01*
X91529Y-42900D01*
X91676Y-42839D01*
X91680Y-42835D01*
X91695Y-42849D01*
X91755Y-42875D01*
X91695Y-42900D01*
X91624Y-42970D01*
X91586Y-43062D01*
X91586Y-43137D01*
X91649Y-43200D01*
X91924Y-43200D01*
X91924Y-43192D01*
X92024Y-43192D01*
X92024Y-43200D01*
X92032Y-43200D01*
X92032Y-43300D01*
X92024Y-43300D01*
X92024Y-43575D01*
X92074Y-43625D01*
X92024Y-43674D01*
X92024Y-43950D01*
X92032Y-43950D01*
X92032Y-44050D01*
X92024Y-44050D01*
X92024Y-44325D01*
X92086Y-44387D01*
X92161Y-44387D01*
X92249Y-44351D01*
X92338Y-44387D01*
X92437Y-44387D01*
X92599Y-44387D01*
X92599Y-44429D01*
X92660Y-44576D01*
X92663Y-44578D01*
X92663Y-44578D01*
G54D10*
G36*
X93303Y-42237D02*
X93226Y-42161D01*
X93079Y-42100D01*
X92920Y-42099D01*
X92801Y-42149D01*
X92744Y-42124D01*
X92804Y-42099D01*
X92875Y-42029D01*
X92913Y-41937D01*
X92913Y-41862D01*
X92850Y-41800D01*
X92575Y-41800D01*
X92575Y-41807D01*
X92475Y-41807D01*
X92475Y-41800D01*
X92467Y-41800D01*
X92467Y-41700D01*
X92475Y-41700D01*
X92475Y-41692D01*
X92575Y-41692D01*
X92575Y-41700D01*
X92850Y-41700D01*
X92913Y-41637D01*
X92913Y-41600D01*
X93200Y-41600D01*
X93200Y-41599D01*
X93285Y-41583D01*
X93285Y-41642D01*
X93285Y-42193D01*
X93303Y-42237D01*
X93303Y-42237D01*
G37*
G54D31*
X93303Y-42237D02*
X93226Y-42161D01*
X93079Y-42100D01*
X92920Y-42099D01*
X92801Y-42149D01*
X92744Y-42124D01*
X92804Y-42099D01*
X92875Y-42029D01*
X92913Y-41937D01*
X92913Y-41862D01*
X92850Y-41800D01*
X92575Y-41800D01*
X92575Y-41807D01*
X92475Y-41807D01*
X92475Y-41800D01*
X92467Y-41800D01*
X92467Y-41700D01*
X92475Y-41700D01*
X92475Y-41692D01*
X92575Y-41692D01*
X92575Y-41700D01*
X92850Y-41700D01*
X92913Y-41637D01*
X92913Y-41600D01*
X93200Y-41600D01*
X93200Y-41599D01*
X93285Y-41583D01*
X93285Y-41642D01*
X93285Y-42193D01*
X93303Y-42237D01*
G54D10*
G36*
X94510Y-38564D02*
X94375Y-38700D01*
X93750Y-38700D01*
X93635Y-38722D01*
X93596Y-38748D01*
X93537Y-38787D01*
X93287Y-39037D01*
X93222Y-39135D01*
X93218Y-39158D01*
X93160Y-39216D01*
X93122Y-39308D01*
X93122Y-39407D01*
X93122Y-39825D01*
X93160Y-39917D01*
X93217Y-39974D01*
X93204Y-39974D01*
X92948Y-39974D01*
X92856Y-40012D01*
X92786Y-40082D01*
X92748Y-40174D01*
X92748Y-40274D01*
X92748Y-40500D01*
X92501Y-40500D01*
X92501Y-40320D01*
X92501Y-40174D01*
X92463Y-40082D01*
X92393Y-40012D01*
X92301Y-39974D01*
X92236Y-39974D01*
X92174Y-40036D01*
X92174Y-40383D01*
X92439Y-40383D01*
X92501Y-40320D01*
X92501Y-40500D01*
X92456Y-40500D01*
X92439Y-40483D01*
X92174Y-40483D01*
X92174Y-40490D01*
X92074Y-40490D01*
X92074Y-40483D01*
X92066Y-40483D01*
X92066Y-40383D01*
X92074Y-40383D01*
X92074Y-40036D01*
X92022Y-39984D01*
X92032Y-39974D01*
X92089Y-39917D01*
X92127Y-39825D01*
X92127Y-39725D01*
X92127Y-39308D01*
X92124Y-39300D01*
X92750Y-39300D01*
X92750Y-39299D01*
X92864Y-39277D01*
X92864Y-39277D01*
X92962Y-39212D01*
X93212Y-38962D01*
X93212Y-38962D01*
X93251Y-38903D01*
X93277Y-38864D01*
X93277Y-38864D01*
X93300Y-38750D01*
X93300Y-38528D01*
X93387Y-38564D01*
X93611Y-38565D01*
X93819Y-38479D01*
X93978Y-38320D01*
X93999Y-38269D01*
X94020Y-38319D01*
X94179Y-38478D01*
X94387Y-38564D01*
X94510Y-38564D01*
X94510Y-38564D01*
G37*
G54D31*
X94510Y-38564D02*
X94375Y-38700D01*
X93750Y-38700D01*
X93635Y-38722D01*
X93596Y-38748D01*
X93537Y-38787D01*
X93287Y-39037D01*
X93222Y-39135D01*
X93218Y-39158D01*
X93160Y-39216D01*
X93122Y-39308D01*
X93122Y-39407D01*
X93122Y-39825D01*
X93160Y-39917D01*
X93217Y-39974D01*
X93204Y-39974D01*
X92948Y-39974D01*
X92856Y-40012D01*
X92786Y-40082D01*
X92748Y-40174D01*
X92748Y-40274D01*
X92748Y-40500D01*
X92501Y-40500D01*
X92501Y-40320D01*
X92501Y-40174D01*
X92463Y-40082D01*
X92393Y-40012D01*
X92301Y-39974D01*
X92236Y-39974D01*
X92174Y-40036D01*
X92174Y-40383D01*
X92439Y-40383D01*
X92501Y-40320D01*
X92501Y-40500D01*
X92456Y-40500D01*
X92439Y-40483D01*
X92174Y-40483D01*
X92174Y-40490D01*
X92074Y-40490D01*
X92074Y-40483D01*
X92066Y-40483D01*
X92066Y-40383D01*
X92074Y-40383D01*
X92074Y-40036D01*
X92022Y-39984D01*
X92032Y-39974D01*
X92089Y-39917D01*
X92127Y-39825D01*
X92127Y-39725D01*
X92127Y-39308D01*
X92124Y-39300D01*
X92750Y-39300D01*
X92750Y-39299D01*
X92864Y-39277D01*
X92864Y-39277D01*
X92962Y-39212D01*
X93212Y-38962D01*
X93212Y-38962D01*
X93251Y-38903D01*
X93277Y-38864D01*
X93277Y-38864D01*
X93300Y-38750D01*
X93300Y-38528D01*
X93387Y-38564D01*
X93611Y-38565D01*
X93819Y-38479D01*
X93978Y-38320D01*
X93999Y-38269D01*
X94020Y-38319D01*
X94179Y-38478D01*
X94387Y-38564D01*
X94510Y-38564D01*
G54D10*
G36*
X94967Y-39974D02*
X94954Y-39974D01*
X94698Y-39974D01*
X94606Y-40012D01*
X94536Y-40082D01*
X94498Y-40174D01*
X94498Y-40274D01*
X94498Y-40500D01*
X94251Y-40500D01*
X94251Y-40320D01*
X94251Y-40174D01*
X94213Y-40082D01*
X94143Y-40012D01*
X94051Y-39974D01*
X93986Y-39974D01*
X93924Y-40036D01*
X93924Y-40383D01*
X94189Y-40383D01*
X94251Y-40320D01*
X94251Y-40500D01*
X94206Y-40500D01*
X94189Y-40483D01*
X93924Y-40483D01*
X93924Y-40490D01*
X93824Y-40490D01*
X93824Y-40483D01*
X93816Y-40483D01*
X93816Y-40383D01*
X93824Y-40383D01*
X93824Y-40036D01*
X93772Y-39984D01*
X93782Y-39974D01*
X93839Y-39917D01*
X93877Y-39825D01*
X93877Y-39725D01*
X93877Y-39308D01*
X93874Y-39300D01*
X94500Y-39300D01*
X94500Y-39299D01*
X94614Y-39277D01*
X94614Y-39277D01*
X94712Y-39212D01*
X94950Y-38974D01*
X94950Y-39176D01*
X94910Y-39216D01*
X94872Y-39308D01*
X94872Y-39407D01*
X94872Y-39825D01*
X94910Y-39917D01*
X94967Y-39974D01*
X94967Y-39974D01*
G37*
G54D31*
X94967Y-39974D02*
X94954Y-39974D01*
X94698Y-39974D01*
X94606Y-40012D01*
X94536Y-40082D01*
X94498Y-40174D01*
X94498Y-40274D01*
X94498Y-40500D01*
X94251Y-40500D01*
X94251Y-40320D01*
X94251Y-40174D01*
X94213Y-40082D01*
X94143Y-40012D01*
X94051Y-39974D01*
X93986Y-39974D01*
X93924Y-40036D01*
X93924Y-40383D01*
X94189Y-40383D01*
X94251Y-40320D01*
X94251Y-40500D01*
X94206Y-40500D01*
X94189Y-40483D01*
X93924Y-40483D01*
X93924Y-40490D01*
X93824Y-40490D01*
X93824Y-40483D01*
X93816Y-40483D01*
X93816Y-40383D01*
X93824Y-40383D01*
X93824Y-40036D01*
X93772Y-39984D01*
X93782Y-39974D01*
X93839Y-39917D01*
X93877Y-39825D01*
X93877Y-39725D01*
X93877Y-39308D01*
X93874Y-39300D01*
X94500Y-39300D01*
X94500Y-39299D01*
X94614Y-39277D01*
X94614Y-39277D01*
X94712Y-39212D01*
X94950Y-38974D01*
X94950Y-39176D01*
X94910Y-39216D01*
X94872Y-39308D01*
X94872Y-39407D01*
X94872Y-39825D01*
X94910Y-39917D01*
X94967Y-39974D01*
G54D10*
G36*
X95221Y-35550D02*
X95185Y-35637D01*
X95184Y-35861D01*
X95193Y-35882D01*
X95037Y-36037D01*
X94972Y-36135D01*
X94950Y-36250D01*
X94950Y-36399D01*
X94829Y-36350D01*
X94670Y-36349D01*
X94523Y-36410D01*
X94411Y-36523D01*
X94350Y-36670D01*
X94350Y-36725D01*
X93875Y-37200D01*
X93250Y-37200D01*
X93135Y-37222D01*
X93096Y-37248D01*
X93037Y-37287D01*
X92787Y-37537D01*
X92722Y-37635D01*
X92716Y-37667D01*
X92570Y-37521D01*
X92362Y-37435D01*
X92138Y-37434D01*
X91930Y-37520D01*
X91771Y-37679D01*
X91750Y-37730D01*
X91729Y-37680D01*
X91570Y-37521D01*
X91362Y-37435D01*
X91138Y-37434D01*
X90930Y-37520D01*
X90771Y-37679D01*
X90685Y-37887D01*
X90684Y-38111D01*
X90770Y-38319D01*
X90929Y-38478D01*
X91137Y-38564D01*
X91361Y-38565D01*
X91569Y-38479D01*
X91728Y-38320D01*
X91749Y-38269D01*
X91770Y-38319D01*
X91929Y-38478D01*
X92137Y-38564D01*
X92361Y-38565D01*
X92569Y-38479D01*
X92700Y-38349D01*
X92700Y-38625D01*
X92625Y-38700D01*
X92000Y-38700D01*
X91885Y-38722D01*
X91846Y-38748D01*
X91787Y-38787D01*
X91537Y-39037D01*
X91472Y-39135D01*
X91468Y-39158D01*
X91410Y-39216D01*
X91372Y-39308D01*
X91372Y-39407D01*
X91372Y-39825D01*
X91410Y-39917D01*
X91467Y-39974D01*
X91454Y-39974D01*
X91198Y-39974D01*
X91106Y-40012D01*
X91036Y-40082D01*
X90998Y-40174D01*
X90998Y-40274D01*
X90998Y-40500D01*
X90751Y-40500D01*
X90751Y-40320D01*
X90751Y-40174D01*
X90713Y-40082D01*
X90643Y-40012D01*
X90565Y-39979D01*
X90565Y-37888D01*
X90479Y-37680D01*
X90320Y-37521D01*
X90112Y-37435D01*
X89888Y-37434D01*
X89680Y-37520D01*
X89521Y-37679D01*
X89500Y-37730D01*
X89479Y-37680D01*
X89320Y-37521D01*
X89112Y-37435D01*
X88888Y-37434D01*
X88680Y-37520D01*
X88521Y-37679D01*
X88435Y-37887D01*
X88434Y-38111D01*
X88520Y-38319D01*
X88679Y-38478D01*
X88887Y-38564D01*
X89111Y-38565D01*
X89319Y-38479D01*
X89478Y-38320D01*
X89499Y-38269D01*
X89520Y-38319D01*
X89679Y-38478D01*
X89887Y-38564D01*
X90111Y-38565D01*
X90319Y-38479D01*
X90478Y-38320D01*
X90564Y-38112D01*
X90565Y-37888D01*
X90565Y-39979D01*
X90551Y-39974D01*
X90486Y-39974D01*
X90424Y-40036D01*
X90424Y-40383D01*
X90689Y-40383D01*
X90751Y-40320D01*
X90751Y-40500D01*
X90706Y-40500D01*
X90689Y-40483D01*
X90424Y-40483D01*
X90424Y-40490D01*
X90324Y-40490D01*
X90324Y-40483D01*
X90316Y-40483D01*
X90316Y-40383D01*
X90324Y-40383D01*
X90324Y-40036D01*
X90272Y-39984D01*
X90282Y-39974D01*
X90339Y-39917D01*
X90377Y-39825D01*
X90377Y-39725D01*
X90377Y-39308D01*
X90339Y-39216D01*
X90281Y-39158D01*
X90277Y-39135D01*
X90277Y-39135D01*
X90251Y-39096D01*
X90212Y-39037D01*
X89962Y-38787D01*
X89864Y-38722D01*
X89750Y-38700D01*
X88624Y-38700D01*
X88462Y-38537D01*
X88364Y-38472D01*
X88250Y-38450D01*
X88098Y-38450D01*
X88228Y-38320D01*
X88314Y-38112D01*
X88315Y-37888D01*
X88229Y-37680D01*
X88070Y-37521D01*
X87862Y-37435D01*
X87638Y-37434D01*
X87511Y-37487D01*
X87312Y-37287D01*
X87214Y-37222D01*
X87100Y-37200D01*
X86674Y-37200D01*
X86650Y-37175D01*
X86650Y-36600D01*
X87200Y-36600D01*
X87200Y-36599D01*
X87314Y-36577D01*
X87314Y-36577D01*
X87412Y-36512D01*
X87617Y-36306D01*
X87637Y-36314D01*
X87861Y-36315D01*
X88069Y-36229D01*
X88228Y-36070D01*
X88314Y-35862D01*
X88315Y-35638D01*
X88278Y-35550D01*
X88471Y-35550D01*
X88435Y-35637D01*
X88434Y-35861D01*
X88520Y-36069D01*
X88679Y-36228D01*
X88887Y-36314D01*
X89111Y-36315D01*
X89319Y-36229D01*
X89478Y-36070D01*
X89499Y-36019D01*
X89520Y-36069D01*
X89679Y-36228D01*
X89887Y-36314D01*
X90111Y-36315D01*
X90319Y-36229D01*
X90478Y-36070D01*
X90564Y-35862D01*
X90565Y-35638D01*
X90528Y-35550D01*
X90721Y-35550D01*
X90685Y-35637D01*
X90684Y-35861D01*
X90770Y-36069D01*
X90929Y-36228D01*
X91137Y-36314D01*
X91361Y-36315D01*
X91569Y-36229D01*
X91728Y-36070D01*
X91749Y-36019D01*
X91770Y-36069D01*
X91929Y-36228D01*
X92137Y-36314D01*
X92361Y-36315D01*
X92569Y-36229D01*
X92728Y-36070D01*
X92814Y-35862D01*
X92815Y-35638D01*
X92778Y-35550D01*
X92971Y-35550D01*
X92935Y-35637D01*
X92934Y-35861D01*
X93020Y-36069D01*
X93179Y-36228D01*
X93387Y-36314D01*
X93611Y-36315D01*
X93819Y-36229D01*
X93978Y-36070D01*
X93999Y-36019D01*
X94020Y-36069D01*
X94179Y-36228D01*
X94387Y-36314D01*
X94611Y-36315D01*
X94819Y-36229D01*
X94978Y-36070D01*
X95064Y-35862D01*
X95065Y-35638D01*
X95028Y-35550D01*
X95221Y-35550D01*
X95221Y-35550D01*
G37*
G54D31*
X95221Y-35550D02*
X95185Y-35637D01*
X95184Y-35861D01*
X95193Y-35882D01*
X95037Y-36037D01*
X94972Y-36135D01*
X94950Y-36250D01*
X94950Y-36399D01*
X94829Y-36350D01*
X94670Y-36349D01*
X94523Y-36410D01*
X94411Y-36523D01*
X94350Y-36670D01*
X94350Y-36725D01*
X93875Y-37200D01*
X93250Y-37200D01*
X93135Y-37222D01*
X93096Y-37248D01*
X93037Y-37287D01*
X92787Y-37537D01*
X92722Y-37635D01*
X92716Y-37667D01*
X92570Y-37521D01*
X92362Y-37435D01*
X92138Y-37434D01*
X91930Y-37520D01*
X91771Y-37679D01*
X91750Y-37730D01*
X91729Y-37680D01*
X91570Y-37521D01*
X91362Y-37435D01*
X91138Y-37434D01*
X90930Y-37520D01*
X90771Y-37679D01*
X90685Y-37887D01*
X90684Y-38111D01*
X90770Y-38319D01*
X90929Y-38478D01*
X91137Y-38564D01*
X91361Y-38565D01*
X91569Y-38479D01*
X91728Y-38320D01*
X91749Y-38269D01*
X91770Y-38319D01*
X91929Y-38478D01*
X92137Y-38564D01*
X92361Y-38565D01*
X92569Y-38479D01*
X92700Y-38349D01*
X92700Y-38625D01*
X92625Y-38700D01*
X92000Y-38700D01*
X91885Y-38722D01*
X91846Y-38748D01*
X91787Y-38787D01*
X91537Y-39037D01*
X91472Y-39135D01*
X91468Y-39158D01*
X91410Y-39216D01*
X91372Y-39308D01*
X91372Y-39407D01*
X91372Y-39825D01*
X91410Y-39917D01*
X91467Y-39974D01*
X91454Y-39974D01*
X91198Y-39974D01*
X91106Y-40012D01*
X91036Y-40082D01*
X90998Y-40174D01*
X90998Y-40274D01*
X90998Y-40500D01*
X90751Y-40500D01*
X90751Y-40320D01*
X90751Y-40174D01*
X90713Y-40082D01*
X90643Y-40012D01*
X90565Y-39979D01*
X90565Y-37888D01*
X90479Y-37680D01*
X90320Y-37521D01*
X90112Y-37435D01*
X89888Y-37434D01*
X89680Y-37520D01*
X89521Y-37679D01*
X89500Y-37730D01*
X89479Y-37680D01*
X89320Y-37521D01*
X89112Y-37435D01*
X88888Y-37434D01*
X88680Y-37520D01*
X88521Y-37679D01*
X88435Y-37887D01*
X88434Y-38111D01*
X88520Y-38319D01*
X88679Y-38478D01*
X88887Y-38564D01*
X89111Y-38565D01*
X89319Y-38479D01*
X89478Y-38320D01*
X89499Y-38269D01*
X89520Y-38319D01*
X89679Y-38478D01*
X89887Y-38564D01*
X90111Y-38565D01*
X90319Y-38479D01*
X90478Y-38320D01*
X90564Y-38112D01*
X90565Y-37888D01*
X90565Y-39979D01*
X90551Y-39974D01*
X90486Y-39974D01*
X90424Y-40036D01*
X90424Y-40383D01*
X90689Y-40383D01*
X90751Y-40320D01*
X90751Y-40500D01*
X90706Y-40500D01*
X90689Y-40483D01*
X90424Y-40483D01*
X90424Y-40490D01*
X90324Y-40490D01*
X90324Y-40483D01*
X90316Y-40483D01*
X90316Y-40383D01*
X90324Y-40383D01*
X90324Y-40036D01*
X90272Y-39984D01*
X90282Y-39974D01*
X90339Y-39917D01*
X90377Y-39825D01*
X90377Y-39725D01*
X90377Y-39308D01*
X90339Y-39216D01*
X90281Y-39158D01*
X90277Y-39135D01*
X90277Y-39135D01*
X90251Y-39096D01*
X90212Y-39037D01*
X89962Y-38787D01*
X89864Y-38722D01*
X89750Y-38700D01*
X88624Y-38700D01*
X88462Y-38537D01*
X88364Y-38472D01*
X88250Y-38450D01*
X88098Y-38450D01*
X88228Y-38320D01*
X88314Y-38112D01*
X88315Y-37888D01*
X88229Y-37680D01*
X88070Y-37521D01*
X87862Y-37435D01*
X87638Y-37434D01*
X87511Y-37487D01*
X87312Y-37287D01*
X87214Y-37222D01*
X87100Y-37200D01*
X86674Y-37200D01*
X86650Y-37175D01*
X86650Y-36600D01*
X87200Y-36600D01*
X87200Y-36599D01*
X87314Y-36577D01*
X87314Y-36577D01*
X87412Y-36512D01*
X87617Y-36306D01*
X87637Y-36314D01*
X87861Y-36315D01*
X88069Y-36229D01*
X88228Y-36070D01*
X88314Y-35862D01*
X88315Y-35638D01*
X88278Y-35550D01*
X88471Y-35550D01*
X88435Y-35637D01*
X88434Y-35861D01*
X88520Y-36069D01*
X88679Y-36228D01*
X88887Y-36314D01*
X89111Y-36315D01*
X89319Y-36229D01*
X89478Y-36070D01*
X89499Y-36019D01*
X89520Y-36069D01*
X89679Y-36228D01*
X89887Y-36314D01*
X90111Y-36315D01*
X90319Y-36229D01*
X90478Y-36070D01*
X90564Y-35862D01*
X90565Y-35638D01*
X90528Y-35550D01*
X90721Y-35550D01*
X90685Y-35637D01*
X90684Y-35861D01*
X90770Y-36069D01*
X90929Y-36228D01*
X91137Y-36314D01*
X91361Y-36315D01*
X91569Y-36229D01*
X91728Y-36070D01*
X91749Y-36019D01*
X91770Y-36069D01*
X91929Y-36228D01*
X92137Y-36314D01*
X92361Y-36315D01*
X92569Y-36229D01*
X92728Y-36070D01*
X92814Y-35862D01*
X92815Y-35638D01*
X92778Y-35550D01*
X92971Y-35550D01*
X92935Y-35637D01*
X92934Y-35861D01*
X93020Y-36069D01*
X93179Y-36228D01*
X93387Y-36314D01*
X93611Y-36315D01*
X93819Y-36229D01*
X93978Y-36070D01*
X93999Y-36019D01*
X94020Y-36069D01*
X94179Y-36228D01*
X94387Y-36314D01*
X94611Y-36315D01*
X94819Y-36229D01*
X94978Y-36070D01*
X95064Y-35862D01*
X95065Y-35638D01*
X95028Y-35550D01*
X95221Y-35550D01*
G54D10*
G36*
X96532Y-45300D02*
X96524Y-45300D01*
X96424Y-45300D01*
X96149Y-45300D01*
X96100Y-45300D01*
X95985Y-45322D01*
X95946Y-45348D01*
X95913Y-45370D01*
X95913Y-45312D01*
X95875Y-45220D01*
X95804Y-45150D01*
X95713Y-45112D01*
X95638Y-45112D01*
X95575Y-45174D01*
X95575Y-45450D01*
X95583Y-45450D01*
X95583Y-45550D01*
X95575Y-45550D01*
X95475Y-45550D01*
X95467Y-45550D01*
X95467Y-45450D01*
X95475Y-45450D01*
X95475Y-45174D01*
X95413Y-45112D01*
X95338Y-45112D01*
X95250Y-45148D01*
X95161Y-45112D01*
X95062Y-45112D01*
X94786Y-45112D01*
X94695Y-45150D01*
X94645Y-45200D01*
X94616Y-45200D01*
X94616Y-45095D01*
X94578Y-45004D01*
X94507Y-44933D01*
X94495Y-44928D01*
X94584Y-44840D01*
X94584Y-44840D01*
X94623Y-44781D01*
X94649Y-44742D01*
X94649Y-44742D01*
X94666Y-44657D01*
X94678Y-44657D01*
X94678Y-44621D01*
X94696Y-44629D01*
X94725Y-44657D01*
X94746Y-44657D01*
X94756Y-44653D01*
X94765Y-44657D01*
X94864Y-44657D01*
X95002Y-44657D01*
X95011Y-44653D01*
X95021Y-44657D01*
X95120Y-44657D01*
X95258Y-44657D01*
X95267Y-44653D01*
X95277Y-44657D01*
X95376Y-44657D01*
X95514Y-44657D01*
X95606Y-44619D01*
X95676Y-44549D01*
X95715Y-44457D01*
X95715Y-44357D01*
X95715Y-44325D01*
X95722Y-44364D01*
X95787Y-44462D01*
X96037Y-44712D01*
X96096Y-44751D01*
X96119Y-44766D01*
X96119Y-44766D01*
X96124Y-44779D01*
X96195Y-44849D01*
X96255Y-44875D01*
X96195Y-44900D01*
X96124Y-44970D01*
X96086Y-45062D01*
X96086Y-45137D01*
X96149Y-45200D01*
X96424Y-45200D01*
X96424Y-45192D01*
X96524Y-45192D01*
X96524Y-45200D01*
X96532Y-45200D01*
X96532Y-45300D01*
X96532Y-45300D01*
G37*
G54D31*
X96532Y-45300D02*
X96524Y-45300D01*
X96424Y-45300D01*
X96149Y-45300D01*
X96100Y-45300D01*
X95985Y-45322D01*
X95946Y-45348D01*
X95913Y-45370D01*
X95913Y-45312D01*
X95875Y-45220D01*
X95804Y-45150D01*
X95713Y-45112D01*
X95638Y-45112D01*
X95575Y-45174D01*
X95575Y-45450D01*
X95583Y-45450D01*
X95583Y-45550D01*
X95575Y-45550D01*
X95475Y-45550D01*
X95467Y-45550D01*
X95467Y-45450D01*
X95475Y-45450D01*
X95475Y-45174D01*
X95413Y-45112D01*
X95338Y-45112D01*
X95250Y-45148D01*
X95161Y-45112D01*
X95062Y-45112D01*
X94786Y-45112D01*
X94695Y-45150D01*
X94645Y-45200D01*
X94616Y-45200D01*
X94616Y-45095D01*
X94578Y-45004D01*
X94507Y-44933D01*
X94495Y-44928D01*
X94584Y-44840D01*
X94584Y-44840D01*
X94623Y-44781D01*
X94649Y-44742D01*
X94649Y-44742D01*
X94666Y-44657D01*
X94678Y-44657D01*
X94678Y-44621D01*
X94696Y-44629D01*
X94725Y-44657D01*
X94746Y-44657D01*
X94756Y-44653D01*
X94765Y-44657D01*
X94864Y-44657D01*
X95002Y-44657D01*
X95011Y-44653D01*
X95021Y-44657D01*
X95120Y-44657D01*
X95258Y-44657D01*
X95267Y-44653D01*
X95277Y-44657D01*
X95376Y-44657D01*
X95514Y-44657D01*
X95606Y-44619D01*
X95676Y-44549D01*
X95715Y-44457D01*
X95715Y-44357D01*
X95715Y-44325D01*
X95722Y-44364D01*
X95787Y-44462D01*
X96037Y-44712D01*
X96096Y-44751D01*
X96119Y-44766D01*
X96119Y-44766D01*
X96124Y-44779D01*
X96195Y-44849D01*
X96255Y-44875D01*
X96195Y-44900D01*
X96124Y-44970D01*
X96086Y-45062D01*
X96086Y-45137D01*
X96149Y-45200D01*
X96424Y-45200D01*
X96424Y-45192D01*
X96524Y-45192D01*
X96524Y-45200D01*
X96532Y-45200D01*
X96532Y-45300D01*
G54D10*
G36*
X97443Y-38132D02*
X96787Y-38787D01*
X96722Y-38885D01*
X96700Y-39000D01*
X96700Y-39176D01*
X96660Y-39216D01*
X96622Y-39308D01*
X96622Y-39407D01*
X96622Y-39825D01*
X96660Y-39917D01*
X96717Y-39974D01*
X96704Y-39974D01*
X96448Y-39974D01*
X96356Y-40012D01*
X96286Y-40082D01*
X96248Y-40174D01*
X96248Y-40274D01*
X96248Y-40500D01*
X96001Y-40500D01*
X96001Y-40320D01*
X96001Y-40174D01*
X95963Y-40082D01*
X95893Y-40012D01*
X95801Y-39974D01*
X95736Y-39974D01*
X95674Y-40036D01*
X95674Y-40383D01*
X95939Y-40383D01*
X96001Y-40320D01*
X96001Y-40500D01*
X95956Y-40500D01*
X95939Y-40483D01*
X95674Y-40483D01*
X95674Y-40490D01*
X95574Y-40490D01*
X95574Y-40483D01*
X95566Y-40483D01*
X95566Y-40383D01*
X95574Y-40383D01*
X95574Y-40036D01*
X95522Y-39984D01*
X95532Y-39974D01*
X95589Y-39917D01*
X95627Y-39825D01*
X95627Y-39725D01*
X95627Y-39308D01*
X95589Y-39216D01*
X95550Y-39176D01*
X95550Y-38528D01*
X95637Y-38564D01*
X95861Y-38565D01*
X96069Y-38479D01*
X96228Y-38320D01*
X96249Y-38269D01*
X96270Y-38319D01*
X96429Y-38478D01*
X96637Y-38564D01*
X96861Y-38565D01*
X97069Y-38479D01*
X97228Y-38320D01*
X97314Y-38112D01*
X97315Y-37888D01*
X97278Y-37800D01*
X97375Y-37800D01*
X97443Y-37867D01*
X97435Y-37887D01*
X97434Y-38111D01*
X97443Y-38132D01*
X97443Y-38132D01*
G37*
G54D31*
X97443Y-38132D02*
X96787Y-38787D01*
X96722Y-38885D01*
X96700Y-39000D01*
X96700Y-39176D01*
X96660Y-39216D01*
X96622Y-39308D01*
X96622Y-39407D01*
X96622Y-39825D01*
X96660Y-39917D01*
X96717Y-39974D01*
X96704Y-39974D01*
X96448Y-39974D01*
X96356Y-40012D01*
X96286Y-40082D01*
X96248Y-40174D01*
X96248Y-40274D01*
X96248Y-40500D01*
X96001Y-40500D01*
X96001Y-40320D01*
X96001Y-40174D01*
X95963Y-40082D01*
X95893Y-40012D01*
X95801Y-39974D01*
X95736Y-39974D01*
X95674Y-40036D01*
X95674Y-40383D01*
X95939Y-40383D01*
X96001Y-40320D01*
X96001Y-40500D01*
X95956Y-40500D01*
X95939Y-40483D01*
X95674Y-40483D01*
X95674Y-40490D01*
X95574Y-40490D01*
X95574Y-40483D01*
X95566Y-40483D01*
X95566Y-40383D01*
X95574Y-40383D01*
X95574Y-40036D01*
X95522Y-39984D01*
X95532Y-39974D01*
X95589Y-39917D01*
X95627Y-39825D01*
X95627Y-39725D01*
X95627Y-39308D01*
X95589Y-39216D01*
X95550Y-39176D01*
X95550Y-38528D01*
X95637Y-38564D01*
X95861Y-38565D01*
X96069Y-38479D01*
X96228Y-38320D01*
X96249Y-38269D01*
X96270Y-38319D01*
X96429Y-38478D01*
X96637Y-38564D01*
X96861Y-38565D01*
X97069Y-38479D01*
X97228Y-38320D01*
X97314Y-38112D01*
X97315Y-37888D01*
X97278Y-37800D01*
X97375Y-37800D01*
X97443Y-37867D01*
X97435Y-37887D01*
X97434Y-38111D01*
X97443Y-38132D01*
G54D10*
G36*
X98569Y-45015D02*
X98545Y-45073D01*
X98545Y-45173D01*
X98545Y-45980D01*
X96143Y-45980D01*
X96224Y-45900D01*
X97350Y-45900D01*
X97350Y-45899D01*
X97464Y-45877D01*
X97464Y-45877D01*
X97562Y-45812D01*
X97712Y-45662D01*
X97712Y-45662D01*
X97777Y-45564D01*
X97799Y-45450D01*
X97800Y-45450D01*
X97800Y-45200D01*
X97800Y-44940D01*
X97821Y-44940D01*
X98372Y-44940D01*
X98464Y-44902D01*
X98535Y-44832D01*
X98545Y-44806D01*
X98545Y-44956D01*
X98569Y-45015D01*
X98569Y-45015D01*
G37*
G54D31*
X98569Y-45015D02*
X98545Y-45073D01*
X98545Y-45173D01*
X98545Y-45980D01*
X96143Y-45980D01*
X96224Y-45900D01*
X97350Y-45900D01*
X97350Y-45899D01*
X97464Y-45877D01*
X97464Y-45877D01*
X97562Y-45812D01*
X97712Y-45662D01*
X97712Y-45662D01*
X97777Y-45564D01*
X97799Y-45450D01*
X97800Y-45450D01*
X97800Y-45200D01*
X97800Y-44940D01*
X97821Y-44940D01*
X98372Y-44940D01*
X98464Y-44902D01*
X98535Y-44832D01*
X98545Y-44806D01*
X98545Y-44956D01*
X98569Y-45015D01*
G54D10*
G36*
X99480Y-30933D02*
X99479Y-30930D01*
X99320Y-30771D01*
X99112Y-30685D01*
X98888Y-30684D01*
X98680Y-30770D01*
X98521Y-30929D01*
X98500Y-30980D01*
X98479Y-30930D01*
X98320Y-30771D01*
X98112Y-30685D01*
X97888Y-30684D01*
X97680Y-30770D01*
X97537Y-30913D01*
X97162Y-30537D01*
X97064Y-30472D01*
X96950Y-30450D01*
X96250Y-30450D01*
X94000Y-30450D01*
X91750Y-30450D01*
X89500Y-30450D01*
X87250Y-30450D01*
X85000Y-30450D01*
X82750Y-30450D01*
X80500Y-30450D01*
X78250Y-30450D01*
X78135Y-30472D01*
X78037Y-30537D01*
X77882Y-30693D01*
X77862Y-30685D01*
X77638Y-30684D01*
X77430Y-30770D01*
X77271Y-30929D01*
X77185Y-31137D01*
X77184Y-31361D01*
X77221Y-31450D01*
X77028Y-31450D01*
X77064Y-31362D01*
X77065Y-31138D01*
X76979Y-30930D01*
X76820Y-30771D01*
X76612Y-30685D01*
X76388Y-30684D01*
X76180Y-30770D01*
X76021Y-30929D01*
X76000Y-30980D01*
X75979Y-30930D01*
X75820Y-30771D01*
X75612Y-30685D01*
X75388Y-30684D01*
X75367Y-30693D01*
X75212Y-30537D01*
X75114Y-30472D01*
X75000Y-30450D01*
X72750Y-30450D01*
X70500Y-30450D01*
X68250Y-30450D01*
X66000Y-30450D01*
X63750Y-30450D01*
X61500Y-30450D01*
X59250Y-30450D01*
X57000Y-30450D01*
X55750Y-30450D01*
X55635Y-30472D01*
X55537Y-30537D01*
X55382Y-30693D01*
X55362Y-30685D01*
X55138Y-30684D01*
X54930Y-30770D01*
X54787Y-30913D01*
X54412Y-30537D01*
X54314Y-30472D01*
X54200Y-30450D01*
X53500Y-30450D01*
X53385Y-30472D01*
X53287Y-30537D01*
X53132Y-30693D01*
X53112Y-30685D01*
X52888Y-30684D01*
X52680Y-30770D01*
X52521Y-30929D01*
X52519Y-30933D01*
X52519Y-30269D01*
X99480Y-30269D01*
X99480Y-30933D01*
X99480Y-30933D01*
G37*
G54D31*
X99480Y-30933D02*
X99479Y-30930D01*
X99320Y-30771D01*
X99112Y-30685D01*
X98888Y-30684D01*
X98680Y-30770D01*
X98521Y-30929D01*
X98500Y-30980D01*
X98479Y-30930D01*
X98320Y-30771D01*
X98112Y-30685D01*
X97888Y-30684D01*
X97680Y-30770D01*
X97537Y-30913D01*
X97162Y-30537D01*
X97064Y-30472D01*
X96950Y-30450D01*
X96250Y-30450D01*
X94000Y-30450D01*
X91750Y-30450D01*
X89500Y-30450D01*
X87250Y-30450D01*
X85000Y-30450D01*
X82750Y-30450D01*
X80500Y-30450D01*
X78250Y-30450D01*
X78135Y-30472D01*
X78037Y-30537D01*
X77882Y-30693D01*
X77862Y-30685D01*
X77638Y-30684D01*
X77430Y-30770D01*
X77271Y-30929D01*
X77185Y-31137D01*
X77184Y-31361D01*
X77221Y-31450D01*
X77028Y-31450D01*
X77064Y-31362D01*
X77065Y-31138D01*
X76979Y-30930D01*
X76820Y-30771D01*
X76612Y-30685D01*
X76388Y-30684D01*
X76180Y-30770D01*
X76021Y-30929D01*
X76000Y-30980D01*
X75979Y-30930D01*
X75820Y-30771D01*
X75612Y-30685D01*
X75388Y-30684D01*
X75367Y-30693D01*
X75212Y-30537D01*
X75114Y-30472D01*
X75000Y-30450D01*
X72750Y-30450D01*
X70500Y-30450D01*
X68250Y-30450D01*
X66000Y-30450D01*
X63750Y-30450D01*
X61500Y-30450D01*
X59250Y-30450D01*
X57000Y-30450D01*
X55750Y-30450D01*
X55635Y-30472D01*
X55537Y-30537D01*
X55382Y-30693D01*
X55362Y-30685D01*
X55138Y-30684D01*
X54930Y-30770D01*
X54787Y-30913D01*
X54412Y-30537D01*
X54314Y-30472D01*
X54200Y-30450D01*
X53500Y-30450D01*
X53385Y-30472D01*
X53287Y-30537D01*
X53132Y-30693D01*
X53112Y-30685D01*
X52888Y-30684D01*
X52680Y-30770D01*
X52521Y-30929D01*
X52519Y-30933D01*
X52519Y-30269D01*
X99480Y-30269D01*
X99480Y-30933D01*
G54D10*
G36*
X99480Y-33183D02*
X99479Y-33180D01*
X99320Y-33021D01*
X99112Y-32935D01*
X98888Y-32934D01*
X98680Y-33020D01*
X98521Y-33179D01*
X98500Y-33230D01*
X98479Y-33180D01*
X98320Y-33021D01*
X98112Y-32935D01*
X97888Y-32934D01*
X97867Y-32943D01*
X97712Y-32787D01*
X97614Y-32722D01*
X97500Y-32700D01*
X96250Y-32700D01*
X94000Y-32700D01*
X91750Y-32700D01*
X89500Y-32700D01*
X88224Y-32700D01*
X88374Y-32550D01*
X90000Y-32550D01*
X90000Y-32549D01*
X90114Y-32527D01*
X90114Y-32527D01*
X90212Y-32462D01*
X90374Y-32300D01*
X92000Y-32300D01*
X92000Y-32299D01*
X92114Y-32277D01*
X92114Y-32277D01*
X92212Y-32212D01*
X92374Y-32050D01*
X94000Y-32050D01*
X94000Y-32049D01*
X94114Y-32027D01*
X94114Y-32027D01*
X94212Y-31962D01*
X94367Y-31806D01*
X94387Y-31814D01*
X94611Y-31815D01*
X94819Y-31729D01*
X94978Y-31570D01*
X95064Y-31362D01*
X95065Y-31138D01*
X95028Y-31050D01*
X95221Y-31050D01*
X95185Y-31137D01*
X95184Y-31361D01*
X95270Y-31569D01*
X95429Y-31728D01*
X95637Y-31814D01*
X95861Y-31815D01*
X96069Y-31729D01*
X96228Y-31570D01*
X96249Y-31519D01*
X96270Y-31569D01*
X96429Y-31728D01*
X96637Y-31814D01*
X96861Y-31815D01*
X97069Y-31729D01*
X97228Y-31570D01*
X97265Y-31480D01*
X97335Y-31527D01*
X97450Y-31550D01*
X97512Y-31550D01*
X97520Y-31569D01*
X97679Y-31728D01*
X97887Y-31814D01*
X98111Y-31815D01*
X98319Y-31729D01*
X98478Y-31570D01*
X98499Y-31519D01*
X98520Y-31569D01*
X98679Y-31728D01*
X98887Y-31814D01*
X99111Y-31815D01*
X99319Y-31729D01*
X99478Y-31570D01*
X99480Y-31566D01*
X99480Y-33183D01*
X99480Y-33183D01*
G37*
G54D31*
X99480Y-33183D02*
X99479Y-33180D01*
X99320Y-33021D01*
X99112Y-32935D01*
X98888Y-32934D01*
X98680Y-33020D01*
X98521Y-33179D01*
X98500Y-33230D01*
X98479Y-33180D01*
X98320Y-33021D01*
X98112Y-32935D01*
X97888Y-32934D01*
X97867Y-32943D01*
X97712Y-32787D01*
X97614Y-32722D01*
X97500Y-32700D01*
X96250Y-32700D01*
X94000Y-32700D01*
X91750Y-32700D01*
X89500Y-32700D01*
X88224Y-32700D01*
X88374Y-32550D01*
X90000Y-32550D01*
X90000Y-32549D01*
X90114Y-32527D01*
X90114Y-32527D01*
X90212Y-32462D01*
X90374Y-32300D01*
X92000Y-32300D01*
X92000Y-32299D01*
X92114Y-32277D01*
X92114Y-32277D01*
X92212Y-32212D01*
X92374Y-32050D01*
X94000Y-32050D01*
X94000Y-32049D01*
X94114Y-32027D01*
X94114Y-32027D01*
X94212Y-31962D01*
X94367Y-31806D01*
X94387Y-31814D01*
X94611Y-31815D01*
X94819Y-31729D01*
X94978Y-31570D01*
X95064Y-31362D01*
X95065Y-31138D01*
X95028Y-31050D01*
X95221Y-31050D01*
X95185Y-31137D01*
X95184Y-31361D01*
X95270Y-31569D01*
X95429Y-31728D01*
X95637Y-31814D01*
X95861Y-31815D01*
X96069Y-31729D01*
X96228Y-31570D01*
X96249Y-31519D01*
X96270Y-31569D01*
X96429Y-31728D01*
X96637Y-31814D01*
X96861Y-31815D01*
X97069Y-31729D01*
X97228Y-31570D01*
X97265Y-31480D01*
X97335Y-31527D01*
X97450Y-31550D01*
X97512Y-31550D01*
X97520Y-31569D01*
X97679Y-31728D01*
X97887Y-31814D01*
X98111Y-31815D01*
X98319Y-31729D01*
X98478Y-31570D01*
X98499Y-31519D01*
X98520Y-31569D01*
X98679Y-31728D01*
X98887Y-31814D01*
X99111Y-31815D01*
X99319Y-31729D01*
X99478Y-31570D01*
X99480Y-31566D01*
X99480Y-33183D01*
G54D10*
G36*
X99480Y-35433D02*
X99479Y-35430D01*
X99320Y-35271D01*
X99112Y-35185D01*
X98888Y-35184D01*
X98680Y-35270D01*
X98521Y-35429D01*
X98500Y-35480D01*
X98479Y-35430D01*
X98320Y-35271D01*
X98112Y-35185D01*
X97888Y-35184D01*
X97867Y-35193D01*
X97712Y-35037D01*
X97614Y-34972D01*
X97500Y-34950D01*
X96250Y-34950D01*
X94000Y-34950D01*
X91750Y-34950D01*
X89500Y-34950D01*
X87250Y-34950D01*
X85000Y-34950D01*
X82750Y-34950D01*
X80500Y-34950D01*
X78250Y-34950D01*
X78135Y-34972D01*
X78037Y-35037D01*
X77882Y-35193D01*
X77862Y-35185D01*
X77638Y-35184D01*
X77430Y-35270D01*
X77271Y-35429D01*
X77185Y-35637D01*
X77184Y-35861D01*
X77270Y-36069D01*
X77429Y-36228D01*
X77637Y-36314D01*
X77861Y-36315D01*
X78069Y-36229D01*
X78228Y-36070D01*
X78249Y-36019D01*
X78270Y-36069D01*
X78429Y-36228D01*
X78450Y-36237D01*
X78450Y-37512D01*
X78430Y-37520D01*
X78271Y-37679D01*
X78250Y-37730D01*
X78229Y-37680D01*
X78070Y-37521D01*
X77862Y-37435D01*
X77638Y-37434D01*
X77430Y-37520D01*
X77271Y-37679D01*
X77185Y-37887D01*
X77184Y-38111D01*
X77270Y-38319D01*
X77429Y-38478D01*
X77637Y-38564D01*
X77861Y-38565D01*
X78069Y-38479D01*
X78228Y-38320D01*
X78249Y-38269D01*
X78270Y-38319D01*
X78429Y-38478D01*
X78637Y-38564D01*
X78861Y-38565D01*
X79069Y-38479D01*
X79228Y-38320D01*
X79314Y-38112D01*
X79315Y-37888D01*
X79229Y-37680D01*
X79070Y-37521D01*
X79050Y-37512D01*
X79050Y-36237D01*
X79069Y-36229D01*
X79228Y-36070D01*
X79314Y-35862D01*
X79315Y-35638D01*
X79278Y-35550D01*
X79471Y-35550D01*
X79435Y-35637D01*
X79434Y-35861D01*
X79520Y-36069D01*
X79679Y-36228D01*
X79887Y-36314D01*
X80111Y-36315D01*
X80319Y-36229D01*
X80478Y-36070D01*
X80499Y-36019D01*
X80520Y-36069D01*
X80679Y-36228D01*
X80700Y-36237D01*
X80700Y-37512D01*
X80680Y-37520D01*
X80521Y-37679D01*
X80500Y-37730D01*
X80479Y-37680D01*
X80320Y-37521D01*
X80112Y-37435D01*
X79888Y-37434D01*
X79680Y-37520D01*
X79521Y-37679D01*
X79435Y-37887D01*
X79434Y-38111D01*
X79520Y-38319D01*
X79679Y-38478D01*
X79887Y-38564D01*
X80111Y-38565D01*
X80319Y-38479D01*
X80478Y-38320D01*
X80499Y-38269D01*
X80520Y-38319D01*
X80679Y-38478D01*
X80887Y-38564D01*
X81111Y-38565D01*
X81319Y-38479D01*
X81478Y-38320D01*
X81564Y-38112D01*
X81565Y-37888D01*
X81479Y-37680D01*
X81320Y-37521D01*
X81300Y-37512D01*
X81300Y-36237D01*
X81319Y-36229D01*
X81478Y-36070D01*
X81564Y-35862D01*
X81565Y-35638D01*
X81528Y-35550D01*
X81721Y-35550D01*
X81685Y-35637D01*
X81684Y-35861D01*
X81770Y-36069D01*
X81929Y-36228D01*
X82137Y-36314D01*
X82361Y-36315D01*
X82569Y-36229D01*
X82728Y-36070D01*
X82749Y-36019D01*
X82770Y-36069D01*
X82929Y-36228D01*
X82950Y-36237D01*
X82950Y-37512D01*
X82930Y-37520D01*
X82771Y-37679D01*
X82750Y-37730D01*
X82729Y-37680D01*
X82570Y-37521D01*
X82362Y-37435D01*
X82138Y-37434D01*
X81930Y-37520D01*
X81771Y-37679D01*
X81685Y-37887D01*
X81684Y-38111D01*
X81770Y-38319D01*
X81929Y-38478D01*
X82137Y-38564D01*
X82361Y-38565D01*
X82569Y-38479D01*
X82728Y-38320D01*
X82749Y-38269D01*
X82770Y-38319D01*
X82929Y-38478D01*
X83137Y-38564D01*
X83361Y-38565D01*
X83450Y-38528D01*
X83450Y-38750D01*
X83472Y-38864D01*
X83537Y-38962D01*
X83675Y-39100D01*
X81510Y-39100D01*
X81396Y-39122D01*
X81298Y-39187D01*
X80643Y-39842D01*
X80611Y-39810D01*
X80520Y-39772D01*
X80420Y-39772D01*
X80328Y-39810D01*
X80258Y-39881D01*
X80231Y-39907D01*
X80112Y-39787D01*
X80014Y-39722D01*
X79900Y-39700D01*
X79354Y-39700D01*
X79325Y-39670D01*
X79325Y-39625D01*
X79302Y-39510D01*
X79237Y-39413D01*
X79112Y-39287D01*
X79014Y-39222D01*
X78900Y-39200D01*
X77900Y-39200D01*
X77785Y-39222D01*
X77687Y-39287D01*
X77537Y-39437D01*
X77537Y-39437D01*
X77387Y-39587D01*
X77351Y-39500D01*
X77387Y-39411D01*
X77387Y-39312D01*
X77387Y-39036D01*
X77349Y-38945D01*
X77279Y-38874D01*
X77187Y-38836D01*
X77088Y-38836D01*
X77036Y-38836D01*
X76800Y-38600D01*
X76800Y-38487D01*
X76819Y-38479D01*
X76978Y-38320D01*
X77064Y-38112D01*
X77065Y-37888D01*
X76979Y-37680D01*
X76820Y-37521D01*
X76800Y-37512D01*
X76800Y-36237D01*
X76819Y-36229D01*
X76978Y-36070D01*
X77064Y-35862D01*
X77065Y-35638D01*
X76979Y-35430D01*
X76820Y-35271D01*
X76612Y-35185D01*
X76388Y-35184D01*
X76180Y-35270D01*
X76021Y-35429D01*
X76000Y-35480D01*
X75979Y-35430D01*
X75820Y-35271D01*
X75612Y-35185D01*
X75388Y-35184D01*
X75367Y-35193D01*
X75212Y-35037D01*
X75114Y-34972D01*
X75000Y-34950D01*
X72750Y-34950D01*
X70500Y-34950D01*
X68250Y-34950D01*
X66000Y-34950D01*
X63750Y-34950D01*
X61500Y-34950D01*
X59250Y-34950D01*
X57000Y-34950D01*
X54750Y-34950D01*
X53500Y-34950D01*
X53385Y-34972D01*
X53287Y-35037D01*
X53132Y-35193D01*
X53112Y-35185D01*
X52888Y-35184D01*
X52680Y-35270D01*
X52521Y-35429D01*
X52519Y-35433D01*
X52519Y-33816D01*
X52520Y-33819D01*
X52679Y-33978D01*
X52887Y-34064D01*
X53111Y-34065D01*
X53319Y-33979D01*
X53478Y-33820D01*
X53499Y-33769D01*
X53520Y-33819D01*
X53679Y-33978D01*
X53887Y-34064D01*
X54111Y-34065D01*
X54132Y-34056D01*
X54287Y-34212D01*
X54287Y-34212D01*
X54385Y-34277D01*
X54500Y-34300D01*
X56125Y-34300D01*
X56287Y-34462D01*
X56346Y-34501D01*
X56385Y-34527D01*
X56385Y-34527D01*
X56500Y-34550D01*
X68125Y-34550D01*
X68287Y-34712D01*
X68346Y-34751D01*
X68385Y-34777D01*
X68385Y-34777D01*
X68500Y-34800D01*
X84500Y-34800D01*
X84500Y-34799D01*
X84614Y-34777D01*
X84614Y-34777D01*
X84712Y-34712D01*
X84874Y-34550D01*
X96500Y-34550D01*
X96500Y-34549D01*
X96614Y-34527D01*
X96614Y-34527D01*
X96712Y-34462D01*
X96874Y-34300D01*
X98500Y-34300D01*
X98500Y-34299D01*
X98614Y-34277D01*
X98614Y-34277D01*
X98712Y-34212D01*
X98867Y-34056D01*
X98887Y-34064D01*
X99111Y-34065D01*
X99319Y-33979D01*
X99478Y-33820D01*
X99480Y-33816D01*
X99480Y-35433D01*
X99480Y-35433D01*
G37*
G54D31*
X99480Y-35433D02*
X99479Y-35430D01*
X99320Y-35271D01*
X99112Y-35185D01*
X98888Y-35184D01*
X98680Y-35270D01*
X98521Y-35429D01*
X98500Y-35480D01*
X98479Y-35430D01*
X98320Y-35271D01*
X98112Y-35185D01*
X97888Y-35184D01*
X97867Y-35193D01*
X97712Y-35037D01*
X97614Y-34972D01*
X97500Y-34950D01*
X96250Y-34950D01*
X94000Y-34950D01*
X91750Y-34950D01*
X89500Y-34950D01*
X87250Y-34950D01*
X85000Y-34950D01*
X82750Y-34950D01*
X80500Y-34950D01*
X78250Y-34950D01*
X78135Y-34972D01*
X78037Y-35037D01*
X77882Y-35193D01*
X77862Y-35185D01*
X77638Y-35184D01*
X77430Y-35270D01*
X77271Y-35429D01*
X77185Y-35637D01*
X77184Y-35861D01*
X77270Y-36069D01*
X77429Y-36228D01*
X77637Y-36314D01*
X77861Y-36315D01*
X78069Y-36229D01*
X78228Y-36070D01*
X78249Y-36019D01*
X78270Y-36069D01*
X78429Y-36228D01*
X78450Y-36237D01*
X78450Y-37512D01*
X78430Y-37520D01*
X78271Y-37679D01*
X78250Y-37730D01*
X78229Y-37680D01*
X78070Y-37521D01*
X77862Y-37435D01*
X77638Y-37434D01*
X77430Y-37520D01*
X77271Y-37679D01*
X77185Y-37887D01*
X77184Y-38111D01*
X77270Y-38319D01*
X77429Y-38478D01*
X77637Y-38564D01*
X77861Y-38565D01*
X78069Y-38479D01*
X78228Y-38320D01*
X78249Y-38269D01*
X78270Y-38319D01*
X78429Y-38478D01*
X78637Y-38564D01*
X78861Y-38565D01*
X79069Y-38479D01*
X79228Y-38320D01*
X79314Y-38112D01*
X79315Y-37888D01*
X79229Y-37680D01*
X79070Y-37521D01*
X79050Y-37512D01*
X79050Y-36237D01*
X79069Y-36229D01*
X79228Y-36070D01*
X79314Y-35862D01*
X79315Y-35638D01*
X79278Y-35550D01*
X79471Y-35550D01*
X79435Y-35637D01*
X79434Y-35861D01*
X79520Y-36069D01*
X79679Y-36228D01*
X79887Y-36314D01*
X80111Y-36315D01*
X80319Y-36229D01*
X80478Y-36070D01*
X80499Y-36019D01*
X80520Y-36069D01*
X80679Y-36228D01*
X80700Y-36237D01*
X80700Y-37512D01*
X80680Y-37520D01*
X80521Y-37679D01*
X80500Y-37730D01*
X80479Y-37680D01*
X80320Y-37521D01*
X80112Y-37435D01*
X79888Y-37434D01*
X79680Y-37520D01*
X79521Y-37679D01*
X79435Y-37887D01*
X79434Y-38111D01*
X79520Y-38319D01*
X79679Y-38478D01*
X79887Y-38564D01*
X80111Y-38565D01*
X80319Y-38479D01*
X80478Y-38320D01*
X80499Y-38269D01*
X80520Y-38319D01*
X80679Y-38478D01*
X80887Y-38564D01*
X81111Y-38565D01*
X81319Y-38479D01*
X81478Y-38320D01*
X81564Y-38112D01*
X81565Y-37888D01*
X81479Y-37680D01*
X81320Y-37521D01*
X81300Y-37512D01*
X81300Y-36237D01*
X81319Y-36229D01*
X81478Y-36070D01*
X81564Y-35862D01*
X81565Y-35638D01*
X81528Y-35550D01*
X81721Y-35550D01*
X81685Y-35637D01*
X81684Y-35861D01*
X81770Y-36069D01*
X81929Y-36228D01*
X82137Y-36314D01*
X82361Y-36315D01*
X82569Y-36229D01*
X82728Y-36070D01*
X82749Y-36019D01*
X82770Y-36069D01*
X82929Y-36228D01*
X82950Y-36237D01*
X82950Y-37512D01*
X82930Y-37520D01*
X82771Y-37679D01*
X82750Y-37730D01*
X82729Y-37680D01*
X82570Y-37521D01*
X82362Y-37435D01*
X82138Y-37434D01*
X81930Y-37520D01*
X81771Y-37679D01*
X81685Y-37887D01*
X81684Y-38111D01*
X81770Y-38319D01*
X81929Y-38478D01*
X82137Y-38564D01*
X82361Y-38565D01*
X82569Y-38479D01*
X82728Y-38320D01*
X82749Y-38269D01*
X82770Y-38319D01*
X82929Y-38478D01*
X83137Y-38564D01*
X83361Y-38565D01*
X83450Y-38528D01*
X83450Y-38750D01*
X83472Y-38864D01*
X83537Y-38962D01*
X83675Y-39100D01*
X81510Y-39100D01*
X81396Y-39122D01*
X81298Y-39187D01*
X80643Y-39842D01*
X80611Y-39810D01*
X80520Y-39772D01*
X80420Y-39772D01*
X80328Y-39810D01*
X80258Y-39881D01*
X80231Y-39907D01*
X80112Y-39787D01*
X80014Y-39722D01*
X79900Y-39700D01*
X79354Y-39700D01*
X79325Y-39670D01*
X79325Y-39625D01*
X79302Y-39510D01*
X79237Y-39413D01*
X79112Y-39287D01*
X79014Y-39222D01*
X78900Y-39200D01*
X77900Y-39200D01*
X77785Y-39222D01*
X77687Y-39287D01*
X77537Y-39437D01*
X77537Y-39437D01*
X77387Y-39587D01*
X77351Y-39500D01*
X77387Y-39411D01*
X77387Y-39312D01*
X77387Y-39036D01*
X77349Y-38945D01*
X77279Y-38874D01*
X77187Y-38836D01*
X77088Y-38836D01*
X77036Y-38836D01*
X76800Y-38600D01*
X76800Y-38487D01*
X76819Y-38479D01*
X76978Y-38320D01*
X77064Y-38112D01*
X77065Y-37888D01*
X76979Y-37680D01*
X76820Y-37521D01*
X76800Y-37512D01*
X76800Y-36237D01*
X76819Y-36229D01*
X76978Y-36070D01*
X77064Y-35862D01*
X77065Y-35638D01*
X76979Y-35430D01*
X76820Y-35271D01*
X76612Y-35185D01*
X76388Y-35184D01*
X76180Y-35270D01*
X76021Y-35429D01*
X76000Y-35480D01*
X75979Y-35430D01*
X75820Y-35271D01*
X75612Y-35185D01*
X75388Y-35184D01*
X75367Y-35193D01*
X75212Y-35037D01*
X75114Y-34972D01*
X75000Y-34950D01*
X72750Y-34950D01*
X70500Y-34950D01*
X68250Y-34950D01*
X66000Y-34950D01*
X63750Y-34950D01*
X61500Y-34950D01*
X59250Y-34950D01*
X57000Y-34950D01*
X54750Y-34950D01*
X53500Y-34950D01*
X53385Y-34972D01*
X53287Y-35037D01*
X53132Y-35193D01*
X53112Y-35185D01*
X52888Y-35184D01*
X52680Y-35270D01*
X52521Y-35429D01*
X52519Y-35433D01*
X52519Y-33816D01*
X52520Y-33819D01*
X52679Y-33978D01*
X52887Y-34064D01*
X53111Y-34065D01*
X53319Y-33979D01*
X53478Y-33820D01*
X53499Y-33769D01*
X53520Y-33819D01*
X53679Y-33978D01*
X53887Y-34064D01*
X54111Y-34065D01*
X54132Y-34056D01*
X54287Y-34212D01*
X54287Y-34212D01*
X54385Y-34277D01*
X54500Y-34300D01*
X56125Y-34300D01*
X56287Y-34462D01*
X56346Y-34501D01*
X56385Y-34527D01*
X56385Y-34527D01*
X56500Y-34550D01*
X68125Y-34550D01*
X68287Y-34712D01*
X68346Y-34751D01*
X68385Y-34777D01*
X68385Y-34777D01*
X68500Y-34800D01*
X84500Y-34800D01*
X84500Y-34799D01*
X84614Y-34777D01*
X84614Y-34777D01*
X84712Y-34712D01*
X84874Y-34550D01*
X96500Y-34550D01*
X96500Y-34549D01*
X96614Y-34527D01*
X96614Y-34527D01*
X96712Y-34462D01*
X96874Y-34300D01*
X98500Y-34300D01*
X98500Y-34299D01*
X98614Y-34277D01*
X98614Y-34277D01*
X98712Y-34212D01*
X98867Y-34056D01*
X98887Y-34064D01*
X99111Y-34065D01*
X99319Y-33979D01*
X99478Y-33820D01*
X99480Y-33816D01*
X99480Y-35433D01*
G54D10*
G36*
X99480Y-37683D02*
X99479Y-37680D01*
X99320Y-37521D01*
X99112Y-37435D01*
X98888Y-37434D01*
X98680Y-37520D01*
X98521Y-37679D01*
X98500Y-37730D01*
X98479Y-37680D01*
X98320Y-37521D01*
X98112Y-37435D01*
X97888Y-37434D01*
X97867Y-37443D01*
X97712Y-37287D01*
X97614Y-37222D01*
X97500Y-37200D01*
X96250Y-37200D01*
X96135Y-37222D01*
X96037Y-37287D01*
X95882Y-37443D01*
X95862Y-37435D01*
X95638Y-37434D01*
X95550Y-37471D01*
X95550Y-36374D01*
X95617Y-36306D01*
X95637Y-36314D01*
X95861Y-36315D01*
X96069Y-36229D01*
X96228Y-36070D01*
X96249Y-36019D01*
X96270Y-36069D01*
X96429Y-36228D01*
X96637Y-36314D01*
X96861Y-36315D01*
X97069Y-36229D01*
X97228Y-36070D01*
X97314Y-35862D01*
X97315Y-35638D01*
X97278Y-35550D01*
X97375Y-35550D01*
X97443Y-35617D01*
X97435Y-35637D01*
X97434Y-35861D01*
X97520Y-36069D01*
X97679Y-36228D01*
X97887Y-36314D01*
X98111Y-36315D01*
X98319Y-36229D01*
X98478Y-36070D01*
X98499Y-36019D01*
X98520Y-36069D01*
X98679Y-36228D01*
X98887Y-36314D01*
X99111Y-36315D01*
X99319Y-36229D01*
X99478Y-36070D01*
X99480Y-36066D01*
X99480Y-37683D01*
X99480Y-37683D01*
G37*
G54D31*
X99480Y-37683D02*
X99479Y-37680D01*
X99320Y-37521D01*
X99112Y-37435D01*
X98888Y-37434D01*
X98680Y-37520D01*
X98521Y-37679D01*
X98500Y-37730D01*
X98479Y-37680D01*
X98320Y-37521D01*
X98112Y-37435D01*
X97888Y-37434D01*
X97867Y-37443D01*
X97712Y-37287D01*
X97614Y-37222D01*
X97500Y-37200D01*
X96250Y-37200D01*
X96135Y-37222D01*
X96037Y-37287D01*
X95882Y-37443D01*
X95862Y-37435D01*
X95638Y-37434D01*
X95550Y-37471D01*
X95550Y-36374D01*
X95617Y-36306D01*
X95637Y-36314D01*
X95861Y-36315D01*
X96069Y-36229D01*
X96228Y-36070D01*
X96249Y-36019D01*
X96270Y-36069D01*
X96429Y-36228D01*
X96637Y-36314D01*
X96861Y-36315D01*
X97069Y-36229D01*
X97228Y-36070D01*
X97314Y-35862D01*
X97315Y-35638D01*
X97278Y-35550D01*
X97375Y-35550D01*
X97443Y-35617D01*
X97435Y-35637D01*
X97434Y-35861D01*
X97520Y-36069D01*
X97679Y-36228D01*
X97887Y-36314D01*
X98111Y-36315D01*
X98319Y-36229D01*
X98478Y-36070D01*
X98499Y-36019D01*
X98520Y-36069D01*
X98679Y-36228D01*
X98887Y-36314D01*
X99111Y-36315D01*
X99319Y-36229D01*
X99478Y-36070D01*
X99480Y-36066D01*
X99480Y-37683D01*
G54D10*
G36*
X99480Y-41920D02*
X98745Y-41920D01*
X98654Y-41958D01*
X98583Y-42029D01*
X98545Y-42121D01*
X98545Y-42220D01*
X98545Y-43126D01*
X98569Y-43184D01*
X98545Y-43243D01*
X98545Y-43342D01*
X98545Y-43393D01*
X98535Y-43367D01*
X98464Y-43297D01*
X98372Y-43259D01*
X98160Y-43259D01*
X98097Y-43321D01*
X98097Y-43515D01*
X97997Y-43515D01*
X97997Y-43321D01*
X97935Y-43259D01*
X97751Y-43259D01*
X97751Y-40691D01*
X97751Y-40545D01*
X97751Y-40320D01*
X97751Y-40174D01*
X97713Y-40082D01*
X97643Y-40012D01*
X97551Y-39974D01*
X97486Y-39974D01*
X97424Y-40036D01*
X97424Y-40383D01*
X97689Y-40383D01*
X97751Y-40320D01*
X97751Y-40545D01*
X97689Y-40483D01*
X97424Y-40483D01*
X97424Y-40829D01*
X97486Y-40891D01*
X97551Y-40891D01*
X97643Y-40853D01*
X97713Y-40783D01*
X97751Y-40691D01*
X97751Y-43259D01*
X97722Y-43259D01*
X97630Y-43297D01*
X97560Y-43367D01*
X97522Y-43459D01*
X97522Y-43486D01*
X97584Y-43548D01*
X97641Y-43548D01*
X97630Y-43553D01*
X97560Y-43623D01*
X97540Y-43671D01*
X97522Y-43690D01*
X97522Y-43715D01*
X97522Y-43716D01*
X97522Y-43800D01*
X97499Y-43800D01*
X97413Y-43713D01*
X97413Y-43562D01*
X97375Y-43470D01*
X97325Y-43420D01*
X97325Y-43329D01*
X97375Y-43279D01*
X97413Y-43187D01*
X97413Y-43088D01*
X97413Y-42812D01*
X97375Y-42720D01*
X97304Y-42650D01*
X97213Y-42612D01*
X97113Y-42612D01*
X96838Y-42612D01*
X96750Y-42648D01*
X96661Y-42612D01*
X96586Y-42612D01*
X96524Y-42674D01*
X96524Y-42950D01*
X96532Y-42950D01*
X96532Y-43050D01*
X96524Y-43050D01*
X96524Y-43057D01*
X96424Y-43057D01*
X96424Y-43050D01*
X96416Y-43050D01*
X96416Y-42950D01*
X96424Y-42950D01*
X96424Y-42674D01*
X96361Y-42612D01*
X96286Y-42612D01*
X96195Y-42650D01*
X96124Y-42720D01*
X96086Y-42812D01*
X96086Y-42887D01*
X96149Y-42949D01*
X96124Y-42949D01*
X95962Y-42787D01*
X95864Y-42722D01*
X95750Y-42700D01*
X95470Y-42700D01*
X95501Y-42653D01*
X95527Y-42614D01*
X95527Y-42614D01*
X95550Y-42500D01*
X95550Y-42378D01*
X95606Y-42355D01*
X95676Y-42285D01*
X95715Y-42193D01*
X95715Y-42093D01*
X95715Y-41600D01*
X95729Y-41600D01*
X95876Y-41539D01*
X95988Y-41426D01*
X96049Y-41279D01*
X96050Y-41120D01*
X96041Y-41100D01*
X96500Y-41100D01*
X96500Y-41099D01*
X96614Y-41077D01*
X96614Y-41077D01*
X96712Y-41012D01*
X96838Y-40886D01*
X96838Y-40886D01*
X96846Y-40874D01*
X96846Y-40874D01*
X96895Y-40853D01*
X96965Y-40783D01*
X97000Y-40700D01*
X97034Y-40783D01*
X97104Y-40853D01*
X97196Y-40891D01*
X97261Y-40891D01*
X97324Y-40829D01*
X97324Y-40483D01*
X97316Y-40483D01*
X97316Y-40383D01*
X97324Y-40383D01*
X97324Y-40036D01*
X97272Y-39984D01*
X97282Y-39974D01*
X97339Y-39917D01*
X97377Y-39825D01*
X97377Y-39725D01*
X97377Y-39308D01*
X97339Y-39216D01*
X97300Y-39176D01*
X97300Y-39124D01*
X97867Y-38556D01*
X97887Y-38564D01*
X98111Y-38565D01*
X98319Y-38479D01*
X98478Y-38320D01*
X98499Y-38269D01*
X98520Y-38319D01*
X98679Y-38478D01*
X98887Y-38564D01*
X99111Y-38565D01*
X99319Y-38479D01*
X99478Y-38320D01*
X99480Y-38316D01*
X99480Y-41920D01*
X99480Y-41920D01*
G37*
G54D31*
X99480Y-41920D02*
X98745Y-41920D01*
X98654Y-41958D01*
X98583Y-42029D01*
X98545Y-42121D01*
X98545Y-42220D01*
X98545Y-43126D01*
X98569Y-43184D01*
X98545Y-43243D01*
X98545Y-43342D01*
X98545Y-43393D01*
X98535Y-43367D01*
X98464Y-43297D01*
X98372Y-43259D01*
X98160Y-43259D01*
X98097Y-43321D01*
X98097Y-43515D01*
X97997Y-43515D01*
X97997Y-43321D01*
X97935Y-43259D01*
X97751Y-43259D01*
X97751Y-40691D01*
X97751Y-40545D01*
X97751Y-40320D01*
X97751Y-40174D01*
X97713Y-40082D01*
X97643Y-40012D01*
X97551Y-39974D01*
X97486Y-39974D01*
X97424Y-40036D01*
X97424Y-40383D01*
X97689Y-40383D01*
X97751Y-40320D01*
X97751Y-40545D01*
X97689Y-40483D01*
X97424Y-40483D01*
X97424Y-40829D01*
X97486Y-40891D01*
X97551Y-40891D01*
X97643Y-40853D01*
X97713Y-40783D01*
X97751Y-40691D01*
X97751Y-43259D01*
X97722Y-43259D01*
X97630Y-43297D01*
X97560Y-43367D01*
X97522Y-43459D01*
X97522Y-43486D01*
X97584Y-43548D01*
X97641Y-43548D01*
X97630Y-43553D01*
X97560Y-43623D01*
X97540Y-43671D01*
X97522Y-43690D01*
X97522Y-43715D01*
X97522Y-43716D01*
X97522Y-43800D01*
X97499Y-43800D01*
X97413Y-43713D01*
X97413Y-43562D01*
X97375Y-43470D01*
X97325Y-43420D01*
X97325Y-43329D01*
X97375Y-43279D01*
X97413Y-43187D01*
X97413Y-43088D01*
X97413Y-42812D01*
X97375Y-42720D01*
X97304Y-42650D01*
X97213Y-42612D01*
X97113Y-42612D01*
X96838Y-42612D01*
X96750Y-42648D01*
X96661Y-42612D01*
X96586Y-42612D01*
X96524Y-42674D01*
X96524Y-42950D01*
X96532Y-42950D01*
X96532Y-43050D01*
X96524Y-43050D01*
X96524Y-43057D01*
X96424Y-43057D01*
X96424Y-43050D01*
X96416Y-43050D01*
X96416Y-42950D01*
X96424Y-42950D01*
X96424Y-42674D01*
X96361Y-42612D01*
X96286Y-42612D01*
X96195Y-42650D01*
X96124Y-42720D01*
X96086Y-42812D01*
X96086Y-42887D01*
X96149Y-42949D01*
X96124Y-42949D01*
X95962Y-42787D01*
X95864Y-42722D01*
X95750Y-42700D01*
X95470Y-42700D01*
X95501Y-42653D01*
X95527Y-42614D01*
X95527Y-42614D01*
X95550Y-42500D01*
X95550Y-42378D01*
X95606Y-42355D01*
X95676Y-42285D01*
X95715Y-42193D01*
X95715Y-42093D01*
X95715Y-41600D01*
X95729Y-41600D01*
X95876Y-41539D01*
X95988Y-41426D01*
X96049Y-41279D01*
X96050Y-41120D01*
X96041Y-41100D01*
X96500Y-41100D01*
X96500Y-41099D01*
X96614Y-41077D01*
X96614Y-41077D01*
X96712Y-41012D01*
X96838Y-40886D01*
X96838Y-40886D01*
X96846Y-40874D01*
X96846Y-40874D01*
X96895Y-40853D01*
X96965Y-40783D01*
X97000Y-40700D01*
X97034Y-40783D01*
X97104Y-40853D01*
X97196Y-40891D01*
X97261Y-40891D01*
X97324Y-40829D01*
X97324Y-40483D01*
X97316Y-40483D01*
X97316Y-40383D01*
X97324Y-40383D01*
X97324Y-40036D01*
X97272Y-39984D01*
X97282Y-39974D01*
X97339Y-39917D01*
X97377Y-39825D01*
X97377Y-39725D01*
X97377Y-39308D01*
X97339Y-39216D01*
X97300Y-39176D01*
X97300Y-39124D01*
X97867Y-38556D01*
X97887Y-38564D01*
X98111Y-38565D01*
X98319Y-38479D01*
X98478Y-38320D01*
X98499Y-38269D01*
X98520Y-38319D01*
X98679Y-38478D01*
X98887Y-38564D01*
X99111Y-38565D01*
X99319Y-38479D01*
X99478Y-38320D01*
X99480Y-38316D01*
X99480Y-41920D01*
M02*
