%FSLAX34Y34*%
G04 Gerber Fmt 3.4, Leading zero omitted, Abs format*
G04 (created by PCBNEW (2014-03-18 BZR 4754)-product) date Tue 01 Apr 2014 07:57:49 PM CDT*
%MOIN*%
G01*
G70*
G90*
G04 APERTURE LIST*
%ADD10C,0.006000*%
%ADD11R,0.033559X0.033559*%
%ADD12R,0.068992X0.076866*%
%ADD13R,0.019800X0.061100*%
%ADD14R,0.068504X0.017323*%
%ADD15R,0.109134X0.135906*%
%ADD16R,0.053244X0.092614*%
%ADD17R,0.143795X0.092614*%
%ADD18R,0.062992X0.023622*%
%ADD19R,0.082677X0.098425*%
%ADD20R,0.082677X0.078740*%
%ADD21R,0.076866X0.076866*%
%ADD22C,0.076866*%
%ADD23R,0.092614X0.092614*%
%ADD24C,0.092614*%
%ADD25C,0.068992*%
%ADD26R,0.072929X0.072929*%
%ADD27C,0.072929*%
%ADD28R,0.033465X0.049606*%
%ADD29C,0.061118*%
G04 APERTURE END LIST*
G54D10*
G54D11*
X69975Y-47300D03*
X69424Y-47300D03*
X72424Y-51050D03*
X72975Y-51050D03*
X45225Y-51300D03*
X44674Y-51300D03*
X73924Y-48550D03*
X74475Y-48550D03*
X73924Y-50800D03*
X74475Y-50800D03*
X69424Y-49550D03*
X69975Y-49550D03*
X69424Y-48800D03*
X69975Y-48800D03*
X69424Y-48050D03*
X69975Y-48050D03*
X55924Y-45550D03*
X56475Y-45550D03*
X61450Y-48524D03*
X61450Y-49075D03*
X61450Y-50575D03*
X61450Y-50024D03*
X59950Y-50575D03*
X59950Y-50024D03*
X60700Y-50575D03*
X60700Y-50024D03*
X68674Y-51300D03*
X69225Y-51300D03*
G54D12*
X71501Y-51050D03*
X70398Y-51050D03*
G54D13*
X66846Y-47168D03*
X66590Y-47168D03*
X66334Y-47168D03*
X66078Y-47168D03*
X65822Y-47168D03*
X65566Y-47168D03*
X65310Y-47168D03*
X65054Y-47168D03*
X65054Y-49432D03*
X65310Y-49432D03*
X65566Y-49432D03*
X65822Y-49432D03*
X66078Y-49432D03*
X66334Y-49432D03*
X66590Y-49432D03*
X66846Y-49432D03*
G54D14*
X44597Y-50195D03*
X44597Y-50451D03*
X44597Y-49939D03*
X44597Y-49683D03*
X44597Y-49427D03*
X44597Y-49172D03*
X44597Y-48916D03*
X44597Y-48660D03*
X46802Y-48148D03*
X46802Y-48404D03*
X46802Y-48660D03*
X46802Y-48916D03*
X46802Y-50451D03*
X46802Y-50195D03*
X46802Y-49939D03*
X46802Y-49683D03*
X46802Y-49427D03*
X46802Y-49172D03*
G54D15*
X45700Y-49300D03*
G54D14*
X44597Y-48404D03*
X44597Y-48148D03*
G54D13*
X71054Y-49682D03*
X71310Y-49682D03*
X71566Y-49682D03*
X71822Y-49682D03*
X72078Y-49682D03*
X72334Y-49682D03*
X72590Y-49682D03*
X72846Y-49682D03*
X72846Y-47418D03*
X72590Y-47418D03*
X72334Y-47418D03*
X72078Y-47418D03*
X71822Y-47418D03*
X71566Y-47418D03*
X71310Y-47418D03*
X71054Y-47418D03*
G54D16*
X36605Y-48579D03*
X35700Y-48579D03*
X34794Y-48579D03*
G54D17*
X35700Y-51020D03*
G54D10*
G36*
X59161Y-49888D02*
X58979Y-50069D01*
X58519Y-49609D01*
X58701Y-49427D01*
X59161Y-49888D01*
X59161Y-49888D01*
G37*
G36*
X59384Y-49665D02*
X59202Y-49847D01*
X58742Y-49386D01*
X58923Y-49205D01*
X59384Y-49665D01*
X59384Y-49665D01*
G37*
G36*
X59606Y-49442D02*
X59425Y-49624D01*
X58964Y-49164D01*
X59146Y-48982D01*
X59606Y-49442D01*
X59606Y-49442D01*
G37*
G36*
X59829Y-49219D02*
X59647Y-49401D01*
X59187Y-48941D01*
X59369Y-48759D01*
X59829Y-49219D01*
X59829Y-49219D01*
G37*
G36*
X60051Y-48997D02*
X59869Y-49179D01*
X59409Y-48719D01*
X59591Y-48537D01*
X60051Y-48997D01*
X60051Y-48997D01*
G37*
G36*
X60274Y-48775D02*
X60092Y-48956D01*
X59632Y-48496D01*
X59814Y-48314D01*
X60274Y-48775D01*
X60274Y-48775D01*
G37*
G36*
X60497Y-48552D02*
X60315Y-48734D01*
X59855Y-48273D01*
X60036Y-48092D01*
X60497Y-48552D01*
X60497Y-48552D01*
G37*
G36*
X60719Y-48329D02*
X60538Y-48511D01*
X60077Y-48051D01*
X60259Y-47869D01*
X60719Y-48329D01*
X60719Y-48329D01*
G37*
G36*
X60538Y-47088D02*
X60719Y-47270D01*
X60259Y-47730D01*
X60077Y-47548D01*
X60538Y-47088D01*
X60538Y-47088D01*
G37*
G36*
X60315Y-46865D02*
X60497Y-47047D01*
X60036Y-47507D01*
X59855Y-47326D01*
X60315Y-46865D01*
X60315Y-46865D01*
G37*
G36*
X60092Y-46643D02*
X60274Y-46824D01*
X59814Y-47285D01*
X59632Y-47103D01*
X60092Y-46643D01*
X60092Y-46643D01*
G37*
G36*
X59869Y-46420D02*
X60051Y-46602D01*
X59591Y-47062D01*
X59409Y-46880D01*
X59869Y-46420D01*
X59869Y-46420D01*
G37*
G36*
X59647Y-46198D02*
X59829Y-46380D01*
X59369Y-46840D01*
X59187Y-46658D01*
X59647Y-46198D01*
X59647Y-46198D01*
G37*
G36*
X59425Y-45975D02*
X59606Y-46157D01*
X59146Y-46617D01*
X58964Y-46435D01*
X59425Y-45975D01*
X59425Y-45975D01*
G37*
G36*
X59202Y-45752D02*
X59384Y-45934D01*
X58923Y-46394D01*
X58742Y-46213D01*
X59202Y-45752D01*
X59202Y-45752D01*
G37*
G36*
X58979Y-45530D02*
X59161Y-45711D01*
X58701Y-46172D01*
X58519Y-45990D01*
X58979Y-45530D01*
X58979Y-45530D01*
G37*
G36*
X57738Y-45711D02*
X57920Y-45530D01*
X58380Y-45990D01*
X58198Y-46172D01*
X57738Y-45711D01*
X57738Y-45711D01*
G37*
G36*
X57515Y-45934D02*
X57697Y-45752D01*
X58157Y-46213D01*
X57976Y-46394D01*
X57515Y-45934D01*
X57515Y-45934D01*
G37*
G36*
X57293Y-46157D02*
X57474Y-45975D01*
X57935Y-46435D01*
X57753Y-46617D01*
X57293Y-46157D01*
X57293Y-46157D01*
G37*
G36*
X57070Y-46380D02*
X57252Y-46198D01*
X57712Y-46658D01*
X57530Y-46840D01*
X57070Y-46380D01*
X57070Y-46380D01*
G37*
G36*
X56848Y-46602D02*
X57030Y-46420D01*
X57490Y-46880D01*
X57308Y-47062D01*
X56848Y-46602D01*
X56848Y-46602D01*
G37*
G36*
X56625Y-46824D02*
X56807Y-46643D01*
X57267Y-47103D01*
X57085Y-47285D01*
X56625Y-46824D01*
X56625Y-46824D01*
G37*
G36*
X56402Y-47047D02*
X56584Y-46865D01*
X57044Y-47326D01*
X56863Y-47507D01*
X56402Y-47047D01*
X56402Y-47047D01*
G37*
G36*
X56180Y-47270D02*
X56361Y-47088D01*
X56822Y-47548D01*
X56640Y-47730D01*
X56180Y-47270D01*
X56180Y-47270D01*
G37*
G36*
X56361Y-48511D02*
X56180Y-48329D01*
X56640Y-47869D01*
X56822Y-48051D01*
X56361Y-48511D01*
X56361Y-48511D01*
G37*
G36*
X56584Y-48734D02*
X56402Y-48552D01*
X56863Y-48092D01*
X57044Y-48273D01*
X56584Y-48734D01*
X56584Y-48734D01*
G37*
G36*
X56807Y-48956D02*
X56625Y-48775D01*
X57085Y-48314D01*
X57267Y-48496D01*
X56807Y-48956D01*
X56807Y-48956D01*
G37*
G36*
X57030Y-49179D02*
X56848Y-48997D01*
X57308Y-48537D01*
X57490Y-48719D01*
X57030Y-49179D01*
X57030Y-49179D01*
G37*
G36*
X57252Y-49401D02*
X57070Y-49219D01*
X57530Y-48759D01*
X57712Y-48941D01*
X57252Y-49401D01*
X57252Y-49401D01*
G37*
G36*
X57474Y-49624D02*
X57293Y-49442D01*
X57753Y-48982D01*
X57935Y-49164D01*
X57474Y-49624D01*
X57474Y-49624D01*
G37*
G36*
X57697Y-49847D02*
X57515Y-49665D01*
X57976Y-49205D01*
X58157Y-49386D01*
X57697Y-49847D01*
X57697Y-49847D01*
G37*
G36*
X57920Y-50069D02*
X57738Y-49888D01*
X58198Y-49427D01*
X58380Y-49609D01*
X57920Y-50069D01*
X57920Y-50069D01*
G37*
G54D18*
X75497Y-50161D03*
X75497Y-49905D03*
X75497Y-49650D03*
X75497Y-49394D03*
X75497Y-49138D03*
G54D19*
X76619Y-51126D03*
X76619Y-48173D03*
G54D20*
X76619Y-49197D03*
X76619Y-50102D03*
G54D21*
X48950Y-51050D03*
G54D22*
X49950Y-51050D03*
X50950Y-51050D03*
X51950Y-51050D03*
G54D21*
X48950Y-49050D03*
G54D22*
X49950Y-49050D03*
X50950Y-49050D03*
X51950Y-49050D03*
G54D21*
X39450Y-49050D03*
G54D22*
X40450Y-49050D03*
X41450Y-49050D03*
X42450Y-49050D03*
G54D21*
X39450Y-51050D03*
G54D22*
X40450Y-51050D03*
X41450Y-51050D03*
X42450Y-51050D03*
G54D23*
X30950Y-48800D03*
G54D24*
X30950Y-50800D03*
G54D11*
X65975Y-51300D03*
X65424Y-51300D03*
X65975Y-50550D03*
X65424Y-50550D03*
G54D25*
X30450Y-36800D03*
X31450Y-36800D03*
X30450Y-39050D03*
X31450Y-39050D03*
X30450Y-41300D03*
X31450Y-41300D03*
X30450Y-43550D03*
X31450Y-43550D03*
X75450Y-36800D03*
X76450Y-36800D03*
X75450Y-39050D03*
X76450Y-39050D03*
X75450Y-41300D03*
X76450Y-41300D03*
X75450Y-43550D03*
X76450Y-43550D03*
X32700Y-36800D03*
X33700Y-36800D03*
X32700Y-39050D03*
X33700Y-39050D03*
X32700Y-41300D03*
X33700Y-41300D03*
X32700Y-43550D03*
X33700Y-43550D03*
X73200Y-36800D03*
X74200Y-36800D03*
X73200Y-39050D03*
X74200Y-39050D03*
X73200Y-41300D03*
X74200Y-41300D03*
X73200Y-43550D03*
X74200Y-43550D03*
X34950Y-36800D03*
X35950Y-36800D03*
X34950Y-39050D03*
X35950Y-39050D03*
X34950Y-41300D03*
X35950Y-41300D03*
X34950Y-43550D03*
X35950Y-43550D03*
X70950Y-36800D03*
X71950Y-36800D03*
X70950Y-39050D03*
X71950Y-39050D03*
X70950Y-41300D03*
X71950Y-41300D03*
X70950Y-43550D03*
X71950Y-43550D03*
X37200Y-36800D03*
X38200Y-36800D03*
X37200Y-39050D03*
X38200Y-39050D03*
X37200Y-41300D03*
X38200Y-41300D03*
X37200Y-43550D03*
X38200Y-43550D03*
X68700Y-36800D03*
X69700Y-36800D03*
X68700Y-39050D03*
X69700Y-39050D03*
X68700Y-41300D03*
X69700Y-41300D03*
X68700Y-43550D03*
X69700Y-43550D03*
X39450Y-36800D03*
X40450Y-36800D03*
X39450Y-39050D03*
X40450Y-39050D03*
X39450Y-41300D03*
X40450Y-41300D03*
X39450Y-43550D03*
X40450Y-43550D03*
X66450Y-36800D03*
X67450Y-36800D03*
X66450Y-39050D03*
X67450Y-39050D03*
X66450Y-41300D03*
X67450Y-41300D03*
X66450Y-43550D03*
X67450Y-43550D03*
X41700Y-36800D03*
X42700Y-36800D03*
X41700Y-39050D03*
X42700Y-39050D03*
X41700Y-41300D03*
X42700Y-41300D03*
X41700Y-43550D03*
X42700Y-43550D03*
X64200Y-36800D03*
X65200Y-36800D03*
X64200Y-39050D03*
X65200Y-39050D03*
X64200Y-41300D03*
X65200Y-41300D03*
X64200Y-43550D03*
X65200Y-43550D03*
X43950Y-36800D03*
X44950Y-36800D03*
X43950Y-39050D03*
X44950Y-39050D03*
X43950Y-41300D03*
X44950Y-41300D03*
X43950Y-43550D03*
X44950Y-43550D03*
X61950Y-36800D03*
X62950Y-36800D03*
X61950Y-39050D03*
X62950Y-39050D03*
X61950Y-41300D03*
X62950Y-41300D03*
X61950Y-43550D03*
X62950Y-43550D03*
X46200Y-36800D03*
X47200Y-36800D03*
X46200Y-39050D03*
X47200Y-39050D03*
X46200Y-41300D03*
X47200Y-41300D03*
X46200Y-43550D03*
X47200Y-43550D03*
X59700Y-36800D03*
X60700Y-36800D03*
X59700Y-39050D03*
X60700Y-39050D03*
X59700Y-41300D03*
X60700Y-41300D03*
X59700Y-43550D03*
X60700Y-43550D03*
X48450Y-36800D03*
X49450Y-36800D03*
X48450Y-39050D03*
X49450Y-39050D03*
X48450Y-41300D03*
X49450Y-41300D03*
X48450Y-43550D03*
X49450Y-43550D03*
X57450Y-36800D03*
X58450Y-36800D03*
X57450Y-39050D03*
X58450Y-39050D03*
X57450Y-41300D03*
X58450Y-41300D03*
X57450Y-43550D03*
X58450Y-43550D03*
X50700Y-36800D03*
X51700Y-36800D03*
X50700Y-39050D03*
X51700Y-39050D03*
X50700Y-41300D03*
X51700Y-41300D03*
X50700Y-43550D03*
X51700Y-43550D03*
X55200Y-36800D03*
X56200Y-36800D03*
X55200Y-39050D03*
X56200Y-39050D03*
X55200Y-41300D03*
X56200Y-41300D03*
X55200Y-43550D03*
X56200Y-43550D03*
X52950Y-36800D03*
X53950Y-36800D03*
X52950Y-39050D03*
X53950Y-39050D03*
X52950Y-41300D03*
X53950Y-41300D03*
X52950Y-43550D03*
X53950Y-43550D03*
G54D26*
X54200Y-49050D03*
G54D27*
X55200Y-49050D03*
X54200Y-50050D03*
X55200Y-50050D03*
X54200Y-51050D03*
X55200Y-51050D03*
G54D28*
X61825Y-45983D03*
X62200Y-45116D03*
X62574Y-45983D03*
X63575Y-45983D03*
X63950Y-45116D03*
X64324Y-45983D03*
X65325Y-45983D03*
X65700Y-45116D03*
X66074Y-45983D03*
X67075Y-45983D03*
X67450Y-45116D03*
X67824Y-45983D03*
X68825Y-45983D03*
X69200Y-45116D03*
X69574Y-45983D03*
X70575Y-45983D03*
X70950Y-45116D03*
X71324Y-45983D03*
X72325Y-45983D03*
X72700Y-45116D03*
X73074Y-45983D03*
X74075Y-45983D03*
X74450Y-45116D03*
X74824Y-45983D03*
X30575Y-45983D03*
X30950Y-45116D03*
X31324Y-45983D03*
X32825Y-45983D03*
X33200Y-45116D03*
X33574Y-45983D03*
X35075Y-45983D03*
X35450Y-45116D03*
X35824Y-45983D03*
X37325Y-45983D03*
X37700Y-45116D03*
X38074Y-45983D03*
X39575Y-45983D03*
X39950Y-45116D03*
X40324Y-45983D03*
X41825Y-45983D03*
X42200Y-45116D03*
X42574Y-45983D03*
X44075Y-45983D03*
X44450Y-45116D03*
X44824Y-45983D03*
X46325Y-45983D03*
X46700Y-45116D03*
X47074Y-45983D03*
X48575Y-45983D03*
X48950Y-45116D03*
X49324Y-45983D03*
X50825Y-45983D03*
X51200Y-45116D03*
X51574Y-45983D03*
X53075Y-45983D03*
X53450Y-45116D03*
X53824Y-45983D03*
G54D11*
X46174Y-51300D03*
X46725Y-51300D03*
X67700Y-48575D03*
X67700Y-48024D03*
X74475Y-50050D03*
X73924Y-50050D03*
X74475Y-49300D03*
X73924Y-49300D03*
X67225Y-51300D03*
X66674Y-51300D03*
X67225Y-50550D03*
X66674Y-50550D03*
X31950Y-45325D03*
X31950Y-44774D03*
X34200Y-45325D03*
X34200Y-44774D03*
X36450Y-45325D03*
X36450Y-44774D03*
X38700Y-45325D03*
X38700Y-44774D03*
X40950Y-45325D03*
X40950Y-44774D03*
X43200Y-45325D03*
X43200Y-44774D03*
X45450Y-45325D03*
X45450Y-44774D03*
X47700Y-45325D03*
X47700Y-44774D03*
X49950Y-45325D03*
X49950Y-44774D03*
X52200Y-45325D03*
X52200Y-44774D03*
X54450Y-45325D03*
X54450Y-44774D03*
G54D29*
X62950Y-50510D03*
X62950Y-48589D03*
G54D12*
X35101Y-47400D03*
X33998Y-47400D03*
X36298Y-47400D03*
X37401Y-47400D03*
M02*
