%FSLAX34Y34*%
G04 Gerber Fmt 3.4, Leading zero omitted, Abs format*
G04 (created by PCBNEW (2014-03-18 BZR 4754)-product) date Tue 01 Apr 2014 07:57:49 PM CDT*
%MOIN*%
G01*
G70*
G90*
G04 APERTURE LIST*
%ADD10C,0.006000*%
%ADD11R,0.027559X0.027559*%
%ADD12R,0.062992X0.070866*%
%ADD13R,0.013800X0.055100*%
%ADD14R,0.062992X0.011811*%
%ADD15R,0.133858X0.255906*%
%ADD16R,0.047244X0.086614*%
%ADD17R,0.137795X0.086614*%
%ADD18R,0.055118X0.015748*%
%ADD19R,0.074803X0.090551*%
%ADD20R,0.074803X0.070866*%
%ADD21R,0.070866X0.070866*%
%ADD22C,0.070866*%
%ADD23R,0.086614X0.086614*%
%ADD24C,0.086614*%
%ADD25C,0.062992*%
%ADD26R,0.066929X0.066929*%
%ADD27C,0.066929*%
%ADD28R,0.025591X0.041732*%
%ADD29C,0.055118*%
%ADD30C,0.030000*%
%ADD31C,0.010000*%
G04 APERTURE END LIST*
G54D10*
G54D11*
X69975Y-47300D03*
X69424Y-47300D03*
X72424Y-51050D03*
X72975Y-51050D03*
X45225Y-51300D03*
X44674Y-51300D03*
X73924Y-48550D03*
X74475Y-48550D03*
X73924Y-50800D03*
X74475Y-50800D03*
X69424Y-49550D03*
X69975Y-49550D03*
X69424Y-48800D03*
X69975Y-48800D03*
X69424Y-48050D03*
X69975Y-48050D03*
X55924Y-45550D03*
X56475Y-45550D03*
X61450Y-48524D03*
X61450Y-49075D03*
X61450Y-50575D03*
X61450Y-50024D03*
X59950Y-50575D03*
X59950Y-50024D03*
X60700Y-50575D03*
X60700Y-50024D03*
X68674Y-51300D03*
X69225Y-51300D03*
G54D12*
X71501Y-51050D03*
X70398Y-51050D03*
G54D13*
X66846Y-47168D03*
X66590Y-47168D03*
X66334Y-47168D03*
X66078Y-47168D03*
X65822Y-47168D03*
X65566Y-47168D03*
X65310Y-47168D03*
X65054Y-47168D03*
X65054Y-49432D03*
X65310Y-49432D03*
X65566Y-49432D03*
X65822Y-49432D03*
X66078Y-49432D03*
X66334Y-49432D03*
X66590Y-49432D03*
X66846Y-49432D03*
G54D14*
X44597Y-50195D03*
X44597Y-50451D03*
X44597Y-49939D03*
X44597Y-49683D03*
X44597Y-49427D03*
X44597Y-49172D03*
X44597Y-48916D03*
X44597Y-48660D03*
X46802Y-48148D03*
X46802Y-48404D03*
X46802Y-48660D03*
X46802Y-48916D03*
X46802Y-50451D03*
X46802Y-50195D03*
X46802Y-49939D03*
X46802Y-49683D03*
X46802Y-49427D03*
X46802Y-49172D03*
G54D15*
X45700Y-49300D03*
G54D14*
X44597Y-48404D03*
X44597Y-48148D03*
G54D13*
X71054Y-49682D03*
X71310Y-49682D03*
X71566Y-49682D03*
X71822Y-49682D03*
X72078Y-49682D03*
X72334Y-49682D03*
X72590Y-49682D03*
X72846Y-49682D03*
X72846Y-47418D03*
X72590Y-47418D03*
X72334Y-47418D03*
X72078Y-47418D03*
X71822Y-47418D03*
X71566Y-47418D03*
X71310Y-47418D03*
X71054Y-47418D03*
G54D16*
X36605Y-48579D03*
X35700Y-48579D03*
X34794Y-48579D03*
G54D17*
X35700Y-51020D03*
G54D10*
G36*
X59118Y-49888D02*
X58979Y-50027D01*
X58561Y-49609D01*
X58701Y-49470D01*
X59118Y-49888D01*
X59118Y-49888D01*
G37*
G36*
X59341Y-49665D02*
X59202Y-49804D01*
X58784Y-49386D01*
X58923Y-49247D01*
X59341Y-49665D01*
X59341Y-49665D01*
G37*
G36*
X59564Y-49442D02*
X59425Y-49581D01*
X59007Y-49164D01*
X59146Y-49024D01*
X59564Y-49442D01*
X59564Y-49442D01*
G37*
G36*
X59787Y-49219D02*
X59647Y-49359D01*
X59229Y-48941D01*
X59369Y-48801D01*
X59787Y-49219D01*
X59787Y-49219D01*
G37*
G36*
X60009Y-48997D02*
X59869Y-49137D01*
X59451Y-48719D01*
X59591Y-48579D01*
X60009Y-48997D01*
X60009Y-48997D01*
G37*
G36*
X60231Y-48775D02*
X60092Y-48914D01*
X59674Y-48496D01*
X59814Y-48357D01*
X60231Y-48775D01*
X60231Y-48775D01*
G37*
G36*
X60454Y-48552D02*
X60315Y-48691D01*
X59897Y-48273D01*
X60036Y-48134D01*
X60454Y-48552D01*
X60454Y-48552D01*
G37*
G36*
X60677Y-48329D02*
X60538Y-48468D01*
X60120Y-48051D01*
X60259Y-47911D01*
X60677Y-48329D01*
X60677Y-48329D01*
G37*
G36*
X60538Y-47131D02*
X60677Y-47270D01*
X60259Y-47688D01*
X60120Y-47548D01*
X60538Y-47131D01*
X60538Y-47131D01*
G37*
G36*
X60315Y-46908D02*
X60454Y-47047D01*
X60036Y-47465D01*
X59897Y-47326D01*
X60315Y-46908D01*
X60315Y-46908D01*
G37*
G36*
X60092Y-46685D02*
X60231Y-46824D01*
X59814Y-47242D01*
X59674Y-47103D01*
X60092Y-46685D01*
X60092Y-46685D01*
G37*
G36*
X59869Y-46462D02*
X60009Y-46602D01*
X59591Y-47020D01*
X59451Y-46880D01*
X59869Y-46462D01*
X59869Y-46462D01*
G37*
G36*
X59647Y-46240D02*
X59787Y-46380D01*
X59369Y-46798D01*
X59229Y-46658D01*
X59647Y-46240D01*
X59647Y-46240D01*
G37*
G36*
X59425Y-46018D02*
X59564Y-46157D01*
X59146Y-46575D01*
X59007Y-46435D01*
X59425Y-46018D01*
X59425Y-46018D01*
G37*
G36*
X59202Y-45795D02*
X59341Y-45934D01*
X58923Y-46352D01*
X58784Y-46213D01*
X59202Y-45795D01*
X59202Y-45795D01*
G37*
G36*
X58979Y-45572D02*
X59118Y-45711D01*
X58701Y-46129D01*
X58561Y-45990D01*
X58979Y-45572D01*
X58979Y-45572D01*
G37*
G36*
X57781Y-45711D02*
X57920Y-45572D01*
X58338Y-45990D01*
X58198Y-46129D01*
X57781Y-45711D01*
X57781Y-45711D01*
G37*
G36*
X57558Y-45934D02*
X57697Y-45795D01*
X58115Y-46213D01*
X57976Y-46352D01*
X57558Y-45934D01*
X57558Y-45934D01*
G37*
G36*
X57335Y-46157D02*
X57474Y-46018D01*
X57892Y-46435D01*
X57753Y-46575D01*
X57335Y-46157D01*
X57335Y-46157D01*
G37*
G36*
X57112Y-46380D02*
X57252Y-46240D01*
X57670Y-46658D01*
X57530Y-46798D01*
X57112Y-46380D01*
X57112Y-46380D01*
G37*
G36*
X56890Y-46602D02*
X57030Y-46462D01*
X57448Y-46880D01*
X57308Y-47020D01*
X56890Y-46602D01*
X56890Y-46602D01*
G37*
G36*
X56668Y-46824D02*
X56807Y-46685D01*
X57225Y-47103D01*
X57085Y-47242D01*
X56668Y-46824D01*
X56668Y-46824D01*
G37*
G36*
X56445Y-47047D02*
X56584Y-46908D01*
X57002Y-47326D01*
X56863Y-47465D01*
X56445Y-47047D01*
X56445Y-47047D01*
G37*
G36*
X56222Y-47270D02*
X56361Y-47131D01*
X56779Y-47548D01*
X56640Y-47688D01*
X56222Y-47270D01*
X56222Y-47270D01*
G37*
G36*
X56361Y-48468D02*
X56222Y-48329D01*
X56640Y-47911D01*
X56779Y-48051D01*
X56361Y-48468D01*
X56361Y-48468D01*
G37*
G36*
X56584Y-48691D02*
X56445Y-48552D01*
X56863Y-48134D01*
X57002Y-48273D01*
X56584Y-48691D01*
X56584Y-48691D01*
G37*
G36*
X56807Y-48914D02*
X56668Y-48775D01*
X57085Y-48357D01*
X57225Y-48496D01*
X56807Y-48914D01*
X56807Y-48914D01*
G37*
G36*
X57030Y-49137D02*
X56890Y-48997D01*
X57308Y-48579D01*
X57448Y-48719D01*
X57030Y-49137D01*
X57030Y-49137D01*
G37*
G36*
X57252Y-49359D02*
X57112Y-49219D01*
X57530Y-48801D01*
X57670Y-48941D01*
X57252Y-49359D01*
X57252Y-49359D01*
G37*
G36*
X57474Y-49581D02*
X57335Y-49442D01*
X57753Y-49024D01*
X57892Y-49164D01*
X57474Y-49581D01*
X57474Y-49581D01*
G37*
G36*
X57697Y-49804D02*
X57558Y-49665D01*
X57976Y-49247D01*
X58115Y-49386D01*
X57697Y-49804D01*
X57697Y-49804D01*
G37*
G36*
X57920Y-50027D02*
X57781Y-49888D01*
X58198Y-49470D01*
X58338Y-49609D01*
X57920Y-50027D01*
X57920Y-50027D01*
G37*
G54D18*
X75497Y-50161D03*
X75497Y-49905D03*
X75497Y-49650D03*
X75497Y-49394D03*
X75497Y-49138D03*
G54D19*
X76619Y-51126D03*
X76619Y-48173D03*
G54D20*
X76619Y-49197D03*
X76619Y-50102D03*
G54D21*
X48950Y-51050D03*
G54D22*
X49950Y-51050D03*
X50950Y-51050D03*
X51950Y-51050D03*
G54D21*
X48950Y-49050D03*
G54D22*
X49950Y-49050D03*
X50950Y-49050D03*
X51950Y-49050D03*
G54D21*
X39450Y-49050D03*
G54D22*
X40450Y-49050D03*
X41450Y-49050D03*
X42450Y-49050D03*
G54D21*
X39450Y-51050D03*
G54D22*
X40450Y-51050D03*
X41450Y-51050D03*
X42450Y-51050D03*
G54D23*
X30950Y-48800D03*
G54D24*
X30950Y-50800D03*
G54D11*
X65975Y-51300D03*
X65424Y-51300D03*
X65975Y-50550D03*
X65424Y-50550D03*
G54D25*
X30450Y-36800D03*
X31450Y-36800D03*
X30450Y-39050D03*
X31450Y-39050D03*
X30450Y-41300D03*
X31450Y-41300D03*
X30450Y-43550D03*
X31450Y-43550D03*
X75450Y-36800D03*
X76450Y-36800D03*
X75450Y-39050D03*
X76450Y-39050D03*
X75450Y-41300D03*
X76450Y-41300D03*
X75450Y-43550D03*
X76450Y-43550D03*
X32700Y-36800D03*
X33700Y-36800D03*
X32700Y-39050D03*
X33700Y-39050D03*
X32700Y-41300D03*
X33700Y-41300D03*
X32700Y-43550D03*
X33700Y-43550D03*
X73200Y-36800D03*
X74200Y-36800D03*
X73200Y-39050D03*
X74200Y-39050D03*
X73200Y-41300D03*
X74200Y-41300D03*
X73200Y-43550D03*
X74200Y-43550D03*
X34950Y-36800D03*
X35950Y-36800D03*
X34950Y-39050D03*
X35950Y-39050D03*
X34950Y-41300D03*
X35950Y-41300D03*
X34950Y-43550D03*
X35950Y-43550D03*
X70950Y-36800D03*
X71950Y-36800D03*
X70950Y-39050D03*
X71950Y-39050D03*
X70950Y-41300D03*
X71950Y-41300D03*
X70950Y-43550D03*
X71950Y-43550D03*
X37200Y-36800D03*
X38200Y-36800D03*
X37200Y-39050D03*
X38200Y-39050D03*
X37200Y-41300D03*
X38200Y-41300D03*
X37200Y-43550D03*
X38200Y-43550D03*
X68700Y-36800D03*
X69700Y-36800D03*
X68700Y-39050D03*
X69700Y-39050D03*
X68700Y-41300D03*
X69700Y-41300D03*
X68700Y-43550D03*
X69700Y-43550D03*
X39450Y-36800D03*
X40450Y-36800D03*
X39450Y-39050D03*
X40450Y-39050D03*
X39450Y-41300D03*
X40450Y-41300D03*
X39450Y-43550D03*
X40450Y-43550D03*
X66450Y-36800D03*
X67450Y-36800D03*
X66450Y-39050D03*
X67450Y-39050D03*
X66450Y-41300D03*
X67450Y-41300D03*
X66450Y-43550D03*
X67450Y-43550D03*
X41700Y-36800D03*
X42700Y-36800D03*
X41700Y-39050D03*
X42700Y-39050D03*
X41700Y-41300D03*
X42700Y-41300D03*
X41700Y-43550D03*
X42700Y-43550D03*
X64200Y-36800D03*
X65200Y-36800D03*
X64200Y-39050D03*
X65200Y-39050D03*
X64200Y-41300D03*
X65200Y-41300D03*
X64200Y-43550D03*
X65200Y-43550D03*
X43950Y-36800D03*
X44950Y-36800D03*
X43950Y-39050D03*
X44950Y-39050D03*
X43950Y-41300D03*
X44950Y-41300D03*
X43950Y-43550D03*
X44950Y-43550D03*
X61950Y-36800D03*
X62950Y-36800D03*
X61950Y-39050D03*
X62950Y-39050D03*
X61950Y-41300D03*
X62950Y-41300D03*
X61950Y-43550D03*
X62950Y-43550D03*
X46200Y-36800D03*
X47200Y-36800D03*
X46200Y-39050D03*
X47200Y-39050D03*
X46200Y-41300D03*
X47200Y-41300D03*
X46200Y-43550D03*
X47200Y-43550D03*
X59700Y-36800D03*
X60700Y-36800D03*
X59700Y-39050D03*
X60700Y-39050D03*
X59700Y-41300D03*
X60700Y-41300D03*
X59700Y-43550D03*
X60700Y-43550D03*
X48450Y-36800D03*
X49450Y-36800D03*
X48450Y-39050D03*
X49450Y-39050D03*
X48450Y-41300D03*
X49450Y-41300D03*
X48450Y-43550D03*
X49450Y-43550D03*
X57450Y-36800D03*
X58450Y-36800D03*
X57450Y-39050D03*
X58450Y-39050D03*
X57450Y-41300D03*
X58450Y-41300D03*
X57450Y-43550D03*
X58450Y-43550D03*
X50700Y-36800D03*
X51700Y-36800D03*
X50700Y-39050D03*
X51700Y-39050D03*
X50700Y-41300D03*
X51700Y-41300D03*
X50700Y-43550D03*
X51700Y-43550D03*
X55200Y-36800D03*
X56200Y-36800D03*
X55200Y-39050D03*
X56200Y-39050D03*
X55200Y-41300D03*
X56200Y-41300D03*
X55200Y-43550D03*
X56200Y-43550D03*
X52950Y-36800D03*
X53950Y-36800D03*
X52950Y-39050D03*
X53950Y-39050D03*
X52950Y-41300D03*
X53950Y-41300D03*
X52950Y-43550D03*
X53950Y-43550D03*
G54D26*
X54200Y-49050D03*
G54D27*
X55200Y-49050D03*
X54200Y-50050D03*
X55200Y-50050D03*
X54200Y-51050D03*
X55200Y-51050D03*
G54D28*
X61825Y-45983D03*
X62200Y-45116D03*
X62574Y-45983D03*
X63575Y-45983D03*
X63950Y-45116D03*
X64324Y-45983D03*
X65325Y-45983D03*
X65700Y-45116D03*
X66074Y-45983D03*
X67075Y-45983D03*
X67450Y-45116D03*
X67824Y-45983D03*
X68825Y-45983D03*
X69200Y-45116D03*
X69574Y-45983D03*
X70575Y-45983D03*
X70950Y-45116D03*
X71324Y-45983D03*
X72325Y-45983D03*
X72700Y-45116D03*
X73074Y-45983D03*
X74075Y-45983D03*
X74450Y-45116D03*
X74824Y-45983D03*
X30575Y-45983D03*
X30950Y-45116D03*
X31324Y-45983D03*
X32825Y-45983D03*
X33200Y-45116D03*
X33574Y-45983D03*
X35075Y-45983D03*
X35450Y-45116D03*
X35824Y-45983D03*
X37325Y-45983D03*
X37700Y-45116D03*
X38074Y-45983D03*
X39575Y-45983D03*
X39950Y-45116D03*
X40324Y-45983D03*
X41825Y-45983D03*
X42200Y-45116D03*
X42574Y-45983D03*
X44075Y-45983D03*
X44450Y-45116D03*
X44824Y-45983D03*
X46325Y-45983D03*
X46700Y-45116D03*
X47074Y-45983D03*
X48575Y-45983D03*
X48950Y-45116D03*
X49324Y-45983D03*
X50825Y-45983D03*
X51200Y-45116D03*
X51574Y-45983D03*
X53075Y-45983D03*
X53450Y-45116D03*
X53824Y-45983D03*
G54D11*
X46174Y-51300D03*
X46725Y-51300D03*
X67700Y-48575D03*
X67700Y-48024D03*
X74475Y-50050D03*
X73924Y-50050D03*
X74475Y-49300D03*
X73924Y-49300D03*
X67225Y-51300D03*
X66674Y-51300D03*
X67225Y-50550D03*
X66674Y-50550D03*
X31950Y-45325D03*
X31950Y-44774D03*
X34200Y-45325D03*
X34200Y-44774D03*
X36450Y-45325D03*
X36450Y-44774D03*
X38700Y-45325D03*
X38700Y-44774D03*
X40950Y-45325D03*
X40950Y-44774D03*
X43200Y-45325D03*
X43200Y-44774D03*
X45450Y-45325D03*
X45450Y-44774D03*
X47700Y-45325D03*
X47700Y-44774D03*
X49950Y-45325D03*
X49950Y-44774D03*
X52200Y-45325D03*
X52200Y-44774D03*
X54450Y-45325D03*
X54450Y-44774D03*
G54D29*
X62950Y-50510D03*
X62950Y-48589D03*
G54D12*
X35101Y-47400D03*
X33998Y-47400D03*
X36298Y-47400D03*
X37401Y-47400D03*
G54D30*
X61150Y-45850D03*
X61600Y-45350D03*
X56050Y-49650D03*
X60350Y-45550D03*
X68900Y-48050D03*
X57450Y-51100D03*
X57450Y-50650D03*
X73100Y-46750D03*
X61600Y-44900D03*
X60700Y-45800D03*
X58150Y-50650D03*
X72650Y-46700D03*
X38900Y-47350D03*
X32850Y-47150D03*
X59250Y-47200D03*
X43400Y-47700D03*
X58800Y-46750D03*
X45600Y-47550D03*
X32850Y-46700D03*
X39100Y-46950D03*
X58200Y-50200D03*
X47600Y-47750D03*
X58650Y-50200D03*
X48000Y-47550D03*
X58500Y-48950D03*
X55600Y-47350D03*
X60850Y-47100D03*
X55450Y-46950D03*
X55000Y-46900D03*
X60550Y-46750D03*
X60100Y-46250D03*
X53100Y-47050D03*
X54350Y-46350D03*
X52350Y-46750D03*
X52800Y-46750D03*
X53700Y-46700D03*
X61450Y-41800D03*
X61450Y-42300D03*
X52450Y-42050D03*
X61950Y-42300D03*
X63450Y-42300D03*
X72200Y-42300D03*
X72200Y-42800D03*
X32050Y-37850D03*
X32050Y-42250D03*
X32050Y-40100D03*
X32050Y-36150D03*
X30350Y-44750D03*
X38400Y-47350D03*
X33200Y-47550D03*
X50500Y-44850D03*
X48300Y-44800D03*
X43800Y-44750D03*
X39350Y-44750D03*
X34800Y-44800D03*
X37050Y-44750D03*
X41550Y-44750D03*
X46100Y-44750D03*
X72250Y-50450D03*
X75800Y-50800D03*
X52900Y-50050D03*
X52850Y-44850D03*
X74850Y-37950D03*
X74850Y-42500D03*
X73600Y-45000D03*
X74850Y-40200D03*
X74850Y-36050D03*
X50150Y-42450D03*
X54600Y-40400D03*
X55400Y-45500D03*
X52300Y-40400D03*
X50150Y-40400D03*
X56850Y-40400D03*
X61750Y-51000D03*
X58177Y-47750D03*
X68200Y-48550D03*
X70400Y-47300D03*
X59500Y-51300D03*
X63000Y-45050D03*
X64800Y-45050D03*
X66550Y-45000D03*
X68300Y-44950D03*
X70000Y-45050D03*
X71800Y-45050D03*
X75650Y-46650D03*
X46200Y-49300D03*
X45700Y-49300D03*
X45200Y-49300D03*
X46200Y-49800D03*
X45700Y-49800D03*
X45200Y-49800D03*
X46200Y-50300D03*
X45700Y-50300D03*
X45200Y-50300D03*
X45200Y-48800D03*
X46200Y-48800D03*
X45700Y-48800D03*
X46200Y-48300D03*
X45700Y-48300D03*
X45200Y-48300D03*
X64250Y-51400D03*
X61050Y-51400D03*
X67450Y-47450D03*
X64250Y-48750D03*
X64550Y-47200D03*
X43750Y-50350D03*
X72350Y-47950D03*
X71600Y-49150D03*
X70450Y-49150D03*
X70450Y-49900D03*
X70450Y-48050D03*
X71950Y-48050D03*
X67150Y-48050D03*
X66000Y-48050D03*
X67850Y-50900D03*
X72350Y-49150D03*
X68300Y-50800D03*
X71550Y-48200D03*
G54D31*
X65310Y-49432D02*
X65310Y-48760D01*
X63400Y-46850D02*
X62900Y-46850D01*
X65310Y-48760D02*
X63400Y-46850D01*
X61300Y-46150D02*
X61300Y-46400D01*
X61300Y-46400D02*
X61750Y-46850D01*
X61300Y-46150D02*
X61300Y-45900D01*
X61300Y-45900D02*
X61250Y-45850D01*
X61250Y-45850D02*
X61150Y-45850D01*
X61750Y-46850D02*
X62900Y-46850D01*
X59491Y-45200D02*
X58840Y-45851D01*
X61600Y-45350D02*
X61450Y-45200D01*
X61450Y-45200D02*
X59491Y-45200D01*
X65566Y-49432D02*
X65566Y-48716D01*
X63450Y-46600D02*
X63100Y-46600D01*
X65566Y-48716D02*
X63450Y-46600D01*
X55650Y-50050D02*
X55200Y-50050D01*
X56050Y-49650D02*
X55650Y-50050D01*
X61525Y-45950D02*
X61525Y-46325D01*
X61800Y-46600D02*
X63100Y-46600D01*
X61525Y-46325D02*
X61800Y-46600D01*
X61525Y-45950D02*
X61525Y-45775D01*
X61200Y-45450D02*
X60000Y-45450D01*
X61525Y-45775D02*
X61200Y-45450D01*
X60000Y-45450D02*
X59687Y-45450D01*
X59687Y-45450D02*
X59063Y-46073D01*
X55200Y-49950D02*
X55200Y-50050D01*
X60250Y-45450D02*
X60350Y-45550D01*
X60000Y-45450D02*
X60250Y-45450D01*
X56986Y-49486D02*
X56986Y-50736D01*
X68900Y-48050D02*
X69424Y-48050D01*
X57350Y-51100D02*
X57450Y-51100D01*
X56986Y-50736D02*
X57350Y-51100D01*
X54700Y-50550D02*
X55922Y-50550D01*
X55922Y-50550D02*
X56986Y-49486D01*
X56986Y-49486D02*
X57391Y-49080D01*
X54200Y-51050D02*
X54700Y-50550D01*
X72846Y-47418D02*
X72846Y-47004D01*
X57250Y-49667D02*
X57614Y-49303D01*
X57250Y-50450D02*
X57250Y-49667D01*
X57450Y-50650D02*
X57250Y-50450D01*
X72846Y-47004D02*
X73100Y-46750D01*
X65054Y-49432D02*
X65054Y-48804D01*
X63350Y-47100D02*
X63100Y-47100D01*
X65054Y-48804D02*
X63350Y-47100D01*
X61050Y-46250D02*
X61050Y-46500D01*
X61650Y-47100D02*
X63100Y-47100D01*
X61050Y-46500D02*
X61650Y-47100D01*
X58960Y-44950D02*
X58059Y-45851D01*
X61550Y-44950D02*
X58960Y-44950D01*
X61600Y-44900D02*
X61550Y-44950D01*
X60700Y-45900D02*
X60700Y-45800D01*
X61050Y-46250D02*
X61050Y-46250D01*
X61050Y-46250D02*
X60700Y-45900D01*
X72078Y-47418D02*
X72078Y-46872D01*
X57500Y-49862D02*
X57836Y-49526D01*
X57500Y-50200D02*
X57500Y-49862D01*
X57850Y-50550D02*
X57500Y-50200D01*
X58050Y-50550D02*
X57850Y-50550D01*
X58150Y-50650D02*
X58050Y-50550D01*
X72500Y-46850D02*
X72650Y-46700D01*
X72100Y-46850D02*
X72500Y-46850D01*
X72078Y-46872D02*
X72100Y-46850D01*
X46802Y-49427D02*
X47377Y-49427D01*
X51400Y-50500D02*
X51950Y-51050D01*
X50750Y-50500D02*
X51400Y-50500D01*
X50500Y-50250D02*
X50750Y-50500D01*
X49850Y-50250D02*
X50500Y-50250D01*
X49600Y-50000D02*
X49850Y-50250D01*
X47950Y-50000D02*
X49600Y-50000D01*
X47377Y-49427D02*
X47950Y-50000D01*
X51950Y-49050D02*
X51950Y-48600D01*
X48517Y-48100D02*
X47956Y-48660D01*
X50200Y-48100D02*
X48517Y-48100D01*
X50450Y-48350D02*
X50200Y-48100D01*
X51700Y-48350D02*
X50450Y-48350D01*
X51950Y-48600D02*
X51700Y-48350D01*
X47250Y-48660D02*
X47956Y-48660D01*
X46802Y-48660D02*
X47250Y-48660D01*
X44597Y-49172D02*
X42572Y-49172D01*
X42572Y-49172D02*
X42450Y-49050D01*
X44597Y-49939D02*
X43560Y-49939D01*
X43560Y-49939D02*
X42450Y-51050D01*
X46802Y-49683D02*
X47283Y-49683D01*
X50400Y-50500D02*
X50950Y-51050D01*
X49750Y-50500D02*
X50400Y-50500D01*
X49500Y-50250D02*
X49750Y-50500D01*
X47850Y-50250D02*
X49500Y-50250D01*
X47283Y-49683D02*
X47850Y-50250D01*
X47350Y-48916D02*
X48033Y-48916D01*
X50150Y-48350D02*
X50850Y-49050D01*
X48600Y-48350D02*
X50150Y-48350D01*
X48033Y-48916D02*
X48600Y-48350D01*
X50850Y-49050D02*
X50950Y-49050D01*
X50700Y-49050D02*
X50950Y-49050D01*
X47250Y-48916D02*
X47350Y-48916D01*
X46802Y-48916D02*
X47250Y-48916D01*
X44597Y-48916D02*
X43116Y-48916D01*
X42000Y-48500D02*
X41450Y-49050D01*
X42700Y-48500D02*
X42000Y-48500D01*
X43116Y-48916D02*
X42700Y-48500D01*
X44597Y-49683D02*
X43466Y-49683D01*
X42000Y-50500D02*
X41450Y-51050D01*
X42650Y-50500D02*
X42000Y-50500D01*
X43466Y-49683D02*
X42650Y-50500D01*
X30575Y-45983D02*
X30575Y-46525D01*
X39500Y-47350D02*
X39450Y-47350D01*
X38900Y-47350D02*
X39500Y-47350D01*
X31200Y-47150D02*
X32850Y-47150D01*
X30575Y-46525D02*
X31200Y-47150D01*
X59250Y-47200D02*
X59708Y-46741D01*
X43300Y-47600D02*
X43400Y-47700D01*
X41500Y-47600D02*
X43300Y-47600D01*
X41250Y-47350D02*
X41500Y-47600D01*
X39450Y-47350D02*
X41250Y-47350D01*
X59708Y-46741D02*
X59730Y-46741D01*
X39500Y-47100D02*
X39250Y-47100D01*
X39500Y-47100D02*
X41300Y-47100D01*
X41300Y-47100D02*
X41550Y-47350D01*
X41550Y-47350D02*
X43500Y-47350D01*
X43500Y-47350D02*
X43750Y-47600D01*
X43750Y-47600D02*
X44700Y-47600D01*
X58800Y-46750D02*
X58900Y-46850D01*
X58900Y-46850D02*
X59177Y-46850D01*
X59508Y-46519D02*
X59177Y-46850D01*
X45550Y-47600D02*
X45600Y-47550D01*
X44700Y-47600D02*
X45550Y-47600D01*
X32825Y-46675D02*
X32825Y-45983D01*
X32850Y-46700D02*
X32825Y-46675D01*
X39250Y-47100D02*
X39100Y-46950D01*
X54200Y-46950D02*
X54482Y-46950D01*
X55950Y-47000D02*
X55950Y-47400D01*
X55500Y-46550D02*
X55950Y-47000D01*
X54882Y-46550D02*
X55500Y-46550D01*
X54482Y-46950D02*
X54882Y-46550D01*
X54200Y-46950D02*
X54000Y-46950D01*
X53900Y-47050D02*
X53600Y-47050D01*
X54000Y-46950D02*
X53900Y-47050D01*
X53075Y-46525D02*
X53075Y-45983D01*
X53600Y-47050D02*
X53075Y-46525D01*
X56250Y-47700D02*
X56250Y-47939D01*
X56250Y-47939D02*
X56501Y-48190D01*
X55950Y-47400D02*
X56250Y-47700D01*
X53075Y-45983D02*
X53075Y-46175D01*
X45425Y-47225D02*
X45725Y-47225D01*
X45725Y-47225D02*
X45950Y-47450D01*
X44450Y-47350D02*
X45300Y-47350D01*
X46100Y-47600D02*
X46200Y-47600D01*
X45950Y-47450D02*
X46100Y-47600D01*
X45300Y-47350D02*
X45375Y-47275D01*
X45375Y-47275D02*
X45425Y-47225D01*
X57850Y-49958D02*
X58059Y-49748D01*
X57850Y-50150D02*
X57850Y-49958D01*
X57900Y-50200D02*
X57850Y-50150D01*
X58200Y-50200D02*
X57900Y-50200D01*
X58059Y-49748D02*
X58059Y-49740D01*
X35075Y-45983D02*
X35075Y-46275D01*
X47450Y-47600D02*
X47600Y-47750D01*
X46200Y-47600D02*
X47450Y-47600D01*
X43800Y-47350D02*
X44450Y-47350D01*
X43550Y-47100D02*
X43800Y-47350D01*
X41600Y-47100D02*
X43550Y-47100D01*
X41350Y-46850D02*
X41600Y-47100D01*
X39550Y-46850D02*
X41350Y-46850D01*
X39300Y-46600D02*
X39550Y-46850D01*
X37350Y-46600D02*
X39300Y-46600D01*
X37100Y-46350D02*
X37350Y-46600D01*
X35150Y-46350D02*
X37100Y-46350D01*
X35075Y-46275D02*
X35150Y-46350D01*
X45050Y-47100D02*
X45250Y-47100D01*
X45250Y-47100D02*
X45350Y-47000D01*
X45350Y-47000D02*
X45800Y-47000D01*
X44150Y-47100D02*
X45050Y-47100D01*
X46150Y-47350D02*
X46550Y-47350D01*
X45800Y-47000D02*
X46150Y-47350D01*
X58840Y-49748D02*
X58840Y-49790D01*
X58840Y-49790D02*
X59100Y-50050D01*
X59100Y-50050D02*
X59100Y-50200D01*
X59100Y-50200D02*
X58950Y-50350D01*
X58950Y-50350D02*
X58800Y-50350D01*
X58800Y-50350D02*
X58650Y-50200D01*
X37325Y-45983D02*
X37325Y-46275D01*
X47800Y-47350D02*
X48000Y-47550D01*
X46550Y-47350D02*
X47800Y-47350D01*
X43850Y-47100D02*
X44150Y-47100D01*
X43600Y-46850D02*
X43850Y-47100D01*
X41650Y-46850D02*
X43600Y-46850D01*
X41400Y-46600D02*
X41650Y-46850D01*
X39600Y-46600D02*
X41400Y-46600D01*
X39350Y-46350D02*
X39600Y-46600D01*
X37400Y-46350D02*
X39350Y-46350D01*
X37325Y-46275D02*
X37400Y-46350D01*
X59063Y-49526D02*
X59063Y-49513D01*
X59063Y-49513D02*
X58500Y-48950D01*
X44800Y-46850D02*
X45200Y-46850D01*
X45200Y-46850D02*
X45300Y-46750D01*
X45300Y-46750D02*
X45850Y-46750D01*
X43350Y-46600D02*
X43800Y-46600D01*
X46200Y-47100D02*
X46450Y-47100D01*
X45850Y-46750D02*
X46200Y-47100D01*
X44050Y-46850D02*
X44800Y-46850D01*
X43800Y-46600D02*
X44050Y-46850D01*
X54400Y-47700D02*
X54700Y-47700D01*
X55500Y-47350D02*
X55600Y-47350D01*
X55350Y-47500D02*
X55500Y-47350D01*
X54900Y-47500D02*
X55350Y-47500D01*
X54700Y-47700D02*
X54900Y-47500D01*
X39575Y-46275D02*
X39650Y-46350D01*
X39650Y-46350D02*
X41450Y-46350D01*
X41450Y-46350D02*
X41700Y-46600D01*
X41700Y-46600D02*
X43350Y-46600D01*
X46450Y-47100D02*
X48000Y-47100D01*
X48000Y-47100D02*
X48250Y-47350D01*
X48250Y-47350D02*
X50350Y-47350D01*
X50350Y-47350D02*
X50600Y-47600D01*
X39575Y-45983D02*
X39575Y-46275D01*
X52150Y-47900D02*
X54050Y-47900D01*
X54050Y-47900D02*
X54250Y-47700D01*
X54250Y-47700D02*
X54400Y-47700D01*
X51850Y-47600D02*
X52150Y-47900D01*
X50600Y-47600D02*
X51850Y-47600D01*
X59026Y-49526D02*
X59063Y-49526D01*
X45000Y-46600D02*
X45150Y-46600D01*
X45150Y-46600D02*
X45250Y-46500D01*
X45250Y-46500D02*
X45900Y-46500D01*
X43700Y-46350D02*
X43850Y-46350D01*
X46250Y-46850D02*
X46600Y-46850D01*
X45900Y-46500D02*
X46250Y-46850D01*
X44100Y-46600D02*
X45000Y-46600D01*
X43850Y-46350D02*
X44100Y-46600D01*
X54300Y-47450D02*
X54600Y-47450D01*
X50400Y-47100D02*
X50650Y-47350D01*
X48350Y-47100D02*
X50400Y-47100D01*
X48100Y-46850D02*
X48350Y-47100D01*
X46600Y-46850D02*
X48100Y-46850D01*
X52200Y-47650D02*
X53950Y-47650D01*
X53950Y-47650D02*
X54150Y-47450D01*
X54150Y-47450D02*
X54300Y-47450D01*
X51900Y-47350D02*
X52200Y-47650D01*
X50650Y-47350D02*
X51900Y-47350D01*
X60700Y-47100D02*
X60850Y-47100D01*
X60398Y-47401D02*
X60700Y-47100D01*
X54600Y-47450D02*
X54800Y-47250D01*
X54800Y-47250D02*
X55150Y-47250D01*
X55150Y-47250D02*
X55450Y-46950D01*
X60398Y-47409D02*
X60398Y-47401D01*
X41825Y-46275D02*
X41900Y-46350D01*
X41900Y-46350D02*
X43700Y-46350D01*
X43700Y-46350D02*
X43750Y-46350D01*
X41825Y-45983D02*
X41825Y-46275D01*
X44750Y-46350D02*
X45100Y-46350D01*
X45100Y-46350D02*
X45200Y-46250D01*
X45200Y-46250D02*
X45950Y-46250D01*
X46300Y-46600D02*
X46500Y-46600D01*
X45950Y-46250D02*
X46300Y-46600D01*
X54250Y-47200D02*
X54550Y-47200D01*
X54850Y-46900D02*
X55000Y-46900D01*
X54550Y-47200D02*
X54850Y-46900D01*
X44075Y-46275D02*
X44150Y-46350D01*
X44150Y-46350D02*
X44750Y-46350D01*
X46500Y-46600D02*
X48150Y-46600D01*
X48150Y-46600D02*
X48400Y-46850D01*
X48400Y-46850D02*
X50450Y-46850D01*
X50450Y-46850D02*
X50700Y-47100D01*
X44075Y-45983D02*
X44075Y-46275D01*
X54100Y-47200D02*
X54250Y-47200D01*
X53900Y-47400D02*
X54100Y-47200D01*
X52250Y-47400D02*
X53900Y-47400D01*
X51950Y-47100D02*
X52250Y-47400D01*
X50700Y-47100D02*
X51950Y-47100D01*
X60500Y-46862D02*
X60176Y-47186D01*
X60500Y-46800D02*
X60500Y-46862D01*
X60550Y-46750D02*
X60500Y-46800D01*
X50750Y-46850D02*
X52000Y-46850D01*
X52000Y-46850D02*
X52250Y-47100D01*
X60200Y-46350D02*
X60200Y-46717D01*
X60100Y-46250D02*
X60200Y-46350D01*
X60200Y-46717D02*
X59953Y-46964D01*
X52250Y-47100D02*
X53050Y-47100D01*
X53050Y-47100D02*
X53100Y-47050D01*
X46325Y-45983D02*
X46325Y-46225D01*
X50500Y-46600D02*
X50750Y-46850D01*
X48450Y-46600D02*
X50500Y-46600D01*
X48200Y-46350D02*
X48450Y-46600D01*
X46450Y-46350D02*
X48200Y-46350D01*
X46325Y-46225D02*
X46450Y-46350D01*
X54350Y-46350D02*
X54650Y-46050D01*
X55587Y-46050D02*
X55887Y-46350D01*
X54650Y-46050D02*
X55587Y-46050D01*
X50250Y-46350D02*
X50600Y-46350D01*
X50600Y-46350D02*
X50850Y-46600D01*
X52200Y-46600D02*
X52350Y-46750D01*
X50850Y-46600D02*
X52200Y-46600D01*
X55887Y-46350D02*
X56723Y-47186D01*
X48575Y-46225D02*
X48700Y-46350D01*
X48700Y-46350D02*
X50250Y-46350D01*
X48575Y-46225D02*
X48575Y-45983D01*
X54350Y-46700D02*
X54450Y-46700D01*
X54450Y-46700D02*
X54850Y-46300D01*
X56200Y-46950D02*
X56200Y-47108D01*
X55550Y-46300D02*
X56200Y-46950D01*
X54850Y-46300D02*
X55550Y-46300D01*
X50825Y-45983D02*
X50825Y-46225D01*
X50825Y-46225D02*
X50950Y-46350D01*
X52400Y-46350D02*
X52450Y-46400D01*
X50950Y-46350D02*
X52400Y-46350D01*
X52450Y-46400D02*
X52800Y-46750D01*
X54250Y-46700D02*
X54350Y-46700D01*
X54150Y-46600D02*
X54250Y-46700D01*
X53800Y-46600D02*
X54150Y-46600D01*
X53700Y-46700D02*
X53800Y-46600D01*
X56200Y-47108D02*
X56501Y-47409D01*
X56501Y-47401D02*
X56350Y-47250D01*
X56501Y-47409D02*
X56501Y-47401D01*
X64500Y-46700D02*
X63950Y-46700D01*
X62000Y-46350D02*
X61850Y-46200D01*
X63600Y-46350D02*
X62000Y-46350D01*
X63950Y-46700D02*
X63600Y-46350D01*
X61850Y-46007D02*
X61850Y-46200D01*
X65310Y-46760D02*
X65250Y-46700D01*
X65250Y-46700D02*
X64500Y-46700D01*
X65310Y-46760D02*
X65310Y-47168D01*
X61850Y-46007D02*
X61825Y-45983D01*
X63575Y-45983D02*
X63583Y-45983D01*
X63583Y-45983D02*
X64050Y-46450D01*
X65566Y-46716D02*
X65566Y-47168D01*
X65300Y-46450D02*
X65566Y-46716D01*
X64050Y-46450D02*
X65300Y-46450D01*
X65822Y-47168D02*
X65822Y-46622D01*
X65822Y-46622D02*
X65325Y-46125D01*
X65325Y-46125D02*
X65325Y-45983D01*
X67075Y-45983D02*
X66766Y-45983D01*
X66766Y-45983D02*
X66400Y-46350D01*
X66078Y-47168D02*
X66078Y-46672D01*
X66078Y-46672D02*
X66400Y-46350D01*
X68000Y-46350D02*
X68700Y-46350D01*
X68825Y-46224D02*
X68825Y-45983D01*
X68700Y-46350D02*
X68825Y-46224D01*
X66334Y-47168D02*
X66334Y-46766D01*
X66750Y-46350D02*
X68000Y-46350D01*
X66334Y-46766D02*
X66750Y-46350D01*
X68350Y-46600D02*
X68850Y-46600D01*
X68850Y-46600D02*
X69100Y-46350D01*
X66590Y-47168D02*
X66590Y-46810D01*
X70575Y-46224D02*
X70575Y-45983D01*
X70450Y-46350D02*
X70575Y-46224D01*
X69100Y-46350D02*
X70450Y-46350D01*
X66800Y-46600D02*
X68350Y-46600D01*
X66590Y-46810D02*
X66800Y-46600D01*
X66846Y-47168D02*
X66846Y-46904D01*
X66846Y-46904D02*
X66900Y-46850D01*
X66900Y-46850D02*
X68900Y-46850D01*
X68900Y-46850D02*
X69150Y-46600D01*
X69150Y-46600D02*
X70550Y-46600D01*
X70550Y-46600D02*
X70800Y-46350D01*
X70800Y-46350D02*
X72200Y-46350D01*
X72200Y-46350D02*
X72325Y-46224D01*
X72325Y-46224D02*
X72325Y-45983D01*
X66590Y-49432D02*
X66590Y-48110D01*
X74075Y-46224D02*
X74075Y-45983D01*
X73950Y-46350D02*
X74075Y-46224D01*
X72550Y-46350D02*
X73950Y-46350D01*
X72300Y-46600D02*
X72550Y-46350D01*
X70900Y-46600D02*
X72300Y-46600D01*
X70650Y-46850D02*
X70900Y-46600D01*
X69200Y-46850D02*
X70650Y-46850D01*
X68950Y-47100D02*
X69200Y-46850D01*
X67250Y-47100D02*
X68950Y-47100D01*
X67100Y-47250D02*
X67250Y-47100D01*
X67100Y-47600D02*
X67100Y-47250D01*
X66590Y-48110D02*
X67100Y-47600D01*
X31950Y-45325D02*
X31158Y-45325D01*
X31158Y-45325D02*
X30950Y-45116D01*
X34200Y-45325D02*
X33408Y-45325D01*
X33408Y-45325D02*
X33200Y-45116D01*
X54450Y-45325D02*
X53658Y-45325D01*
X53658Y-45325D02*
X53450Y-45116D01*
X36450Y-45325D02*
X35658Y-45325D01*
X35658Y-45325D02*
X35450Y-45116D01*
X38700Y-45325D02*
X37908Y-45325D01*
X37908Y-45325D02*
X37700Y-45116D01*
X40950Y-45325D02*
X40158Y-45325D01*
X40158Y-45325D02*
X39950Y-45116D01*
X43200Y-45325D02*
X42408Y-45325D01*
X42408Y-45325D02*
X42200Y-45116D01*
X45450Y-45325D02*
X44658Y-45325D01*
X44658Y-45325D02*
X44450Y-45116D01*
X47700Y-45325D02*
X46908Y-45325D01*
X46908Y-45325D02*
X46700Y-45116D01*
X49950Y-45325D02*
X49158Y-45325D01*
X49158Y-45325D02*
X48950Y-45116D01*
X52200Y-45325D02*
X51408Y-45325D01*
X51408Y-45325D02*
X51200Y-45116D01*
X32700Y-36800D02*
X33200Y-36300D01*
X32700Y-36800D02*
X32150Y-36800D01*
X32150Y-36800D02*
X31650Y-36300D01*
X60950Y-42550D02*
X61200Y-42800D01*
X61200Y-42800D02*
X61200Y-43300D01*
X61450Y-41800D02*
X60950Y-42300D01*
X60950Y-42300D02*
X60950Y-42550D01*
X62200Y-45116D02*
X62200Y-44800D01*
X61950Y-44550D02*
X61450Y-44550D01*
X61450Y-44550D02*
X61200Y-44300D01*
X61200Y-44300D02*
X61200Y-43300D01*
X62200Y-44800D02*
X61950Y-44550D01*
X50200Y-36300D02*
X52450Y-36300D01*
X52450Y-36300D02*
X52950Y-36800D01*
X47950Y-36300D02*
X50200Y-36300D01*
X50200Y-36300D02*
X50700Y-36800D01*
X45700Y-36300D02*
X47950Y-36300D01*
X47950Y-36300D02*
X48450Y-36800D01*
X43450Y-36300D02*
X45700Y-36300D01*
X45700Y-36300D02*
X46200Y-36800D01*
X41200Y-36300D02*
X43450Y-36300D01*
X43450Y-36300D02*
X43950Y-36800D01*
X38950Y-36300D02*
X41200Y-36300D01*
X41200Y-36300D02*
X41700Y-36800D01*
X36700Y-36300D02*
X38950Y-36300D01*
X38950Y-36300D02*
X39450Y-36800D01*
X34450Y-36300D02*
X36700Y-36300D01*
X36700Y-36300D02*
X37200Y-36800D01*
X33200Y-36300D02*
X34450Y-36300D01*
X34450Y-36300D02*
X34950Y-36800D01*
X30450Y-36800D02*
X30950Y-36300D01*
X30950Y-36300D02*
X31650Y-36300D01*
X63700Y-44550D02*
X63950Y-44800D01*
X61450Y-42300D02*
X61450Y-44050D01*
X61450Y-44050D02*
X61700Y-44300D01*
X61700Y-44300D02*
X62200Y-44300D01*
X62200Y-44300D02*
X62450Y-44550D01*
X62450Y-44550D02*
X63700Y-44550D01*
X63950Y-44800D02*
X63950Y-45116D01*
X50200Y-39550D02*
X52450Y-39550D01*
X52450Y-39550D02*
X52950Y-39050D01*
X47950Y-39550D02*
X50200Y-39550D01*
X50200Y-39550D02*
X50700Y-39050D01*
X46200Y-39050D02*
X46700Y-39550D01*
X47950Y-39550D02*
X48450Y-39050D01*
X46700Y-39550D02*
X47950Y-39550D01*
X43450Y-38550D02*
X45700Y-38550D01*
X45700Y-38550D02*
X46200Y-39050D01*
X41200Y-38550D02*
X43450Y-38550D01*
X43450Y-38550D02*
X43950Y-39050D01*
X38950Y-38550D02*
X41200Y-38550D01*
X41200Y-38550D02*
X41700Y-39050D01*
X36700Y-38550D02*
X38950Y-38550D01*
X38950Y-38550D02*
X39450Y-39050D01*
X34450Y-38550D02*
X36700Y-38550D01*
X36700Y-38550D02*
X37200Y-39050D01*
X32200Y-38550D02*
X34450Y-38550D01*
X34450Y-38550D02*
X34950Y-39050D01*
X30450Y-39050D02*
X30950Y-38550D01*
X32200Y-38550D02*
X32700Y-39050D01*
X30950Y-38550D02*
X32200Y-38550D01*
X61950Y-42800D02*
X61950Y-42300D01*
X52950Y-41550D02*
X52450Y-42050D01*
X65700Y-44800D02*
X65450Y-44550D01*
X65450Y-44550D02*
X64200Y-44550D01*
X64200Y-44550D02*
X63950Y-44300D01*
X63950Y-44300D02*
X62700Y-44300D01*
X62700Y-44300D02*
X62450Y-44050D01*
X62450Y-44050D02*
X62450Y-43300D01*
X62450Y-43300D02*
X62200Y-43050D01*
X62200Y-43050D02*
X61950Y-42800D01*
X65700Y-44800D02*
X65700Y-45116D01*
X52950Y-41300D02*
X52950Y-41550D01*
X50200Y-40800D02*
X52450Y-40800D01*
X52450Y-40800D02*
X52950Y-41300D01*
X47950Y-40800D02*
X50200Y-40800D01*
X50200Y-40800D02*
X50700Y-41300D01*
X45700Y-40800D02*
X47950Y-40800D01*
X47950Y-40800D02*
X48450Y-41300D01*
X43450Y-40800D02*
X45700Y-40800D01*
X45700Y-40800D02*
X46200Y-41300D01*
X41200Y-40800D02*
X43450Y-40800D01*
X43450Y-40800D02*
X43950Y-41300D01*
X38950Y-40800D02*
X41200Y-40800D01*
X41200Y-40800D02*
X41700Y-41300D01*
X36700Y-40800D02*
X38950Y-40800D01*
X38950Y-40800D02*
X39450Y-41300D01*
X34450Y-40800D02*
X36700Y-40800D01*
X36700Y-40800D02*
X37200Y-41300D01*
X32200Y-40800D02*
X34450Y-40800D01*
X34450Y-40800D02*
X34950Y-41300D01*
X30450Y-41300D02*
X30950Y-40800D01*
X32200Y-40800D02*
X32700Y-41300D01*
X30950Y-40800D02*
X32200Y-40800D01*
X67450Y-44800D02*
X67200Y-44550D01*
X67200Y-44550D02*
X65950Y-44550D01*
X65950Y-44550D02*
X65700Y-44300D01*
X65700Y-44300D02*
X64450Y-44300D01*
X64450Y-44300D02*
X64200Y-44050D01*
X64200Y-44050D02*
X63700Y-44050D01*
X63700Y-44050D02*
X63450Y-43800D01*
X63450Y-43800D02*
X63450Y-42300D01*
X67450Y-45116D02*
X67450Y-44800D01*
X50200Y-43050D02*
X52450Y-43050D01*
X52450Y-43050D02*
X52950Y-43550D01*
X47950Y-43050D02*
X50200Y-43050D01*
X50200Y-43050D02*
X50700Y-43550D01*
X45700Y-43050D02*
X47950Y-43050D01*
X47950Y-43050D02*
X48450Y-43550D01*
X43450Y-43050D02*
X45700Y-43050D01*
X45700Y-43050D02*
X46200Y-43550D01*
X41200Y-43050D02*
X43450Y-43050D01*
X43450Y-43050D02*
X43950Y-43550D01*
X38950Y-43050D02*
X41200Y-43050D01*
X41200Y-43050D02*
X41700Y-43550D01*
X36700Y-43050D02*
X38950Y-43050D01*
X38950Y-43050D02*
X39450Y-43550D01*
X34450Y-43050D02*
X36700Y-43050D01*
X36700Y-43050D02*
X37200Y-43550D01*
X32200Y-43050D02*
X34450Y-43050D01*
X34450Y-43050D02*
X34950Y-43550D01*
X30450Y-43550D02*
X30950Y-43050D01*
X32200Y-43050D02*
X32700Y-43550D01*
X30950Y-43050D02*
X32200Y-43050D01*
X75450Y-36800D02*
X74900Y-36800D01*
X74900Y-36800D02*
X74400Y-36300D01*
X69200Y-45116D02*
X69200Y-44800D01*
X71450Y-43050D02*
X72200Y-42300D01*
X70700Y-43050D02*
X71450Y-43050D01*
X70450Y-43300D02*
X70700Y-43050D01*
X70450Y-44300D02*
X70450Y-43300D01*
X70200Y-44550D02*
X70450Y-44300D01*
X69450Y-44550D02*
X70200Y-44550D01*
X69200Y-44800D02*
X69450Y-44550D01*
X57950Y-36300D02*
X55700Y-36300D01*
X55700Y-36300D02*
X55200Y-36800D01*
X60200Y-36300D02*
X57950Y-36300D01*
X57950Y-36300D02*
X57450Y-36800D01*
X62450Y-36300D02*
X60200Y-36300D01*
X60200Y-36300D02*
X59700Y-36800D01*
X64700Y-36300D02*
X62450Y-36300D01*
X62450Y-36300D02*
X61950Y-36800D01*
X66950Y-36300D02*
X64700Y-36300D01*
X64700Y-36300D02*
X64200Y-36800D01*
X69200Y-36300D02*
X66950Y-36300D01*
X66950Y-36300D02*
X66450Y-36800D01*
X71450Y-36300D02*
X69200Y-36300D01*
X69200Y-36300D02*
X68700Y-36800D01*
X73700Y-36300D02*
X71450Y-36300D01*
X71450Y-36300D02*
X70950Y-36800D01*
X73700Y-36300D02*
X73200Y-36800D01*
X74400Y-36300D02*
X73700Y-36300D01*
X61950Y-39050D02*
X62450Y-38550D01*
X62450Y-38550D02*
X64700Y-38550D01*
X61950Y-39050D02*
X61450Y-39550D01*
X61450Y-39550D02*
X60200Y-39550D01*
X70950Y-45116D02*
X70950Y-44800D01*
X72450Y-43050D02*
X72200Y-42800D01*
X72450Y-44050D02*
X72450Y-43050D01*
X71950Y-44550D02*
X72450Y-44050D01*
X71200Y-44550D02*
X71950Y-44550D01*
X70950Y-44800D02*
X71200Y-44550D01*
X57950Y-39550D02*
X55700Y-39550D01*
X55700Y-39550D02*
X55200Y-39050D01*
X60200Y-39550D02*
X57950Y-39550D01*
X57950Y-39550D02*
X57450Y-39050D01*
X60200Y-39550D02*
X59700Y-39050D01*
X66950Y-38550D02*
X64700Y-38550D01*
X64700Y-38550D02*
X64200Y-39050D01*
X69200Y-38550D02*
X66950Y-38550D01*
X66950Y-38550D02*
X66450Y-39050D01*
X71450Y-38550D02*
X69200Y-38550D01*
X69200Y-38550D02*
X68700Y-39050D01*
X73700Y-38550D02*
X71450Y-38550D01*
X71450Y-38550D02*
X70950Y-39050D01*
X75450Y-39050D02*
X74950Y-38550D01*
X73700Y-38550D02*
X73200Y-39050D01*
X74950Y-38550D02*
X73700Y-38550D01*
X64200Y-39050D02*
X64200Y-39000D01*
X72700Y-45116D02*
X72700Y-41800D01*
X72700Y-41800D02*
X73200Y-41300D01*
X57950Y-40800D02*
X55700Y-40800D01*
X55700Y-40800D02*
X55200Y-41300D01*
X60200Y-40800D02*
X57950Y-40800D01*
X57950Y-40800D02*
X57450Y-41300D01*
X62450Y-40800D02*
X60200Y-40800D01*
X60200Y-40800D02*
X59700Y-41300D01*
X64700Y-40800D02*
X62450Y-40800D01*
X62450Y-40800D02*
X61950Y-41300D01*
X66950Y-40800D02*
X64700Y-40800D01*
X64700Y-40800D02*
X64200Y-41300D01*
X69200Y-40800D02*
X66950Y-40800D01*
X66950Y-40800D02*
X66450Y-41300D01*
X71450Y-40800D02*
X69200Y-40800D01*
X69200Y-40800D02*
X68700Y-41300D01*
X73700Y-40800D02*
X71450Y-40800D01*
X71450Y-40800D02*
X70950Y-41300D01*
X75450Y-41300D02*
X74950Y-40800D01*
X73700Y-40800D02*
X73200Y-41300D01*
X74950Y-40800D02*
X73700Y-40800D01*
X74450Y-45116D02*
X74450Y-44550D01*
X74450Y-44550D02*
X75450Y-43550D01*
X75450Y-43550D02*
X74950Y-43050D01*
X73700Y-43050D02*
X73200Y-43550D01*
X74950Y-43050D02*
X73700Y-43050D01*
X46802Y-49939D02*
X47239Y-49939D01*
X49400Y-50500D02*
X49950Y-51050D01*
X47800Y-50500D02*
X49400Y-50500D01*
X47239Y-49939D02*
X47800Y-50500D01*
X46802Y-49172D02*
X47472Y-49172D01*
X49600Y-49750D02*
X49950Y-49400D01*
X48050Y-49750D02*
X49600Y-49750D01*
X47472Y-49172D02*
X48050Y-49750D01*
X49950Y-49400D02*
X49950Y-49050D01*
X49950Y-48950D02*
X49950Y-49050D01*
X44597Y-48660D02*
X43210Y-48660D01*
X41000Y-48500D02*
X40450Y-49050D01*
X41650Y-48500D02*
X41000Y-48500D01*
X41900Y-48250D02*
X41650Y-48500D01*
X42800Y-48250D02*
X41900Y-48250D01*
X43210Y-48660D02*
X42800Y-48250D01*
X44597Y-49427D02*
X43372Y-49427D01*
X41000Y-50500D02*
X40450Y-51050D01*
X41650Y-50500D02*
X41000Y-50500D01*
X41900Y-50250D02*
X41650Y-50500D01*
X42550Y-50250D02*
X41900Y-50250D01*
X43372Y-49427D02*
X42550Y-50250D01*
X47400Y-48148D02*
X47851Y-48148D01*
X47851Y-48148D02*
X48400Y-47600D01*
X56550Y-48900D02*
X56682Y-48900D01*
X55600Y-47950D02*
X56550Y-48900D01*
X54300Y-47950D02*
X55600Y-47950D01*
X54100Y-48150D02*
X54300Y-47950D01*
X52100Y-48150D02*
X54100Y-48150D01*
X51800Y-47850D02*
X52100Y-48150D01*
X50550Y-47850D02*
X51800Y-47850D01*
X50300Y-47600D02*
X50550Y-47850D01*
X48400Y-47600D02*
X50300Y-47600D01*
X46802Y-48148D02*
X47400Y-48148D01*
X56682Y-48900D02*
X56946Y-48635D01*
X47400Y-48404D02*
X47895Y-48404D01*
X47895Y-48404D02*
X48450Y-47850D01*
X56500Y-49150D02*
X56877Y-49150D01*
X55550Y-48200D02*
X56500Y-49150D01*
X54350Y-48200D02*
X55550Y-48200D01*
X54150Y-48400D02*
X54350Y-48200D01*
X52050Y-48400D02*
X54150Y-48400D01*
X51750Y-48100D02*
X52050Y-48400D01*
X50500Y-48100D02*
X51750Y-48100D01*
X50250Y-47850D02*
X50500Y-48100D01*
X48450Y-47850D02*
X50250Y-47850D01*
X46802Y-48404D02*
X47400Y-48404D01*
X56877Y-49150D02*
X57169Y-48858D01*
X64800Y-49100D02*
X64800Y-48850D01*
X64800Y-48850D02*
X63650Y-47700D01*
X59691Y-45891D02*
X59285Y-46296D01*
X60800Y-46550D02*
X60800Y-46350D01*
X63300Y-47350D02*
X61600Y-47350D01*
X63650Y-47700D02*
X63300Y-47350D01*
X60800Y-46350D02*
X60350Y-45900D01*
X61600Y-47350D02*
X60800Y-46550D01*
X60341Y-45891D02*
X60350Y-45900D01*
X59691Y-45891D02*
X60341Y-45891D01*
X66334Y-49432D02*
X66334Y-49816D01*
X64800Y-49850D02*
X64800Y-49100D01*
X64850Y-49900D02*
X64800Y-49850D01*
X66250Y-49900D02*
X64850Y-49900D01*
X66334Y-49816D02*
X66250Y-49900D01*
X38400Y-47350D02*
X38350Y-47400D01*
X38350Y-47400D02*
X37401Y-47400D01*
X33998Y-47400D02*
X33350Y-47400D01*
X33350Y-47400D02*
X33200Y-47550D01*
X72078Y-50278D02*
X72250Y-50450D01*
X72078Y-49682D02*
X72078Y-50278D01*
X73074Y-45525D02*
X73074Y-45983D01*
X73074Y-45525D02*
X73600Y-45000D01*
X56850Y-40400D02*
X54600Y-40400D01*
X55450Y-45550D02*
X55400Y-45500D01*
X55450Y-45550D02*
X55924Y-45550D01*
X50150Y-40400D02*
X52300Y-40400D01*
X54600Y-40400D02*
X52300Y-40400D01*
X61450Y-50575D02*
X61450Y-50700D01*
X61450Y-50700D02*
X61750Y-51000D01*
X58350Y-48300D02*
X58350Y-47922D01*
X58850Y-48900D02*
X58850Y-48800D01*
X58850Y-48800D02*
X58350Y-48300D01*
X59253Y-49303D02*
X58850Y-48900D01*
X58350Y-47922D02*
X58177Y-47750D01*
X59285Y-49303D02*
X59253Y-49303D01*
X67700Y-48575D02*
X68174Y-48575D01*
X68174Y-48575D02*
X68200Y-48550D01*
X71822Y-47418D02*
X71822Y-46922D01*
X70500Y-47300D02*
X70400Y-47300D01*
X70400Y-47300D02*
X69975Y-47300D01*
X70950Y-46850D02*
X70500Y-47300D01*
X71750Y-46850D02*
X70950Y-46850D01*
X71822Y-46922D02*
X71750Y-46850D01*
X66846Y-49432D02*
X67368Y-49432D01*
X67700Y-49100D02*
X67700Y-48575D01*
X67368Y-49432D02*
X67700Y-49100D01*
X59950Y-50575D02*
X59950Y-50850D01*
X59950Y-50850D02*
X59500Y-51300D01*
X62574Y-45983D02*
X62574Y-45475D01*
X62574Y-45475D02*
X63000Y-45050D01*
X64324Y-45983D02*
X64324Y-45525D01*
X64324Y-45525D02*
X64800Y-45050D01*
X66074Y-45983D02*
X66074Y-45475D01*
X66074Y-45475D02*
X66550Y-45000D01*
X67824Y-45983D02*
X67824Y-45425D01*
X67824Y-45425D02*
X68300Y-44950D01*
X69574Y-45983D02*
X69574Y-45475D01*
X69574Y-45475D02*
X70000Y-45050D01*
X71324Y-45983D02*
X71324Y-45525D01*
X71324Y-45525D02*
X71800Y-45050D01*
X75497Y-49138D02*
X75497Y-46802D01*
X75497Y-46802D02*
X75650Y-46650D01*
X59730Y-48858D02*
X59708Y-48858D01*
X58177Y-47750D02*
X57169Y-46741D01*
X46174Y-50325D02*
X46200Y-50300D01*
X46200Y-50300D02*
X45700Y-49300D01*
X46802Y-50195D02*
X46304Y-50195D01*
X46304Y-50195D02*
X46200Y-50300D01*
X46200Y-50300D02*
X45700Y-49300D01*
X55924Y-45550D02*
X55924Y-45774D01*
X56377Y-45950D02*
X57169Y-46741D01*
X56100Y-45950D02*
X56377Y-45950D01*
X55924Y-45774D02*
X56100Y-45950D01*
X59950Y-50575D02*
X59825Y-50575D01*
X59825Y-50575D02*
X59650Y-50400D01*
X59650Y-50400D02*
X59650Y-49667D01*
X59650Y-49667D02*
X59285Y-49303D01*
X60700Y-50575D02*
X60525Y-50575D01*
X60400Y-49527D02*
X59730Y-48858D01*
X60400Y-50450D02*
X60400Y-49527D01*
X60525Y-50575D02*
X60400Y-50450D01*
X45700Y-49300D02*
X46200Y-49300D01*
X45700Y-49300D02*
X45200Y-49300D01*
X45700Y-49300D02*
X46200Y-49800D01*
X45700Y-49300D02*
X45700Y-49800D01*
X45700Y-49300D02*
X45200Y-49800D01*
X45700Y-49800D02*
X46200Y-50300D01*
X45700Y-49300D02*
X45700Y-50300D01*
X45700Y-49800D02*
X45200Y-50300D01*
X45700Y-49300D02*
X45200Y-48800D01*
X45700Y-49300D02*
X46200Y-48800D01*
X45700Y-49300D02*
X45700Y-48800D01*
X45700Y-48800D02*
X46200Y-48300D01*
X45700Y-49300D02*
X45700Y-48300D01*
X45700Y-48800D02*
X45200Y-48300D01*
X33574Y-45983D02*
X34533Y-45983D01*
X36298Y-46848D02*
X36298Y-47400D01*
X36050Y-46600D02*
X36298Y-46848D01*
X34950Y-46600D02*
X36050Y-46600D01*
X34650Y-46300D02*
X34950Y-46600D01*
X34650Y-46100D02*
X34650Y-46300D01*
X34533Y-45983D02*
X34650Y-46100D01*
X60700Y-50024D02*
X60974Y-50024D01*
X64400Y-51250D02*
X65100Y-51250D01*
X64250Y-51400D02*
X64400Y-51250D01*
X61050Y-50100D02*
X61050Y-51400D01*
X60974Y-50024D02*
X61050Y-50100D01*
X59508Y-49080D02*
X59508Y-49058D01*
X59508Y-49058D02*
X59200Y-48750D01*
X59367Y-48332D02*
X59650Y-48332D01*
X59200Y-48500D02*
X59367Y-48332D01*
X59200Y-48750D02*
X59200Y-48500D01*
X68674Y-51300D02*
X68674Y-50624D01*
X65424Y-50375D02*
X65424Y-50550D01*
X65650Y-50150D02*
X65424Y-50375D01*
X68200Y-50150D02*
X65650Y-50150D01*
X68674Y-50624D02*
X68200Y-50150D01*
X69424Y-47300D02*
X69150Y-47300D01*
X67550Y-47350D02*
X67450Y-47450D01*
X69100Y-47350D02*
X67550Y-47350D01*
X69150Y-47300D02*
X69100Y-47350D01*
X65054Y-47168D02*
X64582Y-47168D01*
X65100Y-50500D02*
X65100Y-50650D01*
X64550Y-49950D02*
X65100Y-50500D01*
X64550Y-49050D02*
X64550Y-49950D01*
X64250Y-48750D02*
X64550Y-49050D01*
X64582Y-47168D02*
X64550Y-47200D01*
X65424Y-50550D02*
X65200Y-50550D01*
X65150Y-51300D02*
X65424Y-51300D01*
X65100Y-51250D02*
X65150Y-51300D01*
X65100Y-50650D02*
X65100Y-51250D01*
X65200Y-50550D02*
X65100Y-50650D01*
X57836Y-46073D02*
X57836Y-46086D01*
X57836Y-46086D02*
X58400Y-46650D01*
X59650Y-48332D02*
X59953Y-48635D01*
X59650Y-48050D02*
X59650Y-48332D01*
X58400Y-46800D02*
X59650Y-48050D01*
X58400Y-46650D02*
X58400Y-46800D01*
X56475Y-45550D02*
X56475Y-45175D01*
X55350Y-45050D02*
X55200Y-45200D01*
X56350Y-45050D02*
X55350Y-45050D01*
X56475Y-45175D02*
X56350Y-45050D01*
X54416Y-45983D02*
X53824Y-45983D01*
X55200Y-45200D02*
X54416Y-45983D01*
X44050Y-50300D02*
X43800Y-50300D01*
X43800Y-50300D02*
X43750Y-50350D01*
X51574Y-45983D02*
X51574Y-45775D01*
X51574Y-45775D02*
X51750Y-45600D01*
X49324Y-45983D02*
X49324Y-45775D01*
X49324Y-45775D02*
X49500Y-45600D01*
X49500Y-45600D02*
X49450Y-45650D01*
X49450Y-45650D02*
X49450Y-45600D01*
X47074Y-45983D02*
X47074Y-45775D01*
X47074Y-45775D02*
X47250Y-45600D01*
X44824Y-45983D02*
X44824Y-45775D01*
X44824Y-45775D02*
X45000Y-45600D01*
X42574Y-45983D02*
X42574Y-45775D01*
X42574Y-45775D02*
X42750Y-45600D01*
X40324Y-45983D02*
X40324Y-45775D01*
X40324Y-45775D02*
X40500Y-45600D01*
X38074Y-45983D02*
X38074Y-45775D01*
X38074Y-45775D02*
X38250Y-45600D01*
X35824Y-45983D02*
X35824Y-45775D01*
X35824Y-45775D02*
X36000Y-45600D01*
X33574Y-45983D02*
X33574Y-45775D01*
X33574Y-45775D02*
X33750Y-45600D01*
X53824Y-45983D02*
X53824Y-45674D01*
X53824Y-45674D02*
X53750Y-45600D01*
X53750Y-45600D02*
X52650Y-45600D01*
X52650Y-45600D02*
X52600Y-45650D01*
X52600Y-45650D02*
X51900Y-45650D01*
X51900Y-45650D02*
X51850Y-45600D01*
X51850Y-45600D02*
X51750Y-45600D01*
X31324Y-45725D02*
X31324Y-45983D01*
X31450Y-45600D02*
X31324Y-45725D01*
X31600Y-45600D02*
X31450Y-45600D01*
X31650Y-45650D02*
X31600Y-45600D01*
X32250Y-45650D02*
X31650Y-45650D01*
X32300Y-45600D02*
X32250Y-45650D01*
X33850Y-45600D02*
X33750Y-45600D01*
X33750Y-45600D02*
X32300Y-45600D01*
X33900Y-45650D02*
X33850Y-45600D01*
X34600Y-45650D02*
X33900Y-45650D01*
X34650Y-45600D02*
X34600Y-45650D01*
X36100Y-45600D02*
X36000Y-45600D01*
X36000Y-45600D02*
X34650Y-45600D01*
X36150Y-45650D02*
X36100Y-45600D01*
X36850Y-45650D02*
X36150Y-45650D01*
X36900Y-45600D02*
X36850Y-45650D01*
X38350Y-45600D02*
X38250Y-45600D01*
X38250Y-45600D02*
X36900Y-45600D01*
X38400Y-45650D02*
X38350Y-45600D01*
X39100Y-45650D02*
X38400Y-45650D01*
X39150Y-45600D02*
X39100Y-45650D01*
X40600Y-45600D02*
X40500Y-45600D01*
X40500Y-45600D02*
X39150Y-45600D01*
X40650Y-45650D02*
X40600Y-45600D01*
X41300Y-45650D02*
X40650Y-45650D01*
X41350Y-45600D02*
X41300Y-45650D01*
X42850Y-45600D02*
X42750Y-45600D01*
X42750Y-45600D02*
X41350Y-45600D01*
X42900Y-45650D02*
X42850Y-45600D01*
X43550Y-45650D02*
X42900Y-45650D01*
X43600Y-45600D02*
X43550Y-45650D01*
X45100Y-45600D02*
X45000Y-45600D01*
X45000Y-45600D02*
X43600Y-45600D01*
X45150Y-45650D02*
X45100Y-45600D01*
X45850Y-45650D02*
X45150Y-45650D01*
X45900Y-45600D02*
X45850Y-45650D01*
X47350Y-45600D02*
X47250Y-45600D01*
X47250Y-45600D02*
X45900Y-45600D01*
X47400Y-45650D02*
X47350Y-45600D01*
X48100Y-45650D02*
X47400Y-45650D01*
X48150Y-45600D02*
X48100Y-45650D01*
X49600Y-45600D02*
X49450Y-45600D01*
X49450Y-45600D02*
X48150Y-45600D01*
X49650Y-45650D02*
X49600Y-45600D01*
X50400Y-45650D02*
X49650Y-45650D01*
X50450Y-45600D02*
X50400Y-45650D01*
X51750Y-45600D02*
X50450Y-45600D01*
X57836Y-46073D02*
X57836Y-46036D01*
X57836Y-46036D02*
X57350Y-45550D01*
X57350Y-45550D02*
X56475Y-45550D01*
X44101Y-50451D02*
X44101Y-51001D01*
X44400Y-51300D02*
X44674Y-51300D01*
X44101Y-51001D02*
X44400Y-51300D01*
X44597Y-50195D02*
X44104Y-50195D01*
X44101Y-50451D02*
X44597Y-50451D01*
X44050Y-50400D02*
X44101Y-50451D01*
X44050Y-50250D02*
X44050Y-50300D01*
X44050Y-50300D02*
X44050Y-50400D01*
X44104Y-50195D02*
X44050Y-50250D01*
X56475Y-45550D02*
X56475Y-45603D01*
X56475Y-45603D02*
X57391Y-46519D01*
X59950Y-50024D02*
X59950Y-49522D01*
X59950Y-49522D02*
X59508Y-49080D01*
X60700Y-50024D02*
X60700Y-49382D01*
X60700Y-49382D02*
X59953Y-48635D01*
X60700Y-50024D02*
X60700Y-50000D01*
X60700Y-50000D02*
X60650Y-49950D01*
X60650Y-49950D02*
X60700Y-50024D01*
X39450Y-51050D02*
X39450Y-49050D01*
X74950Y-50750D02*
X74950Y-51000D01*
X73550Y-51150D02*
X73300Y-51400D01*
X74800Y-51150D02*
X73550Y-51150D01*
X74950Y-51000D02*
X74800Y-51150D01*
X72424Y-51050D02*
X71501Y-51050D01*
X75497Y-50161D02*
X75088Y-50161D01*
X72424Y-51324D02*
X72424Y-51050D01*
X72500Y-51400D02*
X72424Y-51324D01*
X73300Y-51400D02*
X72500Y-51400D01*
X74950Y-50300D02*
X74950Y-50750D01*
X75088Y-50161D02*
X74950Y-50300D01*
X71526Y-51024D02*
X71501Y-51050D01*
X75497Y-49650D02*
X74825Y-49650D01*
X74825Y-49650D02*
X74475Y-49300D01*
X74475Y-49300D02*
X74475Y-48550D01*
X75497Y-49905D02*
X74619Y-49905D01*
X74619Y-49905D02*
X74475Y-50050D01*
X74475Y-50050D02*
X74475Y-50800D01*
X72334Y-47418D02*
X72334Y-47934D01*
X72334Y-47934D02*
X72350Y-47950D01*
X71566Y-49682D02*
X71566Y-49184D01*
X71566Y-49184D02*
X71600Y-49150D01*
X69975Y-49550D02*
X70550Y-49550D01*
X70850Y-50150D02*
X71500Y-50150D01*
X70800Y-50100D02*
X70850Y-50150D01*
X70800Y-49800D02*
X70800Y-50100D01*
X70550Y-49550D02*
X70800Y-49800D01*
X71310Y-49682D02*
X71310Y-50060D01*
X71566Y-50084D02*
X71566Y-49682D01*
X71500Y-50150D02*
X71566Y-50084D01*
X71400Y-50150D02*
X71500Y-50150D01*
X71310Y-50060D02*
X71400Y-50150D01*
X70398Y-51050D02*
X70398Y-50201D01*
X70398Y-50201D02*
X70450Y-50150D01*
X69975Y-48800D02*
X70350Y-48800D01*
X70350Y-48800D02*
X70450Y-48900D01*
X70450Y-48900D02*
X70450Y-49150D01*
X70450Y-49900D02*
X70450Y-50150D01*
X71822Y-50178D02*
X71822Y-49682D01*
X70450Y-50150D02*
X70700Y-50400D01*
X70700Y-50400D02*
X71600Y-50400D01*
X71600Y-50400D02*
X71822Y-50178D01*
X70398Y-51050D02*
X69475Y-51050D01*
X69475Y-51050D02*
X69225Y-51300D01*
X72590Y-47418D02*
X72590Y-47740D01*
X70450Y-48050D02*
X69975Y-48050D01*
X72200Y-48300D02*
X71950Y-48050D01*
X72450Y-48300D02*
X72200Y-48300D01*
X72700Y-48050D02*
X72450Y-48300D01*
X72700Y-47850D02*
X72700Y-48050D01*
X72590Y-47740D02*
X72700Y-47850D01*
X61450Y-49075D02*
X62463Y-49075D01*
X62463Y-49075D02*
X62950Y-48589D01*
X61450Y-49075D02*
X61284Y-49075D01*
X61284Y-49075D02*
X60398Y-48190D01*
X61450Y-50024D02*
X62463Y-50024D01*
X62463Y-50024D02*
X62950Y-50510D01*
X61450Y-50024D02*
X61424Y-50024D01*
X61424Y-50024D02*
X60950Y-49550D01*
X60950Y-49187D02*
X60176Y-48413D01*
X60950Y-49550D02*
X60950Y-49187D01*
X66000Y-48950D02*
X66000Y-48050D01*
X67175Y-48024D02*
X67700Y-48024D01*
X67150Y-48050D02*
X67175Y-48024D01*
X65822Y-49432D02*
X65822Y-49028D01*
X66078Y-49028D02*
X66078Y-49432D01*
X66000Y-48950D02*
X66078Y-49028D01*
X65900Y-48950D02*
X66000Y-48950D01*
X65822Y-49028D02*
X65900Y-48950D01*
X46802Y-50451D02*
X47101Y-50451D01*
X47101Y-50451D02*
X47200Y-50550D01*
X47200Y-50550D02*
X47200Y-51050D01*
X47200Y-51050D02*
X46950Y-51300D01*
X46950Y-51300D02*
X46725Y-51300D01*
X73450Y-49450D02*
X73450Y-49100D01*
X71450Y-48800D02*
X71200Y-49050D01*
X73150Y-48800D02*
X71450Y-48800D01*
X73450Y-49100D02*
X73150Y-48800D01*
X73924Y-50050D02*
X73700Y-50050D01*
X71054Y-49196D02*
X71054Y-49682D01*
X71200Y-49050D02*
X71054Y-49196D01*
X73450Y-49800D02*
X73450Y-49450D01*
X73700Y-50050D02*
X73450Y-49800D01*
X72334Y-49682D02*
X72334Y-49166D01*
X67450Y-51300D02*
X67225Y-51300D01*
X67850Y-50900D02*
X67450Y-51300D01*
X72334Y-49166D02*
X72350Y-49150D01*
X67225Y-50550D02*
X68050Y-50550D01*
X68050Y-50550D02*
X68300Y-50800D01*
X71310Y-48110D02*
X71310Y-47418D01*
X71400Y-48200D02*
X71310Y-48110D01*
X71550Y-48200D02*
X71400Y-48200D01*
X71054Y-48150D02*
X71054Y-48204D01*
X73200Y-48550D02*
X73450Y-48800D01*
X71400Y-48550D02*
X73200Y-48550D01*
X71054Y-48204D02*
X71400Y-48550D01*
X73924Y-49300D02*
X73924Y-49274D01*
X73924Y-49274D02*
X73450Y-48800D01*
X71054Y-48150D02*
X71054Y-47418D01*
X66674Y-51300D02*
X65975Y-51300D01*
X65975Y-50550D02*
X66674Y-50550D01*
X76450Y-39050D02*
X75950Y-39550D01*
X31950Y-39550D02*
X31450Y-39050D01*
X33700Y-39550D02*
X31950Y-39550D01*
X33950Y-39800D02*
X33700Y-39550D01*
X45700Y-39800D02*
X33950Y-39800D01*
X45950Y-40050D02*
X45700Y-39800D01*
X61950Y-40050D02*
X45950Y-40050D01*
X62200Y-39800D02*
X61950Y-40050D01*
X73950Y-39800D02*
X62200Y-39800D01*
X74200Y-39550D02*
X73950Y-39800D01*
X75950Y-39550D02*
X74200Y-39550D01*
X31450Y-43550D02*
X31450Y-44274D01*
X31450Y-44274D02*
X31950Y-44774D01*
X33700Y-39050D02*
X34200Y-39550D01*
X73700Y-39550D02*
X74200Y-39050D01*
X61950Y-39550D02*
X73700Y-39550D01*
X61700Y-39800D02*
X61950Y-39550D01*
X46450Y-39800D02*
X61700Y-39800D01*
X46200Y-39550D02*
X46450Y-39800D01*
X34200Y-39550D02*
X46200Y-39550D01*
X33700Y-43550D02*
X33700Y-44274D01*
X33700Y-44274D02*
X34200Y-44774D01*
X35950Y-36800D02*
X36450Y-37300D01*
X36450Y-37300D02*
X38200Y-37300D01*
X38200Y-37300D02*
X38450Y-37550D01*
X38450Y-37550D02*
X40200Y-37550D01*
X40200Y-37550D02*
X40450Y-37800D01*
X40450Y-37800D02*
X42200Y-37800D01*
X42200Y-37800D02*
X42450Y-38050D01*
X42450Y-38050D02*
X44200Y-38050D01*
X44200Y-38050D02*
X44499Y-38349D01*
X44499Y-38349D02*
X46249Y-38349D01*
X46249Y-38349D02*
X46450Y-38550D01*
X46450Y-38550D02*
X61450Y-38550D01*
X61450Y-38550D02*
X61700Y-38300D01*
X61700Y-38300D02*
X63450Y-38300D01*
X63450Y-38300D02*
X63700Y-38050D01*
X63700Y-38050D02*
X65450Y-38050D01*
X65450Y-38050D02*
X65700Y-37800D01*
X65700Y-37800D02*
X67450Y-37800D01*
X67450Y-37800D02*
X67700Y-37550D01*
X67700Y-37550D02*
X69450Y-37550D01*
X69450Y-37550D02*
X69700Y-37300D01*
X69700Y-37300D02*
X71450Y-37300D01*
X71450Y-37300D02*
X71950Y-36800D01*
X35950Y-43550D02*
X35950Y-44274D01*
X35950Y-44274D02*
X36450Y-44774D01*
X69700Y-36800D02*
X69200Y-37300D01*
X38700Y-37300D02*
X38200Y-36800D01*
X40450Y-37300D02*
X38700Y-37300D01*
X40700Y-37550D02*
X40450Y-37300D01*
X42450Y-37550D02*
X40700Y-37550D01*
X42700Y-37800D02*
X42450Y-37550D01*
X44450Y-37800D02*
X42700Y-37800D01*
X44700Y-38050D02*
X44450Y-37800D01*
X46450Y-38050D02*
X44700Y-38050D01*
X46700Y-38300D02*
X46450Y-38050D01*
X61200Y-38300D02*
X46700Y-38300D01*
X61450Y-38050D02*
X61200Y-38300D01*
X63200Y-38050D02*
X61450Y-38050D01*
X63450Y-37800D02*
X63200Y-38050D01*
X65200Y-37800D02*
X63450Y-37800D01*
X65450Y-37550D02*
X65200Y-37800D01*
X67200Y-37550D02*
X65450Y-37550D01*
X67450Y-37300D02*
X67200Y-37550D01*
X69200Y-37300D02*
X67450Y-37300D01*
X38200Y-43550D02*
X38200Y-44274D01*
X38200Y-44274D02*
X38700Y-44774D01*
X40450Y-36800D02*
X40950Y-37300D01*
X40950Y-37300D02*
X42700Y-37300D01*
X42700Y-37300D02*
X42950Y-37550D01*
X42950Y-37550D02*
X44700Y-37550D01*
X44700Y-37550D02*
X44950Y-37800D01*
X44950Y-37800D02*
X46700Y-37800D01*
X46700Y-37800D02*
X46950Y-38050D01*
X46950Y-38050D02*
X60950Y-38050D01*
X60950Y-38050D02*
X61200Y-37800D01*
X61200Y-37800D02*
X62950Y-37800D01*
X62950Y-37800D02*
X63200Y-37550D01*
X63200Y-37550D02*
X64950Y-37550D01*
X64950Y-37550D02*
X65200Y-37300D01*
X65200Y-37300D02*
X66950Y-37300D01*
X66950Y-37300D02*
X67450Y-36800D01*
X40450Y-43550D02*
X40450Y-44274D01*
X40450Y-44274D02*
X40950Y-44774D01*
X65200Y-43550D02*
X65050Y-43550D01*
X65050Y-43550D02*
X64550Y-43050D01*
X64650Y-41850D02*
X65200Y-41300D01*
X63950Y-41850D02*
X64650Y-41850D01*
X63800Y-42000D02*
X63950Y-41850D01*
X63800Y-42850D02*
X63800Y-42000D01*
X64000Y-43050D02*
X63800Y-42850D01*
X64550Y-43050D02*
X64000Y-43050D01*
X43200Y-37300D02*
X44950Y-37300D01*
X42700Y-36800D02*
X43200Y-37300D01*
X64700Y-37300D02*
X65200Y-36800D01*
X62950Y-37300D02*
X64700Y-37300D01*
X62700Y-37550D02*
X62950Y-37300D01*
X60950Y-37550D02*
X62700Y-37550D01*
X60700Y-37800D02*
X60950Y-37550D01*
X47200Y-37800D02*
X60700Y-37800D01*
X46950Y-37550D02*
X47200Y-37800D01*
X45200Y-37550D02*
X46950Y-37550D01*
X44950Y-37300D02*
X45200Y-37550D01*
X42700Y-43550D02*
X42700Y-44274D01*
X42700Y-44274D02*
X43200Y-44774D01*
X62950Y-43550D02*
X62950Y-41300D01*
X62950Y-36800D02*
X62450Y-37300D01*
X45450Y-37300D02*
X44950Y-36800D01*
X47200Y-37300D02*
X45450Y-37300D01*
X47450Y-37550D02*
X47200Y-37300D01*
X60450Y-37550D02*
X47450Y-37550D01*
X60700Y-37300D02*
X60450Y-37550D01*
X62450Y-37300D02*
X60700Y-37300D01*
X44950Y-43550D02*
X44950Y-44274D01*
X44950Y-44274D02*
X45450Y-44774D01*
X60700Y-43550D02*
X60700Y-41300D01*
X47200Y-36800D02*
X47700Y-37300D01*
X60200Y-37300D02*
X60700Y-36800D01*
X47700Y-37300D02*
X60200Y-37300D01*
X47200Y-43550D02*
X47200Y-44274D01*
X47200Y-44274D02*
X47700Y-44774D01*
X58450Y-41300D02*
X58450Y-43550D01*
X49450Y-43550D02*
X49450Y-44274D01*
X49450Y-44274D02*
X49950Y-44774D01*
X56200Y-43550D02*
X56200Y-41300D01*
X51700Y-43550D02*
X51700Y-44274D01*
X51700Y-44274D02*
X52200Y-44774D01*
X53950Y-43550D02*
X53950Y-41300D01*
X53950Y-43550D02*
X53950Y-44274D01*
X53950Y-44274D02*
X54450Y-44774D01*
G54D10*
G36*
X39800Y-51450D02*
X36450Y-51450D01*
X35000Y-51450D01*
X35000Y-50557D01*
X35450Y-49007D01*
X35450Y-48117D01*
X35624Y-47899D01*
X35628Y-47895D01*
X35628Y-47893D01*
X36024Y-47400D01*
X36300Y-47400D01*
X36300Y-47729D01*
X35950Y-48079D01*
X35950Y-49008D01*
X36013Y-49200D01*
X36203Y-49200D01*
X36227Y-49224D01*
X36319Y-49262D01*
X36419Y-49262D01*
X36891Y-49262D01*
X36983Y-49224D01*
X37008Y-49199D01*
X39056Y-48700D01*
X39800Y-48700D01*
X39800Y-51450D01*
X39800Y-51450D01*
G37*
G54D31*
X39800Y-51450D02*
X36450Y-51450D01*
X35000Y-51450D01*
X35000Y-50557D01*
X35450Y-49007D01*
X35450Y-48117D01*
X35624Y-47899D01*
X35628Y-47895D01*
X35628Y-47893D01*
X36024Y-47400D01*
X36300Y-47400D01*
X36300Y-47729D01*
X35950Y-48079D01*
X35950Y-49008D01*
X36013Y-49200D01*
X36203Y-49200D01*
X36227Y-49224D01*
X36319Y-49262D01*
X36419Y-49262D01*
X36891Y-49262D01*
X36983Y-49224D01*
X37008Y-49199D01*
X39056Y-48700D01*
X39800Y-48700D01*
X39800Y-51450D01*
G54D10*
G36*
X35350Y-47731D02*
X35050Y-48081D01*
X35050Y-49000D01*
X34498Y-49000D01*
X31398Y-49200D01*
X30550Y-49200D01*
X30550Y-48400D01*
X31402Y-48400D01*
X34524Y-48148D01*
X34840Y-47779D01*
X35077Y-47400D01*
X35350Y-47400D01*
X35350Y-47731D01*
X35350Y-47731D01*
G37*
G54D31*
X35350Y-47731D02*
X35050Y-48081D01*
X35050Y-49000D01*
X34498Y-49000D01*
X31398Y-49200D01*
X30550Y-49200D01*
X30550Y-48400D01*
X31402Y-48400D01*
X34524Y-48148D01*
X34840Y-47779D01*
X35077Y-47400D01*
X35350Y-47400D01*
X35350Y-47731D01*
G54D10*
G36*
X34725Y-46800D02*
X34644Y-46833D01*
X34574Y-46904D01*
X34550Y-46962D01*
X34525Y-46904D01*
X34455Y-46833D01*
X34363Y-46795D01*
X34111Y-46795D01*
X34048Y-46858D01*
X34048Y-47350D01*
X34056Y-47350D01*
X34056Y-47450D01*
X34048Y-47450D01*
X34048Y-47457D01*
X33948Y-47457D01*
X33948Y-47450D01*
X33948Y-47350D01*
X33948Y-46858D01*
X33886Y-46795D01*
X33634Y-46795D01*
X33542Y-46833D01*
X33471Y-46904D01*
X33433Y-46995D01*
X33433Y-47095D01*
X33433Y-47287D01*
X33496Y-47350D01*
X33948Y-47350D01*
X33948Y-47450D01*
X33496Y-47450D01*
X33433Y-47512D01*
X33433Y-47704D01*
X33433Y-47804D01*
X33436Y-47809D01*
X30150Y-48002D01*
X30150Y-49600D01*
X34650Y-49600D01*
X34650Y-51530D01*
X31637Y-51530D01*
X31637Y-50913D01*
X31628Y-50641D01*
X31541Y-50432D01*
X31432Y-50388D01*
X31361Y-50459D01*
X31361Y-50317D01*
X31317Y-50208D01*
X31063Y-50112D01*
X30791Y-50121D01*
X30582Y-50208D01*
X30538Y-50317D01*
X30950Y-50729D01*
X31361Y-50317D01*
X31361Y-50459D01*
X31020Y-50800D01*
X31432Y-51211D01*
X31541Y-51167D01*
X31637Y-50913D01*
X31637Y-51530D01*
X31361Y-51530D01*
X31361Y-51282D01*
X30950Y-50870D01*
X30879Y-50941D01*
X30879Y-50800D01*
X30467Y-50388D01*
X30358Y-50432D01*
X30262Y-50686D01*
X30271Y-50958D01*
X30358Y-51167D01*
X30467Y-51211D01*
X30879Y-50800D01*
X30879Y-50941D01*
X30538Y-51282D01*
X30582Y-51391D01*
X30836Y-51487D01*
X31108Y-51478D01*
X31317Y-51391D01*
X31361Y-51282D01*
X31361Y-51530D01*
X29969Y-51530D01*
X29969Y-43866D01*
X29970Y-43869D01*
X30129Y-44028D01*
X30337Y-44114D01*
X30561Y-44115D01*
X30769Y-44029D01*
X30928Y-43870D01*
X30949Y-43819D01*
X30970Y-43869D01*
X31129Y-44028D01*
X31150Y-44037D01*
X31150Y-44274D01*
X31172Y-44389D01*
X31237Y-44486D01*
X31562Y-44810D01*
X31562Y-44961D01*
X31588Y-45025D01*
X31327Y-45025D01*
X31327Y-44858D01*
X31289Y-44766D01*
X31219Y-44696D01*
X31127Y-44658D01*
X31028Y-44658D01*
X30772Y-44658D01*
X30680Y-44696D01*
X30610Y-44766D01*
X30572Y-44858D01*
X30572Y-44957D01*
X30572Y-45375D01*
X30610Y-45467D01*
X30667Y-45524D01*
X30654Y-45524D01*
X30398Y-45524D01*
X30306Y-45562D01*
X30236Y-45632D01*
X30198Y-45724D01*
X30198Y-45824D01*
X30198Y-46241D01*
X30236Y-46333D01*
X30275Y-46373D01*
X30275Y-46525D01*
X30298Y-46640D01*
X30363Y-46738D01*
X30987Y-47362D01*
X30987Y-47362D01*
X31085Y-47427D01*
X31200Y-47450D01*
X32584Y-47450D01*
X32623Y-47488D01*
X32770Y-47549D01*
X32929Y-47550D01*
X33076Y-47489D01*
X33188Y-47376D01*
X33249Y-47229D01*
X33250Y-47070D01*
X33189Y-46924D01*
X33249Y-46779D01*
X33250Y-46620D01*
X33189Y-46473D01*
X33125Y-46410D01*
X33125Y-46373D01*
X33165Y-46333D01*
X33200Y-46250D01*
X33234Y-46333D01*
X33304Y-46403D01*
X33396Y-46441D01*
X33495Y-46441D01*
X33751Y-46441D01*
X33843Y-46403D01*
X33913Y-46333D01*
X33934Y-46283D01*
X34350Y-46283D01*
X34350Y-46300D01*
X34372Y-46414D01*
X34437Y-46512D01*
X34725Y-46800D01*
X34725Y-46800D01*
G37*
G54D31*
X34725Y-46800D02*
X34644Y-46833D01*
X34574Y-46904D01*
X34550Y-46962D01*
X34525Y-46904D01*
X34455Y-46833D01*
X34363Y-46795D01*
X34111Y-46795D01*
X34048Y-46858D01*
X34048Y-47350D01*
X34056Y-47350D01*
X34056Y-47450D01*
X34048Y-47450D01*
X34048Y-47457D01*
X33948Y-47457D01*
X33948Y-47450D01*
X33948Y-47350D01*
X33948Y-46858D01*
X33886Y-46795D01*
X33634Y-46795D01*
X33542Y-46833D01*
X33471Y-46904D01*
X33433Y-46995D01*
X33433Y-47095D01*
X33433Y-47287D01*
X33496Y-47350D01*
X33948Y-47350D01*
X33948Y-47450D01*
X33496Y-47450D01*
X33433Y-47512D01*
X33433Y-47704D01*
X33433Y-47804D01*
X33436Y-47809D01*
X30150Y-48002D01*
X30150Y-49600D01*
X34650Y-49600D01*
X34650Y-51530D01*
X31637Y-51530D01*
X31637Y-50913D01*
X31628Y-50641D01*
X31541Y-50432D01*
X31432Y-50388D01*
X31361Y-50459D01*
X31361Y-50317D01*
X31317Y-50208D01*
X31063Y-50112D01*
X30791Y-50121D01*
X30582Y-50208D01*
X30538Y-50317D01*
X30950Y-50729D01*
X31361Y-50317D01*
X31361Y-50459D01*
X31020Y-50800D01*
X31432Y-51211D01*
X31541Y-51167D01*
X31637Y-50913D01*
X31637Y-51530D01*
X31361Y-51530D01*
X31361Y-51282D01*
X30950Y-50870D01*
X30879Y-50941D01*
X30879Y-50800D01*
X30467Y-50388D01*
X30358Y-50432D01*
X30262Y-50686D01*
X30271Y-50958D01*
X30358Y-51167D01*
X30467Y-51211D01*
X30879Y-50800D01*
X30879Y-50941D01*
X30538Y-51282D01*
X30582Y-51391D01*
X30836Y-51487D01*
X31108Y-51478D01*
X31317Y-51391D01*
X31361Y-51282D01*
X31361Y-51530D01*
X29969Y-51530D01*
X29969Y-43866D01*
X29970Y-43869D01*
X30129Y-44028D01*
X30337Y-44114D01*
X30561Y-44115D01*
X30769Y-44029D01*
X30928Y-43870D01*
X30949Y-43819D01*
X30970Y-43869D01*
X31129Y-44028D01*
X31150Y-44037D01*
X31150Y-44274D01*
X31172Y-44389D01*
X31237Y-44486D01*
X31562Y-44810D01*
X31562Y-44961D01*
X31588Y-45025D01*
X31327Y-45025D01*
X31327Y-44858D01*
X31289Y-44766D01*
X31219Y-44696D01*
X31127Y-44658D01*
X31028Y-44658D01*
X30772Y-44658D01*
X30680Y-44696D01*
X30610Y-44766D01*
X30572Y-44858D01*
X30572Y-44957D01*
X30572Y-45375D01*
X30610Y-45467D01*
X30667Y-45524D01*
X30654Y-45524D01*
X30398Y-45524D01*
X30306Y-45562D01*
X30236Y-45632D01*
X30198Y-45724D01*
X30198Y-45824D01*
X30198Y-46241D01*
X30236Y-46333D01*
X30275Y-46373D01*
X30275Y-46525D01*
X30298Y-46640D01*
X30363Y-46738D01*
X30987Y-47362D01*
X30987Y-47362D01*
X31085Y-47427D01*
X31200Y-47450D01*
X32584Y-47450D01*
X32623Y-47488D01*
X32770Y-47549D01*
X32929Y-47550D01*
X33076Y-47489D01*
X33188Y-47376D01*
X33249Y-47229D01*
X33250Y-47070D01*
X33189Y-46924D01*
X33249Y-46779D01*
X33250Y-46620D01*
X33189Y-46473D01*
X33125Y-46410D01*
X33125Y-46373D01*
X33165Y-46333D01*
X33200Y-46250D01*
X33234Y-46333D01*
X33304Y-46403D01*
X33396Y-46441D01*
X33495Y-46441D01*
X33751Y-46441D01*
X33843Y-46403D01*
X33913Y-46333D01*
X33934Y-46283D01*
X34350Y-46283D01*
X34350Y-46300D01*
X34372Y-46414D01*
X34437Y-46512D01*
X34725Y-46800D01*
G54D10*
G36*
X36088Y-45025D02*
X35827Y-45025D01*
X35827Y-44858D01*
X35789Y-44766D01*
X35719Y-44696D01*
X35627Y-44658D01*
X35528Y-44658D01*
X35272Y-44658D01*
X35180Y-44696D01*
X35110Y-44766D01*
X35072Y-44858D01*
X35072Y-44957D01*
X35072Y-45300D01*
X34650Y-45300D01*
X34587Y-45312D01*
X34587Y-45138D01*
X34551Y-45050D01*
X34587Y-44961D01*
X34587Y-44862D01*
X34587Y-44586D01*
X34549Y-44495D01*
X34479Y-44424D01*
X34387Y-44386D01*
X34288Y-44386D01*
X34236Y-44386D01*
X34000Y-44150D01*
X34000Y-44037D01*
X34019Y-44029D01*
X34178Y-43870D01*
X34264Y-43662D01*
X34265Y-43438D01*
X34228Y-43350D01*
X34325Y-43350D01*
X34393Y-43417D01*
X34385Y-43437D01*
X34384Y-43661D01*
X34470Y-43869D01*
X34629Y-44028D01*
X34837Y-44114D01*
X35061Y-44115D01*
X35269Y-44029D01*
X35428Y-43870D01*
X35449Y-43819D01*
X35470Y-43869D01*
X35629Y-44028D01*
X35650Y-44037D01*
X35650Y-44274D01*
X35672Y-44389D01*
X35737Y-44486D01*
X36062Y-44810D01*
X36062Y-44961D01*
X36088Y-45025D01*
X36088Y-45025D01*
G37*
G54D31*
X36088Y-45025D02*
X35827Y-45025D01*
X35827Y-44858D01*
X35789Y-44766D01*
X35719Y-44696D01*
X35627Y-44658D01*
X35528Y-44658D01*
X35272Y-44658D01*
X35180Y-44696D01*
X35110Y-44766D01*
X35072Y-44858D01*
X35072Y-44957D01*
X35072Y-45300D01*
X34650Y-45300D01*
X34587Y-45312D01*
X34587Y-45138D01*
X34551Y-45050D01*
X34587Y-44961D01*
X34587Y-44862D01*
X34587Y-44586D01*
X34549Y-44495D01*
X34479Y-44424D01*
X34387Y-44386D01*
X34288Y-44386D01*
X34236Y-44386D01*
X34000Y-44150D01*
X34000Y-44037D01*
X34019Y-44029D01*
X34178Y-43870D01*
X34264Y-43662D01*
X34265Y-43438D01*
X34228Y-43350D01*
X34325Y-43350D01*
X34393Y-43417D01*
X34385Y-43437D01*
X34384Y-43661D01*
X34470Y-43869D01*
X34629Y-44028D01*
X34837Y-44114D01*
X35061Y-44115D01*
X35269Y-44029D01*
X35428Y-43870D01*
X35449Y-43819D01*
X35470Y-43869D01*
X35629Y-44028D01*
X35650Y-44037D01*
X35650Y-44274D01*
X35672Y-44389D01*
X35737Y-44486D01*
X36062Y-44810D01*
X36062Y-44961D01*
X36088Y-45025D01*
G54D10*
G36*
X38338Y-45025D02*
X38077Y-45025D01*
X38077Y-44858D01*
X38039Y-44766D01*
X37969Y-44696D01*
X37877Y-44658D01*
X37778Y-44658D01*
X37522Y-44658D01*
X37430Y-44696D01*
X37360Y-44766D01*
X37322Y-44858D01*
X37322Y-44957D01*
X37322Y-45300D01*
X36900Y-45300D01*
X36837Y-45312D01*
X36837Y-45138D01*
X36801Y-45050D01*
X36837Y-44961D01*
X36837Y-44862D01*
X36837Y-44586D01*
X36799Y-44495D01*
X36729Y-44424D01*
X36637Y-44386D01*
X36538Y-44386D01*
X36486Y-44386D01*
X36250Y-44150D01*
X36250Y-44037D01*
X36269Y-44029D01*
X36428Y-43870D01*
X36514Y-43662D01*
X36515Y-43438D01*
X36478Y-43350D01*
X36575Y-43350D01*
X36643Y-43417D01*
X36635Y-43437D01*
X36634Y-43661D01*
X36720Y-43869D01*
X36879Y-44028D01*
X37087Y-44114D01*
X37311Y-44115D01*
X37519Y-44029D01*
X37678Y-43870D01*
X37699Y-43819D01*
X37720Y-43869D01*
X37879Y-44028D01*
X37900Y-44037D01*
X37900Y-44274D01*
X37922Y-44389D01*
X37987Y-44486D01*
X38312Y-44810D01*
X38312Y-44961D01*
X38338Y-45025D01*
X38338Y-45025D01*
G37*
G54D31*
X38338Y-45025D02*
X38077Y-45025D01*
X38077Y-44858D01*
X38039Y-44766D01*
X37969Y-44696D01*
X37877Y-44658D01*
X37778Y-44658D01*
X37522Y-44658D01*
X37430Y-44696D01*
X37360Y-44766D01*
X37322Y-44858D01*
X37322Y-44957D01*
X37322Y-45300D01*
X36900Y-45300D01*
X36837Y-45312D01*
X36837Y-45138D01*
X36801Y-45050D01*
X36837Y-44961D01*
X36837Y-44862D01*
X36837Y-44586D01*
X36799Y-44495D01*
X36729Y-44424D01*
X36637Y-44386D01*
X36538Y-44386D01*
X36486Y-44386D01*
X36250Y-44150D01*
X36250Y-44037D01*
X36269Y-44029D01*
X36428Y-43870D01*
X36514Y-43662D01*
X36515Y-43438D01*
X36478Y-43350D01*
X36575Y-43350D01*
X36643Y-43417D01*
X36635Y-43437D01*
X36634Y-43661D01*
X36720Y-43869D01*
X36879Y-44028D01*
X37087Y-44114D01*
X37311Y-44115D01*
X37519Y-44029D01*
X37678Y-43870D01*
X37699Y-43819D01*
X37720Y-43869D01*
X37879Y-44028D01*
X37900Y-44037D01*
X37900Y-44274D01*
X37922Y-44389D01*
X37987Y-44486D01*
X38312Y-44810D01*
X38312Y-44961D01*
X38338Y-45025D01*
G54D10*
G36*
X40588Y-45025D02*
X40327Y-45025D01*
X40327Y-44858D01*
X40289Y-44766D01*
X40219Y-44696D01*
X40127Y-44658D01*
X40028Y-44658D01*
X39772Y-44658D01*
X39680Y-44696D01*
X39610Y-44766D01*
X39572Y-44858D01*
X39572Y-44957D01*
X39572Y-45300D01*
X39150Y-45300D01*
X39087Y-45312D01*
X39087Y-45138D01*
X39051Y-45050D01*
X39087Y-44961D01*
X39087Y-44862D01*
X39087Y-44586D01*
X39049Y-44495D01*
X38979Y-44424D01*
X38887Y-44386D01*
X38788Y-44386D01*
X38736Y-44386D01*
X38500Y-44150D01*
X38500Y-44037D01*
X38519Y-44029D01*
X38678Y-43870D01*
X38764Y-43662D01*
X38765Y-43438D01*
X38728Y-43350D01*
X38825Y-43350D01*
X38893Y-43417D01*
X38885Y-43437D01*
X38884Y-43661D01*
X38970Y-43869D01*
X39129Y-44028D01*
X39337Y-44114D01*
X39561Y-44115D01*
X39769Y-44029D01*
X39928Y-43870D01*
X39949Y-43819D01*
X39970Y-43869D01*
X40129Y-44028D01*
X40150Y-44037D01*
X40150Y-44274D01*
X40172Y-44389D01*
X40237Y-44486D01*
X40562Y-44810D01*
X40562Y-44961D01*
X40588Y-45025D01*
X40588Y-45025D01*
G37*
G54D31*
X40588Y-45025D02*
X40327Y-45025D01*
X40327Y-44858D01*
X40289Y-44766D01*
X40219Y-44696D01*
X40127Y-44658D01*
X40028Y-44658D01*
X39772Y-44658D01*
X39680Y-44696D01*
X39610Y-44766D01*
X39572Y-44858D01*
X39572Y-44957D01*
X39572Y-45300D01*
X39150Y-45300D01*
X39087Y-45312D01*
X39087Y-45138D01*
X39051Y-45050D01*
X39087Y-44961D01*
X39087Y-44862D01*
X39087Y-44586D01*
X39049Y-44495D01*
X38979Y-44424D01*
X38887Y-44386D01*
X38788Y-44386D01*
X38736Y-44386D01*
X38500Y-44150D01*
X38500Y-44037D01*
X38519Y-44029D01*
X38678Y-43870D01*
X38764Y-43662D01*
X38765Y-43438D01*
X38728Y-43350D01*
X38825Y-43350D01*
X38893Y-43417D01*
X38885Y-43437D01*
X38884Y-43661D01*
X38970Y-43869D01*
X39129Y-44028D01*
X39337Y-44114D01*
X39561Y-44115D01*
X39769Y-44029D01*
X39928Y-43870D01*
X39949Y-43819D01*
X39970Y-43869D01*
X40129Y-44028D01*
X40150Y-44037D01*
X40150Y-44274D01*
X40172Y-44389D01*
X40237Y-44486D01*
X40562Y-44810D01*
X40562Y-44961D01*
X40588Y-45025D01*
G54D10*
G36*
X42225Y-38250D02*
X41200Y-38250D01*
X38950Y-38250D01*
X36700Y-38250D01*
X34450Y-38250D01*
X32200Y-38250D01*
X30950Y-38250D01*
X30835Y-38272D01*
X30737Y-38337D01*
X30582Y-38493D01*
X30562Y-38485D01*
X30338Y-38484D01*
X30130Y-38570D01*
X29971Y-38729D01*
X29969Y-38733D01*
X29969Y-37116D01*
X29970Y-37119D01*
X30129Y-37278D01*
X30337Y-37364D01*
X30561Y-37365D01*
X30769Y-37279D01*
X30928Y-37120D01*
X30949Y-37069D01*
X30970Y-37119D01*
X31129Y-37278D01*
X31337Y-37364D01*
X31561Y-37365D01*
X31769Y-37279D01*
X31928Y-37120D01*
X31965Y-37030D01*
X32035Y-37077D01*
X32150Y-37100D01*
X32212Y-37100D01*
X32220Y-37119D01*
X32379Y-37278D01*
X32587Y-37364D01*
X32811Y-37365D01*
X33019Y-37279D01*
X33178Y-37120D01*
X33199Y-37069D01*
X33220Y-37119D01*
X33379Y-37278D01*
X33587Y-37364D01*
X33811Y-37365D01*
X34019Y-37279D01*
X34178Y-37120D01*
X34264Y-36912D01*
X34265Y-36688D01*
X34228Y-36600D01*
X34325Y-36600D01*
X34393Y-36667D01*
X34385Y-36687D01*
X34384Y-36911D01*
X34470Y-37119D01*
X34629Y-37278D01*
X34837Y-37364D01*
X35061Y-37365D01*
X35269Y-37279D01*
X35428Y-37120D01*
X35449Y-37069D01*
X35470Y-37119D01*
X35629Y-37278D01*
X35837Y-37364D01*
X36061Y-37365D01*
X36082Y-37356D01*
X36237Y-37512D01*
X36237Y-37512D01*
X36335Y-37577D01*
X36450Y-37600D01*
X38075Y-37600D01*
X38237Y-37762D01*
X38296Y-37801D01*
X38335Y-37827D01*
X38335Y-37827D01*
X38450Y-37850D01*
X40075Y-37850D01*
X40237Y-38012D01*
X40296Y-38051D01*
X40335Y-38077D01*
X40335Y-38077D01*
X40450Y-38100D01*
X42075Y-38100D01*
X42225Y-38250D01*
X42225Y-38250D01*
G37*
G54D31*
X42225Y-38250D02*
X41200Y-38250D01*
X38950Y-38250D01*
X36700Y-38250D01*
X34450Y-38250D01*
X32200Y-38250D01*
X30950Y-38250D01*
X30835Y-38272D01*
X30737Y-38337D01*
X30582Y-38493D01*
X30562Y-38485D01*
X30338Y-38484D01*
X30130Y-38570D01*
X29971Y-38729D01*
X29969Y-38733D01*
X29969Y-37116D01*
X29970Y-37119D01*
X30129Y-37278D01*
X30337Y-37364D01*
X30561Y-37365D01*
X30769Y-37279D01*
X30928Y-37120D01*
X30949Y-37069D01*
X30970Y-37119D01*
X31129Y-37278D01*
X31337Y-37364D01*
X31561Y-37365D01*
X31769Y-37279D01*
X31928Y-37120D01*
X31965Y-37030D01*
X32035Y-37077D01*
X32150Y-37100D01*
X32212Y-37100D01*
X32220Y-37119D01*
X32379Y-37278D01*
X32587Y-37364D01*
X32811Y-37365D01*
X33019Y-37279D01*
X33178Y-37120D01*
X33199Y-37069D01*
X33220Y-37119D01*
X33379Y-37278D01*
X33587Y-37364D01*
X33811Y-37365D01*
X34019Y-37279D01*
X34178Y-37120D01*
X34264Y-36912D01*
X34265Y-36688D01*
X34228Y-36600D01*
X34325Y-36600D01*
X34393Y-36667D01*
X34385Y-36687D01*
X34384Y-36911D01*
X34470Y-37119D01*
X34629Y-37278D01*
X34837Y-37364D01*
X35061Y-37365D01*
X35269Y-37279D01*
X35428Y-37120D01*
X35449Y-37069D01*
X35470Y-37119D01*
X35629Y-37278D01*
X35837Y-37364D01*
X36061Y-37365D01*
X36082Y-37356D01*
X36237Y-37512D01*
X36237Y-37512D01*
X36335Y-37577D01*
X36450Y-37600D01*
X38075Y-37600D01*
X38237Y-37762D01*
X38296Y-37801D01*
X38335Y-37827D01*
X38335Y-37827D01*
X38450Y-37850D01*
X40075Y-37850D01*
X40237Y-38012D01*
X40296Y-38051D01*
X40335Y-38077D01*
X40335Y-38077D01*
X40450Y-38100D01*
X42075Y-38100D01*
X42225Y-38250D01*
G54D10*
G36*
X42838Y-45025D02*
X42577Y-45025D01*
X42577Y-44858D01*
X42539Y-44766D01*
X42469Y-44696D01*
X42377Y-44658D01*
X42278Y-44658D01*
X42022Y-44658D01*
X41930Y-44696D01*
X41860Y-44766D01*
X41822Y-44858D01*
X41822Y-44957D01*
X41822Y-45300D01*
X41350Y-45300D01*
X41337Y-45302D01*
X41337Y-45138D01*
X41301Y-45050D01*
X41337Y-44961D01*
X41337Y-44862D01*
X41337Y-44586D01*
X41299Y-44495D01*
X41229Y-44424D01*
X41137Y-44386D01*
X41038Y-44386D01*
X40986Y-44386D01*
X40750Y-44150D01*
X40750Y-44037D01*
X40769Y-44029D01*
X40928Y-43870D01*
X41014Y-43662D01*
X41015Y-43438D01*
X40978Y-43350D01*
X41075Y-43350D01*
X41143Y-43417D01*
X41135Y-43437D01*
X41134Y-43661D01*
X41220Y-43869D01*
X41379Y-44028D01*
X41587Y-44114D01*
X41811Y-44115D01*
X42019Y-44029D01*
X42178Y-43870D01*
X42199Y-43819D01*
X42220Y-43869D01*
X42379Y-44028D01*
X42400Y-44037D01*
X42400Y-44274D01*
X42422Y-44389D01*
X42487Y-44486D01*
X42812Y-44810D01*
X42812Y-44961D01*
X42838Y-45025D01*
X42838Y-45025D01*
G37*
G54D31*
X42838Y-45025D02*
X42577Y-45025D01*
X42577Y-44858D01*
X42539Y-44766D01*
X42469Y-44696D01*
X42377Y-44658D01*
X42278Y-44658D01*
X42022Y-44658D01*
X41930Y-44696D01*
X41860Y-44766D01*
X41822Y-44858D01*
X41822Y-44957D01*
X41822Y-45300D01*
X41350Y-45300D01*
X41337Y-45302D01*
X41337Y-45138D01*
X41301Y-45050D01*
X41337Y-44961D01*
X41337Y-44862D01*
X41337Y-44586D01*
X41299Y-44495D01*
X41229Y-44424D01*
X41137Y-44386D01*
X41038Y-44386D01*
X40986Y-44386D01*
X40750Y-44150D01*
X40750Y-44037D01*
X40769Y-44029D01*
X40928Y-43870D01*
X41014Y-43662D01*
X41015Y-43438D01*
X40978Y-43350D01*
X41075Y-43350D01*
X41143Y-43417D01*
X41135Y-43437D01*
X41134Y-43661D01*
X41220Y-43869D01*
X41379Y-44028D01*
X41587Y-44114D01*
X41811Y-44115D01*
X42019Y-44029D01*
X42178Y-43870D01*
X42199Y-43819D01*
X42220Y-43869D01*
X42379Y-44028D01*
X42400Y-44037D01*
X42400Y-44274D01*
X42422Y-44389D01*
X42487Y-44486D01*
X42812Y-44810D01*
X42812Y-44961D01*
X42838Y-45025D01*
G54D10*
G36*
X44118Y-47900D02*
X44070Y-47947D01*
X44032Y-48039D01*
X44032Y-48139D01*
X44032Y-48257D01*
X44040Y-48276D01*
X44032Y-48295D01*
X44032Y-48360D01*
X43334Y-48360D01*
X43012Y-48037D01*
X42914Y-47972D01*
X42800Y-47950D01*
X41900Y-47950D01*
X41785Y-47972D01*
X41746Y-47998D01*
X41687Y-48037D01*
X41525Y-48200D01*
X41000Y-48200D01*
X40885Y-48222D01*
X40787Y-48287D01*
X40612Y-48463D01*
X40570Y-48445D01*
X40330Y-48445D01*
X40250Y-48478D01*
X40250Y-48250D01*
X38942Y-48250D01*
X37966Y-48529D01*
X37966Y-47804D01*
X37966Y-47704D01*
X37966Y-47512D01*
X37903Y-47450D01*
X37451Y-47450D01*
X37451Y-47941D01*
X37513Y-48004D01*
X37765Y-48004D01*
X37857Y-47966D01*
X37928Y-47895D01*
X37966Y-47804D01*
X37966Y-48529D01*
X37192Y-48750D01*
X37091Y-48750D01*
X37091Y-48692D01*
X37029Y-48629D01*
X36655Y-48629D01*
X36655Y-48637D01*
X36555Y-48637D01*
X36555Y-48629D01*
X36547Y-48629D01*
X36547Y-48529D01*
X36555Y-48529D01*
X36555Y-48521D01*
X36655Y-48521D01*
X36655Y-48529D01*
X37029Y-48529D01*
X37091Y-48467D01*
X37091Y-48096D01*
X37053Y-48004D01*
X37053Y-48004D01*
X37288Y-48004D01*
X37351Y-47941D01*
X37351Y-47450D01*
X37343Y-47450D01*
X37343Y-47350D01*
X37351Y-47350D01*
X37351Y-47342D01*
X37451Y-47342D01*
X37451Y-47350D01*
X37903Y-47350D01*
X37966Y-47287D01*
X37966Y-47095D01*
X37966Y-46995D01*
X37928Y-46904D01*
X37924Y-46900D01*
X38700Y-46900D01*
X38699Y-46999D01*
X38673Y-47010D01*
X38561Y-47123D01*
X38500Y-47270D01*
X38499Y-47429D01*
X38560Y-47576D01*
X38673Y-47688D01*
X38820Y-47749D01*
X38979Y-47750D01*
X39126Y-47689D01*
X39165Y-47650D01*
X39450Y-47650D01*
X39500Y-47650D01*
X41125Y-47650D01*
X41287Y-47812D01*
X41346Y-47851D01*
X41385Y-47877D01*
X41385Y-47877D01*
X41500Y-47900D01*
X43049Y-47900D01*
X43060Y-47926D01*
X43173Y-48038D01*
X43320Y-48099D01*
X43479Y-48100D01*
X43626Y-48039D01*
X43738Y-47926D01*
X43750Y-47900D01*
X44118Y-47900D01*
X44118Y-47900D01*
G37*
G54D31*
X44118Y-47900D02*
X44070Y-47947D01*
X44032Y-48039D01*
X44032Y-48139D01*
X44032Y-48257D01*
X44040Y-48276D01*
X44032Y-48295D01*
X44032Y-48360D01*
X43334Y-48360D01*
X43012Y-48037D01*
X42914Y-47972D01*
X42800Y-47950D01*
X41900Y-47950D01*
X41785Y-47972D01*
X41746Y-47998D01*
X41687Y-48037D01*
X41525Y-48200D01*
X41000Y-48200D01*
X40885Y-48222D01*
X40787Y-48287D01*
X40612Y-48463D01*
X40570Y-48445D01*
X40330Y-48445D01*
X40250Y-48478D01*
X40250Y-48250D01*
X38942Y-48250D01*
X37966Y-48529D01*
X37966Y-47804D01*
X37966Y-47704D01*
X37966Y-47512D01*
X37903Y-47450D01*
X37451Y-47450D01*
X37451Y-47941D01*
X37513Y-48004D01*
X37765Y-48004D01*
X37857Y-47966D01*
X37928Y-47895D01*
X37966Y-47804D01*
X37966Y-48529D01*
X37192Y-48750D01*
X37091Y-48750D01*
X37091Y-48692D01*
X37029Y-48629D01*
X36655Y-48629D01*
X36655Y-48637D01*
X36555Y-48637D01*
X36555Y-48629D01*
X36547Y-48629D01*
X36547Y-48529D01*
X36555Y-48529D01*
X36555Y-48521D01*
X36655Y-48521D01*
X36655Y-48529D01*
X37029Y-48529D01*
X37091Y-48467D01*
X37091Y-48096D01*
X37053Y-48004D01*
X37053Y-48004D01*
X37288Y-48004D01*
X37351Y-47941D01*
X37351Y-47450D01*
X37343Y-47450D01*
X37343Y-47350D01*
X37351Y-47350D01*
X37351Y-47342D01*
X37451Y-47342D01*
X37451Y-47350D01*
X37903Y-47350D01*
X37966Y-47287D01*
X37966Y-47095D01*
X37966Y-46995D01*
X37928Y-46904D01*
X37924Y-46900D01*
X38700Y-46900D01*
X38699Y-46999D01*
X38673Y-47010D01*
X38561Y-47123D01*
X38500Y-47270D01*
X38499Y-47429D01*
X38560Y-47576D01*
X38673Y-47688D01*
X38820Y-47749D01*
X38979Y-47750D01*
X39126Y-47689D01*
X39165Y-47650D01*
X39450Y-47650D01*
X39500Y-47650D01*
X41125Y-47650D01*
X41287Y-47812D01*
X41346Y-47851D01*
X41385Y-47877D01*
X41385Y-47877D01*
X41500Y-47900D01*
X43049Y-47900D01*
X43060Y-47926D01*
X43173Y-48038D01*
X43320Y-48099D01*
X43479Y-48100D01*
X43626Y-48039D01*
X43738Y-47926D01*
X43750Y-47900D01*
X44118Y-47900D01*
G54D10*
G36*
X45088Y-45025D02*
X44827Y-45025D01*
X44827Y-44858D01*
X44789Y-44766D01*
X44719Y-44696D01*
X44627Y-44658D01*
X44528Y-44658D01*
X44272Y-44658D01*
X44180Y-44696D01*
X44110Y-44766D01*
X44072Y-44858D01*
X44072Y-44957D01*
X44072Y-45300D01*
X43600Y-45300D01*
X43587Y-45302D01*
X43587Y-45138D01*
X43551Y-45050D01*
X43587Y-44961D01*
X43587Y-44862D01*
X43587Y-44586D01*
X43549Y-44495D01*
X43479Y-44424D01*
X43387Y-44386D01*
X43288Y-44386D01*
X43236Y-44386D01*
X43000Y-44150D01*
X43000Y-44037D01*
X43019Y-44029D01*
X43178Y-43870D01*
X43264Y-43662D01*
X43265Y-43438D01*
X43228Y-43350D01*
X43325Y-43350D01*
X43393Y-43417D01*
X43385Y-43437D01*
X43384Y-43661D01*
X43470Y-43869D01*
X43629Y-44028D01*
X43837Y-44114D01*
X44061Y-44115D01*
X44269Y-44029D01*
X44428Y-43870D01*
X44449Y-43819D01*
X44470Y-43869D01*
X44629Y-44028D01*
X44650Y-44037D01*
X44650Y-44274D01*
X44672Y-44389D01*
X44737Y-44486D01*
X45062Y-44810D01*
X45062Y-44961D01*
X45088Y-45025D01*
X45088Y-45025D01*
G37*
G54D31*
X45088Y-45025D02*
X44827Y-45025D01*
X44827Y-44858D01*
X44789Y-44766D01*
X44719Y-44696D01*
X44627Y-44658D01*
X44528Y-44658D01*
X44272Y-44658D01*
X44180Y-44696D01*
X44110Y-44766D01*
X44072Y-44858D01*
X44072Y-44957D01*
X44072Y-45300D01*
X43600Y-45300D01*
X43587Y-45302D01*
X43587Y-45138D01*
X43551Y-45050D01*
X43587Y-44961D01*
X43587Y-44862D01*
X43587Y-44586D01*
X43549Y-44495D01*
X43479Y-44424D01*
X43387Y-44386D01*
X43288Y-44386D01*
X43236Y-44386D01*
X43000Y-44150D01*
X43000Y-44037D01*
X43019Y-44029D01*
X43178Y-43870D01*
X43264Y-43662D01*
X43265Y-43438D01*
X43228Y-43350D01*
X43325Y-43350D01*
X43393Y-43417D01*
X43385Y-43437D01*
X43384Y-43661D01*
X43470Y-43869D01*
X43629Y-44028D01*
X43837Y-44114D01*
X44061Y-44115D01*
X44269Y-44029D01*
X44428Y-43870D01*
X44449Y-43819D01*
X44470Y-43869D01*
X44629Y-44028D01*
X44650Y-44037D01*
X44650Y-44274D01*
X44672Y-44389D01*
X44737Y-44486D01*
X45062Y-44810D01*
X45062Y-44961D01*
X45088Y-45025D01*
G54D10*
G36*
X46900Y-50912D02*
X46813Y-50912D01*
X46538Y-50912D01*
X46450Y-50948D01*
X46361Y-50912D01*
X46286Y-50912D01*
X46224Y-50974D01*
X46224Y-51250D01*
X46232Y-51250D01*
X46232Y-51350D01*
X46224Y-51350D01*
X46224Y-51357D01*
X46124Y-51357D01*
X46124Y-51350D01*
X46124Y-51250D01*
X46124Y-50974D01*
X46061Y-50912D01*
X45986Y-50912D01*
X45895Y-50950D01*
X45824Y-51020D01*
X45786Y-51112D01*
X45786Y-51187D01*
X45849Y-51250D01*
X46124Y-51250D01*
X46124Y-51350D01*
X45849Y-51350D01*
X45786Y-51412D01*
X45786Y-51487D01*
X45804Y-51530D01*
X45595Y-51530D01*
X45613Y-51487D01*
X45613Y-51412D01*
X45613Y-51187D01*
X45613Y-51112D01*
X45575Y-51020D01*
X45504Y-50950D01*
X45413Y-50912D01*
X45338Y-50912D01*
X45275Y-50974D01*
X45275Y-51250D01*
X45550Y-51250D01*
X45613Y-51187D01*
X45613Y-51412D01*
X45550Y-51350D01*
X45275Y-51350D01*
X45275Y-51357D01*
X45175Y-51357D01*
X45175Y-51350D01*
X45167Y-51350D01*
X45167Y-51250D01*
X45175Y-51250D01*
X45175Y-50974D01*
X45113Y-50912D01*
X45038Y-50912D01*
X44950Y-50948D01*
X44861Y-50912D01*
X44762Y-50912D01*
X44486Y-50912D01*
X44451Y-50926D01*
X44401Y-50877D01*
X44401Y-50760D01*
X44858Y-50760D01*
X44889Y-50791D01*
X44980Y-50829D01*
X45587Y-50829D01*
X45650Y-50767D01*
X45650Y-49350D01*
X45642Y-49350D01*
X45642Y-49250D01*
X45650Y-49250D01*
X45650Y-49242D01*
X45750Y-49242D01*
X45750Y-49250D01*
X45757Y-49250D01*
X45757Y-49350D01*
X45750Y-49350D01*
X45750Y-50767D01*
X45812Y-50829D01*
X46419Y-50829D01*
X46510Y-50791D01*
X46541Y-50760D01*
X46900Y-50760D01*
X46900Y-50912D01*
X46900Y-50912D01*
G37*
G54D31*
X46900Y-50912D02*
X46813Y-50912D01*
X46538Y-50912D01*
X46450Y-50948D01*
X46361Y-50912D01*
X46286Y-50912D01*
X46224Y-50974D01*
X46224Y-51250D01*
X46232Y-51250D01*
X46232Y-51350D01*
X46224Y-51350D01*
X46224Y-51357D01*
X46124Y-51357D01*
X46124Y-51350D01*
X46124Y-51250D01*
X46124Y-50974D01*
X46061Y-50912D01*
X45986Y-50912D01*
X45895Y-50950D01*
X45824Y-51020D01*
X45786Y-51112D01*
X45786Y-51187D01*
X45849Y-51250D01*
X46124Y-51250D01*
X46124Y-51350D01*
X45849Y-51350D01*
X45786Y-51412D01*
X45786Y-51487D01*
X45804Y-51530D01*
X45595Y-51530D01*
X45613Y-51487D01*
X45613Y-51412D01*
X45613Y-51187D01*
X45613Y-51112D01*
X45575Y-51020D01*
X45504Y-50950D01*
X45413Y-50912D01*
X45338Y-50912D01*
X45275Y-50974D01*
X45275Y-51250D01*
X45550Y-51250D01*
X45613Y-51187D01*
X45613Y-51412D01*
X45550Y-51350D01*
X45275Y-51350D01*
X45275Y-51357D01*
X45175Y-51357D01*
X45175Y-51350D01*
X45167Y-51350D01*
X45167Y-51250D01*
X45175Y-51250D01*
X45175Y-50974D01*
X45113Y-50912D01*
X45038Y-50912D01*
X44950Y-50948D01*
X44861Y-50912D01*
X44762Y-50912D01*
X44486Y-50912D01*
X44451Y-50926D01*
X44401Y-50877D01*
X44401Y-50760D01*
X44858Y-50760D01*
X44889Y-50791D01*
X44980Y-50829D01*
X45587Y-50829D01*
X45650Y-50767D01*
X45650Y-49350D01*
X45642Y-49350D01*
X45642Y-49250D01*
X45650Y-49250D01*
X45650Y-49242D01*
X45750Y-49242D01*
X45750Y-49250D01*
X45757Y-49250D01*
X45757Y-49350D01*
X45750Y-49350D01*
X45750Y-50767D01*
X45812Y-50829D01*
X46419Y-50829D01*
X46510Y-50791D01*
X46541Y-50760D01*
X46900Y-50760D01*
X46900Y-50912D01*
G54D10*
G36*
X47338Y-45025D02*
X47077Y-45025D01*
X47077Y-44858D01*
X47039Y-44766D01*
X46969Y-44696D01*
X46877Y-44658D01*
X46778Y-44658D01*
X46522Y-44658D01*
X46430Y-44696D01*
X46360Y-44766D01*
X46322Y-44858D01*
X46322Y-44957D01*
X46322Y-45300D01*
X45900Y-45300D01*
X45837Y-45312D01*
X45837Y-45138D01*
X45801Y-45050D01*
X45837Y-44961D01*
X45837Y-44862D01*
X45837Y-44586D01*
X45799Y-44495D01*
X45729Y-44424D01*
X45637Y-44386D01*
X45538Y-44386D01*
X45486Y-44386D01*
X45250Y-44150D01*
X45250Y-44037D01*
X45269Y-44029D01*
X45428Y-43870D01*
X45514Y-43662D01*
X45515Y-43438D01*
X45478Y-43350D01*
X45575Y-43350D01*
X45643Y-43417D01*
X45635Y-43437D01*
X45634Y-43661D01*
X45720Y-43869D01*
X45879Y-44028D01*
X46087Y-44114D01*
X46311Y-44115D01*
X46519Y-44029D01*
X46678Y-43870D01*
X46699Y-43819D01*
X46720Y-43869D01*
X46879Y-44028D01*
X46900Y-44037D01*
X46900Y-44274D01*
X46922Y-44389D01*
X46987Y-44486D01*
X47312Y-44810D01*
X47312Y-44961D01*
X47338Y-45025D01*
X47338Y-45025D01*
G37*
G54D31*
X47338Y-45025D02*
X47077Y-45025D01*
X47077Y-44858D01*
X47039Y-44766D01*
X46969Y-44696D01*
X46877Y-44658D01*
X46778Y-44658D01*
X46522Y-44658D01*
X46430Y-44696D01*
X46360Y-44766D01*
X46322Y-44858D01*
X46322Y-44957D01*
X46322Y-45300D01*
X45900Y-45300D01*
X45837Y-45312D01*
X45837Y-45138D01*
X45801Y-45050D01*
X45837Y-44961D01*
X45837Y-44862D01*
X45837Y-44586D01*
X45799Y-44495D01*
X45729Y-44424D01*
X45637Y-44386D01*
X45538Y-44386D01*
X45486Y-44386D01*
X45250Y-44150D01*
X45250Y-44037D01*
X45269Y-44029D01*
X45428Y-43870D01*
X45514Y-43662D01*
X45515Y-43438D01*
X45478Y-43350D01*
X45575Y-43350D01*
X45643Y-43417D01*
X45635Y-43437D01*
X45634Y-43661D01*
X45720Y-43869D01*
X45879Y-44028D01*
X46087Y-44114D01*
X46311Y-44115D01*
X46519Y-44029D01*
X46678Y-43870D01*
X46699Y-43819D01*
X46720Y-43869D01*
X46879Y-44028D01*
X46900Y-44037D01*
X46900Y-44274D01*
X46922Y-44389D01*
X46987Y-44486D01*
X47312Y-44810D01*
X47312Y-44961D01*
X47338Y-45025D01*
G54D10*
G36*
X49588Y-45025D02*
X49327Y-45025D01*
X49327Y-44858D01*
X49289Y-44766D01*
X49219Y-44696D01*
X49127Y-44658D01*
X49028Y-44658D01*
X48772Y-44658D01*
X48680Y-44696D01*
X48610Y-44766D01*
X48572Y-44858D01*
X48572Y-44957D01*
X48572Y-45300D01*
X48150Y-45300D01*
X48087Y-45312D01*
X48087Y-45138D01*
X48051Y-45050D01*
X48087Y-44961D01*
X48087Y-44862D01*
X48087Y-44586D01*
X48049Y-44495D01*
X47979Y-44424D01*
X47887Y-44386D01*
X47788Y-44386D01*
X47736Y-44386D01*
X47500Y-44150D01*
X47500Y-44037D01*
X47519Y-44029D01*
X47678Y-43870D01*
X47764Y-43662D01*
X47765Y-43438D01*
X47728Y-43350D01*
X47825Y-43350D01*
X47893Y-43417D01*
X47885Y-43437D01*
X47884Y-43661D01*
X47970Y-43869D01*
X48129Y-44028D01*
X48337Y-44114D01*
X48561Y-44115D01*
X48769Y-44029D01*
X48928Y-43870D01*
X48949Y-43819D01*
X48970Y-43869D01*
X49129Y-44028D01*
X49150Y-44037D01*
X49150Y-44274D01*
X49172Y-44389D01*
X49237Y-44486D01*
X49562Y-44810D01*
X49562Y-44961D01*
X49588Y-45025D01*
X49588Y-45025D01*
G37*
G54D31*
X49588Y-45025D02*
X49327Y-45025D01*
X49327Y-44858D01*
X49289Y-44766D01*
X49219Y-44696D01*
X49127Y-44658D01*
X49028Y-44658D01*
X48772Y-44658D01*
X48680Y-44696D01*
X48610Y-44766D01*
X48572Y-44858D01*
X48572Y-44957D01*
X48572Y-45300D01*
X48150Y-45300D01*
X48087Y-45312D01*
X48087Y-45138D01*
X48051Y-45050D01*
X48087Y-44961D01*
X48087Y-44862D01*
X48087Y-44586D01*
X48049Y-44495D01*
X47979Y-44424D01*
X47887Y-44386D01*
X47788Y-44386D01*
X47736Y-44386D01*
X47500Y-44150D01*
X47500Y-44037D01*
X47519Y-44029D01*
X47678Y-43870D01*
X47764Y-43662D01*
X47765Y-43438D01*
X47728Y-43350D01*
X47825Y-43350D01*
X47893Y-43417D01*
X47885Y-43437D01*
X47884Y-43661D01*
X47970Y-43869D01*
X48129Y-44028D01*
X48337Y-44114D01*
X48561Y-44115D01*
X48769Y-44029D01*
X48928Y-43870D01*
X48949Y-43819D01*
X48970Y-43869D01*
X49129Y-44028D01*
X49150Y-44037D01*
X49150Y-44274D01*
X49172Y-44389D01*
X49237Y-44486D01*
X49562Y-44810D01*
X49562Y-44961D01*
X49588Y-45025D01*
G54D10*
G36*
X51838Y-45025D02*
X51577Y-45025D01*
X51577Y-44858D01*
X51539Y-44766D01*
X51469Y-44696D01*
X51377Y-44658D01*
X51278Y-44658D01*
X51022Y-44658D01*
X50930Y-44696D01*
X50860Y-44766D01*
X50822Y-44858D01*
X50822Y-44957D01*
X50822Y-45300D01*
X50450Y-45300D01*
X50337Y-45322D01*
X50337Y-45138D01*
X50301Y-45050D01*
X50337Y-44961D01*
X50337Y-44862D01*
X50337Y-44586D01*
X50299Y-44495D01*
X50229Y-44424D01*
X50137Y-44386D01*
X50038Y-44386D01*
X49986Y-44386D01*
X49750Y-44150D01*
X49750Y-44037D01*
X49769Y-44029D01*
X49928Y-43870D01*
X50014Y-43662D01*
X50015Y-43438D01*
X49978Y-43350D01*
X50075Y-43350D01*
X50143Y-43417D01*
X50135Y-43437D01*
X50134Y-43661D01*
X50220Y-43869D01*
X50379Y-44028D01*
X50587Y-44114D01*
X50811Y-44115D01*
X51019Y-44029D01*
X51178Y-43870D01*
X51199Y-43819D01*
X51220Y-43869D01*
X51379Y-44028D01*
X51400Y-44037D01*
X51400Y-44274D01*
X51422Y-44389D01*
X51487Y-44486D01*
X51812Y-44810D01*
X51812Y-44961D01*
X51838Y-45025D01*
X51838Y-45025D01*
G37*
G54D31*
X51838Y-45025D02*
X51577Y-45025D01*
X51577Y-44858D01*
X51539Y-44766D01*
X51469Y-44696D01*
X51377Y-44658D01*
X51278Y-44658D01*
X51022Y-44658D01*
X50930Y-44696D01*
X50860Y-44766D01*
X50822Y-44858D01*
X50822Y-44957D01*
X50822Y-45300D01*
X50450Y-45300D01*
X50337Y-45322D01*
X50337Y-45138D01*
X50301Y-45050D01*
X50337Y-44961D01*
X50337Y-44862D01*
X50337Y-44586D01*
X50299Y-44495D01*
X50229Y-44424D01*
X50137Y-44386D01*
X50038Y-44386D01*
X49986Y-44386D01*
X49750Y-44150D01*
X49750Y-44037D01*
X49769Y-44029D01*
X49928Y-43870D01*
X50014Y-43662D01*
X50015Y-43438D01*
X49978Y-43350D01*
X50075Y-43350D01*
X50143Y-43417D01*
X50135Y-43437D01*
X50134Y-43661D01*
X50220Y-43869D01*
X50379Y-44028D01*
X50587Y-44114D01*
X50811Y-44115D01*
X51019Y-44029D01*
X51178Y-43870D01*
X51199Y-43819D01*
X51220Y-43869D01*
X51379Y-44028D01*
X51400Y-44037D01*
X51400Y-44274D01*
X51422Y-44389D01*
X51487Y-44486D01*
X51812Y-44810D01*
X51812Y-44961D01*
X51838Y-45025D01*
G54D10*
G36*
X53650Y-43062D02*
X53630Y-43070D01*
X53471Y-43229D01*
X53450Y-43280D01*
X53429Y-43230D01*
X53270Y-43071D01*
X53062Y-42985D01*
X52838Y-42984D01*
X52817Y-42993D01*
X52662Y-42837D01*
X52564Y-42772D01*
X52450Y-42750D01*
X50200Y-42750D01*
X47950Y-42750D01*
X45700Y-42750D01*
X43450Y-42750D01*
X41200Y-42750D01*
X38950Y-42750D01*
X36700Y-42750D01*
X34450Y-42750D01*
X32200Y-42750D01*
X30950Y-42750D01*
X30835Y-42772D01*
X30737Y-42837D01*
X30582Y-42993D01*
X30562Y-42985D01*
X30338Y-42984D01*
X30130Y-43070D01*
X29971Y-43229D01*
X29969Y-43233D01*
X29969Y-41616D01*
X29970Y-41619D01*
X30129Y-41778D01*
X30337Y-41864D01*
X30561Y-41865D01*
X30769Y-41779D01*
X30928Y-41620D01*
X30949Y-41569D01*
X30970Y-41619D01*
X31129Y-41778D01*
X31337Y-41864D01*
X31561Y-41865D01*
X31769Y-41779D01*
X31928Y-41620D01*
X32014Y-41412D01*
X32015Y-41188D01*
X31978Y-41100D01*
X32075Y-41100D01*
X32143Y-41167D01*
X32135Y-41187D01*
X32134Y-41411D01*
X32220Y-41619D01*
X32379Y-41778D01*
X32587Y-41864D01*
X32811Y-41865D01*
X33019Y-41779D01*
X33178Y-41620D01*
X33199Y-41569D01*
X33220Y-41619D01*
X33379Y-41778D01*
X33587Y-41864D01*
X33811Y-41865D01*
X34019Y-41779D01*
X34178Y-41620D01*
X34264Y-41412D01*
X34265Y-41188D01*
X34228Y-41100D01*
X34325Y-41100D01*
X34393Y-41167D01*
X34385Y-41187D01*
X34384Y-41411D01*
X34470Y-41619D01*
X34629Y-41778D01*
X34837Y-41864D01*
X35061Y-41865D01*
X35269Y-41779D01*
X35428Y-41620D01*
X35449Y-41569D01*
X35470Y-41619D01*
X35629Y-41778D01*
X35837Y-41864D01*
X36061Y-41865D01*
X36269Y-41779D01*
X36428Y-41620D01*
X36514Y-41412D01*
X36515Y-41188D01*
X36478Y-41100D01*
X36575Y-41100D01*
X36643Y-41167D01*
X36635Y-41187D01*
X36634Y-41411D01*
X36720Y-41619D01*
X36879Y-41778D01*
X37087Y-41864D01*
X37311Y-41865D01*
X37519Y-41779D01*
X37678Y-41620D01*
X37699Y-41569D01*
X37720Y-41619D01*
X37879Y-41778D01*
X38087Y-41864D01*
X38311Y-41865D01*
X38519Y-41779D01*
X38678Y-41620D01*
X38764Y-41412D01*
X38765Y-41188D01*
X38728Y-41100D01*
X38825Y-41100D01*
X38893Y-41167D01*
X38885Y-41187D01*
X38884Y-41411D01*
X38970Y-41619D01*
X39129Y-41778D01*
X39337Y-41864D01*
X39561Y-41865D01*
X39769Y-41779D01*
X39928Y-41620D01*
X39949Y-41569D01*
X39970Y-41619D01*
X40129Y-41778D01*
X40337Y-41864D01*
X40561Y-41865D01*
X40769Y-41779D01*
X40928Y-41620D01*
X41014Y-41412D01*
X41015Y-41188D01*
X40978Y-41100D01*
X41075Y-41100D01*
X41143Y-41167D01*
X41135Y-41187D01*
X41134Y-41411D01*
X41220Y-41619D01*
X41379Y-41778D01*
X41587Y-41864D01*
X41811Y-41865D01*
X42019Y-41779D01*
X42178Y-41620D01*
X42199Y-41569D01*
X42220Y-41619D01*
X42379Y-41778D01*
X42587Y-41864D01*
X42811Y-41865D01*
X43019Y-41779D01*
X43178Y-41620D01*
X43264Y-41412D01*
X43265Y-41188D01*
X43228Y-41100D01*
X43325Y-41100D01*
X43393Y-41167D01*
X43385Y-41187D01*
X43384Y-41411D01*
X43470Y-41619D01*
X43629Y-41778D01*
X43837Y-41864D01*
X44061Y-41865D01*
X44269Y-41779D01*
X44428Y-41620D01*
X44449Y-41569D01*
X44470Y-41619D01*
X44629Y-41778D01*
X44837Y-41864D01*
X45061Y-41865D01*
X45269Y-41779D01*
X45428Y-41620D01*
X45514Y-41412D01*
X45515Y-41188D01*
X45478Y-41100D01*
X45575Y-41100D01*
X45643Y-41167D01*
X45635Y-41187D01*
X45634Y-41411D01*
X45720Y-41619D01*
X45879Y-41778D01*
X46087Y-41864D01*
X46311Y-41865D01*
X46519Y-41779D01*
X46678Y-41620D01*
X46699Y-41569D01*
X46720Y-41619D01*
X46879Y-41778D01*
X47087Y-41864D01*
X47311Y-41865D01*
X47519Y-41779D01*
X47678Y-41620D01*
X47764Y-41412D01*
X47765Y-41188D01*
X47728Y-41100D01*
X47825Y-41100D01*
X47893Y-41167D01*
X47885Y-41187D01*
X47884Y-41411D01*
X47970Y-41619D01*
X48129Y-41778D01*
X48337Y-41864D01*
X48561Y-41865D01*
X48769Y-41779D01*
X48928Y-41620D01*
X48949Y-41569D01*
X48970Y-41619D01*
X49129Y-41778D01*
X49337Y-41864D01*
X49561Y-41865D01*
X49769Y-41779D01*
X49928Y-41620D01*
X50014Y-41412D01*
X50015Y-41188D01*
X49978Y-41100D01*
X50075Y-41100D01*
X50143Y-41167D01*
X50135Y-41187D01*
X50134Y-41411D01*
X50220Y-41619D01*
X50379Y-41778D01*
X50587Y-41864D01*
X50811Y-41865D01*
X51019Y-41779D01*
X51178Y-41620D01*
X51199Y-41569D01*
X51220Y-41619D01*
X51379Y-41778D01*
X51587Y-41864D01*
X51811Y-41865D01*
X52019Y-41779D01*
X52178Y-41620D01*
X52264Y-41412D01*
X52265Y-41188D01*
X52228Y-41100D01*
X52325Y-41100D01*
X52393Y-41167D01*
X52385Y-41187D01*
X52384Y-41411D01*
X52466Y-41609D01*
X52425Y-41649D01*
X52370Y-41649D01*
X52223Y-41710D01*
X52111Y-41823D01*
X52050Y-41970D01*
X52049Y-42129D01*
X52110Y-42276D01*
X52223Y-42388D01*
X52370Y-42449D01*
X52529Y-42450D01*
X52676Y-42389D01*
X52788Y-42276D01*
X52849Y-42129D01*
X52849Y-42074D01*
X53059Y-41865D01*
X53061Y-41865D01*
X53269Y-41779D01*
X53428Y-41620D01*
X53449Y-41569D01*
X53470Y-41619D01*
X53629Y-41778D01*
X53650Y-41787D01*
X53650Y-43062D01*
X53650Y-43062D01*
G37*
G54D31*
X53650Y-43062D02*
X53630Y-43070D01*
X53471Y-43229D01*
X53450Y-43280D01*
X53429Y-43230D01*
X53270Y-43071D01*
X53062Y-42985D01*
X52838Y-42984D01*
X52817Y-42993D01*
X52662Y-42837D01*
X52564Y-42772D01*
X52450Y-42750D01*
X50200Y-42750D01*
X47950Y-42750D01*
X45700Y-42750D01*
X43450Y-42750D01*
X41200Y-42750D01*
X38950Y-42750D01*
X36700Y-42750D01*
X34450Y-42750D01*
X32200Y-42750D01*
X30950Y-42750D01*
X30835Y-42772D01*
X30737Y-42837D01*
X30582Y-42993D01*
X30562Y-42985D01*
X30338Y-42984D01*
X30130Y-43070D01*
X29971Y-43229D01*
X29969Y-43233D01*
X29969Y-41616D01*
X29970Y-41619D01*
X30129Y-41778D01*
X30337Y-41864D01*
X30561Y-41865D01*
X30769Y-41779D01*
X30928Y-41620D01*
X30949Y-41569D01*
X30970Y-41619D01*
X31129Y-41778D01*
X31337Y-41864D01*
X31561Y-41865D01*
X31769Y-41779D01*
X31928Y-41620D01*
X32014Y-41412D01*
X32015Y-41188D01*
X31978Y-41100D01*
X32075Y-41100D01*
X32143Y-41167D01*
X32135Y-41187D01*
X32134Y-41411D01*
X32220Y-41619D01*
X32379Y-41778D01*
X32587Y-41864D01*
X32811Y-41865D01*
X33019Y-41779D01*
X33178Y-41620D01*
X33199Y-41569D01*
X33220Y-41619D01*
X33379Y-41778D01*
X33587Y-41864D01*
X33811Y-41865D01*
X34019Y-41779D01*
X34178Y-41620D01*
X34264Y-41412D01*
X34265Y-41188D01*
X34228Y-41100D01*
X34325Y-41100D01*
X34393Y-41167D01*
X34385Y-41187D01*
X34384Y-41411D01*
X34470Y-41619D01*
X34629Y-41778D01*
X34837Y-41864D01*
X35061Y-41865D01*
X35269Y-41779D01*
X35428Y-41620D01*
X35449Y-41569D01*
X35470Y-41619D01*
X35629Y-41778D01*
X35837Y-41864D01*
X36061Y-41865D01*
X36269Y-41779D01*
X36428Y-41620D01*
X36514Y-41412D01*
X36515Y-41188D01*
X36478Y-41100D01*
X36575Y-41100D01*
X36643Y-41167D01*
X36635Y-41187D01*
X36634Y-41411D01*
X36720Y-41619D01*
X36879Y-41778D01*
X37087Y-41864D01*
X37311Y-41865D01*
X37519Y-41779D01*
X37678Y-41620D01*
X37699Y-41569D01*
X37720Y-41619D01*
X37879Y-41778D01*
X38087Y-41864D01*
X38311Y-41865D01*
X38519Y-41779D01*
X38678Y-41620D01*
X38764Y-41412D01*
X38765Y-41188D01*
X38728Y-41100D01*
X38825Y-41100D01*
X38893Y-41167D01*
X38885Y-41187D01*
X38884Y-41411D01*
X38970Y-41619D01*
X39129Y-41778D01*
X39337Y-41864D01*
X39561Y-41865D01*
X39769Y-41779D01*
X39928Y-41620D01*
X39949Y-41569D01*
X39970Y-41619D01*
X40129Y-41778D01*
X40337Y-41864D01*
X40561Y-41865D01*
X40769Y-41779D01*
X40928Y-41620D01*
X41014Y-41412D01*
X41015Y-41188D01*
X40978Y-41100D01*
X41075Y-41100D01*
X41143Y-41167D01*
X41135Y-41187D01*
X41134Y-41411D01*
X41220Y-41619D01*
X41379Y-41778D01*
X41587Y-41864D01*
X41811Y-41865D01*
X42019Y-41779D01*
X42178Y-41620D01*
X42199Y-41569D01*
X42220Y-41619D01*
X42379Y-41778D01*
X42587Y-41864D01*
X42811Y-41865D01*
X43019Y-41779D01*
X43178Y-41620D01*
X43264Y-41412D01*
X43265Y-41188D01*
X43228Y-41100D01*
X43325Y-41100D01*
X43393Y-41167D01*
X43385Y-41187D01*
X43384Y-41411D01*
X43470Y-41619D01*
X43629Y-41778D01*
X43837Y-41864D01*
X44061Y-41865D01*
X44269Y-41779D01*
X44428Y-41620D01*
X44449Y-41569D01*
X44470Y-41619D01*
X44629Y-41778D01*
X44837Y-41864D01*
X45061Y-41865D01*
X45269Y-41779D01*
X45428Y-41620D01*
X45514Y-41412D01*
X45515Y-41188D01*
X45478Y-41100D01*
X45575Y-41100D01*
X45643Y-41167D01*
X45635Y-41187D01*
X45634Y-41411D01*
X45720Y-41619D01*
X45879Y-41778D01*
X46087Y-41864D01*
X46311Y-41865D01*
X46519Y-41779D01*
X46678Y-41620D01*
X46699Y-41569D01*
X46720Y-41619D01*
X46879Y-41778D01*
X47087Y-41864D01*
X47311Y-41865D01*
X47519Y-41779D01*
X47678Y-41620D01*
X47764Y-41412D01*
X47765Y-41188D01*
X47728Y-41100D01*
X47825Y-41100D01*
X47893Y-41167D01*
X47885Y-41187D01*
X47884Y-41411D01*
X47970Y-41619D01*
X48129Y-41778D01*
X48337Y-41864D01*
X48561Y-41865D01*
X48769Y-41779D01*
X48928Y-41620D01*
X48949Y-41569D01*
X48970Y-41619D01*
X49129Y-41778D01*
X49337Y-41864D01*
X49561Y-41865D01*
X49769Y-41779D01*
X49928Y-41620D01*
X50014Y-41412D01*
X50015Y-41188D01*
X49978Y-41100D01*
X50075Y-41100D01*
X50143Y-41167D01*
X50135Y-41187D01*
X50134Y-41411D01*
X50220Y-41619D01*
X50379Y-41778D01*
X50587Y-41864D01*
X50811Y-41865D01*
X51019Y-41779D01*
X51178Y-41620D01*
X51199Y-41569D01*
X51220Y-41619D01*
X51379Y-41778D01*
X51587Y-41864D01*
X51811Y-41865D01*
X52019Y-41779D01*
X52178Y-41620D01*
X52264Y-41412D01*
X52265Y-41188D01*
X52228Y-41100D01*
X52325Y-41100D01*
X52393Y-41167D01*
X52385Y-41187D01*
X52384Y-41411D01*
X52466Y-41609D01*
X52425Y-41649D01*
X52370Y-41649D01*
X52223Y-41710D01*
X52111Y-41823D01*
X52050Y-41970D01*
X52049Y-42129D01*
X52110Y-42276D01*
X52223Y-42388D01*
X52370Y-42449D01*
X52529Y-42450D01*
X52676Y-42389D01*
X52788Y-42276D01*
X52849Y-42129D01*
X52849Y-42074D01*
X53059Y-41865D01*
X53061Y-41865D01*
X53269Y-41779D01*
X53428Y-41620D01*
X53449Y-41569D01*
X53470Y-41619D01*
X53629Y-41778D01*
X53650Y-41787D01*
X53650Y-43062D01*
G54D10*
G36*
X53879Y-50549D02*
X53869Y-50554D01*
X53704Y-50718D01*
X53615Y-50933D01*
X53615Y-51165D01*
X53704Y-51380D01*
X53853Y-51530D01*
X52324Y-51530D01*
X52462Y-51392D01*
X52554Y-51170D01*
X52554Y-50930D01*
X52462Y-50708D01*
X52292Y-50537D01*
X52070Y-50445D01*
X51830Y-50445D01*
X51787Y-50463D01*
X51612Y-50287D01*
X51514Y-50222D01*
X51400Y-50200D01*
X50874Y-50200D01*
X50712Y-50037D01*
X50614Y-49972D01*
X50500Y-49950D01*
X49974Y-49950D01*
X49899Y-49874D01*
X50155Y-49619D01*
X50291Y-49562D01*
X50450Y-49404D01*
X50607Y-49562D01*
X50829Y-49654D01*
X51069Y-49654D01*
X51291Y-49562D01*
X51450Y-49404D01*
X51607Y-49562D01*
X51829Y-49654D01*
X52069Y-49654D01*
X52291Y-49562D01*
X52462Y-49392D01*
X52554Y-49170D01*
X52554Y-48930D01*
X52462Y-48708D01*
X52454Y-48700D01*
X53615Y-48700D01*
X53615Y-48765D01*
X53615Y-49434D01*
X53653Y-49526D01*
X53723Y-49596D01*
X53796Y-49626D01*
X53704Y-49718D01*
X53615Y-49933D01*
X53615Y-50165D01*
X53704Y-50380D01*
X53868Y-50545D01*
X53879Y-50549D01*
X53879Y-50549D01*
G37*
G54D31*
X53879Y-50549D02*
X53869Y-50554D01*
X53704Y-50718D01*
X53615Y-50933D01*
X53615Y-51165D01*
X53704Y-51380D01*
X53853Y-51530D01*
X52324Y-51530D01*
X52462Y-51392D01*
X52554Y-51170D01*
X52554Y-50930D01*
X52462Y-50708D01*
X52292Y-50537D01*
X52070Y-50445D01*
X51830Y-50445D01*
X51787Y-50463D01*
X51612Y-50287D01*
X51514Y-50222D01*
X51400Y-50200D01*
X50874Y-50200D01*
X50712Y-50037D01*
X50614Y-49972D01*
X50500Y-49950D01*
X49974Y-49950D01*
X49899Y-49874D01*
X50155Y-49619D01*
X50291Y-49562D01*
X50450Y-49404D01*
X50607Y-49562D01*
X50829Y-49654D01*
X51069Y-49654D01*
X51291Y-49562D01*
X51450Y-49404D01*
X51607Y-49562D01*
X51829Y-49654D01*
X52069Y-49654D01*
X52291Y-49562D01*
X52462Y-49392D01*
X52554Y-49170D01*
X52554Y-48930D01*
X52462Y-48708D01*
X52454Y-48700D01*
X53615Y-48700D01*
X53615Y-48765D01*
X53615Y-49434D01*
X53653Y-49526D01*
X53723Y-49596D01*
X53796Y-49626D01*
X53704Y-49718D01*
X53615Y-49933D01*
X53615Y-50165D01*
X53704Y-50380D01*
X53868Y-50545D01*
X53879Y-50549D01*
G54D10*
G36*
X54088Y-45025D02*
X53827Y-45025D01*
X53827Y-44858D01*
X53789Y-44766D01*
X53719Y-44696D01*
X53627Y-44658D01*
X53528Y-44658D01*
X53272Y-44658D01*
X53180Y-44696D01*
X53110Y-44766D01*
X53072Y-44858D01*
X53072Y-44957D01*
X53072Y-45300D01*
X52650Y-45300D01*
X52587Y-45312D01*
X52587Y-45138D01*
X52551Y-45050D01*
X52587Y-44961D01*
X52587Y-44862D01*
X52587Y-44586D01*
X52549Y-44495D01*
X52479Y-44424D01*
X52387Y-44386D01*
X52288Y-44386D01*
X52236Y-44386D01*
X52000Y-44150D01*
X52000Y-44037D01*
X52019Y-44029D01*
X52178Y-43870D01*
X52264Y-43662D01*
X52265Y-43438D01*
X52228Y-43350D01*
X52325Y-43350D01*
X52393Y-43417D01*
X52385Y-43437D01*
X52384Y-43661D01*
X52470Y-43869D01*
X52629Y-44028D01*
X52837Y-44114D01*
X53061Y-44115D01*
X53269Y-44029D01*
X53428Y-43870D01*
X53449Y-43819D01*
X53470Y-43869D01*
X53629Y-44028D01*
X53650Y-44037D01*
X53650Y-44274D01*
X53672Y-44389D01*
X53737Y-44486D01*
X54062Y-44810D01*
X54062Y-44961D01*
X54088Y-45025D01*
X54088Y-45025D01*
G37*
G54D31*
X54088Y-45025D02*
X53827Y-45025D01*
X53827Y-44858D01*
X53789Y-44766D01*
X53719Y-44696D01*
X53627Y-44658D01*
X53528Y-44658D01*
X53272Y-44658D01*
X53180Y-44696D01*
X53110Y-44766D01*
X53072Y-44858D01*
X53072Y-44957D01*
X53072Y-45300D01*
X52650Y-45300D01*
X52587Y-45312D01*
X52587Y-45138D01*
X52551Y-45050D01*
X52587Y-44961D01*
X52587Y-44862D01*
X52587Y-44586D01*
X52549Y-44495D01*
X52479Y-44424D01*
X52387Y-44386D01*
X52288Y-44386D01*
X52236Y-44386D01*
X52000Y-44150D01*
X52000Y-44037D01*
X52019Y-44029D01*
X52178Y-43870D01*
X52264Y-43662D01*
X52265Y-43438D01*
X52228Y-43350D01*
X52325Y-43350D01*
X52393Y-43417D01*
X52385Y-43437D01*
X52384Y-43661D01*
X52470Y-43869D01*
X52629Y-44028D01*
X52837Y-44114D01*
X53061Y-44115D01*
X53269Y-44029D01*
X53428Y-43870D01*
X53449Y-43819D01*
X53470Y-43869D01*
X53629Y-44028D01*
X53650Y-44037D01*
X53650Y-44274D01*
X53672Y-44389D01*
X53737Y-44486D01*
X54062Y-44810D01*
X54062Y-44961D01*
X54088Y-45025D01*
G54D10*
G36*
X56866Y-46439D02*
X56857Y-46435D01*
X56793Y-46435D01*
X56793Y-46434D01*
X56704Y-46434D01*
X56678Y-46460D01*
X56675Y-46469D01*
X56665Y-46473D01*
X56595Y-46543D01*
X56550Y-46589D01*
X56099Y-46137D01*
X56099Y-46137D01*
X55855Y-45894D01*
X55874Y-45875D01*
X55874Y-45600D01*
X55599Y-45600D01*
X55536Y-45662D01*
X55536Y-45737D01*
X55541Y-45750D01*
X55074Y-45750D01*
X55412Y-45412D01*
X55412Y-45412D01*
X55412Y-45412D01*
X55474Y-45350D01*
X55541Y-45350D01*
X55536Y-45362D01*
X55536Y-45437D01*
X55599Y-45500D01*
X55874Y-45500D01*
X55874Y-45492D01*
X55974Y-45492D01*
X55974Y-45500D01*
X55982Y-45500D01*
X55982Y-45600D01*
X55974Y-45600D01*
X55974Y-45875D01*
X56036Y-45937D01*
X56111Y-45937D01*
X56199Y-45901D01*
X56288Y-45937D01*
X56385Y-45937D01*
X56862Y-46415D01*
X56862Y-46429D01*
X56866Y-46439D01*
X56866Y-46439D01*
G37*
G54D31*
X56866Y-46439D02*
X56857Y-46435D01*
X56793Y-46435D01*
X56793Y-46434D01*
X56704Y-46434D01*
X56678Y-46460D01*
X56675Y-46469D01*
X56665Y-46473D01*
X56595Y-46543D01*
X56550Y-46589D01*
X56099Y-46137D01*
X56099Y-46137D01*
X55855Y-45894D01*
X55874Y-45875D01*
X55874Y-45600D01*
X55599Y-45600D01*
X55536Y-45662D01*
X55536Y-45737D01*
X55541Y-45750D01*
X55074Y-45750D01*
X55412Y-45412D01*
X55412Y-45412D01*
X55412Y-45412D01*
X55474Y-45350D01*
X55541Y-45350D01*
X55536Y-45362D01*
X55536Y-45437D01*
X55599Y-45500D01*
X55874Y-45500D01*
X55874Y-45492D01*
X55974Y-45492D01*
X55974Y-45500D01*
X55982Y-45500D01*
X55982Y-45600D01*
X55974Y-45600D01*
X55974Y-45875D01*
X56036Y-45937D01*
X56111Y-45937D01*
X56199Y-45901D01*
X56288Y-45937D01*
X56385Y-45937D01*
X56862Y-46415D01*
X56862Y-46429D01*
X56866Y-46439D01*
G54D10*
G36*
X59239Y-48063D02*
X59155Y-48120D01*
X58987Y-48287D01*
X58922Y-48385D01*
X58900Y-48500D01*
X58900Y-48750D01*
X58922Y-48864D01*
X58934Y-48882D01*
X58979Y-48950D01*
X58979Y-48990D01*
X58984Y-49002D01*
X58973Y-48997D01*
X58971Y-48997D01*
X58900Y-48925D01*
X58900Y-48870D01*
X58839Y-48723D01*
X58726Y-48611D01*
X58579Y-48550D01*
X58420Y-48549D01*
X58273Y-48610D01*
X58161Y-48723D01*
X58100Y-48870D01*
X58099Y-49017D01*
X58034Y-48952D01*
X57895Y-48812D01*
X57885Y-48808D01*
X57882Y-48799D01*
X57811Y-48729D01*
X57672Y-48590D01*
X57663Y-48586D01*
X57659Y-48577D01*
X57589Y-48507D01*
X57450Y-48367D01*
X57441Y-48364D01*
X57437Y-48354D01*
X57366Y-48284D01*
X57227Y-48145D01*
X57218Y-48141D01*
X57214Y-48132D01*
X57144Y-48061D01*
X57004Y-47922D01*
X56995Y-47918D01*
X56991Y-47909D01*
X56921Y-47839D01*
X56882Y-47800D01*
X56991Y-47690D01*
X56995Y-47681D01*
X57004Y-47677D01*
X57075Y-47607D01*
X57214Y-47467D01*
X57218Y-47458D01*
X57227Y-47454D01*
X57297Y-47384D01*
X57437Y-47245D01*
X57441Y-47235D01*
X57450Y-47232D01*
X57476Y-47206D01*
X57476Y-47117D01*
X57475Y-47116D01*
X57475Y-47053D01*
X57471Y-47043D01*
X57481Y-47048D01*
X57545Y-47048D01*
X57545Y-47048D01*
X57634Y-47048D01*
X57659Y-47022D01*
X57663Y-47013D01*
X57672Y-47009D01*
X57742Y-46939D01*
X57882Y-46800D01*
X57885Y-46791D01*
X57895Y-46787D01*
X57965Y-46716D01*
X58004Y-46678D01*
X58100Y-46774D01*
X58100Y-46800D01*
X58122Y-46914D01*
X58187Y-47012D01*
X59239Y-48063D01*
X59239Y-48063D01*
G37*
G54D31*
X59239Y-48063D02*
X59155Y-48120D01*
X58987Y-48287D01*
X58922Y-48385D01*
X58900Y-48500D01*
X58900Y-48750D01*
X58922Y-48864D01*
X58934Y-48882D01*
X58979Y-48950D01*
X58979Y-48990D01*
X58984Y-49002D01*
X58973Y-48997D01*
X58971Y-48997D01*
X58900Y-48925D01*
X58900Y-48870D01*
X58839Y-48723D01*
X58726Y-48611D01*
X58579Y-48550D01*
X58420Y-48549D01*
X58273Y-48610D01*
X58161Y-48723D01*
X58100Y-48870D01*
X58099Y-49017D01*
X58034Y-48952D01*
X57895Y-48812D01*
X57885Y-48808D01*
X57882Y-48799D01*
X57811Y-48729D01*
X57672Y-48590D01*
X57663Y-48586D01*
X57659Y-48577D01*
X57589Y-48507D01*
X57450Y-48367D01*
X57441Y-48364D01*
X57437Y-48354D01*
X57366Y-48284D01*
X57227Y-48145D01*
X57218Y-48141D01*
X57214Y-48132D01*
X57144Y-48061D01*
X57004Y-47922D01*
X56995Y-47918D01*
X56991Y-47909D01*
X56921Y-47839D01*
X56882Y-47800D01*
X56991Y-47690D01*
X56995Y-47681D01*
X57004Y-47677D01*
X57075Y-47607D01*
X57214Y-47467D01*
X57218Y-47458D01*
X57227Y-47454D01*
X57297Y-47384D01*
X57437Y-47245D01*
X57441Y-47235D01*
X57450Y-47232D01*
X57476Y-47206D01*
X57476Y-47117D01*
X57475Y-47116D01*
X57475Y-47053D01*
X57471Y-47043D01*
X57481Y-47048D01*
X57545Y-47048D01*
X57545Y-47048D01*
X57634Y-47048D01*
X57659Y-47022D01*
X57663Y-47013D01*
X57672Y-47009D01*
X57742Y-46939D01*
X57882Y-46800D01*
X57885Y-46791D01*
X57895Y-46787D01*
X57965Y-46716D01*
X58004Y-46678D01*
X58100Y-46774D01*
X58100Y-46800D01*
X58122Y-46914D01*
X58187Y-47012D01*
X59239Y-48063D01*
G54D10*
G36*
X60750Y-51134D02*
X60711Y-51173D01*
X60650Y-51320D01*
X60650Y-51399D01*
X60650Y-50900D01*
X60650Y-50625D01*
X60374Y-50625D01*
X60325Y-50675D01*
X60275Y-50625D01*
X60000Y-50625D01*
X60000Y-50900D01*
X60062Y-50963D01*
X60137Y-50963D01*
X60229Y-50925D01*
X60299Y-50854D01*
X60325Y-50794D01*
X60350Y-50854D01*
X60420Y-50925D01*
X60512Y-50963D01*
X60587Y-50963D01*
X60650Y-50900D01*
X60650Y-51399D01*
X60649Y-51479D01*
X60671Y-51530D01*
X59900Y-51530D01*
X59900Y-50900D01*
X59900Y-50625D01*
X59624Y-50625D01*
X59562Y-50688D01*
X59562Y-50763D01*
X59600Y-50854D01*
X59670Y-50925D01*
X59762Y-50963D01*
X59837Y-50963D01*
X59900Y-50900D01*
X59900Y-51530D01*
X55518Y-51530D01*
X55540Y-51461D01*
X55200Y-51120D01*
X54859Y-51461D01*
X54881Y-51530D01*
X54546Y-51530D01*
X54695Y-51381D01*
X54703Y-51362D01*
X54788Y-51390D01*
X55129Y-51050D01*
X55123Y-51044D01*
X55194Y-50973D01*
X55200Y-50979D01*
X55205Y-50973D01*
X55276Y-51044D01*
X55270Y-51050D01*
X55611Y-51390D01*
X55709Y-51358D01*
X55789Y-51140D01*
X55778Y-50907D01*
X55754Y-50850D01*
X55922Y-50850D01*
X55922Y-50849D01*
X56036Y-50827D01*
X56036Y-50827D01*
X56134Y-50762D01*
X56686Y-50210D01*
X56686Y-50736D01*
X56708Y-50850D01*
X56773Y-50948D01*
X57081Y-51255D01*
X57110Y-51326D01*
X57223Y-51438D01*
X57370Y-51499D01*
X57529Y-51500D01*
X57676Y-51439D01*
X57788Y-51326D01*
X57849Y-51179D01*
X57850Y-51020D01*
X57789Y-50874D01*
X57799Y-50850D01*
X57810Y-50876D01*
X57923Y-50988D01*
X58070Y-51049D01*
X58229Y-51050D01*
X58376Y-50989D01*
X58488Y-50876D01*
X58549Y-50729D01*
X58550Y-50591D01*
X58570Y-50599D01*
X58644Y-50599D01*
X58685Y-50627D01*
X58800Y-50650D01*
X58950Y-50650D01*
X58950Y-50649D01*
X59064Y-50627D01*
X59064Y-50627D01*
X59162Y-50562D01*
X59312Y-50412D01*
X59312Y-50412D01*
X59377Y-50314D01*
X59399Y-50200D01*
X59400Y-50200D01*
X59400Y-50050D01*
X59385Y-49975D01*
X59414Y-49946D01*
X59553Y-49806D01*
X59557Y-49797D01*
X59566Y-49793D01*
X59589Y-49771D01*
X59562Y-49836D01*
X59562Y-49936D01*
X59562Y-50211D01*
X59598Y-50300D01*
X59562Y-50388D01*
X59562Y-50463D01*
X59624Y-50525D01*
X59900Y-50525D01*
X59900Y-50517D01*
X60000Y-50517D01*
X60000Y-50525D01*
X60275Y-50525D01*
X60325Y-50475D01*
X60374Y-50525D01*
X60650Y-50525D01*
X60650Y-50517D01*
X60750Y-50517D01*
X60750Y-50525D01*
X60750Y-50625D01*
X60750Y-50900D01*
X60750Y-51134D01*
X60750Y-51134D01*
G37*
G54D31*
X60750Y-51134D02*
X60711Y-51173D01*
X60650Y-51320D01*
X60650Y-51399D01*
X60650Y-50900D01*
X60650Y-50625D01*
X60374Y-50625D01*
X60325Y-50675D01*
X60275Y-50625D01*
X60000Y-50625D01*
X60000Y-50900D01*
X60062Y-50963D01*
X60137Y-50963D01*
X60229Y-50925D01*
X60299Y-50854D01*
X60325Y-50794D01*
X60350Y-50854D01*
X60420Y-50925D01*
X60512Y-50963D01*
X60587Y-50963D01*
X60650Y-50900D01*
X60650Y-51399D01*
X60649Y-51479D01*
X60671Y-51530D01*
X59900Y-51530D01*
X59900Y-50900D01*
X59900Y-50625D01*
X59624Y-50625D01*
X59562Y-50688D01*
X59562Y-50763D01*
X59600Y-50854D01*
X59670Y-50925D01*
X59762Y-50963D01*
X59837Y-50963D01*
X59900Y-50900D01*
X59900Y-51530D01*
X55518Y-51530D01*
X55540Y-51461D01*
X55200Y-51120D01*
X54859Y-51461D01*
X54881Y-51530D01*
X54546Y-51530D01*
X54695Y-51381D01*
X54703Y-51362D01*
X54788Y-51390D01*
X55129Y-51050D01*
X55123Y-51044D01*
X55194Y-50973D01*
X55200Y-50979D01*
X55205Y-50973D01*
X55276Y-51044D01*
X55270Y-51050D01*
X55611Y-51390D01*
X55709Y-51358D01*
X55789Y-51140D01*
X55778Y-50907D01*
X55754Y-50850D01*
X55922Y-50850D01*
X55922Y-50849D01*
X56036Y-50827D01*
X56036Y-50827D01*
X56134Y-50762D01*
X56686Y-50210D01*
X56686Y-50736D01*
X56708Y-50850D01*
X56773Y-50948D01*
X57081Y-51255D01*
X57110Y-51326D01*
X57223Y-51438D01*
X57370Y-51499D01*
X57529Y-51500D01*
X57676Y-51439D01*
X57788Y-51326D01*
X57849Y-51179D01*
X57850Y-51020D01*
X57789Y-50874D01*
X57799Y-50850D01*
X57810Y-50876D01*
X57923Y-50988D01*
X58070Y-51049D01*
X58229Y-51050D01*
X58376Y-50989D01*
X58488Y-50876D01*
X58549Y-50729D01*
X58550Y-50591D01*
X58570Y-50599D01*
X58644Y-50599D01*
X58685Y-50627D01*
X58800Y-50650D01*
X58950Y-50650D01*
X58950Y-50649D01*
X59064Y-50627D01*
X59064Y-50627D01*
X59162Y-50562D01*
X59312Y-50412D01*
X59312Y-50412D01*
X59377Y-50314D01*
X59399Y-50200D01*
X59400Y-50200D01*
X59400Y-50050D01*
X59385Y-49975D01*
X59414Y-49946D01*
X59553Y-49806D01*
X59557Y-49797D01*
X59566Y-49793D01*
X59589Y-49771D01*
X59562Y-49836D01*
X59562Y-49936D01*
X59562Y-50211D01*
X59598Y-50300D01*
X59562Y-50388D01*
X59562Y-50463D01*
X59624Y-50525D01*
X59900Y-50525D01*
X59900Y-50517D01*
X60000Y-50517D01*
X60000Y-50525D01*
X60275Y-50525D01*
X60325Y-50475D01*
X60374Y-50525D01*
X60650Y-50525D01*
X60650Y-50517D01*
X60750Y-50517D01*
X60750Y-50525D01*
X60750Y-50625D01*
X60750Y-50900D01*
X60750Y-51134D01*
G54D10*
G36*
X63667Y-45524D02*
X63654Y-45524D01*
X63398Y-45524D01*
X63306Y-45562D01*
X63236Y-45632D01*
X63198Y-45724D01*
X63198Y-45824D01*
X63198Y-46050D01*
X62951Y-46050D01*
X62951Y-45870D01*
X62951Y-45724D01*
X62913Y-45632D01*
X62843Y-45562D01*
X62751Y-45524D01*
X62686Y-45524D01*
X62624Y-45586D01*
X62624Y-45933D01*
X62889Y-45933D01*
X62951Y-45870D01*
X62951Y-46050D01*
X62906Y-46050D01*
X62889Y-46033D01*
X62624Y-46033D01*
X62624Y-46040D01*
X62524Y-46040D01*
X62524Y-46033D01*
X62516Y-46033D01*
X62516Y-45933D01*
X62524Y-45933D01*
X62524Y-45586D01*
X62472Y-45534D01*
X62482Y-45524D01*
X62539Y-45467D01*
X62577Y-45375D01*
X62577Y-45275D01*
X62577Y-44858D01*
X62574Y-44850D01*
X63575Y-44850D01*
X63572Y-44858D01*
X63572Y-44957D01*
X63572Y-45375D01*
X63610Y-45467D01*
X63667Y-45524D01*
X63667Y-45524D01*
G37*
G54D31*
X63667Y-45524D02*
X63654Y-45524D01*
X63398Y-45524D01*
X63306Y-45562D01*
X63236Y-45632D01*
X63198Y-45724D01*
X63198Y-45824D01*
X63198Y-46050D01*
X62951Y-46050D01*
X62951Y-45870D01*
X62951Y-45724D01*
X62913Y-45632D01*
X62843Y-45562D01*
X62751Y-45524D01*
X62686Y-45524D01*
X62624Y-45586D01*
X62624Y-45933D01*
X62889Y-45933D01*
X62951Y-45870D01*
X62951Y-46050D01*
X62906Y-46050D01*
X62889Y-46033D01*
X62624Y-46033D01*
X62624Y-46040D01*
X62524Y-46040D01*
X62524Y-46033D01*
X62516Y-46033D01*
X62516Y-45933D01*
X62524Y-45933D01*
X62524Y-45586D01*
X62472Y-45534D01*
X62482Y-45524D01*
X62539Y-45467D01*
X62577Y-45375D01*
X62577Y-45275D01*
X62577Y-44858D01*
X62574Y-44850D01*
X63575Y-44850D01*
X63572Y-44858D01*
X63572Y-44957D01*
X63572Y-45375D01*
X63610Y-45467D01*
X63667Y-45524D01*
G54D10*
G36*
X64800Y-50950D02*
X64400Y-50950D01*
X64285Y-50972D01*
X64244Y-50999D01*
X64170Y-50999D01*
X64023Y-51060D01*
X63911Y-51173D01*
X63850Y-51320D01*
X63849Y-51479D01*
X63871Y-51530D01*
X61837Y-51530D01*
X61837Y-50763D01*
X61837Y-50688D01*
X61775Y-50625D01*
X61500Y-50625D01*
X61500Y-50900D01*
X61562Y-50963D01*
X61637Y-50963D01*
X61729Y-50925D01*
X61799Y-50854D01*
X61837Y-50763D01*
X61837Y-51530D01*
X61429Y-51530D01*
X61449Y-51479D01*
X61450Y-51320D01*
X61389Y-51173D01*
X61350Y-51134D01*
X61350Y-50963D01*
X61350Y-50950D01*
X61400Y-50900D01*
X61400Y-50625D01*
X61392Y-50625D01*
X61392Y-50525D01*
X61400Y-50525D01*
X61400Y-50517D01*
X61500Y-50517D01*
X61500Y-50525D01*
X61775Y-50525D01*
X61837Y-50463D01*
X61837Y-50388D01*
X61811Y-50324D01*
X62339Y-50324D01*
X62424Y-50409D01*
X62424Y-50614D01*
X62504Y-50807D01*
X62651Y-50955D01*
X62844Y-51036D01*
X63054Y-51036D01*
X63247Y-50956D01*
X63395Y-50808D01*
X63475Y-50615D01*
X63475Y-50406D01*
X63395Y-50213D01*
X63248Y-50065D01*
X63055Y-49985D01*
X62848Y-49984D01*
X62675Y-49812D01*
X62578Y-49747D01*
X62463Y-49724D01*
X61779Y-49724D01*
X61729Y-49674D01*
X61637Y-49636D01*
X61538Y-49636D01*
X61460Y-49636D01*
X61287Y-49463D01*
X61361Y-49463D01*
X61637Y-49463D01*
X61729Y-49425D01*
X61779Y-49375D01*
X62463Y-49375D01*
X62463Y-49375D01*
X62578Y-49352D01*
X62578Y-49352D01*
X62675Y-49287D01*
X62848Y-49114D01*
X63054Y-49115D01*
X63247Y-49035D01*
X63395Y-48887D01*
X63475Y-48694D01*
X63475Y-48485D01*
X63395Y-48292D01*
X63248Y-48144D01*
X63055Y-48063D01*
X62845Y-48063D01*
X62652Y-48143D01*
X62504Y-48291D01*
X62424Y-48484D01*
X62424Y-48690D01*
X62339Y-48775D01*
X61811Y-48775D01*
X61837Y-48711D01*
X61837Y-48636D01*
X61837Y-48411D01*
X61837Y-48336D01*
X61799Y-48245D01*
X61729Y-48174D01*
X61637Y-48136D01*
X61562Y-48136D01*
X61500Y-48199D01*
X61500Y-48474D01*
X61775Y-48474D01*
X61837Y-48411D01*
X61837Y-48636D01*
X61775Y-48574D01*
X61500Y-48574D01*
X61500Y-48582D01*
X61400Y-48582D01*
X61400Y-48574D01*
X61392Y-48574D01*
X61392Y-48474D01*
X61400Y-48474D01*
X61400Y-48199D01*
X61337Y-48136D01*
X61262Y-48136D01*
X61170Y-48174D01*
X61100Y-48245D01*
X61062Y-48336D01*
X61062Y-48411D01*
X61124Y-48474D01*
X61107Y-48474D01*
X60927Y-48294D01*
X60927Y-48279D01*
X60889Y-48188D01*
X60819Y-48117D01*
X60501Y-47800D01*
X60801Y-47499D01*
X60929Y-47500D01*
X61076Y-47439D01*
X61170Y-47345D01*
X61387Y-47562D01*
X61485Y-47627D01*
X61485Y-47627D01*
X61600Y-47650D01*
X63175Y-47650D01*
X63437Y-47912D01*
X63980Y-48454D01*
X63911Y-48523D01*
X63850Y-48670D01*
X63849Y-48829D01*
X63910Y-48976D01*
X64023Y-49088D01*
X64170Y-49149D01*
X64225Y-49149D01*
X64250Y-49174D01*
X64250Y-49950D01*
X64272Y-50064D01*
X64337Y-50162D01*
X64800Y-50624D01*
X64800Y-50650D01*
X64800Y-50950D01*
X64800Y-50950D01*
G37*
G54D31*
X64800Y-50950D02*
X64400Y-50950D01*
X64285Y-50972D01*
X64244Y-50999D01*
X64170Y-50999D01*
X64023Y-51060D01*
X63911Y-51173D01*
X63850Y-51320D01*
X63849Y-51479D01*
X63871Y-51530D01*
X61837Y-51530D01*
X61837Y-50763D01*
X61837Y-50688D01*
X61775Y-50625D01*
X61500Y-50625D01*
X61500Y-50900D01*
X61562Y-50963D01*
X61637Y-50963D01*
X61729Y-50925D01*
X61799Y-50854D01*
X61837Y-50763D01*
X61837Y-51530D01*
X61429Y-51530D01*
X61449Y-51479D01*
X61450Y-51320D01*
X61389Y-51173D01*
X61350Y-51134D01*
X61350Y-50963D01*
X61350Y-50950D01*
X61400Y-50900D01*
X61400Y-50625D01*
X61392Y-50625D01*
X61392Y-50525D01*
X61400Y-50525D01*
X61400Y-50517D01*
X61500Y-50517D01*
X61500Y-50525D01*
X61775Y-50525D01*
X61837Y-50463D01*
X61837Y-50388D01*
X61811Y-50324D01*
X62339Y-50324D01*
X62424Y-50409D01*
X62424Y-50614D01*
X62504Y-50807D01*
X62651Y-50955D01*
X62844Y-51036D01*
X63054Y-51036D01*
X63247Y-50956D01*
X63395Y-50808D01*
X63475Y-50615D01*
X63475Y-50406D01*
X63395Y-50213D01*
X63248Y-50065D01*
X63055Y-49985D01*
X62848Y-49984D01*
X62675Y-49812D01*
X62578Y-49747D01*
X62463Y-49724D01*
X61779Y-49724D01*
X61729Y-49674D01*
X61637Y-49636D01*
X61538Y-49636D01*
X61460Y-49636D01*
X61287Y-49463D01*
X61361Y-49463D01*
X61637Y-49463D01*
X61729Y-49425D01*
X61779Y-49375D01*
X62463Y-49375D01*
X62463Y-49375D01*
X62578Y-49352D01*
X62578Y-49352D01*
X62675Y-49287D01*
X62848Y-49114D01*
X63054Y-49115D01*
X63247Y-49035D01*
X63395Y-48887D01*
X63475Y-48694D01*
X63475Y-48485D01*
X63395Y-48292D01*
X63248Y-48144D01*
X63055Y-48063D01*
X62845Y-48063D01*
X62652Y-48143D01*
X62504Y-48291D01*
X62424Y-48484D01*
X62424Y-48690D01*
X62339Y-48775D01*
X61811Y-48775D01*
X61837Y-48711D01*
X61837Y-48636D01*
X61837Y-48411D01*
X61837Y-48336D01*
X61799Y-48245D01*
X61729Y-48174D01*
X61637Y-48136D01*
X61562Y-48136D01*
X61500Y-48199D01*
X61500Y-48474D01*
X61775Y-48474D01*
X61837Y-48411D01*
X61837Y-48636D01*
X61775Y-48574D01*
X61500Y-48574D01*
X61500Y-48582D01*
X61400Y-48582D01*
X61400Y-48574D01*
X61392Y-48574D01*
X61392Y-48474D01*
X61400Y-48474D01*
X61400Y-48199D01*
X61337Y-48136D01*
X61262Y-48136D01*
X61170Y-48174D01*
X61100Y-48245D01*
X61062Y-48336D01*
X61062Y-48411D01*
X61124Y-48474D01*
X61107Y-48474D01*
X60927Y-48294D01*
X60927Y-48279D01*
X60889Y-48188D01*
X60819Y-48117D01*
X60501Y-47800D01*
X60801Y-47499D01*
X60929Y-47500D01*
X61076Y-47439D01*
X61170Y-47345D01*
X61387Y-47562D01*
X61485Y-47627D01*
X61485Y-47627D01*
X61600Y-47650D01*
X63175Y-47650D01*
X63437Y-47912D01*
X63980Y-48454D01*
X63911Y-48523D01*
X63850Y-48670D01*
X63849Y-48829D01*
X63910Y-48976D01*
X64023Y-49088D01*
X64170Y-49149D01*
X64225Y-49149D01*
X64250Y-49174D01*
X64250Y-49950D01*
X64272Y-50064D01*
X64337Y-50162D01*
X64800Y-50624D01*
X64800Y-50650D01*
X64800Y-50950D01*
G54D10*
G36*
X65417Y-45524D02*
X65404Y-45524D01*
X65148Y-45524D01*
X65056Y-45562D01*
X64986Y-45632D01*
X64948Y-45724D01*
X64948Y-45824D01*
X64948Y-46150D01*
X64701Y-46150D01*
X64701Y-46095D01*
X64701Y-45870D01*
X64701Y-45724D01*
X64663Y-45632D01*
X64593Y-45562D01*
X64501Y-45524D01*
X64436Y-45524D01*
X64374Y-45586D01*
X64374Y-45933D01*
X64639Y-45933D01*
X64701Y-45870D01*
X64701Y-46095D01*
X64639Y-46033D01*
X64374Y-46033D01*
X64374Y-46040D01*
X64274Y-46040D01*
X64274Y-46033D01*
X64266Y-46033D01*
X64266Y-45933D01*
X64274Y-45933D01*
X64274Y-45586D01*
X64222Y-45534D01*
X64232Y-45524D01*
X64289Y-45467D01*
X64327Y-45375D01*
X64327Y-45275D01*
X64327Y-44858D01*
X64324Y-44850D01*
X65325Y-44850D01*
X65322Y-44858D01*
X65322Y-44957D01*
X65322Y-45375D01*
X65360Y-45467D01*
X65417Y-45524D01*
X65417Y-45524D01*
G37*
G54D31*
X65417Y-45524D02*
X65404Y-45524D01*
X65148Y-45524D01*
X65056Y-45562D01*
X64986Y-45632D01*
X64948Y-45724D01*
X64948Y-45824D01*
X64948Y-46150D01*
X64701Y-46150D01*
X64701Y-46095D01*
X64701Y-45870D01*
X64701Y-45724D01*
X64663Y-45632D01*
X64593Y-45562D01*
X64501Y-45524D01*
X64436Y-45524D01*
X64374Y-45586D01*
X64374Y-45933D01*
X64639Y-45933D01*
X64701Y-45870D01*
X64701Y-46095D01*
X64639Y-46033D01*
X64374Y-46033D01*
X64374Y-46040D01*
X64274Y-46040D01*
X64274Y-46033D01*
X64266Y-46033D01*
X64266Y-45933D01*
X64274Y-45933D01*
X64274Y-45586D01*
X64222Y-45534D01*
X64232Y-45524D01*
X64289Y-45467D01*
X64327Y-45375D01*
X64327Y-45275D01*
X64327Y-44858D01*
X64324Y-44850D01*
X65325Y-44850D01*
X65322Y-44858D01*
X65322Y-44957D01*
X65322Y-45375D01*
X65360Y-45467D01*
X65417Y-45524D01*
G54D10*
G36*
X67167Y-45524D02*
X67154Y-45524D01*
X66898Y-45524D01*
X66806Y-45562D01*
X66736Y-45632D01*
X66710Y-45694D01*
X66652Y-45705D01*
X66554Y-45770D01*
X66451Y-45873D01*
X66392Y-45933D01*
X66389Y-45933D01*
X66451Y-45870D01*
X66451Y-45724D01*
X66413Y-45632D01*
X66343Y-45562D01*
X66251Y-45524D01*
X66186Y-45524D01*
X66124Y-45586D01*
X66124Y-45933D01*
X66131Y-45933D01*
X66131Y-46033D01*
X66124Y-46033D01*
X66124Y-46040D01*
X66024Y-46040D01*
X66024Y-46033D01*
X66016Y-46033D01*
X66016Y-45933D01*
X66024Y-45933D01*
X66024Y-45586D01*
X65972Y-45534D01*
X65982Y-45524D01*
X66039Y-45467D01*
X66077Y-45375D01*
X66077Y-45275D01*
X66077Y-44858D01*
X66074Y-44850D01*
X67075Y-44850D01*
X67072Y-44858D01*
X67072Y-44957D01*
X67072Y-45375D01*
X67110Y-45467D01*
X67167Y-45524D01*
X67167Y-45524D01*
G37*
G54D31*
X67167Y-45524D02*
X67154Y-45524D01*
X66898Y-45524D01*
X66806Y-45562D01*
X66736Y-45632D01*
X66710Y-45694D01*
X66652Y-45705D01*
X66554Y-45770D01*
X66451Y-45873D01*
X66392Y-45933D01*
X66389Y-45933D01*
X66451Y-45870D01*
X66451Y-45724D01*
X66413Y-45632D01*
X66343Y-45562D01*
X66251Y-45524D01*
X66186Y-45524D01*
X66124Y-45586D01*
X66124Y-45933D01*
X66131Y-45933D01*
X66131Y-46033D01*
X66124Y-46033D01*
X66124Y-46040D01*
X66024Y-46040D01*
X66024Y-46033D01*
X66016Y-46033D01*
X66016Y-45933D01*
X66024Y-45933D01*
X66024Y-45586D01*
X65972Y-45534D01*
X65982Y-45524D01*
X66039Y-45467D01*
X66077Y-45375D01*
X66077Y-45275D01*
X66077Y-44858D01*
X66074Y-44850D01*
X67075Y-44850D01*
X67072Y-44858D01*
X67072Y-44957D01*
X67072Y-45375D01*
X67110Y-45467D01*
X67167Y-45524D01*
G54D10*
G36*
X70113Y-50128D02*
X70098Y-50201D01*
X70098Y-50445D01*
X70034Y-50445D01*
X69942Y-50483D01*
X69871Y-50554D01*
X69833Y-50645D01*
X69833Y-50745D01*
X69833Y-50750D01*
X69475Y-50750D01*
X69374Y-50770D01*
X69374Y-49875D01*
X69374Y-49600D01*
X69374Y-49500D01*
X69374Y-49224D01*
X69324Y-49175D01*
X69374Y-49125D01*
X69374Y-48850D01*
X69099Y-48850D01*
X69036Y-48912D01*
X69036Y-48987D01*
X69074Y-49079D01*
X69145Y-49149D01*
X69205Y-49175D01*
X69145Y-49200D01*
X69074Y-49270D01*
X69036Y-49362D01*
X69036Y-49437D01*
X69099Y-49500D01*
X69374Y-49500D01*
X69374Y-49600D01*
X69099Y-49600D01*
X69036Y-49662D01*
X69036Y-49737D01*
X69074Y-49829D01*
X69145Y-49899D01*
X69236Y-49937D01*
X69311Y-49937D01*
X69374Y-49875D01*
X69374Y-50770D01*
X69360Y-50772D01*
X69321Y-50798D01*
X69263Y-50837D01*
X69189Y-50912D01*
X69038Y-50912D01*
X68974Y-50938D01*
X68974Y-50624D01*
X68951Y-50509D01*
X68886Y-50412D01*
X68886Y-50412D01*
X68412Y-49937D01*
X68314Y-49872D01*
X68200Y-49850D01*
X68087Y-49850D01*
X68087Y-48763D01*
X68087Y-48688D01*
X68025Y-48625D01*
X67750Y-48625D01*
X67750Y-48900D01*
X67812Y-48963D01*
X67887Y-48963D01*
X67979Y-48925D01*
X68049Y-48854D01*
X68087Y-48763D01*
X68087Y-49850D01*
X67650Y-49850D01*
X67650Y-48900D01*
X67650Y-48625D01*
X67374Y-48625D01*
X67312Y-48688D01*
X67312Y-48763D01*
X67350Y-48854D01*
X67420Y-48925D01*
X67512Y-48963D01*
X67587Y-48963D01*
X67650Y-48900D01*
X67650Y-49850D01*
X67126Y-49850D01*
X67126Y-49849D01*
X67165Y-49757D01*
X67165Y-49544D01*
X67102Y-49482D01*
X66909Y-49482D01*
X66909Y-49382D01*
X67102Y-49382D01*
X67165Y-49319D01*
X67165Y-49106D01*
X67126Y-49014D01*
X67056Y-48944D01*
X66964Y-48906D01*
X66943Y-48906D01*
X66896Y-48953D01*
X66896Y-48906D01*
X66890Y-48906D01*
X66890Y-48355D01*
X66923Y-48388D01*
X67070Y-48449D01*
X67229Y-48450D01*
X67312Y-48415D01*
X67312Y-48463D01*
X67374Y-48525D01*
X67650Y-48525D01*
X67650Y-48517D01*
X67750Y-48517D01*
X67750Y-48525D01*
X68025Y-48525D01*
X68087Y-48463D01*
X68087Y-48388D01*
X68051Y-48300D01*
X68087Y-48211D01*
X68087Y-48112D01*
X68087Y-47836D01*
X68049Y-47745D01*
X67979Y-47674D01*
X67919Y-47650D01*
X68820Y-47650D01*
X68673Y-47710D01*
X68561Y-47823D01*
X68500Y-47970D01*
X68499Y-48129D01*
X68560Y-48276D01*
X68673Y-48388D01*
X68820Y-48449D01*
X68979Y-48450D01*
X69126Y-48389D01*
X69130Y-48385D01*
X69145Y-48399D01*
X69205Y-48425D01*
X69145Y-48450D01*
X69074Y-48520D01*
X69036Y-48612D01*
X69036Y-48687D01*
X69099Y-48750D01*
X69374Y-48750D01*
X69374Y-48742D01*
X69474Y-48742D01*
X69474Y-48750D01*
X69482Y-48750D01*
X69482Y-48850D01*
X69474Y-48850D01*
X69474Y-49125D01*
X69524Y-49175D01*
X69474Y-49224D01*
X69474Y-49500D01*
X69482Y-49500D01*
X69482Y-49600D01*
X69474Y-49600D01*
X69474Y-49875D01*
X69536Y-49937D01*
X69611Y-49937D01*
X69699Y-49901D01*
X69788Y-49937D01*
X69887Y-49937D01*
X70049Y-49937D01*
X70049Y-49979D01*
X70110Y-50126D01*
X70113Y-50128D01*
X70113Y-50128D01*
X70113Y-50128D01*
G37*
G54D31*
X70113Y-50128D02*
X70098Y-50201D01*
X70098Y-50445D01*
X70034Y-50445D01*
X69942Y-50483D01*
X69871Y-50554D01*
X69833Y-50645D01*
X69833Y-50745D01*
X69833Y-50750D01*
X69475Y-50750D01*
X69374Y-50770D01*
X69374Y-49875D01*
X69374Y-49600D01*
X69374Y-49500D01*
X69374Y-49224D01*
X69324Y-49175D01*
X69374Y-49125D01*
X69374Y-48850D01*
X69099Y-48850D01*
X69036Y-48912D01*
X69036Y-48987D01*
X69074Y-49079D01*
X69145Y-49149D01*
X69205Y-49175D01*
X69145Y-49200D01*
X69074Y-49270D01*
X69036Y-49362D01*
X69036Y-49437D01*
X69099Y-49500D01*
X69374Y-49500D01*
X69374Y-49600D01*
X69099Y-49600D01*
X69036Y-49662D01*
X69036Y-49737D01*
X69074Y-49829D01*
X69145Y-49899D01*
X69236Y-49937D01*
X69311Y-49937D01*
X69374Y-49875D01*
X69374Y-50770D01*
X69360Y-50772D01*
X69321Y-50798D01*
X69263Y-50837D01*
X69189Y-50912D01*
X69038Y-50912D01*
X68974Y-50938D01*
X68974Y-50624D01*
X68951Y-50509D01*
X68886Y-50412D01*
X68886Y-50412D01*
X68412Y-49937D01*
X68314Y-49872D01*
X68200Y-49850D01*
X68087Y-49850D01*
X68087Y-48763D01*
X68087Y-48688D01*
X68025Y-48625D01*
X67750Y-48625D01*
X67750Y-48900D01*
X67812Y-48963D01*
X67887Y-48963D01*
X67979Y-48925D01*
X68049Y-48854D01*
X68087Y-48763D01*
X68087Y-49850D01*
X67650Y-49850D01*
X67650Y-48900D01*
X67650Y-48625D01*
X67374Y-48625D01*
X67312Y-48688D01*
X67312Y-48763D01*
X67350Y-48854D01*
X67420Y-48925D01*
X67512Y-48963D01*
X67587Y-48963D01*
X67650Y-48900D01*
X67650Y-49850D01*
X67126Y-49850D01*
X67126Y-49849D01*
X67165Y-49757D01*
X67165Y-49544D01*
X67102Y-49482D01*
X66909Y-49482D01*
X66909Y-49382D01*
X67102Y-49382D01*
X67165Y-49319D01*
X67165Y-49106D01*
X67126Y-49014D01*
X67056Y-48944D01*
X66964Y-48906D01*
X66943Y-48906D01*
X66896Y-48953D01*
X66896Y-48906D01*
X66890Y-48906D01*
X66890Y-48355D01*
X66923Y-48388D01*
X67070Y-48449D01*
X67229Y-48450D01*
X67312Y-48415D01*
X67312Y-48463D01*
X67374Y-48525D01*
X67650Y-48525D01*
X67650Y-48517D01*
X67750Y-48517D01*
X67750Y-48525D01*
X68025Y-48525D01*
X68087Y-48463D01*
X68087Y-48388D01*
X68051Y-48300D01*
X68087Y-48211D01*
X68087Y-48112D01*
X68087Y-47836D01*
X68049Y-47745D01*
X67979Y-47674D01*
X67919Y-47650D01*
X68820Y-47650D01*
X68673Y-47710D01*
X68561Y-47823D01*
X68500Y-47970D01*
X68499Y-48129D01*
X68560Y-48276D01*
X68673Y-48388D01*
X68820Y-48449D01*
X68979Y-48450D01*
X69126Y-48389D01*
X69130Y-48385D01*
X69145Y-48399D01*
X69205Y-48425D01*
X69145Y-48450D01*
X69074Y-48520D01*
X69036Y-48612D01*
X69036Y-48687D01*
X69099Y-48750D01*
X69374Y-48750D01*
X69374Y-48742D01*
X69474Y-48742D01*
X69474Y-48750D01*
X69482Y-48750D01*
X69482Y-48850D01*
X69474Y-48850D01*
X69474Y-49125D01*
X69524Y-49175D01*
X69474Y-49224D01*
X69474Y-49500D01*
X69482Y-49500D01*
X69482Y-49600D01*
X69474Y-49600D01*
X69474Y-49875D01*
X69536Y-49937D01*
X69611Y-49937D01*
X69699Y-49901D01*
X69788Y-49937D01*
X69887Y-49937D01*
X70049Y-49937D01*
X70049Y-49979D01*
X70110Y-50126D01*
X70113Y-50128D01*
X70113Y-50128D01*
G54D10*
G36*
X70753Y-47787D02*
X70676Y-47711D01*
X70529Y-47650D01*
X70370Y-47649D01*
X70251Y-47699D01*
X70194Y-47674D01*
X70254Y-47649D01*
X70325Y-47579D01*
X70363Y-47487D01*
X70363Y-47412D01*
X70300Y-47350D01*
X70025Y-47350D01*
X70025Y-47357D01*
X69925Y-47357D01*
X69925Y-47350D01*
X69917Y-47350D01*
X69917Y-47250D01*
X69925Y-47250D01*
X69925Y-47242D01*
X70025Y-47242D01*
X70025Y-47250D01*
X70300Y-47250D01*
X70363Y-47187D01*
X70363Y-47150D01*
X70650Y-47150D01*
X70650Y-47149D01*
X70735Y-47133D01*
X70735Y-47192D01*
X70735Y-47743D01*
X70753Y-47787D01*
X70753Y-47787D01*
G37*
G54D31*
X70753Y-47787D02*
X70676Y-47711D01*
X70529Y-47650D01*
X70370Y-47649D01*
X70251Y-47699D01*
X70194Y-47674D01*
X70254Y-47649D01*
X70325Y-47579D01*
X70363Y-47487D01*
X70363Y-47412D01*
X70300Y-47350D01*
X70025Y-47350D01*
X70025Y-47357D01*
X69925Y-47357D01*
X69925Y-47350D01*
X69917Y-47350D01*
X69917Y-47250D01*
X69925Y-47250D01*
X69925Y-47242D01*
X70025Y-47242D01*
X70025Y-47250D01*
X70300Y-47250D01*
X70363Y-47187D01*
X70363Y-47150D01*
X70650Y-47150D01*
X70650Y-47149D01*
X70735Y-47133D01*
X70735Y-47192D01*
X70735Y-47743D01*
X70753Y-47787D01*
G54D10*
G36*
X71960Y-44114D02*
X71825Y-44250D01*
X71200Y-44250D01*
X71085Y-44272D01*
X71046Y-44298D01*
X70987Y-44337D01*
X70737Y-44587D01*
X70672Y-44685D01*
X70668Y-44708D01*
X70610Y-44766D01*
X70572Y-44858D01*
X70572Y-44957D01*
X70572Y-45375D01*
X70610Y-45467D01*
X70667Y-45524D01*
X70654Y-45524D01*
X70398Y-45524D01*
X70306Y-45562D01*
X70236Y-45632D01*
X70198Y-45724D01*
X70198Y-45824D01*
X70198Y-46050D01*
X69951Y-46050D01*
X69951Y-45870D01*
X69951Y-45724D01*
X69913Y-45632D01*
X69843Y-45562D01*
X69751Y-45524D01*
X69686Y-45524D01*
X69624Y-45586D01*
X69624Y-45933D01*
X69889Y-45933D01*
X69951Y-45870D01*
X69951Y-46050D01*
X69906Y-46050D01*
X69889Y-46033D01*
X69624Y-46033D01*
X69624Y-46040D01*
X69524Y-46040D01*
X69524Y-46033D01*
X69516Y-46033D01*
X69516Y-45933D01*
X69524Y-45933D01*
X69524Y-45586D01*
X69472Y-45534D01*
X69482Y-45524D01*
X69539Y-45467D01*
X69577Y-45375D01*
X69577Y-45275D01*
X69577Y-44858D01*
X69574Y-44850D01*
X70200Y-44850D01*
X70200Y-44849D01*
X70314Y-44827D01*
X70314Y-44827D01*
X70412Y-44762D01*
X70662Y-44512D01*
X70662Y-44512D01*
X70701Y-44453D01*
X70727Y-44414D01*
X70727Y-44414D01*
X70750Y-44300D01*
X70750Y-44078D01*
X70837Y-44114D01*
X71061Y-44115D01*
X71269Y-44029D01*
X71428Y-43870D01*
X71449Y-43819D01*
X71470Y-43869D01*
X71629Y-44028D01*
X71837Y-44114D01*
X71960Y-44114D01*
X71960Y-44114D01*
G37*
G54D31*
X71960Y-44114D02*
X71825Y-44250D01*
X71200Y-44250D01*
X71085Y-44272D01*
X71046Y-44298D01*
X70987Y-44337D01*
X70737Y-44587D01*
X70672Y-44685D01*
X70668Y-44708D01*
X70610Y-44766D01*
X70572Y-44858D01*
X70572Y-44957D01*
X70572Y-45375D01*
X70610Y-45467D01*
X70667Y-45524D01*
X70654Y-45524D01*
X70398Y-45524D01*
X70306Y-45562D01*
X70236Y-45632D01*
X70198Y-45724D01*
X70198Y-45824D01*
X70198Y-46050D01*
X69951Y-46050D01*
X69951Y-45870D01*
X69951Y-45724D01*
X69913Y-45632D01*
X69843Y-45562D01*
X69751Y-45524D01*
X69686Y-45524D01*
X69624Y-45586D01*
X69624Y-45933D01*
X69889Y-45933D01*
X69951Y-45870D01*
X69951Y-46050D01*
X69906Y-46050D01*
X69889Y-46033D01*
X69624Y-46033D01*
X69624Y-46040D01*
X69524Y-46040D01*
X69524Y-46033D01*
X69516Y-46033D01*
X69516Y-45933D01*
X69524Y-45933D01*
X69524Y-45586D01*
X69472Y-45534D01*
X69482Y-45524D01*
X69539Y-45467D01*
X69577Y-45375D01*
X69577Y-45275D01*
X69577Y-44858D01*
X69574Y-44850D01*
X70200Y-44850D01*
X70200Y-44849D01*
X70314Y-44827D01*
X70314Y-44827D01*
X70412Y-44762D01*
X70662Y-44512D01*
X70662Y-44512D01*
X70701Y-44453D01*
X70727Y-44414D01*
X70727Y-44414D01*
X70750Y-44300D01*
X70750Y-44078D01*
X70837Y-44114D01*
X71061Y-44115D01*
X71269Y-44029D01*
X71428Y-43870D01*
X71449Y-43819D01*
X71470Y-43869D01*
X71629Y-44028D01*
X71837Y-44114D01*
X71960Y-44114D01*
G54D10*
G36*
X72417Y-45524D02*
X72404Y-45524D01*
X72148Y-45524D01*
X72056Y-45562D01*
X71986Y-45632D01*
X71948Y-45724D01*
X71948Y-45824D01*
X71948Y-46050D01*
X71701Y-46050D01*
X71701Y-45870D01*
X71701Y-45724D01*
X71663Y-45632D01*
X71593Y-45562D01*
X71501Y-45524D01*
X71436Y-45524D01*
X71374Y-45586D01*
X71374Y-45933D01*
X71639Y-45933D01*
X71701Y-45870D01*
X71701Y-46050D01*
X71656Y-46050D01*
X71639Y-46033D01*
X71374Y-46033D01*
X71374Y-46040D01*
X71274Y-46040D01*
X71274Y-46033D01*
X71266Y-46033D01*
X71266Y-45933D01*
X71274Y-45933D01*
X71274Y-45586D01*
X71222Y-45534D01*
X71232Y-45524D01*
X71289Y-45467D01*
X71327Y-45375D01*
X71327Y-45275D01*
X71327Y-44858D01*
X71324Y-44850D01*
X71950Y-44850D01*
X71950Y-44849D01*
X72064Y-44827D01*
X72064Y-44827D01*
X72162Y-44762D01*
X72400Y-44524D01*
X72400Y-44726D01*
X72360Y-44766D01*
X72322Y-44858D01*
X72322Y-44957D01*
X72322Y-45375D01*
X72360Y-45467D01*
X72417Y-45524D01*
X72417Y-45524D01*
G37*
G54D31*
X72417Y-45524D02*
X72404Y-45524D01*
X72148Y-45524D01*
X72056Y-45562D01*
X71986Y-45632D01*
X71948Y-45724D01*
X71948Y-45824D01*
X71948Y-46050D01*
X71701Y-46050D01*
X71701Y-45870D01*
X71701Y-45724D01*
X71663Y-45632D01*
X71593Y-45562D01*
X71501Y-45524D01*
X71436Y-45524D01*
X71374Y-45586D01*
X71374Y-45933D01*
X71639Y-45933D01*
X71701Y-45870D01*
X71701Y-46050D01*
X71656Y-46050D01*
X71639Y-46033D01*
X71374Y-46033D01*
X71374Y-46040D01*
X71274Y-46040D01*
X71274Y-46033D01*
X71266Y-46033D01*
X71266Y-45933D01*
X71274Y-45933D01*
X71274Y-45586D01*
X71222Y-45534D01*
X71232Y-45524D01*
X71289Y-45467D01*
X71327Y-45375D01*
X71327Y-45275D01*
X71327Y-44858D01*
X71324Y-44850D01*
X71950Y-44850D01*
X71950Y-44849D01*
X72064Y-44827D01*
X72064Y-44827D01*
X72162Y-44762D01*
X72400Y-44524D01*
X72400Y-44726D01*
X72360Y-44766D01*
X72322Y-44858D01*
X72322Y-44957D01*
X72322Y-45375D01*
X72360Y-45467D01*
X72417Y-45524D01*
G54D10*
G36*
X72671Y-41100D02*
X72635Y-41187D01*
X72634Y-41411D01*
X72643Y-41432D01*
X72487Y-41587D01*
X72422Y-41685D01*
X72400Y-41800D01*
X72400Y-41949D01*
X72279Y-41900D01*
X72120Y-41899D01*
X71973Y-41960D01*
X71861Y-42073D01*
X71800Y-42220D01*
X71800Y-42275D01*
X71325Y-42750D01*
X70700Y-42750D01*
X70585Y-42772D01*
X70546Y-42798D01*
X70487Y-42837D01*
X70237Y-43087D01*
X70172Y-43185D01*
X70166Y-43217D01*
X70020Y-43071D01*
X69812Y-42985D01*
X69588Y-42984D01*
X69380Y-43070D01*
X69221Y-43229D01*
X69200Y-43280D01*
X69179Y-43230D01*
X69020Y-43071D01*
X68812Y-42985D01*
X68588Y-42984D01*
X68380Y-43070D01*
X68221Y-43229D01*
X68135Y-43437D01*
X68134Y-43661D01*
X68220Y-43869D01*
X68379Y-44028D01*
X68587Y-44114D01*
X68811Y-44115D01*
X69019Y-44029D01*
X69178Y-43870D01*
X69199Y-43819D01*
X69220Y-43869D01*
X69379Y-44028D01*
X69587Y-44114D01*
X69811Y-44115D01*
X70019Y-44029D01*
X70150Y-43899D01*
X70150Y-44175D01*
X70075Y-44250D01*
X69450Y-44250D01*
X69335Y-44272D01*
X69296Y-44298D01*
X69237Y-44337D01*
X68987Y-44587D01*
X68922Y-44685D01*
X68918Y-44708D01*
X68860Y-44766D01*
X68822Y-44858D01*
X68822Y-44957D01*
X68822Y-45375D01*
X68860Y-45467D01*
X68917Y-45524D01*
X68904Y-45524D01*
X68648Y-45524D01*
X68556Y-45562D01*
X68486Y-45632D01*
X68448Y-45724D01*
X68448Y-45824D01*
X68448Y-46050D01*
X68201Y-46050D01*
X68201Y-45870D01*
X68201Y-45724D01*
X68163Y-45632D01*
X68093Y-45562D01*
X68015Y-45529D01*
X68015Y-43438D01*
X67929Y-43230D01*
X67770Y-43071D01*
X67562Y-42985D01*
X67338Y-42984D01*
X67130Y-43070D01*
X66971Y-43229D01*
X66950Y-43280D01*
X66929Y-43230D01*
X66770Y-43071D01*
X66562Y-42985D01*
X66338Y-42984D01*
X66130Y-43070D01*
X65971Y-43229D01*
X65885Y-43437D01*
X65884Y-43661D01*
X65970Y-43869D01*
X66129Y-44028D01*
X66337Y-44114D01*
X66561Y-44115D01*
X66769Y-44029D01*
X66928Y-43870D01*
X66949Y-43819D01*
X66970Y-43869D01*
X67129Y-44028D01*
X67337Y-44114D01*
X67561Y-44115D01*
X67769Y-44029D01*
X67928Y-43870D01*
X68014Y-43662D01*
X68015Y-43438D01*
X68015Y-45529D01*
X68001Y-45524D01*
X67936Y-45524D01*
X67874Y-45586D01*
X67874Y-45933D01*
X68139Y-45933D01*
X68201Y-45870D01*
X68201Y-46050D01*
X68156Y-46050D01*
X68139Y-46033D01*
X67874Y-46033D01*
X67874Y-46040D01*
X67774Y-46040D01*
X67774Y-46033D01*
X67766Y-46033D01*
X67766Y-45933D01*
X67774Y-45933D01*
X67774Y-45586D01*
X67722Y-45534D01*
X67732Y-45524D01*
X67789Y-45467D01*
X67827Y-45375D01*
X67827Y-45275D01*
X67827Y-44858D01*
X67789Y-44766D01*
X67731Y-44708D01*
X67727Y-44685D01*
X67727Y-44685D01*
X67701Y-44646D01*
X67662Y-44587D01*
X67412Y-44337D01*
X67314Y-44272D01*
X67200Y-44250D01*
X66074Y-44250D01*
X65912Y-44087D01*
X65814Y-44022D01*
X65700Y-44000D01*
X65548Y-44000D01*
X65678Y-43870D01*
X65764Y-43662D01*
X65765Y-43438D01*
X65679Y-43230D01*
X65520Y-43071D01*
X65312Y-42985D01*
X65088Y-42984D01*
X64961Y-43037D01*
X64762Y-42837D01*
X64664Y-42772D01*
X64550Y-42750D01*
X64124Y-42750D01*
X64100Y-42725D01*
X64100Y-42150D01*
X64650Y-42150D01*
X64650Y-42149D01*
X64764Y-42127D01*
X64764Y-42127D01*
X64862Y-42062D01*
X65067Y-41856D01*
X65087Y-41864D01*
X65311Y-41865D01*
X65519Y-41779D01*
X65678Y-41620D01*
X65764Y-41412D01*
X65765Y-41188D01*
X65728Y-41100D01*
X65921Y-41100D01*
X65885Y-41187D01*
X65884Y-41411D01*
X65970Y-41619D01*
X66129Y-41778D01*
X66337Y-41864D01*
X66561Y-41865D01*
X66769Y-41779D01*
X66928Y-41620D01*
X66949Y-41569D01*
X66970Y-41619D01*
X67129Y-41778D01*
X67337Y-41864D01*
X67561Y-41865D01*
X67769Y-41779D01*
X67928Y-41620D01*
X68014Y-41412D01*
X68015Y-41188D01*
X67978Y-41100D01*
X68171Y-41100D01*
X68135Y-41187D01*
X68134Y-41411D01*
X68220Y-41619D01*
X68379Y-41778D01*
X68587Y-41864D01*
X68811Y-41865D01*
X69019Y-41779D01*
X69178Y-41620D01*
X69199Y-41569D01*
X69220Y-41619D01*
X69379Y-41778D01*
X69587Y-41864D01*
X69811Y-41865D01*
X70019Y-41779D01*
X70178Y-41620D01*
X70264Y-41412D01*
X70265Y-41188D01*
X70228Y-41100D01*
X70421Y-41100D01*
X70385Y-41187D01*
X70384Y-41411D01*
X70470Y-41619D01*
X70629Y-41778D01*
X70837Y-41864D01*
X71061Y-41865D01*
X71269Y-41779D01*
X71428Y-41620D01*
X71449Y-41569D01*
X71470Y-41619D01*
X71629Y-41778D01*
X71837Y-41864D01*
X72061Y-41865D01*
X72269Y-41779D01*
X72428Y-41620D01*
X72514Y-41412D01*
X72515Y-41188D01*
X72478Y-41100D01*
X72671Y-41100D01*
X72671Y-41100D01*
G37*
G54D31*
X72671Y-41100D02*
X72635Y-41187D01*
X72634Y-41411D01*
X72643Y-41432D01*
X72487Y-41587D01*
X72422Y-41685D01*
X72400Y-41800D01*
X72400Y-41949D01*
X72279Y-41900D01*
X72120Y-41899D01*
X71973Y-41960D01*
X71861Y-42073D01*
X71800Y-42220D01*
X71800Y-42275D01*
X71325Y-42750D01*
X70700Y-42750D01*
X70585Y-42772D01*
X70546Y-42798D01*
X70487Y-42837D01*
X70237Y-43087D01*
X70172Y-43185D01*
X70166Y-43217D01*
X70020Y-43071D01*
X69812Y-42985D01*
X69588Y-42984D01*
X69380Y-43070D01*
X69221Y-43229D01*
X69200Y-43280D01*
X69179Y-43230D01*
X69020Y-43071D01*
X68812Y-42985D01*
X68588Y-42984D01*
X68380Y-43070D01*
X68221Y-43229D01*
X68135Y-43437D01*
X68134Y-43661D01*
X68220Y-43869D01*
X68379Y-44028D01*
X68587Y-44114D01*
X68811Y-44115D01*
X69019Y-44029D01*
X69178Y-43870D01*
X69199Y-43819D01*
X69220Y-43869D01*
X69379Y-44028D01*
X69587Y-44114D01*
X69811Y-44115D01*
X70019Y-44029D01*
X70150Y-43899D01*
X70150Y-44175D01*
X70075Y-44250D01*
X69450Y-44250D01*
X69335Y-44272D01*
X69296Y-44298D01*
X69237Y-44337D01*
X68987Y-44587D01*
X68922Y-44685D01*
X68918Y-44708D01*
X68860Y-44766D01*
X68822Y-44858D01*
X68822Y-44957D01*
X68822Y-45375D01*
X68860Y-45467D01*
X68917Y-45524D01*
X68904Y-45524D01*
X68648Y-45524D01*
X68556Y-45562D01*
X68486Y-45632D01*
X68448Y-45724D01*
X68448Y-45824D01*
X68448Y-46050D01*
X68201Y-46050D01*
X68201Y-45870D01*
X68201Y-45724D01*
X68163Y-45632D01*
X68093Y-45562D01*
X68015Y-45529D01*
X68015Y-43438D01*
X67929Y-43230D01*
X67770Y-43071D01*
X67562Y-42985D01*
X67338Y-42984D01*
X67130Y-43070D01*
X66971Y-43229D01*
X66950Y-43280D01*
X66929Y-43230D01*
X66770Y-43071D01*
X66562Y-42985D01*
X66338Y-42984D01*
X66130Y-43070D01*
X65971Y-43229D01*
X65885Y-43437D01*
X65884Y-43661D01*
X65970Y-43869D01*
X66129Y-44028D01*
X66337Y-44114D01*
X66561Y-44115D01*
X66769Y-44029D01*
X66928Y-43870D01*
X66949Y-43819D01*
X66970Y-43869D01*
X67129Y-44028D01*
X67337Y-44114D01*
X67561Y-44115D01*
X67769Y-44029D01*
X67928Y-43870D01*
X68014Y-43662D01*
X68015Y-43438D01*
X68015Y-45529D01*
X68001Y-45524D01*
X67936Y-45524D01*
X67874Y-45586D01*
X67874Y-45933D01*
X68139Y-45933D01*
X68201Y-45870D01*
X68201Y-46050D01*
X68156Y-46050D01*
X68139Y-46033D01*
X67874Y-46033D01*
X67874Y-46040D01*
X67774Y-46040D01*
X67774Y-46033D01*
X67766Y-46033D01*
X67766Y-45933D01*
X67774Y-45933D01*
X67774Y-45586D01*
X67722Y-45534D01*
X67732Y-45524D01*
X67789Y-45467D01*
X67827Y-45375D01*
X67827Y-45275D01*
X67827Y-44858D01*
X67789Y-44766D01*
X67731Y-44708D01*
X67727Y-44685D01*
X67727Y-44685D01*
X67701Y-44646D01*
X67662Y-44587D01*
X67412Y-44337D01*
X67314Y-44272D01*
X67200Y-44250D01*
X66074Y-44250D01*
X65912Y-44087D01*
X65814Y-44022D01*
X65700Y-44000D01*
X65548Y-44000D01*
X65678Y-43870D01*
X65764Y-43662D01*
X65765Y-43438D01*
X65679Y-43230D01*
X65520Y-43071D01*
X65312Y-42985D01*
X65088Y-42984D01*
X64961Y-43037D01*
X64762Y-42837D01*
X64664Y-42772D01*
X64550Y-42750D01*
X64124Y-42750D01*
X64100Y-42725D01*
X64100Y-42150D01*
X64650Y-42150D01*
X64650Y-42149D01*
X64764Y-42127D01*
X64764Y-42127D01*
X64862Y-42062D01*
X65067Y-41856D01*
X65087Y-41864D01*
X65311Y-41865D01*
X65519Y-41779D01*
X65678Y-41620D01*
X65764Y-41412D01*
X65765Y-41188D01*
X65728Y-41100D01*
X65921Y-41100D01*
X65885Y-41187D01*
X65884Y-41411D01*
X65970Y-41619D01*
X66129Y-41778D01*
X66337Y-41864D01*
X66561Y-41865D01*
X66769Y-41779D01*
X66928Y-41620D01*
X66949Y-41569D01*
X66970Y-41619D01*
X67129Y-41778D01*
X67337Y-41864D01*
X67561Y-41865D01*
X67769Y-41779D01*
X67928Y-41620D01*
X68014Y-41412D01*
X68015Y-41188D01*
X67978Y-41100D01*
X68171Y-41100D01*
X68135Y-41187D01*
X68134Y-41411D01*
X68220Y-41619D01*
X68379Y-41778D01*
X68587Y-41864D01*
X68811Y-41865D01*
X69019Y-41779D01*
X69178Y-41620D01*
X69199Y-41569D01*
X69220Y-41619D01*
X69379Y-41778D01*
X69587Y-41864D01*
X69811Y-41865D01*
X70019Y-41779D01*
X70178Y-41620D01*
X70264Y-41412D01*
X70265Y-41188D01*
X70228Y-41100D01*
X70421Y-41100D01*
X70385Y-41187D01*
X70384Y-41411D01*
X70470Y-41619D01*
X70629Y-41778D01*
X70837Y-41864D01*
X71061Y-41865D01*
X71269Y-41779D01*
X71428Y-41620D01*
X71449Y-41569D01*
X71470Y-41619D01*
X71629Y-41778D01*
X71837Y-41864D01*
X72061Y-41865D01*
X72269Y-41779D01*
X72428Y-41620D01*
X72514Y-41412D01*
X72515Y-41188D01*
X72478Y-41100D01*
X72671Y-41100D01*
G54D10*
G36*
X73982Y-50850D02*
X73974Y-50850D01*
X73874Y-50850D01*
X73599Y-50850D01*
X73550Y-50850D01*
X73435Y-50872D01*
X73396Y-50898D01*
X73363Y-50920D01*
X73363Y-50862D01*
X73325Y-50770D01*
X73254Y-50700D01*
X73163Y-50662D01*
X73088Y-50662D01*
X73025Y-50724D01*
X73025Y-51000D01*
X73033Y-51000D01*
X73033Y-51100D01*
X73025Y-51100D01*
X72925Y-51100D01*
X72917Y-51100D01*
X72917Y-51000D01*
X72925Y-51000D01*
X72925Y-50724D01*
X72863Y-50662D01*
X72788Y-50662D01*
X72700Y-50698D01*
X72611Y-50662D01*
X72512Y-50662D01*
X72236Y-50662D01*
X72145Y-50700D01*
X72095Y-50750D01*
X72066Y-50750D01*
X72066Y-50645D01*
X72028Y-50554D01*
X71957Y-50483D01*
X71945Y-50478D01*
X72034Y-50390D01*
X72034Y-50390D01*
X72073Y-50331D01*
X72099Y-50292D01*
X72099Y-50292D01*
X72116Y-50207D01*
X72128Y-50207D01*
X72128Y-50171D01*
X72146Y-50179D01*
X72175Y-50207D01*
X72196Y-50207D01*
X72206Y-50203D01*
X72215Y-50207D01*
X72314Y-50207D01*
X72452Y-50207D01*
X72461Y-50203D01*
X72471Y-50207D01*
X72570Y-50207D01*
X72708Y-50207D01*
X72717Y-50203D01*
X72727Y-50207D01*
X72826Y-50207D01*
X72964Y-50207D01*
X73056Y-50169D01*
X73126Y-50099D01*
X73165Y-50007D01*
X73165Y-49907D01*
X73165Y-49875D01*
X73172Y-49914D01*
X73237Y-50012D01*
X73487Y-50262D01*
X73546Y-50301D01*
X73569Y-50316D01*
X73569Y-50316D01*
X73574Y-50329D01*
X73645Y-50399D01*
X73705Y-50425D01*
X73645Y-50450D01*
X73574Y-50520D01*
X73536Y-50612D01*
X73536Y-50687D01*
X73599Y-50750D01*
X73874Y-50750D01*
X73874Y-50742D01*
X73974Y-50742D01*
X73974Y-50750D01*
X73982Y-50750D01*
X73982Y-50850D01*
X73982Y-50850D01*
G37*
G54D31*
X73982Y-50850D02*
X73974Y-50850D01*
X73874Y-50850D01*
X73599Y-50850D01*
X73550Y-50850D01*
X73435Y-50872D01*
X73396Y-50898D01*
X73363Y-50920D01*
X73363Y-50862D01*
X73325Y-50770D01*
X73254Y-50700D01*
X73163Y-50662D01*
X73088Y-50662D01*
X73025Y-50724D01*
X73025Y-51000D01*
X73033Y-51000D01*
X73033Y-51100D01*
X73025Y-51100D01*
X72925Y-51100D01*
X72917Y-51100D01*
X72917Y-51000D01*
X72925Y-51000D01*
X72925Y-50724D01*
X72863Y-50662D01*
X72788Y-50662D01*
X72700Y-50698D01*
X72611Y-50662D01*
X72512Y-50662D01*
X72236Y-50662D01*
X72145Y-50700D01*
X72095Y-50750D01*
X72066Y-50750D01*
X72066Y-50645D01*
X72028Y-50554D01*
X71957Y-50483D01*
X71945Y-50478D01*
X72034Y-50390D01*
X72034Y-50390D01*
X72073Y-50331D01*
X72099Y-50292D01*
X72099Y-50292D01*
X72116Y-50207D01*
X72128Y-50207D01*
X72128Y-50171D01*
X72146Y-50179D01*
X72175Y-50207D01*
X72196Y-50207D01*
X72206Y-50203D01*
X72215Y-50207D01*
X72314Y-50207D01*
X72452Y-50207D01*
X72461Y-50203D01*
X72471Y-50207D01*
X72570Y-50207D01*
X72708Y-50207D01*
X72717Y-50203D01*
X72727Y-50207D01*
X72826Y-50207D01*
X72964Y-50207D01*
X73056Y-50169D01*
X73126Y-50099D01*
X73165Y-50007D01*
X73165Y-49907D01*
X73165Y-49875D01*
X73172Y-49914D01*
X73237Y-50012D01*
X73487Y-50262D01*
X73546Y-50301D01*
X73569Y-50316D01*
X73569Y-50316D01*
X73574Y-50329D01*
X73645Y-50399D01*
X73705Y-50425D01*
X73645Y-50450D01*
X73574Y-50520D01*
X73536Y-50612D01*
X73536Y-50687D01*
X73599Y-50750D01*
X73874Y-50750D01*
X73874Y-50742D01*
X73974Y-50742D01*
X73974Y-50750D01*
X73982Y-50750D01*
X73982Y-50850D01*
G54D10*
G36*
X74893Y-43682D02*
X74237Y-44337D01*
X74172Y-44435D01*
X74150Y-44550D01*
X74150Y-44726D01*
X74110Y-44766D01*
X74072Y-44858D01*
X74072Y-44957D01*
X74072Y-45375D01*
X74110Y-45467D01*
X74167Y-45524D01*
X74154Y-45524D01*
X73898Y-45524D01*
X73806Y-45562D01*
X73736Y-45632D01*
X73698Y-45724D01*
X73698Y-45824D01*
X73698Y-46050D01*
X73451Y-46050D01*
X73451Y-45870D01*
X73451Y-45724D01*
X73413Y-45632D01*
X73343Y-45562D01*
X73251Y-45524D01*
X73186Y-45524D01*
X73124Y-45586D01*
X73124Y-45933D01*
X73389Y-45933D01*
X73451Y-45870D01*
X73451Y-46050D01*
X73406Y-46050D01*
X73389Y-46033D01*
X73124Y-46033D01*
X73124Y-46040D01*
X73024Y-46040D01*
X73024Y-46033D01*
X73016Y-46033D01*
X73016Y-45933D01*
X73024Y-45933D01*
X73024Y-45586D01*
X72972Y-45534D01*
X72982Y-45524D01*
X73039Y-45467D01*
X73077Y-45375D01*
X73077Y-45275D01*
X73077Y-44858D01*
X73039Y-44766D01*
X73000Y-44726D01*
X73000Y-44078D01*
X73087Y-44114D01*
X73311Y-44115D01*
X73519Y-44029D01*
X73678Y-43870D01*
X73699Y-43819D01*
X73720Y-43869D01*
X73879Y-44028D01*
X74087Y-44114D01*
X74311Y-44115D01*
X74519Y-44029D01*
X74678Y-43870D01*
X74764Y-43662D01*
X74765Y-43438D01*
X74728Y-43350D01*
X74825Y-43350D01*
X74893Y-43417D01*
X74885Y-43437D01*
X74884Y-43661D01*
X74893Y-43682D01*
X74893Y-43682D01*
G37*
G54D31*
X74893Y-43682D02*
X74237Y-44337D01*
X74172Y-44435D01*
X74150Y-44550D01*
X74150Y-44726D01*
X74110Y-44766D01*
X74072Y-44858D01*
X74072Y-44957D01*
X74072Y-45375D01*
X74110Y-45467D01*
X74167Y-45524D01*
X74154Y-45524D01*
X73898Y-45524D01*
X73806Y-45562D01*
X73736Y-45632D01*
X73698Y-45724D01*
X73698Y-45824D01*
X73698Y-46050D01*
X73451Y-46050D01*
X73451Y-45870D01*
X73451Y-45724D01*
X73413Y-45632D01*
X73343Y-45562D01*
X73251Y-45524D01*
X73186Y-45524D01*
X73124Y-45586D01*
X73124Y-45933D01*
X73389Y-45933D01*
X73451Y-45870D01*
X73451Y-46050D01*
X73406Y-46050D01*
X73389Y-46033D01*
X73124Y-46033D01*
X73124Y-46040D01*
X73024Y-46040D01*
X73024Y-46033D01*
X73016Y-46033D01*
X73016Y-45933D01*
X73024Y-45933D01*
X73024Y-45586D01*
X72972Y-45534D01*
X72982Y-45524D01*
X73039Y-45467D01*
X73077Y-45375D01*
X73077Y-45275D01*
X73077Y-44858D01*
X73039Y-44766D01*
X73000Y-44726D01*
X73000Y-44078D01*
X73087Y-44114D01*
X73311Y-44115D01*
X73519Y-44029D01*
X73678Y-43870D01*
X73699Y-43819D01*
X73720Y-43869D01*
X73879Y-44028D01*
X74087Y-44114D01*
X74311Y-44115D01*
X74519Y-44029D01*
X74678Y-43870D01*
X74764Y-43662D01*
X74765Y-43438D01*
X74728Y-43350D01*
X74825Y-43350D01*
X74893Y-43417D01*
X74885Y-43437D01*
X74884Y-43661D01*
X74893Y-43682D01*
G54D10*
G36*
X76019Y-50565D02*
X75995Y-50623D01*
X75995Y-50723D01*
X75995Y-51530D01*
X73593Y-51530D01*
X73674Y-51450D01*
X74800Y-51450D01*
X74800Y-51449D01*
X74914Y-51427D01*
X74914Y-51427D01*
X75012Y-51362D01*
X75162Y-51212D01*
X75162Y-51212D01*
X75227Y-51114D01*
X75249Y-51000D01*
X75250Y-51000D01*
X75250Y-50750D01*
X75250Y-50490D01*
X75271Y-50490D01*
X75822Y-50490D01*
X75914Y-50452D01*
X75985Y-50382D01*
X75995Y-50356D01*
X75995Y-50506D01*
X76019Y-50565D01*
X76019Y-50565D01*
G37*
G54D31*
X76019Y-50565D02*
X75995Y-50623D01*
X75995Y-50723D01*
X75995Y-51530D01*
X73593Y-51530D01*
X73674Y-51450D01*
X74800Y-51450D01*
X74800Y-51449D01*
X74914Y-51427D01*
X74914Y-51427D01*
X75012Y-51362D01*
X75162Y-51212D01*
X75162Y-51212D01*
X75227Y-51114D01*
X75249Y-51000D01*
X75250Y-51000D01*
X75250Y-50750D01*
X75250Y-50490D01*
X75271Y-50490D01*
X75822Y-50490D01*
X75914Y-50452D01*
X75985Y-50382D01*
X75995Y-50356D01*
X75995Y-50506D01*
X76019Y-50565D01*
G54D10*
G36*
X76930Y-36483D02*
X76929Y-36480D01*
X76770Y-36321D01*
X76562Y-36235D01*
X76338Y-36234D01*
X76130Y-36320D01*
X75971Y-36479D01*
X75950Y-36530D01*
X75929Y-36480D01*
X75770Y-36321D01*
X75562Y-36235D01*
X75338Y-36234D01*
X75130Y-36320D01*
X74987Y-36463D01*
X74612Y-36087D01*
X74514Y-36022D01*
X74400Y-36000D01*
X73700Y-36000D01*
X71450Y-36000D01*
X69200Y-36000D01*
X66950Y-36000D01*
X64700Y-36000D01*
X62450Y-36000D01*
X60200Y-36000D01*
X57950Y-36000D01*
X55700Y-36000D01*
X55585Y-36022D01*
X55487Y-36087D01*
X55332Y-36243D01*
X55312Y-36235D01*
X55088Y-36234D01*
X54880Y-36320D01*
X54721Y-36479D01*
X54635Y-36687D01*
X54634Y-36911D01*
X54671Y-37000D01*
X54478Y-37000D01*
X54514Y-36912D01*
X54515Y-36688D01*
X54429Y-36480D01*
X54270Y-36321D01*
X54062Y-36235D01*
X53838Y-36234D01*
X53630Y-36320D01*
X53471Y-36479D01*
X53450Y-36530D01*
X53429Y-36480D01*
X53270Y-36321D01*
X53062Y-36235D01*
X52838Y-36234D01*
X52817Y-36243D01*
X52662Y-36087D01*
X52564Y-36022D01*
X52450Y-36000D01*
X50200Y-36000D01*
X47950Y-36000D01*
X45700Y-36000D01*
X43450Y-36000D01*
X41200Y-36000D01*
X38950Y-36000D01*
X36700Y-36000D01*
X34450Y-36000D01*
X33200Y-36000D01*
X33085Y-36022D01*
X32987Y-36087D01*
X32832Y-36243D01*
X32812Y-36235D01*
X32588Y-36234D01*
X32380Y-36320D01*
X32237Y-36463D01*
X31862Y-36087D01*
X31764Y-36022D01*
X31650Y-36000D01*
X30950Y-36000D01*
X30835Y-36022D01*
X30737Y-36087D01*
X30582Y-36243D01*
X30562Y-36235D01*
X30338Y-36234D01*
X30130Y-36320D01*
X29971Y-36479D01*
X29969Y-36483D01*
X29969Y-35819D01*
X76930Y-35819D01*
X76930Y-36483D01*
X76930Y-36483D01*
G37*
G54D31*
X76930Y-36483D02*
X76929Y-36480D01*
X76770Y-36321D01*
X76562Y-36235D01*
X76338Y-36234D01*
X76130Y-36320D01*
X75971Y-36479D01*
X75950Y-36530D01*
X75929Y-36480D01*
X75770Y-36321D01*
X75562Y-36235D01*
X75338Y-36234D01*
X75130Y-36320D01*
X74987Y-36463D01*
X74612Y-36087D01*
X74514Y-36022D01*
X74400Y-36000D01*
X73700Y-36000D01*
X71450Y-36000D01*
X69200Y-36000D01*
X66950Y-36000D01*
X64700Y-36000D01*
X62450Y-36000D01*
X60200Y-36000D01*
X57950Y-36000D01*
X55700Y-36000D01*
X55585Y-36022D01*
X55487Y-36087D01*
X55332Y-36243D01*
X55312Y-36235D01*
X55088Y-36234D01*
X54880Y-36320D01*
X54721Y-36479D01*
X54635Y-36687D01*
X54634Y-36911D01*
X54671Y-37000D01*
X54478Y-37000D01*
X54514Y-36912D01*
X54515Y-36688D01*
X54429Y-36480D01*
X54270Y-36321D01*
X54062Y-36235D01*
X53838Y-36234D01*
X53630Y-36320D01*
X53471Y-36479D01*
X53450Y-36530D01*
X53429Y-36480D01*
X53270Y-36321D01*
X53062Y-36235D01*
X52838Y-36234D01*
X52817Y-36243D01*
X52662Y-36087D01*
X52564Y-36022D01*
X52450Y-36000D01*
X50200Y-36000D01*
X47950Y-36000D01*
X45700Y-36000D01*
X43450Y-36000D01*
X41200Y-36000D01*
X38950Y-36000D01*
X36700Y-36000D01*
X34450Y-36000D01*
X33200Y-36000D01*
X33085Y-36022D01*
X32987Y-36087D01*
X32832Y-36243D01*
X32812Y-36235D01*
X32588Y-36234D01*
X32380Y-36320D01*
X32237Y-36463D01*
X31862Y-36087D01*
X31764Y-36022D01*
X31650Y-36000D01*
X30950Y-36000D01*
X30835Y-36022D01*
X30737Y-36087D01*
X30582Y-36243D01*
X30562Y-36235D01*
X30338Y-36234D01*
X30130Y-36320D01*
X29971Y-36479D01*
X29969Y-36483D01*
X29969Y-35819D01*
X76930Y-35819D01*
X76930Y-36483D01*
G54D10*
G36*
X76930Y-38733D02*
X76929Y-38730D01*
X76770Y-38571D01*
X76562Y-38485D01*
X76338Y-38484D01*
X76130Y-38570D01*
X75971Y-38729D01*
X75950Y-38780D01*
X75929Y-38730D01*
X75770Y-38571D01*
X75562Y-38485D01*
X75338Y-38484D01*
X75317Y-38493D01*
X75162Y-38337D01*
X75064Y-38272D01*
X74950Y-38250D01*
X73700Y-38250D01*
X71450Y-38250D01*
X69200Y-38250D01*
X66950Y-38250D01*
X65674Y-38250D01*
X65824Y-38100D01*
X67450Y-38100D01*
X67450Y-38099D01*
X67564Y-38077D01*
X67564Y-38077D01*
X67662Y-38012D01*
X67824Y-37850D01*
X69450Y-37850D01*
X69450Y-37849D01*
X69564Y-37827D01*
X69564Y-37827D01*
X69662Y-37762D01*
X69824Y-37600D01*
X71450Y-37600D01*
X71450Y-37599D01*
X71564Y-37577D01*
X71564Y-37577D01*
X71662Y-37512D01*
X71817Y-37356D01*
X71837Y-37364D01*
X72061Y-37365D01*
X72269Y-37279D01*
X72428Y-37120D01*
X72514Y-36912D01*
X72515Y-36688D01*
X72478Y-36600D01*
X72671Y-36600D01*
X72635Y-36687D01*
X72634Y-36911D01*
X72720Y-37119D01*
X72879Y-37278D01*
X73087Y-37364D01*
X73311Y-37365D01*
X73519Y-37279D01*
X73678Y-37120D01*
X73699Y-37069D01*
X73720Y-37119D01*
X73879Y-37278D01*
X74087Y-37364D01*
X74311Y-37365D01*
X74519Y-37279D01*
X74678Y-37120D01*
X74715Y-37030D01*
X74785Y-37077D01*
X74900Y-37100D01*
X74962Y-37100D01*
X74970Y-37119D01*
X75129Y-37278D01*
X75337Y-37364D01*
X75561Y-37365D01*
X75769Y-37279D01*
X75928Y-37120D01*
X75949Y-37069D01*
X75970Y-37119D01*
X76129Y-37278D01*
X76337Y-37364D01*
X76561Y-37365D01*
X76769Y-37279D01*
X76928Y-37120D01*
X76930Y-37116D01*
X76930Y-38733D01*
X76930Y-38733D01*
G37*
G54D31*
X76930Y-38733D02*
X76929Y-38730D01*
X76770Y-38571D01*
X76562Y-38485D01*
X76338Y-38484D01*
X76130Y-38570D01*
X75971Y-38729D01*
X75950Y-38780D01*
X75929Y-38730D01*
X75770Y-38571D01*
X75562Y-38485D01*
X75338Y-38484D01*
X75317Y-38493D01*
X75162Y-38337D01*
X75064Y-38272D01*
X74950Y-38250D01*
X73700Y-38250D01*
X71450Y-38250D01*
X69200Y-38250D01*
X66950Y-38250D01*
X65674Y-38250D01*
X65824Y-38100D01*
X67450Y-38100D01*
X67450Y-38099D01*
X67564Y-38077D01*
X67564Y-38077D01*
X67662Y-38012D01*
X67824Y-37850D01*
X69450Y-37850D01*
X69450Y-37849D01*
X69564Y-37827D01*
X69564Y-37827D01*
X69662Y-37762D01*
X69824Y-37600D01*
X71450Y-37600D01*
X71450Y-37599D01*
X71564Y-37577D01*
X71564Y-37577D01*
X71662Y-37512D01*
X71817Y-37356D01*
X71837Y-37364D01*
X72061Y-37365D01*
X72269Y-37279D01*
X72428Y-37120D01*
X72514Y-36912D01*
X72515Y-36688D01*
X72478Y-36600D01*
X72671Y-36600D01*
X72635Y-36687D01*
X72634Y-36911D01*
X72720Y-37119D01*
X72879Y-37278D01*
X73087Y-37364D01*
X73311Y-37365D01*
X73519Y-37279D01*
X73678Y-37120D01*
X73699Y-37069D01*
X73720Y-37119D01*
X73879Y-37278D01*
X74087Y-37364D01*
X74311Y-37365D01*
X74519Y-37279D01*
X74678Y-37120D01*
X74715Y-37030D01*
X74785Y-37077D01*
X74900Y-37100D01*
X74962Y-37100D01*
X74970Y-37119D01*
X75129Y-37278D01*
X75337Y-37364D01*
X75561Y-37365D01*
X75769Y-37279D01*
X75928Y-37120D01*
X75949Y-37069D01*
X75970Y-37119D01*
X76129Y-37278D01*
X76337Y-37364D01*
X76561Y-37365D01*
X76769Y-37279D01*
X76928Y-37120D01*
X76930Y-37116D01*
X76930Y-38733D01*
G54D10*
G36*
X76930Y-40983D02*
X76929Y-40980D01*
X76770Y-40821D01*
X76562Y-40735D01*
X76338Y-40734D01*
X76130Y-40820D01*
X75971Y-40979D01*
X75950Y-41030D01*
X75929Y-40980D01*
X75770Y-40821D01*
X75562Y-40735D01*
X75338Y-40734D01*
X75317Y-40743D01*
X75162Y-40587D01*
X75064Y-40522D01*
X74950Y-40500D01*
X73700Y-40500D01*
X71450Y-40500D01*
X69200Y-40500D01*
X66950Y-40500D01*
X64700Y-40500D01*
X62450Y-40500D01*
X60200Y-40500D01*
X57950Y-40500D01*
X55700Y-40500D01*
X55585Y-40522D01*
X55487Y-40587D01*
X55332Y-40743D01*
X55312Y-40735D01*
X55088Y-40734D01*
X54880Y-40820D01*
X54721Y-40979D01*
X54635Y-41187D01*
X54634Y-41411D01*
X54720Y-41619D01*
X54879Y-41778D01*
X55087Y-41864D01*
X55311Y-41865D01*
X55519Y-41779D01*
X55678Y-41620D01*
X55699Y-41569D01*
X55720Y-41619D01*
X55879Y-41778D01*
X55900Y-41787D01*
X55900Y-43062D01*
X55880Y-43070D01*
X55721Y-43229D01*
X55700Y-43280D01*
X55679Y-43230D01*
X55520Y-43071D01*
X55312Y-42985D01*
X55088Y-42984D01*
X54880Y-43070D01*
X54721Y-43229D01*
X54635Y-43437D01*
X54634Y-43661D01*
X54720Y-43869D01*
X54879Y-44028D01*
X55087Y-44114D01*
X55311Y-44115D01*
X55519Y-44029D01*
X55678Y-43870D01*
X55699Y-43819D01*
X55720Y-43869D01*
X55879Y-44028D01*
X56087Y-44114D01*
X56311Y-44115D01*
X56519Y-44029D01*
X56678Y-43870D01*
X56764Y-43662D01*
X56765Y-43438D01*
X56679Y-43230D01*
X56520Y-43071D01*
X56500Y-43062D01*
X56500Y-41787D01*
X56519Y-41779D01*
X56678Y-41620D01*
X56764Y-41412D01*
X56765Y-41188D01*
X56728Y-41100D01*
X56921Y-41100D01*
X56885Y-41187D01*
X56884Y-41411D01*
X56970Y-41619D01*
X57129Y-41778D01*
X57337Y-41864D01*
X57561Y-41865D01*
X57769Y-41779D01*
X57928Y-41620D01*
X57949Y-41569D01*
X57970Y-41619D01*
X58129Y-41778D01*
X58150Y-41787D01*
X58150Y-43062D01*
X58130Y-43070D01*
X57971Y-43229D01*
X57950Y-43280D01*
X57929Y-43230D01*
X57770Y-43071D01*
X57562Y-42985D01*
X57338Y-42984D01*
X57130Y-43070D01*
X56971Y-43229D01*
X56885Y-43437D01*
X56884Y-43661D01*
X56970Y-43869D01*
X57129Y-44028D01*
X57337Y-44114D01*
X57561Y-44115D01*
X57769Y-44029D01*
X57928Y-43870D01*
X57949Y-43819D01*
X57970Y-43869D01*
X58129Y-44028D01*
X58337Y-44114D01*
X58561Y-44115D01*
X58769Y-44029D01*
X58928Y-43870D01*
X59014Y-43662D01*
X59015Y-43438D01*
X58929Y-43230D01*
X58770Y-43071D01*
X58750Y-43062D01*
X58750Y-41787D01*
X58769Y-41779D01*
X58928Y-41620D01*
X59014Y-41412D01*
X59015Y-41188D01*
X58978Y-41100D01*
X59171Y-41100D01*
X59135Y-41187D01*
X59134Y-41411D01*
X59220Y-41619D01*
X59379Y-41778D01*
X59587Y-41864D01*
X59811Y-41865D01*
X60019Y-41779D01*
X60178Y-41620D01*
X60199Y-41569D01*
X60220Y-41619D01*
X60379Y-41778D01*
X60400Y-41787D01*
X60400Y-43062D01*
X60380Y-43070D01*
X60221Y-43229D01*
X60200Y-43280D01*
X60179Y-43230D01*
X60020Y-43071D01*
X59812Y-42985D01*
X59588Y-42984D01*
X59380Y-43070D01*
X59221Y-43229D01*
X59135Y-43437D01*
X59134Y-43661D01*
X59220Y-43869D01*
X59379Y-44028D01*
X59587Y-44114D01*
X59811Y-44115D01*
X60019Y-44029D01*
X60178Y-43870D01*
X60199Y-43819D01*
X60220Y-43869D01*
X60379Y-44028D01*
X60587Y-44114D01*
X60811Y-44115D01*
X60900Y-44078D01*
X60900Y-44300D01*
X60922Y-44414D01*
X60987Y-44512D01*
X61125Y-44650D01*
X58960Y-44650D01*
X58846Y-44672D01*
X58748Y-44737D01*
X58093Y-45392D01*
X58061Y-45360D01*
X57970Y-45322D01*
X57870Y-45322D01*
X57778Y-45360D01*
X57708Y-45431D01*
X57681Y-45457D01*
X57562Y-45337D01*
X57464Y-45272D01*
X57350Y-45250D01*
X56804Y-45250D01*
X56775Y-45220D01*
X56775Y-45175D01*
X56752Y-45060D01*
X56687Y-44963D01*
X56562Y-44837D01*
X56464Y-44772D01*
X56350Y-44750D01*
X55350Y-44750D01*
X55235Y-44772D01*
X55137Y-44837D01*
X54987Y-44987D01*
X54987Y-44987D01*
X54837Y-45137D01*
X54801Y-45050D01*
X54837Y-44961D01*
X54837Y-44862D01*
X54837Y-44586D01*
X54799Y-44495D01*
X54729Y-44424D01*
X54637Y-44386D01*
X54538Y-44386D01*
X54486Y-44386D01*
X54250Y-44150D01*
X54250Y-44037D01*
X54269Y-44029D01*
X54428Y-43870D01*
X54514Y-43662D01*
X54515Y-43438D01*
X54429Y-43230D01*
X54270Y-43071D01*
X54250Y-43062D01*
X54250Y-41787D01*
X54269Y-41779D01*
X54428Y-41620D01*
X54514Y-41412D01*
X54515Y-41188D01*
X54429Y-40980D01*
X54270Y-40821D01*
X54062Y-40735D01*
X53838Y-40734D01*
X53630Y-40820D01*
X53471Y-40979D01*
X53450Y-41030D01*
X53429Y-40980D01*
X53270Y-40821D01*
X53062Y-40735D01*
X52838Y-40734D01*
X52817Y-40743D01*
X52662Y-40587D01*
X52564Y-40522D01*
X52450Y-40500D01*
X50200Y-40500D01*
X47950Y-40500D01*
X45700Y-40500D01*
X43450Y-40500D01*
X41200Y-40500D01*
X38950Y-40500D01*
X36700Y-40500D01*
X34450Y-40500D01*
X32200Y-40500D01*
X30950Y-40500D01*
X30835Y-40522D01*
X30737Y-40587D01*
X30582Y-40743D01*
X30562Y-40735D01*
X30338Y-40734D01*
X30130Y-40820D01*
X29971Y-40979D01*
X29969Y-40983D01*
X29969Y-39366D01*
X29970Y-39369D01*
X30129Y-39528D01*
X30337Y-39614D01*
X30561Y-39615D01*
X30769Y-39529D01*
X30928Y-39370D01*
X30949Y-39319D01*
X30970Y-39369D01*
X31129Y-39528D01*
X31337Y-39614D01*
X31561Y-39615D01*
X31582Y-39606D01*
X31737Y-39762D01*
X31737Y-39762D01*
X31835Y-39827D01*
X31950Y-39850D01*
X33575Y-39850D01*
X33737Y-40012D01*
X33796Y-40051D01*
X33835Y-40077D01*
X33835Y-40077D01*
X33950Y-40100D01*
X45575Y-40100D01*
X45737Y-40262D01*
X45796Y-40301D01*
X45835Y-40327D01*
X45835Y-40327D01*
X45950Y-40350D01*
X61950Y-40350D01*
X61950Y-40349D01*
X62064Y-40327D01*
X62064Y-40327D01*
X62162Y-40262D01*
X62324Y-40100D01*
X73950Y-40100D01*
X73950Y-40099D01*
X74064Y-40077D01*
X74064Y-40077D01*
X74162Y-40012D01*
X74324Y-39850D01*
X75950Y-39850D01*
X75950Y-39849D01*
X76064Y-39827D01*
X76064Y-39827D01*
X76162Y-39762D01*
X76317Y-39606D01*
X76337Y-39614D01*
X76561Y-39615D01*
X76769Y-39529D01*
X76928Y-39370D01*
X76930Y-39366D01*
X76930Y-40983D01*
X76930Y-40983D01*
G37*
G54D31*
X76930Y-40983D02*
X76929Y-40980D01*
X76770Y-40821D01*
X76562Y-40735D01*
X76338Y-40734D01*
X76130Y-40820D01*
X75971Y-40979D01*
X75950Y-41030D01*
X75929Y-40980D01*
X75770Y-40821D01*
X75562Y-40735D01*
X75338Y-40734D01*
X75317Y-40743D01*
X75162Y-40587D01*
X75064Y-40522D01*
X74950Y-40500D01*
X73700Y-40500D01*
X71450Y-40500D01*
X69200Y-40500D01*
X66950Y-40500D01*
X64700Y-40500D01*
X62450Y-40500D01*
X60200Y-40500D01*
X57950Y-40500D01*
X55700Y-40500D01*
X55585Y-40522D01*
X55487Y-40587D01*
X55332Y-40743D01*
X55312Y-40735D01*
X55088Y-40734D01*
X54880Y-40820D01*
X54721Y-40979D01*
X54635Y-41187D01*
X54634Y-41411D01*
X54720Y-41619D01*
X54879Y-41778D01*
X55087Y-41864D01*
X55311Y-41865D01*
X55519Y-41779D01*
X55678Y-41620D01*
X55699Y-41569D01*
X55720Y-41619D01*
X55879Y-41778D01*
X55900Y-41787D01*
X55900Y-43062D01*
X55880Y-43070D01*
X55721Y-43229D01*
X55700Y-43280D01*
X55679Y-43230D01*
X55520Y-43071D01*
X55312Y-42985D01*
X55088Y-42984D01*
X54880Y-43070D01*
X54721Y-43229D01*
X54635Y-43437D01*
X54634Y-43661D01*
X54720Y-43869D01*
X54879Y-44028D01*
X55087Y-44114D01*
X55311Y-44115D01*
X55519Y-44029D01*
X55678Y-43870D01*
X55699Y-43819D01*
X55720Y-43869D01*
X55879Y-44028D01*
X56087Y-44114D01*
X56311Y-44115D01*
X56519Y-44029D01*
X56678Y-43870D01*
X56764Y-43662D01*
X56765Y-43438D01*
X56679Y-43230D01*
X56520Y-43071D01*
X56500Y-43062D01*
X56500Y-41787D01*
X56519Y-41779D01*
X56678Y-41620D01*
X56764Y-41412D01*
X56765Y-41188D01*
X56728Y-41100D01*
X56921Y-41100D01*
X56885Y-41187D01*
X56884Y-41411D01*
X56970Y-41619D01*
X57129Y-41778D01*
X57337Y-41864D01*
X57561Y-41865D01*
X57769Y-41779D01*
X57928Y-41620D01*
X57949Y-41569D01*
X57970Y-41619D01*
X58129Y-41778D01*
X58150Y-41787D01*
X58150Y-43062D01*
X58130Y-43070D01*
X57971Y-43229D01*
X57950Y-43280D01*
X57929Y-43230D01*
X57770Y-43071D01*
X57562Y-42985D01*
X57338Y-42984D01*
X57130Y-43070D01*
X56971Y-43229D01*
X56885Y-43437D01*
X56884Y-43661D01*
X56970Y-43869D01*
X57129Y-44028D01*
X57337Y-44114D01*
X57561Y-44115D01*
X57769Y-44029D01*
X57928Y-43870D01*
X57949Y-43819D01*
X57970Y-43869D01*
X58129Y-44028D01*
X58337Y-44114D01*
X58561Y-44115D01*
X58769Y-44029D01*
X58928Y-43870D01*
X59014Y-43662D01*
X59015Y-43438D01*
X58929Y-43230D01*
X58770Y-43071D01*
X58750Y-43062D01*
X58750Y-41787D01*
X58769Y-41779D01*
X58928Y-41620D01*
X59014Y-41412D01*
X59015Y-41188D01*
X58978Y-41100D01*
X59171Y-41100D01*
X59135Y-41187D01*
X59134Y-41411D01*
X59220Y-41619D01*
X59379Y-41778D01*
X59587Y-41864D01*
X59811Y-41865D01*
X60019Y-41779D01*
X60178Y-41620D01*
X60199Y-41569D01*
X60220Y-41619D01*
X60379Y-41778D01*
X60400Y-41787D01*
X60400Y-43062D01*
X60380Y-43070D01*
X60221Y-43229D01*
X60200Y-43280D01*
X60179Y-43230D01*
X60020Y-43071D01*
X59812Y-42985D01*
X59588Y-42984D01*
X59380Y-43070D01*
X59221Y-43229D01*
X59135Y-43437D01*
X59134Y-43661D01*
X59220Y-43869D01*
X59379Y-44028D01*
X59587Y-44114D01*
X59811Y-44115D01*
X60019Y-44029D01*
X60178Y-43870D01*
X60199Y-43819D01*
X60220Y-43869D01*
X60379Y-44028D01*
X60587Y-44114D01*
X60811Y-44115D01*
X60900Y-44078D01*
X60900Y-44300D01*
X60922Y-44414D01*
X60987Y-44512D01*
X61125Y-44650D01*
X58960Y-44650D01*
X58846Y-44672D01*
X58748Y-44737D01*
X58093Y-45392D01*
X58061Y-45360D01*
X57970Y-45322D01*
X57870Y-45322D01*
X57778Y-45360D01*
X57708Y-45431D01*
X57681Y-45457D01*
X57562Y-45337D01*
X57464Y-45272D01*
X57350Y-45250D01*
X56804Y-45250D01*
X56775Y-45220D01*
X56775Y-45175D01*
X56752Y-45060D01*
X56687Y-44963D01*
X56562Y-44837D01*
X56464Y-44772D01*
X56350Y-44750D01*
X55350Y-44750D01*
X55235Y-44772D01*
X55137Y-44837D01*
X54987Y-44987D01*
X54987Y-44987D01*
X54837Y-45137D01*
X54801Y-45050D01*
X54837Y-44961D01*
X54837Y-44862D01*
X54837Y-44586D01*
X54799Y-44495D01*
X54729Y-44424D01*
X54637Y-44386D01*
X54538Y-44386D01*
X54486Y-44386D01*
X54250Y-44150D01*
X54250Y-44037D01*
X54269Y-44029D01*
X54428Y-43870D01*
X54514Y-43662D01*
X54515Y-43438D01*
X54429Y-43230D01*
X54270Y-43071D01*
X54250Y-43062D01*
X54250Y-41787D01*
X54269Y-41779D01*
X54428Y-41620D01*
X54514Y-41412D01*
X54515Y-41188D01*
X54429Y-40980D01*
X54270Y-40821D01*
X54062Y-40735D01*
X53838Y-40734D01*
X53630Y-40820D01*
X53471Y-40979D01*
X53450Y-41030D01*
X53429Y-40980D01*
X53270Y-40821D01*
X53062Y-40735D01*
X52838Y-40734D01*
X52817Y-40743D01*
X52662Y-40587D01*
X52564Y-40522D01*
X52450Y-40500D01*
X50200Y-40500D01*
X47950Y-40500D01*
X45700Y-40500D01*
X43450Y-40500D01*
X41200Y-40500D01*
X38950Y-40500D01*
X36700Y-40500D01*
X34450Y-40500D01*
X32200Y-40500D01*
X30950Y-40500D01*
X30835Y-40522D01*
X30737Y-40587D01*
X30582Y-40743D01*
X30562Y-40735D01*
X30338Y-40734D01*
X30130Y-40820D01*
X29971Y-40979D01*
X29969Y-40983D01*
X29969Y-39366D01*
X29970Y-39369D01*
X30129Y-39528D01*
X30337Y-39614D01*
X30561Y-39615D01*
X30769Y-39529D01*
X30928Y-39370D01*
X30949Y-39319D01*
X30970Y-39369D01*
X31129Y-39528D01*
X31337Y-39614D01*
X31561Y-39615D01*
X31582Y-39606D01*
X31737Y-39762D01*
X31737Y-39762D01*
X31835Y-39827D01*
X31950Y-39850D01*
X33575Y-39850D01*
X33737Y-40012D01*
X33796Y-40051D01*
X33835Y-40077D01*
X33835Y-40077D01*
X33950Y-40100D01*
X45575Y-40100D01*
X45737Y-40262D01*
X45796Y-40301D01*
X45835Y-40327D01*
X45835Y-40327D01*
X45950Y-40350D01*
X61950Y-40350D01*
X61950Y-40349D01*
X62064Y-40327D01*
X62064Y-40327D01*
X62162Y-40262D01*
X62324Y-40100D01*
X73950Y-40100D01*
X73950Y-40099D01*
X74064Y-40077D01*
X74064Y-40077D01*
X74162Y-40012D01*
X74324Y-39850D01*
X75950Y-39850D01*
X75950Y-39849D01*
X76064Y-39827D01*
X76064Y-39827D01*
X76162Y-39762D01*
X76317Y-39606D01*
X76337Y-39614D01*
X76561Y-39615D01*
X76769Y-39529D01*
X76928Y-39370D01*
X76930Y-39366D01*
X76930Y-40983D01*
G54D10*
G36*
X76930Y-43233D02*
X76929Y-43230D01*
X76770Y-43071D01*
X76562Y-42985D01*
X76338Y-42984D01*
X76130Y-43070D01*
X75971Y-43229D01*
X75950Y-43280D01*
X75929Y-43230D01*
X75770Y-43071D01*
X75562Y-42985D01*
X75338Y-42984D01*
X75317Y-42993D01*
X75162Y-42837D01*
X75064Y-42772D01*
X74950Y-42750D01*
X73700Y-42750D01*
X73585Y-42772D01*
X73487Y-42837D01*
X73332Y-42993D01*
X73312Y-42985D01*
X73088Y-42984D01*
X73000Y-43021D01*
X73000Y-41924D01*
X73067Y-41856D01*
X73087Y-41864D01*
X73311Y-41865D01*
X73519Y-41779D01*
X73678Y-41620D01*
X73699Y-41569D01*
X73720Y-41619D01*
X73879Y-41778D01*
X74087Y-41864D01*
X74311Y-41865D01*
X74519Y-41779D01*
X74678Y-41620D01*
X74764Y-41412D01*
X74765Y-41188D01*
X74728Y-41100D01*
X74825Y-41100D01*
X74893Y-41167D01*
X74885Y-41187D01*
X74884Y-41411D01*
X74970Y-41619D01*
X75129Y-41778D01*
X75337Y-41864D01*
X75561Y-41865D01*
X75769Y-41779D01*
X75928Y-41620D01*
X75949Y-41569D01*
X75970Y-41619D01*
X76129Y-41778D01*
X76337Y-41864D01*
X76561Y-41865D01*
X76769Y-41779D01*
X76928Y-41620D01*
X76930Y-41616D01*
X76930Y-43233D01*
X76930Y-43233D01*
G37*
G54D31*
X76930Y-43233D02*
X76929Y-43230D01*
X76770Y-43071D01*
X76562Y-42985D01*
X76338Y-42984D01*
X76130Y-43070D01*
X75971Y-43229D01*
X75950Y-43280D01*
X75929Y-43230D01*
X75770Y-43071D01*
X75562Y-42985D01*
X75338Y-42984D01*
X75317Y-42993D01*
X75162Y-42837D01*
X75064Y-42772D01*
X74950Y-42750D01*
X73700Y-42750D01*
X73585Y-42772D01*
X73487Y-42837D01*
X73332Y-42993D01*
X73312Y-42985D01*
X73088Y-42984D01*
X73000Y-43021D01*
X73000Y-41924D01*
X73067Y-41856D01*
X73087Y-41864D01*
X73311Y-41865D01*
X73519Y-41779D01*
X73678Y-41620D01*
X73699Y-41569D01*
X73720Y-41619D01*
X73879Y-41778D01*
X74087Y-41864D01*
X74311Y-41865D01*
X74519Y-41779D01*
X74678Y-41620D01*
X74764Y-41412D01*
X74765Y-41188D01*
X74728Y-41100D01*
X74825Y-41100D01*
X74893Y-41167D01*
X74885Y-41187D01*
X74884Y-41411D01*
X74970Y-41619D01*
X75129Y-41778D01*
X75337Y-41864D01*
X75561Y-41865D01*
X75769Y-41779D01*
X75928Y-41620D01*
X75949Y-41569D01*
X75970Y-41619D01*
X76129Y-41778D01*
X76337Y-41864D01*
X76561Y-41865D01*
X76769Y-41779D01*
X76928Y-41620D01*
X76930Y-41616D01*
X76930Y-43233D01*
G54D10*
G36*
X76930Y-47470D02*
X76195Y-47470D01*
X76104Y-47508D01*
X76033Y-47579D01*
X75995Y-47671D01*
X75995Y-47770D01*
X75995Y-48676D01*
X76019Y-48734D01*
X75995Y-48793D01*
X75995Y-48892D01*
X75995Y-48943D01*
X75985Y-48917D01*
X75914Y-48847D01*
X75822Y-48809D01*
X75610Y-48809D01*
X75547Y-48871D01*
X75547Y-49065D01*
X75447Y-49065D01*
X75447Y-48871D01*
X75385Y-48809D01*
X75201Y-48809D01*
X75201Y-46241D01*
X75201Y-46095D01*
X75201Y-45870D01*
X75201Y-45724D01*
X75163Y-45632D01*
X75093Y-45562D01*
X75001Y-45524D01*
X74936Y-45524D01*
X74874Y-45586D01*
X74874Y-45933D01*
X75139Y-45933D01*
X75201Y-45870D01*
X75201Y-46095D01*
X75139Y-46033D01*
X74874Y-46033D01*
X74874Y-46379D01*
X74936Y-46441D01*
X75001Y-46441D01*
X75093Y-46403D01*
X75163Y-46333D01*
X75201Y-46241D01*
X75201Y-48809D01*
X75172Y-48809D01*
X75080Y-48847D01*
X75010Y-48917D01*
X74972Y-49009D01*
X74972Y-49036D01*
X75034Y-49098D01*
X75091Y-49098D01*
X75080Y-49103D01*
X75010Y-49173D01*
X74990Y-49221D01*
X74972Y-49240D01*
X74972Y-49265D01*
X74972Y-49266D01*
X74972Y-49350D01*
X74949Y-49350D01*
X74863Y-49263D01*
X74863Y-49112D01*
X74825Y-49020D01*
X74775Y-48970D01*
X74775Y-48879D01*
X74825Y-48829D01*
X74863Y-48737D01*
X74863Y-48638D01*
X74863Y-48362D01*
X74825Y-48270D01*
X74754Y-48200D01*
X74663Y-48162D01*
X74563Y-48162D01*
X74288Y-48162D01*
X74200Y-48198D01*
X74111Y-48162D01*
X74036Y-48162D01*
X73974Y-48224D01*
X73974Y-48500D01*
X73982Y-48500D01*
X73982Y-48600D01*
X73974Y-48600D01*
X73974Y-48607D01*
X73874Y-48607D01*
X73874Y-48600D01*
X73866Y-48600D01*
X73866Y-48500D01*
X73874Y-48500D01*
X73874Y-48224D01*
X73811Y-48162D01*
X73736Y-48162D01*
X73645Y-48200D01*
X73574Y-48270D01*
X73536Y-48362D01*
X73536Y-48437D01*
X73599Y-48499D01*
X73574Y-48499D01*
X73412Y-48337D01*
X73314Y-48272D01*
X73200Y-48250D01*
X72920Y-48250D01*
X72951Y-48203D01*
X72977Y-48164D01*
X72977Y-48164D01*
X73000Y-48050D01*
X73000Y-47928D01*
X73056Y-47905D01*
X73126Y-47835D01*
X73165Y-47743D01*
X73165Y-47643D01*
X73165Y-47150D01*
X73179Y-47150D01*
X73326Y-47089D01*
X73438Y-46976D01*
X73499Y-46829D01*
X73500Y-46670D01*
X73491Y-46650D01*
X73950Y-46650D01*
X73950Y-46649D01*
X74064Y-46627D01*
X74064Y-46627D01*
X74162Y-46562D01*
X74288Y-46436D01*
X74288Y-46436D01*
X74296Y-46424D01*
X74296Y-46424D01*
X74345Y-46403D01*
X74415Y-46333D01*
X74450Y-46250D01*
X74484Y-46333D01*
X74554Y-46403D01*
X74646Y-46441D01*
X74711Y-46441D01*
X74774Y-46379D01*
X74774Y-46033D01*
X74766Y-46033D01*
X74766Y-45933D01*
X74774Y-45933D01*
X74774Y-45586D01*
X74722Y-45534D01*
X74732Y-45524D01*
X74789Y-45467D01*
X74827Y-45375D01*
X74827Y-45275D01*
X74827Y-44858D01*
X74789Y-44766D01*
X74750Y-44726D01*
X74750Y-44674D01*
X75317Y-44106D01*
X75337Y-44114D01*
X75561Y-44115D01*
X75769Y-44029D01*
X75928Y-43870D01*
X75949Y-43819D01*
X75970Y-43869D01*
X76129Y-44028D01*
X76337Y-44114D01*
X76561Y-44115D01*
X76769Y-44029D01*
X76928Y-43870D01*
X76930Y-43866D01*
X76930Y-47470D01*
X76930Y-47470D01*
G37*
G54D31*
X76930Y-47470D02*
X76195Y-47470D01*
X76104Y-47508D01*
X76033Y-47579D01*
X75995Y-47671D01*
X75995Y-47770D01*
X75995Y-48676D01*
X76019Y-48734D01*
X75995Y-48793D01*
X75995Y-48892D01*
X75995Y-48943D01*
X75985Y-48917D01*
X75914Y-48847D01*
X75822Y-48809D01*
X75610Y-48809D01*
X75547Y-48871D01*
X75547Y-49065D01*
X75447Y-49065D01*
X75447Y-48871D01*
X75385Y-48809D01*
X75201Y-48809D01*
X75201Y-46241D01*
X75201Y-46095D01*
X75201Y-45870D01*
X75201Y-45724D01*
X75163Y-45632D01*
X75093Y-45562D01*
X75001Y-45524D01*
X74936Y-45524D01*
X74874Y-45586D01*
X74874Y-45933D01*
X75139Y-45933D01*
X75201Y-45870D01*
X75201Y-46095D01*
X75139Y-46033D01*
X74874Y-46033D01*
X74874Y-46379D01*
X74936Y-46441D01*
X75001Y-46441D01*
X75093Y-46403D01*
X75163Y-46333D01*
X75201Y-46241D01*
X75201Y-48809D01*
X75172Y-48809D01*
X75080Y-48847D01*
X75010Y-48917D01*
X74972Y-49009D01*
X74972Y-49036D01*
X75034Y-49098D01*
X75091Y-49098D01*
X75080Y-49103D01*
X75010Y-49173D01*
X74990Y-49221D01*
X74972Y-49240D01*
X74972Y-49265D01*
X74972Y-49266D01*
X74972Y-49350D01*
X74949Y-49350D01*
X74863Y-49263D01*
X74863Y-49112D01*
X74825Y-49020D01*
X74775Y-48970D01*
X74775Y-48879D01*
X74825Y-48829D01*
X74863Y-48737D01*
X74863Y-48638D01*
X74863Y-48362D01*
X74825Y-48270D01*
X74754Y-48200D01*
X74663Y-48162D01*
X74563Y-48162D01*
X74288Y-48162D01*
X74200Y-48198D01*
X74111Y-48162D01*
X74036Y-48162D01*
X73974Y-48224D01*
X73974Y-48500D01*
X73982Y-48500D01*
X73982Y-48600D01*
X73974Y-48600D01*
X73974Y-48607D01*
X73874Y-48607D01*
X73874Y-48600D01*
X73866Y-48600D01*
X73866Y-48500D01*
X73874Y-48500D01*
X73874Y-48224D01*
X73811Y-48162D01*
X73736Y-48162D01*
X73645Y-48200D01*
X73574Y-48270D01*
X73536Y-48362D01*
X73536Y-48437D01*
X73599Y-48499D01*
X73574Y-48499D01*
X73412Y-48337D01*
X73314Y-48272D01*
X73200Y-48250D01*
X72920Y-48250D01*
X72951Y-48203D01*
X72977Y-48164D01*
X72977Y-48164D01*
X73000Y-48050D01*
X73000Y-47928D01*
X73056Y-47905D01*
X73126Y-47835D01*
X73165Y-47743D01*
X73165Y-47643D01*
X73165Y-47150D01*
X73179Y-47150D01*
X73326Y-47089D01*
X73438Y-46976D01*
X73499Y-46829D01*
X73500Y-46670D01*
X73491Y-46650D01*
X73950Y-46650D01*
X73950Y-46649D01*
X74064Y-46627D01*
X74064Y-46627D01*
X74162Y-46562D01*
X74288Y-46436D01*
X74288Y-46436D01*
X74296Y-46424D01*
X74296Y-46424D01*
X74345Y-46403D01*
X74415Y-46333D01*
X74450Y-46250D01*
X74484Y-46333D01*
X74554Y-46403D01*
X74646Y-46441D01*
X74711Y-46441D01*
X74774Y-46379D01*
X74774Y-46033D01*
X74766Y-46033D01*
X74766Y-45933D01*
X74774Y-45933D01*
X74774Y-45586D01*
X74722Y-45534D01*
X74732Y-45524D01*
X74789Y-45467D01*
X74827Y-45375D01*
X74827Y-45275D01*
X74827Y-44858D01*
X74789Y-44766D01*
X74750Y-44726D01*
X74750Y-44674D01*
X75317Y-44106D01*
X75337Y-44114D01*
X75561Y-44115D01*
X75769Y-44029D01*
X75928Y-43870D01*
X75949Y-43819D01*
X75970Y-43869D01*
X76129Y-44028D01*
X76337Y-44114D01*
X76561Y-44115D01*
X76769Y-44029D01*
X76928Y-43870D01*
X76930Y-43866D01*
X76930Y-47470D01*
M02*
