M48
;DRILL file {Pcbnew (2014-03-18 BZR 4754)-product} date Tue 01 Apr 2014 07:57:35 PM CDT
;FORMAT={2:4/ absolute / inch / keep zeros}
FMAT,2
INCH,TZ
T1C0.015
T2C0.028
T3C0.031
T4C0.035
T5C0.051
%
G90
G05
M72
T1
X030350Y-044750
X032050Y-036150
X032050Y-037850
X032050Y-040100
X032050Y-042250
X032850Y-046700
X032850Y-047150
X033200Y-047550
X034800Y-044800
X037050Y-044750
X038400Y-047350
X038900Y-047350
X039100Y-046950
X039350Y-044750
X041550Y-044750
X043400Y-047700
X043750Y-050350
X043800Y-044750
X045200Y-048300
X045200Y-048800
X045200Y-049300
X045200Y-049800
X045200Y-050300
X045600Y-047550
X045700Y-048300
X045700Y-048800
X045700Y-049300
X045700Y-049800
X045700Y-050300
X046100Y-044750
X046200Y-048300
X046200Y-048800
X046200Y-049300
X046200Y-049800
X046200Y-050300
X047600Y-047750
X048000Y-047550
X048300Y-044800
X050150Y-040400
X050150Y-042450
X050500Y-044850
X052300Y-040400
X052350Y-046750
X052450Y-042050
X052800Y-046750
X052850Y-044850
X052900Y-050050
X053100Y-047050
X053700Y-046700
X054350Y-046350
X054600Y-040400
X055000Y-046900
X055400Y-045500
X055450Y-046950
X055600Y-047350
X056050Y-049650
X056850Y-040400
X057450Y-050650
X057450Y-051100
X058150Y-050650
X058178Y-047750
X058200Y-050200
X058500Y-048950
X058650Y-050200
X058800Y-046750
X059250Y-047200
X059500Y-051300
X060100Y-046250
X060350Y-045550
X060550Y-046750
X060700Y-045800
X060850Y-047100
X061050Y-051400
X061150Y-045850
X061450Y-041800
X061450Y-042300
X061600Y-044900
X061600Y-045350
X061750Y-051000
X061950Y-042300
X063000Y-045050
X063450Y-042300
X064250Y-048750
X064250Y-051400
X064550Y-047200
X064800Y-045050
X066000Y-048050
X066550Y-045000
X067150Y-048050
X067450Y-047450
X067850Y-050900
X068200Y-048550
X068300Y-044950
X068300Y-050800
X068900Y-048050
X070000Y-045050
X070400Y-047300
X070450Y-048050
X070450Y-049150
X070450Y-049900
X071550Y-048200
X071600Y-049150
X071800Y-045050
X071950Y-048050
X072200Y-042300
X072200Y-042800
X072250Y-050450
X072350Y-047950
X072350Y-049150
X072650Y-046700
X073100Y-046750
X073600Y-045000
X074850Y-036050
X074850Y-037950
X074850Y-040200
X074850Y-042500
X075650Y-046650
X075800Y-050800
T2
X062950Y-048589
X062950Y-050511
T3
X030450Y-036800
X030450Y-039050
X030450Y-041300
X030450Y-043550
X031450Y-036800
X031450Y-039050
X031450Y-041300
X031450Y-043550
X032700Y-036800
X032700Y-039050
X032700Y-041300
X032700Y-043550
X033700Y-036800
X033700Y-039050
X033700Y-041300
X033700Y-043550
X034950Y-036800
X034950Y-039050
X034950Y-041300
X034950Y-043550
X035950Y-036800
X035950Y-039050
X035950Y-041300
X035950Y-043550
X037200Y-036800
X037200Y-039050
X037200Y-041300
X037200Y-043550
X038200Y-036800
X038200Y-039050
X038200Y-041300
X038200Y-043550
X039450Y-036800
X039450Y-039050
X039450Y-041300
X039450Y-043550
X040450Y-036800
X040450Y-039050
X040450Y-041300
X040450Y-043550
X041700Y-036800
X041700Y-039050
X041700Y-041300
X041700Y-043550
X042700Y-036800
X042700Y-039050
X042700Y-041300
X042700Y-043550
X043950Y-036800
X043950Y-039050
X043950Y-041300
X043950Y-043550
X044950Y-036800
X044950Y-039050
X044950Y-041300
X044950Y-043550
X046200Y-036800
X046200Y-039050
X046200Y-041300
X046200Y-043550
X047200Y-036800
X047200Y-039050
X047200Y-041300
X047200Y-043550
X048450Y-036800
X048450Y-039050
X048450Y-041300
X048450Y-043550
X049450Y-036800
X049450Y-039050
X049450Y-041300
X049450Y-043550
X050700Y-036800
X050700Y-039050
X050700Y-041300
X050700Y-043550
X051700Y-036800
X051700Y-039050
X051700Y-041300
X051700Y-043550
X052950Y-036800
X052950Y-039050
X052950Y-041300
X052950Y-043550
X053950Y-036800
X053950Y-039050
X053950Y-041300
X053950Y-043550
X055200Y-036800
X055200Y-039050
X055200Y-041300
X055200Y-043550
X056200Y-036800
X056200Y-039050
X056200Y-041300
X056200Y-043550
X057450Y-036800
X057450Y-039050
X057450Y-041300
X057450Y-043550
X058450Y-036800
X058450Y-039050
X058450Y-041300
X058450Y-043550
X059700Y-036800
X059700Y-039050
X059700Y-041300
X059700Y-043550
X060700Y-036800
X060700Y-039050
X060700Y-041300
X060700Y-043550
X061950Y-036800
X061950Y-039050
X061950Y-041300
X061950Y-043550
X062950Y-036800
X062950Y-039050
X062950Y-041300
X062950Y-043550
X064200Y-036800
X064200Y-039050
X064200Y-041300
X064200Y-043550
X065200Y-036800
X065200Y-039050
X065200Y-041300
X065200Y-043550
X066450Y-036800
X066450Y-039050
X066450Y-041300
X066450Y-043550
X067450Y-036800
X067450Y-039050
X067450Y-041300
X067450Y-043550
X068700Y-036800
X068700Y-039050
X068700Y-041300
X068700Y-043550
X069700Y-036800
X069700Y-039050
X069700Y-041300
X069700Y-043550
X070950Y-036800
X070950Y-039050
X070950Y-041300
X070950Y-043550
X071950Y-036800
X071950Y-039050
X071950Y-041300
X071950Y-043550
X073200Y-036800
X073200Y-039050
X073200Y-041300
X073200Y-043550
X074200Y-036800
X074200Y-039050
X074200Y-041300
X074200Y-043550
X075450Y-036800
X075450Y-039050
X075450Y-041300
X075450Y-043550
X076450Y-036800
X076450Y-039050
X076450Y-041300
X076450Y-043550
T4
X039450Y-049050
X039450Y-051050
X040450Y-049050
X040450Y-051050
X041450Y-049050
X041450Y-051050
X042450Y-049050
X042450Y-051050
X048950Y-049050
X048950Y-051050
X049950Y-049050
X049950Y-051050
X050950Y-049050
X050950Y-051050
X051950Y-049050
X051950Y-051050
X054200Y-049050
X054200Y-050050
X054200Y-051050
X055200Y-049050
X055200Y-050050
X055200Y-051050
T5
X030950Y-048800
X030950Y-050800
T0
M30
