%FSLAX34Y34*%
G04 Gerber Fmt 3.4, Leading zero omitted, Abs format*
G04 (created by PCBNEW (2014-03-18 BZR 4754)-product) date Tue 01 Apr 2014 07:33:40 PM CDT*
%MOIN*%
G01*
G70*
G90*
G04 APERTURE LIST*
%ADD10C,0.006000*%
%ADD11C,0.010000*%
%ADD12C,0.008000*%
%ADD13C,0.141732*%
%ADD14R,0.086614X0.086614*%
%ADD15C,0.086614*%
%ADD16C,0.062992*%
%ADD17R,0.066929X0.066929*%
%ADD18C,0.066929*%
G04 APERTURE END LIST*
G54D10*
G54D11*
X58000Y-42500D02*
X58000Y-41500D01*
X57500Y-42000D02*
X58500Y-42000D01*
X57500Y-40000D02*
X58500Y-40000D01*
X56726Y-39904D02*
X56726Y-39809D01*
X56750Y-39761D01*
X56773Y-39738D01*
X56845Y-39690D01*
X56940Y-39666D01*
X57130Y-39666D01*
X57178Y-39690D01*
X57202Y-39714D01*
X57226Y-39761D01*
X57226Y-39857D01*
X57202Y-39904D01*
X57178Y-39928D01*
X57130Y-39952D01*
X57011Y-39952D01*
X56964Y-39928D01*
X56940Y-39904D01*
X56916Y-39857D01*
X56916Y-39761D01*
X56940Y-39714D01*
X56964Y-39690D01*
X57011Y-39666D01*
X57035Y-40166D02*
X57035Y-40547D01*
X57226Y-41047D02*
X57226Y-40761D01*
X57226Y-40904D02*
X56726Y-40904D01*
X56797Y-40857D01*
X56845Y-40809D01*
X56869Y-40761D01*
X56773Y-41238D02*
X56750Y-41261D01*
X56726Y-41309D01*
X56726Y-41428D01*
X56750Y-41476D01*
X56773Y-41500D01*
X56821Y-41523D01*
X56869Y-41523D01*
X56940Y-41500D01*
X57226Y-41214D01*
X57226Y-41523D01*
X56726Y-42047D02*
X57226Y-42214D01*
X56726Y-42380D01*
G54D12*
X45446Y-30106D02*
X45446Y-29712D01*
X45053Y-29712D02*
X45053Y-30106D01*
X45053Y-30106D02*
X45446Y-29909D01*
X45446Y-29909D02*
X45053Y-29712D01*
X44856Y-29909D02*
X45643Y-29909D01*
X46037Y-29909D02*
X46037Y-31090D01*
X46234Y-30500D02*
G75*
G03X46234Y-30500I-984J0D01*
G74*
G01*
X45446Y-32356D02*
X45446Y-31962D01*
X45053Y-31962D02*
X45053Y-32356D01*
X45053Y-32356D02*
X45446Y-32159D01*
X45446Y-32159D02*
X45053Y-31962D01*
X44856Y-32159D02*
X45643Y-32159D01*
X46037Y-32159D02*
X46037Y-33340D01*
X46234Y-32750D02*
G75*
G03X46234Y-32750I-984J0D01*
G74*
G01*
X45446Y-34606D02*
X45446Y-34212D01*
X45053Y-34212D02*
X45053Y-34606D01*
X45053Y-34606D02*
X45446Y-34409D01*
X45446Y-34409D02*
X45053Y-34212D01*
X44856Y-34409D02*
X45643Y-34409D01*
X46037Y-34409D02*
X46037Y-35590D01*
X46234Y-35000D02*
G75*
G03X46234Y-35000I-984J0D01*
G74*
G01*
X45446Y-36856D02*
X45446Y-36462D01*
X45053Y-36462D02*
X45053Y-36856D01*
X45053Y-36856D02*
X45446Y-36659D01*
X45446Y-36659D02*
X45053Y-36462D01*
X44856Y-36659D02*
X45643Y-36659D01*
X46037Y-36659D02*
X46037Y-37840D01*
X46234Y-37250D02*
G75*
G03X46234Y-37250I-984J0D01*
G74*
G01*
X45446Y-44356D02*
X45446Y-43962D01*
X45053Y-43962D02*
X45053Y-44356D01*
X45053Y-44356D02*
X45446Y-44159D01*
X45446Y-44159D02*
X45053Y-43962D01*
X44856Y-44159D02*
X45643Y-44159D01*
X46037Y-44159D02*
X46037Y-45340D01*
X46234Y-44750D02*
G75*
G03X46234Y-44750I-984J0D01*
G74*
G01*
X45446Y-46606D02*
X45446Y-46212D01*
X45053Y-46212D02*
X45053Y-46606D01*
X45053Y-46606D02*
X45446Y-46409D01*
X45446Y-46409D02*
X45053Y-46212D01*
X44856Y-46409D02*
X45643Y-46409D01*
X46037Y-46409D02*
X46037Y-47590D01*
X46234Y-47000D02*
G75*
G03X46234Y-47000I-984J0D01*
G74*
G01*
X45446Y-48856D02*
X45446Y-48462D01*
X45053Y-48462D02*
X45053Y-48856D01*
X45053Y-48856D02*
X45446Y-48659D01*
X45446Y-48659D02*
X45053Y-48462D01*
X44856Y-48659D02*
X45643Y-48659D01*
X46037Y-48659D02*
X46037Y-49840D01*
X46234Y-49250D02*
G75*
G03X46234Y-49250I-984J0D01*
G74*
G01*
X45446Y-51106D02*
X45446Y-50712D01*
X45053Y-50712D02*
X45053Y-51106D01*
X45053Y-51106D02*
X45446Y-50909D01*
X45446Y-50909D02*
X45053Y-50712D01*
X44856Y-50909D02*
X45643Y-50909D01*
X46037Y-50909D02*
X46037Y-52090D01*
X46234Y-51500D02*
G75*
G03X46234Y-51500I-984J0D01*
G74*
G01*
X47446Y-30106D02*
X47446Y-29712D01*
X47053Y-29712D02*
X47053Y-30106D01*
X47053Y-30106D02*
X47446Y-29909D01*
X47446Y-29909D02*
X47053Y-29712D01*
X46856Y-29909D02*
X47643Y-29909D01*
X48037Y-29909D02*
X48037Y-31090D01*
X48234Y-30500D02*
G75*
G03X48234Y-30500I-984J0D01*
G74*
G01*
X47446Y-32356D02*
X47446Y-31962D01*
X47053Y-31962D02*
X47053Y-32356D01*
X47053Y-32356D02*
X47446Y-32159D01*
X47446Y-32159D02*
X47053Y-31962D01*
X46856Y-32159D02*
X47643Y-32159D01*
X48037Y-32159D02*
X48037Y-33340D01*
X48234Y-32750D02*
G75*
G03X48234Y-32750I-984J0D01*
G74*
G01*
X47446Y-34606D02*
X47446Y-34212D01*
X47053Y-34212D02*
X47053Y-34606D01*
X47053Y-34606D02*
X47446Y-34409D01*
X47446Y-34409D02*
X47053Y-34212D01*
X46856Y-34409D02*
X47643Y-34409D01*
X48037Y-34409D02*
X48037Y-35590D01*
X48234Y-35000D02*
G75*
G03X48234Y-35000I-984J0D01*
G74*
G01*
X47446Y-36856D02*
X47446Y-36462D01*
X47053Y-36462D02*
X47053Y-36856D01*
X47053Y-36856D02*
X47446Y-36659D01*
X47446Y-36659D02*
X47053Y-36462D01*
X46856Y-36659D02*
X47643Y-36659D01*
X48037Y-36659D02*
X48037Y-37840D01*
X48234Y-37250D02*
G75*
G03X48234Y-37250I-984J0D01*
G74*
G01*
X47446Y-44356D02*
X47446Y-43962D01*
X47053Y-43962D02*
X47053Y-44356D01*
X47053Y-44356D02*
X47446Y-44159D01*
X47446Y-44159D02*
X47053Y-43962D01*
X46856Y-44159D02*
X47643Y-44159D01*
X48037Y-44159D02*
X48037Y-45340D01*
X48234Y-44750D02*
G75*
G03X48234Y-44750I-984J0D01*
G74*
G01*
X47446Y-46606D02*
X47446Y-46212D01*
X47053Y-46212D02*
X47053Y-46606D01*
X47053Y-46606D02*
X47446Y-46409D01*
X47446Y-46409D02*
X47053Y-46212D01*
X46856Y-46409D02*
X47643Y-46409D01*
X48037Y-46409D02*
X48037Y-47590D01*
X48234Y-47000D02*
G75*
G03X48234Y-47000I-984J0D01*
G74*
G01*
X47446Y-48856D02*
X47446Y-48462D01*
X47053Y-48462D02*
X47053Y-48856D01*
X47053Y-48856D02*
X47446Y-48659D01*
X47446Y-48659D02*
X47053Y-48462D01*
X46856Y-48659D02*
X47643Y-48659D01*
X48037Y-48659D02*
X48037Y-49840D01*
X48234Y-49250D02*
G75*
G03X48234Y-49250I-984J0D01*
G74*
G01*
X47446Y-51106D02*
X47446Y-50712D01*
X47053Y-50712D02*
X47053Y-51106D01*
X47053Y-51106D02*
X47446Y-50909D01*
X47446Y-50909D02*
X47053Y-50712D01*
X46856Y-50909D02*
X47643Y-50909D01*
X48037Y-50909D02*
X48037Y-52090D01*
X48234Y-51500D02*
G75*
G03X48234Y-51500I-984J0D01*
G74*
G01*
X49446Y-30106D02*
X49446Y-29712D01*
X49053Y-29712D02*
X49053Y-30106D01*
X49053Y-30106D02*
X49446Y-29909D01*
X49446Y-29909D02*
X49053Y-29712D01*
X48856Y-29909D02*
X49643Y-29909D01*
X50037Y-29909D02*
X50037Y-31090D01*
X50234Y-30500D02*
G75*
G03X50234Y-30500I-984J0D01*
G74*
G01*
X49446Y-32356D02*
X49446Y-31962D01*
X49053Y-31962D02*
X49053Y-32356D01*
X49053Y-32356D02*
X49446Y-32159D01*
X49446Y-32159D02*
X49053Y-31962D01*
X48856Y-32159D02*
X49643Y-32159D01*
X50037Y-32159D02*
X50037Y-33340D01*
X50234Y-32750D02*
G75*
G03X50234Y-32750I-984J0D01*
G74*
G01*
X49446Y-34606D02*
X49446Y-34212D01*
X49053Y-34212D02*
X49053Y-34606D01*
X49053Y-34606D02*
X49446Y-34409D01*
X49446Y-34409D02*
X49053Y-34212D01*
X48856Y-34409D02*
X49643Y-34409D01*
X50037Y-34409D02*
X50037Y-35590D01*
X50234Y-35000D02*
G75*
G03X50234Y-35000I-984J0D01*
G74*
G01*
X49446Y-36856D02*
X49446Y-36462D01*
X49053Y-36462D02*
X49053Y-36856D01*
X49053Y-36856D02*
X49446Y-36659D01*
X49446Y-36659D02*
X49053Y-36462D01*
X48856Y-36659D02*
X49643Y-36659D01*
X50037Y-36659D02*
X50037Y-37840D01*
X50234Y-37250D02*
G75*
G03X50234Y-37250I-984J0D01*
G74*
G01*
X49446Y-44356D02*
X49446Y-43962D01*
X49053Y-43962D02*
X49053Y-44356D01*
X49053Y-44356D02*
X49446Y-44159D01*
X49446Y-44159D02*
X49053Y-43962D01*
X48856Y-44159D02*
X49643Y-44159D01*
X50037Y-44159D02*
X50037Y-45340D01*
X50234Y-44750D02*
G75*
G03X50234Y-44750I-984J0D01*
G74*
G01*
X49446Y-46606D02*
X49446Y-46212D01*
X49053Y-46212D02*
X49053Y-46606D01*
X49053Y-46606D02*
X49446Y-46409D01*
X49446Y-46409D02*
X49053Y-46212D01*
X48856Y-46409D02*
X49643Y-46409D01*
X50037Y-46409D02*
X50037Y-47590D01*
X50234Y-47000D02*
G75*
G03X50234Y-47000I-984J0D01*
G74*
G01*
X49446Y-48856D02*
X49446Y-48462D01*
X49053Y-48462D02*
X49053Y-48856D01*
X49053Y-48856D02*
X49446Y-48659D01*
X49446Y-48659D02*
X49053Y-48462D01*
X48856Y-48659D02*
X49643Y-48659D01*
X50037Y-48659D02*
X50037Y-49840D01*
X50234Y-49250D02*
G75*
G03X50234Y-49250I-984J0D01*
G74*
G01*
X49446Y-51106D02*
X49446Y-50712D01*
X49053Y-50712D02*
X49053Y-51106D01*
X49053Y-51106D02*
X49446Y-50909D01*
X49446Y-50909D02*
X49053Y-50712D01*
X48856Y-50909D02*
X49643Y-50909D01*
X50037Y-50909D02*
X50037Y-52090D01*
X50234Y-51500D02*
G75*
G03X50234Y-51500I-984J0D01*
G74*
G01*
X51446Y-30106D02*
X51446Y-29712D01*
X51053Y-29712D02*
X51053Y-30106D01*
X51053Y-30106D02*
X51446Y-29909D01*
X51446Y-29909D02*
X51053Y-29712D01*
X50856Y-29909D02*
X51643Y-29909D01*
X52037Y-29909D02*
X52037Y-31090D01*
X52234Y-30500D02*
G75*
G03X52234Y-30500I-984J0D01*
G74*
G01*
X51446Y-32356D02*
X51446Y-31962D01*
X51053Y-31962D02*
X51053Y-32356D01*
X51053Y-32356D02*
X51446Y-32159D01*
X51446Y-32159D02*
X51053Y-31962D01*
X50856Y-32159D02*
X51643Y-32159D01*
X52037Y-32159D02*
X52037Y-33340D01*
X52234Y-32750D02*
G75*
G03X52234Y-32750I-984J0D01*
G74*
G01*
X51446Y-34606D02*
X51446Y-34212D01*
X51053Y-34212D02*
X51053Y-34606D01*
X51053Y-34606D02*
X51446Y-34409D01*
X51446Y-34409D02*
X51053Y-34212D01*
X50856Y-34409D02*
X51643Y-34409D01*
X52037Y-34409D02*
X52037Y-35590D01*
X52234Y-35000D02*
G75*
G03X52234Y-35000I-984J0D01*
G74*
G01*
X51446Y-36856D02*
X51446Y-36462D01*
X51053Y-36462D02*
X51053Y-36856D01*
X51053Y-36856D02*
X51446Y-36659D01*
X51446Y-36659D02*
X51053Y-36462D01*
X50856Y-36659D02*
X51643Y-36659D01*
X52037Y-36659D02*
X52037Y-37840D01*
X52234Y-37250D02*
G75*
G03X52234Y-37250I-984J0D01*
G74*
G01*
X51446Y-44356D02*
X51446Y-43962D01*
X51053Y-43962D02*
X51053Y-44356D01*
X51053Y-44356D02*
X51446Y-44159D01*
X51446Y-44159D02*
X51053Y-43962D01*
X50856Y-44159D02*
X51643Y-44159D01*
X52037Y-44159D02*
X52037Y-45340D01*
X52234Y-44750D02*
G75*
G03X52234Y-44750I-984J0D01*
G74*
G01*
X51446Y-46606D02*
X51446Y-46212D01*
X51053Y-46212D02*
X51053Y-46606D01*
X51053Y-46606D02*
X51446Y-46409D01*
X51446Y-46409D02*
X51053Y-46212D01*
X50856Y-46409D02*
X51643Y-46409D01*
X52037Y-46409D02*
X52037Y-47590D01*
X52234Y-47000D02*
G75*
G03X52234Y-47000I-984J0D01*
G74*
G01*
X51446Y-48856D02*
X51446Y-48462D01*
X51053Y-48462D02*
X51053Y-48856D01*
X51053Y-48856D02*
X51446Y-48659D01*
X51446Y-48659D02*
X51053Y-48462D01*
X50856Y-48659D02*
X51643Y-48659D01*
X52037Y-48659D02*
X52037Y-49840D01*
X52234Y-49250D02*
G75*
G03X52234Y-49250I-984J0D01*
G74*
G01*
X51446Y-51106D02*
X51446Y-50712D01*
X51053Y-50712D02*
X51053Y-51106D01*
X51053Y-51106D02*
X51446Y-50909D01*
X51446Y-50909D02*
X51053Y-50712D01*
X50856Y-50909D02*
X51643Y-50909D01*
X52037Y-50909D02*
X52037Y-52090D01*
X52234Y-51500D02*
G75*
G03X52234Y-51500I-984J0D01*
G74*
G01*
X53446Y-30106D02*
X53446Y-29712D01*
X53053Y-29712D02*
X53053Y-30106D01*
X53053Y-30106D02*
X53446Y-29909D01*
X53446Y-29909D02*
X53053Y-29712D01*
X52856Y-29909D02*
X53643Y-29909D01*
X54037Y-29909D02*
X54037Y-31090D01*
X54234Y-30500D02*
G75*
G03X54234Y-30500I-984J0D01*
G74*
G01*
X53446Y-32356D02*
X53446Y-31962D01*
X53053Y-31962D02*
X53053Y-32356D01*
X53053Y-32356D02*
X53446Y-32159D01*
X53446Y-32159D02*
X53053Y-31962D01*
X52856Y-32159D02*
X53643Y-32159D01*
X54037Y-32159D02*
X54037Y-33340D01*
X54234Y-32750D02*
G75*
G03X54234Y-32750I-984J0D01*
G74*
G01*
X53446Y-34606D02*
X53446Y-34212D01*
X53053Y-34212D02*
X53053Y-34606D01*
X53053Y-34606D02*
X53446Y-34409D01*
X53446Y-34409D02*
X53053Y-34212D01*
X52856Y-34409D02*
X53643Y-34409D01*
X54037Y-34409D02*
X54037Y-35590D01*
X54234Y-35000D02*
G75*
G03X54234Y-35000I-984J0D01*
G74*
G01*
X53446Y-36856D02*
X53446Y-36462D01*
X53053Y-36462D02*
X53053Y-36856D01*
X53053Y-36856D02*
X53446Y-36659D01*
X53446Y-36659D02*
X53053Y-36462D01*
X52856Y-36659D02*
X53643Y-36659D01*
X54037Y-36659D02*
X54037Y-37840D01*
X54234Y-37250D02*
G75*
G03X54234Y-37250I-984J0D01*
G74*
G01*
X53446Y-44356D02*
X53446Y-43962D01*
X53053Y-43962D02*
X53053Y-44356D01*
X53053Y-44356D02*
X53446Y-44159D01*
X53446Y-44159D02*
X53053Y-43962D01*
X52856Y-44159D02*
X53643Y-44159D01*
X54037Y-44159D02*
X54037Y-45340D01*
X54234Y-44750D02*
G75*
G03X54234Y-44750I-984J0D01*
G74*
G01*
X53446Y-46606D02*
X53446Y-46212D01*
X53053Y-46212D02*
X53053Y-46606D01*
X53053Y-46606D02*
X53446Y-46409D01*
X53446Y-46409D02*
X53053Y-46212D01*
X52856Y-46409D02*
X53643Y-46409D01*
X54037Y-46409D02*
X54037Y-47590D01*
X54234Y-47000D02*
G75*
G03X54234Y-47000I-984J0D01*
G74*
G01*
X53446Y-48856D02*
X53446Y-48462D01*
X53053Y-48462D02*
X53053Y-48856D01*
X53053Y-48856D02*
X53446Y-48659D01*
X53446Y-48659D02*
X53053Y-48462D01*
X52856Y-48659D02*
X53643Y-48659D01*
X54037Y-48659D02*
X54037Y-49840D01*
X54234Y-49250D02*
G75*
G03X54234Y-49250I-984J0D01*
G74*
G01*
X53446Y-51106D02*
X53446Y-50712D01*
X53053Y-50712D02*
X53053Y-51106D01*
X53053Y-51106D02*
X53446Y-50909D01*
X53446Y-50909D02*
X53053Y-50712D01*
X52856Y-50909D02*
X53643Y-50909D01*
X54037Y-50909D02*
X54037Y-52090D01*
X54234Y-51500D02*
G75*
G03X54234Y-51500I-984J0D01*
G74*
G01*
X55446Y-30106D02*
X55446Y-29712D01*
X55053Y-29712D02*
X55053Y-30106D01*
X55053Y-30106D02*
X55446Y-29909D01*
X55446Y-29909D02*
X55053Y-29712D01*
X54856Y-29909D02*
X55643Y-29909D01*
X56037Y-29909D02*
X56037Y-31090D01*
X56234Y-30500D02*
G75*
G03X56234Y-30500I-984J0D01*
G74*
G01*
X55446Y-32356D02*
X55446Y-31962D01*
X55053Y-31962D02*
X55053Y-32356D01*
X55053Y-32356D02*
X55446Y-32159D01*
X55446Y-32159D02*
X55053Y-31962D01*
X54856Y-32159D02*
X55643Y-32159D01*
X56037Y-32159D02*
X56037Y-33340D01*
X56234Y-32750D02*
G75*
G03X56234Y-32750I-984J0D01*
G74*
G01*
X55446Y-34606D02*
X55446Y-34212D01*
X55053Y-34212D02*
X55053Y-34606D01*
X55053Y-34606D02*
X55446Y-34409D01*
X55446Y-34409D02*
X55053Y-34212D01*
X54856Y-34409D02*
X55643Y-34409D01*
X56037Y-34409D02*
X56037Y-35590D01*
X56234Y-35000D02*
G75*
G03X56234Y-35000I-984J0D01*
G74*
G01*
X55446Y-36856D02*
X55446Y-36462D01*
X55053Y-36462D02*
X55053Y-36856D01*
X55053Y-36856D02*
X55446Y-36659D01*
X55446Y-36659D02*
X55053Y-36462D01*
X54856Y-36659D02*
X55643Y-36659D01*
X56037Y-36659D02*
X56037Y-37840D01*
X56234Y-37250D02*
G75*
G03X56234Y-37250I-984J0D01*
G74*
G01*
X55446Y-44356D02*
X55446Y-43962D01*
X55053Y-43962D02*
X55053Y-44356D01*
X55053Y-44356D02*
X55446Y-44159D01*
X55446Y-44159D02*
X55053Y-43962D01*
X54856Y-44159D02*
X55643Y-44159D01*
X56037Y-44159D02*
X56037Y-45340D01*
X56234Y-44750D02*
G75*
G03X56234Y-44750I-984J0D01*
G74*
G01*
X55446Y-46606D02*
X55446Y-46212D01*
X55053Y-46212D02*
X55053Y-46606D01*
X55053Y-46606D02*
X55446Y-46409D01*
X55446Y-46409D02*
X55053Y-46212D01*
X54856Y-46409D02*
X55643Y-46409D01*
X56037Y-46409D02*
X56037Y-47590D01*
X56234Y-47000D02*
G75*
G03X56234Y-47000I-984J0D01*
G74*
G01*
X55446Y-48856D02*
X55446Y-48462D01*
X55053Y-48462D02*
X55053Y-48856D01*
X55053Y-48856D02*
X55446Y-48659D01*
X55446Y-48659D02*
X55053Y-48462D01*
X54856Y-48659D02*
X55643Y-48659D01*
X56037Y-48659D02*
X56037Y-49840D01*
X56234Y-49250D02*
G75*
G03X56234Y-49250I-984J0D01*
G74*
G01*
X55446Y-51106D02*
X55446Y-50712D01*
X55053Y-50712D02*
X55053Y-51106D01*
X55053Y-51106D02*
X55446Y-50909D01*
X55446Y-50909D02*
X55053Y-50712D01*
X54856Y-50909D02*
X55643Y-50909D01*
X56037Y-50909D02*
X56037Y-52090D01*
X56234Y-51500D02*
G75*
G03X56234Y-51500I-984J0D01*
G74*
G01*
X57446Y-30106D02*
X57446Y-29712D01*
X57053Y-29712D02*
X57053Y-30106D01*
X57053Y-30106D02*
X57446Y-29909D01*
X57446Y-29909D02*
X57053Y-29712D01*
X56856Y-29909D02*
X57643Y-29909D01*
X58037Y-29909D02*
X58037Y-31090D01*
X58234Y-30500D02*
G75*
G03X58234Y-30500I-984J0D01*
G74*
G01*
X57446Y-32356D02*
X57446Y-31962D01*
X57053Y-31962D02*
X57053Y-32356D01*
X57053Y-32356D02*
X57446Y-32159D01*
X57446Y-32159D02*
X57053Y-31962D01*
X56856Y-32159D02*
X57643Y-32159D01*
X58037Y-32159D02*
X58037Y-33340D01*
X58234Y-32750D02*
G75*
G03X58234Y-32750I-984J0D01*
G74*
G01*
X57446Y-34606D02*
X57446Y-34212D01*
X57053Y-34212D02*
X57053Y-34606D01*
X57053Y-34606D02*
X57446Y-34409D01*
X57446Y-34409D02*
X57053Y-34212D01*
X56856Y-34409D02*
X57643Y-34409D01*
X58037Y-34409D02*
X58037Y-35590D01*
X58234Y-35000D02*
G75*
G03X58234Y-35000I-984J0D01*
G74*
G01*
X57446Y-36856D02*
X57446Y-36462D01*
X57053Y-36462D02*
X57053Y-36856D01*
X57053Y-36856D02*
X57446Y-36659D01*
X57446Y-36659D02*
X57053Y-36462D01*
X56856Y-36659D02*
X57643Y-36659D01*
X58037Y-36659D02*
X58037Y-37840D01*
X58234Y-37250D02*
G75*
G03X58234Y-37250I-984J0D01*
G74*
G01*
X57446Y-44356D02*
X57446Y-43962D01*
X57053Y-43962D02*
X57053Y-44356D01*
X57053Y-44356D02*
X57446Y-44159D01*
X57446Y-44159D02*
X57053Y-43962D01*
X56856Y-44159D02*
X57643Y-44159D01*
X58037Y-44159D02*
X58037Y-45340D01*
X58234Y-44750D02*
G75*
G03X58234Y-44750I-984J0D01*
G74*
G01*
X57446Y-46606D02*
X57446Y-46212D01*
X57053Y-46212D02*
X57053Y-46606D01*
X57053Y-46606D02*
X57446Y-46409D01*
X57446Y-46409D02*
X57053Y-46212D01*
X56856Y-46409D02*
X57643Y-46409D01*
X58037Y-46409D02*
X58037Y-47590D01*
X58234Y-47000D02*
G75*
G03X58234Y-47000I-984J0D01*
G74*
G01*
X57446Y-48856D02*
X57446Y-48462D01*
X57053Y-48462D02*
X57053Y-48856D01*
X57053Y-48856D02*
X57446Y-48659D01*
X57446Y-48659D02*
X57053Y-48462D01*
X56856Y-48659D02*
X57643Y-48659D01*
X58037Y-48659D02*
X58037Y-49840D01*
X58234Y-49250D02*
G75*
G03X58234Y-49250I-984J0D01*
G74*
G01*
X57446Y-51106D02*
X57446Y-50712D01*
X57053Y-50712D02*
X57053Y-51106D01*
X57053Y-51106D02*
X57446Y-50909D01*
X57446Y-50909D02*
X57053Y-50712D01*
X56856Y-50909D02*
X57643Y-50909D01*
X58037Y-50909D02*
X58037Y-52090D01*
X58234Y-51500D02*
G75*
G03X58234Y-51500I-984J0D01*
G74*
G01*
G54D10*
X45585Y-32135D02*
X45728Y-32135D01*
X45728Y-31835D01*
X45485Y-31978D02*
X45385Y-31978D01*
X45342Y-32135D02*
X45485Y-32135D01*
X45485Y-31835D01*
X45342Y-31835D01*
X45214Y-32135D02*
X45214Y-31835D01*
X45142Y-31835D01*
X45100Y-31850D01*
X45071Y-31878D01*
X45057Y-31907D01*
X45042Y-31964D01*
X45042Y-32007D01*
X45057Y-32064D01*
X45071Y-32092D01*
X45100Y-32121D01*
X45142Y-32135D01*
X45214Y-32135D01*
X44757Y-32135D02*
X44928Y-32135D01*
X44842Y-32135D02*
X44842Y-31835D01*
X44871Y-31878D01*
X44900Y-31907D01*
X44928Y-31921D01*
X45585Y-34385D02*
X45728Y-34385D01*
X45728Y-34085D01*
X45485Y-34228D02*
X45385Y-34228D01*
X45342Y-34385D02*
X45485Y-34385D01*
X45485Y-34085D01*
X45342Y-34085D01*
X45214Y-34385D02*
X45214Y-34085D01*
X45142Y-34085D01*
X45100Y-34100D01*
X45071Y-34128D01*
X45057Y-34157D01*
X45042Y-34214D01*
X45042Y-34257D01*
X45057Y-34314D01*
X45071Y-34342D01*
X45100Y-34371D01*
X45142Y-34385D01*
X45214Y-34385D01*
X44928Y-34114D02*
X44914Y-34100D01*
X44885Y-34085D01*
X44814Y-34085D01*
X44785Y-34100D01*
X44771Y-34114D01*
X44757Y-34142D01*
X44757Y-34171D01*
X44771Y-34214D01*
X44942Y-34385D01*
X44757Y-34385D01*
X45585Y-36635D02*
X45728Y-36635D01*
X45728Y-36335D01*
X45485Y-36478D02*
X45385Y-36478D01*
X45342Y-36635D02*
X45485Y-36635D01*
X45485Y-36335D01*
X45342Y-36335D01*
X45214Y-36635D02*
X45214Y-36335D01*
X45142Y-36335D01*
X45100Y-36350D01*
X45071Y-36378D01*
X45057Y-36407D01*
X45042Y-36464D01*
X45042Y-36507D01*
X45057Y-36564D01*
X45071Y-36592D01*
X45100Y-36621D01*
X45142Y-36635D01*
X45214Y-36635D01*
X44942Y-36335D02*
X44757Y-36335D01*
X44857Y-36450D01*
X44814Y-36450D01*
X44785Y-36464D01*
X44771Y-36478D01*
X44757Y-36507D01*
X44757Y-36578D01*
X44771Y-36607D01*
X44785Y-36621D01*
X44814Y-36635D01*
X44900Y-36635D01*
X44928Y-36621D01*
X44942Y-36607D01*
X45585Y-38885D02*
X45728Y-38885D01*
X45728Y-38585D01*
X45485Y-38728D02*
X45385Y-38728D01*
X45342Y-38885D02*
X45485Y-38885D01*
X45485Y-38585D01*
X45342Y-38585D01*
X45214Y-38885D02*
X45214Y-38585D01*
X45142Y-38585D01*
X45100Y-38600D01*
X45071Y-38628D01*
X45057Y-38657D01*
X45042Y-38714D01*
X45042Y-38757D01*
X45057Y-38814D01*
X45071Y-38842D01*
X45100Y-38871D01*
X45142Y-38885D01*
X45214Y-38885D01*
X44785Y-38685D02*
X44785Y-38885D01*
X44857Y-38571D02*
X44928Y-38785D01*
X44742Y-38785D01*
X45585Y-46385D02*
X45728Y-46385D01*
X45728Y-46085D01*
X45485Y-46228D02*
X45385Y-46228D01*
X45342Y-46385D02*
X45485Y-46385D01*
X45485Y-46085D01*
X45342Y-46085D01*
X45214Y-46385D02*
X45214Y-46085D01*
X45142Y-46085D01*
X45100Y-46100D01*
X45071Y-46128D01*
X45057Y-46157D01*
X45042Y-46214D01*
X45042Y-46257D01*
X45057Y-46314D01*
X45071Y-46342D01*
X45100Y-46371D01*
X45142Y-46385D01*
X45214Y-46385D01*
X44771Y-46085D02*
X44914Y-46085D01*
X44928Y-46228D01*
X44914Y-46214D01*
X44885Y-46200D01*
X44814Y-46200D01*
X44785Y-46214D01*
X44771Y-46228D01*
X44757Y-46257D01*
X44757Y-46328D01*
X44771Y-46357D01*
X44785Y-46371D01*
X44814Y-46385D01*
X44885Y-46385D01*
X44914Y-46371D01*
X44928Y-46357D01*
X45585Y-48635D02*
X45728Y-48635D01*
X45728Y-48335D01*
X45485Y-48478D02*
X45385Y-48478D01*
X45342Y-48635D02*
X45485Y-48635D01*
X45485Y-48335D01*
X45342Y-48335D01*
X45214Y-48635D02*
X45214Y-48335D01*
X45142Y-48335D01*
X45100Y-48350D01*
X45071Y-48378D01*
X45057Y-48407D01*
X45042Y-48464D01*
X45042Y-48507D01*
X45057Y-48564D01*
X45071Y-48592D01*
X45100Y-48621D01*
X45142Y-48635D01*
X45214Y-48635D01*
X44785Y-48335D02*
X44842Y-48335D01*
X44871Y-48350D01*
X44885Y-48364D01*
X44914Y-48407D01*
X44928Y-48464D01*
X44928Y-48578D01*
X44914Y-48607D01*
X44900Y-48621D01*
X44871Y-48635D01*
X44814Y-48635D01*
X44785Y-48621D01*
X44771Y-48607D01*
X44757Y-48578D01*
X44757Y-48507D01*
X44771Y-48478D01*
X44785Y-48464D01*
X44814Y-48450D01*
X44871Y-48450D01*
X44900Y-48464D01*
X44914Y-48478D01*
X44928Y-48507D01*
X45585Y-50885D02*
X45728Y-50885D01*
X45728Y-50585D01*
X45485Y-50728D02*
X45385Y-50728D01*
X45342Y-50885D02*
X45485Y-50885D01*
X45485Y-50585D01*
X45342Y-50585D01*
X45214Y-50885D02*
X45214Y-50585D01*
X45142Y-50585D01*
X45100Y-50600D01*
X45071Y-50628D01*
X45057Y-50657D01*
X45042Y-50714D01*
X45042Y-50757D01*
X45057Y-50814D01*
X45071Y-50842D01*
X45100Y-50871D01*
X45142Y-50885D01*
X45214Y-50885D01*
X44942Y-50585D02*
X44742Y-50585D01*
X44871Y-50885D01*
X45585Y-53135D02*
X45728Y-53135D01*
X45728Y-52835D01*
X45485Y-52978D02*
X45385Y-52978D01*
X45342Y-53135D02*
X45485Y-53135D01*
X45485Y-52835D01*
X45342Y-52835D01*
X45214Y-53135D02*
X45214Y-52835D01*
X45142Y-52835D01*
X45100Y-52850D01*
X45071Y-52878D01*
X45057Y-52907D01*
X45042Y-52964D01*
X45042Y-53007D01*
X45057Y-53064D01*
X45071Y-53092D01*
X45100Y-53121D01*
X45142Y-53135D01*
X45214Y-53135D01*
X44871Y-52964D02*
X44900Y-52950D01*
X44914Y-52935D01*
X44928Y-52907D01*
X44928Y-52892D01*
X44914Y-52864D01*
X44900Y-52850D01*
X44871Y-52835D01*
X44814Y-52835D01*
X44785Y-52850D01*
X44771Y-52864D01*
X44757Y-52892D01*
X44757Y-52907D01*
X44771Y-52935D01*
X44785Y-52950D01*
X44814Y-52964D01*
X44871Y-52964D01*
X44900Y-52978D01*
X44914Y-52992D01*
X44928Y-53021D01*
X44928Y-53078D01*
X44914Y-53107D01*
X44900Y-53121D01*
X44871Y-53135D01*
X44814Y-53135D01*
X44785Y-53121D01*
X44771Y-53107D01*
X44757Y-53078D01*
X44757Y-53021D01*
X44771Y-52992D01*
X44785Y-52978D01*
X44814Y-52964D01*
X47585Y-32135D02*
X47728Y-32135D01*
X47728Y-31835D01*
X47485Y-31978D02*
X47385Y-31978D01*
X47342Y-32135D02*
X47485Y-32135D01*
X47485Y-31835D01*
X47342Y-31835D01*
X47214Y-32135D02*
X47214Y-31835D01*
X47142Y-31835D01*
X47100Y-31850D01*
X47071Y-31878D01*
X47057Y-31907D01*
X47042Y-31964D01*
X47042Y-32007D01*
X47057Y-32064D01*
X47071Y-32092D01*
X47100Y-32121D01*
X47142Y-32135D01*
X47214Y-32135D01*
X46900Y-32135D02*
X46842Y-32135D01*
X46814Y-32121D01*
X46800Y-32107D01*
X46771Y-32064D01*
X46757Y-32007D01*
X46757Y-31892D01*
X46771Y-31864D01*
X46785Y-31850D01*
X46814Y-31835D01*
X46871Y-31835D01*
X46900Y-31850D01*
X46914Y-31864D01*
X46928Y-31892D01*
X46928Y-31964D01*
X46914Y-31992D01*
X46900Y-32007D01*
X46871Y-32021D01*
X46814Y-32021D01*
X46785Y-32007D01*
X46771Y-31992D01*
X46757Y-31964D01*
X47728Y-34385D02*
X47871Y-34385D01*
X47871Y-34085D01*
X47628Y-34228D02*
X47528Y-34228D01*
X47485Y-34385D02*
X47628Y-34385D01*
X47628Y-34085D01*
X47485Y-34085D01*
X47357Y-34385D02*
X47357Y-34085D01*
X47285Y-34085D01*
X47242Y-34100D01*
X47214Y-34128D01*
X47200Y-34157D01*
X47185Y-34214D01*
X47185Y-34257D01*
X47200Y-34314D01*
X47214Y-34342D01*
X47242Y-34371D01*
X47285Y-34385D01*
X47357Y-34385D01*
X46900Y-34385D02*
X47071Y-34385D01*
X46985Y-34385D02*
X46985Y-34085D01*
X47014Y-34128D01*
X47042Y-34157D01*
X47071Y-34171D01*
X46714Y-34085D02*
X46685Y-34085D01*
X46657Y-34100D01*
X46642Y-34114D01*
X46628Y-34142D01*
X46614Y-34200D01*
X46614Y-34271D01*
X46628Y-34328D01*
X46642Y-34357D01*
X46657Y-34371D01*
X46685Y-34385D01*
X46714Y-34385D01*
X46742Y-34371D01*
X46757Y-34357D01*
X46771Y-34328D01*
X46785Y-34271D01*
X46785Y-34200D01*
X46771Y-34142D01*
X46757Y-34114D01*
X46742Y-34100D01*
X46714Y-34085D01*
X47728Y-36635D02*
X47871Y-36635D01*
X47871Y-36335D01*
X47628Y-36478D02*
X47528Y-36478D01*
X47485Y-36635D02*
X47628Y-36635D01*
X47628Y-36335D01*
X47485Y-36335D01*
X47357Y-36635D02*
X47357Y-36335D01*
X47285Y-36335D01*
X47242Y-36350D01*
X47214Y-36378D01*
X47200Y-36407D01*
X47185Y-36464D01*
X47185Y-36507D01*
X47200Y-36564D01*
X47214Y-36592D01*
X47242Y-36621D01*
X47285Y-36635D01*
X47357Y-36635D01*
X46900Y-36635D02*
X47071Y-36635D01*
X46985Y-36635D02*
X46985Y-36335D01*
X47014Y-36378D01*
X47042Y-36407D01*
X47071Y-36421D01*
X46614Y-36635D02*
X46785Y-36635D01*
X46700Y-36635D02*
X46700Y-36335D01*
X46728Y-36378D01*
X46757Y-36407D01*
X46785Y-36421D01*
X47728Y-38885D02*
X47871Y-38885D01*
X47871Y-38585D01*
X47628Y-38728D02*
X47528Y-38728D01*
X47485Y-38885D02*
X47628Y-38885D01*
X47628Y-38585D01*
X47485Y-38585D01*
X47357Y-38885D02*
X47357Y-38585D01*
X47285Y-38585D01*
X47242Y-38600D01*
X47214Y-38628D01*
X47200Y-38657D01*
X47185Y-38714D01*
X47185Y-38757D01*
X47200Y-38814D01*
X47214Y-38842D01*
X47242Y-38871D01*
X47285Y-38885D01*
X47357Y-38885D01*
X46900Y-38885D02*
X47071Y-38885D01*
X46985Y-38885D02*
X46985Y-38585D01*
X47014Y-38628D01*
X47042Y-38657D01*
X47071Y-38671D01*
X46785Y-38614D02*
X46771Y-38600D01*
X46742Y-38585D01*
X46671Y-38585D01*
X46642Y-38600D01*
X46628Y-38614D01*
X46614Y-38642D01*
X46614Y-38671D01*
X46628Y-38714D01*
X46800Y-38885D01*
X46614Y-38885D01*
X47728Y-46385D02*
X47871Y-46385D01*
X47871Y-46085D01*
X47628Y-46228D02*
X47528Y-46228D01*
X47485Y-46385D02*
X47628Y-46385D01*
X47628Y-46085D01*
X47485Y-46085D01*
X47357Y-46385D02*
X47357Y-46085D01*
X47285Y-46085D01*
X47242Y-46100D01*
X47214Y-46128D01*
X47200Y-46157D01*
X47185Y-46214D01*
X47185Y-46257D01*
X47200Y-46314D01*
X47214Y-46342D01*
X47242Y-46371D01*
X47285Y-46385D01*
X47357Y-46385D01*
X46900Y-46385D02*
X47071Y-46385D01*
X46985Y-46385D02*
X46985Y-46085D01*
X47014Y-46128D01*
X47042Y-46157D01*
X47071Y-46171D01*
X46800Y-46085D02*
X46614Y-46085D01*
X46714Y-46200D01*
X46671Y-46200D01*
X46642Y-46214D01*
X46628Y-46228D01*
X46614Y-46257D01*
X46614Y-46328D01*
X46628Y-46357D01*
X46642Y-46371D01*
X46671Y-46385D01*
X46757Y-46385D01*
X46785Y-46371D01*
X46800Y-46357D01*
X47728Y-48635D02*
X47871Y-48635D01*
X47871Y-48335D01*
X47628Y-48478D02*
X47528Y-48478D01*
X47485Y-48635D02*
X47628Y-48635D01*
X47628Y-48335D01*
X47485Y-48335D01*
X47357Y-48635D02*
X47357Y-48335D01*
X47285Y-48335D01*
X47242Y-48350D01*
X47214Y-48378D01*
X47200Y-48407D01*
X47185Y-48464D01*
X47185Y-48507D01*
X47200Y-48564D01*
X47214Y-48592D01*
X47242Y-48621D01*
X47285Y-48635D01*
X47357Y-48635D01*
X46900Y-48635D02*
X47071Y-48635D01*
X46985Y-48635D02*
X46985Y-48335D01*
X47014Y-48378D01*
X47042Y-48407D01*
X47071Y-48421D01*
X46642Y-48435D02*
X46642Y-48635D01*
X46714Y-48321D02*
X46785Y-48535D01*
X46600Y-48535D01*
X47728Y-50885D02*
X47871Y-50885D01*
X47871Y-50585D01*
X47628Y-50728D02*
X47528Y-50728D01*
X47485Y-50885D02*
X47628Y-50885D01*
X47628Y-50585D01*
X47485Y-50585D01*
X47357Y-50885D02*
X47357Y-50585D01*
X47285Y-50585D01*
X47242Y-50600D01*
X47214Y-50628D01*
X47200Y-50657D01*
X47185Y-50714D01*
X47185Y-50757D01*
X47200Y-50814D01*
X47214Y-50842D01*
X47242Y-50871D01*
X47285Y-50885D01*
X47357Y-50885D01*
X46900Y-50885D02*
X47071Y-50885D01*
X46985Y-50885D02*
X46985Y-50585D01*
X47014Y-50628D01*
X47042Y-50657D01*
X47071Y-50671D01*
X46628Y-50585D02*
X46771Y-50585D01*
X46785Y-50728D01*
X46771Y-50714D01*
X46742Y-50700D01*
X46671Y-50700D01*
X46642Y-50714D01*
X46628Y-50728D01*
X46614Y-50757D01*
X46614Y-50828D01*
X46628Y-50857D01*
X46642Y-50871D01*
X46671Y-50885D01*
X46742Y-50885D01*
X46771Y-50871D01*
X46785Y-50857D01*
X47728Y-53135D02*
X47871Y-53135D01*
X47871Y-52835D01*
X47628Y-52978D02*
X47528Y-52978D01*
X47485Y-53135D02*
X47628Y-53135D01*
X47628Y-52835D01*
X47485Y-52835D01*
X47357Y-53135D02*
X47357Y-52835D01*
X47285Y-52835D01*
X47242Y-52850D01*
X47214Y-52878D01*
X47200Y-52907D01*
X47185Y-52964D01*
X47185Y-53007D01*
X47200Y-53064D01*
X47214Y-53092D01*
X47242Y-53121D01*
X47285Y-53135D01*
X47357Y-53135D01*
X46900Y-53135D02*
X47071Y-53135D01*
X46985Y-53135D02*
X46985Y-52835D01*
X47014Y-52878D01*
X47042Y-52907D01*
X47071Y-52921D01*
X46642Y-52835D02*
X46700Y-52835D01*
X46728Y-52850D01*
X46742Y-52864D01*
X46771Y-52907D01*
X46785Y-52964D01*
X46785Y-53078D01*
X46771Y-53107D01*
X46757Y-53121D01*
X46728Y-53135D01*
X46671Y-53135D01*
X46642Y-53121D01*
X46628Y-53107D01*
X46614Y-53078D01*
X46614Y-53007D01*
X46628Y-52978D01*
X46642Y-52964D01*
X46671Y-52950D01*
X46728Y-52950D01*
X46757Y-52964D01*
X46771Y-52978D01*
X46785Y-53007D01*
X49728Y-32135D02*
X49871Y-32135D01*
X49871Y-31835D01*
X49628Y-31978D02*
X49528Y-31978D01*
X49485Y-32135D02*
X49628Y-32135D01*
X49628Y-31835D01*
X49485Y-31835D01*
X49357Y-32135D02*
X49357Y-31835D01*
X49285Y-31835D01*
X49242Y-31850D01*
X49214Y-31878D01*
X49200Y-31907D01*
X49185Y-31964D01*
X49185Y-32007D01*
X49200Y-32064D01*
X49214Y-32092D01*
X49242Y-32121D01*
X49285Y-32135D01*
X49357Y-32135D01*
X48900Y-32135D02*
X49071Y-32135D01*
X48985Y-32135D02*
X48985Y-31835D01*
X49014Y-31878D01*
X49042Y-31907D01*
X49071Y-31921D01*
X48800Y-31835D02*
X48600Y-31835D01*
X48728Y-32135D01*
X49728Y-34385D02*
X49871Y-34385D01*
X49871Y-34085D01*
X49628Y-34228D02*
X49528Y-34228D01*
X49485Y-34385D02*
X49628Y-34385D01*
X49628Y-34085D01*
X49485Y-34085D01*
X49357Y-34385D02*
X49357Y-34085D01*
X49285Y-34085D01*
X49242Y-34100D01*
X49214Y-34128D01*
X49200Y-34157D01*
X49185Y-34214D01*
X49185Y-34257D01*
X49200Y-34314D01*
X49214Y-34342D01*
X49242Y-34371D01*
X49285Y-34385D01*
X49357Y-34385D01*
X48900Y-34385D02*
X49071Y-34385D01*
X48985Y-34385D02*
X48985Y-34085D01*
X49014Y-34128D01*
X49042Y-34157D01*
X49071Y-34171D01*
X48728Y-34214D02*
X48757Y-34200D01*
X48771Y-34185D01*
X48785Y-34157D01*
X48785Y-34142D01*
X48771Y-34114D01*
X48757Y-34100D01*
X48728Y-34085D01*
X48671Y-34085D01*
X48642Y-34100D01*
X48628Y-34114D01*
X48614Y-34142D01*
X48614Y-34157D01*
X48628Y-34185D01*
X48642Y-34200D01*
X48671Y-34214D01*
X48728Y-34214D01*
X48757Y-34228D01*
X48771Y-34242D01*
X48785Y-34271D01*
X48785Y-34328D01*
X48771Y-34357D01*
X48757Y-34371D01*
X48728Y-34385D01*
X48671Y-34385D01*
X48642Y-34371D01*
X48628Y-34357D01*
X48614Y-34328D01*
X48614Y-34271D01*
X48628Y-34242D01*
X48642Y-34228D01*
X48671Y-34214D01*
X49728Y-36635D02*
X49871Y-36635D01*
X49871Y-36335D01*
X49628Y-36478D02*
X49528Y-36478D01*
X49485Y-36635D02*
X49628Y-36635D01*
X49628Y-36335D01*
X49485Y-36335D01*
X49357Y-36635D02*
X49357Y-36335D01*
X49285Y-36335D01*
X49242Y-36350D01*
X49214Y-36378D01*
X49200Y-36407D01*
X49185Y-36464D01*
X49185Y-36507D01*
X49200Y-36564D01*
X49214Y-36592D01*
X49242Y-36621D01*
X49285Y-36635D01*
X49357Y-36635D01*
X48900Y-36635D02*
X49071Y-36635D01*
X48985Y-36635D02*
X48985Y-36335D01*
X49014Y-36378D01*
X49042Y-36407D01*
X49071Y-36421D01*
X48757Y-36635D02*
X48700Y-36635D01*
X48671Y-36621D01*
X48657Y-36607D01*
X48628Y-36564D01*
X48614Y-36507D01*
X48614Y-36392D01*
X48628Y-36364D01*
X48642Y-36350D01*
X48671Y-36335D01*
X48728Y-36335D01*
X48757Y-36350D01*
X48771Y-36364D01*
X48785Y-36392D01*
X48785Y-36464D01*
X48771Y-36492D01*
X48757Y-36507D01*
X48728Y-36521D01*
X48671Y-36521D01*
X48642Y-36507D01*
X48628Y-36492D01*
X48614Y-36464D01*
X49728Y-38885D02*
X49871Y-38885D01*
X49871Y-38585D01*
X49628Y-38728D02*
X49528Y-38728D01*
X49485Y-38885D02*
X49628Y-38885D01*
X49628Y-38585D01*
X49485Y-38585D01*
X49357Y-38885D02*
X49357Y-38585D01*
X49285Y-38585D01*
X49242Y-38600D01*
X49214Y-38628D01*
X49200Y-38657D01*
X49185Y-38714D01*
X49185Y-38757D01*
X49200Y-38814D01*
X49214Y-38842D01*
X49242Y-38871D01*
X49285Y-38885D01*
X49357Y-38885D01*
X49071Y-38614D02*
X49057Y-38600D01*
X49028Y-38585D01*
X48957Y-38585D01*
X48928Y-38600D01*
X48914Y-38614D01*
X48900Y-38642D01*
X48900Y-38671D01*
X48914Y-38714D01*
X49085Y-38885D01*
X48900Y-38885D01*
X48714Y-38585D02*
X48685Y-38585D01*
X48657Y-38600D01*
X48642Y-38614D01*
X48628Y-38642D01*
X48614Y-38700D01*
X48614Y-38771D01*
X48628Y-38828D01*
X48642Y-38857D01*
X48657Y-38871D01*
X48685Y-38885D01*
X48714Y-38885D01*
X48742Y-38871D01*
X48757Y-38857D01*
X48771Y-38828D01*
X48785Y-38771D01*
X48785Y-38700D01*
X48771Y-38642D01*
X48757Y-38614D01*
X48742Y-38600D01*
X48714Y-38585D01*
X49728Y-46385D02*
X49871Y-46385D01*
X49871Y-46085D01*
X49628Y-46228D02*
X49528Y-46228D01*
X49485Y-46385D02*
X49628Y-46385D01*
X49628Y-46085D01*
X49485Y-46085D01*
X49357Y-46385D02*
X49357Y-46085D01*
X49285Y-46085D01*
X49242Y-46100D01*
X49214Y-46128D01*
X49200Y-46157D01*
X49185Y-46214D01*
X49185Y-46257D01*
X49200Y-46314D01*
X49214Y-46342D01*
X49242Y-46371D01*
X49285Y-46385D01*
X49357Y-46385D01*
X49071Y-46114D02*
X49057Y-46100D01*
X49028Y-46085D01*
X48957Y-46085D01*
X48928Y-46100D01*
X48914Y-46114D01*
X48900Y-46142D01*
X48900Y-46171D01*
X48914Y-46214D01*
X49085Y-46385D01*
X48900Y-46385D01*
X48614Y-46385D02*
X48785Y-46385D01*
X48700Y-46385D02*
X48700Y-46085D01*
X48728Y-46128D01*
X48757Y-46157D01*
X48785Y-46171D01*
X49728Y-48635D02*
X49871Y-48635D01*
X49871Y-48335D01*
X49628Y-48478D02*
X49528Y-48478D01*
X49485Y-48635D02*
X49628Y-48635D01*
X49628Y-48335D01*
X49485Y-48335D01*
X49357Y-48635D02*
X49357Y-48335D01*
X49285Y-48335D01*
X49242Y-48350D01*
X49214Y-48378D01*
X49200Y-48407D01*
X49185Y-48464D01*
X49185Y-48507D01*
X49200Y-48564D01*
X49214Y-48592D01*
X49242Y-48621D01*
X49285Y-48635D01*
X49357Y-48635D01*
X49071Y-48364D02*
X49057Y-48350D01*
X49028Y-48335D01*
X48957Y-48335D01*
X48928Y-48350D01*
X48914Y-48364D01*
X48900Y-48392D01*
X48900Y-48421D01*
X48914Y-48464D01*
X49085Y-48635D01*
X48900Y-48635D01*
X48785Y-48364D02*
X48771Y-48350D01*
X48742Y-48335D01*
X48671Y-48335D01*
X48642Y-48350D01*
X48628Y-48364D01*
X48614Y-48392D01*
X48614Y-48421D01*
X48628Y-48464D01*
X48800Y-48635D01*
X48614Y-48635D01*
X49728Y-50885D02*
X49871Y-50885D01*
X49871Y-50585D01*
X49628Y-50728D02*
X49528Y-50728D01*
X49485Y-50885D02*
X49628Y-50885D01*
X49628Y-50585D01*
X49485Y-50585D01*
X49357Y-50885D02*
X49357Y-50585D01*
X49285Y-50585D01*
X49242Y-50600D01*
X49214Y-50628D01*
X49200Y-50657D01*
X49185Y-50714D01*
X49185Y-50757D01*
X49200Y-50814D01*
X49214Y-50842D01*
X49242Y-50871D01*
X49285Y-50885D01*
X49357Y-50885D01*
X49071Y-50614D02*
X49057Y-50600D01*
X49028Y-50585D01*
X48957Y-50585D01*
X48928Y-50600D01*
X48914Y-50614D01*
X48900Y-50642D01*
X48900Y-50671D01*
X48914Y-50714D01*
X49085Y-50885D01*
X48900Y-50885D01*
X48800Y-50585D02*
X48614Y-50585D01*
X48714Y-50700D01*
X48671Y-50700D01*
X48642Y-50714D01*
X48628Y-50728D01*
X48614Y-50757D01*
X48614Y-50828D01*
X48628Y-50857D01*
X48642Y-50871D01*
X48671Y-50885D01*
X48757Y-50885D01*
X48785Y-50871D01*
X48800Y-50857D01*
X49728Y-53135D02*
X49871Y-53135D01*
X49871Y-52835D01*
X49628Y-52978D02*
X49528Y-52978D01*
X49485Y-53135D02*
X49628Y-53135D01*
X49628Y-52835D01*
X49485Y-52835D01*
X49357Y-53135D02*
X49357Y-52835D01*
X49285Y-52835D01*
X49242Y-52850D01*
X49214Y-52878D01*
X49200Y-52907D01*
X49185Y-52964D01*
X49185Y-53007D01*
X49200Y-53064D01*
X49214Y-53092D01*
X49242Y-53121D01*
X49285Y-53135D01*
X49357Y-53135D01*
X49071Y-52864D02*
X49057Y-52850D01*
X49028Y-52835D01*
X48957Y-52835D01*
X48928Y-52850D01*
X48914Y-52864D01*
X48900Y-52892D01*
X48900Y-52921D01*
X48914Y-52964D01*
X49085Y-53135D01*
X48900Y-53135D01*
X48642Y-52935D02*
X48642Y-53135D01*
X48714Y-52821D02*
X48785Y-53035D01*
X48600Y-53035D01*
X51728Y-32135D02*
X51871Y-32135D01*
X51871Y-31835D01*
X51628Y-31978D02*
X51528Y-31978D01*
X51485Y-32135D02*
X51628Y-32135D01*
X51628Y-31835D01*
X51485Y-31835D01*
X51357Y-32135D02*
X51357Y-31835D01*
X51285Y-31835D01*
X51242Y-31850D01*
X51214Y-31878D01*
X51200Y-31907D01*
X51185Y-31964D01*
X51185Y-32007D01*
X51200Y-32064D01*
X51214Y-32092D01*
X51242Y-32121D01*
X51285Y-32135D01*
X51357Y-32135D01*
X51071Y-31864D02*
X51057Y-31850D01*
X51028Y-31835D01*
X50957Y-31835D01*
X50928Y-31850D01*
X50914Y-31864D01*
X50900Y-31892D01*
X50900Y-31921D01*
X50914Y-31964D01*
X51085Y-32135D01*
X50900Y-32135D01*
X50628Y-31835D02*
X50771Y-31835D01*
X50785Y-31978D01*
X50771Y-31964D01*
X50742Y-31950D01*
X50671Y-31950D01*
X50642Y-31964D01*
X50628Y-31978D01*
X50614Y-32007D01*
X50614Y-32078D01*
X50628Y-32107D01*
X50642Y-32121D01*
X50671Y-32135D01*
X50742Y-32135D01*
X50771Y-32121D01*
X50785Y-32107D01*
X51728Y-34385D02*
X51871Y-34385D01*
X51871Y-34085D01*
X51628Y-34228D02*
X51528Y-34228D01*
X51485Y-34385D02*
X51628Y-34385D01*
X51628Y-34085D01*
X51485Y-34085D01*
X51357Y-34385D02*
X51357Y-34085D01*
X51285Y-34085D01*
X51242Y-34100D01*
X51214Y-34128D01*
X51200Y-34157D01*
X51185Y-34214D01*
X51185Y-34257D01*
X51200Y-34314D01*
X51214Y-34342D01*
X51242Y-34371D01*
X51285Y-34385D01*
X51357Y-34385D01*
X51071Y-34114D02*
X51057Y-34100D01*
X51028Y-34085D01*
X50957Y-34085D01*
X50928Y-34100D01*
X50914Y-34114D01*
X50900Y-34142D01*
X50900Y-34171D01*
X50914Y-34214D01*
X51085Y-34385D01*
X50900Y-34385D01*
X50642Y-34085D02*
X50700Y-34085D01*
X50728Y-34100D01*
X50742Y-34114D01*
X50771Y-34157D01*
X50785Y-34214D01*
X50785Y-34328D01*
X50771Y-34357D01*
X50757Y-34371D01*
X50728Y-34385D01*
X50671Y-34385D01*
X50642Y-34371D01*
X50628Y-34357D01*
X50614Y-34328D01*
X50614Y-34257D01*
X50628Y-34228D01*
X50642Y-34214D01*
X50671Y-34200D01*
X50728Y-34200D01*
X50757Y-34214D01*
X50771Y-34228D01*
X50785Y-34257D01*
X51728Y-36635D02*
X51871Y-36635D01*
X51871Y-36335D01*
X51628Y-36478D02*
X51528Y-36478D01*
X51485Y-36635D02*
X51628Y-36635D01*
X51628Y-36335D01*
X51485Y-36335D01*
X51357Y-36635D02*
X51357Y-36335D01*
X51285Y-36335D01*
X51242Y-36350D01*
X51214Y-36378D01*
X51200Y-36407D01*
X51185Y-36464D01*
X51185Y-36507D01*
X51200Y-36564D01*
X51214Y-36592D01*
X51242Y-36621D01*
X51285Y-36635D01*
X51357Y-36635D01*
X51071Y-36364D02*
X51057Y-36350D01*
X51028Y-36335D01*
X50957Y-36335D01*
X50928Y-36350D01*
X50914Y-36364D01*
X50900Y-36392D01*
X50900Y-36421D01*
X50914Y-36464D01*
X51085Y-36635D01*
X50900Y-36635D01*
X50800Y-36335D02*
X50600Y-36335D01*
X50728Y-36635D01*
X51728Y-38885D02*
X51871Y-38885D01*
X51871Y-38585D01*
X51628Y-38728D02*
X51528Y-38728D01*
X51485Y-38885D02*
X51628Y-38885D01*
X51628Y-38585D01*
X51485Y-38585D01*
X51357Y-38885D02*
X51357Y-38585D01*
X51285Y-38585D01*
X51242Y-38600D01*
X51214Y-38628D01*
X51200Y-38657D01*
X51185Y-38714D01*
X51185Y-38757D01*
X51200Y-38814D01*
X51214Y-38842D01*
X51242Y-38871D01*
X51285Y-38885D01*
X51357Y-38885D01*
X51071Y-38614D02*
X51057Y-38600D01*
X51028Y-38585D01*
X50957Y-38585D01*
X50928Y-38600D01*
X50914Y-38614D01*
X50900Y-38642D01*
X50900Y-38671D01*
X50914Y-38714D01*
X51085Y-38885D01*
X50900Y-38885D01*
X50728Y-38714D02*
X50757Y-38700D01*
X50771Y-38685D01*
X50785Y-38657D01*
X50785Y-38642D01*
X50771Y-38614D01*
X50757Y-38600D01*
X50728Y-38585D01*
X50671Y-38585D01*
X50642Y-38600D01*
X50628Y-38614D01*
X50614Y-38642D01*
X50614Y-38657D01*
X50628Y-38685D01*
X50642Y-38700D01*
X50671Y-38714D01*
X50728Y-38714D01*
X50757Y-38728D01*
X50771Y-38742D01*
X50785Y-38771D01*
X50785Y-38828D01*
X50771Y-38857D01*
X50757Y-38871D01*
X50728Y-38885D01*
X50671Y-38885D01*
X50642Y-38871D01*
X50628Y-38857D01*
X50614Y-38828D01*
X50614Y-38771D01*
X50628Y-38742D01*
X50642Y-38728D01*
X50671Y-38714D01*
X51728Y-46385D02*
X51871Y-46385D01*
X51871Y-46085D01*
X51628Y-46228D02*
X51528Y-46228D01*
X51485Y-46385D02*
X51628Y-46385D01*
X51628Y-46085D01*
X51485Y-46085D01*
X51357Y-46385D02*
X51357Y-46085D01*
X51285Y-46085D01*
X51242Y-46100D01*
X51214Y-46128D01*
X51200Y-46157D01*
X51185Y-46214D01*
X51185Y-46257D01*
X51200Y-46314D01*
X51214Y-46342D01*
X51242Y-46371D01*
X51285Y-46385D01*
X51357Y-46385D01*
X51071Y-46114D02*
X51057Y-46100D01*
X51028Y-46085D01*
X50957Y-46085D01*
X50928Y-46100D01*
X50914Y-46114D01*
X50900Y-46142D01*
X50900Y-46171D01*
X50914Y-46214D01*
X51085Y-46385D01*
X50900Y-46385D01*
X50757Y-46385D02*
X50700Y-46385D01*
X50671Y-46371D01*
X50657Y-46357D01*
X50628Y-46314D01*
X50614Y-46257D01*
X50614Y-46142D01*
X50628Y-46114D01*
X50642Y-46100D01*
X50671Y-46085D01*
X50728Y-46085D01*
X50757Y-46100D01*
X50771Y-46114D01*
X50785Y-46142D01*
X50785Y-46214D01*
X50771Y-46242D01*
X50757Y-46257D01*
X50728Y-46271D01*
X50671Y-46271D01*
X50642Y-46257D01*
X50628Y-46242D01*
X50614Y-46214D01*
X51728Y-48635D02*
X51871Y-48635D01*
X51871Y-48335D01*
X51628Y-48478D02*
X51528Y-48478D01*
X51485Y-48635D02*
X51628Y-48635D01*
X51628Y-48335D01*
X51485Y-48335D01*
X51357Y-48635D02*
X51357Y-48335D01*
X51285Y-48335D01*
X51242Y-48350D01*
X51214Y-48378D01*
X51200Y-48407D01*
X51185Y-48464D01*
X51185Y-48507D01*
X51200Y-48564D01*
X51214Y-48592D01*
X51242Y-48621D01*
X51285Y-48635D01*
X51357Y-48635D01*
X51085Y-48335D02*
X50900Y-48335D01*
X51000Y-48450D01*
X50957Y-48450D01*
X50928Y-48464D01*
X50914Y-48478D01*
X50900Y-48507D01*
X50900Y-48578D01*
X50914Y-48607D01*
X50928Y-48621D01*
X50957Y-48635D01*
X51042Y-48635D01*
X51071Y-48621D01*
X51085Y-48607D01*
X50714Y-48335D02*
X50685Y-48335D01*
X50657Y-48350D01*
X50642Y-48364D01*
X50628Y-48392D01*
X50614Y-48450D01*
X50614Y-48521D01*
X50628Y-48578D01*
X50642Y-48607D01*
X50657Y-48621D01*
X50685Y-48635D01*
X50714Y-48635D01*
X50742Y-48621D01*
X50757Y-48607D01*
X50771Y-48578D01*
X50785Y-48521D01*
X50785Y-48450D01*
X50771Y-48392D01*
X50757Y-48364D01*
X50742Y-48350D01*
X50714Y-48335D01*
X51728Y-50885D02*
X51871Y-50885D01*
X51871Y-50585D01*
X51628Y-50728D02*
X51528Y-50728D01*
X51485Y-50885D02*
X51628Y-50885D01*
X51628Y-50585D01*
X51485Y-50585D01*
X51357Y-50885D02*
X51357Y-50585D01*
X51285Y-50585D01*
X51242Y-50600D01*
X51214Y-50628D01*
X51200Y-50657D01*
X51185Y-50714D01*
X51185Y-50757D01*
X51200Y-50814D01*
X51214Y-50842D01*
X51242Y-50871D01*
X51285Y-50885D01*
X51357Y-50885D01*
X51085Y-50585D02*
X50900Y-50585D01*
X51000Y-50700D01*
X50957Y-50700D01*
X50928Y-50714D01*
X50914Y-50728D01*
X50900Y-50757D01*
X50900Y-50828D01*
X50914Y-50857D01*
X50928Y-50871D01*
X50957Y-50885D01*
X51042Y-50885D01*
X51071Y-50871D01*
X51085Y-50857D01*
X50614Y-50885D02*
X50785Y-50885D01*
X50700Y-50885D02*
X50700Y-50585D01*
X50728Y-50628D01*
X50757Y-50657D01*
X50785Y-50671D01*
X51728Y-53135D02*
X51871Y-53135D01*
X51871Y-52835D01*
X51628Y-52978D02*
X51528Y-52978D01*
X51485Y-53135D02*
X51628Y-53135D01*
X51628Y-52835D01*
X51485Y-52835D01*
X51357Y-53135D02*
X51357Y-52835D01*
X51285Y-52835D01*
X51242Y-52850D01*
X51214Y-52878D01*
X51200Y-52907D01*
X51185Y-52964D01*
X51185Y-53007D01*
X51200Y-53064D01*
X51214Y-53092D01*
X51242Y-53121D01*
X51285Y-53135D01*
X51357Y-53135D01*
X51085Y-52835D02*
X50900Y-52835D01*
X51000Y-52950D01*
X50957Y-52950D01*
X50928Y-52964D01*
X50914Y-52978D01*
X50900Y-53007D01*
X50900Y-53078D01*
X50914Y-53107D01*
X50928Y-53121D01*
X50957Y-53135D01*
X51042Y-53135D01*
X51071Y-53121D01*
X51085Y-53107D01*
X50785Y-52864D02*
X50771Y-52850D01*
X50742Y-52835D01*
X50671Y-52835D01*
X50642Y-52850D01*
X50628Y-52864D01*
X50614Y-52892D01*
X50614Y-52921D01*
X50628Y-52964D01*
X50800Y-53135D01*
X50614Y-53135D01*
X53728Y-32135D02*
X53871Y-32135D01*
X53871Y-31835D01*
X53628Y-31978D02*
X53528Y-31978D01*
X53485Y-32135D02*
X53628Y-32135D01*
X53628Y-31835D01*
X53485Y-31835D01*
X53357Y-32135D02*
X53357Y-31835D01*
X53285Y-31835D01*
X53242Y-31850D01*
X53214Y-31878D01*
X53200Y-31907D01*
X53185Y-31964D01*
X53185Y-32007D01*
X53200Y-32064D01*
X53214Y-32092D01*
X53242Y-32121D01*
X53285Y-32135D01*
X53357Y-32135D01*
X53085Y-31835D02*
X52900Y-31835D01*
X53000Y-31950D01*
X52957Y-31950D01*
X52928Y-31964D01*
X52914Y-31978D01*
X52900Y-32007D01*
X52900Y-32078D01*
X52914Y-32107D01*
X52928Y-32121D01*
X52957Y-32135D01*
X53042Y-32135D01*
X53071Y-32121D01*
X53085Y-32107D01*
X52800Y-31835D02*
X52614Y-31835D01*
X52714Y-31950D01*
X52671Y-31950D01*
X52642Y-31964D01*
X52628Y-31978D01*
X52614Y-32007D01*
X52614Y-32078D01*
X52628Y-32107D01*
X52642Y-32121D01*
X52671Y-32135D01*
X52757Y-32135D01*
X52785Y-32121D01*
X52800Y-32107D01*
X53728Y-34385D02*
X53871Y-34385D01*
X53871Y-34085D01*
X53628Y-34228D02*
X53528Y-34228D01*
X53485Y-34385D02*
X53628Y-34385D01*
X53628Y-34085D01*
X53485Y-34085D01*
X53357Y-34385D02*
X53357Y-34085D01*
X53285Y-34085D01*
X53242Y-34100D01*
X53214Y-34128D01*
X53200Y-34157D01*
X53185Y-34214D01*
X53185Y-34257D01*
X53200Y-34314D01*
X53214Y-34342D01*
X53242Y-34371D01*
X53285Y-34385D01*
X53357Y-34385D01*
X53085Y-34085D02*
X52900Y-34085D01*
X53000Y-34200D01*
X52957Y-34200D01*
X52928Y-34214D01*
X52914Y-34228D01*
X52900Y-34257D01*
X52900Y-34328D01*
X52914Y-34357D01*
X52928Y-34371D01*
X52957Y-34385D01*
X53042Y-34385D01*
X53071Y-34371D01*
X53085Y-34357D01*
X52642Y-34185D02*
X52642Y-34385D01*
X52714Y-34071D02*
X52785Y-34285D01*
X52600Y-34285D01*
X53728Y-36635D02*
X53871Y-36635D01*
X53871Y-36335D01*
X53628Y-36478D02*
X53528Y-36478D01*
X53485Y-36635D02*
X53628Y-36635D01*
X53628Y-36335D01*
X53485Y-36335D01*
X53357Y-36635D02*
X53357Y-36335D01*
X53285Y-36335D01*
X53242Y-36350D01*
X53214Y-36378D01*
X53200Y-36407D01*
X53185Y-36464D01*
X53185Y-36507D01*
X53200Y-36564D01*
X53214Y-36592D01*
X53242Y-36621D01*
X53285Y-36635D01*
X53357Y-36635D01*
X53085Y-36335D02*
X52900Y-36335D01*
X53000Y-36450D01*
X52957Y-36450D01*
X52928Y-36464D01*
X52914Y-36478D01*
X52900Y-36507D01*
X52900Y-36578D01*
X52914Y-36607D01*
X52928Y-36621D01*
X52957Y-36635D01*
X53042Y-36635D01*
X53071Y-36621D01*
X53085Y-36607D01*
X52628Y-36335D02*
X52771Y-36335D01*
X52785Y-36478D01*
X52771Y-36464D01*
X52742Y-36450D01*
X52671Y-36450D01*
X52642Y-36464D01*
X52628Y-36478D01*
X52614Y-36507D01*
X52614Y-36578D01*
X52628Y-36607D01*
X52642Y-36621D01*
X52671Y-36635D01*
X52742Y-36635D01*
X52771Y-36621D01*
X52785Y-36607D01*
X53728Y-38885D02*
X53871Y-38885D01*
X53871Y-38585D01*
X53628Y-38728D02*
X53528Y-38728D01*
X53485Y-38885D02*
X53628Y-38885D01*
X53628Y-38585D01*
X53485Y-38585D01*
X53357Y-38885D02*
X53357Y-38585D01*
X53285Y-38585D01*
X53242Y-38600D01*
X53214Y-38628D01*
X53200Y-38657D01*
X53185Y-38714D01*
X53185Y-38757D01*
X53200Y-38814D01*
X53214Y-38842D01*
X53242Y-38871D01*
X53285Y-38885D01*
X53357Y-38885D01*
X53085Y-38585D02*
X52900Y-38585D01*
X53000Y-38700D01*
X52957Y-38700D01*
X52928Y-38714D01*
X52914Y-38728D01*
X52900Y-38757D01*
X52900Y-38828D01*
X52914Y-38857D01*
X52928Y-38871D01*
X52957Y-38885D01*
X53042Y-38885D01*
X53071Y-38871D01*
X53085Y-38857D01*
X52642Y-38585D02*
X52700Y-38585D01*
X52728Y-38600D01*
X52742Y-38614D01*
X52771Y-38657D01*
X52785Y-38714D01*
X52785Y-38828D01*
X52771Y-38857D01*
X52757Y-38871D01*
X52728Y-38885D01*
X52671Y-38885D01*
X52642Y-38871D01*
X52628Y-38857D01*
X52614Y-38828D01*
X52614Y-38757D01*
X52628Y-38728D01*
X52642Y-38714D01*
X52671Y-38700D01*
X52728Y-38700D01*
X52757Y-38714D01*
X52771Y-38728D01*
X52785Y-38757D01*
X53728Y-46385D02*
X53871Y-46385D01*
X53871Y-46085D01*
X53628Y-46228D02*
X53528Y-46228D01*
X53485Y-46385D02*
X53628Y-46385D01*
X53628Y-46085D01*
X53485Y-46085D01*
X53357Y-46385D02*
X53357Y-46085D01*
X53285Y-46085D01*
X53242Y-46100D01*
X53214Y-46128D01*
X53200Y-46157D01*
X53185Y-46214D01*
X53185Y-46257D01*
X53200Y-46314D01*
X53214Y-46342D01*
X53242Y-46371D01*
X53285Y-46385D01*
X53357Y-46385D01*
X53085Y-46085D02*
X52900Y-46085D01*
X53000Y-46200D01*
X52957Y-46200D01*
X52928Y-46214D01*
X52914Y-46228D01*
X52900Y-46257D01*
X52900Y-46328D01*
X52914Y-46357D01*
X52928Y-46371D01*
X52957Y-46385D01*
X53042Y-46385D01*
X53071Y-46371D01*
X53085Y-46357D01*
X52800Y-46085D02*
X52600Y-46085D01*
X52728Y-46385D01*
X53728Y-48635D02*
X53871Y-48635D01*
X53871Y-48335D01*
X53628Y-48478D02*
X53528Y-48478D01*
X53485Y-48635D02*
X53628Y-48635D01*
X53628Y-48335D01*
X53485Y-48335D01*
X53357Y-48635D02*
X53357Y-48335D01*
X53285Y-48335D01*
X53242Y-48350D01*
X53214Y-48378D01*
X53200Y-48407D01*
X53185Y-48464D01*
X53185Y-48507D01*
X53200Y-48564D01*
X53214Y-48592D01*
X53242Y-48621D01*
X53285Y-48635D01*
X53357Y-48635D01*
X53085Y-48335D02*
X52900Y-48335D01*
X53000Y-48450D01*
X52957Y-48450D01*
X52928Y-48464D01*
X52914Y-48478D01*
X52900Y-48507D01*
X52900Y-48578D01*
X52914Y-48607D01*
X52928Y-48621D01*
X52957Y-48635D01*
X53042Y-48635D01*
X53071Y-48621D01*
X53085Y-48607D01*
X52728Y-48464D02*
X52757Y-48450D01*
X52771Y-48435D01*
X52785Y-48407D01*
X52785Y-48392D01*
X52771Y-48364D01*
X52757Y-48350D01*
X52728Y-48335D01*
X52671Y-48335D01*
X52642Y-48350D01*
X52628Y-48364D01*
X52614Y-48392D01*
X52614Y-48407D01*
X52628Y-48435D01*
X52642Y-48450D01*
X52671Y-48464D01*
X52728Y-48464D01*
X52757Y-48478D01*
X52771Y-48492D01*
X52785Y-48521D01*
X52785Y-48578D01*
X52771Y-48607D01*
X52757Y-48621D01*
X52728Y-48635D01*
X52671Y-48635D01*
X52642Y-48621D01*
X52628Y-48607D01*
X52614Y-48578D01*
X52614Y-48521D01*
X52628Y-48492D01*
X52642Y-48478D01*
X52671Y-48464D01*
X53728Y-50885D02*
X53871Y-50885D01*
X53871Y-50585D01*
X53628Y-50728D02*
X53528Y-50728D01*
X53485Y-50885D02*
X53628Y-50885D01*
X53628Y-50585D01*
X53485Y-50585D01*
X53357Y-50885D02*
X53357Y-50585D01*
X53285Y-50585D01*
X53242Y-50600D01*
X53214Y-50628D01*
X53200Y-50657D01*
X53185Y-50714D01*
X53185Y-50757D01*
X53200Y-50814D01*
X53214Y-50842D01*
X53242Y-50871D01*
X53285Y-50885D01*
X53357Y-50885D01*
X53085Y-50585D02*
X52900Y-50585D01*
X53000Y-50700D01*
X52957Y-50700D01*
X52928Y-50714D01*
X52914Y-50728D01*
X52900Y-50757D01*
X52900Y-50828D01*
X52914Y-50857D01*
X52928Y-50871D01*
X52957Y-50885D01*
X53042Y-50885D01*
X53071Y-50871D01*
X53085Y-50857D01*
X52757Y-50885D02*
X52700Y-50885D01*
X52671Y-50871D01*
X52657Y-50857D01*
X52628Y-50814D01*
X52614Y-50757D01*
X52614Y-50642D01*
X52628Y-50614D01*
X52642Y-50600D01*
X52671Y-50585D01*
X52728Y-50585D01*
X52757Y-50600D01*
X52771Y-50614D01*
X52785Y-50642D01*
X52785Y-50714D01*
X52771Y-50742D01*
X52757Y-50757D01*
X52728Y-50771D01*
X52671Y-50771D01*
X52642Y-50757D01*
X52628Y-50742D01*
X52614Y-50714D01*
X53728Y-53135D02*
X53871Y-53135D01*
X53871Y-52835D01*
X53628Y-52978D02*
X53528Y-52978D01*
X53485Y-53135D02*
X53628Y-53135D01*
X53628Y-52835D01*
X53485Y-52835D01*
X53357Y-53135D02*
X53357Y-52835D01*
X53285Y-52835D01*
X53242Y-52850D01*
X53214Y-52878D01*
X53200Y-52907D01*
X53185Y-52964D01*
X53185Y-53007D01*
X53200Y-53064D01*
X53214Y-53092D01*
X53242Y-53121D01*
X53285Y-53135D01*
X53357Y-53135D01*
X52928Y-52935D02*
X52928Y-53135D01*
X53000Y-52821D02*
X53071Y-53035D01*
X52885Y-53035D01*
X52714Y-52835D02*
X52685Y-52835D01*
X52657Y-52850D01*
X52642Y-52864D01*
X52628Y-52892D01*
X52614Y-52950D01*
X52614Y-53021D01*
X52628Y-53078D01*
X52642Y-53107D01*
X52657Y-53121D01*
X52685Y-53135D01*
X52714Y-53135D01*
X52742Y-53121D01*
X52757Y-53107D01*
X52771Y-53078D01*
X52785Y-53021D01*
X52785Y-52950D01*
X52771Y-52892D01*
X52757Y-52864D01*
X52742Y-52850D01*
X52714Y-52835D01*
X55728Y-32135D02*
X55871Y-32135D01*
X55871Y-31835D01*
X55628Y-31978D02*
X55528Y-31978D01*
X55485Y-32135D02*
X55628Y-32135D01*
X55628Y-31835D01*
X55485Y-31835D01*
X55357Y-32135D02*
X55357Y-31835D01*
X55285Y-31835D01*
X55242Y-31850D01*
X55214Y-31878D01*
X55200Y-31907D01*
X55185Y-31964D01*
X55185Y-32007D01*
X55200Y-32064D01*
X55214Y-32092D01*
X55242Y-32121D01*
X55285Y-32135D01*
X55357Y-32135D01*
X54928Y-31935D02*
X54928Y-32135D01*
X55000Y-31821D02*
X55071Y-32035D01*
X54885Y-32035D01*
X54614Y-32135D02*
X54785Y-32135D01*
X54700Y-32135D02*
X54700Y-31835D01*
X54728Y-31878D01*
X54757Y-31907D01*
X54785Y-31921D01*
X55728Y-34385D02*
X55871Y-34385D01*
X55871Y-34085D01*
X55628Y-34228D02*
X55528Y-34228D01*
X55485Y-34385D02*
X55628Y-34385D01*
X55628Y-34085D01*
X55485Y-34085D01*
X55357Y-34385D02*
X55357Y-34085D01*
X55285Y-34085D01*
X55242Y-34100D01*
X55214Y-34128D01*
X55200Y-34157D01*
X55185Y-34214D01*
X55185Y-34257D01*
X55200Y-34314D01*
X55214Y-34342D01*
X55242Y-34371D01*
X55285Y-34385D01*
X55357Y-34385D01*
X54928Y-34185D02*
X54928Y-34385D01*
X55000Y-34071D02*
X55071Y-34285D01*
X54885Y-34285D01*
X54785Y-34114D02*
X54771Y-34100D01*
X54742Y-34085D01*
X54671Y-34085D01*
X54642Y-34100D01*
X54628Y-34114D01*
X54614Y-34142D01*
X54614Y-34171D01*
X54628Y-34214D01*
X54800Y-34385D01*
X54614Y-34385D01*
X55728Y-36635D02*
X55871Y-36635D01*
X55871Y-36335D01*
X55628Y-36478D02*
X55528Y-36478D01*
X55485Y-36635D02*
X55628Y-36635D01*
X55628Y-36335D01*
X55485Y-36335D01*
X55357Y-36635D02*
X55357Y-36335D01*
X55285Y-36335D01*
X55242Y-36350D01*
X55214Y-36378D01*
X55200Y-36407D01*
X55185Y-36464D01*
X55185Y-36507D01*
X55200Y-36564D01*
X55214Y-36592D01*
X55242Y-36621D01*
X55285Y-36635D01*
X55357Y-36635D01*
X54928Y-36435D02*
X54928Y-36635D01*
X55000Y-36321D02*
X55071Y-36535D01*
X54885Y-36535D01*
X54800Y-36335D02*
X54614Y-36335D01*
X54714Y-36450D01*
X54671Y-36450D01*
X54642Y-36464D01*
X54628Y-36478D01*
X54614Y-36507D01*
X54614Y-36578D01*
X54628Y-36607D01*
X54642Y-36621D01*
X54671Y-36635D01*
X54757Y-36635D01*
X54785Y-36621D01*
X54800Y-36607D01*
X55728Y-38885D02*
X55871Y-38885D01*
X55871Y-38585D01*
X55628Y-38728D02*
X55528Y-38728D01*
X55485Y-38885D02*
X55628Y-38885D01*
X55628Y-38585D01*
X55485Y-38585D01*
X55357Y-38885D02*
X55357Y-38585D01*
X55285Y-38585D01*
X55242Y-38600D01*
X55214Y-38628D01*
X55200Y-38657D01*
X55185Y-38714D01*
X55185Y-38757D01*
X55200Y-38814D01*
X55214Y-38842D01*
X55242Y-38871D01*
X55285Y-38885D01*
X55357Y-38885D01*
X54928Y-38685D02*
X54928Y-38885D01*
X55000Y-38571D02*
X55071Y-38785D01*
X54885Y-38785D01*
X54642Y-38685D02*
X54642Y-38885D01*
X54714Y-38571D02*
X54785Y-38785D01*
X54600Y-38785D01*
X55728Y-46385D02*
X55871Y-46385D01*
X55871Y-46085D01*
X55628Y-46228D02*
X55528Y-46228D01*
X55485Y-46385D02*
X55628Y-46385D01*
X55628Y-46085D01*
X55485Y-46085D01*
X55357Y-46385D02*
X55357Y-46085D01*
X55285Y-46085D01*
X55242Y-46100D01*
X55214Y-46128D01*
X55200Y-46157D01*
X55185Y-46214D01*
X55185Y-46257D01*
X55200Y-46314D01*
X55214Y-46342D01*
X55242Y-46371D01*
X55285Y-46385D01*
X55357Y-46385D01*
X54928Y-46185D02*
X54928Y-46385D01*
X55000Y-46071D02*
X55071Y-46285D01*
X54885Y-46285D01*
X54628Y-46085D02*
X54771Y-46085D01*
X54785Y-46228D01*
X54771Y-46214D01*
X54742Y-46200D01*
X54671Y-46200D01*
X54642Y-46214D01*
X54628Y-46228D01*
X54614Y-46257D01*
X54614Y-46328D01*
X54628Y-46357D01*
X54642Y-46371D01*
X54671Y-46385D01*
X54742Y-46385D01*
X54771Y-46371D01*
X54785Y-46357D01*
X55728Y-48635D02*
X55871Y-48635D01*
X55871Y-48335D01*
X55628Y-48478D02*
X55528Y-48478D01*
X55485Y-48635D02*
X55628Y-48635D01*
X55628Y-48335D01*
X55485Y-48335D01*
X55357Y-48635D02*
X55357Y-48335D01*
X55285Y-48335D01*
X55242Y-48350D01*
X55214Y-48378D01*
X55200Y-48407D01*
X55185Y-48464D01*
X55185Y-48507D01*
X55200Y-48564D01*
X55214Y-48592D01*
X55242Y-48621D01*
X55285Y-48635D01*
X55357Y-48635D01*
X54928Y-48435D02*
X54928Y-48635D01*
X55000Y-48321D02*
X55071Y-48535D01*
X54885Y-48535D01*
X54642Y-48335D02*
X54700Y-48335D01*
X54728Y-48350D01*
X54742Y-48364D01*
X54771Y-48407D01*
X54785Y-48464D01*
X54785Y-48578D01*
X54771Y-48607D01*
X54757Y-48621D01*
X54728Y-48635D01*
X54671Y-48635D01*
X54642Y-48621D01*
X54628Y-48607D01*
X54614Y-48578D01*
X54614Y-48507D01*
X54628Y-48478D01*
X54642Y-48464D01*
X54671Y-48450D01*
X54728Y-48450D01*
X54757Y-48464D01*
X54771Y-48478D01*
X54785Y-48507D01*
X55728Y-50885D02*
X55871Y-50885D01*
X55871Y-50585D01*
X55628Y-50728D02*
X55528Y-50728D01*
X55485Y-50885D02*
X55628Y-50885D01*
X55628Y-50585D01*
X55485Y-50585D01*
X55357Y-50885D02*
X55357Y-50585D01*
X55285Y-50585D01*
X55242Y-50600D01*
X55214Y-50628D01*
X55200Y-50657D01*
X55185Y-50714D01*
X55185Y-50757D01*
X55200Y-50814D01*
X55214Y-50842D01*
X55242Y-50871D01*
X55285Y-50885D01*
X55357Y-50885D01*
X54928Y-50685D02*
X54928Y-50885D01*
X55000Y-50571D02*
X55071Y-50785D01*
X54885Y-50785D01*
X54800Y-50585D02*
X54600Y-50585D01*
X54728Y-50885D01*
X55728Y-53135D02*
X55871Y-53135D01*
X55871Y-52835D01*
X55628Y-52978D02*
X55528Y-52978D01*
X55485Y-53135D02*
X55628Y-53135D01*
X55628Y-52835D01*
X55485Y-52835D01*
X55357Y-53135D02*
X55357Y-52835D01*
X55285Y-52835D01*
X55242Y-52850D01*
X55214Y-52878D01*
X55200Y-52907D01*
X55185Y-52964D01*
X55185Y-53007D01*
X55200Y-53064D01*
X55214Y-53092D01*
X55242Y-53121D01*
X55285Y-53135D01*
X55357Y-53135D01*
X54928Y-52935D02*
X54928Y-53135D01*
X55000Y-52821D02*
X55071Y-53035D01*
X54885Y-53035D01*
X54728Y-52964D02*
X54757Y-52950D01*
X54771Y-52935D01*
X54785Y-52907D01*
X54785Y-52892D01*
X54771Y-52864D01*
X54757Y-52850D01*
X54728Y-52835D01*
X54671Y-52835D01*
X54642Y-52850D01*
X54628Y-52864D01*
X54614Y-52892D01*
X54614Y-52907D01*
X54628Y-52935D01*
X54642Y-52950D01*
X54671Y-52964D01*
X54728Y-52964D01*
X54757Y-52978D01*
X54771Y-52992D01*
X54785Y-53021D01*
X54785Y-53078D01*
X54771Y-53107D01*
X54757Y-53121D01*
X54728Y-53135D01*
X54671Y-53135D01*
X54642Y-53121D01*
X54628Y-53107D01*
X54614Y-53078D01*
X54614Y-53021D01*
X54628Y-52992D01*
X54642Y-52978D01*
X54671Y-52964D01*
X57728Y-32135D02*
X57871Y-32135D01*
X57871Y-31835D01*
X57628Y-31978D02*
X57528Y-31978D01*
X57485Y-32135D02*
X57628Y-32135D01*
X57628Y-31835D01*
X57485Y-31835D01*
X57357Y-32135D02*
X57357Y-31835D01*
X57285Y-31835D01*
X57242Y-31850D01*
X57214Y-31878D01*
X57200Y-31907D01*
X57185Y-31964D01*
X57185Y-32007D01*
X57200Y-32064D01*
X57214Y-32092D01*
X57242Y-32121D01*
X57285Y-32135D01*
X57357Y-32135D01*
X56928Y-31935D02*
X56928Y-32135D01*
X57000Y-31821D02*
X57071Y-32035D01*
X56885Y-32035D01*
X56757Y-32135D02*
X56700Y-32135D01*
X56671Y-32121D01*
X56657Y-32107D01*
X56628Y-32064D01*
X56614Y-32007D01*
X56614Y-31892D01*
X56628Y-31864D01*
X56642Y-31850D01*
X56671Y-31835D01*
X56728Y-31835D01*
X56757Y-31850D01*
X56771Y-31864D01*
X56785Y-31892D01*
X56785Y-31964D01*
X56771Y-31992D01*
X56757Y-32007D01*
X56728Y-32021D01*
X56671Y-32021D01*
X56642Y-32007D01*
X56628Y-31992D01*
X56614Y-31964D01*
X57728Y-34385D02*
X57871Y-34385D01*
X57871Y-34085D01*
X57628Y-34228D02*
X57528Y-34228D01*
X57485Y-34385D02*
X57628Y-34385D01*
X57628Y-34085D01*
X57485Y-34085D01*
X57357Y-34385D02*
X57357Y-34085D01*
X57285Y-34085D01*
X57242Y-34100D01*
X57214Y-34128D01*
X57200Y-34157D01*
X57185Y-34214D01*
X57185Y-34257D01*
X57200Y-34314D01*
X57214Y-34342D01*
X57242Y-34371D01*
X57285Y-34385D01*
X57357Y-34385D01*
X56914Y-34085D02*
X57057Y-34085D01*
X57071Y-34228D01*
X57057Y-34214D01*
X57028Y-34200D01*
X56957Y-34200D01*
X56928Y-34214D01*
X56914Y-34228D01*
X56900Y-34257D01*
X56900Y-34328D01*
X56914Y-34357D01*
X56928Y-34371D01*
X56957Y-34385D01*
X57028Y-34385D01*
X57057Y-34371D01*
X57071Y-34357D01*
X56714Y-34085D02*
X56685Y-34085D01*
X56657Y-34100D01*
X56642Y-34114D01*
X56628Y-34142D01*
X56614Y-34200D01*
X56614Y-34271D01*
X56628Y-34328D01*
X56642Y-34357D01*
X56657Y-34371D01*
X56685Y-34385D01*
X56714Y-34385D01*
X56742Y-34371D01*
X56757Y-34357D01*
X56771Y-34328D01*
X56785Y-34271D01*
X56785Y-34200D01*
X56771Y-34142D01*
X56757Y-34114D01*
X56742Y-34100D01*
X56714Y-34085D01*
X57728Y-36635D02*
X57871Y-36635D01*
X57871Y-36335D01*
X57628Y-36478D02*
X57528Y-36478D01*
X57485Y-36635D02*
X57628Y-36635D01*
X57628Y-36335D01*
X57485Y-36335D01*
X57357Y-36635D02*
X57357Y-36335D01*
X57285Y-36335D01*
X57242Y-36350D01*
X57214Y-36378D01*
X57200Y-36407D01*
X57185Y-36464D01*
X57185Y-36507D01*
X57200Y-36564D01*
X57214Y-36592D01*
X57242Y-36621D01*
X57285Y-36635D01*
X57357Y-36635D01*
X56914Y-36335D02*
X57057Y-36335D01*
X57071Y-36478D01*
X57057Y-36464D01*
X57028Y-36450D01*
X56957Y-36450D01*
X56928Y-36464D01*
X56914Y-36478D01*
X56900Y-36507D01*
X56900Y-36578D01*
X56914Y-36607D01*
X56928Y-36621D01*
X56957Y-36635D01*
X57028Y-36635D01*
X57057Y-36621D01*
X57071Y-36607D01*
X56614Y-36635D02*
X56785Y-36635D01*
X56700Y-36635D02*
X56700Y-36335D01*
X56728Y-36378D01*
X56757Y-36407D01*
X56785Y-36421D01*
X57728Y-38885D02*
X57871Y-38885D01*
X57871Y-38585D01*
X57628Y-38728D02*
X57528Y-38728D01*
X57485Y-38885D02*
X57628Y-38885D01*
X57628Y-38585D01*
X57485Y-38585D01*
X57357Y-38885D02*
X57357Y-38585D01*
X57285Y-38585D01*
X57242Y-38600D01*
X57214Y-38628D01*
X57200Y-38657D01*
X57185Y-38714D01*
X57185Y-38757D01*
X57200Y-38814D01*
X57214Y-38842D01*
X57242Y-38871D01*
X57285Y-38885D01*
X57357Y-38885D01*
X56914Y-38585D02*
X57057Y-38585D01*
X57071Y-38728D01*
X57057Y-38714D01*
X57028Y-38700D01*
X56957Y-38700D01*
X56928Y-38714D01*
X56914Y-38728D01*
X56900Y-38757D01*
X56900Y-38828D01*
X56914Y-38857D01*
X56928Y-38871D01*
X56957Y-38885D01*
X57028Y-38885D01*
X57057Y-38871D01*
X57071Y-38857D01*
X56785Y-38614D02*
X56771Y-38600D01*
X56742Y-38585D01*
X56671Y-38585D01*
X56642Y-38600D01*
X56628Y-38614D01*
X56614Y-38642D01*
X56614Y-38671D01*
X56628Y-38714D01*
X56800Y-38885D01*
X56614Y-38885D01*
X57728Y-46385D02*
X57871Y-46385D01*
X57871Y-46085D01*
X57628Y-46228D02*
X57528Y-46228D01*
X57485Y-46385D02*
X57628Y-46385D01*
X57628Y-46085D01*
X57485Y-46085D01*
X57357Y-46385D02*
X57357Y-46085D01*
X57285Y-46085D01*
X57242Y-46100D01*
X57214Y-46128D01*
X57200Y-46157D01*
X57185Y-46214D01*
X57185Y-46257D01*
X57200Y-46314D01*
X57214Y-46342D01*
X57242Y-46371D01*
X57285Y-46385D01*
X57357Y-46385D01*
X56914Y-46085D02*
X57057Y-46085D01*
X57071Y-46228D01*
X57057Y-46214D01*
X57028Y-46200D01*
X56957Y-46200D01*
X56928Y-46214D01*
X56914Y-46228D01*
X56900Y-46257D01*
X56900Y-46328D01*
X56914Y-46357D01*
X56928Y-46371D01*
X56957Y-46385D01*
X57028Y-46385D01*
X57057Y-46371D01*
X57071Y-46357D01*
X56800Y-46085D02*
X56614Y-46085D01*
X56714Y-46200D01*
X56671Y-46200D01*
X56642Y-46214D01*
X56628Y-46228D01*
X56614Y-46257D01*
X56614Y-46328D01*
X56628Y-46357D01*
X56642Y-46371D01*
X56671Y-46385D01*
X56757Y-46385D01*
X56785Y-46371D01*
X56800Y-46357D01*
X57728Y-48635D02*
X57871Y-48635D01*
X57871Y-48335D01*
X57628Y-48478D02*
X57528Y-48478D01*
X57485Y-48635D02*
X57628Y-48635D01*
X57628Y-48335D01*
X57485Y-48335D01*
X57357Y-48635D02*
X57357Y-48335D01*
X57285Y-48335D01*
X57242Y-48350D01*
X57214Y-48378D01*
X57200Y-48407D01*
X57185Y-48464D01*
X57185Y-48507D01*
X57200Y-48564D01*
X57214Y-48592D01*
X57242Y-48621D01*
X57285Y-48635D01*
X57357Y-48635D01*
X56914Y-48335D02*
X57057Y-48335D01*
X57071Y-48478D01*
X57057Y-48464D01*
X57028Y-48450D01*
X56957Y-48450D01*
X56928Y-48464D01*
X56914Y-48478D01*
X56900Y-48507D01*
X56900Y-48578D01*
X56914Y-48607D01*
X56928Y-48621D01*
X56957Y-48635D01*
X57028Y-48635D01*
X57057Y-48621D01*
X57071Y-48607D01*
X56642Y-48435D02*
X56642Y-48635D01*
X56714Y-48321D02*
X56785Y-48535D01*
X56600Y-48535D01*
X57728Y-50885D02*
X57871Y-50885D01*
X57871Y-50585D01*
X57628Y-50728D02*
X57528Y-50728D01*
X57485Y-50885D02*
X57628Y-50885D01*
X57628Y-50585D01*
X57485Y-50585D01*
X57357Y-50885D02*
X57357Y-50585D01*
X57285Y-50585D01*
X57242Y-50600D01*
X57214Y-50628D01*
X57200Y-50657D01*
X57185Y-50714D01*
X57185Y-50757D01*
X57200Y-50814D01*
X57214Y-50842D01*
X57242Y-50871D01*
X57285Y-50885D01*
X57357Y-50885D01*
X56914Y-50585D02*
X57057Y-50585D01*
X57071Y-50728D01*
X57057Y-50714D01*
X57028Y-50700D01*
X56957Y-50700D01*
X56928Y-50714D01*
X56914Y-50728D01*
X56900Y-50757D01*
X56900Y-50828D01*
X56914Y-50857D01*
X56928Y-50871D01*
X56957Y-50885D01*
X57028Y-50885D01*
X57057Y-50871D01*
X57071Y-50857D01*
X56628Y-50585D02*
X56771Y-50585D01*
X56785Y-50728D01*
X56771Y-50714D01*
X56742Y-50700D01*
X56671Y-50700D01*
X56642Y-50714D01*
X56628Y-50728D01*
X56614Y-50757D01*
X56614Y-50828D01*
X56628Y-50857D01*
X56642Y-50871D01*
X56671Y-50885D01*
X56742Y-50885D01*
X56771Y-50871D01*
X56785Y-50857D01*
X57728Y-53135D02*
X57871Y-53135D01*
X57871Y-52835D01*
X57628Y-52978D02*
X57528Y-52978D01*
X57485Y-53135D02*
X57628Y-53135D01*
X57628Y-52835D01*
X57485Y-52835D01*
X57357Y-53135D02*
X57357Y-52835D01*
X57285Y-52835D01*
X57242Y-52850D01*
X57214Y-52878D01*
X57200Y-52907D01*
X57185Y-52964D01*
X57185Y-53007D01*
X57200Y-53064D01*
X57214Y-53092D01*
X57242Y-53121D01*
X57285Y-53135D01*
X57357Y-53135D01*
X56914Y-52835D02*
X57057Y-52835D01*
X57071Y-52978D01*
X57057Y-52964D01*
X57028Y-52950D01*
X56957Y-52950D01*
X56928Y-52964D01*
X56914Y-52978D01*
X56900Y-53007D01*
X56900Y-53078D01*
X56914Y-53107D01*
X56928Y-53121D01*
X56957Y-53135D01*
X57028Y-53135D01*
X57057Y-53121D01*
X57071Y-53107D01*
X56642Y-52835D02*
X56700Y-52835D01*
X56728Y-52850D01*
X56742Y-52864D01*
X56771Y-52907D01*
X56785Y-52964D01*
X56785Y-53078D01*
X56771Y-53107D01*
X56757Y-53121D01*
X56728Y-53135D01*
X56671Y-53135D01*
X56642Y-53121D01*
X56628Y-53107D01*
X56614Y-53078D01*
X56614Y-53007D01*
X56628Y-52978D01*
X56642Y-52964D01*
X56671Y-52950D01*
X56728Y-52950D01*
X56757Y-52964D01*
X56771Y-52978D01*
X56785Y-53007D01*
%LPC*%
G54D13*
X59750Y-51250D03*
X59750Y-30750D03*
G54D14*
X60250Y-42000D03*
G54D15*
X60250Y-40000D03*
G54D16*
X44750Y-30500D03*
X45750Y-30500D03*
X44750Y-32750D03*
X45750Y-32750D03*
X44750Y-35000D03*
X45750Y-35000D03*
X44750Y-37250D03*
X45750Y-37250D03*
X44750Y-44750D03*
X45750Y-44750D03*
X44750Y-47000D03*
X45750Y-47000D03*
X44750Y-49250D03*
X45750Y-49250D03*
X44750Y-51500D03*
X45750Y-51500D03*
X46750Y-30500D03*
X47750Y-30500D03*
X46750Y-32750D03*
X47750Y-32750D03*
X46750Y-35000D03*
X47750Y-35000D03*
X46750Y-37250D03*
X47750Y-37250D03*
X46750Y-44750D03*
X47750Y-44750D03*
X46750Y-47000D03*
X47750Y-47000D03*
X46750Y-49250D03*
X47750Y-49250D03*
X46750Y-51500D03*
X47750Y-51500D03*
X48750Y-30500D03*
X49750Y-30500D03*
X48750Y-32750D03*
X49750Y-32750D03*
X48750Y-35000D03*
X49750Y-35000D03*
X48750Y-37250D03*
X49750Y-37250D03*
X48750Y-44750D03*
X49750Y-44750D03*
X48750Y-47000D03*
X49750Y-47000D03*
X48750Y-49250D03*
X49750Y-49250D03*
X48750Y-51500D03*
X49750Y-51500D03*
X50750Y-30500D03*
X51750Y-30500D03*
X50750Y-32750D03*
X51750Y-32750D03*
X50750Y-35000D03*
X51750Y-35000D03*
X50750Y-37250D03*
X51750Y-37250D03*
X50750Y-44750D03*
X51750Y-44750D03*
X50750Y-47000D03*
X51750Y-47000D03*
X50750Y-49250D03*
X51750Y-49250D03*
X50750Y-51500D03*
X51750Y-51500D03*
X52750Y-30500D03*
X53750Y-30500D03*
X52750Y-32750D03*
X53750Y-32750D03*
X52750Y-35000D03*
X53750Y-35000D03*
X52750Y-37250D03*
X53750Y-37250D03*
X52750Y-44750D03*
X53750Y-44750D03*
X52750Y-47000D03*
X53750Y-47000D03*
X52750Y-49250D03*
X53750Y-49250D03*
X52750Y-51500D03*
X53750Y-51500D03*
X54750Y-30500D03*
X55750Y-30500D03*
X54750Y-32750D03*
X55750Y-32750D03*
X54750Y-35000D03*
X55750Y-35000D03*
X54750Y-37250D03*
X55750Y-37250D03*
X54750Y-44750D03*
X55750Y-44750D03*
X54750Y-47000D03*
X55750Y-47000D03*
X54750Y-49250D03*
X55750Y-49250D03*
X54750Y-51500D03*
X55750Y-51500D03*
X56750Y-30500D03*
X57750Y-30500D03*
X56750Y-32750D03*
X57750Y-32750D03*
X56750Y-35000D03*
X57750Y-35000D03*
X56750Y-37250D03*
X57750Y-37250D03*
X56750Y-44750D03*
X57750Y-44750D03*
X56750Y-47000D03*
X57750Y-47000D03*
X56750Y-49250D03*
X57750Y-49250D03*
X56750Y-51500D03*
X57750Y-51500D03*
G54D17*
X47250Y-40500D03*
G54D18*
X47250Y-41500D03*
X46250Y-40500D03*
X46250Y-41500D03*
X45250Y-40500D03*
X45250Y-41500D03*
M02*
