M48
;DRILL file {Pcbnew (2014-03-18 BZR 4754)-product} date Tue 01 Apr 2014 07:29:12 PM CDT
;FORMAT={2:4/ absolute / inch / keep zeros}
FMAT,2
INCH,TZ
T1C0.015
T2C0.031
T3C0.035
T4C0.051
T5C0.142
%
G90
G05
M72
T1
X054750Y-041000
X055000Y-045400
X055000Y-046750
X055000Y-049000
X055250Y-041250
X056450Y-041300
X056900Y-041300
X057000Y-045125
X057400Y-041300
X058150Y-043000
X058250Y-042050
X059950Y-041450
X060200Y-041800
X060450Y-042150
X061000Y-035950
X061000Y-038250
X061800Y-042250
X062850Y-043875
X063000Y-033750
X063000Y-038250
X064175Y-041600
X064700Y-041700
X065000Y-032500
X065000Y-038250
X065350Y-042975
X066000Y-053500
X066500Y-045150
X068750Y-046250
X068750Y-048700
T2
X053500Y-032000
X053500Y-034250
X053500Y-036500
X053500Y-038750
X053500Y-046250
X053500Y-048500
X053500Y-050750
X053500Y-053000
X054500Y-032000
X054500Y-034250
X054500Y-036500
X054500Y-038750
X054500Y-046250
X054500Y-048500
X054500Y-050750
X054500Y-053000
X055500Y-032000
X055500Y-034250
X055500Y-036500
X055500Y-038750
X055500Y-046250
X055500Y-048500
X055500Y-050750
X055500Y-053000
X056500Y-032000
X056500Y-034250
X056500Y-036500
X056500Y-038750
X056500Y-046250
X056500Y-048500
X056500Y-050750
X056500Y-053000
X057500Y-032000
X057500Y-034250
X057500Y-036500
X057500Y-038750
X057500Y-046250
X057500Y-048500
X057500Y-050750
X057500Y-053000
X058500Y-032000
X058500Y-034250
X058500Y-036500
X058500Y-038750
X058500Y-046250
X058500Y-048500
X058500Y-050750
X058500Y-053000
X059500Y-032000
X059500Y-034250
X059500Y-036500
X059500Y-038750
X059500Y-046250
X059500Y-048500
X059500Y-050750
X059500Y-053000
X060500Y-032000
X060500Y-034250
X060500Y-036500
X060500Y-038750
X060500Y-046250
X060500Y-048500
X060500Y-050750
X060500Y-053000
X061500Y-032000
X061500Y-034250
X061500Y-036500
X061500Y-038750
X061500Y-046250
X061500Y-048500
X061500Y-050750
X061500Y-053000
X062500Y-032000
X062500Y-034250
X062500Y-036500
X062500Y-038750
X062500Y-046250
X062500Y-048500
X062500Y-050750
X062500Y-053000
X063500Y-032000
X063500Y-034250
X063500Y-036500
X063500Y-038750
X063500Y-046250
X063500Y-048500
X063500Y-050750
X063500Y-053000
X064500Y-032000
X064500Y-034250
X064500Y-036500
X064500Y-038750
X064500Y-046250
X064500Y-048500
X064500Y-050750
X064500Y-053000
X065500Y-032000
X065500Y-034250
X065500Y-036500
X065500Y-038750
X065500Y-046250
X065500Y-048500
X065500Y-050750
X065500Y-053000
X066500Y-032000
X066500Y-034250
X066500Y-036500
X066500Y-038750
X066500Y-046250
X066500Y-048500
X066500Y-050750
X066500Y-053000
T3
X054000Y-042000
X054000Y-043000
X055000Y-042000
X055000Y-043000
X056000Y-042000
X056000Y-043000
T4
X069000Y-041500
X069000Y-043500
T5
X068500Y-032250
X068500Y-052750
T0
M30
