M48
;DRILL file {Pcbnew (2014-03-18 BZR 4754)-product} date Tue 01 Apr 2014 07:49:34 PM CDT
;FORMAT={2:4/ absolute / inch / keep zeros}
FMAT,2
INCH,TZ
T1C0.015
T2C0.031
T3C0.035
T4C0.051
T5C0.142
%
G90
G05
M72
T1
X046000Y-039500
X046250Y-043900
X046250Y-045250
X046250Y-047500
X046500Y-039750
X047700Y-039800
X048150Y-039800
X048250Y-043625
X048650Y-039800
X049400Y-041500
X049500Y-040550
X051200Y-039950
X051450Y-040300
X051700Y-040650
X052250Y-034450
X052250Y-036750
X053050Y-040750
X054100Y-042375
X054250Y-032250
X054250Y-036750
X055425Y-040100
X055950Y-040200
X056250Y-031000
X056250Y-036750
X056600Y-041475
X057250Y-052000
X057750Y-043650
X060000Y-044750
X060000Y-047200
T2
X044750Y-030500
X044750Y-032750
X044750Y-035000
X044750Y-037250
X044750Y-044750
X044750Y-047000
X044750Y-049250
X044750Y-051500
X045750Y-030500
X045750Y-032750
X045750Y-035000
X045750Y-037250
X045750Y-044750
X045750Y-047000
X045750Y-049250
X045750Y-051500
X046750Y-030500
X046750Y-032750
X046750Y-035000
X046750Y-037250
X046750Y-044750
X046750Y-047000
X046750Y-049250
X046750Y-051500
X047750Y-030500
X047750Y-032750
X047750Y-035000
X047750Y-037250
X047750Y-044750
X047750Y-047000
X047750Y-049250
X047750Y-051500
X048750Y-030500
X048750Y-032750
X048750Y-035000
X048750Y-037250
X048750Y-044750
X048750Y-047000
X048750Y-049250
X048750Y-051500
X049750Y-030500
X049750Y-032750
X049750Y-035000
X049750Y-037250
X049750Y-044750
X049750Y-047000
X049750Y-049250
X049750Y-051500
X050750Y-030500
X050750Y-032750
X050750Y-035000
X050750Y-037250
X050750Y-044750
X050750Y-047000
X050750Y-049250
X050750Y-051500
X051750Y-030500
X051750Y-032750
X051750Y-035000
X051750Y-037250
X051750Y-044750
X051750Y-047000
X051750Y-049250
X051750Y-051500
X052750Y-030500
X052750Y-032750
X052750Y-035000
X052750Y-037250
X052750Y-044750
X052750Y-047000
X052750Y-049250
X052750Y-051500
X053750Y-030500
X053750Y-032750
X053750Y-035000
X053750Y-037250
X053750Y-044750
X053750Y-047000
X053750Y-049250
X053750Y-051500
X054750Y-030500
X054750Y-032750
X054750Y-035000
X054750Y-037250
X054750Y-044750
X054750Y-047000
X054750Y-049250
X054750Y-051500
X055750Y-030500
X055750Y-032750
X055750Y-035000
X055750Y-037250
X055750Y-044750
X055750Y-047000
X055750Y-049250
X055750Y-051500
X056750Y-030500
X056750Y-032750
X056750Y-035000
X056750Y-037250
X056750Y-044750
X056750Y-047000
X056750Y-049250
X056750Y-051500
X057750Y-030500
X057750Y-032750
X057750Y-035000
X057750Y-037250
X057750Y-044750
X057750Y-047000
X057750Y-049250
X057750Y-051500
T3
X045250Y-040500
X045250Y-041500
X046250Y-040500
X046250Y-041500
X047250Y-040500
X047250Y-041500
T4
X060250Y-040000
X060250Y-042000
T5
X059750Y-030750
X059750Y-051250
T0
M30
