%FSLAX34Y34*%
G04 Gerber Fmt 3.4, Leading zero omitted, Abs format*
G04 (created by PCBNEW (2014-03-18 BZR 4754)-product) date Tue 01 Apr 2014 07:33:40 PM CDT*
%MOIN*%
G01*
G70*
G90*
G04 APERTURE LIST*
%ADD10C,0.006000*%
%ADD11C,0.141732*%
%ADD12R,0.086614X0.086614*%
%ADD13C,0.086614*%
%ADD14C,0.062992*%
%ADD15R,0.066929X0.066929*%
%ADD16C,0.066929*%
%ADD17C,0.030000*%
%ADD18C,0.010000*%
G04 APERTURE END LIST*
G54D10*
G54D11*
X59750Y-51250D03*
X59750Y-30750D03*
G54D12*
X60250Y-42000D03*
G54D13*
X60250Y-40000D03*
G54D14*
X44750Y-30500D03*
X45750Y-30500D03*
X44750Y-32750D03*
X45750Y-32750D03*
X44750Y-35000D03*
X45750Y-35000D03*
X44750Y-37250D03*
X45750Y-37250D03*
X44750Y-44750D03*
X45750Y-44750D03*
X44750Y-47000D03*
X45750Y-47000D03*
X44750Y-49250D03*
X45750Y-49250D03*
X44750Y-51500D03*
X45750Y-51500D03*
X46750Y-30500D03*
X47750Y-30500D03*
X46750Y-32750D03*
X47750Y-32750D03*
X46750Y-35000D03*
X47750Y-35000D03*
X46750Y-37250D03*
X47750Y-37250D03*
X46750Y-44750D03*
X47750Y-44750D03*
X46750Y-47000D03*
X47750Y-47000D03*
X46750Y-49250D03*
X47750Y-49250D03*
X46750Y-51500D03*
X47750Y-51500D03*
X48750Y-30500D03*
X49750Y-30500D03*
X48750Y-32750D03*
X49750Y-32750D03*
X48750Y-35000D03*
X49750Y-35000D03*
X48750Y-37250D03*
X49750Y-37250D03*
X48750Y-44750D03*
X49750Y-44750D03*
X48750Y-47000D03*
X49750Y-47000D03*
X48750Y-49250D03*
X49750Y-49250D03*
X48750Y-51500D03*
X49750Y-51500D03*
X50750Y-30500D03*
X51750Y-30500D03*
X50750Y-32750D03*
X51750Y-32750D03*
X50750Y-35000D03*
X51750Y-35000D03*
X50750Y-37250D03*
X51750Y-37250D03*
X50750Y-44750D03*
X51750Y-44750D03*
X50750Y-47000D03*
X51750Y-47000D03*
X50750Y-49250D03*
X51750Y-49250D03*
X50750Y-51500D03*
X51750Y-51500D03*
X52750Y-30500D03*
X53750Y-30500D03*
X52750Y-32750D03*
X53750Y-32750D03*
X52750Y-35000D03*
X53750Y-35000D03*
X52750Y-37250D03*
X53750Y-37250D03*
X52750Y-44750D03*
X53750Y-44750D03*
X52750Y-47000D03*
X53750Y-47000D03*
X52750Y-49250D03*
X53750Y-49250D03*
X52750Y-51500D03*
X53750Y-51500D03*
X54750Y-30500D03*
X55750Y-30500D03*
X54750Y-32750D03*
X55750Y-32750D03*
X54750Y-35000D03*
X55750Y-35000D03*
X54750Y-37250D03*
X55750Y-37250D03*
X54750Y-44750D03*
X55750Y-44750D03*
X54750Y-47000D03*
X55750Y-47000D03*
X54750Y-49250D03*
X55750Y-49250D03*
X54750Y-51500D03*
X55750Y-51500D03*
X56750Y-30500D03*
X57750Y-30500D03*
X56750Y-32750D03*
X57750Y-32750D03*
X56750Y-35000D03*
X57750Y-35000D03*
X56750Y-37250D03*
X57750Y-37250D03*
X56750Y-44750D03*
X57750Y-44750D03*
X56750Y-47000D03*
X57750Y-47000D03*
X56750Y-49250D03*
X57750Y-49250D03*
X56750Y-51500D03*
X57750Y-51500D03*
G54D15*
X47250Y-40500D03*
G54D16*
X47250Y-41500D03*
X46250Y-40500D03*
X46250Y-41500D03*
X45250Y-40500D03*
X45250Y-41500D03*
G54D17*
X54100Y-42375D03*
X49500Y-40550D03*
X48650Y-39800D03*
X51700Y-40650D03*
X46500Y-39750D03*
X51450Y-40300D03*
X46000Y-39500D03*
X51200Y-39950D03*
X56250Y-31000D03*
X56250Y-36750D03*
X54250Y-32250D03*
X54250Y-36750D03*
X52250Y-34450D03*
X52250Y-36750D03*
X48150Y-39800D03*
X48250Y-43625D03*
X47700Y-39800D03*
X46250Y-47500D03*
X46250Y-45250D03*
X46250Y-43900D03*
X57250Y-52000D03*
X55950Y-40200D03*
X56600Y-41475D03*
X53050Y-40750D03*
X49400Y-41500D03*
X60000Y-44750D03*
X55425Y-40100D03*
X60000Y-47200D03*
X57750Y-43650D03*
G54D18*
X53125Y-42450D02*
X54025Y-42450D01*
X54025Y-42450D02*
X54100Y-42375D01*
X53125Y-42450D02*
X51550Y-42450D01*
X51550Y-42450D02*
X49650Y-40550D01*
X49500Y-40550D02*
X49650Y-40550D01*
X48650Y-39800D02*
X48900Y-39550D01*
X51700Y-40650D02*
X50450Y-40650D01*
X50450Y-40650D02*
X49350Y-39550D01*
X48300Y-39450D02*
X48650Y-39800D01*
X46300Y-41500D02*
X46250Y-41500D01*
X46300Y-41500D02*
X46750Y-41050D01*
X46750Y-41050D02*
X46750Y-40000D01*
X46750Y-40000D02*
X46850Y-39900D01*
X46850Y-39900D02*
X47000Y-39900D01*
X47000Y-39900D02*
X47450Y-39450D01*
X47450Y-39450D02*
X48300Y-39450D01*
X48900Y-39550D02*
X49350Y-39550D01*
X47500Y-39200D02*
X47050Y-39200D01*
X47050Y-39200D02*
X46500Y-39750D01*
X49350Y-39200D02*
X47500Y-39200D01*
X50550Y-40400D02*
X49350Y-39200D01*
X51350Y-40400D02*
X50550Y-40400D01*
X51450Y-40300D02*
X51350Y-40400D01*
X47250Y-38950D02*
X46800Y-38950D01*
X46250Y-39500D02*
X46000Y-39500D01*
X46800Y-38950D02*
X46250Y-39500D01*
X49400Y-38950D02*
X47250Y-38950D01*
X50600Y-40150D02*
X49400Y-38950D01*
X51000Y-40150D02*
X50600Y-40150D01*
X51200Y-39950D02*
X51000Y-40150D01*
X51900Y-39250D02*
X50550Y-39250D01*
X50550Y-39250D02*
X49800Y-38500D01*
X49800Y-38500D02*
X46000Y-38500D01*
X46000Y-38500D02*
X44750Y-37250D01*
X53400Y-40600D02*
X52050Y-39250D01*
X52050Y-39250D02*
X51900Y-39250D01*
X44750Y-37250D02*
X44750Y-35000D01*
X44750Y-35000D02*
X44750Y-32750D01*
X44750Y-32750D02*
X44750Y-30500D01*
X44750Y-51500D02*
X44750Y-49250D01*
X44750Y-49250D02*
X44750Y-47000D01*
X53625Y-42000D02*
X53400Y-41775D01*
X53400Y-41775D02*
X53400Y-40600D01*
X54450Y-42225D02*
X54225Y-42000D01*
X54225Y-42000D02*
X53625Y-42000D01*
X44750Y-47000D02*
X44750Y-44750D01*
X54125Y-42850D02*
X54450Y-42525D01*
X54450Y-42525D02*
X54450Y-42225D01*
X44750Y-44750D02*
X45250Y-44250D01*
X46625Y-44250D02*
X46900Y-43975D01*
X45250Y-44250D02*
X46625Y-44250D01*
X49950Y-42850D02*
X49700Y-42850D01*
X49950Y-42850D02*
X52950Y-42850D01*
X52950Y-42850D02*
X54125Y-42850D01*
X49700Y-42850D02*
X48575Y-43975D01*
X48575Y-43975D02*
X46900Y-43975D01*
X46750Y-30500D02*
X46750Y-32750D01*
X46750Y-32750D02*
X46750Y-35000D01*
X46750Y-37250D02*
X46750Y-35000D01*
X46750Y-37800D02*
X46750Y-37250D01*
X47200Y-38250D02*
X46750Y-37800D01*
X49900Y-38250D02*
X47200Y-38250D01*
X50650Y-39000D02*
X49900Y-38250D01*
X51750Y-39000D02*
X50650Y-39000D01*
X51750Y-39000D02*
X52150Y-39000D01*
X52150Y-39000D02*
X53625Y-40475D01*
X53625Y-41600D02*
X53625Y-40475D01*
X53800Y-41775D02*
X53625Y-41600D01*
X54325Y-41775D02*
X53800Y-41775D01*
X54675Y-42125D02*
X54325Y-41775D01*
X53700Y-43100D02*
X54175Y-43100D01*
X54675Y-42600D02*
X54675Y-42125D01*
X54175Y-43100D02*
X54675Y-42600D01*
X49750Y-43100D02*
X53700Y-43100D01*
X46750Y-44750D02*
X46750Y-44600D01*
X48650Y-44200D02*
X49750Y-43100D01*
X47150Y-44200D02*
X48650Y-44200D01*
X46750Y-44600D02*
X47150Y-44200D01*
X46750Y-44750D02*
X46750Y-47000D01*
X46750Y-49250D02*
X46750Y-47000D01*
X46750Y-51500D02*
X46750Y-49250D01*
X49500Y-38000D02*
X48750Y-37250D01*
X48750Y-37250D02*
X48750Y-35000D01*
X48750Y-35000D02*
X48750Y-32750D01*
X48750Y-32750D02*
X48750Y-30500D01*
X50000Y-38000D02*
X49500Y-38000D01*
X48750Y-51500D02*
X48750Y-49250D01*
X50750Y-38750D02*
X50000Y-38000D01*
X51800Y-38750D02*
X50750Y-38750D01*
X48750Y-49250D02*
X48750Y-47000D01*
X51800Y-38750D02*
X52250Y-38750D01*
X52250Y-38750D02*
X53850Y-40350D01*
X53850Y-41399D02*
X53850Y-40350D01*
X54000Y-41550D02*
X53850Y-41399D01*
X53625Y-43350D02*
X54225Y-43350D01*
X54400Y-41550D02*
X54000Y-41550D01*
X54900Y-42050D02*
X54400Y-41550D01*
X54900Y-42675D02*
X54900Y-42050D01*
X54225Y-43350D02*
X54900Y-42675D01*
X48750Y-44750D02*
X48750Y-44450D01*
X48750Y-44450D02*
X49850Y-43350D01*
X49850Y-43350D02*
X53625Y-43350D01*
X48750Y-47000D02*
X48750Y-44750D01*
X52000Y-38500D02*
X50750Y-37250D01*
X50750Y-35000D02*
X50750Y-37250D01*
X50750Y-32750D02*
X50750Y-35000D01*
X50750Y-30500D02*
X50750Y-32750D01*
X52100Y-38500D02*
X52000Y-38500D01*
X52100Y-38500D02*
X52350Y-38500D01*
X52350Y-38500D02*
X54075Y-40225D01*
X54075Y-41174D02*
X54075Y-40225D01*
X54225Y-41325D02*
X54075Y-41174D01*
X53925Y-43600D02*
X54300Y-43600D01*
X54500Y-41325D02*
X54225Y-41325D01*
X55125Y-41950D02*
X54500Y-41325D01*
X55125Y-42775D02*
X55125Y-41950D01*
X54300Y-43600D02*
X55125Y-42775D01*
X50750Y-44750D02*
X50750Y-44550D01*
X50750Y-44550D02*
X51700Y-43600D01*
X51700Y-43600D02*
X53925Y-43600D01*
X50750Y-44750D02*
X50750Y-47000D01*
X50750Y-47000D02*
X50750Y-49250D01*
X50750Y-49250D02*
X50750Y-51500D01*
X52750Y-32750D02*
X52750Y-30500D01*
X52750Y-35000D02*
X52750Y-32750D01*
X52750Y-37250D02*
X52750Y-35000D01*
X52750Y-38550D02*
X52750Y-37250D01*
X54300Y-40974D02*
X54300Y-40100D01*
X54300Y-40100D02*
X52750Y-38550D01*
X54425Y-41100D02*
X54300Y-40974D01*
X54600Y-41100D02*
X54425Y-41100D01*
X55350Y-41850D02*
X54600Y-41100D01*
X55350Y-42875D02*
X55350Y-41850D01*
X52750Y-51500D02*
X52750Y-49250D01*
X54375Y-43850D02*
X55350Y-42875D01*
X53500Y-43850D02*
X54375Y-43850D01*
X52750Y-49250D02*
X52750Y-47000D01*
X53300Y-43850D02*
X53500Y-43850D01*
X52750Y-44400D02*
X53300Y-43850D01*
X52750Y-47000D02*
X52750Y-44750D01*
X52750Y-44750D02*
X52750Y-44400D01*
X54750Y-37250D02*
X54750Y-37600D01*
X54750Y-35000D02*
X54750Y-37250D01*
X54750Y-32750D02*
X54750Y-35000D01*
X54750Y-30500D02*
X54750Y-32750D01*
X54750Y-37600D02*
X54450Y-37900D01*
X54450Y-37900D02*
X53300Y-37900D01*
X53300Y-37900D02*
X53100Y-38100D01*
X53100Y-38100D02*
X53100Y-38550D01*
X53100Y-38550D02*
X54546Y-39996D01*
X54546Y-40721D02*
X54546Y-39996D01*
X55575Y-41750D02*
X54546Y-40721D01*
X55575Y-42975D02*
X55575Y-41750D01*
X54750Y-43800D02*
X55575Y-42975D01*
X54750Y-44750D02*
X54750Y-43800D01*
X54750Y-44750D02*
X54750Y-47000D01*
X54750Y-47000D02*
X54750Y-49250D01*
X54750Y-49250D02*
X54750Y-51500D01*
X56750Y-37250D02*
X56750Y-37600D01*
X56750Y-37250D02*
X56750Y-35000D01*
X56750Y-32750D02*
X56750Y-30500D01*
X56750Y-35000D02*
X56750Y-32750D01*
X56750Y-37600D02*
X56200Y-38150D01*
X56200Y-38150D02*
X53500Y-38150D01*
X56750Y-51500D02*
X56750Y-49250D01*
X53400Y-38500D02*
X54825Y-39925D01*
X53500Y-38150D02*
X53400Y-38250D01*
X53400Y-38250D02*
X53400Y-38500D01*
X54825Y-40675D02*
X54825Y-39925D01*
X56750Y-49250D02*
X56750Y-47000D01*
X55825Y-41675D02*
X54825Y-40675D01*
X55825Y-43875D02*
X55825Y-41675D01*
X56750Y-44750D02*
X56700Y-44750D01*
X56750Y-47000D02*
X56750Y-44750D01*
X56700Y-44750D02*
X55825Y-43875D01*
X56250Y-35750D02*
X56250Y-31000D01*
X56250Y-36750D02*
X56250Y-35750D01*
X54250Y-36750D02*
X54250Y-35750D01*
X54250Y-35750D02*
X54250Y-32250D01*
X52250Y-36750D02*
X52250Y-36000D01*
X52250Y-36000D02*
X52250Y-34450D01*
X48450Y-40100D02*
X48450Y-40700D01*
X48150Y-39800D02*
X48450Y-40100D01*
X48450Y-43425D02*
X48250Y-43625D01*
X48450Y-40700D02*
X48450Y-43425D01*
X48225Y-40600D02*
X48225Y-40325D01*
X48225Y-40325D02*
X47700Y-39800D01*
X46250Y-47000D02*
X46250Y-47500D01*
X48225Y-42925D02*
X48225Y-43100D01*
X46250Y-45250D02*
X46250Y-47000D01*
X46425Y-43725D02*
X46250Y-43900D01*
X47600Y-43725D02*
X46425Y-43725D01*
X48225Y-43100D02*
X47600Y-43725D01*
X48225Y-40600D02*
X48225Y-42925D01*
X55950Y-40200D02*
X55950Y-41475D01*
X57250Y-51100D02*
X57250Y-52000D01*
X57250Y-46325D02*
X57250Y-51100D01*
X57250Y-46325D02*
X57250Y-44400D01*
X57250Y-44400D02*
X57000Y-44150D01*
X55950Y-41475D02*
X56050Y-41575D01*
X56050Y-41575D02*
X56050Y-43725D01*
X56050Y-43725D02*
X56475Y-44150D01*
X56475Y-44150D02*
X57000Y-44150D01*
X60000Y-44750D02*
X58500Y-43250D01*
X58500Y-43250D02*
X58200Y-43250D01*
X56150Y-41300D02*
X56275Y-41425D01*
X56150Y-40475D02*
X56150Y-41300D01*
X56300Y-40325D02*
X56150Y-40475D01*
X56300Y-40050D02*
X56300Y-40325D01*
X56100Y-39850D02*
X56300Y-40050D01*
X55675Y-39850D02*
X56100Y-39850D01*
X55425Y-40100D02*
X55675Y-39850D01*
X56275Y-42900D02*
X56275Y-41425D01*
X56275Y-43625D02*
X56550Y-43900D01*
X56550Y-43900D02*
X56750Y-43900D01*
X56750Y-43900D02*
X57400Y-43250D01*
X57400Y-43250D02*
X58200Y-43250D01*
X56275Y-42900D02*
X56275Y-43625D01*
X60000Y-47200D02*
X60000Y-44750D01*
X58450Y-43650D02*
X59600Y-44800D01*
X59600Y-44800D02*
X59600Y-46800D01*
X59600Y-46800D02*
X60000Y-47200D01*
X57750Y-43650D02*
X58450Y-43650D01*
G54D10*
G36*
X61330Y-52830D02*
X60833Y-52830D01*
X60833Y-40114D01*
X60832Y-39882D01*
X60745Y-39671D01*
X60661Y-39624D01*
X60625Y-39659D01*
X60625Y-39588D01*
X60608Y-39558D01*
X60608Y-30579D01*
X60478Y-30264D01*
X60237Y-30022D01*
X59921Y-29891D01*
X59579Y-29891D01*
X59264Y-30021D01*
X59022Y-30262D01*
X58891Y-30578D01*
X58891Y-30920D01*
X59021Y-31235D01*
X59262Y-31477D01*
X59578Y-31608D01*
X59920Y-31608D01*
X60235Y-31478D01*
X60477Y-31237D01*
X60608Y-30921D01*
X60608Y-30579D01*
X60608Y-39558D01*
X60578Y-39504D01*
X60364Y-39416D01*
X60132Y-39417D01*
X59921Y-39504D01*
X59874Y-39588D01*
X60250Y-39964D01*
X60625Y-39588D01*
X60625Y-39659D01*
X60285Y-40000D01*
X60661Y-40375D01*
X60745Y-40328D01*
X60833Y-40114D01*
X60833Y-52830D01*
X60833Y-52830D01*
X60833Y-42462D01*
X60833Y-42403D01*
X60833Y-41537D01*
X60810Y-41481D01*
X60768Y-41439D01*
X60712Y-41416D01*
X60653Y-41416D01*
X60625Y-41416D01*
X60625Y-40411D01*
X60250Y-40035D01*
X60214Y-40070D01*
X60214Y-40000D01*
X59838Y-39624D01*
X59754Y-39671D01*
X59666Y-39885D01*
X59667Y-40117D01*
X59754Y-40328D01*
X59838Y-40375D01*
X60214Y-40000D01*
X60214Y-40070D01*
X59874Y-40411D01*
X59921Y-40495D01*
X60135Y-40583D01*
X60367Y-40582D01*
X60578Y-40495D01*
X60625Y-40411D01*
X60625Y-41416D01*
X59787Y-41416D01*
X59731Y-41439D01*
X59689Y-41481D01*
X59666Y-41537D01*
X59666Y-41596D01*
X59666Y-42462D01*
X59689Y-42518D01*
X59731Y-42560D01*
X59787Y-42583D01*
X59846Y-42583D01*
X60712Y-42583D01*
X60768Y-42560D01*
X60810Y-42518D01*
X60833Y-42462D01*
X60833Y-52830D01*
X60608Y-52830D01*
X60608Y-51079D01*
X60478Y-50764D01*
X60300Y-50585D01*
X60300Y-47140D01*
X60254Y-47030D01*
X60200Y-46975D01*
X60200Y-44974D01*
X60254Y-44920D01*
X60299Y-44809D01*
X60300Y-44690D01*
X60254Y-44580D01*
X60170Y-44495D01*
X60059Y-44450D01*
X59982Y-44449D01*
X58641Y-43108D01*
X58576Y-43065D01*
X58500Y-43050D01*
X58215Y-43050D01*
X58215Y-37157D01*
X58215Y-34907D01*
X58215Y-32657D01*
X58215Y-30407D01*
X58144Y-30236D01*
X58013Y-30106D01*
X57842Y-30035D01*
X57657Y-30034D01*
X57486Y-30105D01*
X57356Y-30236D01*
X57285Y-30407D01*
X57284Y-30592D01*
X57355Y-30763D01*
X57486Y-30893D01*
X57657Y-30964D01*
X57842Y-30965D01*
X58013Y-30894D01*
X58143Y-30763D01*
X58214Y-30592D01*
X58215Y-30407D01*
X58215Y-32657D01*
X58144Y-32486D01*
X58013Y-32356D01*
X57842Y-32285D01*
X57657Y-32284D01*
X57486Y-32355D01*
X57356Y-32486D01*
X57285Y-32657D01*
X57284Y-32842D01*
X57355Y-33013D01*
X57486Y-33143D01*
X57657Y-33214D01*
X57842Y-33215D01*
X58013Y-33144D01*
X58143Y-33013D01*
X58214Y-32842D01*
X58215Y-32657D01*
X58215Y-34907D01*
X58144Y-34736D01*
X58013Y-34606D01*
X57842Y-34535D01*
X57657Y-34534D01*
X57486Y-34605D01*
X57356Y-34736D01*
X57285Y-34907D01*
X57284Y-35092D01*
X57355Y-35263D01*
X57486Y-35393D01*
X57657Y-35464D01*
X57842Y-35465D01*
X58013Y-35394D01*
X58143Y-35263D01*
X58214Y-35092D01*
X58215Y-34907D01*
X58215Y-37157D01*
X58144Y-36986D01*
X58013Y-36856D01*
X57842Y-36785D01*
X57657Y-36784D01*
X57486Y-36855D01*
X57356Y-36986D01*
X57285Y-37157D01*
X57284Y-37342D01*
X57355Y-37513D01*
X57486Y-37643D01*
X57657Y-37714D01*
X57842Y-37715D01*
X58013Y-37644D01*
X58143Y-37513D01*
X58214Y-37342D01*
X58215Y-37157D01*
X58215Y-43050D01*
X58200Y-43050D01*
X57400Y-43050D01*
X57323Y-43065D01*
X57258Y-43108D01*
X56667Y-43700D01*
X56632Y-43700D01*
X56475Y-43542D01*
X56475Y-42900D01*
X56475Y-41425D01*
X56459Y-41348D01*
X56416Y-41283D01*
X56350Y-41217D01*
X56350Y-40557D01*
X56441Y-40466D01*
X56441Y-40466D01*
X56484Y-40401D01*
X56500Y-40325D01*
X56500Y-40050D01*
X56484Y-39973D01*
X56484Y-39973D01*
X56470Y-39951D01*
X56441Y-39908D01*
X56441Y-39908D01*
X56241Y-39708D01*
X56176Y-39665D01*
X56100Y-39650D01*
X55675Y-39650D01*
X55598Y-39665D01*
X55533Y-39708D01*
X55442Y-39800D01*
X55365Y-39799D01*
X55255Y-39845D01*
X55170Y-39929D01*
X55125Y-40040D01*
X55124Y-40159D01*
X55170Y-40269D01*
X55254Y-40354D01*
X55365Y-40399D01*
X55484Y-40400D01*
X55594Y-40354D01*
X55661Y-40287D01*
X55695Y-40369D01*
X55750Y-40424D01*
X55750Y-41317D01*
X55025Y-40592D01*
X55025Y-39925D01*
X55009Y-39848D01*
X54966Y-39783D01*
X53600Y-38417D01*
X53600Y-38350D01*
X56200Y-38350D01*
X56276Y-38334D01*
X56341Y-38291D01*
X56891Y-37741D01*
X56934Y-37676D01*
X56934Y-37676D01*
X57013Y-37644D01*
X57143Y-37513D01*
X57214Y-37342D01*
X57215Y-37157D01*
X57144Y-36986D01*
X57013Y-36856D01*
X56950Y-36829D01*
X56950Y-35420D01*
X57013Y-35394D01*
X57143Y-35263D01*
X57214Y-35092D01*
X57215Y-34907D01*
X57144Y-34736D01*
X57013Y-34606D01*
X56950Y-34579D01*
X56950Y-33170D01*
X57013Y-33144D01*
X57143Y-33013D01*
X57214Y-32842D01*
X57215Y-32657D01*
X57144Y-32486D01*
X57013Y-32356D01*
X56950Y-32329D01*
X56950Y-30920D01*
X57013Y-30894D01*
X57143Y-30763D01*
X57214Y-30592D01*
X57215Y-30407D01*
X57144Y-30236D01*
X57013Y-30106D01*
X56842Y-30035D01*
X56657Y-30034D01*
X56486Y-30105D01*
X56356Y-30236D01*
X56285Y-30407D01*
X56284Y-30592D01*
X56333Y-30709D01*
X56309Y-30700D01*
X56190Y-30699D01*
X56166Y-30710D01*
X56214Y-30592D01*
X56215Y-30407D01*
X56144Y-30236D01*
X56013Y-30106D01*
X55842Y-30035D01*
X55657Y-30034D01*
X55486Y-30105D01*
X55356Y-30236D01*
X55285Y-30407D01*
X55284Y-30592D01*
X55355Y-30763D01*
X55486Y-30893D01*
X55657Y-30964D01*
X55842Y-30965D01*
X55959Y-30916D01*
X55950Y-30940D01*
X55949Y-31059D01*
X55995Y-31169D01*
X56050Y-31224D01*
X56050Y-32392D01*
X56013Y-32356D01*
X55842Y-32285D01*
X55657Y-32284D01*
X55486Y-32355D01*
X55356Y-32486D01*
X55285Y-32657D01*
X55284Y-32842D01*
X55355Y-33013D01*
X55486Y-33143D01*
X55657Y-33214D01*
X55842Y-33215D01*
X56013Y-33144D01*
X56050Y-33107D01*
X56050Y-34642D01*
X56013Y-34606D01*
X55842Y-34535D01*
X55657Y-34534D01*
X55486Y-34605D01*
X55356Y-34736D01*
X55285Y-34907D01*
X55284Y-35092D01*
X55355Y-35263D01*
X55486Y-35393D01*
X55657Y-35464D01*
X55842Y-35465D01*
X56013Y-35394D01*
X56050Y-35357D01*
X56050Y-35750D01*
X56050Y-36525D01*
X55995Y-36579D01*
X55950Y-36690D01*
X55949Y-36809D01*
X55960Y-36833D01*
X55842Y-36785D01*
X55657Y-36784D01*
X55486Y-36855D01*
X55356Y-36986D01*
X55285Y-37157D01*
X55284Y-37342D01*
X55355Y-37513D01*
X55486Y-37643D01*
X55657Y-37714D01*
X55842Y-37715D01*
X56013Y-37644D01*
X56143Y-37513D01*
X56214Y-37342D01*
X56215Y-37157D01*
X56166Y-37040D01*
X56190Y-37049D01*
X56309Y-37050D01*
X56333Y-37039D01*
X56285Y-37157D01*
X56284Y-37342D01*
X56355Y-37513D01*
X56454Y-37612D01*
X56117Y-37950D01*
X54682Y-37950D01*
X54891Y-37741D01*
X54934Y-37676D01*
X55013Y-37644D01*
X55143Y-37513D01*
X55214Y-37342D01*
X55215Y-37157D01*
X55144Y-36986D01*
X55013Y-36856D01*
X54950Y-36829D01*
X54950Y-35420D01*
X55013Y-35394D01*
X55143Y-35263D01*
X55214Y-35092D01*
X55215Y-34907D01*
X55144Y-34736D01*
X55013Y-34606D01*
X54950Y-34579D01*
X54950Y-33170D01*
X55013Y-33144D01*
X55143Y-33013D01*
X55214Y-32842D01*
X55215Y-32657D01*
X55144Y-32486D01*
X55013Y-32356D01*
X54950Y-32329D01*
X54950Y-30920D01*
X55013Y-30894D01*
X55143Y-30763D01*
X55214Y-30592D01*
X55215Y-30407D01*
X55144Y-30236D01*
X55013Y-30106D01*
X54842Y-30035D01*
X54657Y-30034D01*
X54486Y-30105D01*
X54356Y-30236D01*
X54285Y-30407D01*
X54284Y-30592D01*
X54355Y-30763D01*
X54486Y-30893D01*
X54550Y-30920D01*
X54550Y-32190D01*
X54504Y-32080D01*
X54420Y-31995D01*
X54309Y-31950D01*
X54215Y-31949D01*
X54215Y-30407D01*
X54144Y-30236D01*
X54013Y-30106D01*
X53842Y-30035D01*
X53657Y-30034D01*
X53486Y-30105D01*
X53356Y-30236D01*
X53285Y-30407D01*
X53284Y-30592D01*
X53355Y-30763D01*
X53486Y-30893D01*
X53657Y-30964D01*
X53842Y-30965D01*
X54013Y-30894D01*
X54143Y-30763D01*
X54214Y-30592D01*
X54215Y-30407D01*
X54215Y-31949D01*
X54190Y-31949D01*
X54080Y-31995D01*
X53995Y-32079D01*
X53950Y-32190D01*
X53949Y-32309D01*
X53960Y-32333D01*
X53842Y-32285D01*
X53657Y-32284D01*
X53486Y-32355D01*
X53356Y-32486D01*
X53285Y-32657D01*
X53284Y-32842D01*
X53355Y-33013D01*
X53486Y-33143D01*
X53657Y-33214D01*
X53842Y-33215D01*
X54013Y-33144D01*
X54050Y-33107D01*
X54050Y-34642D01*
X54013Y-34606D01*
X53842Y-34535D01*
X53657Y-34534D01*
X53486Y-34605D01*
X53356Y-34736D01*
X53285Y-34907D01*
X53284Y-35092D01*
X53355Y-35263D01*
X53486Y-35393D01*
X53657Y-35464D01*
X53842Y-35465D01*
X54013Y-35394D01*
X54050Y-35357D01*
X54050Y-35750D01*
X54050Y-36525D01*
X53995Y-36579D01*
X53950Y-36690D01*
X53949Y-36809D01*
X53960Y-36833D01*
X53842Y-36785D01*
X53657Y-36784D01*
X53486Y-36855D01*
X53356Y-36986D01*
X53285Y-37157D01*
X53284Y-37342D01*
X53355Y-37513D01*
X53486Y-37643D01*
X53621Y-37700D01*
X53300Y-37700D01*
X53223Y-37715D01*
X53201Y-37729D01*
X53158Y-37758D01*
X52958Y-37958D01*
X52950Y-37971D01*
X52950Y-37670D01*
X53013Y-37644D01*
X53143Y-37513D01*
X53214Y-37342D01*
X53215Y-37157D01*
X53144Y-36986D01*
X53013Y-36856D01*
X52950Y-36829D01*
X52950Y-35420D01*
X53013Y-35394D01*
X53143Y-35263D01*
X53214Y-35092D01*
X53215Y-34907D01*
X53144Y-34736D01*
X53013Y-34606D01*
X52950Y-34579D01*
X52950Y-33170D01*
X53013Y-33144D01*
X53143Y-33013D01*
X53214Y-32842D01*
X53215Y-32657D01*
X53144Y-32486D01*
X53013Y-32356D01*
X52950Y-32329D01*
X52950Y-30920D01*
X53013Y-30894D01*
X53143Y-30763D01*
X53214Y-30592D01*
X53215Y-30407D01*
X53144Y-30236D01*
X53013Y-30106D01*
X52842Y-30035D01*
X52657Y-30034D01*
X52486Y-30105D01*
X52356Y-30236D01*
X52285Y-30407D01*
X52284Y-30592D01*
X52355Y-30763D01*
X52486Y-30893D01*
X52550Y-30920D01*
X52550Y-32329D01*
X52486Y-32355D01*
X52356Y-32486D01*
X52285Y-32657D01*
X52284Y-32842D01*
X52355Y-33013D01*
X52486Y-33143D01*
X52550Y-33170D01*
X52550Y-34390D01*
X52504Y-34280D01*
X52420Y-34195D01*
X52309Y-34150D01*
X52215Y-34149D01*
X52215Y-32657D01*
X52215Y-30407D01*
X52144Y-30236D01*
X52013Y-30106D01*
X51842Y-30035D01*
X51657Y-30034D01*
X51486Y-30105D01*
X51356Y-30236D01*
X51285Y-30407D01*
X51284Y-30592D01*
X51355Y-30763D01*
X51486Y-30893D01*
X51657Y-30964D01*
X51842Y-30965D01*
X52013Y-30894D01*
X52143Y-30763D01*
X52214Y-30592D01*
X52215Y-30407D01*
X52215Y-32657D01*
X52144Y-32486D01*
X52013Y-32356D01*
X51842Y-32285D01*
X51657Y-32284D01*
X51486Y-32355D01*
X51356Y-32486D01*
X51285Y-32657D01*
X51284Y-32842D01*
X51355Y-33013D01*
X51486Y-33143D01*
X51657Y-33214D01*
X51842Y-33215D01*
X52013Y-33144D01*
X52143Y-33013D01*
X52214Y-32842D01*
X52215Y-32657D01*
X52215Y-34149D01*
X52190Y-34149D01*
X52080Y-34195D01*
X51995Y-34279D01*
X51950Y-34390D01*
X51949Y-34509D01*
X51984Y-34594D01*
X51842Y-34535D01*
X51657Y-34534D01*
X51486Y-34605D01*
X51356Y-34736D01*
X51285Y-34907D01*
X51284Y-35092D01*
X51355Y-35263D01*
X51486Y-35393D01*
X51657Y-35464D01*
X51842Y-35465D01*
X52013Y-35394D01*
X52050Y-35357D01*
X52050Y-36000D01*
X52050Y-36525D01*
X51995Y-36579D01*
X51950Y-36690D01*
X51949Y-36809D01*
X51960Y-36833D01*
X51842Y-36785D01*
X51657Y-36784D01*
X51486Y-36855D01*
X51356Y-36986D01*
X51285Y-37157D01*
X51284Y-37342D01*
X51355Y-37513D01*
X51486Y-37643D01*
X51657Y-37714D01*
X51842Y-37715D01*
X52013Y-37644D01*
X52143Y-37513D01*
X52214Y-37342D01*
X52215Y-37157D01*
X52166Y-37040D01*
X52190Y-37049D01*
X52309Y-37050D01*
X52333Y-37039D01*
X52285Y-37157D01*
X52284Y-37342D01*
X52355Y-37513D01*
X52486Y-37643D01*
X52550Y-37670D01*
X52550Y-38417D01*
X52491Y-38358D01*
X52426Y-38315D01*
X52350Y-38300D01*
X52100Y-38300D01*
X52082Y-38300D01*
X51188Y-37405D01*
X51214Y-37342D01*
X51215Y-37157D01*
X51144Y-36986D01*
X51013Y-36856D01*
X50950Y-36829D01*
X50950Y-35420D01*
X51013Y-35394D01*
X51143Y-35263D01*
X51214Y-35092D01*
X51215Y-34907D01*
X51144Y-34736D01*
X51013Y-34606D01*
X50950Y-34579D01*
X50950Y-33170D01*
X51013Y-33144D01*
X51143Y-33013D01*
X51214Y-32842D01*
X51215Y-32657D01*
X51144Y-32486D01*
X51013Y-32356D01*
X50950Y-32329D01*
X50950Y-30920D01*
X51013Y-30894D01*
X51143Y-30763D01*
X51214Y-30592D01*
X51215Y-30407D01*
X51144Y-30236D01*
X51013Y-30106D01*
X50842Y-30035D01*
X50657Y-30034D01*
X50486Y-30105D01*
X50356Y-30236D01*
X50285Y-30407D01*
X50284Y-30592D01*
X50355Y-30763D01*
X50486Y-30893D01*
X50550Y-30920D01*
X50550Y-32329D01*
X50486Y-32355D01*
X50356Y-32486D01*
X50285Y-32657D01*
X50284Y-32842D01*
X50355Y-33013D01*
X50486Y-33143D01*
X50550Y-33170D01*
X50550Y-34579D01*
X50486Y-34605D01*
X50356Y-34736D01*
X50285Y-34907D01*
X50284Y-35092D01*
X50355Y-35263D01*
X50486Y-35393D01*
X50550Y-35420D01*
X50550Y-36829D01*
X50486Y-36855D01*
X50356Y-36986D01*
X50285Y-37157D01*
X50284Y-37342D01*
X50355Y-37513D01*
X50486Y-37643D01*
X50657Y-37714D01*
X50842Y-37715D01*
X50905Y-37688D01*
X51767Y-38550D01*
X50832Y-38550D01*
X50215Y-37932D01*
X50215Y-37157D01*
X50215Y-34907D01*
X50215Y-32657D01*
X50215Y-30407D01*
X50144Y-30236D01*
X50013Y-30106D01*
X49842Y-30035D01*
X49657Y-30034D01*
X49486Y-30105D01*
X49356Y-30236D01*
X49285Y-30407D01*
X49284Y-30592D01*
X49355Y-30763D01*
X49486Y-30893D01*
X49657Y-30964D01*
X49842Y-30965D01*
X50013Y-30894D01*
X50143Y-30763D01*
X50214Y-30592D01*
X50215Y-30407D01*
X50215Y-32657D01*
X50144Y-32486D01*
X50013Y-32356D01*
X49842Y-32285D01*
X49657Y-32284D01*
X49486Y-32355D01*
X49356Y-32486D01*
X49285Y-32657D01*
X49284Y-32842D01*
X49355Y-33013D01*
X49486Y-33143D01*
X49657Y-33214D01*
X49842Y-33215D01*
X50013Y-33144D01*
X50143Y-33013D01*
X50214Y-32842D01*
X50215Y-32657D01*
X50215Y-34907D01*
X50144Y-34736D01*
X50013Y-34606D01*
X49842Y-34535D01*
X49657Y-34534D01*
X49486Y-34605D01*
X49356Y-34736D01*
X49285Y-34907D01*
X49284Y-35092D01*
X49355Y-35263D01*
X49486Y-35393D01*
X49657Y-35464D01*
X49842Y-35465D01*
X50013Y-35394D01*
X50143Y-35263D01*
X50214Y-35092D01*
X50215Y-34907D01*
X50215Y-37157D01*
X50144Y-36986D01*
X50013Y-36856D01*
X49842Y-36785D01*
X49657Y-36784D01*
X49486Y-36855D01*
X49356Y-36986D01*
X49285Y-37157D01*
X49284Y-37342D01*
X49355Y-37513D01*
X49486Y-37643D01*
X49657Y-37714D01*
X49842Y-37715D01*
X50013Y-37644D01*
X50143Y-37513D01*
X50214Y-37342D01*
X50215Y-37157D01*
X50215Y-37932D01*
X50141Y-37858D01*
X50076Y-37815D01*
X50000Y-37800D01*
X49582Y-37800D01*
X49188Y-37405D01*
X49214Y-37342D01*
X49215Y-37157D01*
X49144Y-36986D01*
X49013Y-36856D01*
X48950Y-36829D01*
X48950Y-35420D01*
X49013Y-35394D01*
X49143Y-35263D01*
X49214Y-35092D01*
X49215Y-34907D01*
X49144Y-34736D01*
X49013Y-34606D01*
X48950Y-34579D01*
X48950Y-33170D01*
X49013Y-33144D01*
X49143Y-33013D01*
X49214Y-32842D01*
X49215Y-32657D01*
X49144Y-32486D01*
X49013Y-32356D01*
X48950Y-32329D01*
X48950Y-30920D01*
X49013Y-30894D01*
X49143Y-30763D01*
X49214Y-30592D01*
X49215Y-30407D01*
X49144Y-30236D01*
X49013Y-30106D01*
X48842Y-30035D01*
X48657Y-30034D01*
X48486Y-30105D01*
X48356Y-30236D01*
X48285Y-30407D01*
X48284Y-30592D01*
X48355Y-30763D01*
X48486Y-30893D01*
X48550Y-30920D01*
X48550Y-32329D01*
X48486Y-32355D01*
X48356Y-32486D01*
X48285Y-32657D01*
X48284Y-32842D01*
X48355Y-33013D01*
X48486Y-33143D01*
X48550Y-33170D01*
X48550Y-34579D01*
X48486Y-34605D01*
X48356Y-34736D01*
X48285Y-34907D01*
X48284Y-35092D01*
X48355Y-35263D01*
X48486Y-35393D01*
X48550Y-35420D01*
X48550Y-36829D01*
X48486Y-36855D01*
X48356Y-36986D01*
X48285Y-37157D01*
X48284Y-37342D01*
X48355Y-37513D01*
X48486Y-37643D01*
X48657Y-37714D01*
X48842Y-37715D01*
X48905Y-37688D01*
X49267Y-38050D01*
X48215Y-38050D01*
X48215Y-37157D01*
X48215Y-34907D01*
X48215Y-32657D01*
X48215Y-30407D01*
X48144Y-30236D01*
X48013Y-30106D01*
X47842Y-30035D01*
X47657Y-30034D01*
X47486Y-30105D01*
X47356Y-30236D01*
X47285Y-30407D01*
X47284Y-30592D01*
X47355Y-30763D01*
X47486Y-30893D01*
X47657Y-30964D01*
X47842Y-30965D01*
X48013Y-30894D01*
X48143Y-30763D01*
X48214Y-30592D01*
X48215Y-30407D01*
X48215Y-32657D01*
X48144Y-32486D01*
X48013Y-32356D01*
X47842Y-32285D01*
X47657Y-32284D01*
X47486Y-32355D01*
X47356Y-32486D01*
X47285Y-32657D01*
X47284Y-32842D01*
X47355Y-33013D01*
X47486Y-33143D01*
X47657Y-33214D01*
X47842Y-33215D01*
X48013Y-33144D01*
X48143Y-33013D01*
X48214Y-32842D01*
X48215Y-32657D01*
X48215Y-34907D01*
X48144Y-34736D01*
X48013Y-34606D01*
X47842Y-34535D01*
X47657Y-34534D01*
X47486Y-34605D01*
X47356Y-34736D01*
X47285Y-34907D01*
X47284Y-35092D01*
X47355Y-35263D01*
X47486Y-35393D01*
X47657Y-35464D01*
X47842Y-35465D01*
X48013Y-35394D01*
X48143Y-35263D01*
X48214Y-35092D01*
X48215Y-34907D01*
X48215Y-37157D01*
X48144Y-36986D01*
X48013Y-36856D01*
X47842Y-36785D01*
X47657Y-36784D01*
X47486Y-36855D01*
X47356Y-36986D01*
X47285Y-37157D01*
X47284Y-37342D01*
X47355Y-37513D01*
X47486Y-37643D01*
X47657Y-37714D01*
X47842Y-37715D01*
X48013Y-37644D01*
X48143Y-37513D01*
X48214Y-37342D01*
X48215Y-37157D01*
X48215Y-38050D01*
X47282Y-38050D01*
X46950Y-37717D01*
X46950Y-37670D01*
X47013Y-37644D01*
X47143Y-37513D01*
X47214Y-37342D01*
X47215Y-37157D01*
X47144Y-36986D01*
X47013Y-36856D01*
X46950Y-36829D01*
X46950Y-35420D01*
X47013Y-35394D01*
X47143Y-35263D01*
X47214Y-35092D01*
X47215Y-34907D01*
X47144Y-34736D01*
X47013Y-34606D01*
X46950Y-34579D01*
X46950Y-33170D01*
X47013Y-33144D01*
X47143Y-33013D01*
X47214Y-32842D01*
X47215Y-32657D01*
X47144Y-32486D01*
X47013Y-32356D01*
X46950Y-32329D01*
X46950Y-30920D01*
X47013Y-30894D01*
X47143Y-30763D01*
X47214Y-30592D01*
X47215Y-30407D01*
X47144Y-30236D01*
X47013Y-30106D01*
X46842Y-30035D01*
X46657Y-30034D01*
X46486Y-30105D01*
X46356Y-30236D01*
X46285Y-30407D01*
X46284Y-30592D01*
X46355Y-30763D01*
X46486Y-30893D01*
X46550Y-30920D01*
X46550Y-32329D01*
X46486Y-32355D01*
X46356Y-32486D01*
X46285Y-32657D01*
X46284Y-32842D01*
X46355Y-33013D01*
X46486Y-33143D01*
X46550Y-33170D01*
X46550Y-34579D01*
X46486Y-34605D01*
X46356Y-34736D01*
X46285Y-34907D01*
X46284Y-35092D01*
X46355Y-35263D01*
X46486Y-35393D01*
X46550Y-35420D01*
X46550Y-36829D01*
X46486Y-36855D01*
X46356Y-36986D01*
X46285Y-37157D01*
X46284Y-37342D01*
X46355Y-37513D01*
X46486Y-37643D01*
X46550Y-37670D01*
X46550Y-37800D01*
X46565Y-37876D01*
X46608Y-37941D01*
X46967Y-38300D01*
X46215Y-38300D01*
X46215Y-37157D01*
X46215Y-34907D01*
X46215Y-32657D01*
X46215Y-30407D01*
X46144Y-30236D01*
X46013Y-30106D01*
X45842Y-30035D01*
X45657Y-30034D01*
X45486Y-30105D01*
X45356Y-30236D01*
X45285Y-30407D01*
X45284Y-30592D01*
X45355Y-30763D01*
X45486Y-30893D01*
X45657Y-30964D01*
X45842Y-30965D01*
X46013Y-30894D01*
X46143Y-30763D01*
X46214Y-30592D01*
X46215Y-30407D01*
X46215Y-32657D01*
X46144Y-32486D01*
X46013Y-32356D01*
X45842Y-32285D01*
X45657Y-32284D01*
X45486Y-32355D01*
X45356Y-32486D01*
X45285Y-32657D01*
X45284Y-32842D01*
X45355Y-33013D01*
X45486Y-33143D01*
X45657Y-33214D01*
X45842Y-33215D01*
X46013Y-33144D01*
X46143Y-33013D01*
X46214Y-32842D01*
X46215Y-32657D01*
X46215Y-34907D01*
X46144Y-34736D01*
X46013Y-34606D01*
X45842Y-34535D01*
X45657Y-34534D01*
X45486Y-34605D01*
X45356Y-34736D01*
X45285Y-34907D01*
X45284Y-35092D01*
X45355Y-35263D01*
X45486Y-35393D01*
X45657Y-35464D01*
X45842Y-35465D01*
X46013Y-35394D01*
X46143Y-35263D01*
X46214Y-35092D01*
X46215Y-34907D01*
X46215Y-37157D01*
X46144Y-36986D01*
X46013Y-36856D01*
X45842Y-36785D01*
X45657Y-36784D01*
X45486Y-36855D01*
X45356Y-36986D01*
X45285Y-37157D01*
X45284Y-37342D01*
X45355Y-37513D01*
X45486Y-37643D01*
X45657Y-37714D01*
X45842Y-37715D01*
X46013Y-37644D01*
X46143Y-37513D01*
X46214Y-37342D01*
X46215Y-37157D01*
X46215Y-38300D01*
X46082Y-38300D01*
X45188Y-37405D01*
X45214Y-37342D01*
X45215Y-37157D01*
X45144Y-36986D01*
X45013Y-36856D01*
X44950Y-36829D01*
X44950Y-35420D01*
X45013Y-35394D01*
X45143Y-35263D01*
X45214Y-35092D01*
X45215Y-34907D01*
X45144Y-34736D01*
X45013Y-34606D01*
X44950Y-34579D01*
X44950Y-33170D01*
X45013Y-33144D01*
X45143Y-33013D01*
X45214Y-32842D01*
X45215Y-32657D01*
X45144Y-32486D01*
X45013Y-32356D01*
X44950Y-32329D01*
X44950Y-30920D01*
X45013Y-30894D01*
X45143Y-30763D01*
X45214Y-30592D01*
X45215Y-30407D01*
X45144Y-30236D01*
X45013Y-30106D01*
X44842Y-30035D01*
X44657Y-30034D01*
X44486Y-30105D01*
X44356Y-30236D01*
X44285Y-30407D01*
X44284Y-30592D01*
X44355Y-30763D01*
X44486Y-30893D01*
X44550Y-30920D01*
X44550Y-32329D01*
X44486Y-32355D01*
X44356Y-32486D01*
X44285Y-32657D01*
X44284Y-32842D01*
X44355Y-33013D01*
X44486Y-33143D01*
X44550Y-33170D01*
X44550Y-34579D01*
X44486Y-34605D01*
X44356Y-34736D01*
X44285Y-34907D01*
X44284Y-35092D01*
X44355Y-35263D01*
X44486Y-35393D01*
X44550Y-35420D01*
X44550Y-36829D01*
X44486Y-36855D01*
X44356Y-36986D01*
X44285Y-37157D01*
X44284Y-37342D01*
X44355Y-37513D01*
X44486Y-37643D01*
X44657Y-37714D01*
X44842Y-37715D01*
X44905Y-37688D01*
X45858Y-38641D01*
X45923Y-38684D01*
X46000Y-38700D01*
X49717Y-38700D01*
X50408Y-39391D01*
X50473Y-39434D01*
X50550Y-39450D01*
X51900Y-39450D01*
X51967Y-39450D01*
X53200Y-40682D01*
X53200Y-41775D01*
X53215Y-41851D01*
X53258Y-41916D01*
X53483Y-42141D01*
X53548Y-42184D01*
X53625Y-42200D01*
X53850Y-42200D01*
X53845Y-42204D01*
X53827Y-42250D01*
X53125Y-42250D01*
X51632Y-42250D01*
X49791Y-40408D01*
X49756Y-40385D01*
X49754Y-40380D01*
X49670Y-40295D01*
X49559Y-40250D01*
X49440Y-40249D01*
X49330Y-40295D01*
X49245Y-40379D01*
X49200Y-40490D01*
X49199Y-40609D01*
X49245Y-40719D01*
X49329Y-40804D01*
X49440Y-40849D01*
X49559Y-40850D01*
X49635Y-40818D01*
X51408Y-42591D01*
X51473Y-42634D01*
X51550Y-42650D01*
X49950Y-42650D01*
X49700Y-42650D01*
X49636Y-42662D01*
X49623Y-42665D01*
X49558Y-42708D01*
X48527Y-43740D01*
X48549Y-43684D01*
X48550Y-43607D01*
X48591Y-43566D01*
X48591Y-43566D01*
X48620Y-43523D01*
X48634Y-43501D01*
X48634Y-43501D01*
X48649Y-43425D01*
X48650Y-43425D01*
X48650Y-40700D01*
X48650Y-40100D01*
X48709Y-40100D01*
X48819Y-40054D01*
X48904Y-39970D01*
X48949Y-39859D01*
X48950Y-39782D01*
X48982Y-39750D01*
X49267Y-39750D01*
X50308Y-40791D01*
X50373Y-40834D01*
X50450Y-40850D01*
X51475Y-40850D01*
X51529Y-40904D01*
X51640Y-40949D01*
X51759Y-40950D01*
X51869Y-40904D01*
X51954Y-40820D01*
X51999Y-40709D01*
X52000Y-40590D01*
X51954Y-40480D01*
X51870Y-40395D01*
X51759Y-40350D01*
X51749Y-40350D01*
X51750Y-40240D01*
X51704Y-40130D01*
X51620Y-40045D01*
X51509Y-40000D01*
X51499Y-40000D01*
X51500Y-39890D01*
X51454Y-39780D01*
X51370Y-39695D01*
X51259Y-39650D01*
X51140Y-39649D01*
X51030Y-39695D01*
X50945Y-39779D01*
X50900Y-39890D01*
X50899Y-39950D01*
X50682Y-39950D01*
X49541Y-38808D01*
X49476Y-38765D01*
X49400Y-38750D01*
X47250Y-38750D01*
X46800Y-38750D01*
X46736Y-38762D01*
X46723Y-38765D01*
X46658Y-38808D01*
X46195Y-39271D01*
X46170Y-39245D01*
X46059Y-39200D01*
X45940Y-39199D01*
X45830Y-39245D01*
X45745Y-39329D01*
X45700Y-39440D01*
X45699Y-39559D01*
X45745Y-39669D01*
X45829Y-39754D01*
X45940Y-39799D01*
X46059Y-39800D01*
X46169Y-39754D01*
X46200Y-39724D01*
X46199Y-39809D01*
X46245Y-39919D01*
X46329Y-40004D01*
X46440Y-40049D01*
X46550Y-40050D01*
X46550Y-40114D01*
X46524Y-40089D01*
X46346Y-40015D01*
X46154Y-40015D01*
X45975Y-40088D01*
X45839Y-40225D01*
X45765Y-40403D01*
X45765Y-40595D01*
X45838Y-40774D01*
X45975Y-40910D01*
X46153Y-40984D01*
X46345Y-40984D01*
X46524Y-40911D01*
X46550Y-40885D01*
X46550Y-40967D01*
X46456Y-41060D01*
X46346Y-41015D01*
X46154Y-41015D01*
X45975Y-41088D01*
X45839Y-41225D01*
X45765Y-41403D01*
X45765Y-41595D01*
X45838Y-41774D01*
X45975Y-41910D01*
X46153Y-41984D01*
X46345Y-41984D01*
X46524Y-41911D01*
X46660Y-41774D01*
X46734Y-41596D01*
X46734Y-41404D01*
X46718Y-41364D01*
X46826Y-41256D01*
X46765Y-41403D01*
X46765Y-41595D01*
X46838Y-41774D01*
X46975Y-41910D01*
X47153Y-41984D01*
X47345Y-41984D01*
X47524Y-41911D01*
X47660Y-41774D01*
X47734Y-41596D01*
X47734Y-41404D01*
X47661Y-41225D01*
X47524Y-41089D01*
X47346Y-41015D01*
X47154Y-41015D01*
X46975Y-41088D01*
X46928Y-41136D01*
X46934Y-41126D01*
X46934Y-41126D01*
X46950Y-41050D01*
X46950Y-40984D01*
X47614Y-40984D01*
X47669Y-40961D01*
X47711Y-40919D01*
X47734Y-40864D01*
X47734Y-40804D01*
X47734Y-40135D01*
X47721Y-40104D01*
X48025Y-40407D01*
X48025Y-40600D01*
X48025Y-42925D01*
X48025Y-43017D01*
X47517Y-43525D01*
X46425Y-43525D01*
X46348Y-43540D01*
X46283Y-43583D01*
X46267Y-43600D01*
X46190Y-43599D01*
X46080Y-43645D01*
X45995Y-43729D01*
X45950Y-43840D01*
X45949Y-43959D01*
X45987Y-44050D01*
X45735Y-44050D01*
X45735Y-41590D01*
X45734Y-41504D01*
X45734Y-40404D01*
X45661Y-40225D01*
X45524Y-40089D01*
X45346Y-40015D01*
X45154Y-40015D01*
X44975Y-40088D01*
X44839Y-40225D01*
X44765Y-40403D01*
X44765Y-40595D01*
X44838Y-40774D01*
X44975Y-40910D01*
X45153Y-40984D01*
X45345Y-40984D01*
X45524Y-40911D01*
X45660Y-40774D01*
X45734Y-40596D01*
X45734Y-40404D01*
X45734Y-41504D01*
X45733Y-41398D01*
X45663Y-41230D01*
X45590Y-41195D01*
X45554Y-41230D01*
X45554Y-41159D01*
X45519Y-41086D01*
X45340Y-41014D01*
X45148Y-41016D01*
X44980Y-41086D01*
X44945Y-41159D01*
X45250Y-41464D01*
X45554Y-41159D01*
X45554Y-41230D01*
X45285Y-41500D01*
X45590Y-41804D01*
X45663Y-41769D01*
X45735Y-41590D01*
X45735Y-44050D01*
X45554Y-44050D01*
X45554Y-41840D01*
X45250Y-41535D01*
X45214Y-41570D01*
X45214Y-41500D01*
X44909Y-41195D01*
X44836Y-41230D01*
X44764Y-41409D01*
X44766Y-41601D01*
X44836Y-41769D01*
X44909Y-41804D01*
X45214Y-41500D01*
X45214Y-41570D01*
X44945Y-41840D01*
X44980Y-41913D01*
X45159Y-41985D01*
X45351Y-41983D01*
X45519Y-41913D01*
X45554Y-41840D01*
X45554Y-44050D01*
X45250Y-44050D01*
X45186Y-44062D01*
X45173Y-44065D01*
X45108Y-44108D01*
X44905Y-44311D01*
X44842Y-44285D01*
X44657Y-44284D01*
X44486Y-44355D01*
X44356Y-44486D01*
X44285Y-44657D01*
X44284Y-44842D01*
X44355Y-45013D01*
X44486Y-45143D01*
X44550Y-45170D01*
X44550Y-46579D01*
X44486Y-46605D01*
X44356Y-46736D01*
X44285Y-46907D01*
X44284Y-47092D01*
X44355Y-47263D01*
X44486Y-47393D01*
X44550Y-47420D01*
X44550Y-48829D01*
X44486Y-48855D01*
X44356Y-48986D01*
X44285Y-49157D01*
X44284Y-49342D01*
X44355Y-49513D01*
X44486Y-49643D01*
X44550Y-49670D01*
X44550Y-51079D01*
X44486Y-51105D01*
X44356Y-51236D01*
X44285Y-51407D01*
X44284Y-51592D01*
X44355Y-51763D01*
X44486Y-51893D01*
X44657Y-51964D01*
X44842Y-51965D01*
X45013Y-51894D01*
X45143Y-51763D01*
X45214Y-51592D01*
X45215Y-51407D01*
X45144Y-51236D01*
X45013Y-51106D01*
X44950Y-51079D01*
X44950Y-49670D01*
X45013Y-49644D01*
X45143Y-49513D01*
X45214Y-49342D01*
X45215Y-49157D01*
X45144Y-48986D01*
X45013Y-48856D01*
X44950Y-48829D01*
X44950Y-47420D01*
X45013Y-47394D01*
X45143Y-47263D01*
X45214Y-47092D01*
X45215Y-46907D01*
X45144Y-46736D01*
X45013Y-46606D01*
X44950Y-46579D01*
X44950Y-45170D01*
X45013Y-45144D01*
X45143Y-45013D01*
X45214Y-44842D01*
X45215Y-44657D01*
X45188Y-44594D01*
X45332Y-44450D01*
X45392Y-44450D01*
X45356Y-44486D01*
X45285Y-44657D01*
X45284Y-44842D01*
X45355Y-45013D01*
X45486Y-45143D01*
X45657Y-45214D01*
X45842Y-45215D01*
X45959Y-45166D01*
X45950Y-45190D01*
X45949Y-45309D01*
X45995Y-45419D01*
X46050Y-45474D01*
X46050Y-46642D01*
X46013Y-46606D01*
X45842Y-46535D01*
X45657Y-46534D01*
X45486Y-46605D01*
X45356Y-46736D01*
X45285Y-46907D01*
X45284Y-47092D01*
X45355Y-47263D01*
X45486Y-47393D01*
X45657Y-47464D01*
X45842Y-47465D01*
X45959Y-47416D01*
X45950Y-47440D01*
X45949Y-47559D01*
X45995Y-47669D01*
X46079Y-47754D01*
X46190Y-47799D01*
X46309Y-47800D01*
X46419Y-47754D01*
X46504Y-47670D01*
X46549Y-47559D01*
X46550Y-47500D01*
X46550Y-48829D01*
X46486Y-48855D01*
X46356Y-48986D01*
X46285Y-49157D01*
X46284Y-49342D01*
X46355Y-49513D01*
X46486Y-49643D01*
X46550Y-49670D01*
X46550Y-51079D01*
X46486Y-51105D01*
X46356Y-51236D01*
X46285Y-51407D01*
X46284Y-51592D01*
X46355Y-51763D01*
X46486Y-51893D01*
X46657Y-51964D01*
X46842Y-51965D01*
X47013Y-51894D01*
X47143Y-51763D01*
X47214Y-51592D01*
X47215Y-51407D01*
X47144Y-51236D01*
X47013Y-51106D01*
X46950Y-51079D01*
X46950Y-49670D01*
X47013Y-49644D01*
X47143Y-49513D01*
X47214Y-49342D01*
X47215Y-49157D01*
X47144Y-48986D01*
X47013Y-48856D01*
X46950Y-48829D01*
X46950Y-47420D01*
X47013Y-47394D01*
X47143Y-47263D01*
X47214Y-47092D01*
X47215Y-46907D01*
X47144Y-46736D01*
X47013Y-46606D01*
X46950Y-46579D01*
X46950Y-45170D01*
X47013Y-45144D01*
X47143Y-45013D01*
X47214Y-44842D01*
X47215Y-44657D01*
X47144Y-44488D01*
X47232Y-44400D01*
X47442Y-44400D01*
X47356Y-44486D01*
X47285Y-44657D01*
X47284Y-44842D01*
X47355Y-45013D01*
X47486Y-45143D01*
X47657Y-45214D01*
X47842Y-45215D01*
X48013Y-45144D01*
X48143Y-45013D01*
X48214Y-44842D01*
X48215Y-44657D01*
X48144Y-44486D01*
X48057Y-44400D01*
X48442Y-44400D01*
X48356Y-44486D01*
X48285Y-44657D01*
X48284Y-44842D01*
X48355Y-45013D01*
X48486Y-45143D01*
X48550Y-45170D01*
X48550Y-46579D01*
X48486Y-46605D01*
X48356Y-46736D01*
X48285Y-46907D01*
X48284Y-47092D01*
X48355Y-47263D01*
X48486Y-47393D01*
X48550Y-47420D01*
X48550Y-48829D01*
X48486Y-48855D01*
X48356Y-48986D01*
X48285Y-49157D01*
X48284Y-49342D01*
X48355Y-49513D01*
X48486Y-49643D01*
X48550Y-49670D01*
X48550Y-51079D01*
X48486Y-51105D01*
X48356Y-51236D01*
X48285Y-51407D01*
X48284Y-51592D01*
X48355Y-51763D01*
X48486Y-51893D01*
X48657Y-51964D01*
X48842Y-51965D01*
X49013Y-51894D01*
X49143Y-51763D01*
X49214Y-51592D01*
X49215Y-51407D01*
X49144Y-51236D01*
X49013Y-51106D01*
X48950Y-51079D01*
X48950Y-49670D01*
X49013Y-49644D01*
X49143Y-49513D01*
X49214Y-49342D01*
X49215Y-49157D01*
X49144Y-48986D01*
X49013Y-48856D01*
X48950Y-48829D01*
X48950Y-47420D01*
X49013Y-47394D01*
X49143Y-47263D01*
X49214Y-47092D01*
X49215Y-46907D01*
X49144Y-46736D01*
X49013Y-46606D01*
X48950Y-46579D01*
X48950Y-45170D01*
X49013Y-45144D01*
X49143Y-45013D01*
X49214Y-44842D01*
X49215Y-44657D01*
X49144Y-44486D01*
X49070Y-44412D01*
X49932Y-43550D01*
X51467Y-43550D01*
X50732Y-44285D01*
X50657Y-44284D01*
X50486Y-44355D01*
X50356Y-44486D01*
X50285Y-44657D01*
X50284Y-44842D01*
X50355Y-45013D01*
X50486Y-45143D01*
X50550Y-45170D01*
X50550Y-46579D01*
X50486Y-46605D01*
X50356Y-46736D01*
X50285Y-46907D01*
X50284Y-47092D01*
X50355Y-47263D01*
X50486Y-47393D01*
X50550Y-47420D01*
X50550Y-48829D01*
X50486Y-48855D01*
X50356Y-48986D01*
X50285Y-49157D01*
X50284Y-49342D01*
X50355Y-49513D01*
X50486Y-49643D01*
X50550Y-49670D01*
X50550Y-51079D01*
X50486Y-51105D01*
X50356Y-51236D01*
X50285Y-51407D01*
X50284Y-51592D01*
X50355Y-51763D01*
X50486Y-51893D01*
X50657Y-51964D01*
X50842Y-51965D01*
X51013Y-51894D01*
X51143Y-51763D01*
X51214Y-51592D01*
X51215Y-51407D01*
X51144Y-51236D01*
X51013Y-51106D01*
X50950Y-51079D01*
X50950Y-49670D01*
X51013Y-49644D01*
X51143Y-49513D01*
X51214Y-49342D01*
X51215Y-49157D01*
X51144Y-48986D01*
X51013Y-48856D01*
X50950Y-48829D01*
X50950Y-47420D01*
X51013Y-47394D01*
X51143Y-47263D01*
X51214Y-47092D01*
X51215Y-46907D01*
X51144Y-46736D01*
X51013Y-46606D01*
X50950Y-46579D01*
X50950Y-45170D01*
X51013Y-45144D01*
X51143Y-45013D01*
X51214Y-44842D01*
X51215Y-44657D01*
X51144Y-44486D01*
X51120Y-44462D01*
X51782Y-43800D01*
X53067Y-43800D01*
X52608Y-44258D01*
X52565Y-44323D01*
X52486Y-44355D01*
X52356Y-44486D01*
X52285Y-44657D01*
X52284Y-44842D01*
X52355Y-45013D01*
X52486Y-45143D01*
X52550Y-45170D01*
X52550Y-46579D01*
X52486Y-46605D01*
X52356Y-46736D01*
X52285Y-46907D01*
X52284Y-47092D01*
X52355Y-47263D01*
X52486Y-47393D01*
X52550Y-47420D01*
X52550Y-48829D01*
X52486Y-48855D01*
X52356Y-48986D01*
X52285Y-49157D01*
X52284Y-49342D01*
X52355Y-49513D01*
X52486Y-49643D01*
X52550Y-49670D01*
X52550Y-51079D01*
X52486Y-51105D01*
X52356Y-51236D01*
X52285Y-51407D01*
X52284Y-51592D01*
X52355Y-51763D01*
X52486Y-51893D01*
X52657Y-51964D01*
X52842Y-51965D01*
X53013Y-51894D01*
X53143Y-51763D01*
X53214Y-51592D01*
X53215Y-51407D01*
X53144Y-51236D01*
X53013Y-51106D01*
X52950Y-51079D01*
X52950Y-49670D01*
X53013Y-49644D01*
X53143Y-49513D01*
X53214Y-49342D01*
X53215Y-49157D01*
X53144Y-48986D01*
X53013Y-48856D01*
X52950Y-48829D01*
X52950Y-47420D01*
X53013Y-47394D01*
X53143Y-47263D01*
X53214Y-47092D01*
X53215Y-46907D01*
X53144Y-46736D01*
X53013Y-46606D01*
X52950Y-46579D01*
X52950Y-45170D01*
X53013Y-45144D01*
X53143Y-45013D01*
X53214Y-44842D01*
X53215Y-44657D01*
X53144Y-44486D01*
X53045Y-44387D01*
X53382Y-44050D01*
X53500Y-44050D01*
X54375Y-44050D01*
X54451Y-44034D01*
X54516Y-43991D01*
X54550Y-43957D01*
X54550Y-44329D01*
X54486Y-44355D01*
X54356Y-44486D01*
X54285Y-44657D01*
X54284Y-44842D01*
X54355Y-45013D01*
X54486Y-45143D01*
X54550Y-45170D01*
X54550Y-46579D01*
X54486Y-46605D01*
X54356Y-46736D01*
X54285Y-46907D01*
X54284Y-47092D01*
X54355Y-47263D01*
X54486Y-47393D01*
X54550Y-47420D01*
X54550Y-48829D01*
X54486Y-48855D01*
X54356Y-48986D01*
X54285Y-49157D01*
X54284Y-49342D01*
X54355Y-49513D01*
X54486Y-49643D01*
X54550Y-49670D01*
X54550Y-51079D01*
X54486Y-51105D01*
X54356Y-51236D01*
X54285Y-51407D01*
X54284Y-51592D01*
X54355Y-51763D01*
X54486Y-51893D01*
X54657Y-51964D01*
X54842Y-51965D01*
X55013Y-51894D01*
X55143Y-51763D01*
X55214Y-51592D01*
X55215Y-51407D01*
X55144Y-51236D01*
X55013Y-51106D01*
X54950Y-51079D01*
X54950Y-49670D01*
X55013Y-49644D01*
X55143Y-49513D01*
X55214Y-49342D01*
X55215Y-49157D01*
X55144Y-48986D01*
X55013Y-48856D01*
X54950Y-48829D01*
X54950Y-47420D01*
X55013Y-47394D01*
X55143Y-47263D01*
X55214Y-47092D01*
X55215Y-46907D01*
X55144Y-46736D01*
X55013Y-46606D01*
X54950Y-46579D01*
X54950Y-45170D01*
X55013Y-45144D01*
X55143Y-45013D01*
X55214Y-44842D01*
X55215Y-44657D01*
X55144Y-44486D01*
X55013Y-44356D01*
X54950Y-44329D01*
X54950Y-43882D01*
X55625Y-43207D01*
X55625Y-43875D01*
X55640Y-43951D01*
X55683Y-44016D01*
X56296Y-44629D01*
X56285Y-44657D01*
X56284Y-44842D01*
X56355Y-45013D01*
X56486Y-45143D01*
X56550Y-45170D01*
X56550Y-46579D01*
X56486Y-46605D01*
X56356Y-46736D01*
X56285Y-46907D01*
X56284Y-47092D01*
X56355Y-47263D01*
X56486Y-47393D01*
X56550Y-47420D01*
X56550Y-48829D01*
X56486Y-48855D01*
X56356Y-48986D01*
X56285Y-49157D01*
X56284Y-49342D01*
X56355Y-49513D01*
X56486Y-49643D01*
X56550Y-49670D01*
X56550Y-51079D01*
X56486Y-51105D01*
X56356Y-51236D01*
X56285Y-51407D01*
X56284Y-51592D01*
X56355Y-51763D01*
X56486Y-51893D01*
X56657Y-51964D01*
X56842Y-51965D01*
X56959Y-51916D01*
X56950Y-51940D01*
X56949Y-52059D01*
X56995Y-52169D01*
X57079Y-52254D01*
X57190Y-52299D01*
X57309Y-52300D01*
X57419Y-52254D01*
X57504Y-52170D01*
X57549Y-52059D01*
X57550Y-51940D01*
X57539Y-51916D01*
X57657Y-51964D01*
X57842Y-51965D01*
X58013Y-51894D01*
X58143Y-51763D01*
X58214Y-51592D01*
X58215Y-51407D01*
X58144Y-51236D01*
X58013Y-51106D01*
X57842Y-51035D01*
X57657Y-51034D01*
X57486Y-51105D01*
X57450Y-51142D01*
X57450Y-51100D01*
X57450Y-49607D01*
X57486Y-49643D01*
X57657Y-49714D01*
X57842Y-49715D01*
X58013Y-49644D01*
X58143Y-49513D01*
X58214Y-49342D01*
X58215Y-49157D01*
X58144Y-48986D01*
X58013Y-48856D01*
X57842Y-48785D01*
X57657Y-48784D01*
X57486Y-48855D01*
X57450Y-48892D01*
X57450Y-47357D01*
X57486Y-47393D01*
X57657Y-47464D01*
X57842Y-47465D01*
X58013Y-47394D01*
X58143Y-47263D01*
X58214Y-47092D01*
X58215Y-46907D01*
X58144Y-46736D01*
X58013Y-46606D01*
X57842Y-46535D01*
X57657Y-46534D01*
X57486Y-46605D01*
X57450Y-46642D01*
X57450Y-46325D01*
X57450Y-45107D01*
X57486Y-45143D01*
X57657Y-45214D01*
X57842Y-45215D01*
X58013Y-45144D01*
X58143Y-45013D01*
X58214Y-44842D01*
X58215Y-44657D01*
X58144Y-44486D01*
X58013Y-44356D01*
X57842Y-44285D01*
X57657Y-44284D01*
X57486Y-44355D01*
X57448Y-44393D01*
X57434Y-44323D01*
X57391Y-44258D01*
X57141Y-44008D01*
X57076Y-43965D01*
X57000Y-43950D01*
X56982Y-43950D01*
X57482Y-43450D01*
X57525Y-43450D01*
X57495Y-43479D01*
X57450Y-43590D01*
X57449Y-43709D01*
X57495Y-43819D01*
X57579Y-43904D01*
X57690Y-43949D01*
X57809Y-43950D01*
X57919Y-43904D01*
X57974Y-43850D01*
X58367Y-43850D01*
X59400Y-44882D01*
X59400Y-46800D01*
X59415Y-46876D01*
X59458Y-46941D01*
X59700Y-47182D01*
X59699Y-47259D01*
X59745Y-47369D01*
X59829Y-47454D01*
X59940Y-47499D01*
X60059Y-47500D01*
X60169Y-47454D01*
X60254Y-47370D01*
X60299Y-47259D01*
X60300Y-47140D01*
X60300Y-50585D01*
X60237Y-50522D01*
X59921Y-50391D01*
X59579Y-50391D01*
X59264Y-50521D01*
X59022Y-50762D01*
X58891Y-51078D01*
X58891Y-51420D01*
X59021Y-51735D01*
X59262Y-51977D01*
X59578Y-52108D01*
X59920Y-52108D01*
X60235Y-51978D01*
X60477Y-51737D01*
X60608Y-51421D01*
X60608Y-51079D01*
X60608Y-52830D01*
X56215Y-52830D01*
X56215Y-51407D01*
X56215Y-49157D01*
X56215Y-46907D01*
X56215Y-44657D01*
X56144Y-44486D01*
X56013Y-44356D01*
X55842Y-44285D01*
X55657Y-44284D01*
X55486Y-44355D01*
X55356Y-44486D01*
X55285Y-44657D01*
X55284Y-44842D01*
X55355Y-45013D01*
X55486Y-45143D01*
X55657Y-45214D01*
X55842Y-45215D01*
X56013Y-45144D01*
X56143Y-45013D01*
X56214Y-44842D01*
X56215Y-44657D01*
X56215Y-46907D01*
X56144Y-46736D01*
X56013Y-46606D01*
X55842Y-46535D01*
X55657Y-46534D01*
X55486Y-46605D01*
X55356Y-46736D01*
X55285Y-46907D01*
X55284Y-47092D01*
X55355Y-47263D01*
X55486Y-47393D01*
X55657Y-47464D01*
X55842Y-47465D01*
X56013Y-47394D01*
X56143Y-47263D01*
X56214Y-47092D01*
X56215Y-46907D01*
X56215Y-49157D01*
X56144Y-48986D01*
X56013Y-48856D01*
X55842Y-48785D01*
X55657Y-48784D01*
X55486Y-48855D01*
X55356Y-48986D01*
X55285Y-49157D01*
X55284Y-49342D01*
X55355Y-49513D01*
X55486Y-49643D01*
X55657Y-49714D01*
X55842Y-49715D01*
X56013Y-49644D01*
X56143Y-49513D01*
X56214Y-49342D01*
X56215Y-49157D01*
X56215Y-51407D01*
X56144Y-51236D01*
X56013Y-51106D01*
X55842Y-51035D01*
X55657Y-51034D01*
X55486Y-51105D01*
X55356Y-51236D01*
X55285Y-51407D01*
X55284Y-51592D01*
X55355Y-51763D01*
X55486Y-51893D01*
X55657Y-51964D01*
X55842Y-51965D01*
X56013Y-51894D01*
X56143Y-51763D01*
X56214Y-51592D01*
X56215Y-51407D01*
X56215Y-52830D01*
X54215Y-52830D01*
X54215Y-51407D01*
X54215Y-49157D01*
X54215Y-46907D01*
X54215Y-44657D01*
X54144Y-44486D01*
X54013Y-44356D01*
X53842Y-44285D01*
X53657Y-44284D01*
X53486Y-44355D01*
X53356Y-44486D01*
X53285Y-44657D01*
X53284Y-44842D01*
X53355Y-45013D01*
X53486Y-45143D01*
X53657Y-45214D01*
X53842Y-45215D01*
X54013Y-45144D01*
X54143Y-45013D01*
X54214Y-44842D01*
X54215Y-44657D01*
X54215Y-46907D01*
X54144Y-46736D01*
X54013Y-46606D01*
X53842Y-46535D01*
X53657Y-46534D01*
X53486Y-46605D01*
X53356Y-46736D01*
X53285Y-46907D01*
X53284Y-47092D01*
X53355Y-47263D01*
X53486Y-47393D01*
X53657Y-47464D01*
X53842Y-47465D01*
X54013Y-47394D01*
X54143Y-47263D01*
X54214Y-47092D01*
X54215Y-46907D01*
X54215Y-49157D01*
X54144Y-48986D01*
X54013Y-48856D01*
X53842Y-48785D01*
X53657Y-48784D01*
X53486Y-48855D01*
X53356Y-48986D01*
X53285Y-49157D01*
X53284Y-49342D01*
X53355Y-49513D01*
X53486Y-49643D01*
X53657Y-49714D01*
X53842Y-49715D01*
X54013Y-49644D01*
X54143Y-49513D01*
X54214Y-49342D01*
X54215Y-49157D01*
X54215Y-51407D01*
X54144Y-51236D01*
X54013Y-51106D01*
X53842Y-51035D01*
X53657Y-51034D01*
X53486Y-51105D01*
X53356Y-51236D01*
X53285Y-51407D01*
X53284Y-51592D01*
X53355Y-51763D01*
X53486Y-51893D01*
X53657Y-51964D01*
X53842Y-51965D01*
X54013Y-51894D01*
X54143Y-51763D01*
X54214Y-51592D01*
X54215Y-51407D01*
X54215Y-52830D01*
X52215Y-52830D01*
X52215Y-51407D01*
X52215Y-49157D01*
X52215Y-46907D01*
X52215Y-44657D01*
X52144Y-44486D01*
X52013Y-44356D01*
X51842Y-44285D01*
X51657Y-44284D01*
X51486Y-44355D01*
X51356Y-44486D01*
X51285Y-44657D01*
X51284Y-44842D01*
X51355Y-45013D01*
X51486Y-45143D01*
X51657Y-45214D01*
X51842Y-45215D01*
X52013Y-45144D01*
X52143Y-45013D01*
X52214Y-44842D01*
X52215Y-44657D01*
X52215Y-46907D01*
X52144Y-46736D01*
X52013Y-46606D01*
X51842Y-46535D01*
X51657Y-46534D01*
X51486Y-46605D01*
X51356Y-46736D01*
X51285Y-46907D01*
X51284Y-47092D01*
X51355Y-47263D01*
X51486Y-47393D01*
X51657Y-47464D01*
X51842Y-47465D01*
X52013Y-47394D01*
X52143Y-47263D01*
X52214Y-47092D01*
X52215Y-46907D01*
X52215Y-49157D01*
X52144Y-48986D01*
X52013Y-48856D01*
X51842Y-48785D01*
X51657Y-48784D01*
X51486Y-48855D01*
X51356Y-48986D01*
X51285Y-49157D01*
X51284Y-49342D01*
X51355Y-49513D01*
X51486Y-49643D01*
X51657Y-49714D01*
X51842Y-49715D01*
X52013Y-49644D01*
X52143Y-49513D01*
X52214Y-49342D01*
X52215Y-49157D01*
X52215Y-51407D01*
X52144Y-51236D01*
X52013Y-51106D01*
X51842Y-51035D01*
X51657Y-51034D01*
X51486Y-51105D01*
X51356Y-51236D01*
X51285Y-51407D01*
X51284Y-51592D01*
X51355Y-51763D01*
X51486Y-51893D01*
X51657Y-51964D01*
X51842Y-51965D01*
X52013Y-51894D01*
X52143Y-51763D01*
X52214Y-51592D01*
X52215Y-51407D01*
X52215Y-52830D01*
X50215Y-52830D01*
X50215Y-51407D01*
X50215Y-49157D01*
X50215Y-46907D01*
X50215Y-44657D01*
X50144Y-44486D01*
X50013Y-44356D01*
X49842Y-44285D01*
X49657Y-44284D01*
X49486Y-44355D01*
X49356Y-44486D01*
X49285Y-44657D01*
X49284Y-44842D01*
X49355Y-45013D01*
X49486Y-45143D01*
X49657Y-45214D01*
X49842Y-45215D01*
X50013Y-45144D01*
X50143Y-45013D01*
X50214Y-44842D01*
X50215Y-44657D01*
X50215Y-46907D01*
X50144Y-46736D01*
X50013Y-46606D01*
X49842Y-46535D01*
X49657Y-46534D01*
X49486Y-46605D01*
X49356Y-46736D01*
X49285Y-46907D01*
X49284Y-47092D01*
X49355Y-47263D01*
X49486Y-47393D01*
X49657Y-47464D01*
X49842Y-47465D01*
X50013Y-47394D01*
X50143Y-47263D01*
X50214Y-47092D01*
X50215Y-46907D01*
X50215Y-49157D01*
X50144Y-48986D01*
X50013Y-48856D01*
X49842Y-48785D01*
X49657Y-48784D01*
X49486Y-48855D01*
X49356Y-48986D01*
X49285Y-49157D01*
X49284Y-49342D01*
X49355Y-49513D01*
X49486Y-49643D01*
X49657Y-49714D01*
X49842Y-49715D01*
X50013Y-49644D01*
X50143Y-49513D01*
X50214Y-49342D01*
X50215Y-49157D01*
X50215Y-51407D01*
X50144Y-51236D01*
X50013Y-51106D01*
X49842Y-51035D01*
X49657Y-51034D01*
X49486Y-51105D01*
X49356Y-51236D01*
X49285Y-51407D01*
X49284Y-51592D01*
X49355Y-51763D01*
X49486Y-51893D01*
X49657Y-51964D01*
X49842Y-51965D01*
X50013Y-51894D01*
X50143Y-51763D01*
X50214Y-51592D01*
X50215Y-51407D01*
X50215Y-52830D01*
X48215Y-52830D01*
X48215Y-51407D01*
X48215Y-49157D01*
X48215Y-46907D01*
X48144Y-46736D01*
X48013Y-46606D01*
X47842Y-46535D01*
X47657Y-46534D01*
X47486Y-46605D01*
X47356Y-46736D01*
X47285Y-46907D01*
X47284Y-47092D01*
X47355Y-47263D01*
X47486Y-47393D01*
X47657Y-47464D01*
X47842Y-47465D01*
X48013Y-47394D01*
X48143Y-47263D01*
X48214Y-47092D01*
X48215Y-46907D01*
X48215Y-49157D01*
X48144Y-48986D01*
X48013Y-48856D01*
X47842Y-48785D01*
X47657Y-48784D01*
X47486Y-48855D01*
X47356Y-48986D01*
X47285Y-49157D01*
X47284Y-49342D01*
X47355Y-49513D01*
X47486Y-49643D01*
X47657Y-49714D01*
X47842Y-49715D01*
X48013Y-49644D01*
X48143Y-49513D01*
X48214Y-49342D01*
X48215Y-49157D01*
X48215Y-51407D01*
X48144Y-51236D01*
X48013Y-51106D01*
X47842Y-51035D01*
X47657Y-51034D01*
X47486Y-51105D01*
X47356Y-51236D01*
X47285Y-51407D01*
X47284Y-51592D01*
X47355Y-51763D01*
X47486Y-51893D01*
X47657Y-51964D01*
X47842Y-51965D01*
X48013Y-51894D01*
X48143Y-51763D01*
X48214Y-51592D01*
X48215Y-51407D01*
X48215Y-52830D01*
X46215Y-52830D01*
X46215Y-51407D01*
X46215Y-49157D01*
X46144Y-48986D01*
X46013Y-48856D01*
X45842Y-48785D01*
X45657Y-48784D01*
X45486Y-48855D01*
X45356Y-48986D01*
X45285Y-49157D01*
X45284Y-49342D01*
X45355Y-49513D01*
X45486Y-49643D01*
X45657Y-49714D01*
X45842Y-49715D01*
X46013Y-49644D01*
X46143Y-49513D01*
X46214Y-49342D01*
X46215Y-49157D01*
X46215Y-51407D01*
X46144Y-51236D01*
X46013Y-51106D01*
X45842Y-51035D01*
X45657Y-51034D01*
X45486Y-51105D01*
X45356Y-51236D01*
X45285Y-51407D01*
X45284Y-51592D01*
X45355Y-51763D01*
X45486Y-51893D01*
X45657Y-51964D01*
X45842Y-51965D01*
X46013Y-51894D01*
X46143Y-51763D01*
X46214Y-51592D01*
X46215Y-51407D01*
X46215Y-52830D01*
X44169Y-52830D01*
X44169Y-29169D01*
X61330Y-29169D01*
X61330Y-52830D01*
X61330Y-52830D01*
G37*
G54D18*
X61330Y-52830D02*
X60833Y-52830D01*
X60833Y-40114D01*
X60832Y-39882D01*
X60745Y-39671D01*
X60661Y-39624D01*
X60625Y-39659D01*
X60625Y-39588D01*
X60608Y-39558D01*
X60608Y-30579D01*
X60478Y-30264D01*
X60237Y-30022D01*
X59921Y-29891D01*
X59579Y-29891D01*
X59264Y-30021D01*
X59022Y-30262D01*
X58891Y-30578D01*
X58891Y-30920D01*
X59021Y-31235D01*
X59262Y-31477D01*
X59578Y-31608D01*
X59920Y-31608D01*
X60235Y-31478D01*
X60477Y-31237D01*
X60608Y-30921D01*
X60608Y-30579D01*
X60608Y-39558D01*
X60578Y-39504D01*
X60364Y-39416D01*
X60132Y-39417D01*
X59921Y-39504D01*
X59874Y-39588D01*
X60250Y-39964D01*
X60625Y-39588D01*
X60625Y-39659D01*
X60285Y-40000D01*
X60661Y-40375D01*
X60745Y-40328D01*
X60833Y-40114D01*
X60833Y-52830D01*
X60833Y-52830D01*
X60833Y-42462D01*
X60833Y-42403D01*
X60833Y-41537D01*
X60810Y-41481D01*
X60768Y-41439D01*
X60712Y-41416D01*
X60653Y-41416D01*
X60625Y-41416D01*
X60625Y-40411D01*
X60250Y-40035D01*
X60214Y-40070D01*
X60214Y-40000D01*
X59838Y-39624D01*
X59754Y-39671D01*
X59666Y-39885D01*
X59667Y-40117D01*
X59754Y-40328D01*
X59838Y-40375D01*
X60214Y-40000D01*
X60214Y-40070D01*
X59874Y-40411D01*
X59921Y-40495D01*
X60135Y-40583D01*
X60367Y-40582D01*
X60578Y-40495D01*
X60625Y-40411D01*
X60625Y-41416D01*
X59787Y-41416D01*
X59731Y-41439D01*
X59689Y-41481D01*
X59666Y-41537D01*
X59666Y-41596D01*
X59666Y-42462D01*
X59689Y-42518D01*
X59731Y-42560D01*
X59787Y-42583D01*
X59846Y-42583D01*
X60712Y-42583D01*
X60768Y-42560D01*
X60810Y-42518D01*
X60833Y-42462D01*
X60833Y-52830D01*
X60608Y-52830D01*
X60608Y-51079D01*
X60478Y-50764D01*
X60300Y-50585D01*
X60300Y-47140D01*
X60254Y-47030D01*
X60200Y-46975D01*
X60200Y-44974D01*
X60254Y-44920D01*
X60299Y-44809D01*
X60300Y-44690D01*
X60254Y-44580D01*
X60170Y-44495D01*
X60059Y-44450D01*
X59982Y-44449D01*
X58641Y-43108D01*
X58576Y-43065D01*
X58500Y-43050D01*
X58215Y-43050D01*
X58215Y-37157D01*
X58215Y-34907D01*
X58215Y-32657D01*
X58215Y-30407D01*
X58144Y-30236D01*
X58013Y-30106D01*
X57842Y-30035D01*
X57657Y-30034D01*
X57486Y-30105D01*
X57356Y-30236D01*
X57285Y-30407D01*
X57284Y-30592D01*
X57355Y-30763D01*
X57486Y-30893D01*
X57657Y-30964D01*
X57842Y-30965D01*
X58013Y-30894D01*
X58143Y-30763D01*
X58214Y-30592D01*
X58215Y-30407D01*
X58215Y-32657D01*
X58144Y-32486D01*
X58013Y-32356D01*
X57842Y-32285D01*
X57657Y-32284D01*
X57486Y-32355D01*
X57356Y-32486D01*
X57285Y-32657D01*
X57284Y-32842D01*
X57355Y-33013D01*
X57486Y-33143D01*
X57657Y-33214D01*
X57842Y-33215D01*
X58013Y-33144D01*
X58143Y-33013D01*
X58214Y-32842D01*
X58215Y-32657D01*
X58215Y-34907D01*
X58144Y-34736D01*
X58013Y-34606D01*
X57842Y-34535D01*
X57657Y-34534D01*
X57486Y-34605D01*
X57356Y-34736D01*
X57285Y-34907D01*
X57284Y-35092D01*
X57355Y-35263D01*
X57486Y-35393D01*
X57657Y-35464D01*
X57842Y-35465D01*
X58013Y-35394D01*
X58143Y-35263D01*
X58214Y-35092D01*
X58215Y-34907D01*
X58215Y-37157D01*
X58144Y-36986D01*
X58013Y-36856D01*
X57842Y-36785D01*
X57657Y-36784D01*
X57486Y-36855D01*
X57356Y-36986D01*
X57285Y-37157D01*
X57284Y-37342D01*
X57355Y-37513D01*
X57486Y-37643D01*
X57657Y-37714D01*
X57842Y-37715D01*
X58013Y-37644D01*
X58143Y-37513D01*
X58214Y-37342D01*
X58215Y-37157D01*
X58215Y-43050D01*
X58200Y-43050D01*
X57400Y-43050D01*
X57323Y-43065D01*
X57258Y-43108D01*
X56667Y-43700D01*
X56632Y-43700D01*
X56475Y-43542D01*
X56475Y-42900D01*
X56475Y-41425D01*
X56459Y-41348D01*
X56416Y-41283D01*
X56350Y-41217D01*
X56350Y-40557D01*
X56441Y-40466D01*
X56441Y-40466D01*
X56484Y-40401D01*
X56500Y-40325D01*
X56500Y-40050D01*
X56484Y-39973D01*
X56484Y-39973D01*
X56470Y-39951D01*
X56441Y-39908D01*
X56441Y-39908D01*
X56241Y-39708D01*
X56176Y-39665D01*
X56100Y-39650D01*
X55675Y-39650D01*
X55598Y-39665D01*
X55533Y-39708D01*
X55442Y-39800D01*
X55365Y-39799D01*
X55255Y-39845D01*
X55170Y-39929D01*
X55125Y-40040D01*
X55124Y-40159D01*
X55170Y-40269D01*
X55254Y-40354D01*
X55365Y-40399D01*
X55484Y-40400D01*
X55594Y-40354D01*
X55661Y-40287D01*
X55695Y-40369D01*
X55750Y-40424D01*
X55750Y-41317D01*
X55025Y-40592D01*
X55025Y-39925D01*
X55009Y-39848D01*
X54966Y-39783D01*
X53600Y-38417D01*
X53600Y-38350D01*
X56200Y-38350D01*
X56276Y-38334D01*
X56341Y-38291D01*
X56891Y-37741D01*
X56934Y-37676D01*
X56934Y-37676D01*
X57013Y-37644D01*
X57143Y-37513D01*
X57214Y-37342D01*
X57215Y-37157D01*
X57144Y-36986D01*
X57013Y-36856D01*
X56950Y-36829D01*
X56950Y-35420D01*
X57013Y-35394D01*
X57143Y-35263D01*
X57214Y-35092D01*
X57215Y-34907D01*
X57144Y-34736D01*
X57013Y-34606D01*
X56950Y-34579D01*
X56950Y-33170D01*
X57013Y-33144D01*
X57143Y-33013D01*
X57214Y-32842D01*
X57215Y-32657D01*
X57144Y-32486D01*
X57013Y-32356D01*
X56950Y-32329D01*
X56950Y-30920D01*
X57013Y-30894D01*
X57143Y-30763D01*
X57214Y-30592D01*
X57215Y-30407D01*
X57144Y-30236D01*
X57013Y-30106D01*
X56842Y-30035D01*
X56657Y-30034D01*
X56486Y-30105D01*
X56356Y-30236D01*
X56285Y-30407D01*
X56284Y-30592D01*
X56333Y-30709D01*
X56309Y-30700D01*
X56190Y-30699D01*
X56166Y-30710D01*
X56214Y-30592D01*
X56215Y-30407D01*
X56144Y-30236D01*
X56013Y-30106D01*
X55842Y-30035D01*
X55657Y-30034D01*
X55486Y-30105D01*
X55356Y-30236D01*
X55285Y-30407D01*
X55284Y-30592D01*
X55355Y-30763D01*
X55486Y-30893D01*
X55657Y-30964D01*
X55842Y-30965D01*
X55959Y-30916D01*
X55950Y-30940D01*
X55949Y-31059D01*
X55995Y-31169D01*
X56050Y-31224D01*
X56050Y-32392D01*
X56013Y-32356D01*
X55842Y-32285D01*
X55657Y-32284D01*
X55486Y-32355D01*
X55356Y-32486D01*
X55285Y-32657D01*
X55284Y-32842D01*
X55355Y-33013D01*
X55486Y-33143D01*
X55657Y-33214D01*
X55842Y-33215D01*
X56013Y-33144D01*
X56050Y-33107D01*
X56050Y-34642D01*
X56013Y-34606D01*
X55842Y-34535D01*
X55657Y-34534D01*
X55486Y-34605D01*
X55356Y-34736D01*
X55285Y-34907D01*
X55284Y-35092D01*
X55355Y-35263D01*
X55486Y-35393D01*
X55657Y-35464D01*
X55842Y-35465D01*
X56013Y-35394D01*
X56050Y-35357D01*
X56050Y-35750D01*
X56050Y-36525D01*
X55995Y-36579D01*
X55950Y-36690D01*
X55949Y-36809D01*
X55960Y-36833D01*
X55842Y-36785D01*
X55657Y-36784D01*
X55486Y-36855D01*
X55356Y-36986D01*
X55285Y-37157D01*
X55284Y-37342D01*
X55355Y-37513D01*
X55486Y-37643D01*
X55657Y-37714D01*
X55842Y-37715D01*
X56013Y-37644D01*
X56143Y-37513D01*
X56214Y-37342D01*
X56215Y-37157D01*
X56166Y-37040D01*
X56190Y-37049D01*
X56309Y-37050D01*
X56333Y-37039D01*
X56285Y-37157D01*
X56284Y-37342D01*
X56355Y-37513D01*
X56454Y-37612D01*
X56117Y-37950D01*
X54682Y-37950D01*
X54891Y-37741D01*
X54934Y-37676D01*
X55013Y-37644D01*
X55143Y-37513D01*
X55214Y-37342D01*
X55215Y-37157D01*
X55144Y-36986D01*
X55013Y-36856D01*
X54950Y-36829D01*
X54950Y-35420D01*
X55013Y-35394D01*
X55143Y-35263D01*
X55214Y-35092D01*
X55215Y-34907D01*
X55144Y-34736D01*
X55013Y-34606D01*
X54950Y-34579D01*
X54950Y-33170D01*
X55013Y-33144D01*
X55143Y-33013D01*
X55214Y-32842D01*
X55215Y-32657D01*
X55144Y-32486D01*
X55013Y-32356D01*
X54950Y-32329D01*
X54950Y-30920D01*
X55013Y-30894D01*
X55143Y-30763D01*
X55214Y-30592D01*
X55215Y-30407D01*
X55144Y-30236D01*
X55013Y-30106D01*
X54842Y-30035D01*
X54657Y-30034D01*
X54486Y-30105D01*
X54356Y-30236D01*
X54285Y-30407D01*
X54284Y-30592D01*
X54355Y-30763D01*
X54486Y-30893D01*
X54550Y-30920D01*
X54550Y-32190D01*
X54504Y-32080D01*
X54420Y-31995D01*
X54309Y-31950D01*
X54215Y-31949D01*
X54215Y-30407D01*
X54144Y-30236D01*
X54013Y-30106D01*
X53842Y-30035D01*
X53657Y-30034D01*
X53486Y-30105D01*
X53356Y-30236D01*
X53285Y-30407D01*
X53284Y-30592D01*
X53355Y-30763D01*
X53486Y-30893D01*
X53657Y-30964D01*
X53842Y-30965D01*
X54013Y-30894D01*
X54143Y-30763D01*
X54214Y-30592D01*
X54215Y-30407D01*
X54215Y-31949D01*
X54190Y-31949D01*
X54080Y-31995D01*
X53995Y-32079D01*
X53950Y-32190D01*
X53949Y-32309D01*
X53960Y-32333D01*
X53842Y-32285D01*
X53657Y-32284D01*
X53486Y-32355D01*
X53356Y-32486D01*
X53285Y-32657D01*
X53284Y-32842D01*
X53355Y-33013D01*
X53486Y-33143D01*
X53657Y-33214D01*
X53842Y-33215D01*
X54013Y-33144D01*
X54050Y-33107D01*
X54050Y-34642D01*
X54013Y-34606D01*
X53842Y-34535D01*
X53657Y-34534D01*
X53486Y-34605D01*
X53356Y-34736D01*
X53285Y-34907D01*
X53284Y-35092D01*
X53355Y-35263D01*
X53486Y-35393D01*
X53657Y-35464D01*
X53842Y-35465D01*
X54013Y-35394D01*
X54050Y-35357D01*
X54050Y-35750D01*
X54050Y-36525D01*
X53995Y-36579D01*
X53950Y-36690D01*
X53949Y-36809D01*
X53960Y-36833D01*
X53842Y-36785D01*
X53657Y-36784D01*
X53486Y-36855D01*
X53356Y-36986D01*
X53285Y-37157D01*
X53284Y-37342D01*
X53355Y-37513D01*
X53486Y-37643D01*
X53621Y-37700D01*
X53300Y-37700D01*
X53223Y-37715D01*
X53201Y-37729D01*
X53158Y-37758D01*
X52958Y-37958D01*
X52950Y-37971D01*
X52950Y-37670D01*
X53013Y-37644D01*
X53143Y-37513D01*
X53214Y-37342D01*
X53215Y-37157D01*
X53144Y-36986D01*
X53013Y-36856D01*
X52950Y-36829D01*
X52950Y-35420D01*
X53013Y-35394D01*
X53143Y-35263D01*
X53214Y-35092D01*
X53215Y-34907D01*
X53144Y-34736D01*
X53013Y-34606D01*
X52950Y-34579D01*
X52950Y-33170D01*
X53013Y-33144D01*
X53143Y-33013D01*
X53214Y-32842D01*
X53215Y-32657D01*
X53144Y-32486D01*
X53013Y-32356D01*
X52950Y-32329D01*
X52950Y-30920D01*
X53013Y-30894D01*
X53143Y-30763D01*
X53214Y-30592D01*
X53215Y-30407D01*
X53144Y-30236D01*
X53013Y-30106D01*
X52842Y-30035D01*
X52657Y-30034D01*
X52486Y-30105D01*
X52356Y-30236D01*
X52285Y-30407D01*
X52284Y-30592D01*
X52355Y-30763D01*
X52486Y-30893D01*
X52550Y-30920D01*
X52550Y-32329D01*
X52486Y-32355D01*
X52356Y-32486D01*
X52285Y-32657D01*
X52284Y-32842D01*
X52355Y-33013D01*
X52486Y-33143D01*
X52550Y-33170D01*
X52550Y-34390D01*
X52504Y-34280D01*
X52420Y-34195D01*
X52309Y-34150D01*
X52215Y-34149D01*
X52215Y-32657D01*
X52215Y-30407D01*
X52144Y-30236D01*
X52013Y-30106D01*
X51842Y-30035D01*
X51657Y-30034D01*
X51486Y-30105D01*
X51356Y-30236D01*
X51285Y-30407D01*
X51284Y-30592D01*
X51355Y-30763D01*
X51486Y-30893D01*
X51657Y-30964D01*
X51842Y-30965D01*
X52013Y-30894D01*
X52143Y-30763D01*
X52214Y-30592D01*
X52215Y-30407D01*
X52215Y-32657D01*
X52144Y-32486D01*
X52013Y-32356D01*
X51842Y-32285D01*
X51657Y-32284D01*
X51486Y-32355D01*
X51356Y-32486D01*
X51285Y-32657D01*
X51284Y-32842D01*
X51355Y-33013D01*
X51486Y-33143D01*
X51657Y-33214D01*
X51842Y-33215D01*
X52013Y-33144D01*
X52143Y-33013D01*
X52214Y-32842D01*
X52215Y-32657D01*
X52215Y-34149D01*
X52190Y-34149D01*
X52080Y-34195D01*
X51995Y-34279D01*
X51950Y-34390D01*
X51949Y-34509D01*
X51984Y-34594D01*
X51842Y-34535D01*
X51657Y-34534D01*
X51486Y-34605D01*
X51356Y-34736D01*
X51285Y-34907D01*
X51284Y-35092D01*
X51355Y-35263D01*
X51486Y-35393D01*
X51657Y-35464D01*
X51842Y-35465D01*
X52013Y-35394D01*
X52050Y-35357D01*
X52050Y-36000D01*
X52050Y-36525D01*
X51995Y-36579D01*
X51950Y-36690D01*
X51949Y-36809D01*
X51960Y-36833D01*
X51842Y-36785D01*
X51657Y-36784D01*
X51486Y-36855D01*
X51356Y-36986D01*
X51285Y-37157D01*
X51284Y-37342D01*
X51355Y-37513D01*
X51486Y-37643D01*
X51657Y-37714D01*
X51842Y-37715D01*
X52013Y-37644D01*
X52143Y-37513D01*
X52214Y-37342D01*
X52215Y-37157D01*
X52166Y-37040D01*
X52190Y-37049D01*
X52309Y-37050D01*
X52333Y-37039D01*
X52285Y-37157D01*
X52284Y-37342D01*
X52355Y-37513D01*
X52486Y-37643D01*
X52550Y-37670D01*
X52550Y-38417D01*
X52491Y-38358D01*
X52426Y-38315D01*
X52350Y-38300D01*
X52100Y-38300D01*
X52082Y-38300D01*
X51188Y-37405D01*
X51214Y-37342D01*
X51215Y-37157D01*
X51144Y-36986D01*
X51013Y-36856D01*
X50950Y-36829D01*
X50950Y-35420D01*
X51013Y-35394D01*
X51143Y-35263D01*
X51214Y-35092D01*
X51215Y-34907D01*
X51144Y-34736D01*
X51013Y-34606D01*
X50950Y-34579D01*
X50950Y-33170D01*
X51013Y-33144D01*
X51143Y-33013D01*
X51214Y-32842D01*
X51215Y-32657D01*
X51144Y-32486D01*
X51013Y-32356D01*
X50950Y-32329D01*
X50950Y-30920D01*
X51013Y-30894D01*
X51143Y-30763D01*
X51214Y-30592D01*
X51215Y-30407D01*
X51144Y-30236D01*
X51013Y-30106D01*
X50842Y-30035D01*
X50657Y-30034D01*
X50486Y-30105D01*
X50356Y-30236D01*
X50285Y-30407D01*
X50284Y-30592D01*
X50355Y-30763D01*
X50486Y-30893D01*
X50550Y-30920D01*
X50550Y-32329D01*
X50486Y-32355D01*
X50356Y-32486D01*
X50285Y-32657D01*
X50284Y-32842D01*
X50355Y-33013D01*
X50486Y-33143D01*
X50550Y-33170D01*
X50550Y-34579D01*
X50486Y-34605D01*
X50356Y-34736D01*
X50285Y-34907D01*
X50284Y-35092D01*
X50355Y-35263D01*
X50486Y-35393D01*
X50550Y-35420D01*
X50550Y-36829D01*
X50486Y-36855D01*
X50356Y-36986D01*
X50285Y-37157D01*
X50284Y-37342D01*
X50355Y-37513D01*
X50486Y-37643D01*
X50657Y-37714D01*
X50842Y-37715D01*
X50905Y-37688D01*
X51767Y-38550D01*
X50832Y-38550D01*
X50215Y-37932D01*
X50215Y-37157D01*
X50215Y-34907D01*
X50215Y-32657D01*
X50215Y-30407D01*
X50144Y-30236D01*
X50013Y-30106D01*
X49842Y-30035D01*
X49657Y-30034D01*
X49486Y-30105D01*
X49356Y-30236D01*
X49285Y-30407D01*
X49284Y-30592D01*
X49355Y-30763D01*
X49486Y-30893D01*
X49657Y-30964D01*
X49842Y-30965D01*
X50013Y-30894D01*
X50143Y-30763D01*
X50214Y-30592D01*
X50215Y-30407D01*
X50215Y-32657D01*
X50144Y-32486D01*
X50013Y-32356D01*
X49842Y-32285D01*
X49657Y-32284D01*
X49486Y-32355D01*
X49356Y-32486D01*
X49285Y-32657D01*
X49284Y-32842D01*
X49355Y-33013D01*
X49486Y-33143D01*
X49657Y-33214D01*
X49842Y-33215D01*
X50013Y-33144D01*
X50143Y-33013D01*
X50214Y-32842D01*
X50215Y-32657D01*
X50215Y-34907D01*
X50144Y-34736D01*
X50013Y-34606D01*
X49842Y-34535D01*
X49657Y-34534D01*
X49486Y-34605D01*
X49356Y-34736D01*
X49285Y-34907D01*
X49284Y-35092D01*
X49355Y-35263D01*
X49486Y-35393D01*
X49657Y-35464D01*
X49842Y-35465D01*
X50013Y-35394D01*
X50143Y-35263D01*
X50214Y-35092D01*
X50215Y-34907D01*
X50215Y-37157D01*
X50144Y-36986D01*
X50013Y-36856D01*
X49842Y-36785D01*
X49657Y-36784D01*
X49486Y-36855D01*
X49356Y-36986D01*
X49285Y-37157D01*
X49284Y-37342D01*
X49355Y-37513D01*
X49486Y-37643D01*
X49657Y-37714D01*
X49842Y-37715D01*
X50013Y-37644D01*
X50143Y-37513D01*
X50214Y-37342D01*
X50215Y-37157D01*
X50215Y-37932D01*
X50141Y-37858D01*
X50076Y-37815D01*
X50000Y-37800D01*
X49582Y-37800D01*
X49188Y-37405D01*
X49214Y-37342D01*
X49215Y-37157D01*
X49144Y-36986D01*
X49013Y-36856D01*
X48950Y-36829D01*
X48950Y-35420D01*
X49013Y-35394D01*
X49143Y-35263D01*
X49214Y-35092D01*
X49215Y-34907D01*
X49144Y-34736D01*
X49013Y-34606D01*
X48950Y-34579D01*
X48950Y-33170D01*
X49013Y-33144D01*
X49143Y-33013D01*
X49214Y-32842D01*
X49215Y-32657D01*
X49144Y-32486D01*
X49013Y-32356D01*
X48950Y-32329D01*
X48950Y-30920D01*
X49013Y-30894D01*
X49143Y-30763D01*
X49214Y-30592D01*
X49215Y-30407D01*
X49144Y-30236D01*
X49013Y-30106D01*
X48842Y-30035D01*
X48657Y-30034D01*
X48486Y-30105D01*
X48356Y-30236D01*
X48285Y-30407D01*
X48284Y-30592D01*
X48355Y-30763D01*
X48486Y-30893D01*
X48550Y-30920D01*
X48550Y-32329D01*
X48486Y-32355D01*
X48356Y-32486D01*
X48285Y-32657D01*
X48284Y-32842D01*
X48355Y-33013D01*
X48486Y-33143D01*
X48550Y-33170D01*
X48550Y-34579D01*
X48486Y-34605D01*
X48356Y-34736D01*
X48285Y-34907D01*
X48284Y-35092D01*
X48355Y-35263D01*
X48486Y-35393D01*
X48550Y-35420D01*
X48550Y-36829D01*
X48486Y-36855D01*
X48356Y-36986D01*
X48285Y-37157D01*
X48284Y-37342D01*
X48355Y-37513D01*
X48486Y-37643D01*
X48657Y-37714D01*
X48842Y-37715D01*
X48905Y-37688D01*
X49267Y-38050D01*
X48215Y-38050D01*
X48215Y-37157D01*
X48215Y-34907D01*
X48215Y-32657D01*
X48215Y-30407D01*
X48144Y-30236D01*
X48013Y-30106D01*
X47842Y-30035D01*
X47657Y-30034D01*
X47486Y-30105D01*
X47356Y-30236D01*
X47285Y-30407D01*
X47284Y-30592D01*
X47355Y-30763D01*
X47486Y-30893D01*
X47657Y-30964D01*
X47842Y-30965D01*
X48013Y-30894D01*
X48143Y-30763D01*
X48214Y-30592D01*
X48215Y-30407D01*
X48215Y-32657D01*
X48144Y-32486D01*
X48013Y-32356D01*
X47842Y-32285D01*
X47657Y-32284D01*
X47486Y-32355D01*
X47356Y-32486D01*
X47285Y-32657D01*
X47284Y-32842D01*
X47355Y-33013D01*
X47486Y-33143D01*
X47657Y-33214D01*
X47842Y-33215D01*
X48013Y-33144D01*
X48143Y-33013D01*
X48214Y-32842D01*
X48215Y-32657D01*
X48215Y-34907D01*
X48144Y-34736D01*
X48013Y-34606D01*
X47842Y-34535D01*
X47657Y-34534D01*
X47486Y-34605D01*
X47356Y-34736D01*
X47285Y-34907D01*
X47284Y-35092D01*
X47355Y-35263D01*
X47486Y-35393D01*
X47657Y-35464D01*
X47842Y-35465D01*
X48013Y-35394D01*
X48143Y-35263D01*
X48214Y-35092D01*
X48215Y-34907D01*
X48215Y-37157D01*
X48144Y-36986D01*
X48013Y-36856D01*
X47842Y-36785D01*
X47657Y-36784D01*
X47486Y-36855D01*
X47356Y-36986D01*
X47285Y-37157D01*
X47284Y-37342D01*
X47355Y-37513D01*
X47486Y-37643D01*
X47657Y-37714D01*
X47842Y-37715D01*
X48013Y-37644D01*
X48143Y-37513D01*
X48214Y-37342D01*
X48215Y-37157D01*
X48215Y-38050D01*
X47282Y-38050D01*
X46950Y-37717D01*
X46950Y-37670D01*
X47013Y-37644D01*
X47143Y-37513D01*
X47214Y-37342D01*
X47215Y-37157D01*
X47144Y-36986D01*
X47013Y-36856D01*
X46950Y-36829D01*
X46950Y-35420D01*
X47013Y-35394D01*
X47143Y-35263D01*
X47214Y-35092D01*
X47215Y-34907D01*
X47144Y-34736D01*
X47013Y-34606D01*
X46950Y-34579D01*
X46950Y-33170D01*
X47013Y-33144D01*
X47143Y-33013D01*
X47214Y-32842D01*
X47215Y-32657D01*
X47144Y-32486D01*
X47013Y-32356D01*
X46950Y-32329D01*
X46950Y-30920D01*
X47013Y-30894D01*
X47143Y-30763D01*
X47214Y-30592D01*
X47215Y-30407D01*
X47144Y-30236D01*
X47013Y-30106D01*
X46842Y-30035D01*
X46657Y-30034D01*
X46486Y-30105D01*
X46356Y-30236D01*
X46285Y-30407D01*
X46284Y-30592D01*
X46355Y-30763D01*
X46486Y-30893D01*
X46550Y-30920D01*
X46550Y-32329D01*
X46486Y-32355D01*
X46356Y-32486D01*
X46285Y-32657D01*
X46284Y-32842D01*
X46355Y-33013D01*
X46486Y-33143D01*
X46550Y-33170D01*
X46550Y-34579D01*
X46486Y-34605D01*
X46356Y-34736D01*
X46285Y-34907D01*
X46284Y-35092D01*
X46355Y-35263D01*
X46486Y-35393D01*
X46550Y-35420D01*
X46550Y-36829D01*
X46486Y-36855D01*
X46356Y-36986D01*
X46285Y-37157D01*
X46284Y-37342D01*
X46355Y-37513D01*
X46486Y-37643D01*
X46550Y-37670D01*
X46550Y-37800D01*
X46565Y-37876D01*
X46608Y-37941D01*
X46967Y-38300D01*
X46215Y-38300D01*
X46215Y-37157D01*
X46215Y-34907D01*
X46215Y-32657D01*
X46215Y-30407D01*
X46144Y-30236D01*
X46013Y-30106D01*
X45842Y-30035D01*
X45657Y-30034D01*
X45486Y-30105D01*
X45356Y-30236D01*
X45285Y-30407D01*
X45284Y-30592D01*
X45355Y-30763D01*
X45486Y-30893D01*
X45657Y-30964D01*
X45842Y-30965D01*
X46013Y-30894D01*
X46143Y-30763D01*
X46214Y-30592D01*
X46215Y-30407D01*
X46215Y-32657D01*
X46144Y-32486D01*
X46013Y-32356D01*
X45842Y-32285D01*
X45657Y-32284D01*
X45486Y-32355D01*
X45356Y-32486D01*
X45285Y-32657D01*
X45284Y-32842D01*
X45355Y-33013D01*
X45486Y-33143D01*
X45657Y-33214D01*
X45842Y-33215D01*
X46013Y-33144D01*
X46143Y-33013D01*
X46214Y-32842D01*
X46215Y-32657D01*
X46215Y-34907D01*
X46144Y-34736D01*
X46013Y-34606D01*
X45842Y-34535D01*
X45657Y-34534D01*
X45486Y-34605D01*
X45356Y-34736D01*
X45285Y-34907D01*
X45284Y-35092D01*
X45355Y-35263D01*
X45486Y-35393D01*
X45657Y-35464D01*
X45842Y-35465D01*
X46013Y-35394D01*
X46143Y-35263D01*
X46214Y-35092D01*
X46215Y-34907D01*
X46215Y-37157D01*
X46144Y-36986D01*
X46013Y-36856D01*
X45842Y-36785D01*
X45657Y-36784D01*
X45486Y-36855D01*
X45356Y-36986D01*
X45285Y-37157D01*
X45284Y-37342D01*
X45355Y-37513D01*
X45486Y-37643D01*
X45657Y-37714D01*
X45842Y-37715D01*
X46013Y-37644D01*
X46143Y-37513D01*
X46214Y-37342D01*
X46215Y-37157D01*
X46215Y-38300D01*
X46082Y-38300D01*
X45188Y-37405D01*
X45214Y-37342D01*
X45215Y-37157D01*
X45144Y-36986D01*
X45013Y-36856D01*
X44950Y-36829D01*
X44950Y-35420D01*
X45013Y-35394D01*
X45143Y-35263D01*
X45214Y-35092D01*
X45215Y-34907D01*
X45144Y-34736D01*
X45013Y-34606D01*
X44950Y-34579D01*
X44950Y-33170D01*
X45013Y-33144D01*
X45143Y-33013D01*
X45214Y-32842D01*
X45215Y-32657D01*
X45144Y-32486D01*
X45013Y-32356D01*
X44950Y-32329D01*
X44950Y-30920D01*
X45013Y-30894D01*
X45143Y-30763D01*
X45214Y-30592D01*
X45215Y-30407D01*
X45144Y-30236D01*
X45013Y-30106D01*
X44842Y-30035D01*
X44657Y-30034D01*
X44486Y-30105D01*
X44356Y-30236D01*
X44285Y-30407D01*
X44284Y-30592D01*
X44355Y-30763D01*
X44486Y-30893D01*
X44550Y-30920D01*
X44550Y-32329D01*
X44486Y-32355D01*
X44356Y-32486D01*
X44285Y-32657D01*
X44284Y-32842D01*
X44355Y-33013D01*
X44486Y-33143D01*
X44550Y-33170D01*
X44550Y-34579D01*
X44486Y-34605D01*
X44356Y-34736D01*
X44285Y-34907D01*
X44284Y-35092D01*
X44355Y-35263D01*
X44486Y-35393D01*
X44550Y-35420D01*
X44550Y-36829D01*
X44486Y-36855D01*
X44356Y-36986D01*
X44285Y-37157D01*
X44284Y-37342D01*
X44355Y-37513D01*
X44486Y-37643D01*
X44657Y-37714D01*
X44842Y-37715D01*
X44905Y-37688D01*
X45858Y-38641D01*
X45923Y-38684D01*
X46000Y-38700D01*
X49717Y-38700D01*
X50408Y-39391D01*
X50473Y-39434D01*
X50550Y-39450D01*
X51900Y-39450D01*
X51967Y-39450D01*
X53200Y-40682D01*
X53200Y-41775D01*
X53215Y-41851D01*
X53258Y-41916D01*
X53483Y-42141D01*
X53548Y-42184D01*
X53625Y-42200D01*
X53850Y-42200D01*
X53845Y-42204D01*
X53827Y-42250D01*
X53125Y-42250D01*
X51632Y-42250D01*
X49791Y-40408D01*
X49756Y-40385D01*
X49754Y-40380D01*
X49670Y-40295D01*
X49559Y-40250D01*
X49440Y-40249D01*
X49330Y-40295D01*
X49245Y-40379D01*
X49200Y-40490D01*
X49199Y-40609D01*
X49245Y-40719D01*
X49329Y-40804D01*
X49440Y-40849D01*
X49559Y-40850D01*
X49635Y-40818D01*
X51408Y-42591D01*
X51473Y-42634D01*
X51550Y-42650D01*
X49950Y-42650D01*
X49700Y-42650D01*
X49636Y-42662D01*
X49623Y-42665D01*
X49558Y-42708D01*
X48527Y-43740D01*
X48549Y-43684D01*
X48550Y-43607D01*
X48591Y-43566D01*
X48591Y-43566D01*
X48620Y-43523D01*
X48634Y-43501D01*
X48634Y-43501D01*
X48649Y-43425D01*
X48650Y-43425D01*
X48650Y-40700D01*
X48650Y-40100D01*
X48709Y-40100D01*
X48819Y-40054D01*
X48904Y-39970D01*
X48949Y-39859D01*
X48950Y-39782D01*
X48982Y-39750D01*
X49267Y-39750D01*
X50308Y-40791D01*
X50373Y-40834D01*
X50450Y-40850D01*
X51475Y-40850D01*
X51529Y-40904D01*
X51640Y-40949D01*
X51759Y-40950D01*
X51869Y-40904D01*
X51954Y-40820D01*
X51999Y-40709D01*
X52000Y-40590D01*
X51954Y-40480D01*
X51870Y-40395D01*
X51759Y-40350D01*
X51749Y-40350D01*
X51750Y-40240D01*
X51704Y-40130D01*
X51620Y-40045D01*
X51509Y-40000D01*
X51499Y-40000D01*
X51500Y-39890D01*
X51454Y-39780D01*
X51370Y-39695D01*
X51259Y-39650D01*
X51140Y-39649D01*
X51030Y-39695D01*
X50945Y-39779D01*
X50900Y-39890D01*
X50899Y-39950D01*
X50682Y-39950D01*
X49541Y-38808D01*
X49476Y-38765D01*
X49400Y-38750D01*
X47250Y-38750D01*
X46800Y-38750D01*
X46736Y-38762D01*
X46723Y-38765D01*
X46658Y-38808D01*
X46195Y-39271D01*
X46170Y-39245D01*
X46059Y-39200D01*
X45940Y-39199D01*
X45830Y-39245D01*
X45745Y-39329D01*
X45700Y-39440D01*
X45699Y-39559D01*
X45745Y-39669D01*
X45829Y-39754D01*
X45940Y-39799D01*
X46059Y-39800D01*
X46169Y-39754D01*
X46200Y-39724D01*
X46199Y-39809D01*
X46245Y-39919D01*
X46329Y-40004D01*
X46440Y-40049D01*
X46550Y-40050D01*
X46550Y-40114D01*
X46524Y-40089D01*
X46346Y-40015D01*
X46154Y-40015D01*
X45975Y-40088D01*
X45839Y-40225D01*
X45765Y-40403D01*
X45765Y-40595D01*
X45838Y-40774D01*
X45975Y-40910D01*
X46153Y-40984D01*
X46345Y-40984D01*
X46524Y-40911D01*
X46550Y-40885D01*
X46550Y-40967D01*
X46456Y-41060D01*
X46346Y-41015D01*
X46154Y-41015D01*
X45975Y-41088D01*
X45839Y-41225D01*
X45765Y-41403D01*
X45765Y-41595D01*
X45838Y-41774D01*
X45975Y-41910D01*
X46153Y-41984D01*
X46345Y-41984D01*
X46524Y-41911D01*
X46660Y-41774D01*
X46734Y-41596D01*
X46734Y-41404D01*
X46718Y-41364D01*
X46826Y-41256D01*
X46765Y-41403D01*
X46765Y-41595D01*
X46838Y-41774D01*
X46975Y-41910D01*
X47153Y-41984D01*
X47345Y-41984D01*
X47524Y-41911D01*
X47660Y-41774D01*
X47734Y-41596D01*
X47734Y-41404D01*
X47661Y-41225D01*
X47524Y-41089D01*
X47346Y-41015D01*
X47154Y-41015D01*
X46975Y-41088D01*
X46928Y-41136D01*
X46934Y-41126D01*
X46934Y-41126D01*
X46950Y-41050D01*
X46950Y-40984D01*
X47614Y-40984D01*
X47669Y-40961D01*
X47711Y-40919D01*
X47734Y-40864D01*
X47734Y-40804D01*
X47734Y-40135D01*
X47721Y-40104D01*
X48025Y-40407D01*
X48025Y-40600D01*
X48025Y-42925D01*
X48025Y-43017D01*
X47517Y-43525D01*
X46425Y-43525D01*
X46348Y-43540D01*
X46283Y-43583D01*
X46267Y-43600D01*
X46190Y-43599D01*
X46080Y-43645D01*
X45995Y-43729D01*
X45950Y-43840D01*
X45949Y-43959D01*
X45987Y-44050D01*
X45735Y-44050D01*
X45735Y-41590D01*
X45734Y-41504D01*
X45734Y-40404D01*
X45661Y-40225D01*
X45524Y-40089D01*
X45346Y-40015D01*
X45154Y-40015D01*
X44975Y-40088D01*
X44839Y-40225D01*
X44765Y-40403D01*
X44765Y-40595D01*
X44838Y-40774D01*
X44975Y-40910D01*
X45153Y-40984D01*
X45345Y-40984D01*
X45524Y-40911D01*
X45660Y-40774D01*
X45734Y-40596D01*
X45734Y-40404D01*
X45734Y-41504D01*
X45733Y-41398D01*
X45663Y-41230D01*
X45590Y-41195D01*
X45554Y-41230D01*
X45554Y-41159D01*
X45519Y-41086D01*
X45340Y-41014D01*
X45148Y-41016D01*
X44980Y-41086D01*
X44945Y-41159D01*
X45250Y-41464D01*
X45554Y-41159D01*
X45554Y-41230D01*
X45285Y-41500D01*
X45590Y-41804D01*
X45663Y-41769D01*
X45735Y-41590D01*
X45735Y-44050D01*
X45554Y-44050D01*
X45554Y-41840D01*
X45250Y-41535D01*
X45214Y-41570D01*
X45214Y-41500D01*
X44909Y-41195D01*
X44836Y-41230D01*
X44764Y-41409D01*
X44766Y-41601D01*
X44836Y-41769D01*
X44909Y-41804D01*
X45214Y-41500D01*
X45214Y-41570D01*
X44945Y-41840D01*
X44980Y-41913D01*
X45159Y-41985D01*
X45351Y-41983D01*
X45519Y-41913D01*
X45554Y-41840D01*
X45554Y-44050D01*
X45250Y-44050D01*
X45186Y-44062D01*
X45173Y-44065D01*
X45108Y-44108D01*
X44905Y-44311D01*
X44842Y-44285D01*
X44657Y-44284D01*
X44486Y-44355D01*
X44356Y-44486D01*
X44285Y-44657D01*
X44284Y-44842D01*
X44355Y-45013D01*
X44486Y-45143D01*
X44550Y-45170D01*
X44550Y-46579D01*
X44486Y-46605D01*
X44356Y-46736D01*
X44285Y-46907D01*
X44284Y-47092D01*
X44355Y-47263D01*
X44486Y-47393D01*
X44550Y-47420D01*
X44550Y-48829D01*
X44486Y-48855D01*
X44356Y-48986D01*
X44285Y-49157D01*
X44284Y-49342D01*
X44355Y-49513D01*
X44486Y-49643D01*
X44550Y-49670D01*
X44550Y-51079D01*
X44486Y-51105D01*
X44356Y-51236D01*
X44285Y-51407D01*
X44284Y-51592D01*
X44355Y-51763D01*
X44486Y-51893D01*
X44657Y-51964D01*
X44842Y-51965D01*
X45013Y-51894D01*
X45143Y-51763D01*
X45214Y-51592D01*
X45215Y-51407D01*
X45144Y-51236D01*
X45013Y-51106D01*
X44950Y-51079D01*
X44950Y-49670D01*
X45013Y-49644D01*
X45143Y-49513D01*
X45214Y-49342D01*
X45215Y-49157D01*
X45144Y-48986D01*
X45013Y-48856D01*
X44950Y-48829D01*
X44950Y-47420D01*
X45013Y-47394D01*
X45143Y-47263D01*
X45214Y-47092D01*
X45215Y-46907D01*
X45144Y-46736D01*
X45013Y-46606D01*
X44950Y-46579D01*
X44950Y-45170D01*
X45013Y-45144D01*
X45143Y-45013D01*
X45214Y-44842D01*
X45215Y-44657D01*
X45188Y-44594D01*
X45332Y-44450D01*
X45392Y-44450D01*
X45356Y-44486D01*
X45285Y-44657D01*
X45284Y-44842D01*
X45355Y-45013D01*
X45486Y-45143D01*
X45657Y-45214D01*
X45842Y-45215D01*
X45959Y-45166D01*
X45950Y-45190D01*
X45949Y-45309D01*
X45995Y-45419D01*
X46050Y-45474D01*
X46050Y-46642D01*
X46013Y-46606D01*
X45842Y-46535D01*
X45657Y-46534D01*
X45486Y-46605D01*
X45356Y-46736D01*
X45285Y-46907D01*
X45284Y-47092D01*
X45355Y-47263D01*
X45486Y-47393D01*
X45657Y-47464D01*
X45842Y-47465D01*
X45959Y-47416D01*
X45950Y-47440D01*
X45949Y-47559D01*
X45995Y-47669D01*
X46079Y-47754D01*
X46190Y-47799D01*
X46309Y-47800D01*
X46419Y-47754D01*
X46504Y-47670D01*
X46549Y-47559D01*
X46550Y-47500D01*
X46550Y-48829D01*
X46486Y-48855D01*
X46356Y-48986D01*
X46285Y-49157D01*
X46284Y-49342D01*
X46355Y-49513D01*
X46486Y-49643D01*
X46550Y-49670D01*
X46550Y-51079D01*
X46486Y-51105D01*
X46356Y-51236D01*
X46285Y-51407D01*
X46284Y-51592D01*
X46355Y-51763D01*
X46486Y-51893D01*
X46657Y-51964D01*
X46842Y-51965D01*
X47013Y-51894D01*
X47143Y-51763D01*
X47214Y-51592D01*
X47215Y-51407D01*
X47144Y-51236D01*
X47013Y-51106D01*
X46950Y-51079D01*
X46950Y-49670D01*
X47013Y-49644D01*
X47143Y-49513D01*
X47214Y-49342D01*
X47215Y-49157D01*
X47144Y-48986D01*
X47013Y-48856D01*
X46950Y-48829D01*
X46950Y-47420D01*
X47013Y-47394D01*
X47143Y-47263D01*
X47214Y-47092D01*
X47215Y-46907D01*
X47144Y-46736D01*
X47013Y-46606D01*
X46950Y-46579D01*
X46950Y-45170D01*
X47013Y-45144D01*
X47143Y-45013D01*
X47214Y-44842D01*
X47215Y-44657D01*
X47144Y-44488D01*
X47232Y-44400D01*
X47442Y-44400D01*
X47356Y-44486D01*
X47285Y-44657D01*
X47284Y-44842D01*
X47355Y-45013D01*
X47486Y-45143D01*
X47657Y-45214D01*
X47842Y-45215D01*
X48013Y-45144D01*
X48143Y-45013D01*
X48214Y-44842D01*
X48215Y-44657D01*
X48144Y-44486D01*
X48057Y-44400D01*
X48442Y-44400D01*
X48356Y-44486D01*
X48285Y-44657D01*
X48284Y-44842D01*
X48355Y-45013D01*
X48486Y-45143D01*
X48550Y-45170D01*
X48550Y-46579D01*
X48486Y-46605D01*
X48356Y-46736D01*
X48285Y-46907D01*
X48284Y-47092D01*
X48355Y-47263D01*
X48486Y-47393D01*
X48550Y-47420D01*
X48550Y-48829D01*
X48486Y-48855D01*
X48356Y-48986D01*
X48285Y-49157D01*
X48284Y-49342D01*
X48355Y-49513D01*
X48486Y-49643D01*
X48550Y-49670D01*
X48550Y-51079D01*
X48486Y-51105D01*
X48356Y-51236D01*
X48285Y-51407D01*
X48284Y-51592D01*
X48355Y-51763D01*
X48486Y-51893D01*
X48657Y-51964D01*
X48842Y-51965D01*
X49013Y-51894D01*
X49143Y-51763D01*
X49214Y-51592D01*
X49215Y-51407D01*
X49144Y-51236D01*
X49013Y-51106D01*
X48950Y-51079D01*
X48950Y-49670D01*
X49013Y-49644D01*
X49143Y-49513D01*
X49214Y-49342D01*
X49215Y-49157D01*
X49144Y-48986D01*
X49013Y-48856D01*
X48950Y-48829D01*
X48950Y-47420D01*
X49013Y-47394D01*
X49143Y-47263D01*
X49214Y-47092D01*
X49215Y-46907D01*
X49144Y-46736D01*
X49013Y-46606D01*
X48950Y-46579D01*
X48950Y-45170D01*
X49013Y-45144D01*
X49143Y-45013D01*
X49214Y-44842D01*
X49215Y-44657D01*
X49144Y-44486D01*
X49070Y-44412D01*
X49932Y-43550D01*
X51467Y-43550D01*
X50732Y-44285D01*
X50657Y-44284D01*
X50486Y-44355D01*
X50356Y-44486D01*
X50285Y-44657D01*
X50284Y-44842D01*
X50355Y-45013D01*
X50486Y-45143D01*
X50550Y-45170D01*
X50550Y-46579D01*
X50486Y-46605D01*
X50356Y-46736D01*
X50285Y-46907D01*
X50284Y-47092D01*
X50355Y-47263D01*
X50486Y-47393D01*
X50550Y-47420D01*
X50550Y-48829D01*
X50486Y-48855D01*
X50356Y-48986D01*
X50285Y-49157D01*
X50284Y-49342D01*
X50355Y-49513D01*
X50486Y-49643D01*
X50550Y-49670D01*
X50550Y-51079D01*
X50486Y-51105D01*
X50356Y-51236D01*
X50285Y-51407D01*
X50284Y-51592D01*
X50355Y-51763D01*
X50486Y-51893D01*
X50657Y-51964D01*
X50842Y-51965D01*
X51013Y-51894D01*
X51143Y-51763D01*
X51214Y-51592D01*
X51215Y-51407D01*
X51144Y-51236D01*
X51013Y-51106D01*
X50950Y-51079D01*
X50950Y-49670D01*
X51013Y-49644D01*
X51143Y-49513D01*
X51214Y-49342D01*
X51215Y-49157D01*
X51144Y-48986D01*
X51013Y-48856D01*
X50950Y-48829D01*
X50950Y-47420D01*
X51013Y-47394D01*
X51143Y-47263D01*
X51214Y-47092D01*
X51215Y-46907D01*
X51144Y-46736D01*
X51013Y-46606D01*
X50950Y-46579D01*
X50950Y-45170D01*
X51013Y-45144D01*
X51143Y-45013D01*
X51214Y-44842D01*
X51215Y-44657D01*
X51144Y-44486D01*
X51120Y-44462D01*
X51782Y-43800D01*
X53067Y-43800D01*
X52608Y-44258D01*
X52565Y-44323D01*
X52486Y-44355D01*
X52356Y-44486D01*
X52285Y-44657D01*
X52284Y-44842D01*
X52355Y-45013D01*
X52486Y-45143D01*
X52550Y-45170D01*
X52550Y-46579D01*
X52486Y-46605D01*
X52356Y-46736D01*
X52285Y-46907D01*
X52284Y-47092D01*
X52355Y-47263D01*
X52486Y-47393D01*
X52550Y-47420D01*
X52550Y-48829D01*
X52486Y-48855D01*
X52356Y-48986D01*
X52285Y-49157D01*
X52284Y-49342D01*
X52355Y-49513D01*
X52486Y-49643D01*
X52550Y-49670D01*
X52550Y-51079D01*
X52486Y-51105D01*
X52356Y-51236D01*
X52285Y-51407D01*
X52284Y-51592D01*
X52355Y-51763D01*
X52486Y-51893D01*
X52657Y-51964D01*
X52842Y-51965D01*
X53013Y-51894D01*
X53143Y-51763D01*
X53214Y-51592D01*
X53215Y-51407D01*
X53144Y-51236D01*
X53013Y-51106D01*
X52950Y-51079D01*
X52950Y-49670D01*
X53013Y-49644D01*
X53143Y-49513D01*
X53214Y-49342D01*
X53215Y-49157D01*
X53144Y-48986D01*
X53013Y-48856D01*
X52950Y-48829D01*
X52950Y-47420D01*
X53013Y-47394D01*
X53143Y-47263D01*
X53214Y-47092D01*
X53215Y-46907D01*
X53144Y-46736D01*
X53013Y-46606D01*
X52950Y-46579D01*
X52950Y-45170D01*
X53013Y-45144D01*
X53143Y-45013D01*
X53214Y-44842D01*
X53215Y-44657D01*
X53144Y-44486D01*
X53045Y-44387D01*
X53382Y-44050D01*
X53500Y-44050D01*
X54375Y-44050D01*
X54451Y-44034D01*
X54516Y-43991D01*
X54550Y-43957D01*
X54550Y-44329D01*
X54486Y-44355D01*
X54356Y-44486D01*
X54285Y-44657D01*
X54284Y-44842D01*
X54355Y-45013D01*
X54486Y-45143D01*
X54550Y-45170D01*
X54550Y-46579D01*
X54486Y-46605D01*
X54356Y-46736D01*
X54285Y-46907D01*
X54284Y-47092D01*
X54355Y-47263D01*
X54486Y-47393D01*
X54550Y-47420D01*
X54550Y-48829D01*
X54486Y-48855D01*
X54356Y-48986D01*
X54285Y-49157D01*
X54284Y-49342D01*
X54355Y-49513D01*
X54486Y-49643D01*
X54550Y-49670D01*
X54550Y-51079D01*
X54486Y-51105D01*
X54356Y-51236D01*
X54285Y-51407D01*
X54284Y-51592D01*
X54355Y-51763D01*
X54486Y-51893D01*
X54657Y-51964D01*
X54842Y-51965D01*
X55013Y-51894D01*
X55143Y-51763D01*
X55214Y-51592D01*
X55215Y-51407D01*
X55144Y-51236D01*
X55013Y-51106D01*
X54950Y-51079D01*
X54950Y-49670D01*
X55013Y-49644D01*
X55143Y-49513D01*
X55214Y-49342D01*
X55215Y-49157D01*
X55144Y-48986D01*
X55013Y-48856D01*
X54950Y-48829D01*
X54950Y-47420D01*
X55013Y-47394D01*
X55143Y-47263D01*
X55214Y-47092D01*
X55215Y-46907D01*
X55144Y-46736D01*
X55013Y-46606D01*
X54950Y-46579D01*
X54950Y-45170D01*
X55013Y-45144D01*
X55143Y-45013D01*
X55214Y-44842D01*
X55215Y-44657D01*
X55144Y-44486D01*
X55013Y-44356D01*
X54950Y-44329D01*
X54950Y-43882D01*
X55625Y-43207D01*
X55625Y-43875D01*
X55640Y-43951D01*
X55683Y-44016D01*
X56296Y-44629D01*
X56285Y-44657D01*
X56284Y-44842D01*
X56355Y-45013D01*
X56486Y-45143D01*
X56550Y-45170D01*
X56550Y-46579D01*
X56486Y-46605D01*
X56356Y-46736D01*
X56285Y-46907D01*
X56284Y-47092D01*
X56355Y-47263D01*
X56486Y-47393D01*
X56550Y-47420D01*
X56550Y-48829D01*
X56486Y-48855D01*
X56356Y-48986D01*
X56285Y-49157D01*
X56284Y-49342D01*
X56355Y-49513D01*
X56486Y-49643D01*
X56550Y-49670D01*
X56550Y-51079D01*
X56486Y-51105D01*
X56356Y-51236D01*
X56285Y-51407D01*
X56284Y-51592D01*
X56355Y-51763D01*
X56486Y-51893D01*
X56657Y-51964D01*
X56842Y-51965D01*
X56959Y-51916D01*
X56950Y-51940D01*
X56949Y-52059D01*
X56995Y-52169D01*
X57079Y-52254D01*
X57190Y-52299D01*
X57309Y-52300D01*
X57419Y-52254D01*
X57504Y-52170D01*
X57549Y-52059D01*
X57550Y-51940D01*
X57539Y-51916D01*
X57657Y-51964D01*
X57842Y-51965D01*
X58013Y-51894D01*
X58143Y-51763D01*
X58214Y-51592D01*
X58215Y-51407D01*
X58144Y-51236D01*
X58013Y-51106D01*
X57842Y-51035D01*
X57657Y-51034D01*
X57486Y-51105D01*
X57450Y-51142D01*
X57450Y-51100D01*
X57450Y-49607D01*
X57486Y-49643D01*
X57657Y-49714D01*
X57842Y-49715D01*
X58013Y-49644D01*
X58143Y-49513D01*
X58214Y-49342D01*
X58215Y-49157D01*
X58144Y-48986D01*
X58013Y-48856D01*
X57842Y-48785D01*
X57657Y-48784D01*
X57486Y-48855D01*
X57450Y-48892D01*
X57450Y-47357D01*
X57486Y-47393D01*
X57657Y-47464D01*
X57842Y-47465D01*
X58013Y-47394D01*
X58143Y-47263D01*
X58214Y-47092D01*
X58215Y-46907D01*
X58144Y-46736D01*
X58013Y-46606D01*
X57842Y-46535D01*
X57657Y-46534D01*
X57486Y-46605D01*
X57450Y-46642D01*
X57450Y-46325D01*
X57450Y-45107D01*
X57486Y-45143D01*
X57657Y-45214D01*
X57842Y-45215D01*
X58013Y-45144D01*
X58143Y-45013D01*
X58214Y-44842D01*
X58215Y-44657D01*
X58144Y-44486D01*
X58013Y-44356D01*
X57842Y-44285D01*
X57657Y-44284D01*
X57486Y-44355D01*
X57448Y-44393D01*
X57434Y-44323D01*
X57391Y-44258D01*
X57141Y-44008D01*
X57076Y-43965D01*
X57000Y-43950D01*
X56982Y-43950D01*
X57482Y-43450D01*
X57525Y-43450D01*
X57495Y-43479D01*
X57450Y-43590D01*
X57449Y-43709D01*
X57495Y-43819D01*
X57579Y-43904D01*
X57690Y-43949D01*
X57809Y-43950D01*
X57919Y-43904D01*
X57974Y-43850D01*
X58367Y-43850D01*
X59400Y-44882D01*
X59400Y-46800D01*
X59415Y-46876D01*
X59458Y-46941D01*
X59700Y-47182D01*
X59699Y-47259D01*
X59745Y-47369D01*
X59829Y-47454D01*
X59940Y-47499D01*
X60059Y-47500D01*
X60169Y-47454D01*
X60254Y-47370D01*
X60299Y-47259D01*
X60300Y-47140D01*
X60300Y-50585D01*
X60237Y-50522D01*
X59921Y-50391D01*
X59579Y-50391D01*
X59264Y-50521D01*
X59022Y-50762D01*
X58891Y-51078D01*
X58891Y-51420D01*
X59021Y-51735D01*
X59262Y-51977D01*
X59578Y-52108D01*
X59920Y-52108D01*
X60235Y-51978D01*
X60477Y-51737D01*
X60608Y-51421D01*
X60608Y-51079D01*
X60608Y-52830D01*
X56215Y-52830D01*
X56215Y-51407D01*
X56215Y-49157D01*
X56215Y-46907D01*
X56215Y-44657D01*
X56144Y-44486D01*
X56013Y-44356D01*
X55842Y-44285D01*
X55657Y-44284D01*
X55486Y-44355D01*
X55356Y-44486D01*
X55285Y-44657D01*
X55284Y-44842D01*
X55355Y-45013D01*
X55486Y-45143D01*
X55657Y-45214D01*
X55842Y-45215D01*
X56013Y-45144D01*
X56143Y-45013D01*
X56214Y-44842D01*
X56215Y-44657D01*
X56215Y-46907D01*
X56144Y-46736D01*
X56013Y-46606D01*
X55842Y-46535D01*
X55657Y-46534D01*
X55486Y-46605D01*
X55356Y-46736D01*
X55285Y-46907D01*
X55284Y-47092D01*
X55355Y-47263D01*
X55486Y-47393D01*
X55657Y-47464D01*
X55842Y-47465D01*
X56013Y-47394D01*
X56143Y-47263D01*
X56214Y-47092D01*
X56215Y-46907D01*
X56215Y-49157D01*
X56144Y-48986D01*
X56013Y-48856D01*
X55842Y-48785D01*
X55657Y-48784D01*
X55486Y-48855D01*
X55356Y-48986D01*
X55285Y-49157D01*
X55284Y-49342D01*
X55355Y-49513D01*
X55486Y-49643D01*
X55657Y-49714D01*
X55842Y-49715D01*
X56013Y-49644D01*
X56143Y-49513D01*
X56214Y-49342D01*
X56215Y-49157D01*
X56215Y-51407D01*
X56144Y-51236D01*
X56013Y-51106D01*
X55842Y-51035D01*
X55657Y-51034D01*
X55486Y-51105D01*
X55356Y-51236D01*
X55285Y-51407D01*
X55284Y-51592D01*
X55355Y-51763D01*
X55486Y-51893D01*
X55657Y-51964D01*
X55842Y-51965D01*
X56013Y-51894D01*
X56143Y-51763D01*
X56214Y-51592D01*
X56215Y-51407D01*
X56215Y-52830D01*
X54215Y-52830D01*
X54215Y-51407D01*
X54215Y-49157D01*
X54215Y-46907D01*
X54215Y-44657D01*
X54144Y-44486D01*
X54013Y-44356D01*
X53842Y-44285D01*
X53657Y-44284D01*
X53486Y-44355D01*
X53356Y-44486D01*
X53285Y-44657D01*
X53284Y-44842D01*
X53355Y-45013D01*
X53486Y-45143D01*
X53657Y-45214D01*
X53842Y-45215D01*
X54013Y-45144D01*
X54143Y-45013D01*
X54214Y-44842D01*
X54215Y-44657D01*
X54215Y-46907D01*
X54144Y-46736D01*
X54013Y-46606D01*
X53842Y-46535D01*
X53657Y-46534D01*
X53486Y-46605D01*
X53356Y-46736D01*
X53285Y-46907D01*
X53284Y-47092D01*
X53355Y-47263D01*
X53486Y-47393D01*
X53657Y-47464D01*
X53842Y-47465D01*
X54013Y-47394D01*
X54143Y-47263D01*
X54214Y-47092D01*
X54215Y-46907D01*
X54215Y-49157D01*
X54144Y-48986D01*
X54013Y-48856D01*
X53842Y-48785D01*
X53657Y-48784D01*
X53486Y-48855D01*
X53356Y-48986D01*
X53285Y-49157D01*
X53284Y-49342D01*
X53355Y-49513D01*
X53486Y-49643D01*
X53657Y-49714D01*
X53842Y-49715D01*
X54013Y-49644D01*
X54143Y-49513D01*
X54214Y-49342D01*
X54215Y-49157D01*
X54215Y-51407D01*
X54144Y-51236D01*
X54013Y-51106D01*
X53842Y-51035D01*
X53657Y-51034D01*
X53486Y-51105D01*
X53356Y-51236D01*
X53285Y-51407D01*
X53284Y-51592D01*
X53355Y-51763D01*
X53486Y-51893D01*
X53657Y-51964D01*
X53842Y-51965D01*
X54013Y-51894D01*
X54143Y-51763D01*
X54214Y-51592D01*
X54215Y-51407D01*
X54215Y-52830D01*
X52215Y-52830D01*
X52215Y-51407D01*
X52215Y-49157D01*
X52215Y-46907D01*
X52215Y-44657D01*
X52144Y-44486D01*
X52013Y-44356D01*
X51842Y-44285D01*
X51657Y-44284D01*
X51486Y-44355D01*
X51356Y-44486D01*
X51285Y-44657D01*
X51284Y-44842D01*
X51355Y-45013D01*
X51486Y-45143D01*
X51657Y-45214D01*
X51842Y-45215D01*
X52013Y-45144D01*
X52143Y-45013D01*
X52214Y-44842D01*
X52215Y-44657D01*
X52215Y-46907D01*
X52144Y-46736D01*
X52013Y-46606D01*
X51842Y-46535D01*
X51657Y-46534D01*
X51486Y-46605D01*
X51356Y-46736D01*
X51285Y-46907D01*
X51284Y-47092D01*
X51355Y-47263D01*
X51486Y-47393D01*
X51657Y-47464D01*
X51842Y-47465D01*
X52013Y-47394D01*
X52143Y-47263D01*
X52214Y-47092D01*
X52215Y-46907D01*
X52215Y-49157D01*
X52144Y-48986D01*
X52013Y-48856D01*
X51842Y-48785D01*
X51657Y-48784D01*
X51486Y-48855D01*
X51356Y-48986D01*
X51285Y-49157D01*
X51284Y-49342D01*
X51355Y-49513D01*
X51486Y-49643D01*
X51657Y-49714D01*
X51842Y-49715D01*
X52013Y-49644D01*
X52143Y-49513D01*
X52214Y-49342D01*
X52215Y-49157D01*
X52215Y-51407D01*
X52144Y-51236D01*
X52013Y-51106D01*
X51842Y-51035D01*
X51657Y-51034D01*
X51486Y-51105D01*
X51356Y-51236D01*
X51285Y-51407D01*
X51284Y-51592D01*
X51355Y-51763D01*
X51486Y-51893D01*
X51657Y-51964D01*
X51842Y-51965D01*
X52013Y-51894D01*
X52143Y-51763D01*
X52214Y-51592D01*
X52215Y-51407D01*
X52215Y-52830D01*
X50215Y-52830D01*
X50215Y-51407D01*
X50215Y-49157D01*
X50215Y-46907D01*
X50215Y-44657D01*
X50144Y-44486D01*
X50013Y-44356D01*
X49842Y-44285D01*
X49657Y-44284D01*
X49486Y-44355D01*
X49356Y-44486D01*
X49285Y-44657D01*
X49284Y-44842D01*
X49355Y-45013D01*
X49486Y-45143D01*
X49657Y-45214D01*
X49842Y-45215D01*
X50013Y-45144D01*
X50143Y-45013D01*
X50214Y-44842D01*
X50215Y-44657D01*
X50215Y-46907D01*
X50144Y-46736D01*
X50013Y-46606D01*
X49842Y-46535D01*
X49657Y-46534D01*
X49486Y-46605D01*
X49356Y-46736D01*
X49285Y-46907D01*
X49284Y-47092D01*
X49355Y-47263D01*
X49486Y-47393D01*
X49657Y-47464D01*
X49842Y-47465D01*
X50013Y-47394D01*
X50143Y-47263D01*
X50214Y-47092D01*
X50215Y-46907D01*
X50215Y-49157D01*
X50144Y-48986D01*
X50013Y-48856D01*
X49842Y-48785D01*
X49657Y-48784D01*
X49486Y-48855D01*
X49356Y-48986D01*
X49285Y-49157D01*
X49284Y-49342D01*
X49355Y-49513D01*
X49486Y-49643D01*
X49657Y-49714D01*
X49842Y-49715D01*
X50013Y-49644D01*
X50143Y-49513D01*
X50214Y-49342D01*
X50215Y-49157D01*
X50215Y-51407D01*
X50144Y-51236D01*
X50013Y-51106D01*
X49842Y-51035D01*
X49657Y-51034D01*
X49486Y-51105D01*
X49356Y-51236D01*
X49285Y-51407D01*
X49284Y-51592D01*
X49355Y-51763D01*
X49486Y-51893D01*
X49657Y-51964D01*
X49842Y-51965D01*
X50013Y-51894D01*
X50143Y-51763D01*
X50214Y-51592D01*
X50215Y-51407D01*
X50215Y-52830D01*
X48215Y-52830D01*
X48215Y-51407D01*
X48215Y-49157D01*
X48215Y-46907D01*
X48144Y-46736D01*
X48013Y-46606D01*
X47842Y-46535D01*
X47657Y-46534D01*
X47486Y-46605D01*
X47356Y-46736D01*
X47285Y-46907D01*
X47284Y-47092D01*
X47355Y-47263D01*
X47486Y-47393D01*
X47657Y-47464D01*
X47842Y-47465D01*
X48013Y-47394D01*
X48143Y-47263D01*
X48214Y-47092D01*
X48215Y-46907D01*
X48215Y-49157D01*
X48144Y-48986D01*
X48013Y-48856D01*
X47842Y-48785D01*
X47657Y-48784D01*
X47486Y-48855D01*
X47356Y-48986D01*
X47285Y-49157D01*
X47284Y-49342D01*
X47355Y-49513D01*
X47486Y-49643D01*
X47657Y-49714D01*
X47842Y-49715D01*
X48013Y-49644D01*
X48143Y-49513D01*
X48214Y-49342D01*
X48215Y-49157D01*
X48215Y-51407D01*
X48144Y-51236D01*
X48013Y-51106D01*
X47842Y-51035D01*
X47657Y-51034D01*
X47486Y-51105D01*
X47356Y-51236D01*
X47285Y-51407D01*
X47284Y-51592D01*
X47355Y-51763D01*
X47486Y-51893D01*
X47657Y-51964D01*
X47842Y-51965D01*
X48013Y-51894D01*
X48143Y-51763D01*
X48214Y-51592D01*
X48215Y-51407D01*
X48215Y-52830D01*
X46215Y-52830D01*
X46215Y-51407D01*
X46215Y-49157D01*
X46144Y-48986D01*
X46013Y-48856D01*
X45842Y-48785D01*
X45657Y-48784D01*
X45486Y-48855D01*
X45356Y-48986D01*
X45285Y-49157D01*
X45284Y-49342D01*
X45355Y-49513D01*
X45486Y-49643D01*
X45657Y-49714D01*
X45842Y-49715D01*
X46013Y-49644D01*
X46143Y-49513D01*
X46214Y-49342D01*
X46215Y-49157D01*
X46215Y-51407D01*
X46144Y-51236D01*
X46013Y-51106D01*
X45842Y-51035D01*
X45657Y-51034D01*
X45486Y-51105D01*
X45356Y-51236D01*
X45285Y-51407D01*
X45284Y-51592D01*
X45355Y-51763D01*
X45486Y-51893D01*
X45657Y-51964D01*
X45842Y-51965D01*
X46013Y-51894D01*
X46143Y-51763D01*
X46214Y-51592D01*
X46215Y-51407D01*
X46215Y-52830D01*
X44169Y-52830D01*
X44169Y-29169D01*
X61330Y-29169D01*
X61330Y-52830D01*
M02*
