%FSLAX34Y34*%
G04 Gerber Fmt 3.4, Leading zero omitted, Abs format*
G04 (created by PCBNEW (2014-03-18 BZR 4754)-product) date Tue 01 Apr 2014 07:52:17 PM CDT*
%MOIN*%
G01*
G70*
G90*
G04 APERTURE LIST*
%ADD10C,0.006000*%
%ADD11C,0.147732*%
%ADD12R,0.092614X0.092614*%
%ADD13C,0.092614*%
%ADD14C,0.068992*%
%ADD15R,0.072929X0.072929*%
%ADD16C,0.072929*%
G04 APERTURE END LIST*
G54D10*
G54D11*
X59750Y-51250D03*
X59750Y-30750D03*
G54D12*
X60250Y-42000D03*
G54D13*
X60250Y-40000D03*
G54D14*
X44750Y-30500D03*
X45750Y-30500D03*
X44750Y-32750D03*
X45750Y-32750D03*
X44750Y-35000D03*
X45750Y-35000D03*
X44750Y-37250D03*
X45750Y-37250D03*
X44750Y-44750D03*
X45750Y-44750D03*
X44750Y-47000D03*
X45750Y-47000D03*
X44750Y-49250D03*
X45750Y-49250D03*
X44750Y-51500D03*
X45750Y-51500D03*
X46750Y-30500D03*
X47750Y-30500D03*
X46750Y-32750D03*
X47750Y-32750D03*
X46750Y-35000D03*
X47750Y-35000D03*
X46750Y-37250D03*
X47750Y-37250D03*
X46750Y-44750D03*
X47750Y-44750D03*
X46750Y-47000D03*
X47750Y-47000D03*
X46750Y-49250D03*
X47750Y-49250D03*
X46750Y-51500D03*
X47750Y-51500D03*
X48750Y-30500D03*
X49750Y-30500D03*
X48750Y-32750D03*
X49750Y-32750D03*
X48750Y-35000D03*
X49750Y-35000D03*
X48750Y-37250D03*
X49750Y-37250D03*
X48750Y-44750D03*
X49750Y-44750D03*
X48750Y-47000D03*
X49750Y-47000D03*
X48750Y-49250D03*
X49750Y-49250D03*
X48750Y-51500D03*
X49750Y-51500D03*
X50750Y-30500D03*
X51750Y-30500D03*
X50750Y-32750D03*
X51750Y-32750D03*
X50750Y-35000D03*
X51750Y-35000D03*
X50750Y-37250D03*
X51750Y-37250D03*
X50750Y-44750D03*
X51750Y-44750D03*
X50750Y-47000D03*
X51750Y-47000D03*
X50750Y-49250D03*
X51750Y-49250D03*
X50750Y-51500D03*
X51750Y-51500D03*
X52750Y-30500D03*
X53750Y-30500D03*
X52750Y-32750D03*
X53750Y-32750D03*
X52750Y-35000D03*
X53750Y-35000D03*
X52750Y-37250D03*
X53750Y-37250D03*
X52750Y-44750D03*
X53750Y-44750D03*
X52750Y-47000D03*
X53750Y-47000D03*
X52750Y-49250D03*
X53750Y-49250D03*
X52750Y-51500D03*
X53750Y-51500D03*
X54750Y-30500D03*
X55750Y-30500D03*
X54750Y-32750D03*
X55750Y-32750D03*
X54750Y-35000D03*
X55750Y-35000D03*
X54750Y-37250D03*
X55750Y-37250D03*
X54750Y-44750D03*
X55750Y-44750D03*
X54750Y-47000D03*
X55750Y-47000D03*
X54750Y-49250D03*
X55750Y-49250D03*
X54750Y-51500D03*
X55750Y-51500D03*
X56750Y-30500D03*
X57750Y-30500D03*
X56750Y-32750D03*
X57750Y-32750D03*
X56750Y-35000D03*
X57750Y-35000D03*
X56750Y-37250D03*
X57750Y-37250D03*
X56750Y-44750D03*
X57750Y-44750D03*
X56750Y-47000D03*
X57750Y-47000D03*
X56750Y-49250D03*
X57750Y-49250D03*
X56750Y-51500D03*
X57750Y-51500D03*
G54D15*
X47250Y-40500D03*
G54D16*
X47250Y-41500D03*
X46250Y-40500D03*
X46250Y-41500D03*
X45250Y-40500D03*
X45250Y-41500D03*
M02*
