%FSLAX34Y34*%
G04 Gerber Fmt 3.4, Leading zero omitted, Abs format*
G04 (created by PCBNEW (2014-03-18 BZR 4754)-product) date Tue 01 Apr 2014 07:49:35 PM CDT*
%MOIN*%
G01*
G70*
G90*
G04 APERTURE LIST*
%ADD10C,0.006000*%
%ADD11C,0.141732*%
%ADD12R,0.027559X0.027559*%
%ADD13R,0.062992X0.070866*%
%ADD14R,0.062992X0.011811*%
%ADD15R,0.047244X0.086614*%
%ADD16R,0.137795X0.086614*%
%ADD17R,0.086614X0.086614*%
%ADD18C,0.086614*%
%ADD19C,0.062992*%
%ADD20R,0.066929X0.066929*%
%ADD21C,0.066929*%
%ADD22R,0.025591X0.041732*%
%ADD23R,0.041732X0.025591*%
%ADD24C,0.030000*%
%ADD25C,0.010000*%
G04 APERTURE END LIST*
G54D10*
G54D11*
X59750Y-51250D03*
X59750Y-30750D03*
G54D12*
X48750Y-41275D03*
X48750Y-40724D03*
X53750Y-40724D03*
X53750Y-41275D03*
G54D13*
X59448Y-44000D03*
X60551Y-44000D03*
X60551Y-49250D03*
X59448Y-49250D03*
G54D14*
X50147Y-41895D03*
X50147Y-42151D03*
X50147Y-41639D03*
X50147Y-41383D03*
X50147Y-41127D03*
X50147Y-40872D03*
X50147Y-40616D03*
X50147Y-40360D03*
X52352Y-39848D03*
X52352Y-40104D03*
X52352Y-40360D03*
X52352Y-40616D03*
X52352Y-42151D03*
X52352Y-41895D03*
X52352Y-41639D03*
X52352Y-41383D03*
X52352Y-41127D03*
X52352Y-40872D03*
X50147Y-40104D03*
X50147Y-39848D03*
G54D15*
X60905Y-45529D03*
X60000Y-45529D03*
X59094Y-45529D03*
G54D16*
X60000Y-47970D03*
G54D17*
X60250Y-42000D03*
G54D18*
X60250Y-40000D03*
G54D19*
X44750Y-30500D03*
X45750Y-30500D03*
X44750Y-32750D03*
X45750Y-32750D03*
X44750Y-35000D03*
X45750Y-35000D03*
X44750Y-37250D03*
X45750Y-37250D03*
X44750Y-44750D03*
X45750Y-44750D03*
X44750Y-47000D03*
X45750Y-47000D03*
X44750Y-49250D03*
X45750Y-49250D03*
X44750Y-51500D03*
X45750Y-51500D03*
X46750Y-30500D03*
X47750Y-30500D03*
X46750Y-32750D03*
X47750Y-32750D03*
X46750Y-35000D03*
X47750Y-35000D03*
X46750Y-37250D03*
X47750Y-37250D03*
X46750Y-44750D03*
X47750Y-44750D03*
X46750Y-47000D03*
X47750Y-47000D03*
X46750Y-49250D03*
X47750Y-49250D03*
X46750Y-51500D03*
X47750Y-51500D03*
X48750Y-30500D03*
X49750Y-30500D03*
X48750Y-32750D03*
X49750Y-32750D03*
X48750Y-35000D03*
X49750Y-35000D03*
X48750Y-37250D03*
X49750Y-37250D03*
X48750Y-44750D03*
X49750Y-44750D03*
X48750Y-47000D03*
X49750Y-47000D03*
X48750Y-49250D03*
X49750Y-49250D03*
X48750Y-51500D03*
X49750Y-51500D03*
X50750Y-30500D03*
X51750Y-30500D03*
X50750Y-32750D03*
X51750Y-32750D03*
X50750Y-35000D03*
X51750Y-35000D03*
X50750Y-37250D03*
X51750Y-37250D03*
X50750Y-44750D03*
X51750Y-44750D03*
X50750Y-47000D03*
X51750Y-47000D03*
X50750Y-49250D03*
X51750Y-49250D03*
X50750Y-51500D03*
X51750Y-51500D03*
X52750Y-30500D03*
X53750Y-30500D03*
X52750Y-32750D03*
X53750Y-32750D03*
X52750Y-35000D03*
X53750Y-35000D03*
X52750Y-37250D03*
X53750Y-37250D03*
X52750Y-44750D03*
X53750Y-44750D03*
X52750Y-47000D03*
X53750Y-47000D03*
X52750Y-49250D03*
X53750Y-49250D03*
X52750Y-51500D03*
X53750Y-51500D03*
X54750Y-30500D03*
X55750Y-30500D03*
X54750Y-32750D03*
X55750Y-32750D03*
X54750Y-35000D03*
X55750Y-35000D03*
X54750Y-37250D03*
X55750Y-37250D03*
X54750Y-44750D03*
X55750Y-44750D03*
X54750Y-47000D03*
X55750Y-47000D03*
X54750Y-49250D03*
X55750Y-49250D03*
X54750Y-51500D03*
X55750Y-51500D03*
X56750Y-30500D03*
X57750Y-30500D03*
X56750Y-32750D03*
X57750Y-32750D03*
X56750Y-35000D03*
X57750Y-35000D03*
X56750Y-37250D03*
X57750Y-37250D03*
X56750Y-44750D03*
X57750Y-44750D03*
X56750Y-47000D03*
X57750Y-47000D03*
X56750Y-49250D03*
X57750Y-49250D03*
X56750Y-51500D03*
X57750Y-51500D03*
G54D20*
X47250Y-40500D03*
G54D21*
X47250Y-41500D03*
X46250Y-40500D03*
X46250Y-41500D03*
X45250Y-40500D03*
X45250Y-41500D03*
G54D22*
X45624Y-43066D03*
X45250Y-43933D03*
X44875Y-43066D03*
X47624Y-43066D03*
X47250Y-43933D03*
X46875Y-43066D03*
X56875Y-38933D03*
X57250Y-38066D03*
X57624Y-38933D03*
X54875Y-38933D03*
X55250Y-38066D03*
X55624Y-38933D03*
X49624Y-43066D03*
X49250Y-43933D03*
X48875Y-43066D03*
X51624Y-43066D03*
X51250Y-43933D03*
X50875Y-43066D03*
X52875Y-38933D03*
X53250Y-38066D03*
X53624Y-38933D03*
X50875Y-38933D03*
X51250Y-38066D03*
X51624Y-38933D03*
X53624Y-43066D03*
X53250Y-43933D03*
X52875Y-43066D03*
X55624Y-43066D03*
X55250Y-43933D03*
X54875Y-43066D03*
X48875Y-38933D03*
X49250Y-38066D03*
X49624Y-38933D03*
X46875Y-38933D03*
X47250Y-38066D03*
X47624Y-38933D03*
X57624Y-43066D03*
X57250Y-43933D03*
X56875Y-43066D03*
X44875Y-38933D03*
X45250Y-38066D03*
X45624Y-38933D03*
G54D23*
X55066Y-40625D03*
X55933Y-41000D03*
X55066Y-41374D03*
G54D12*
X45525Y-29500D03*
X44974Y-29500D03*
X45525Y-31750D03*
X44974Y-31750D03*
X45525Y-34000D03*
X44974Y-34000D03*
X45525Y-36250D03*
X44974Y-36250D03*
X45525Y-45750D03*
X44974Y-45750D03*
X45525Y-48000D03*
X44974Y-48000D03*
X45525Y-50250D03*
X44974Y-50250D03*
X45525Y-52500D03*
X44974Y-52500D03*
X47525Y-29500D03*
X46974Y-29500D03*
X47525Y-31750D03*
X46974Y-31750D03*
X47525Y-34000D03*
X46974Y-34000D03*
X47525Y-36250D03*
X46974Y-36250D03*
X47525Y-45750D03*
X46974Y-45750D03*
X47525Y-48000D03*
X46974Y-48000D03*
X47525Y-50250D03*
X46974Y-50250D03*
X47525Y-52500D03*
X46974Y-52500D03*
X49525Y-29500D03*
X48974Y-29500D03*
X49525Y-31750D03*
X48974Y-31750D03*
X49525Y-34000D03*
X48974Y-34000D03*
X49525Y-36250D03*
X48974Y-36250D03*
X49525Y-45750D03*
X48974Y-45750D03*
X49525Y-48000D03*
X48974Y-48000D03*
X49525Y-50250D03*
X48974Y-50250D03*
X49525Y-52500D03*
X48974Y-52500D03*
X51525Y-29500D03*
X50974Y-29500D03*
X51525Y-31750D03*
X50974Y-31750D03*
X51525Y-34000D03*
X50974Y-34000D03*
X51525Y-36250D03*
X50974Y-36250D03*
X51525Y-45750D03*
X50974Y-45750D03*
X51525Y-48000D03*
X50974Y-48000D03*
X51525Y-50250D03*
X50974Y-50250D03*
X51525Y-52500D03*
X50974Y-52500D03*
X53525Y-29500D03*
X52974Y-29500D03*
X53525Y-31750D03*
X52974Y-31750D03*
X53525Y-34000D03*
X52974Y-34000D03*
X53525Y-36250D03*
X52974Y-36250D03*
X53525Y-45750D03*
X52974Y-45750D03*
X53525Y-48000D03*
X52974Y-48000D03*
X53525Y-50250D03*
X52974Y-50250D03*
X53525Y-52500D03*
X52974Y-52500D03*
X55525Y-29500D03*
X54974Y-29500D03*
X55525Y-31750D03*
X54974Y-31750D03*
X55525Y-34000D03*
X54974Y-34000D03*
X55525Y-36250D03*
X54974Y-36250D03*
X55525Y-45750D03*
X54974Y-45750D03*
X55525Y-48000D03*
X54974Y-48000D03*
X55525Y-50250D03*
X54974Y-50250D03*
X55525Y-52500D03*
X54974Y-52500D03*
X57525Y-29500D03*
X56974Y-29500D03*
X57525Y-31750D03*
X56974Y-31750D03*
X57525Y-34000D03*
X56974Y-34000D03*
X57525Y-36250D03*
X56974Y-36250D03*
X57525Y-45750D03*
X56974Y-45750D03*
X57525Y-48000D03*
X56974Y-48000D03*
X57525Y-50250D03*
X56974Y-50250D03*
X57525Y-52500D03*
X56974Y-52500D03*
G54D24*
X49500Y-40550D03*
X54100Y-42375D03*
X51700Y-40650D03*
X48650Y-39800D03*
X51450Y-40300D03*
X46500Y-39750D03*
X51200Y-39950D03*
X46000Y-39500D03*
X56250Y-36750D03*
X56250Y-31000D03*
X54250Y-36750D03*
X54250Y-32250D03*
X52250Y-36750D03*
X52250Y-34450D03*
X48250Y-43625D03*
X48150Y-39800D03*
X46250Y-43900D03*
X46250Y-45250D03*
X46250Y-47500D03*
X47700Y-39800D03*
X55950Y-40200D03*
X57250Y-52000D03*
X49400Y-41500D03*
X53050Y-40750D03*
X56600Y-41475D03*
X57750Y-43650D03*
X60000Y-47200D03*
X55425Y-40100D03*
X60000Y-44750D03*
G54D25*
X45750Y-41000D02*
X47550Y-41000D01*
X45250Y-40500D02*
X45750Y-41000D01*
X47800Y-41000D02*
X48225Y-40575D01*
X48225Y-40575D02*
X48400Y-40400D01*
X47550Y-41000D02*
X47800Y-41000D01*
X49651Y-39848D02*
X49100Y-40400D01*
X49100Y-40400D02*
X48400Y-40400D01*
X50147Y-39848D02*
X49651Y-39848D01*
X50147Y-42151D02*
X47698Y-42151D01*
X45624Y-42725D02*
X45800Y-42550D01*
X45800Y-42550D02*
X47300Y-42550D01*
X47300Y-42550D02*
X47698Y-42151D01*
X45624Y-43066D02*
X45624Y-42725D01*
X47624Y-42575D02*
X47800Y-42400D01*
X47800Y-42400D02*
X50600Y-42400D01*
X50600Y-42400D02*
X50700Y-42300D01*
X50700Y-42300D02*
X50700Y-42000D01*
X50700Y-42000D02*
X50595Y-41895D01*
X50595Y-41895D02*
X50147Y-41895D01*
X47624Y-43066D02*
X47624Y-42575D01*
X50689Y-41639D02*
X50950Y-41900D01*
X50950Y-41900D02*
X50950Y-42400D01*
X50950Y-42400D02*
X50700Y-42650D01*
X50700Y-42650D02*
X49750Y-42650D01*
X49750Y-42650D02*
X49624Y-42775D01*
X49624Y-42775D02*
X49624Y-43066D01*
X50147Y-41639D02*
X50689Y-41639D01*
X50783Y-41383D02*
X51200Y-41800D01*
X51200Y-41800D02*
X51200Y-42400D01*
X51200Y-42400D02*
X51624Y-42824D01*
X51624Y-42824D02*
X51624Y-43066D01*
X50147Y-41383D02*
X50783Y-41383D01*
X53624Y-42774D02*
X53500Y-42650D01*
X53500Y-42650D02*
X51750Y-42650D01*
X51750Y-42650D02*
X51450Y-42350D01*
X51450Y-42350D02*
X51450Y-41700D01*
X51450Y-41700D02*
X50800Y-41050D01*
X50800Y-41050D02*
X50800Y-40750D01*
X50800Y-40750D02*
X50666Y-40616D01*
X50666Y-40616D02*
X50147Y-40616D01*
X53624Y-43066D02*
X53624Y-42774D01*
X50710Y-40360D02*
X51050Y-40700D01*
X51050Y-40700D02*
X51050Y-40950D01*
X51050Y-40950D02*
X51700Y-41600D01*
X51700Y-41600D02*
X51700Y-42300D01*
X51700Y-42300D02*
X51800Y-42400D01*
X51800Y-42400D02*
X53000Y-42400D01*
X50147Y-40360D02*
X50710Y-40360D01*
X55624Y-42874D02*
X55450Y-42700D01*
X55624Y-43066D02*
X55624Y-42874D01*
X53650Y-42400D02*
X53950Y-42700D01*
X53950Y-42700D02*
X55450Y-42700D01*
X53000Y-42400D02*
X53650Y-42400D01*
X49795Y-40104D02*
X50147Y-40104D01*
X49500Y-40400D02*
X49500Y-40550D01*
X49795Y-40104D02*
X49500Y-40400D01*
X57624Y-43066D02*
X57624Y-42799D01*
X54100Y-42375D02*
X54200Y-42475D01*
X54200Y-42475D02*
X55700Y-42475D01*
X55700Y-42475D02*
X55900Y-42675D01*
X55900Y-42675D02*
X57500Y-42675D01*
X57500Y-42675D02*
X57624Y-42799D01*
X53373Y-42151D02*
X53500Y-42025D01*
X53500Y-42025D02*
X54125Y-42025D01*
X52352Y-42151D02*
X53373Y-42151D01*
X54250Y-42025D02*
X54475Y-42250D01*
X54475Y-42250D02*
X55600Y-42250D01*
X54125Y-42025D02*
X54250Y-42025D01*
X56900Y-40700D02*
X56900Y-38957D01*
X56900Y-38957D02*
X56875Y-38933D01*
X55600Y-42250D02*
X55700Y-42250D01*
X55700Y-42250D02*
X56350Y-42250D01*
X57325Y-41125D02*
X56900Y-40700D01*
X56350Y-42250D02*
X56425Y-42250D01*
X56907Y-42250D02*
X57375Y-41782D01*
X57375Y-41782D02*
X57375Y-41175D01*
X57375Y-41175D02*
X57325Y-41125D01*
X56425Y-42250D02*
X56907Y-42250D01*
X55600Y-42025D02*
X55775Y-42025D01*
X54125Y-41800D02*
X54350Y-41800D01*
X54575Y-42025D02*
X55600Y-42025D01*
X54350Y-41800D02*
X54575Y-42025D01*
X52352Y-41895D02*
X53329Y-41895D01*
X53425Y-41800D02*
X54125Y-41800D01*
X53329Y-41895D02*
X53425Y-41800D01*
X55775Y-42025D02*
X56275Y-42025D01*
X56250Y-39500D02*
X55442Y-39500D01*
X55442Y-39500D02*
X54875Y-38933D01*
X56675Y-40625D02*
X56675Y-39925D01*
X56675Y-39925D02*
X56250Y-39500D01*
X56675Y-40775D02*
X57150Y-41250D01*
X56675Y-40625D02*
X56675Y-40775D01*
X56850Y-42025D02*
X57150Y-41725D01*
X57150Y-41725D02*
X57150Y-41250D01*
X56275Y-42025D02*
X56850Y-42025D01*
X53050Y-39400D02*
X52875Y-39225D01*
X52875Y-39225D02*
X52875Y-38933D01*
X56100Y-39750D02*
X55750Y-39750D01*
X56450Y-40100D02*
X56100Y-39750D01*
X55750Y-39750D02*
X55500Y-39750D01*
X53260Y-41639D02*
X53325Y-41575D01*
X53325Y-41575D02*
X54100Y-41575D01*
X52352Y-41639D02*
X53260Y-41639D01*
X54450Y-41575D02*
X54675Y-41800D01*
X54675Y-41800D02*
X55600Y-41800D01*
X54100Y-41575D02*
X54450Y-41575D01*
X56450Y-40675D02*
X56450Y-40100D01*
X55600Y-41800D02*
X56125Y-41800D01*
X56925Y-41350D02*
X56450Y-40875D01*
X56450Y-40875D02*
X56450Y-40675D01*
X56125Y-41800D02*
X56425Y-41800D01*
X56750Y-41800D02*
X56925Y-41625D01*
X56925Y-41625D02*
X56925Y-41350D01*
X56425Y-41800D02*
X56750Y-41800D01*
X55325Y-39750D02*
X54875Y-40200D01*
X54875Y-40200D02*
X54425Y-40200D01*
X54425Y-40200D02*
X53825Y-39600D01*
X53825Y-39600D02*
X53250Y-39600D01*
X53250Y-39600D02*
X53050Y-39400D01*
X55500Y-39750D02*
X55325Y-39750D01*
X52701Y-39400D02*
X52875Y-39225D01*
X49025Y-40175D02*
X49300Y-39900D01*
X48300Y-40175D02*
X49025Y-40175D01*
X47975Y-40500D02*
X48300Y-40175D01*
X50150Y-39050D02*
X49300Y-39900D01*
X50150Y-38850D02*
X50150Y-39050D01*
X50500Y-38500D02*
X50150Y-38850D01*
X51075Y-38500D02*
X50500Y-38500D01*
X47250Y-40500D02*
X47975Y-40500D01*
X51425Y-39400D02*
X51275Y-39250D01*
X51275Y-39250D02*
X51275Y-38700D01*
X51275Y-38700D02*
X51075Y-38500D01*
X51425Y-39400D02*
X52701Y-39400D01*
X51833Y-41383D02*
X51300Y-40850D01*
X51300Y-40850D02*
X51300Y-40600D01*
X51300Y-40600D02*
X50875Y-40175D01*
X50875Y-40175D02*
X50875Y-38933D01*
X52352Y-41383D02*
X51833Y-41383D01*
X52352Y-40616D02*
X51733Y-40616D01*
X51733Y-40616D02*
X51700Y-40650D01*
X48650Y-39500D02*
X48875Y-39274D01*
X48875Y-39274D02*
X48875Y-38933D01*
X48650Y-39800D02*
X48650Y-39500D01*
X51860Y-40360D02*
X51800Y-40300D01*
X51800Y-40300D02*
X51450Y-40300D01*
X52352Y-40360D02*
X51860Y-40360D01*
X46500Y-39750D02*
X46875Y-39374D01*
X46875Y-39374D02*
X46875Y-38933D01*
X46250Y-40000D02*
X46500Y-39750D01*
X46250Y-40500D02*
X46250Y-40000D01*
X51904Y-40104D02*
X51750Y-39950D01*
X51750Y-39950D02*
X51200Y-39950D01*
X52352Y-40104D02*
X51904Y-40104D01*
X46000Y-39500D02*
X45250Y-39500D01*
X45250Y-39500D02*
X44875Y-39125D01*
X44875Y-39125D02*
X44875Y-38933D01*
X53748Y-39848D02*
X54525Y-40625D01*
X54525Y-40625D02*
X55066Y-40625D01*
X52352Y-39848D02*
X53748Y-39848D01*
X45250Y-44200D02*
X45250Y-43933D01*
X44750Y-44700D02*
X45250Y-44200D01*
X44750Y-44750D02*
X44750Y-44700D01*
X47250Y-43933D02*
X47250Y-44250D01*
X47250Y-44250D02*
X46750Y-44750D01*
X49250Y-43933D02*
X49250Y-44250D01*
X49250Y-44250D02*
X48750Y-44750D01*
X51250Y-43933D02*
X51250Y-44250D01*
X51250Y-44250D02*
X50750Y-44750D01*
X53250Y-43933D02*
X53250Y-44250D01*
X53250Y-44250D02*
X52750Y-44750D01*
X55250Y-43933D02*
X55250Y-44250D01*
X55250Y-44250D02*
X54750Y-44750D01*
X57250Y-43933D02*
X57250Y-44250D01*
X57250Y-44250D02*
X56750Y-44750D01*
X57250Y-36800D02*
X57100Y-36650D01*
X57100Y-36650D02*
X57000Y-36650D01*
X57250Y-38066D02*
X57250Y-36800D01*
X56350Y-36650D02*
X56250Y-36750D01*
X57000Y-36650D02*
X56350Y-36650D01*
X54974Y-29774D02*
X55250Y-30050D01*
X55250Y-30050D02*
X55250Y-30800D01*
X52974Y-29774D02*
X53250Y-30050D01*
X53250Y-30050D02*
X53250Y-30800D01*
X50974Y-29774D02*
X51250Y-30050D01*
X51250Y-30050D02*
X51250Y-30800D01*
X48974Y-29774D02*
X49250Y-30050D01*
X49250Y-30050D02*
X49250Y-30800D01*
X46974Y-29774D02*
X47250Y-30050D01*
X47250Y-30050D02*
X47250Y-30800D01*
X45250Y-30800D02*
X45250Y-30050D01*
X45250Y-30050D02*
X44974Y-29774D01*
X56550Y-29500D02*
X56250Y-29800D01*
X56250Y-29800D02*
X56250Y-30850D01*
X56250Y-30850D02*
X56100Y-31000D01*
X44974Y-29774D02*
X44974Y-29500D01*
X56974Y-29500D02*
X56550Y-29500D01*
X46974Y-29500D02*
X46974Y-29774D01*
X48974Y-29500D02*
X48974Y-29774D01*
X50974Y-29500D02*
X50974Y-29774D01*
X52974Y-29500D02*
X52974Y-29774D01*
X54974Y-29500D02*
X54974Y-29774D01*
X56250Y-31000D02*
X56250Y-30850D01*
X47450Y-31000D02*
X45450Y-31000D01*
X45450Y-31000D02*
X45250Y-30800D01*
X47250Y-30800D02*
X47450Y-31000D01*
X49250Y-30800D02*
X49450Y-31000D01*
X49450Y-31000D02*
X47450Y-31000D01*
X51250Y-30800D02*
X51450Y-31000D01*
X51450Y-31000D02*
X49450Y-31000D01*
X53250Y-30800D02*
X53450Y-31000D01*
X53450Y-31000D02*
X51450Y-31000D01*
X56100Y-31000D02*
X55450Y-31000D01*
X55250Y-30800D02*
X55450Y-31000D01*
X55450Y-31000D02*
X53450Y-31000D01*
X55250Y-36850D02*
X55100Y-36700D01*
X55100Y-36700D02*
X55000Y-36700D01*
X55250Y-38066D02*
X55250Y-36850D01*
X54300Y-36700D02*
X54250Y-36750D01*
X55000Y-36700D02*
X54300Y-36700D01*
X56974Y-31474D02*
X56850Y-31350D01*
X56850Y-31350D02*
X55100Y-31350D01*
X55100Y-31350D02*
X54974Y-31475D01*
X56974Y-31750D02*
X56974Y-31474D01*
X54848Y-31350D02*
X53100Y-31350D01*
X53100Y-31350D02*
X52974Y-31475D01*
X54974Y-31475D02*
X54848Y-31350D01*
X54974Y-31750D02*
X54974Y-31475D01*
X52848Y-31350D02*
X51100Y-31350D01*
X51100Y-31350D02*
X50974Y-31475D01*
X52974Y-31475D02*
X52848Y-31350D01*
X52974Y-31750D02*
X52974Y-31475D01*
X50848Y-31350D02*
X49100Y-31350D01*
X49100Y-31350D02*
X48974Y-31475D01*
X50974Y-31475D02*
X50848Y-31350D01*
X50974Y-31750D02*
X50974Y-31475D01*
X48848Y-31350D02*
X47100Y-31350D01*
X47100Y-31350D02*
X46974Y-31475D01*
X48974Y-31475D02*
X48848Y-31350D01*
X48974Y-31750D02*
X48974Y-31475D01*
X46848Y-31350D02*
X45100Y-31350D01*
X45100Y-31350D02*
X44974Y-31475D01*
X44974Y-31475D02*
X44974Y-31750D01*
X46974Y-31475D02*
X46848Y-31350D01*
X46974Y-31750D02*
X46974Y-31475D01*
X54750Y-31750D02*
X54250Y-32250D01*
X54974Y-31750D02*
X54750Y-31750D01*
X53250Y-36850D02*
X53100Y-36700D01*
X53100Y-36700D02*
X53000Y-36700D01*
X53250Y-38066D02*
X53250Y-36850D01*
X52300Y-36700D02*
X52250Y-36750D01*
X53000Y-36700D02*
X52300Y-36700D01*
X56974Y-33724D02*
X56850Y-33600D01*
X56850Y-33600D02*
X55100Y-33600D01*
X55100Y-33600D02*
X54974Y-33725D01*
X56974Y-34000D02*
X56974Y-33724D01*
X54848Y-33600D02*
X53100Y-33600D01*
X53100Y-33600D02*
X52974Y-33725D01*
X54974Y-33725D02*
X54848Y-33600D01*
X54974Y-34000D02*
X54974Y-33725D01*
X52848Y-33600D02*
X51100Y-33600D01*
X51100Y-33600D02*
X50974Y-33725D01*
X52974Y-33725D02*
X52848Y-33600D01*
X52974Y-34000D02*
X52974Y-33725D01*
X50848Y-33600D02*
X49100Y-33600D01*
X49100Y-33600D02*
X48974Y-33725D01*
X50974Y-33725D02*
X50848Y-33600D01*
X50974Y-34000D02*
X50974Y-33725D01*
X48848Y-33600D02*
X47100Y-33600D01*
X47100Y-33600D02*
X46974Y-33725D01*
X48974Y-33725D02*
X48848Y-33600D01*
X48974Y-34000D02*
X48974Y-33725D01*
X46848Y-33600D02*
X45100Y-33600D01*
X45100Y-33600D02*
X44974Y-33725D01*
X44974Y-33725D02*
X44974Y-34000D01*
X46974Y-33725D02*
X46848Y-33600D01*
X46974Y-34000D02*
X46974Y-33725D01*
X52250Y-34450D02*
X52700Y-34000D01*
X52700Y-34000D02*
X52974Y-34000D01*
X51250Y-36800D02*
X50974Y-36524D01*
X51250Y-38066D02*
X51250Y-36800D01*
X56974Y-35974D02*
X56850Y-35850D01*
X56850Y-35850D02*
X55100Y-35850D01*
X55100Y-35850D02*
X54974Y-35975D01*
X56974Y-36250D02*
X56974Y-35974D01*
X54848Y-35850D02*
X53100Y-35850D01*
X53100Y-35850D02*
X52974Y-35975D01*
X52974Y-35975D02*
X52974Y-36250D01*
X54974Y-35975D02*
X54848Y-35850D01*
X54974Y-36250D02*
X54974Y-35975D01*
X52974Y-35974D02*
X52850Y-35850D01*
X52850Y-35850D02*
X51100Y-35850D01*
X51100Y-35850D02*
X50974Y-35975D01*
X50974Y-35975D02*
X50974Y-36250D01*
X52974Y-36250D02*
X52974Y-35974D01*
X50974Y-35974D02*
X50850Y-35850D01*
X50850Y-35850D02*
X49100Y-35850D01*
X49100Y-35850D02*
X48974Y-35975D01*
X50974Y-36250D02*
X50974Y-35974D01*
X48848Y-35850D02*
X47100Y-35850D01*
X47100Y-35850D02*
X46974Y-35975D01*
X48974Y-35975D02*
X48848Y-35850D01*
X48974Y-36250D02*
X48974Y-35975D01*
X46848Y-35850D02*
X45100Y-35850D01*
X45100Y-35850D02*
X44974Y-35975D01*
X44974Y-35975D02*
X44974Y-36250D01*
X46974Y-35975D02*
X46848Y-35850D01*
X46974Y-36250D02*
X46974Y-35975D01*
X50974Y-36524D02*
X50974Y-36250D01*
X56974Y-46025D02*
X56850Y-46150D01*
X56850Y-46150D02*
X55100Y-46150D01*
X55100Y-46150D02*
X54974Y-46024D01*
X56974Y-45750D02*
X56974Y-46025D01*
X54848Y-46150D02*
X53100Y-46150D01*
X53100Y-46150D02*
X52974Y-46024D01*
X54974Y-46024D02*
X54848Y-46150D01*
X54974Y-45750D02*
X54974Y-46024D01*
X52850Y-46148D02*
X51098Y-46148D01*
X51098Y-46148D02*
X50974Y-46024D01*
X52974Y-46024D02*
X52850Y-46148D01*
X52974Y-45750D02*
X52974Y-46024D01*
X50848Y-46150D02*
X49100Y-46150D01*
X49100Y-46150D02*
X48974Y-46024D01*
X50974Y-46024D02*
X50848Y-46150D01*
X50974Y-45750D02*
X50974Y-46024D01*
X48848Y-46150D02*
X47100Y-46150D01*
X47100Y-46150D02*
X46974Y-46024D01*
X48974Y-46024D02*
X48848Y-46150D01*
X48974Y-45750D02*
X48974Y-46024D01*
X46850Y-46148D02*
X45098Y-46148D01*
X45098Y-46148D02*
X44974Y-46024D01*
X44974Y-46024D02*
X44974Y-45750D01*
X46974Y-46024D02*
X46850Y-46148D01*
X46974Y-45750D02*
X46974Y-46024D01*
X48758Y-38066D02*
X48425Y-38400D01*
X48425Y-38400D02*
X48425Y-38900D01*
X48250Y-43625D02*
X48250Y-45375D01*
X48250Y-45375D02*
X48625Y-45750D01*
X48625Y-45750D02*
X48974Y-45750D01*
X49250Y-38066D02*
X48758Y-38066D01*
X48425Y-39525D02*
X48150Y-39800D01*
X48425Y-38900D02*
X48425Y-39525D01*
X56974Y-48275D02*
X56850Y-48400D01*
X56850Y-48400D02*
X55100Y-48400D01*
X55100Y-48400D02*
X54974Y-48274D01*
X56974Y-48000D02*
X56974Y-48275D01*
X54848Y-48400D02*
X53100Y-48400D01*
X53100Y-48400D02*
X52974Y-48274D01*
X52974Y-48274D02*
X52974Y-48000D01*
X54974Y-48274D02*
X54848Y-48400D01*
X54974Y-48000D02*
X54974Y-48274D01*
X52974Y-48275D02*
X52850Y-48400D01*
X52850Y-48400D02*
X51100Y-48400D01*
X51100Y-48400D02*
X50974Y-48274D01*
X52974Y-48000D02*
X52974Y-48275D01*
X50848Y-48400D02*
X49100Y-48400D01*
X49100Y-48400D02*
X48974Y-48274D01*
X50974Y-48274D02*
X50848Y-48400D01*
X50974Y-48000D02*
X50974Y-48274D01*
X48850Y-48398D02*
X47098Y-48398D01*
X47098Y-48398D02*
X46974Y-48274D01*
X48974Y-48274D02*
X48850Y-48398D01*
X48974Y-48000D02*
X48974Y-48274D01*
X46850Y-48398D02*
X45098Y-48398D01*
X45098Y-48398D02*
X44974Y-48274D01*
X44974Y-48274D02*
X44974Y-48000D01*
X46974Y-48274D02*
X46850Y-48398D01*
X46974Y-48000D02*
X46974Y-48274D01*
X48200Y-38750D02*
X48200Y-39050D01*
X47516Y-38066D02*
X48200Y-38750D01*
X47250Y-38066D02*
X47516Y-38066D01*
X46250Y-43900D02*
X46250Y-45250D01*
X46250Y-47500D02*
X46750Y-48000D01*
X46750Y-48000D02*
X46974Y-48000D01*
X47700Y-39800D02*
X48200Y-39300D01*
X48200Y-39300D02*
X48200Y-39050D01*
X45250Y-47350D02*
X45250Y-46700D01*
X45250Y-46700D02*
X44650Y-46100D01*
X44650Y-46100D02*
X44650Y-45400D01*
X44650Y-45400D02*
X44250Y-45000D01*
X44250Y-45000D02*
X44250Y-44450D01*
X44250Y-44450D02*
X44550Y-44150D01*
X45250Y-49850D02*
X45250Y-48950D01*
X45250Y-48950D02*
X44600Y-48300D01*
X44600Y-48300D02*
X44600Y-47750D01*
X44600Y-47750D02*
X44750Y-47600D01*
X44750Y-47600D02*
X45000Y-47600D01*
X45000Y-47600D02*
X45250Y-47350D01*
X44550Y-44150D02*
X44550Y-38300D01*
X44550Y-38300D02*
X44783Y-38066D01*
X56974Y-50525D02*
X56850Y-50650D01*
X56850Y-50650D02*
X55100Y-50650D01*
X55100Y-50650D02*
X54974Y-50524D01*
X54974Y-50524D02*
X54974Y-50250D01*
X56974Y-50250D02*
X56974Y-50525D01*
X54974Y-50525D02*
X54850Y-50650D01*
X54850Y-50650D02*
X53100Y-50650D01*
X53100Y-50650D02*
X52974Y-50524D01*
X54974Y-50250D02*
X54974Y-50525D01*
X52848Y-50650D02*
X51100Y-50650D01*
X51100Y-50650D02*
X50974Y-50524D01*
X50974Y-50524D02*
X50974Y-50250D01*
X52974Y-50524D02*
X52848Y-50650D01*
X52974Y-50250D02*
X52974Y-50524D01*
X50974Y-50525D02*
X50850Y-50650D01*
X50850Y-50650D02*
X49100Y-50650D01*
X49100Y-50650D02*
X48974Y-50524D01*
X50974Y-50250D02*
X50974Y-50525D01*
X48848Y-50650D02*
X47100Y-50650D01*
X47100Y-50650D02*
X46974Y-50524D01*
X48974Y-50524D02*
X48848Y-50650D01*
X48974Y-50250D02*
X48974Y-50524D01*
X46850Y-50648D02*
X45098Y-50648D01*
X45098Y-50648D02*
X44974Y-50524D01*
X44974Y-50524D02*
X44974Y-50250D01*
X46974Y-50524D02*
X46850Y-50648D01*
X46974Y-50250D02*
X46974Y-50524D01*
X44974Y-50125D02*
X45250Y-49850D01*
X44783Y-38066D02*
X45250Y-38066D01*
X44974Y-50250D02*
X44974Y-50125D01*
X55850Y-51000D02*
X55550Y-51000D01*
X49450Y-51000D02*
X47500Y-51000D01*
X51450Y-51000D02*
X49450Y-51000D01*
X53450Y-51000D02*
X51450Y-51000D01*
X55450Y-51000D02*
X53450Y-51000D01*
X55550Y-51000D02*
X55450Y-51000D01*
X49250Y-51200D02*
X49450Y-51000D01*
X51250Y-51200D02*
X51450Y-51000D01*
X53250Y-51200D02*
X53450Y-51000D01*
X55250Y-51200D02*
X55450Y-51000D01*
X49250Y-51950D02*
X49250Y-51200D01*
X51250Y-51950D02*
X51250Y-51200D01*
X53250Y-51950D02*
X53250Y-51200D01*
X55250Y-51900D02*
X55250Y-51200D01*
X48974Y-52225D02*
X49250Y-51950D01*
X50974Y-52225D02*
X51250Y-51950D01*
X56050Y-51000D02*
X55850Y-51000D01*
X52974Y-52225D02*
X53250Y-51950D01*
X45500Y-51000D02*
X45250Y-51250D01*
X47500Y-51000D02*
X45500Y-51000D01*
X47250Y-51250D02*
X47500Y-51000D01*
X47250Y-51950D02*
X47250Y-51250D01*
X46974Y-52225D02*
X47250Y-51950D01*
X45250Y-51250D02*
X45250Y-51950D01*
X45250Y-51950D02*
X44974Y-52225D01*
X56450Y-52500D02*
X56250Y-52300D01*
X56250Y-52300D02*
X56250Y-51450D01*
X56974Y-52500D02*
X56450Y-52500D01*
X44974Y-52225D02*
X44974Y-52500D01*
X46974Y-52500D02*
X46974Y-52225D01*
X48974Y-52500D02*
X48974Y-52225D01*
X50974Y-52500D02*
X50974Y-52225D01*
X52974Y-52500D02*
X52974Y-52225D01*
X54974Y-52500D02*
X54974Y-52175D01*
X56250Y-51200D02*
X56050Y-51000D01*
X56250Y-51450D02*
X56250Y-51200D01*
X56974Y-52275D02*
X56974Y-52500D01*
X55933Y-41000D02*
X55933Y-40216D01*
X55933Y-40216D02*
X55950Y-40200D01*
X55250Y-51900D02*
X54974Y-52175D01*
X54974Y-52175D02*
X55250Y-51900D01*
X57250Y-52000D02*
X56974Y-52275D01*
X49175Y-41275D02*
X49400Y-41500D01*
X48750Y-41275D02*
X49175Y-41275D01*
X52927Y-40872D02*
X53050Y-40750D01*
X52352Y-40872D02*
X52927Y-40872D01*
X56499Y-41374D02*
X56600Y-41475D01*
X55066Y-41374D02*
X56499Y-41374D01*
X57400Y-43500D02*
X57600Y-43500D01*
X57600Y-43500D02*
X57750Y-43650D01*
X57250Y-43500D02*
X57400Y-43500D01*
X56800Y-43500D02*
X57250Y-43500D01*
X60000Y-47970D02*
X60000Y-47200D01*
X60000Y-45529D02*
X60000Y-44750D01*
X53899Y-41275D02*
X53750Y-41275D01*
X53899Y-41275D02*
X54175Y-41000D01*
X54175Y-41000D02*
X55425Y-41000D01*
X55425Y-41000D02*
X55500Y-40925D01*
X55500Y-40925D02*
X55500Y-40175D01*
X55500Y-40175D02*
X55425Y-40100D01*
X49372Y-40872D02*
X49224Y-40724D01*
X49224Y-40724D02*
X48750Y-40724D01*
X50147Y-40872D02*
X49372Y-40872D01*
X53127Y-41127D02*
X53275Y-41275D01*
X53275Y-41275D02*
X53750Y-41275D01*
X52352Y-41127D02*
X53127Y-41127D01*
X48375Y-40724D02*
X48750Y-40724D01*
X47600Y-41500D02*
X48375Y-40724D01*
X47250Y-41500D02*
X47600Y-41500D01*
X44875Y-43375D02*
X45000Y-43500D01*
X45000Y-43500D02*
X46800Y-43500D01*
X46800Y-43500D02*
X46875Y-43424D01*
X44875Y-43066D02*
X44875Y-43375D01*
X48650Y-43500D02*
X48800Y-43500D01*
X46951Y-43500D02*
X47450Y-43500D01*
X48800Y-43500D02*
X48875Y-43424D01*
X46875Y-43424D02*
X46951Y-43500D01*
X46875Y-43066D02*
X46875Y-43424D01*
X48951Y-43500D02*
X50800Y-43500D01*
X50800Y-43500D02*
X50875Y-43424D01*
X48875Y-43424D02*
X48951Y-43500D01*
X48875Y-43066D02*
X48875Y-43424D01*
X50951Y-43500D02*
X52800Y-43500D01*
X52800Y-43500D02*
X52875Y-43424D01*
X50875Y-43424D02*
X50951Y-43500D01*
X50875Y-43066D02*
X50875Y-43424D01*
X52951Y-43500D02*
X54800Y-43500D01*
X54800Y-43500D02*
X54875Y-43424D01*
X52875Y-43424D02*
X52951Y-43500D01*
X52875Y-43066D02*
X52875Y-43424D01*
X54951Y-43500D02*
X56800Y-43500D01*
X56800Y-43500D02*
X56875Y-43424D01*
X56875Y-43424D02*
X56875Y-43066D01*
X54875Y-43424D02*
X54951Y-43500D01*
X54875Y-43066D02*
X54875Y-43424D01*
X44875Y-42824D02*
X45400Y-42300D01*
X45400Y-42300D02*
X47050Y-42300D01*
X47050Y-42300D02*
X47250Y-42100D01*
X47250Y-42100D02*
X47250Y-41500D01*
X44875Y-43066D02*
X44875Y-42824D01*
X47850Y-43500D02*
X48075Y-43275D01*
X48075Y-43275D02*
X48425Y-43275D01*
X48425Y-43275D02*
X48650Y-43500D01*
X47450Y-43500D02*
X47850Y-43500D01*
X45750Y-30500D02*
X45750Y-29724D01*
X45750Y-29724D02*
X45525Y-29500D01*
X45750Y-32750D02*
X45750Y-31974D01*
X45750Y-31974D02*
X45525Y-31750D01*
X45750Y-35000D02*
X45750Y-34224D01*
X45750Y-34224D02*
X45525Y-34000D01*
X45750Y-37250D02*
X45750Y-36474D01*
X45750Y-36474D02*
X45525Y-36250D01*
X45750Y-44750D02*
X45750Y-45525D01*
X45750Y-45525D02*
X45525Y-45750D01*
X45750Y-47000D02*
X45750Y-47775D01*
X45750Y-47775D02*
X45525Y-48000D01*
X45750Y-49250D02*
X45750Y-50025D01*
X45750Y-50025D02*
X45525Y-50250D01*
X45750Y-51500D02*
X45750Y-52275D01*
X45750Y-52275D02*
X45525Y-52500D01*
X47750Y-30500D02*
X47750Y-29724D01*
X47750Y-29724D02*
X47525Y-29500D01*
X47750Y-32750D02*
X47750Y-31974D01*
X47750Y-31974D02*
X47525Y-31750D01*
X47750Y-35000D02*
X47750Y-34224D01*
X47750Y-34224D02*
X47525Y-34000D01*
X47750Y-37250D02*
X47750Y-36474D01*
X47750Y-36474D02*
X47525Y-36250D01*
X47750Y-44750D02*
X47750Y-45525D01*
X47750Y-45525D02*
X47525Y-45750D01*
X47750Y-47000D02*
X47750Y-47775D01*
X47750Y-47775D02*
X47525Y-48000D01*
X47750Y-49250D02*
X47750Y-50025D01*
X47750Y-50025D02*
X47525Y-50250D01*
X47750Y-51500D02*
X47750Y-52275D01*
X47750Y-52275D02*
X47525Y-52500D01*
X49750Y-30500D02*
X49750Y-29724D01*
X49750Y-29724D02*
X49525Y-29500D01*
X49750Y-32750D02*
X49750Y-31974D01*
X49750Y-31974D02*
X49525Y-31750D01*
X49750Y-35000D02*
X49750Y-34224D01*
X49750Y-34224D02*
X49525Y-34000D01*
X49750Y-37250D02*
X49750Y-36474D01*
X49750Y-36474D02*
X49525Y-36250D01*
X49750Y-44750D02*
X49750Y-45525D01*
X49750Y-45525D02*
X49525Y-45750D01*
X49750Y-47000D02*
X49750Y-47775D01*
X49750Y-47775D02*
X49525Y-48000D01*
X49750Y-49250D02*
X49750Y-50025D01*
X49750Y-50025D02*
X49525Y-50250D01*
X49750Y-51500D02*
X49750Y-52275D01*
X49750Y-52275D02*
X49525Y-52500D01*
X51750Y-30500D02*
X51750Y-29724D01*
X51750Y-29724D02*
X51525Y-29500D01*
X51750Y-32750D02*
X51750Y-31974D01*
X51750Y-31974D02*
X51525Y-31750D01*
X51750Y-35000D02*
X51750Y-34224D01*
X51750Y-34224D02*
X51525Y-34000D01*
X51750Y-37250D02*
X51750Y-36474D01*
X51750Y-36474D02*
X51525Y-36250D01*
X51750Y-44750D02*
X51750Y-45525D01*
X51750Y-45525D02*
X51525Y-45750D01*
X51750Y-47000D02*
X51750Y-47775D01*
X51750Y-47775D02*
X51525Y-48000D01*
X51750Y-49250D02*
X51750Y-50025D01*
X51750Y-50025D02*
X51525Y-50250D01*
X51750Y-51500D02*
X51750Y-52275D01*
X51750Y-52275D02*
X51525Y-52500D01*
X53750Y-30500D02*
X53750Y-29724D01*
X53750Y-29724D02*
X53525Y-29500D01*
X53750Y-32750D02*
X53750Y-31974D01*
X53750Y-31974D02*
X53525Y-31750D01*
X53750Y-35000D02*
X53750Y-34224D01*
X53750Y-34224D02*
X53525Y-34000D01*
X53750Y-37250D02*
X53750Y-36474D01*
X53750Y-36474D02*
X53525Y-36250D01*
X53750Y-44750D02*
X53750Y-45525D01*
X53750Y-45525D02*
X53525Y-45750D01*
X53750Y-47000D02*
X53750Y-47775D01*
X53750Y-47775D02*
X53525Y-48000D01*
X53750Y-49250D02*
X53750Y-50025D01*
X53750Y-50025D02*
X53525Y-50250D01*
X53750Y-51500D02*
X53750Y-52275D01*
X53750Y-52275D02*
X53525Y-52500D01*
X55750Y-30500D02*
X55750Y-29724D01*
X55750Y-29724D02*
X55525Y-29500D01*
X55750Y-32750D02*
X55750Y-31974D01*
X55750Y-31974D02*
X55525Y-31750D01*
X55750Y-35000D02*
X55750Y-34224D01*
X55750Y-34224D02*
X55525Y-34000D01*
X55750Y-37250D02*
X55750Y-36474D01*
X55750Y-36474D02*
X55525Y-36250D01*
X55750Y-44750D02*
X55750Y-45525D01*
X55750Y-45525D02*
X55525Y-45750D01*
X55750Y-47000D02*
X55750Y-47775D01*
X55750Y-47775D02*
X55525Y-48000D01*
X55750Y-49250D02*
X55750Y-50025D01*
X55750Y-50025D02*
X55525Y-50250D01*
X55750Y-51500D02*
X55750Y-52275D01*
X55750Y-52275D02*
X55525Y-52500D01*
X57750Y-30500D02*
X57750Y-29724D01*
X57750Y-29724D02*
X57525Y-29500D01*
X57750Y-32750D02*
X57750Y-31974D01*
X57750Y-31974D02*
X57525Y-31750D01*
X57750Y-35000D02*
X57750Y-34224D01*
X57750Y-34224D02*
X57525Y-34000D01*
X57750Y-37250D02*
X57750Y-36474D01*
X57750Y-36474D02*
X57525Y-36250D01*
X57750Y-44750D02*
X57750Y-45525D01*
X57750Y-45525D02*
X57525Y-45750D01*
X57750Y-47000D02*
X57750Y-47775D01*
X57750Y-47775D02*
X57525Y-48000D01*
X57750Y-49250D02*
X57750Y-50025D01*
X57750Y-50025D02*
X57525Y-50250D01*
X57750Y-51500D02*
X57750Y-52275D01*
X57750Y-52275D02*
X57525Y-52500D01*
G54D10*
G36*
X60600Y-42383D02*
X59700Y-43633D01*
X59700Y-44300D01*
X59300Y-44300D01*
X59300Y-46200D01*
X58900Y-46200D01*
X58900Y-42620D01*
X59870Y-41650D01*
X60600Y-41650D01*
X60600Y-42383D01*
X60600Y-42383D01*
G37*
G54D25*
X60600Y-42383D02*
X59700Y-43633D01*
X59700Y-44300D01*
X59300Y-44300D01*
X59300Y-46200D01*
X58900Y-46200D01*
X58900Y-42620D01*
X59870Y-41650D01*
X60600Y-41650D01*
X60600Y-42383D01*
G54D10*
G36*
X60650Y-49550D02*
X60300Y-49550D01*
X60300Y-48350D01*
X59350Y-48350D01*
X59350Y-47470D01*
X59800Y-47020D01*
X59800Y-45150D01*
X60200Y-45150D01*
X60200Y-47020D01*
X60650Y-47470D01*
X60650Y-49550D01*
X60650Y-49550D01*
G37*
G54D25*
X60650Y-49550D02*
X60300Y-49550D01*
X60300Y-48350D01*
X59350Y-48350D01*
X59350Y-47470D01*
X59800Y-47020D01*
X59800Y-45150D01*
X60200Y-45150D01*
X60200Y-47020D01*
X60650Y-47470D01*
X60650Y-49550D01*
G54D10*
G36*
X47050Y-42017D02*
X46967Y-42100D01*
X45735Y-42100D01*
X45735Y-41590D01*
X45733Y-41398D01*
X45663Y-41230D01*
X45590Y-41195D01*
X45554Y-41230D01*
X45554Y-41159D01*
X45519Y-41086D01*
X45340Y-41014D01*
X45148Y-41016D01*
X44980Y-41086D01*
X44945Y-41159D01*
X45250Y-41464D01*
X45554Y-41159D01*
X45554Y-41230D01*
X45285Y-41500D01*
X45590Y-41804D01*
X45663Y-41769D01*
X45735Y-41590D01*
X45735Y-42100D01*
X45554Y-42100D01*
X45554Y-41840D01*
X45250Y-41535D01*
X45214Y-41570D01*
X45214Y-41500D01*
X44909Y-41195D01*
X44836Y-41230D01*
X44764Y-41409D01*
X44766Y-41601D01*
X44836Y-41769D01*
X44909Y-41804D01*
X45214Y-41500D01*
X45214Y-41570D01*
X44945Y-41840D01*
X44980Y-41913D01*
X45159Y-41985D01*
X45351Y-41983D01*
X45519Y-41913D01*
X45554Y-41840D01*
X45554Y-42100D01*
X45400Y-42100D01*
X45336Y-42112D01*
X45323Y-42115D01*
X45258Y-42158D01*
X44750Y-42667D01*
X44750Y-39291D01*
X44758Y-39291D01*
X45108Y-39641D01*
X45173Y-39684D01*
X45250Y-39700D01*
X45775Y-39700D01*
X45829Y-39754D01*
X45940Y-39799D01*
X46059Y-39800D01*
X46169Y-39754D01*
X46200Y-39724D01*
X46199Y-39767D01*
X46108Y-39858D01*
X46065Y-39923D01*
X46050Y-40000D01*
X46050Y-40058D01*
X45975Y-40088D01*
X45839Y-40225D01*
X45765Y-40403D01*
X45765Y-40595D01*
X45838Y-40774D01*
X45864Y-40800D01*
X45832Y-40800D01*
X45703Y-40670D01*
X45734Y-40596D01*
X45734Y-40404D01*
X45661Y-40225D01*
X45524Y-40089D01*
X45346Y-40015D01*
X45154Y-40015D01*
X44975Y-40088D01*
X44839Y-40225D01*
X44765Y-40403D01*
X44765Y-40595D01*
X44838Y-40774D01*
X44975Y-40910D01*
X45153Y-40984D01*
X45345Y-40984D01*
X45420Y-40953D01*
X45608Y-41141D01*
X45673Y-41184D01*
X45673Y-41184D01*
X45686Y-41187D01*
X45750Y-41200D01*
X45864Y-41200D01*
X45839Y-41225D01*
X45765Y-41403D01*
X45765Y-41595D01*
X45838Y-41774D01*
X45975Y-41910D01*
X46153Y-41984D01*
X46345Y-41984D01*
X46524Y-41911D01*
X46660Y-41774D01*
X46734Y-41596D01*
X46734Y-41404D01*
X46661Y-41225D01*
X46635Y-41200D01*
X46864Y-41200D01*
X46839Y-41225D01*
X46765Y-41403D01*
X46765Y-41595D01*
X46838Y-41774D01*
X46975Y-41910D01*
X47050Y-41941D01*
X47050Y-42017D01*
X47050Y-42017D01*
G37*
G54D25*
X47050Y-42017D02*
X46967Y-42100D01*
X45735Y-42100D01*
X45735Y-41590D01*
X45733Y-41398D01*
X45663Y-41230D01*
X45590Y-41195D01*
X45554Y-41230D01*
X45554Y-41159D01*
X45519Y-41086D01*
X45340Y-41014D01*
X45148Y-41016D01*
X44980Y-41086D01*
X44945Y-41159D01*
X45250Y-41464D01*
X45554Y-41159D01*
X45554Y-41230D01*
X45285Y-41500D01*
X45590Y-41804D01*
X45663Y-41769D01*
X45735Y-41590D01*
X45735Y-42100D01*
X45554Y-42100D01*
X45554Y-41840D01*
X45250Y-41535D01*
X45214Y-41570D01*
X45214Y-41500D01*
X44909Y-41195D01*
X44836Y-41230D01*
X44764Y-41409D01*
X44766Y-41601D01*
X44836Y-41769D01*
X44909Y-41804D01*
X45214Y-41500D01*
X45214Y-41570D01*
X44945Y-41840D01*
X44980Y-41913D01*
X45159Y-41985D01*
X45351Y-41983D01*
X45519Y-41913D01*
X45554Y-41840D01*
X45554Y-42100D01*
X45400Y-42100D01*
X45336Y-42112D01*
X45323Y-42115D01*
X45258Y-42158D01*
X44750Y-42667D01*
X44750Y-39291D01*
X44758Y-39291D01*
X45108Y-39641D01*
X45173Y-39684D01*
X45250Y-39700D01*
X45775Y-39700D01*
X45829Y-39754D01*
X45940Y-39799D01*
X46059Y-39800D01*
X46169Y-39754D01*
X46200Y-39724D01*
X46199Y-39767D01*
X46108Y-39858D01*
X46065Y-39923D01*
X46050Y-40000D01*
X46050Y-40058D01*
X45975Y-40088D01*
X45839Y-40225D01*
X45765Y-40403D01*
X45765Y-40595D01*
X45838Y-40774D01*
X45864Y-40800D01*
X45832Y-40800D01*
X45703Y-40670D01*
X45734Y-40596D01*
X45734Y-40404D01*
X45661Y-40225D01*
X45524Y-40089D01*
X45346Y-40015D01*
X45154Y-40015D01*
X44975Y-40088D01*
X44839Y-40225D01*
X44765Y-40403D01*
X44765Y-40595D01*
X44838Y-40774D01*
X44975Y-40910D01*
X45153Y-40984D01*
X45345Y-40984D01*
X45420Y-40953D01*
X45608Y-41141D01*
X45673Y-41184D01*
X45673Y-41184D01*
X45686Y-41187D01*
X45750Y-41200D01*
X45864Y-41200D01*
X45839Y-41225D01*
X45765Y-41403D01*
X45765Y-41595D01*
X45838Y-41774D01*
X45975Y-41910D01*
X46153Y-41984D01*
X46345Y-41984D01*
X46524Y-41911D01*
X46660Y-41774D01*
X46734Y-41596D01*
X46734Y-41404D01*
X46661Y-41225D01*
X46635Y-41200D01*
X46864Y-41200D01*
X46839Y-41225D01*
X46765Y-41403D01*
X46765Y-41595D01*
X46838Y-41774D01*
X46975Y-41910D01*
X47050Y-41941D01*
X47050Y-42017D01*
G54D10*
G36*
X50653Y-41183D02*
X50612Y-41183D01*
X50606Y-41183D01*
X50575Y-41152D01*
X50172Y-41152D01*
X50172Y-41160D01*
X50122Y-41160D01*
X50122Y-41152D01*
X49720Y-41152D01*
X49682Y-41190D01*
X49682Y-41216D01*
X49698Y-41255D01*
X49682Y-41294D01*
X49682Y-41354D01*
X49682Y-41472D01*
X49698Y-41511D01*
X49682Y-41550D01*
X49682Y-41610D01*
X49682Y-41728D01*
X49698Y-41767D01*
X49682Y-41806D01*
X49682Y-41866D01*
X49682Y-41951D01*
X49037Y-41951D01*
X49037Y-41443D01*
X49037Y-41338D01*
X49000Y-41300D01*
X48775Y-41300D01*
X48775Y-41525D01*
X48812Y-41563D01*
X48857Y-41563D01*
X48917Y-41563D01*
X48972Y-41540D01*
X49014Y-41498D01*
X49037Y-41443D01*
X49037Y-41951D01*
X48725Y-41951D01*
X48725Y-41525D01*
X48725Y-41300D01*
X48499Y-41300D01*
X48462Y-41338D01*
X48462Y-41443D01*
X48485Y-41498D01*
X48527Y-41540D01*
X48582Y-41563D01*
X48642Y-41563D01*
X48687Y-41563D01*
X48725Y-41525D01*
X48725Y-41951D01*
X47698Y-41951D01*
X47621Y-41966D01*
X47557Y-42010D01*
X47445Y-42121D01*
X47449Y-42100D01*
X47450Y-42100D01*
X47450Y-41941D01*
X47524Y-41911D01*
X47660Y-41774D01*
X47706Y-41664D01*
X47741Y-41641D01*
X48458Y-40924D01*
X48475Y-40924D01*
X48485Y-40947D01*
X48527Y-40989D01*
X48552Y-41000D01*
X48527Y-41010D01*
X48485Y-41052D01*
X48462Y-41107D01*
X48462Y-41213D01*
X48499Y-41250D01*
X48725Y-41250D01*
X48725Y-41242D01*
X48775Y-41242D01*
X48775Y-41250D01*
X49000Y-41250D01*
X49037Y-41213D01*
X49037Y-41107D01*
X49014Y-41052D01*
X48972Y-41010D01*
X48947Y-41000D01*
X48972Y-40989D01*
X49014Y-40947D01*
X49024Y-40924D01*
X49141Y-40924D01*
X49230Y-41013D01*
X49295Y-41056D01*
X49295Y-41056D01*
X49372Y-41072D01*
X49682Y-41072D01*
X49689Y-41072D01*
X49720Y-41102D01*
X50122Y-41102D01*
X50122Y-41095D01*
X50172Y-41095D01*
X50172Y-41102D01*
X50575Y-41102D01*
X50604Y-41073D01*
X50615Y-41126D01*
X50653Y-41183D01*
X50653Y-41183D01*
G37*
G54D25*
X50653Y-41183D02*
X50612Y-41183D01*
X50606Y-41183D01*
X50575Y-41152D01*
X50172Y-41152D01*
X50172Y-41160D01*
X50122Y-41160D01*
X50122Y-41152D01*
X49720Y-41152D01*
X49682Y-41190D01*
X49682Y-41216D01*
X49698Y-41255D01*
X49682Y-41294D01*
X49682Y-41354D01*
X49682Y-41472D01*
X49698Y-41511D01*
X49682Y-41550D01*
X49682Y-41610D01*
X49682Y-41728D01*
X49698Y-41767D01*
X49682Y-41806D01*
X49682Y-41866D01*
X49682Y-41951D01*
X49037Y-41951D01*
X49037Y-41443D01*
X49037Y-41338D01*
X49000Y-41300D01*
X48775Y-41300D01*
X48775Y-41525D01*
X48812Y-41563D01*
X48857Y-41563D01*
X48917Y-41563D01*
X48972Y-41540D01*
X49014Y-41498D01*
X49037Y-41443D01*
X49037Y-41951D01*
X48725Y-41951D01*
X48725Y-41525D01*
X48725Y-41300D01*
X48499Y-41300D01*
X48462Y-41338D01*
X48462Y-41443D01*
X48485Y-41498D01*
X48527Y-41540D01*
X48582Y-41563D01*
X48642Y-41563D01*
X48687Y-41563D01*
X48725Y-41525D01*
X48725Y-41951D01*
X47698Y-41951D01*
X47621Y-41966D01*
X47557Y-42010D01*
X47445Y-42121D01*
X47449Y-42100D01*
X47450Y-42100D01*
X47450Y-41941D01*
X47524Y-41911D01*
X47660Y-41774D01*
X47706Y-41664D01*
X47741Y-41641D01*
X48458Y-40924D01*
X48475Y-40924D01*
X48485Y-40947D01*
X48527Y-40989D01*
X48552Y-41000D01*
X48527Y-41010D01*
X48485Y-41052D01*
X48462Y-41107D01*
X48462Y-41213D01*
X48499Y-41250D01*
X48725Y-41250D01*
X48725Y-41242D01*
X48775Y-41242D01*
X48775Y-41250D01*
X49000Y-41250D01*
X49037Y-41213D01*
X49037Y-41107D01*
X49014Y-41052D01*
X48972Y-41010D01*
X48947Y-41000D01*
X48972Y-40989D01*
X49014Y-40947D01*
X49024Y-40924D01*
X49141Y-40924D01*
X49230Y-41013D01*
X49295Y-41056D01*
X49295Y-41056D01*
X49372Y-41072D01*
X49682Y-41072D01*
X49689Y-41072D01*
X49720Y-41102D01*
X50122Y-41102D01*
X50122Y-41095D01*
X50172Y-41095D01*
X50172Y-41102D01*
X50575Y-41102D01*
X50604Y-41073D01*
X50615Y-41126D01*
X50653Y-41183D01*
G54D10*
G36*
X54433Y-40800D02*
X54175Y-40800D01*
X54098Y-40815D01*
X54076Y-40829D01*
X54037Y-40855D01*
X54037Y-40786D01*
X54037Y-40661D01*
X54037Y-40556D01*
X54014Y-40501D01*
X53972Y-40459D01*
X53917Y-40436D01*
X53857Y-40436D01*
X53812Y-40436D01*
X53775Y-40474D01*
X53775Y-40699D01*
X54000Y-40699D01*
X54037Y-40661D01*
X54037Y-40786D01*
X54000Y-40749D01*
X53775Y-40749D01*
X53775Y-40757D01*
X53725Y-40757D01*
X53725Y-40749D01*
X53725Y-40699D01*
X53725Y-40474D01*
X53687Y-40436D01*
X53642Y-40436D01*
X53582Y-40436D01*
X53527Y-40459D01*
X53485Y-40501D01*
X53462Y-40556D01*
X53462Y-40661D01*
X53499Y-40699D01*
X53725Y-40699D01*
X53725Y-40749D01*
X53499Y-40749D01*
X53462Y-40786D01*
X53462Y-40892D01*
X53485Y-40947D01*
X53527Y-40989D01*
X53552Y-40999D01*
X53527Y-41010D01*
X53485Y-41052D01*
X53475Y-41075D01*
X53358Y-41075D01*
X53269Y-40986D01*
X53204Y-40943D01*
X53127Y-40927D01*
X52817Y-40927D01*
X52810Y-40927D01*
X52779Y-40897D01*
X52377Y-40897D01*
X52377Y-40904D01*
X52327Y-40904D01*
X52327Y-40897D01*
X52319Y-40897D01*
X52319Y-40847D01*
X52327Y-40847D01*
X52327Y-40839D01*
X52377Y-40839D01*
X52377Y-40847D01*
X52779Y-40847D01*
X52817Y-40809D01*
X52817Y-40783D01*
X52801Y-40744D01*
X52817Y-40705D01*
X52817Y-40645D01*
X52817Y-40527D01*
X52801Y-40488D01*
X52817Y-40449D01*
X52817Y-40389D01*
X52817Y-40271D01*
X52801Y-40232D01*
X52817Y-40193D01*
X52817Y-40133D01*
X52817Y-40048D01*
X53665Y-40048D01*
X54384Y-40767D01*
X54433Y-40800D01*
X54433Y-40800D01*
G37*
G54D25*
X54433Y-40800D02*
X54175Y-40800D01*
X54098Y-40815D01*
X54076Y-40829D01*
X54037Y-40855D01*
X54037Y-40786D01*
X54037Y-40661D01*
X54037Y-40556D01*
X54014Y-40501D01*
X53972Y-40459D01*
X53917Y-40436D01*
X53857Y-40436D01*
X53812Y-40436D01*
X53775Y-40474D01*
X53775Y-40699D01*
X54000Y-40699D01*
X54037Y-40661D01*
X54037Y-40786D01*
X54000Y-40749D01*
X53775Y-40749D01*
X53775Y-40757D01*
X53725Y-40757D01*
X53725Y-40749D01*
X53725Y-40699D01*
X53725Y-40474D01*
X53687Y-40436D01*
X53642Y-40436D01*
X53582Y-40436D01*
X53527Y-40459D01*
X53485Y-40501D01*
X53462Y-40556D01*
X53462Y-40661D01*
X53499Y-40699D01*
X53725Y-40699D01*
X53725Y-40749D01*
X53499Y-40749D01*
X53462Y-40786D01*
X53462Y-40892D01*
X53485Y-40947D01*
X53527Y-40989D01*
X53552Y-40999D01*
X53527Y-41010D01*
X53485Y-41052D01*
X53475Y-41075D01*
X53358Y-41075D01*
X53269Y-40986D01*
X53204Y-40943D01*
X53127Y-40927D01*
X52817Y-40927D01*
X52810Y-40927D01*
X52779Y-40897D01*
X52377Y-40897D01*
X52377Y-40904D01*
X52327Y-40904D01*
X52327Y-40897D01*
X52319Y-40897D01*
X52319Y-40847D01*
X52327Y-40847D01*
X52327Y-40839D01*
X52377Y-40839D01*
X52377Y-40847D01*
X52779Y-40847D01*
X52817Y-40809D01*
X52817Y-40783D01*
X52801Y-40744D01*
X52817Y-40705D01*
X52817Y-40645D01*
X52817Y-40527D01*
X52801Y-40488D01*
X52817Y-40449D01*
X52817Y-40389D01*
X52817Y-40271D01*
X52801Y-40232D01*
X52817Y-40193D01*
X52817Y-40133D01*
X52817Y-40048D01*
X53665Y-40048D01*
X54384Y-40767D01*
X54433Y-40800D01*
G54D10*
G36*
X56725Y-41542D02*
X56667Y-41600D01*
X56425Y-41600D01*
X56125Y-41600D01*
X55600Y-41600D01*
X55389Y-41600D01*
X55402Y-41586D01*
X55425Y-41531D01*
X55425Y-41472D01*
X55425Y-41436D01*
X55388Y-41399D01*
X55091Y-41399D01*
X55091Y-41406D01*
X55041Y-41406D01*
X55041Y-41399D01*
X54745Y-41399D01*
X54708Y-41436D01*
X54708Y-41472D01*
X54708Y-41531D01*
X54721Y-41563D01*
X54591Y-41433D01*
X54526Y-41390D01*
X54450Y-41375D01*
X54100Y-41375D01*
X54082Y-41375D01*
X54257Y-41200D01*
X54714Y-41200D01*
X54708Y-41216D01*
X54708Y-41275D01*
X54708Y-41311D01*
X54745Y-41349D01*
X55041Y-41349D01*
X55041Y-41341D01*
X55091Y-41341D01*
X55091Y-41349D01*
X55388Y-41349D01*
X55425Y-41311D01*
X55425Y-41275D01*
X55425Y-41216D01*
X55418Y-41200D01*
X55425Y-41200D01*
X55501Y-41184D01*
X55566Y-41141D01*
X55574Y-41133D01*
X55574Y-41157D01*
X55597Y-41212D01*
X55639Y-41255D01*
X55694Y-41277D01*
X55754Y-41277D01*
X56171Y-41277D01*
X56226Y-41255D01*
X56268Y-41212D01*
X56291Y-41157D01*
X56291Y-41098D01*
X56291Y-40991D01*
X56308Y-41016D01*
X56725Y-41432D01*
X56725Y-41542D01*
X56725Y-41542D01*
G37*
G54D25*
X56725Y-41542D02*
X56667Y-41600D01*
X56425Y-41600D01*
X56125Y-41600D01*
X55600Y-41600D01*
X55389Y-41600D01*
X55402Y-41586D01*
X55425Y-41531D01*
X55425Y-41472D01*
X55425Y-41436D01*
X55388Y-41399D01*
X55091Y-41399D01*
X55091Y-41406D01*
X55041Y-41406D01*
X55041Y-41399D01*
X54745Y-41399D01*
X54708Y-41436D01*
X54708Y-41472D01*
X54708Y-41531D01*
X54721Y-41563D01*
X54591Y-41433D01*
X54526Y-41390D01*
X54450Y-41375D01*
X54100Y-41375D01*
X54082Y-41375D01*
X54257Y-41200D01*
X54714Y-41200D01*
X54708Y-41216D01*
X54708Y-41275D01*
X54708Y-41311D01*
X54745Y-41349D01*
X55041Y-41349D01*
X55041Y-41341D01*
X55091Y-41341D01*
X55091Y-41349D01*
X55388Y-41349D01*
X55425Y-41311D01*
X55425Y-41275D01*
X55425Y-41216D01*
X55418Y-41200D01*
X55425Y-41200D01*
X55501Y-41184D01*
X55566Y-41141D01*
X55574Y-41133D01*
X55574Y-41157D01*
X55597Y-41212D01*
X55639Y-41255D01*
X55694Y-41277D01*
X55754Y-41277D01*
X56171Y-41277D01*
X56226Y-41255D01*
X56268Y-41212D01*
X56291Y-41157D01*
X56291Y-41098D01*
X56291Y-40991D01*
X56308Y-41016D01*
X56725Y-41432D01*
X56725Y-41542D01*
G54D10*
G36*
X61330Y-52830D02*
X61291Y-52830D01*
X61291Y-45992D01*
X61291Y-45592D01*
X61291Y-45467D01*
X61291Y-45066D01*
X61268Y-45011D01*
X61226Y-44969D01*
X61171Y-44946D01*
X61111Y-44946D01*
X61016Y-44946D01*
X61016Y-44384D01*
X61016Y-44324D01*
X61016Y-44062D01*
X61016Y-43937D01*
X61016Y-43675D01*
X61016Y-43615D01*
X60993Y-43560D01*
X60951Y-43518D01*
X60895Y-43495D01*
X60613Y-43495D01*
X60576Y-43533D01*
X60576Y-43975D01*
X60978Y-43975D01*
X61016Y-43937D01*
X61016Y-44062D01*
X60978Y-44025D01*
X60576Y-44025D01*
X60576Y-44466D01*
X60613Y-44504D01*
X60895Y-44504D01*
X60951Y-44481D01*
X60993Y-44439D01*
X61016Y-44384D01*
X61016Y-44946D01*
X60968Y-44946D01*
X60930Y-44983D01*
X60930Y-45504D01*
X61254Y-45504D01*
X61291Y-45467D01*
X61291Y-45592D01*
X61254Y-45554D01*
X60930Y-45554D01*
X60930Y-46075D01*
X60968Y-46112D01*
X61111Y-46112D01*
X61171Y-46112D01*
X61226Y-46089D01*
X61268Y-46047D01*
X61291Y-45992D01*
X61291Y-52830D01*
X61050Y-52830D01*
X61050Y-50050D01*
X61050Y-47229D01*
X60550Y-46729D01*
X60550Y-46055D01*
X60584Y-46089D01*
X60639Y-46112D01*
X60699Y-46112D01*
X60843Y-46112D01*
X60880Y-46075D01*
X60880Y-45554D01*
X60872Y-45554D01*
X60872Y-45504D01*
X60880Y-45504D01*
X60880Y-44983D01*
X60843Y-44946D01*
X60699Y-44946D01*
X60639Y-44946D01*
X60584Y-44969D01*
X60550Y-45003D01*
X60550Y-44300D01*
X60526Y-44300D01*
X60526Y-44025D01*
X60518Y-44025D01*
X60518Y-43975D01*
X60526Y-43975D01*
X60526Y-43533D01*
X60488Y-43495D01*
X60409Y-43495D01*
X60950Y-42664D01*
X60950Y-41300D01*
X60833Y-41300D01*
X60833Y-40114D01*
X60832Y-39882D01*
X60745Y-39671D01*
X60661Y-39624D01*
X60625Y-39659D01*
X60625Y-39588D01*
X60608Y-39558D01*
X60608Y-30579D01*
X60478Y-30264D01*
X60237Y-30022D01*
X59921Y-29891D01*
X59579Y-29891D01*
X59264Y-30021D01*
X59022Y-30262D01*
X58891Y-30578D01*
X58891Y-30920D01*
X59021Y-31235D01*
X59262Y-31477D01*
X59578Y-31608D01*
X59920Y-31608D01*
X60235Y-31478D01*
X60477Y-31237D01*
X60608Y-30921D01*
X60608Y-30579D01*
X60608Y-39558D01*
X60578Y-39504D01*
X60364Y-39416D01*
X60132Y-39417D01*
X59921Y-39504D01*
X59874Y-39588D01*
X60250Y-39964D01*
X60625Y-39588D01*
X60625Y-39659D01*
X60285Y-40000D01*
X60661Y-40375D01*
X60745Y-40328D01*
X60833Y-40114D01*
X60833Y-41300D01*
X60625Y-41300D01*
X60625Y-40411D01*
X60250Y-40035D01*
X60214Y-40070D01*
X60214Y-40000D01*
X59838Y-39624D01*
X59754Y-39671D01*
X59666Y-39885D01*
X59667Y-40117D01*
X59754Y-40328D01*
X59838Y-40375D01*
X60214Y-40000D01*
X60214Y-40070D01*
X59874Y-40411D01*
X59921Y-40495D01*
X60135Y-40583D01*
X60367Y-40582D01*
X60578Y-40495D01*
X60625Y-40411D01*
X60625Y-41300D01*
X59579Y-41300D01*
X58550Y-42329D01*
X58550Y-46550D01*
X59450Y-46550D01*
X59450Y-46729D01*
X58950Y-47229D01*
X58950Y-48800D01*
X59017Y-48800D01*
X59006Y-48810D01*
X58983Y-48865D01*
X58983Y-48925D01*
X58983Y-49187D01*
X59021Y-49225D01*
X59423Y-49225D01*
X59423Y-49217D01*
X59473Y-49217D01*
X59473Y-49225D01*
X59481Y-49225D01*
X59481Y-49275D01*
X59473Y-49275D01*
X59473Y-49716D01*
X59511Y-49754D01*
X59700Y-49754D01*
X59700Y-50050D01*
X61050Y-50050D01*
X61050Y-52830D01*
X60608Y-52830D01*
X60608Y-51079D01*
X60478Y-50764D01*
X60237Y-50522D01*
X59921Y-50391D01*
X59579Y-50391D01*
X59423Y-50455D01*
X59423Y-49716D01*
X59423Y-49275D01*
X59021Y-49275D01*
X58983Y-49312D01*
X58983Y-49574D01*
X58983Y-49634D01*
X59006Y-49689D01*
X59048Y-49731D01*
X59104Y-49754D01*
X59386Y-49754D01*
X59423Y-49716D01*
X59423Y-50455D01*
X59264Y-50521D01*
X59022Y-50762D01*
X58891Y-51078D01*
X58891Y-51420D01*
X59021Y-51735D01*
X59262Y-51977D01*
X59578Y-52108D01*
X59920Y-52108D01*
X60235Y-51978D01*
X60477Y-51737D01*
X60608Y-51421D01*
X60608Y-51079D01*
X60608Y-52830D01*
X44169Y-52830D01*
X44169Y-45202D01*
X44450Y-45482D01*
X44450Y-46100D01*
X44465Y-46176D01*
X44508Y-46241D01*
X44802Y-46535D01*
X44657Y-46534D01*
X44486Y-46605D01*
X44356Y-46736D01*
X44285Y-46907D01*
X44284Y-47092D01*
X44355Y-47263D01*
X44486Y-47393D01*
X44621Y-47450D01*
X44608Y-47458D01*
X44458Y-47608D01*
X44415Y-47673D01*
X44400Y-47750D01*
X44400Y-48300D01*
X44415Y-48376D01*
X44458Y-48441D01*
X44802Y-48785D01*
X44657Y-48784D01*
X44486Y-48855D01*
X44356Y-48986D01*
X44285Y-49157D01*
X44284Y-49342D01*
X44355Y-49513D01*
X44486Y-49643D01*
X44657Y-49714D01*
X44842Y-49715D01*
X45013Y-49644D01*
X45050Y-49607D01*
X45050Y-49767D01*
X44854Y-49962D01*
X44806Y-49962D01*
X44751Y-49985D01*
X44709Y-50027D01*
X44686Y-50082D01*
X44686Y-50142D01*
X44686Y-50417D01*
X44709Y-50472D01*
X44751Y-50514D01*
X44774Y-50524D01*
X44774Y-50524D01*
X44789Y-50600D01*
X44832Y-50665D01*
X44957Y-50790D01*
X44957Y-50790D01*
X45000Y-50819D01*
X45022Y-50833D01*
X45022Y-50833D01*
X45098Y-50848D01*
X45373Y-50848D01*
X45358Y-50858D01*
X45108Y-51108D01*
X45071Y-51163D01*
X45013Y-51106D01*
X44842Y-51035D01*
X44657Y-51034D01*
X44486Y-51105D01*
X44356Y-51236D01*
X44285Y-51407D01*
X44284Y-51592D01*
X44355Y-51763D01*
X44486Y-51893D01*
X44657Y-51964D01*
X44842Y-51965D01*
X45013Y-51894D01*
X45050Y-51857D01*
X45050Y-51867D01*
X44832Y-52084D01*
X44789Y-52149D01*
X44774Y-52225D01*
X44774Y-52225D01*
X44751Y-52235D01*
X44709Y-52277D01*
X44686Y-52332D01*
X44686Y-52392D01*
X44686Y-52667D01*
X44709Y-52722D01*
X44751Y-52764D01*
X44806Y-52787D01*
X44866Y-52787D01*
X45142Y-52787D01*
X45197Y-52764D01*
X45239Y-52722D01*
X45249Y-52697D01*
X45260Y-52722D01*
X45302Y-52764D01*
X45357Y-52787D01*
X45417Y-52787D01*
X45693Y-52787D01*
X45748Y-52764D01*
X45790Y-52722D01*
X45813Y-52667D01*
X45813Y-52607D01*
X45813Y-52495D01*
X45891Y-52417D01*
X45934Y-52352D01*
X45950Y-52275D01*
X45950Y-51920D01*
X46013Y-51894D01*
X46143Y-51763D01*
X46214Y-51592D01*
X46215Y-51407D01*
X46144Y-51236D01*
X46107Y-51200D01*
X46392Y-51200D01*
X46356Y-51236D01*
X46285Y-51407D01*
X46284Y-51592D01*
X46355Y-51763D01*
X46486Y-51893D01*
X46657Y-51964D01*
X46842Y-51965D01*
X47013Y-51894D01*
X47050Y-51857D01*
X47050Y-51867D01*
X46832Y-52084D01*
X46789Y-52149D01*
X46774Y-52225D01*
X46774Y-52225D01*
X46751Y-52235D01*
X46709Y-52277D01*
X46686Y-52332D01*
X46686Y-52392D01*
X46686Y-52667D01*
X46709Y-52722D01*
X46751Y-52764D01*
X46806Y-52787D01*
X46866Y-52787D01*
X47142Y-52787D01*
X47197Y-52764D01*
X47239Y-52722D01*
X47249Y-52697D01*
X47260Y-52722D01*
X47302Y-52764D01*
X47357Y-52787D01*
X47417Y-52787D01*
X47693Y-52787D01*
X47748Y-52764D01*
X47790Y-52722D01*
X47813Y-52667D01*
X47813Y-52607D01*
X47813Y-52495D01*
X47891Y-52417D01*
X47934Y-52352D01*
X47950Y-52275D01*
X47950Y-51920D01*
X48013Y-51894D01*
X48143Y-51763D01*
X48214Y-51592D01*
X48215Y-51407D01*
X48144Y-51236D01*
X48107Y-51200D01*
X48392Y-51200D01*
X48356Y-51236D01*
X48285Y-51407D01*
X48284Y-51592D01*
X48355Y-51763D01*
X48486Y-51893D01*
X48657Y-51964D01*
X48842Y-51965D01*
X49013Y-51894D01*
X49050Y-51857D01*
X49050Y-51867D01*
X48832Y-52084D01*
X48789Y-52149D01*
X48774Y-52225D01*
X48774Y-52225D01*
X48751Y-52235D01*
X48709Y-52277D01*
X48686Y-52332D01*
X48686Y-52392D01*
X48686Y-52667D01*
X48709Y-52722D01*
X48751Y-52764D01*
X48806Y-52787D01*
X48866Y-52787D01*
X49142Y-52787D01*
X49197Y-52764D01*
X49239Y-52722D01*
X49249Y-52697D01*
X49260Y-52722D01*
X49302Y-52764D01*
X49357Y-52787D01*
X49417Y-52787D01*
X49693Y-52787D01*
X49748Y-52764D01*
X49790Y-52722D01*
X49813Y-52667D01*
X49813Y-52607D01*
X49813Y-52495D01*
X49891Y-52417D01*
X49934Y-52352D01*
X49950Y-52275D01*
X49950Y-51920D01*
X50013Y-51894D01*
X50143Y-51763D01*
X50214Y-51592D01*
X50215Y-51407D01*
X50144Y-51236D01*
X50107Y-51200D01*
X50392Y-51200D01*
X50356Y-51236D01*
X50285Y-51407D01*
X50284Y-51592D01*
X50355Y-51763D01*
X50486Y-51893D01*
X50657Y-51964D01*
X50842Y-51965D01*
X51013Y-51894D01*
X51050Y-51857D01*
X51050Y-51867D01*
X50832Y-52084D01*
X50789Y-52149D01*
X50774Y-52225D01*
X50774Y-52225D01*
X50751Y-52235D01*
X50709Y-52277D01*
X50686Y-52332D01*
X50686Y-52392D01*
X50686Y-52667D01*
X50709Y-52722D01*
X50751Y-52764D01*
X50806Y-52787D01*
X50866Y-52787D01*
X51142Y-52787D01*
X51197Y-52764D01*
X51239Y-52722D01*
X51249Y-52697D01*
X51260Y-52722D01*
X51302Y-52764D01*
X51357Y-52787D01*
X51417Y-52787D01*
X51693Y-52787D01*
X51748Y-52764D01*
X51790Y-52722D01*
X51813Y-52667D01*
X51813Y-52607D01*
X51813Y-52495D01*
X51891Y-52417D01*
X51934Y-52352D01*
X51950Y-52275D01*
X51950Y-51920D01*
X52013Y-51894D01*
X52143Y-51763D01*
X52214Y-51592D01*
X52215Y-51407D01*
X52144Y-51236D01*
X52107Y-51200D01*
X52392Y-51200D01*
X52356Y-51236D01*
X52285Y-51407D01*
X52284Y-51592D01*
X52355Y-51763D01*
X52486Y-51893D01*
X52657Y-51964D01*
X52842Y-51965D01*
X53013Y-51894D01*
X53050Y-51857D01*
X53050Y-51867D01*
X52832Y-52084D01*
X52789Y-52149D01*
X52774Y-52225D01*
X52774Y-52225D01*
X52751Y-52235D01*
X52709Y-52277D01*
X52686Y-52332D01*
X52686Y-52392D01*
X52686Y-52667D01*
X52709Y-52722D01*
X52751Y-52764D01*
X52806Y-52787D01*
X52866Y-52787D01*
X53142Y-52787D01*
X53197Y-52764D01*
X53239Y-52722D01*
X53249Y-52697D01*
X53260Y-52722D01*
X53302Y-52764D01*
X53357Y-52787D01*
X53417Y-52787D01*
X53693Y-52787D01*
X53748Y-52764D01*
X53790Y-52722D01*
X53813Y-52667D01*
X53813Y-52607D01*
X53813Y-52495D01*
X53891Y-52417D01*
X53934Y-52352D01*
X53950Y-52275D01*
X53950Y-51920D01*
X54013Y-51894D01*
X54143Y-51763D01*
X54214Y-51592D01*
X54215Y-51407D01*
X54144Y-51236D01*
X54107Y-51200D01*
X54392Y-51200D01*
X54356Y-51236D01*
X54285Y-51407D01*
X54284Y-51592D01*
X54355Y-51763D01*
X54486Y-51893D01*
X54657Y-51964D01*
X54842Y-51965D01*
X54944Y-51922D01*
X54832Y-52034D01*
X54789Y-52099D01*
X54774Y-52175D01*
X54774Y-52225D01*
X54751Y-52235D01*
X54709Y-52277D01*
X54686Y-52332D01*
X54686Y-52392D01*
X54686Y-52667D01*
X54709Y-52722D01*
X54751Y-52764D01*
X54806Y-52787D01*
X54866Y-52787D01*
X55142Y-52787D01*
X55197Y-52764D01*
X55239Y-52722D01*
X55249Y-52697D01*
X55260Y-52722D01*
X55302Y-52764D01*
X55357Y-52787D01*
X55417Y-52787D01*
X55693Y-52787D01*
X55748Y-52764D01*
X55790Y-52722D01*
X55813Y-52667D01*
X55813Y-52607D01*
X55813Y-52495D01*
X55891Y-52417D01*
X55934Y-52352D01*
X55950Y-52275D01*
X55950Y-51920D01*
X56013Y-51894D01*
X56050Y-51857D01*
X56050Y-52300D01*
X56065Y-52376D01*
X56108Y-52441D01*
X56308Y-52641D01*
X56308Y-52641D01*
X56351Y-52670D01*
X56373Y-52684D01*
X56373Y-52684D01*
X56450Y-52700D01*
X56700Y-52700D01*
X56709Y-52722D01*
X56751Y-52764D01*
X56806Y-52787D01*
X56866Y-52787D01*
X57142Y-52787D01*
X57197Y-52764D01*
X57239Y-52722D01*
X57249Y-52697D01*
X57260Y-52722D01*
X57302Y-52764D01*
X57357Y-52787D01*
X57417Y-52787D01*
X57693Y-52787D01*
X57748Y-52764D01*
X57790Y-52722D01*
X57813Y-52667D01*
X57813Y-52607D01*
X57813Y-52495D01*
X57891Y-52417D01*
X57934Y-52352D01*
X57950Y-52275D01*
X57950Y-51920D01*
X58013Y-51894D01*
X58143Y-51763D01*
X58214Y-51592D01*
X58215Y-51407D01*
X58144Y-51236D01*
X58013Y-51106D01*
X57842Y-51035D01*
X57657Y-51034D01*
X57486Y-51105D01*
X57356Y-51236D01*
X57285Y-51407D01*
X57284Y-51592D01*
X57333Y-51709D01*
X57309Y-51700D01*
X57190Y-51699D01*
X57166Y-51710D01*
X57214Y-51592D01*
X57215Y-51407D01*
X57144Y-51236D01*
X57013Y-51106D01*
X56842Y-51035D01*
X56657Y-51034D01*
X56486Y-51105D01*
X56440Y-51152D01*
X56434Y-51123D01*
X56434Y-51123D01*
X56420Y-51101D01*
X56391Y-51058D01*
X56391Y-51058D01*
X56191Y-50858D01*
X56178Y-50850D01*
X56850Y-50850D01*
X56926Y-50834D01*
X56991Y-50791D01*
X57115Y-50667D01*
X57115Y-50667D01*
X57144Y-50623D01*
X57159Y-50602D01*
X57159Y-50602D01*
X57174Y-50525D01*
X57174Y-50525D01*
X57174Y-50524D01*
X57197Y-50514D01*
X57239Y-50472D01*
X57249Y-50447D01*
X57260Y-50472D01*
X57302Y-50514D01*
X57357Y-50537D01*
X57417Y-50537D01*
X57693Y-50537D01*
X57748Y-50514D01*
X57790Y-50472D01*
X57813Y-50417D01*
X57813Y-50357D01*
X57813Y-50245D01*
X57891Y-50167D01*
X57934Y-50102D01*
X57950Y-50025D01*
X57950Y-49670D01*
X58013Y-49644D01*
X58143Y-49513D01*
X58214Y-49342D01*
X58215Y-49157D01*
X58144Y-48986D01*
X58013Y-48856D01*
X57842Y-48785D01*
X57657Y-48784D01*
X57486Y-48855D01*
X57356Y-48986D01*
X57285Y-49157D01*
X57284Y-49342D01*
X57355Y-49513D01*
X57486Y-49643D01*
X57550Y-49670D01*
X57550Y-49942D01*
X57530Y-49962D01*
X57357Y-49962D01*
X57302Y-49985D01*
X57260Y-50027D01*
X57250Y-50052D01*
X57239Y-50027D01*
X57215Y-50002D01*
X57215Y-49157D01*
X57144Y-48986D01*
X57013Y-48856D01*
X56842Y-48785D01*
X56657Y-48784D01*
X56486Y-48855D01*
X56356Y-48986D01*
X56285Y-49157D01*
X56284Y-49342D01*
X56355Y-49513D01*
X56486Y-49643D01*
X56657Y-49714D01*
X56842Y-49715D01*
X57013Y-49644D01*
X57143Y-49513D01*
X57214Y-49342D01*
X57215Y-49157D01*
X57215Y-50002D01*
X57197Y-49985D01*
X57142Y-49962D01*
X57082Y-49962D01*
X56806Y-49962D01*
X56751Y-49985D01*
X56709Y-50027D01*
X56686Y-50082D01*
X56686Y-50142D01*
X56686Y-50417D01*
X56700Y-50450D01*
X55799Y-50450D01*
X55813Y-50417D01*
X55813Y-50357D01*
X55813Y-50245D01*
X55891Y-50167D01*
X55934Y-50102D01*
X55950Y-50025D01*
X55950Y-49670D01*
X56013Y-49644D01*
X56143Y-49513D01*
X56214Y-49342D01*
X56215Y-49157D01*
X56144Y-48986D01*
X56013Y-48856D01*
X55842Y-48785D01*
X55657Y-48784D01*
X55486Y-48855D01*
X55356Y-48986D01*
X55285Y-49157D01*
X55284Y-49342D01*
X55355Y-49513D01*
X55486Y-49643D01*
X55550Y-49670D01*
X55550Y-49942D01*
X55530Y-49962D01*
X55357Y-49962D01*
X55302Y-49985D01*
X55260Y-50027D01*
X55250Y-50052D01*
X55239Y-50027D01*
X55215Y-50002D01*
X55215Y-49157D01*
X55144Y-48986D01*
X55013Y-48856D01*
X54842Y-48785D01*
X54657Y-48784D01*
X54486Y-48855D01*
X54356Y-48986D01*
X54285Y-49157D01*
X54284Y-49342D01*
X54355Y-49513D01*
X54486Y-49643D01*
X54657Y-49714D01*
X54842Y-49715D01*
X55013Y-49644D01*
X55143Y-49513D01*
X55214Y-49342D01*
X55215Y-49157D01*
X55215Y-50002D01*
X55197Y-49985D01*
X55142Y-49962D01*
X55082Y-49962D01*
X54806Y-49962D01*
X54751Y-49985D01*
X54709Y-50027D01*
X54686Y-50082D01*
X54686Y-50142D01*
X54686Y-50417D01*
X54700Y-50450D01*
X53799Y-50450D01*
X53813Y-50417D01*
X53813Y-50357D01*
X53813Y-50245D01*
X53891Y-50167D01*
X53934Y-50102D01*
X53950Y-50025D01*
X53950Y-49670D01*
X54013Y-49644D01*
X54143Y-49513D01*
X54214Y-49342D01*
X54215Y-49157D01*
X54144Y-48986D01*
X54013Y-48856D01*
X53842Y-48785D01*
X53657Y-48784D01*
X53486Y-48855D01*
X53356Y-48986D01*
X53285Y-49157D01*
X53284Y-49342D01*
X53355Y-49513D01*
X53486Y-49643D01*
X53550Y-49670D01*
X53550Y-49942D01*
X53530Y-49962D01*
X53357Y-49962D01*
X53302Y-49985D01*
X53260Y-50027D01*
X53250Y-50052D01*
X53239Y-50027D01*
X53215Y-50002D01*
X53215Y-49157D01*
X53144Y-48986D01*
X53013Y-48856D01*
X52842Y-48785D01*
X52657Y-48784D01*
X52486Y-48855D01*
X52356Y-48986D01*
X52285Y-49157D01*
X52284Y-49342D01*
X52355Y-49513D01*
X52486Y-49643D01*
X52657Y-49714D01*
X52842Y-49715D01*
X53013Y-49644D01*
X53143Y-49513D01*
X53214Y-49342D01*
X53215Y-49157D01*
X53215Y-50002D01*
X53197Y-49985D01*
X53142Y-49962D01*
X53082Y-49962D01*
X52806Y-49962D01*
X52751Y-49985D01*
X52709Y-50027D01*
X52686Y-50082D01*
X52686Y-50142D01*
X52686Y-50417D01*
X52700Y-50450D01*
X51799Y-50450D01*
X51813Y-50417D01*
X51813Y-50357D01*
X51813Y-50245D01*
X51891Y-50167D01*
X51934Y-50102D01*
X51950Y-50025D01*
X51950Y-49670D01*
X52013Y-49644D01*
X52143Y-49513D01*
X52214Y-49342D01*
X52215Y-49157D01*
X52144Y-48986D01*
X52013Y-48856D01*
X51842Y-48785D01*
X51657Y-48784D01*
X51486Y-48855D01*
X51356Y-48986D01*
X51285Y-49157D01*
X51284Y-49342D01*
X51355Y-49513D01*
X51486Y-49643D01*
X51550Y-49670D01*
X51550Y-49942D01*
X51530Y-49962D01*
X51357Y-49962D01*
X51302Y-49985D01*
X51260Y-50027D01*
X51250Y-50052D01*
X51239Y-50027D01*
X51215Y-50002D01*
X51215Y-49157D01*
X51144Y-48986D01*
X51013Y-48856D01*
X50842Y-48785D01*
X50657Y-48784D01*
X50486Y-48855D01*
X50356Y-48986D01*
X50285Y-49157D01*
X50284Y-49342D01*
X50355Y-49513D01*
X50486Y-49643D01*
X50657Y-49714D01*
X50842Y-49715D01*
X51013Y-49644D01*
X51143Y-49513D01*
X51214Y-49342D01*
X51215Y-49157D01*
X51215Y-50002D01*
X51197Y-49985D01*
X51142Y-49962D01*
X51082Y-49962D01*
X50806Y-49962D01*
X50751Y-49985D01*
X50709Y-50027D01*
X50686Y-50082D01*
X50686Y-50142D01*
X50686Y-50417D01*
X50700Y-50450D01*
X49799Y-50450D01*
X49813Y-50417D01*
X49813Y-50357D01*
X49813Y-50245D01*
X49891Y-50167D01*
X49934Y-50102D01*
X49950Y-50025D01*
X49950Y-49670D01*
X50013Y-49644D01*
X50143Y-49513D01*
X50214Y-49342D01*
X50215Y-49157D01*
X50144Y-48986D01*
X50013Y-48856D01*
X49842Y-48785D01*
X49657Y-48784D01*
X49486Y-48855D01*
X49356Y-48986D01*
X49285Y-49157D01*
X49284Y-49342D01*
X49355Y-49513D01*
X49486Y-49643D01*
X49550Y-49670D01*
X49550Y-49942D01*
X49530Y-49962D01*
X49357Y-49962D01*
X49302Y-49985D01*
X49260Y-50027D01*
X49250Y-50052D01*
X49239Y-50027D01*
X49215Y-50002D01*
X49215Y-49157D01*
X49144Y-48986D01*
X49013Y-48856D01*
X48842Y-48785D01*
X48657Y-48784D01*
X48486Y-48855D01*
X48356Y-48986D01*
X48285Y-49157D01*
X48284Y-49342D01*
X48355Y-49513D01*
X48486Y-49643D01*
X48657Y-49714D01*
X48842Y-49715D01*
X49013Y-49644D01*
X49143Y-49513D01*
X49214Y-49342D01*
X49215Y-49157D01*
X49215Y-50002D01*
X49197Y-49985D01*
X49142Y-49962D01*
X49082Y-49962D01*
X48806Y-49962D01*
X48751Y-49985D01*
X48709Y-50027D01*
X48686Y-50082D01*
X48686Y-50142D01*
X48686Y-50417D01*
X48700Y-50450D01*
X47799Y-50450D01*
X47813Y-50417D01*
X47813Y-50357D01*
X47813Y-50245D01*
X47891Y-50167D01*
X47934Y-50102D01*
X47950Y-50025D01*
X47950Y-49670D01*
X48013Y-49644D01*
X48143Y-49513D01*
X48214Y-49342D01*
X48215Y-49157D01*
X48144Y-48986D01*
X48013Y-48856D01*
X47842Y-48785D01*
X47657Y-48784D01*
X47486Y-48855D01*
X47356Y-48986D01*
X47285Y-49157D01*
X47284Y-49342D01*
X47355Y-49513D01*
X47486Y-49643D01*
X47550Y-49670D01*
X47550Y-49942D01*
X47530Y-49962D01*
X47357Y-49962D01*
X47302Y-49985D01*
X47260Y-50027D01*
X47250Y-50052D01*
X47239Y-50027D01*
X47215Y-50002D01*
X47215Y-49157D01*
X47144Y-48986D01*
X47013Y-48856D01*
X46842Y-48785D01*
X46657Y-48784D01*
X46486Y-48855D01*
X46356Y-48986D01*
X46285Y-49157D01*
X46284Y-49342D01*
X46355Y-49513D01*
X46486Y-49643D01*
X46657Y-49714D01*
X46842Y-49715D01*
X47013Y-49644D01*
X47143Y-49513D01*
X47214Y-49342D01*
X47215Y-49157D01*
X47215Y-50002D01*
X47197Y-49985D01*
X47142Y-49962D01*
X47082Y-49962D01*
X46806Y-49962D01*
X46751Y-49985D01*
X46709Y-50027D01*
X46686Y-50082D01*
X46686Y-50142D01*
X46686Y-50417D01*
X46699Y-50448D01*
X45800Y-50448D01*
X45813Y-50417D01*
X45813Y-50357D01*
X45813Y-50245D01*
X45891Y-50167D01*
X45934Y-50102D01*
X45950Y-50025D01*
X45950Y-49670D01*
X46013Y-49644D01*
X46143Y-49513D01*
X46214Y-49342D01*
X46215Y-49157D01*
X46144Y-48986D01*
X46013Y-48856D01*
X45842Y-48785D01*
X45657Y-48784D01*
X45486Y-48855D01*
X45440Y-48902D01*
X45434Y-48873D01*
X45391Y-48808D01*
X45181Y-48598D01*
X46850Y-48598D01*
X46926Y-48583D01*
X46974Y-48551D01*
X46974Y-48551D01*
X47000Y-48569D01*
X47022Y-48583D01*
X47022Y-48583D01*
X47098Y-48598D01*
X48850Y-48598D01*
X48926Y-48583D01*
X48974Y-48551D01*
X48974Y-48551D01*
X49023Y-48584D01*
X49023Y-48584D01*
X49100Y-48600D01*
X50848Y-48600D01*
X50925Y-48584D01*
X50974Y-48551D01*
X50974Y-48551D01*
X51023Y-48584D01*
X51023Y-48584D01*
X51100Y-48600D01*
X52850Y-48600D01*
X52926Y-48584D01*
X52974Y-48552D01*
X53023Y-48584D01*
X53023Y-48584D01*
X53100Y-48600D01*
X54848Y-48600D01*
X54925Y-48584D01*
X54974Y-48551D01*
X54974Y-48551D01*
X55023Y-48584D01*
X55023Y-48584D01*
X55100Y-48600D01*
X56850Y-48600D01*
X56926Y-48584D01*
X56991Y-48541D01*
X57115Y-48417D01*
X57115Y-48417D01*
X57144Y-48373D01*
X57159Y-48352D01*
X57159Y-48352D01*
X57174Y-48275D01*
X57174Y-48275D01*
X57174Y-48274D01*
X57197Y-48264D01*
X57239Y-48222D01*
X57249Y-48197D01*
X57260Y-48222D01*
X57302Y-48264D01*
X57357Y-48287D01*
X57417Y-48287D01*
X57693Y-48287D01*
X57748Y-48264D01*
X57790Y-48222D01*
X57813Y-48167D01*
X57813Y-48107D01*
X57813Y-47995D01*
X57891Y-47917D01*
X57934Y-47852D01*
X57950Y-47775D01*
X57950Y-47420D01*
X58013Y-47394D01*
X58143Y-47263D01*
X58214Y-47092D01*
X58215Y-46907D01*
X58144Y-46736D01*
X58013Y-46606D01*
X57842Y-46535D01*
X57657Y-46534D01*
X57486Y-46605D01*
X57356Y-46736D01*
X57285Y-46907D01*
X57284Y-47092D01*
X57355Y-47263D01*
X57486Y-47393D01*
X57550Y-47420D01*
X57550Y-47692D01*
X57530Y-47712D01*
X57357Y-47712D01*
X57302Y-47735D01*
X57260Y-47777D01*
X57250Y-47802D01*
X57239Y-47777D01*
X57215Y-47752D01*
X57215Y-46907D01*
X57144Y-46736D01*
X57013Y-46606D01*
X56842Y-46535D01*
X56657Y-46534D01*
X56486Y-46605D01*
X56356Y-46736D01*
X56285Y-46907D01*
X56284Y-47092D01*
X56355Y-47263D01*
X56486Y-47393D01*
X56657Y-47464D01*
X56842Y-47465D01*
X57013Y-47394D01*
X57143Y-47263D01*
X57214Y-47092D01*
X57215Y-46907D01*
X57215Y-47752D01*
X57197Y-47735D01*
X57142Y-47712D01*
X57082Y-47712D01*
X56806Y-47712D01*
X56751Y-47735D01*
X56709Y-47777D01*
X56686Y-47832D01*
X56686Y-47892D01*
X56686Y-48167D01*
X56700Y-48200D01*
X55799Y-48200D01*
X55813Y-48167D01*
X55813Y-48107D01*
X55813Y-47995D01*
X55891Y-47917D01*
X55934Y-47852D01*
X55950Y-47775D01*
X55950Y-47420D01*
X56013Y-47394D01*
X56143Y-47263D01*
X56214Y-47092D01*
X56215Y-46907D01*
X56144Y-46736D01*
X56013Y-46606D01*
X55842Y-46535D01*
X55657Y-46534D01*
X55486Y-46605D01*
X55356Y-46736D01*
X55285Y-46907D01*
X55284Y-47092D01*
X55355Y-47263D01*
X55486Y-47393D01*
X55550Y-47420D01*
X55550Y-47692D01*
X55530Y-47712D01*
X55357Y-47712D01*
X55302Y-47735D01*
X55260Y-47777D01*
X55250Y-47802D01*
X55239Y-47777D01*
X55215Y-47752D01*
X55215Y-46907D01*
X55144Y-46736D01*
X55013Y-46606D01*
X54842Y-46535D01*
X54657Y-46534D01*
X54486Y-46605D01*
X54356Y-46736D01*
X54285Y-46907D01*
X54284Y-47092D01*
X54355Y-47263D01*
X54486Y-47393D01*
X54657Y-47464D01*
X54842Y-47465D01*
X55013Y-47394D01*
X55143Y-47263D01*
X55214Y-47092D01*
X55215Y-46907D01*
X55215Y-47752D01*
X55197Y-47735D01*
X55142Y-47712D01*
X55082Y-47712D01*
X54806Y-47712D01*
X54751Y-47735D01*
X54709Y-47777D01*
X54686Y-47832D01*
X54686Y-47892D01*
X54686Y-48167D01*
X54700Y-48200D01*
X53799Y-48200D01*
X53813Y-48167D01*
X53813Y-48107D01*
X53813Y-47995D01*
X53891Y-47917D01*
X53934Y-47852D01*
X53950Y-47775D01*
X53950Y-47420D01*
X54013Y-47394D01*
X54143Y-47263D01*
X54214Y-47092D01*
X54215Y-46907D01*
X54144Y-46736D01*
X54013Y-46606D01*
X53842Y-46535D01*
X53657Y-46534D01*
X53486Y-46605D01*
X53356Y-46736D01*
X53285Y-46907D01*
X53284Y-47092D01*
X53355Y-47263D01*
X53486Y-47393D01*
X53550Y-47420D01*
X53550Y-47692D01*
X53530Y-47712D01*
X53357Y-47712D01*
X53302Y-47735D01*
X53260Y-47777D01*
X53250Y-47802D01*
X53239Y-47777D01*
X53215Y-47752D01*
X53215Y-46907D01*
X53144Y-46736D01*
X53013Y-46606D01*
X52842Y-46535D01*
X52657Y-46534D01*
X52486Y-46605D01*
X52356Y-46736D01*
X52285Y-46907D01*
X52284Y-47092D01*
X52355Y-47263D01*
X52486Y-47393D01*
X52657Y-47464D01*
X52842Y-47465D01*
X53013Y-47394D01*
X53143Y-47263D01*
X53214Y-47092D01*
X53215Y-46907D01*
X53215Y-47752D01*
X53197Y-47735D01*
X53142Y-47712D01*
X53082Y-47712D01*
X52806Y-47712D01*
X52751Y-47735D01*
X52709Y-47777D01*
X52686Y-47832D01*
X52686Y-47892D01*
X52686Y-48167D01*
X52700Y-48200D01*
X51799Y-48200D01*
X51813Y-48167D01*
X51813Y-48107D01*
X51813Y-47995D01*
X51891Y-47917D01*
X51934Y-47852D01*
X51950Y-47775D01*
X51950Y-47420D01*
X52013Y-47394D01*
X52143Y-47263D01*
X52214Y-47092D01*
X52215Y-46907D01*
X52144Y-46736D01*
X52013Y-46606D01*
X51842Y-46535D01*
X51657Y-46534D01*
X51486Y-46605D01*
X51356Y-46736D01*
X51285Y-46907D01*
X51284Y-47092D01*
X51355Y-47263D01*
X51486Y-47393D01*
X51550Y-47420D01*
X51550Y-47692D01*
X51530Y-47712D01*
X51357Y-47712D01*
X51302Y-47735D01*
X51260Y-47777D01*
X51250Y-47802D01*
X51239Y-47777D01*
X51215Y-47752D01*
X51215Y-46907D01*
X51144Y-46736D01*
X51013Y-46606D01*
X50842Y-46535D01*
X50657Y-46534D01*
X50486Y-46605D01*
X50356Y-46736D01*
X50285Y-46907D01*
X50284Y-47092D01*
X50355Y-47263D01*
X50486Y-47393D01*
X50657Y-47464D01*
X50842Y-47465D01*
X51013Y-47394D01*
X51143Y-47263D01*
X51214Y-47092D01*
X51215Y-46907D01*
X51215Y-47752D01*
X51197Y-47735D01*
X51142Y-47712D01*
X51082Y-47712D01*
X50806Y-47712D01*
X50751Y-47735D01*
X50709Y-47777D01*
X50686Y-47832D01*
X50686Y-47892D01*
X50686Y-48167D01*
X50700Y-48200D01*
X49799Y-48200D01*
X49813Y-48167D01*
X49813Y-48107D01*
X49813Y-47995D01*
X49891Y-47917D01*
X49934Y-47852D01*
X49950Y-47775D01*
X49950Y-47420D01*
X50013Y-47394D01*
X50143Y-47263D01*
X50214Y-47092D01*
X50215Y-46907D01*
X50144Y-46736D01*
X50013Y-46606D01*
X49842Y-46535D01*
X49657Y-46534D01*
X49486Y-46605D01*
X49356Y-46736D01*
X49285Y-46907D01*
X49284Y-47092D01*
X49355Y-47263D01*
X49486Y-47393D01*
X49550Y-47420D01*
X49550Y-47692D01*
X49530Y-47712D01*
X49357Y-47712D01*
X49302Y-47735D01*
X49260Y-47777D01*
X49250Y-47802D01*
X49239Y-47777D01*
X49215Y-47752D01*
X49215Y-46907D01*
X49144Y-46736D01*
X49013Y-46606D01*
X48842Y-46535D01*
X48657Y-46534D01*
X48486Y-46605D01*
X48356Y-46736D01*
X48285Y-46907D01*
X48284Y-47092D01*
X48355Y-47263D01*
X48486Y-47393D01*
X48657Y-47464D01*
X48842Y-47465D01*
X49013Y-47394D01*
X49143Y-47263D01*
X49214Y-47092D01*
X49215Y-46907D01*
X49215Y-47752D01*
X49197Y-47735D01*
X49142Y-47712D01*
X49082Y-47712D01*
X48806Y-47712D01*
X48751Y-47735D01*
X48709Y-47777D01*
X48686Y-47832D01*
X48686Y-47892D01*
X48686Y-48167D01*
X48699Y-48198D01*
X47800Y-48198D01*
X47813Y-48167D01*
X47813Y-48107D01*
X47813Y-47995D01*
X47891Y-47917D01*
X47934Y-47852D01*
X47950Y-47775D01*
X47950Y-47420D01*
X48013Y-47394D01*
X48143Y-47263D01*
X48214Y-47092D01*
X48215Y-46907D01*
X48144Y-46736D01*
X48013Y-46606D01*
X47842Y-46535D01*
X47657Y-46534D01*
X47486Y-46605D01*
X47356Y-46736D01*
X47285Y-46907D01*
X47284Y-47092D01*
X47355Y-47263D01*
X47486Y-47393D01*
X47550Y-47420D01*
X47550Y-47692D01*
X47530Y-47712D01*
X47357Y-47712D01*
X47302Y-47735D01*
X47260Y-47777D01*
X47250Y-47802D01*
X47239Y-47777D01*
X47197Y-47735D01*
X47142Y-47712D01*
X47082Y-47712D01*
X46806Y-47712D01*
X46763Y-47730D01*
X46549Y-47517D01*
X46550Y-47440D01*
X46539Y-47416D01*
X46657Y-47464D01*
X46842Y-47465D01*
X47013Y-47394D01*
X47143Y-47263D01*
X47214Y-47092D01*
X47215Y-46907D01*
X47144Y-46736D01*
X47013Y-46606D01*
X46842Y-46535D01*
X46657Y-46534D01*
X46486Y-46605D01*
X46356Y-46736D01*
X46285Y-46907D01*
X46284Y-47092D01*
X46333Y-47209D01*
X46309Y-47200D01*
X46190Y-47199D01*
X46166Y-47210D01*
X46214Y-47092D01*
X46215Y-46907D01*
X46144Y-46736D01*
X46013Y-46606D01*
X45842Y-46535D01*
X45657Y-46534D01*
X45486Y-46605D01*
X45440Y-46652D01*
X45434Y-46623D01*
X45434Y-46623D01*
X45420Y-46601D01*
X45391Y-46558D01*
X45391Y-46558D01*
X45181Y-46348D01*
X46850Y-46348D01*
X46926Y-46333D01*
X46974Y-46301D01*
X46974Y-46301D01*
X47023Y-46334D01*
X47023Y-46334D01*
X47100Y-46350D01*
X48848Y-46350D01*
X48925Y-46334D01*
X48974Y-46301D01*
X48974Y-46301D01*
X49023Y-46334D01*
X49023Y-46334D01*
X49100Y-46350D01*
X50848Y-46350D01*
X50925Y-46334D01*
X50974Y-46301D01*
X51000Y-46319D01*
X51022Y-46333D01*
X51022Y-46333D01*
X51098Y-46348D01*
X52850Y-46348D01*
X52926Y-46333D01*
X52974Y-46301D01*
X52974Y-46301D01*
X53023Y-46334D01*
X53023Y-46334D01*
X53100Y-46350D01*
X54848Y-46350D01*
X54925Y-46334D01*
X54974Y-46301D01*
X54974Y-46301D01*
X55023Y-46334D01*
X55023Y-46334D01*
X55100Y-46350D01*
X56850Y-46350D01*
X56926Y-46334D01*
X56991Y-46291D01*
X57115Y-46167D01*
X57115Y-46167D01*
X57144Y-46123D01*
X57159Y-46102D01*
X57159Y-46102D01*
X57174Y-46025D01*
X57174Y-46025D01*
X57174Y-46024D01*
X57197Y-46014D01*
X57239Y-45972D01*
X57249Y-45947D01*
X57260Y-45972D01*
X57302Y-46014D01*
X57357Y-46037D01*
X57417Y-46037D01*
X57693Y-46037D01*
X57748Y-46014D01*
X57790Y-45972D01*
X57813Y-45917D01*
X57813Y-45857D01*
X57813Y-45745D01*
X57891Y-45667D01*
X57934Y-45602D01*
X57950Y-45525D01*
X57950Y-45170D01*
X58013Y-45144D01*
X58143Y-45013D01*
X58214Y-44842D01*
X58215Y-44657D01*
X58144Y-44486D01*
X58013Y-44356D01*
X57842Y-44285D01*
X57657Y-44284D01*
X57486Y-44355D01*
X57356Y-44486D01*
X57285Y-44657D01*
X57284Y-44842D01*
X57355Y-45013D01*
X57486Y-45143D01*
X57550Y-45170D01*
X57550Y-45442D01*
X57530Y-45462D01*
X57357Y-45462D01*
X57302Y-45485D01*
X57260Y-45527D01*
X57250Y-45552D01*
X57239Y-45527D01*
X57197Y-45485D01*
X57142Y-45462D01*
X57082Y-45462D01*
X56806Y-45462D01*
X56751Y-45485D01*
X56709Y-45527D01*
X56686Y-45582D01*
X56686Y-45642D01*
X56686Y-45917D01*
X56700Y-45950D01*
X55799Y-45950D01*
X55813Y-45917D01*
X55813Y-45857D01*
X55813Y-45745D01*
X55891Y-45667D01*
X55934Y-45602D01*
X55950Y-45525D01*
X55950Y-45170D01*
X56013Y-45144D01*
X56143Y-45013D01*
X56214Y-44842D01*
X56215Y-44657D01*
X56144Y-44486D01*
X56013Y-44356D01*
X55842Y-44285D01*
X55657Y-44284D01*
X55486Y-44355D01*
X55356Y-44486D01*
X55285Y-44657D01*
X55284Y-44842D01*
X55355Y-45013D01*
X55486Y-45143D01*
X55550Y-45170D01*
X55550Y-45442D01*
X55530Y-45462D01*
X55357Y-45462D01*
X55302Y-45485D01*
X55260Y-45527D01*
X55250Y-45552D01*
X55239Y-45527D01*
X55197Y-45485D01*
X55142Y-45462D01*
X55082Y-45462D01*
X54806Y-45462D01*
X54751Y-45485D01*
X54709Y-45527D01*
X54686Y-45582D01*
X54686Y-45642D01*
X54686Y-45917D01*
X54700Y-45950D01*
X53799Y-45950D01*
X53813Y-45917D01*
X53813Y-45857D01*
X53813Y-45745D01*
X53891Y-45667D01*
X53934Y-45602D01*
X53950Y-45525D01*
X53950Y-45170D01*
X54013Y-45144D01*
X54143Y-45013D01*
X54214Y-44842D01*
X54215Y-44657D01*
X54144Y-44486D01*
X54013Y-44356D01*
X53842Y-44285D01*
X53657Y-44284D01*
X53486Y-44355D01*
X53356Y-44486D01*
X53285Y-44657D01*
X53284Y-44842D01*
X53355Y-45013D01*
X53486Y-45143D01*
X53550Y-45170D01*
X53550Y-45442D01*
X53530Y-45462D01*
X53357Y-45462D01*
X53302Y-45485D01*
X53260Y-45527D01*
X53250Y-45552D01*
X53239Y-45527D01*
X53197Y-45485D01*
X53142Y-45462D01*
X53082Y-45462D01*
X52806Y-45462D01*
X52751Y-45485D01*
X52709Y-45527D01*
X52686Y-45582D01*
X52686Y-45642D01*
X52686Y-45917D01*
X52699Y-45948D01*
X51800Y-45948D01*
X51813Y-45917D01*
X51813Y-45857D01*
X51813Y-45745D01*
X51891Y-45667D01*
X51934Y-45602D01*
X51950Y-45525D01*
X51950Y-45170D01*
X52013Y-45144D01*
X52143Y-45013D01*
X52214Y-44842D01*
X52215Y-44657D01*
X52144Y-44486D01*
X52013Y-44356D01*
X51842Y-44285D01*
X51657Y-44284D01*
X51486Y-44355D01*
X51356Y-44486D01*
X51285Y-44657D01*
X51284Y-44842D01*
X51355Y-45013D01*
X51486Y-45143D01*
X51550Y-45170D01*
X51550Y-45442D01*
X51530Y-45462D01*
X51357Y-45462D01*
X51302Y-45485D01*
X51260Y-45527D01*
X51250Y-45552D01*
X51239Y-45527D01*
X51197Y-45485D01*
X51142Y-45462D01*
X51082Y-45462D01*
X50806Y-45462D01*
X50751Y-45485D01*
X50709Y-45527D01*
X50686Y-45582D01*
X50686Y-45642D01*
X50686Y-45917D01*
X50700Y-45950D01*
X49799Y-45950D01*
X49813Y-45917D01*
X49813Y-45857D01*
X49813Y-45745D01*
X49891Y-45667D01*
X49934Y-45602D01*
X49950Y-45525D01*
X49950Y-45170D01*
X50013Y-45144D01*
X50143Y-45013D01*
X50214Y-44842D01*
X50215Y-44657D01*
X50144Y-44486D01*
X50013Y-44356D01*
X49842Y-44285D01*
X49657Y-44284D01*
X49486Y-44355D01*
X49356Y-44486D01*
X49285Y-44657D01*
X49284Y-44842D01*
X49355Y-45013D01*
X49486Y-45143D01*
X49550Y-45170D01*
X49550Y-45442D01*
X49530Y-45462D01*
X49357Y-45462D01*
X49302Y-45485D01*
X49260Y-45527D01*
X49250Y-45552D01*
X49239Y-45527D01*
X49197Y-45485D01*
X49142Y-45462D01*
X49082Y-45462D01*
X48806Y-45462D01*
X48751Y-45485D01*
X48709Y-45527D01*
X48702Y-45544D01*
X48450Y-45292D01*
X48450Y-45107D01*
X48486Y-45143D01*
X48657Y-45214D01*
X48842Y-45215D01*
X49013Y-45144D01*
X49143Y-45013D01*
X49214Y-44842D01*
X49215Y-44657D01*
X49188Y-44594D01*
X49391Y-44391D01*
X49434Y-44326D01*
X49434Y-44326D01*
X49437Y-44313D01*
X49444Y-44276D01*
X49462Y-44268D01*
X49505Y-44226D01*
X49527Y-44171D01*
X49527Y-44111D01*
X49527Y-43700D01*
X50800Y-43700D01*
X50875Y-43684D01*
X50875Y-43684D01*
X50888Y-43687D01*
X50951Y-43700D01*
X50972Y-43700D01*
X50972Y-43754D01*
X50972Y-44171D01*
X50993Y-44223D01*
X50905Y-44311D01*
X50842Y-44285D01*
X50657Y-44284D01*
X50486Y-44355D01*
X50356Y-44486D01*
X50285Y-44657D01*
X50284Y-44842D01*
X50355Y-45013D01*
X50486Y-45143D01*
X50657Y-45214D01*
X50842Y-45215D01*
X51013Y-45144D01*
X51143Y-45013D01*
X51214Y-44842D01*
X51215Y-44657D01*
X51188Y-44594D01*
X51391Y-44391D01*
X51434Y-44326D01*
X51434Y-44326D01*
X51437Y-44313D01*
X51444Y-44276D01*
X51462Y-44268D01*
X51505Y-44226D01*
X51527Y-44171D01*
X51527Y-44111D01*
X51527Y-43700D01*
X52800Y-43700D01*
X52875Y-43684D01*
X52875Y-43684D01*
X52888Y-43687D01*
X52951Y-43700D01*
X52972Y-43700D01*
X52972Y-43754D01*
X52972Y-44171D01*
X52993Y-44223D01*
X52905Y-44311D01*
X52842Y-44285D01*
X52657Y-44284D01*
X52486Y-44355D01*
X52356Y-44486D01*
X52285Y-44657D01*
X52284Y-44842D01*
X52355Y-45013D01*
X52486Y-45143D01*
X52657Y-45214D01*
X52842Y-45215D01*
X53013Y-45144D01*
X53143Y-45013D01*
X53214Y-44842D01*
X53215Y-44657D01*
X53188Y-44594D01*
X53391Y-44391D01*
X53434Y-44326D01*
X53434Y-44326D01*
X53437Y-44313D01*
X53444Y-44276D01*
X53462Y-44268D01*
X53505Y-44226D01*
X53527Y-44171D01*
X53527Y-44111D01*
X53527Y-43700D01*
X54800Y-43700D01*
X54875Y-43684D01*
X54875Y-43684D01*
X54888Y-43687D01*
X54951Y-43700D01*
X54972Y-43700D01*
X54972Y-43754D01*
X54972Y-44171D01*
X54993Y-44223D01*
X54905Y-44311D01*
X54842Y-44285D01*
X54657Y-44284D01*
X54486Y-44355D01*
X54356Y-44486D01*
X54285Y-44657D01*
X54284Y-44842D01*
X54355Y-45013D01*
X54486Y-45143D01*
X54657Y-45214D01*
X54842Y-45215D01*
X55013Y-45144D01*
X55143Y-45013D01*
X55214Y-44842D01*
X55215Y-44657D01*
X55188Y-44594D01*
X55391Y-44391D01*
X55434Y-44326D01*
X55434Y-44326D01*
X55437Y-44313D01*
X55444Y-44276D01*
X55462Y-44268D01*
X55505Y-44226D01*
X55527Y-44171D01*
X55527Y-44111D01*
X55527Y-43700D01*
X56800Y-43700D01*
X56972Y-43700D01*
X56972Y-43754D01*
X56972Y-44171D01*
X56993Y-44223D01*
X56905Y-44311D01*
X56842Y-44285D01*
X56657Y-44284D01*
X56486Y-44355D01*
X56356Y-44486D01*
X56285Y-44657D01*
X56284Y-44842D01*
X56355Y-45013D01*
X56486Y-45143D01*
X56657Y-45214D01*
X56842Y-45215D01*
X57013Y-45144D01*
X57143Y-45013D01*
X57214Y-44842D01*
X57215Y-44657D01*
X57188Y-44594D01*
X57391Y-44391D01*
X57434Y-44326D01*
X57434Y-44326D01*
X57437Y-44313D01*
X57444Y-44276D01*
X57462Y-44268D01*
X57505Y-44226D01*
X57527Y-44171D01*
X57527Y-44111D01*
X57527Y-43852D01*
X57579Y-43904D01*
X57690Y-43949D01*
X57809Y-43950D01*
X57919Y-43904D01*
X58004Y-43820D01*
X58049Y-43709D01*
X58050Y-43590D01*
X58004Y-43480D01*
X57920Y-43395D01*
X57866Y-43373D01*
X57879Y-43360D01*
X57901Y-43305D01*
X57901Y-43245D01*
X57901Y-42828D01*
X57901Y-39171D01*
X57901Y-38995D01*
X57901Y-38870D01*
X57901Y-38694D01*
X57879Y-38639D01*
X57836Y-38597D01*
X57781Y-38574D01*
X57722Y-38574D01*
X57686Y-38574D01*
X57649Y-38611D01*
X57649Y-38908D01*
X57864Y-38908D01*
X57901Y-38870D01*
X57901Y-38995D01*
X57864Y-38958D01*
X57649Y-38958D01*
X57649Y-39254D01*
X57686Y-39291D01*
X57722Y-39291D01*
X57781Y-39291D01*
X57836Y-39268D01*
X57879Y-39226D01*
X57901Y-39171D01*
X57901Y-42828D01*
X57879Y-42773D01*
X57836Y-42731D01*
X57805Y-42718D01*
X57765Y-42657D01*
X57641Y-42533D01*
X57599Y-42505D01*
X57599Y-39254D01*
X57599Y-38958D01*
X57599Y-38908D01*
X57599Y-38611D01*
X57561Y-38574D01*
X57525Y-38574D01*
X57466Y-38574D01*
X57411Y-38597D01*
X57368Y-38639D01*
X57346Y-38694D01*
X57346Y-38870D01*
X57383Y-38908D01*
X57599Y-38908D01*
X57599Y-38958D01*
X57383Y-38958D01*
X57346Y-38995D01*
X57346Y-39171D01*
X57368Y-39226D01*
X57411Y-39268D01*
X57466Y-39291D01*
X57525Y-39291D01*
X57561Y-39291D01*
X57599Y-39254D01*
X57599Y-42505D01*
X57576Y-42490D01*
X57500Y-42475D01*
X55982Y-42475D01*
X55957Y-42450D01*
X56350Y-42450D01*
X56425Y-42450D01*
X56907Y-42450D01*
X56984Y-42434D01*
X57049Y-42391D01*
X57516Y-41924D01*
X57559Y-41859D01*
X57575Y-41782D01*
X57575Y-41175D01*
X57559Y-41098D01*
X57559Y-41098D01*
X57516Y-41033D01*
X57466Y-40983D01*
X57466Y-40983D01*
X57100Y-40617D01*
X57100Y-39257D01*
X57131Y-39226D01*
X57153Y-39171D01*
X57153Y-39111D01*
X57153Y-38694D01*
X57131Y-38639D01*
X57088Y-38597D01*
X57033Y-38574D01*
X56974Y-38574D01*
X56718Y-38574D01*
X56663Y-38597D01*
X56620Y-38639D01*
X56598Y-38694D01*
X56598Y-38754D01*
X56598Y-39171D01*
X56620Y-39226D01*
X56663Y-39268D01*
X56700Y-39284D01*
X56700Y-39667D01*
X56391Y-39358D01*
X56326Y-39315D01*
X56250Y-39300D01*
X55901Y-39300D01*
X55901Y-39171D01*
X55901Y-38995D01*
X55901Y-38870D01*
X55901Y-38694D01*
X55879Y-38639D01*
X55836Y-38597D01*
X55781Y-38574D01*
X55722Y-38574D01*
X55686Y-38574D01*
X55649Y-38611D01*
X55649Y-38908D01*
X55864Y-38908D01*
X55901Y-38870D01*
X55901Y-38995D01*
X55864Y-38958D01*
X55649Y-38958D01*
X55649Y-39254D01*
X55686Y-39291D01*
X55722Y-39291D01*
X55781Y-39291D01*
X55836Y-39268D01*
X55879Y-39226D01*
X55901Y-39171D01*
X55901Y-39300D01*
X55525Y-39300D01*
X55517Y-39291D01*
X55525Y-39291D01*
X55561Y-39291D01*
X55599Y-39254D01*
X55599Y-38958D01*
X55599Y-38908D01*
X55599Y-38611D01*
X55561Y-38574D01*
X55525Y-38574D01*
X55466Y-38574D01*
X55411Y-38597D01*
X55368Y-38639D01*
X55346Y-38694D01*
X55346Y-38870D01*
X55383Y-38908D01*
X55599Y-38908D01*
X55599Y-38958D01*
X55383Y-38958D01*
X55346Y-38995D01*
X55346Y-39120D01*
X55153Y-38928D01*
X55153Y-38694D01*
X55131Y-38639D01*
X55088Y-38597D01*
X55033Y-38574D01*
X54974Y-38574D01*
X54718Y-38574D01*
X54663Y-38597D01*
X54620Y-38639D01*
X54598Y-38694D01*
X54598Y-38754D01*
X54598Y-39171D01*
X54620Y-39226D01*
X54663Y-39268D01*
X54718Y-39291D01*
X54777Y-39291D01*
X54951Y-39291D01*
X55234Y-39574D01*
X55183Y-39608D01*
X54792Y-40000D01*
X54507Y-40000D01*
X53966Y-39458D01*
X53901Y-39415D01*
X53901Y-39171D01*
X53901Y-38995D01*
X53901Y-38870D01*
X53901Y-38694D01*
X53879Y-38639D01*
X53836Y-38597D01*
X53781Y-38574D01*
X53722Y-38574D01*
X53686Y-38574D01*
X53649Y-38611D01*
X53649Y-38908D01*
X53864Y-38908D01*
X53901Y-38870D01*
X53901Y-38995D01*
X53864Y-38958D01*
X53649Y-38958D01*
X53649Y-39254D01*
X53686Y-39291D01*
X53722Y-39291D01*
X53781Y-39291D01*
X53836Y-39268D01*
X53879Y-39226D01*
X53901Y-39171D01*
X53901Y-39415D01*
X53901Y-39415D01*
X53825Y-39400D01*
X53599Y-39400D01*
X53599Y-39254D01*
X53599Y-38958D01*
X53599Y-38908D01*
X53599Y-38611D01*
X53561Y-38574D01*
X53525Y-38574D01*
X53466Y-38574D01*
X53411Y-38597D01*
X53368Y-38639D01*
X53346Y-38694D01*
X53346Y-38870D01*
X53383Y-38908D01*
X53599Y-38908D01*
X53599Y-38958D01*
X53383Y-38958D01*
X53346Y-38995D01*
X53346Y-39171D01*
X53368Y-39226D01*
X53411Y-39268D01*
X53466Y-39291D01*
X53525Y-39291D01*
X53561Y-39291D01*
X53599Y-39254D01*
X53599Y-39400D01*
X53332Y-39400D01*
X53191Y-39258D01*
X53191Y-39258D01*
X53191Y-39258D01*
X53139Y-39206D01*
X53153Y-39171D01*
X53153Y-39111D01*
X53153Y-38694D01*
X53131Y-38639D01*
X53088Y-38597D01*
X53033Y-38574D01*
X52974Y-38574D01*
X52718Y-38574D01*
X52663Y-38597D01*
X52620Y-38639D01*
X52598Y-38694D01*
X52598Y-38754D01*
X52598Y-39171D01*
X52609Y-39200D01*
X51890Y-39200D01*
X51901Y-39171D01*
X51901Y-38995D01*
X51901Y-38870D01*
X51901Y-38694D01*
X51879Y-38639D01*
X51836Y-38597D01*
X51781Y-38574D01*
X51722Y-38574D01*
X51686Y-38574D01*
X51649Y-38611D01*
X51649Y-38908D01*
X51864Y-38908D01*
X51901Y-38870D01*
X51901Y-38995D01*
X51864Y-38958D01*
X51649Y-38958D01*
X51649Y-38965D01*
X51599Y-38965D01*
X51599Y-38958D01*
X51591Y-38958D01*
X51591Y-38908D01*
X51599Y-38908D01*
X51599Y-38611D01*
X51561Y-38574D01*
X51525Y-38574D01*
X51466Y-38574D01*
X51435Y-38587D01*
X51416Y-38558D01*
X51416Y-38558D01*
X51283Y-38425D01*
X51407Y-38425D01*
X51462Y-38402D01*
X51505Y-38360D01*
X51527Y-38305D01*
X51527Y-38245D01*
X51527Y-37828D01*
X51505Y-37773D01*
X51462Y-37731D01*
X51450Y-37725D01*
X51450Y-37607D01*
X51486Y-37643D01*
X51657Y-37714D01*
X51842Y-37715D01*
X52013Y-37644D01*
X52143Y-37513D01*
X52214Y-37342D01*
X52215Y-37157D01*
X52166Y-37040D01*
X52190Y-37049D01*
X52309Y-37050D01*
X52333Y-37039D01*
X52285Y-37157D01*
X52284Y-37342D01*
X52355Y-37513D01*
X52486Y-37643D01*
X52657Y-37714D01*
X52842Y-37715D01*
X53013Y-37644D01*
X53050Y-37607D01*
X53050Y-37725D01*
X53037Y-37731D01*
X52994Y-37773D01*
X52972Y-37828D01*
X52972Y-37888D01*
X52972Y-38305D01*
X52994Y-38360D01*
X53037Y-38402D01*
X53092Y-38425D01*
X53151Y-38425D01*
X53407Y-38425D01*
X53462Y-38402D01*
X53505Y-38360D01*
X53527Y-38305D01*
X53527Y-38245D01*
X53527Y-37828D01*
X53505Y-37773D01*
X53462Y-37731D01*
X53450Y-37725D01*
X53450Y-37607D01*
X53486Y-37643D01*
X53657Y-37714D01*
X53842Y-37715D01*
X54013Y-37644D01*
X54143Y-37513D01*
X54214Y-37342D01*
X54215Y-37157D01*
X54166Y-37040D01*
X54190Y-37049D01*
X54309Y-37050D01*
X54333Y-37039D01*
X54285Y-37157D01*
X54284Y-37342D01*
X54355Y-37513D01*
X54486Y-37643D01*
X54657Y-37714D01*
X54842Y-37715D01*
X55013Y-37644D01*
X55050Y-37607D01*
X55050Y-37725D01*
X55037Y-37731D01*
X54994Y-37773D01*
X54972Y-37828D01*
X54972Y-37888D01*
X54972Y-38305D01*
X54994Y-38360D01*
X55037Y-38402D01*
X55092Y-38425D01*
X55151Y-38425D01*
X55407Y-38425D01*
X55462Y-38402D01*
X55505Y-38360D01*
X55527Y-38305D01*
X55527Y-38245D01*
X55527Y-37828D01*
X55505Y-37773D01*
X55462Y-37731D01*
X55450Y-37725D01*
X55450Y-37607D01*
X55486Y-37643D01*
X55657Y-37714D01*
X55842Y-37715D01*
X56013Y-37644D01*
X56143Y-37513D01*
X56214Y-37342D01*
X56215Y-37157D01*
X56166Y-37040D01*
X56190Y-37049D01*
X56309Y-37050D01*
X56333Y-37039D01*
X56285Y-37157D01*
X56284Y-37342D01*
X56355Y-37513D01*
X56486Y-37643D01*
X56657Y-37714D01*
X56842Y-37715D01*
X57013Y-37644D01*
X57050Y-37607D01*
X57050Y-37725D01*
X57037Y-37731D01*
X56994Y-37773D01*
X56972Y-37828D01*
X56972Y-37888D01*
X56972Y-38305D01*
X56994Y-38360D01*
X57037Y-38402D01*
X57092Y-38425D01*
X57151Y-38425D01*
X57407Y-38425D01*
X57462Y-38402D01*
X57505Y-38360D01*
X57527Y-38305D01*
X57527Y-38245D01*
X57527Y-37828D01*
X57505Y-37773D01*
X57462Y-37731D01*
X57450Y-37725D01*
X57450Y-37607D01*
X57486Y-37643D01*
X57657Y-37714D01*
X57842Y-37715D01*
X58013Y-37644D01*
X58143Y-37513D01*
X58214Y-37342D01*
X58215Y-37157D01*
X58215Y-34907D01*
X58215Y-32657D01*
X58144Y-32486D01*
X58013Y-32356D01*
X57950Y-32329D01*
X57950Y-31974D01*
X57934Y-31897D01*
X57891Y-31832D01*
X57813Y-31754D01*
X57813Y-31582D01*
X57790Y-31527D01*
X57748Y-31485D01*
X57693Y-31462D01*
X57633Y-31462D01*
X57357Y-31462D01*
X57302Y-31485D01*
X57260Y-31527D01*
X57250Y-31552D01*
X57239Y-31527D01*
X57197Y-31485D01*
X57174Y-31475D01*
X57174Y-31474D01*
X57159Y-31397D01*
X57159Y-31397D01*
X57144Y-31376D01*
X57115Y-31332D01*
X57115Y-31332D01*
X56991Y-31208D01*
X56926Y-31165D01*
X56850Y-31150D01*
X56512Y-31150D01*
X56549Y-31059D01*
X56550Y-30940D01*
X56539Y-30916D01*
X56657Y-30964D01*
X56842Y-30965D01*
X57013Y-30894D01*
X57143Y-30763D01*
X57214Y-30592D01*
X57215Y-30407D01*
X57144Y-30236D01*
X57013Y-30106D01*
X56842Y-30035D01*
X56657Y-30034D01*
X56486Y-30105D01*
X56450Y-30142D01*
X56450Y-29882D01*
X56632Y-29700D01*
X56700Y-29700D01*
X56709Y-29722D01*
X56751Y-29764D01*
X56806Y-29787D01*
X56866Y-29787D01*
X57142Y-29787D01*
X57197Y-29764D01*
X57239Y-29722D01*
X57249Y-29697D01*
X57260Y-29722D01*
X57302Y-29764D01*
X57357Y-29787D01*
X57417Y-29787D01*
X57530Y-29787D01*
X57550Y-29807D01*
X57550Y-30079D01*
X57486Y-30105D01*
X57356Y-30236D01*
X57285Y-30407D01*
X57284Y-30592D01*
X57355Y-30763D01*
X57486Y-30893D01*
X57657Y-30964D01*
X57842Y-30965D01*
X58013Y-30894D01*
X58143Y-30763D01*
X58214Y-30592D01*
X58215Y-30407D01*
X58144Y-30236D01*
X58013Y-30106D01*
X57950Y-30079D01*
X57950Y-29724D01*
X57934Y-29647D01*
X57891Y-29582D01*
X57813Y-29504D01*
X57813Y-29332D01*
X57790Y-29277D01*
X57748Y-29235D01*
X57693Y-29212D01*
X57633Y-29212D01*
X57357Y-29212D01*
X57302Y-29235D01*
X57260Y-29277D01*
X57250Y-29302D01*
X57239Y-29277D01*
X57197Y-29235D01*
X57142Y-29212D01*
X57082Y-29212D01*
X56806Y-29212D01*
X56751Y-29235D01*
X56709Y-29277D01*
X56700Y-29300D01*
X56550Y-29300D01*
X56473Y-29315D01*
X56408Y-29358D01*
X56108Y-29658D01*
X56065Y-29723D01*
X56050Y-29800D01*
X56050Y-30142D01*
X56013Y-30106D01*
X55950Y-30079D01*
X55950Y-29724D01*
X55934Y-29647D01*
X55891Y-29582D01*
X55813Y-29504D01*
X55813Y-29332D01*
X55790Y-29277D01*
X55748Y-29235D01*
X55693Y-29212D01*
X55633Y-29212D01*
X55357Y-29212D01*
X55302Y-29235D01*
X55260Y-29277D01*
X55250Y-29302D01*
X55239Y-29277D01*
X55197Y-29235D01*
X55142Y-29212D01*
X55082Y-29212D01*
X54806Y-29212D01*
X54751Y-29235D01*
X54709Y-29277D01*
X54686Y-29332D01*
X54686Y-29392D01*
X54686Y-29667D01*
X54709Y-29722D01*
X54751Y-29764D01*
X54774Y-29774D01*
X54774Y-29774D01*
X54789Y-29850D01*
X54832Y-29915D01*
X55050Y-30132D01*
X55050Y-30142D01*
X55013Y-30106D01*
X54842Y-30035D01*
X54657Y-30034D01*
X54486Y-30105D01*
X54356Y-30236D01*
X54285Y-30407D01*
X54284Y-30592D01*
X54355Y-30763D01*
X54392Y-30800D01*
X54107Y-30800D01*
X54143Y-30763D01*
X54214Y-30592D01*
X54215Y-30407D01*
X54144Y-30236D01*
X54013Y-30106D01*
X53950Y-30079D01*
X53950Y-29724D01*
X53934Y-29647D01*
X53891Y-29582D01*
X53813Y-29504D01*
X53813Y-29332D01*
X53790Y-29277D01*
X53748Y-29235D01*
X53693Y-29212D01*
X53633Y-29212D01*
X53357Y-29212D01*
X53302Y-29235D01*
X53260Y-29277D01*
X53250Y-29302D01*
X53239Y-29277D01*
X53197Y-29235D01*
X53142Y-29212D01*
X53082Y-29212D01*
X52806Y-29212D01*
X52751Y-29235D01*
X52709Y-29277D01*
X52686Y-29332D01*
X52686Y-29392D01*
X52686Y-29667D01*
X52709Y-29722D01*
X52751Y-29764D01*
X52774Y-29774D01*
X52774Y-29774D01*
X52789Y-29850D01*
X52832Y-29915D01*
X53050Y-30132D01*
X53050Y-30142D01*
X53013Y-30106D01*
X52842Y-30035D01*
X52657Y-30034D01*
X52486Y-30105D01*
X52356Y-30236D01*
X52285Y-30407D01*
X52284Y-30592D01*
X52355Y-30763D01*
X52392Y-30800D01*
X52107Y-30800D01*
X52143Y-30763D01*
X52214Y-30592D01*
X52215Y-30407D01*
X52144Y-30236D01*
X52013Y-30106D01*
X51950Y-30079D01*
X51950Y-29724D01*
X51934Y-29647D01*
X51891Y-29582D01*
X51813Y-29504D01*
X51813Y-29332D01*
X51790Y-29277D01*
X51748Y-29235D01*
X51693Y-29212D01*
X51633Y-29212D01*
X51357Y-29212D01*
X51302Y-29235D01*
X51260Y-29277D01*
X51250Y-29302D01*
X51239Y-29277D01*
X51197Y-29235D01*
X51142Y-29212D01*
X51082Y-29212D01*
X50806Y-29212D01*
X50751Y-29235D01*
X50709Y-29277D01*
X50686Y-29332D01*
X50686Y-29392D01*
X50686Y-29667D01*
X50709Y-29722D01*
X50751Y-29764D01*
X50774Y-29774D01*
X50774Y-29774D01*
X50789Y-29850D01*
X50832Y-29915D01*
X51050Y-30132D01*
X51050Y-30142D01*
X51013Y-30106D01*
X50842Y-30035D01*
X50657Y-30034D01*
X50486Y-30105D01*
X50356Y-30236D01*
X50285Y-30407D01*
X50284Y-30592D01*
X50355Y-30763D01*
X50392Y-30800D01*
X50107Y-30800D01*
X50143Y-30763D01*
X50214Y-30592D01*
X50215Y-30407D01*
X50144Y-30236D01*
X50013Y-30106D01*
X49950Y-30079D01*
X49950Y-29724D01*
X49934Y-29647D01*
X49891Y-29582D01*
X49813Y-29504D01*
X49813Y-29332D01*
X49790Y-29277D01*
X49748Y-29235D01*
X49693Y-29212D01*
X49633Y-29212D01*
X49357Y-29212D01*
X49302Y-29235D01*
X49260Y-29277D01*
X49250Y-29302D01*
X49239Y-29277D01*
X49197Y-29235D01*
X49142Y-29212D01*
X49082Y-29212D01*
X48806Y-29212D01*
X48751Y-29235D01*
X48709Y-29277D01*
X48686Y-29332D01*
X48686Y-29392D01*
X48686Y-29667D01*
X48709Y-29722D01*
X48751Y-29764D01*
X48774Y-29774D01*
X48774Y-29774D01*
X48789Y-29850D01*
X48832Y-29915D01*
X49050Y-30132D01*
X49050Y-30142D01*
X49013Y-30106D01*
X48842Y-30035D01*
X48657Y-30034D01*
X48486Y-30105D01*
X48356Y-30236D01*
X48285Y-30407D01*
X48284Y-30592D01*
X48355Y-30763D01*
X48392Y-30800D01*
X48107Y-30800D01*
X48143Y-30763D01*
X48214Y-30592D01*
X48215Y-30407D01*
X48144Y-30236D01*
X48013Y-30106D01*
X47950Y-30079D01*
X47950Y-29724D01*
X47934Y-29647D01*
X47891Y-29582D01*
X47813Y-29504D01*
X47813Y-29332D01*
X47790Y-29277D01*
X47748Y-29235D01*
X47693Y-29212D01*
X47633Y-29212D01*
X47357Y-29212D01*
X47302Y-29235D01*
X47260Y-29277D01*
X47250Y-29302D01*
X47239Y-29277D01*
X47197Y-29235D01*
X47142Y-29212D01*
X47082Y-29212D01*
X46806Y-29212D01*
X46751Y-29235D01*
X46709Y-29277D01*
X46686Y-29332D01*
X46686Y-29392D01*
X46686Y-29667D01*
X46709Y-29722D01*
X46751Y-29764D01*
X46774Y-29774D01*
X46774Y-29774D01*
X46789Y-29850D01*
X46832Y-29915D01*
X47050Y-30132D01*
X47050Y-30142D01*
X47013Y-30106D01*
X46842Y-30035D01*
X46657Y-30034D01*
X46486Y-30105D01*
X46356Y-30236D01*
X46285Y-30407D01*
X46284Y-30592D01*
X46355Y-30763D01*
X46392Y-30800D01*
X46107Y-30800D01*
X46143Y-30763D01*
X46214Y-30592D01*
X46215Y-30407D01*
X46144Y-30236D01*
X46013Y-30106D01*
X45950Y-30079D01*
X45950Y-29724D01*
X45934Y-29647D01*
X45891Y-29582D01*
X45813Y-29504D01*
X45813Y-29332D01*
X45790Y-29277D01*
X45748Y-29235D01*
X45693Y-29212D01*
X45633Y-29212D01*
X45357Y-29212D01*
X45302Y-29235D01*
X45260Y-29277D01*
X45250Y-29302D01*
X45239Y-29277D01*
X45197Y-29235D01*
X45142Y-29212D01*
X45082Y-29212D01*
X44806Y-29212D01*
X44751Y-29235D01*
X44709Y-29277D01*
X44686Y-29332D01*
X44686Y-29392D01*
X44686Y-29667D01*
X44709Y-29722D01*
X44751Y-29764D01*
X44774Y-29774D01*
X44774Y-29774D01*
X44789Y-29850D01*
X44832Y-29915D01*
X45050Y-30132D01*
X45050Y-30142D01*
X45013Y-30106D01*
X44842Y-30035D01*
X44657Y-30034D01*
X44486Y-30105D01*
X44356Y-30236D01*
X44285Y-30407D01*
X44284Y-30592D01*
X44355Y-30763D01*
X44486Y-30893D01*
X44657Y-30964D01*
X44842Y-30965D01*
X45013Y-30894D01*
X45059Y-30847D01*
X45065Y-30876D01*
X45108Y-30941D01*
X45308Y-31141D01*
X45308Y-31141D01*
X45321Y-31150D01*
X45100Y-31150D01*
X45023Y-31165D01*
X44958Y-31208D01*
X44832Y-31334D01*
X44789Y-31399D01*
X44774Y-31475D01*
X44774Y-31475D01*
X44751Y-31485D01*
X44709Y-31527D01*
X44686Y-31582D01*
X44686Y-31642D01*
X44686Y-31917D01*
X44709Y-31972D01*
X44751Y-32014D01*
X44806Y-32037D01*
X44866Y-32037D01*
X45142Y-32037D01*
X45197Y-32014D01*
X45239Y-31972D01*
X45249Y-31947D01*
X45260Y-31972D01*
X45302Y-32014D01*
X45357Y-32037D01*
X45417Y-32037D01*
X45530Y-32037D01*
X45550Y-32057D01*
X45550Y-32329D01*
X45486Y-32355D01*
X45356Y-32486D01*
X45285Y-32657D01*
X45284Y-32842D01*
X45355Y-33013D01*
X45486Y-33143D01*
X45657Y-33214D01*
X45842Y-33215D01*
X46013Y-33144D01*
X46143Y-33013D01*
X46214Y-32842D01*
X46215Y-32657D01*
X46144Y-32486D01*
X46013Y-32356D01*
X45950Y-32329D01*
X45950Y-31974D01*
X45934Y-31897D01*
X45891Y-31832D01*
X45813Y-31754D01*
X45813Y-31582D01*
X45799Y-31550D01*
X46700Y-31550D01*
X46686Y-31582D01*
X46686Y-31642D01*
X46686Y-31917D01*
X46709Y-31972D01*
X46751Y-32014D01*
X46806Y-32037D01*
X46866Y-32037D01*
X47142Y-32037D01*
X47197Y-32014D01*
X47239Y-31972D01*
X47249Y-31947D01*
X47260Y-31972D01*
X47302Y-32014D01*
X47357Y-32037D01*
X47417Y-32037D01*
X47530Y-32037D01*
X47550Y-32057D01*
X47550Y-32329D01*
X47486Y-32355D01*
X47356Y-32486D01*
X47285Y-32657D01*
X47284Y-32842D01*
X47355Y-33013D01*
X47486Y-33143D01*
X47657Y-33214D01*
X47842Y-33215D01*
X48013Y-33144D01*
X48143Y-33013D01*
X48214Y-32842D01*
X48215Y-32657D01*
X48144Y-32486D01*
X48013Y-32356D01*
X47950Y-32329D01*
X47950Y-31974D01*
X47934Y-31897D01*
X47891Y-31832D01*
X47813Y-31754D01*
X47813Y-31582D01*
X47799Y-31550D01*
X48700Y-31550D01*
X48686Y-31582D01*
X48686Y-31642D01*
X48686Y-31917D01*
X48709Y-31972D01*
X48751Y-32014D01*
X48806Y-32037D01*
X48866Y-32037D01*
X49142Y-32037D01*
X49197Y-32014D01*
X49239Y-31972D01*
X49249Y-31947D01*
X49260Y-31972D01*
X49302Y-32014D01*
X49357Y-32037D01*
X49417Y-32037D01*
X49530Y-32037D01*
X49550Y-32057D01*
X49550Y-32329D01*
X49486Y-32355D01*
X49356Y-32486D01*
X49285Y-32657D01*
X49284Y-32842D01*
X49355Y-33013D01*
X49486Y-33143D01*
X49657Y-33214D01*
X49842Y-33215D01*
X50013Y-33144D01*
X50143Y-33013D01*
X50214Y-32842D01*
X50215Y-32657D01*
X50144Y-32486D01*
X50013Y-32356D01*
X49950Y-32329D01*
X49950Y-31974D01*
X49934Y-31897D01*
X49891Y-31832D01*
X49813Y-31754D01*
X49813Y-31582D01*
X49799Y-31550D01*
X50700Y-31550D01*
X50686Y-31582D01*
X50686Y-31642D01*
X50686Y-31917D01*
X50709Y-31972D01*
X50751Y-32014D01*
X50806Y-32037D01*
X50866Y-32037D01*
X51142Y-32037D01*
X51197Y-32014D01*
X51239Y-31972D01*
X51249Y-31947D01*
X51260Y-31972D01*
X51302Y-32014D01*
X51357Y-32037D01*
X51417Y-32037D01*
X51530Y-32037D01*
X51550Y-32057D01*
X51550Y-32329D01*
X51486Y-32355D01*
X51356Y-32486D01*
X51285Y-32657D01*
X51284Y-32842D01*
X51355Y-33013D01*
X51486Y-33143D01*
X51657Y-33214D01*
X51842Y-33215D01*
X52013Y-33144D01*
X52143Y-33013D01*
X52214Y-32842D01*
X52215Y-32657D01*
X52144Y-32486D01*
X52013Y-32356D01*
X51950Y-32329D01*
X51950Y-31974D01*
X51934Y-31897D01*
X51891Y-31832D01*
X51813Y-31754D01*
X51813Y-31582D01*
X51799Y-31550D01*
X52700Y-31550D01*
X52686Y-31582D01*
X52686Y-31642D01*
X52686Y-31917D01*
X52709Y-31972D01*
X52751Y-32014D01*
X52806Y-32037D01*
X52866Y-32037D01*
X53142Y-32037D01*
X53197Y-32014D01*
X53239Y-31972D01*
X53249Y-31947D01*
X53260Y-31972D01*
X53302Y-32014D01*
X53357Y-32037D01*
X53417Y-32037D01*
X53530Y-32037D01*
X53550Y-32057D01*
X53550Y-32329D01*
X53486Y-32355D01*
X53356Y-32486D01*
X53285Y-32657D01*
X53284Y-32842D01*
X53355Y-33013D01*
X53486Y-33143D01*
X53657Y-33214D01*
X53842Y-33215D01*
X54013Y-33144D01*
X54143Y-33013D01*
X54214Y-32842D01*
X54215Y-32657D01*
X54166Y-32540D01*
X54190Y-32549D01*
X54309Y-32550D01*
X54333Y-32539D01*
X54285Y-32657D01*
X54284Y-32842D01*
X54355Y-33013D01*
X54486Y-33143D01*
X54657Y-33214D01*
X54842Y-33215D01*
X55013Y-33144D01*
X55143Y-33013D01*
X55214Y-32842D01*
X55215Y-32657D01*
X55144Y-32486D01*
X55013Y-32356D01*
X54842Y-32285D01*
X54657Y-32284D01*
X54540Y-32333D01*
X54549Y-32309D01*
X54550Y-32232D01*
X54763Y-32019D01*
X54806Y-32037D01*
X54866Y-32037D01*
X55142Y-32037D01*
X55197Y-32014D01*
X55239Y-31972D01*
X55249Y-31947D01*
X55260Y-31972D01*
X55302Y-32014D01*
X55357Y-32037D01*
X55417Y-32037D01*
X55530Y-32037D01*
X55550Y-32057D01*
X55550Y-32329D01*
X55486Y-32355D01*
X55356Y-32486D01*
X55285Y-32657D01*
X55284Y-32842D01*
X55355Y-33013D01*
X55486Y-33143D01*
X55657Y-33214D01*
X55842Y-33215D01*
X56013Y-33144D01*
X56143Y-33013D01*
X56214Y-32842D01*
X56215Y-32657D01*
X56144Y-32486D01*
X56013Y-32356D01*
X55950Y-32329D01*
X55950Y-31974D01*
X55934Y-31897D01*
X55891Y-31832D01*
X55813Y-31754D01*
X55813Y-31582D01*
X55799Y-31550D01*
X56700Y-31550D01*
X56686Y-31582D01*
X56686Y-31642D01*
X56686Y-31917D01*
X56709Y-31972D01*
X56751Y-32014D01*
X56806Y-32037D01*
X56866Y-32037D01*
X57142Y-32037D01*
X57197Y-32014D01*
X57239Y-31972D01*
X57249Y-31947D01*
X57260Y-31972D01*
X57302Y-32014D01*
X57357Y-32037D01*
X57417Y-32037D01*
X57530Y-32037D01*
X57550Y-32057D01*
X57550Y-32329D01*
X57486Y-32355D01*
X57356Y-32486D01*
X57285Y-32657D01*
X57284Y-32842D01*
X57355Y-33013D01*
X57486Y-33143D01*
X57657Y-33214D01*
X57842Y-33215D01*
X58013Y-33144D01*
X58143Y-33013D01*
X58214Y-32842D01*
X58215Y-32657D01*
X58215Y-34907D01*
X58144Y-34736D01*
X58013Y-34606D01*
X57950Y-34579D01*
X57950Y-34224D01*
X57934Y-34147D01*
X57891Y-34082D01*
X57813Y-34004D01*
X57813Y-33832D01*
X57790Y-33777D01*
X57748Y-33735D01*
X57693Y-33712D01*
X57633Y-33712D01*
X57357Y-33712D01*
X57302Y-33735D01*
X57260Y-33777D01*
X57250Y-33802D01*
X57239Y-33777D01*
X57215Y-33752D01*
X57215Y-32657D01*
X57144Y-32486D01*
X57013Y-32356D01*
X56842Y-32285D01*
X56657Y-32284D01*
X56486Y-32355D01*
X56356Y-32486D01*
X56285Y-32657D01*
X56284Y-32842D01*
X56355Y-33013D01*
X56486Y-33143D01*
X56657Y-33214D01*
X56842Y-33215D01*
X57013Y-33144D01*
X57143Y-33013D01*
X57214Y-32842D01*
X57215Y-32657D01*
X57215Y-33752D01*
X57197Y-33735D01*
X57174Y-33725D01*
X57174Y-33724D01*
X57159Y-33647D01*
X57159Y-33647D01*
X57144Y-33626D01*
X57115Y-33582D01*
X57115Y-33582D01*
X56991Y-33458D01*
X56926Y-33415D01*
X56850Y-33400D01*
X55100Y-33400D01*
X55023Y-33415D01*
X54974Y-33448D01*
X54974Y-33448D01*
X54925Y-33415D01*
X54848Y-33400D01*
X53215Y-33400D01*
X53215Y-32657D01*
X53144Y-32486D01*
X53013Y-32356D01*
X52842Y-32285D01*
X52657Y-32284D01*
X52486Y-32355D01*
X52356Y-32486D01*
X52285Y-32657D01*
X52284Y-32842D01*
X52355Y-33013D01*
X52486Y-33143D01*
X52657Y-33214D01*
X52842Y-33215D01*
X53013Y-33144D01*
X53143Y-33013D01*
X53214Y-32842D01*
X53215Y-32657D01*
X53215Y-33400D01*
X53100Y-33400D01*
X53023Y-33415D01*
X52974Y-33448D01*
X52974Y-33448D01*
X52925Y-33415D01*
X52848Y-33400D01*
X51215Y-33400D01*
X51215Y-32657D01*
X51144Y-32486D01*
X51013Y-32356D01*
X50842Y-32285D01*
X50657Y-32284D01*
X50486Y-32355D01*
X50356Y-32486D01*
X50285Y-32657D01*
X50284Y-32842D01*
X50355Y-33013D01*
X50486Y-33143D01*
X50657Y-33214D01*
X50842Y-33215D01*
X51013Y-33144D01*
X51143Y-33013D01*
X51214Y-32842D01*
X51215Y-32657D01*
X51215Y-33400D01*
X51100Y-33400D01*
X51023Y-33415D01*
X50974Y-33448D01*
X50974Y-33448D01*
X50925Y-33415D01*
X50848Y-33400D01*
X49215Y-33400D01*
X49215Y-32657D01*
X49144Y-32486D01*
X49013Y-32356D01*
X48842Y-32285D01*
X48657Y-32284D01*
X48486Y-32355D01*
X48356Y-32486D01*
X48285Y-32657D01*
X48284Y-32842D01*
X48355Y-33013D01*
X48486Y-33143D01*
X48657Y-33214D01*
X48842Y-33215D01*
X49013Y-33144D01*
X49143Y-33013D01*
X49214Y-32842D01*
X49215Y-32657D01*
X49215Y-33400D01*
X49100Y-33400D01*
X49023Y-33415D01*
X48974Y-33448D01*
X48974Y-33448D01*
X48925Y-33415D01*
X48848Y-33400D01*
X47215Y-33400D01*
X47215Y-32657D01*
X47144Y-32486D01*
X47013Y-32356D01*
X46842Y-32285D01*
X46657Y-32284D01*
X46486Y-32355D01*
X46356Y-32486D01*
X46285Y-32657D01*
X46284Y-32842D01*
X46355Y-33013D01*
X46486Y-33143D01*
X46657Y-33214D01*
X46842Y-33215D01*
X47013Y-33144D01*
X47143Y-33013D01*
X47214Y-32842D01*
X47215Y-32657D01*
X47215Y-33400D01*
X47100Y-33400D01*
X47023Y-33415D01*
X46974Y-33448D01*
X46974Y-33448D01*
X46925Y-33415D01*
X46848Y-33400D01*
X45215Y-33400D01*
X45215Y-32657D01*
X45144Y-32486D01*
X45013Y-32356D01*
X44842Y-32285D01*
X44657Y-32284D01*
X44486Y-32355D01*
X44356Y-32486D01*
X44285Y-32657D01*
X44284Y-32842D01*
X44355Y-33013D01*
X44486Y-33143D01*
X44657Y-33214D01*
X44842Y-33215D01*
X45013Y-33144D01*
X45143Y-33013D01*
X45214Y-32842D01*
X45215Y-32657D01*
X45215Y-33400D01*
X45100Y-33400D01*
X45023Y-33415D01*
X44958Y-33458D01*
X44832Y-33584D01*
X44789Y-33649D01*
X44774Y-33725D01*
X44774Y-33725D01*
X44751Y-33735D01*
X44709Y-33777D01*
X44686Y-33832D01*
X44686Y-33892D01*
X44686Y-34167D01*
X44709Y-34222D01*
X44751Y-34264D01*
X44806Y-34287D01*
X44866Y-34287D01*
X45142Y-34287D01*
X45197Y-34264D01*
X45239Y-34222D01*
X45249Y-34197D01*
X45260Y-34222D01*
X45302Y-34264D01*
X45357Y-34287D01*
X45417Y-34287D01*
X45530Y-34287D01*
X45550Y-34307D01*
X45550Y-34579D01*
X45486Y-34605D01*
X45356Y-34736D01*
X45285Y-34907D01*
X45284Y-35092D01*
X45355Y-35263D01*
X45486Y-35393D01*
X45657Y-35464D01*
X45842Y-35465D01*
X46013Y-35394D01*
X46143Y-35263D01*
X46214Y-35092D01*
X46215Y-34907D01*
X46144Y-34736D01*
X46013Y-34606D01*
X45950Y-34579D01*
X45950Y-34224D01*
X45934Y-34147D01*
X45891Y-34082D01*
X45813Y-34004D01*
X45813Y-33832D01*
X45799Y-33800D01*
X46700Y-33800D01*
X46686Y-33832D01*
X46686Y-33892D01*
X46686Y-34167D01*
X46709Y-34222D01*
X46751Y-34264D01*
X46806Y-34287D01*
X46866Y-34287D01*
X47142Y-34287D01*
X47197Y-34264D01*
X47239Y-34222D01*
X47249Y-34197D01*
X47260Y-34222D01*
X47302Y-34264D01*
X47357Y-34287D01*
X47417Y-34287D01*
X47530Y-34287D01*
X47550Y-34307D01*
X47550Y-34579D01*
X47486Y-34605D01*
X47356Y-34736D01*
X47285Y-34907D01*
X47284Y-35092D01*
X47355Y-35263D01*
X47486Y-35393D01*
X47657Y-35464D01*
X47842Y-35465D01*
X48013Y-35394D01*
X48143Y-35263D01*
X48214Y-35092D01*
X48215Y-34907D01*
X48144Y-34736D01*
X48013Y-34606D01*
X47950Y-34579D01*
X47950Y-34224D01*
X47934Y-34147D01*
X47891Y-34082D01*
X47813Y-34004D01*
X47813Y-33832D01*
X47799Y-33800D01*
X48700Y-33800D01*
X48686Y-33832D01*
X48686Y-33892D01*
X48686Y-34167D01*
X48709Y-34222D01*
X48751Y-34264D01*
X48806Y-34287D01*
X48866Y-34287D01*
X49142Y-34287D01*
X49197Y-34264D01*
X49239Y-34222D01*
X49249Y-34197D01*
X49260Y-34222D01*
X49302Y-34264D01*
X49357Y-34287D01*
X49417Y-34287D01*
X49530Y-34287D01*
X49550Y-34307D01*
X49550Y-34579D01*
X49486Y-34605D01*
X49356Y-34736D01*
X49285Y-34907D01*
X49284Y-35092D01*
X49355Y-35263D01*
X49486Y-35393D01*
X49657Y-35464D01*
X49842Y-35465D01*
X50013Y-35394D01*
X50143Y-35263D01*
X50214Y-35092D01*
X50215Y-34907D01*
X50144Y-34736D01*
X50013Y-34606D01*
X49950Y-34579D01*
X49950Y-34224D01*
X49934Y-34147D01*
X49891Y-34082D01*
X49813Y-34004D01*
X49813Y-33832D01*
X49799Y-33800D01*
X50700Y-33800D01*
X50686Y-33832D01*
X50686Y-33892D01*
X50686Y-34167D01*
X50709Y-34222D01*
X50751Y-34264D01*
X50806Y-34287D01*
X50866Y-34287D01*
X51142Y-34287D01*
X51197Y-34264D01*
X51239Y-34222D01*
X51249Y-34197D01*
X51260Y-34222D01*
X51302Y-34264D01*
X51357Y-34287D01*
X51417Y-34287D01*
X51530Y-34287D01*
X51550Y-34307D01*
X51550Y-34579D01*
X51486Y-34605D01*
X51356Y-34736D01*
X51285Y-34907D01*
X51284Y-35092D01*
X51355Y-35263D01*
X51486Y-35393D01*
X51657Y-35464D01*
X51842Y-35465D01*
X52013Y-35394D01*
X52143Y-35263D01*
X52214Y-35092D01*
X52215Y-34907D01*
X52144Y-34736D01*
X52134Y-34726D01*
X52190Y-34749D01*
X52309Y-34750D01*
X52365Y-34726D01*
X52356Y-34736D01*
X52285Y-34907D01*
X52284Y-35092D01*
X52355Y-35263D01*
X52486Y-35393D01*
X52657Y-35464D01*
X52842Y-35465D01*
X53013Y-35394D01*
X53143Y-35263D01*
X53214Y-35092D01*
X53215Y-34907D01*
X53144Y-34736D01*
X53013Y-34606D01*
X52842Y-34535D01*
X52657Y-34534D01*
X52515Y-34593D01*
X52549Y-34509D01*
X52550Y-34432D01*
X52734Y-34248D01*
X52751Y-34264D01*
X52806Y-34287D01*
X52866Y-34287D01*
X53142Y-34287D01*
X53197Y-34264D01*
X53239Y-34222D01*
X53249Y-34197D01*
X53260Y-34222D01*
X53302Y-34264D01*
X53357Y-34287D01*
X53417Y-34287D01*
X53530Y-34287D01*
X53550Y-34307D01*
X53550Y-34579D01*
X53486Y-34605D01*
X53356Y-34736D01*
X53285Y-34907D01*
X53284Y-35092D01*
X53355Y-35263D01*
X53486Y-35393D01*
X53657Y-35464D01*
X53842Y-35465D01*
X54013Y-35394D01*
X54143Y-35263D01*
X54214Y-35092D01*
X54215Y-34907D01*
X54144Y-34736D01*
X54013Y-34606D01*
X53950Y-34579D01*
X53950Y-34224D01*
X53934Y-34147D01*
X53891Y-34082D01*
X53813Y-34004D01*
X53813Y-33832D01*
X53799Y-33800D01*
X54700Y-33800D01*
X54686Y-33832D01*
X54686Y-33892D01*
X54686Y-34167D01*
X54709Y-34222D01*
X54751Y-34264D01*
X54806Y-34287D01*
X54866Y-34287D01*
X55142Y-34287D01*
X55197Y-34264D01*
X55239Y-34222D01*
X55249Y-34197D01*
X55260Y-34222D01*
X55302Y-34264D01*
X55357Y-34287D01*
X55417Y-34287D01*
X55530Y-34287D01*
X55550Y-34307D01*
X55550Y-34579D01*
X55486Y-34605D01*
X55356Y-34736D01*
X55285Y-34907D01*
X55284Y-35092D01*
X55355Y-35263D01*
X55486Y-35393D01*
X55657Y-35464D01*
X55842Y-35465D01*
X56013Y-35394D01*
X56143Y-35263D01*
X56214Y-35092D01*
X56215Y-34907D01*
X56144Y-34736D01*
X56013Y-34606D01*
X55950Y-34579D01*
X55950Y-34224D01*
X55934Y-34147D01*
X55891Y-34082D01*
X55813Y-34004D01*
X55813Y-33832D01*
X55799Y-33800D01*
X56700Y-33800D01*
X56686Y-33832D01*
X56686Y-33892D01*
X56686Y-34167D01*
X56709Y-34222D01*
X56751Y-34264D01*
X56806Y-34287D01*
X56866Y-34287D01*
X57142Y-34287D01*
X57197Y-34264D01*
X57239Y-34222D01*
X57249Y-34197D01*
X57260Y-34222D01*
X57302Y-34264D01*
X57357Y-34287D01*
X57417Y-34287D01*
X57530Y-34287D01*
X57550Y-34307D01*
X57550Y-34579D01*
X57486Y-34605D01*
X57356Y-34736D01*
X57285Y-34907D01*
X57284Y-35092D01*
X57355Y-35263D01*
X57486Y-35393D01*
X57657Y-35464D01*
X57842Y-35465D01*
X58013Y-35394D01*
X58143Y-35263D01*
X58214Y-35092D01*
X58215Y-34907D01*
X58215Y-37157D01*
X58144Y-36986D01*
X58013Y-36856D01*
X57950Y-36829D01*
X57950Y-36474D01*
X57934Y-36397D01*
X57891Y-36332D01*
X57813Y-36254D01*
X57813Y-36082D01*
X57790Y-36027D01*
X57748Y-35985D01*
X57693Y-35962D01*
X57633Y-35962D01*
X57357Y-35962D01*
X57302Y-35985D01*
X57260Y-36027D01*
X57250Y-36052D01*
X57239Y-36027D01*
X57215Y-36002D01*
X57215Y-34907D01*
X57144Y-34736D01*
X57013Y-34606D01*
X56842Y-34535D01*
X56657Y-34534D01*
X56486Y-34605D01*
X56356Y-34736D01*
X56285Y-34907D01*
X56284Y-35092D01*
X56355Y-35263D01*
X56486Y-35393D01*
X56657Y-35464D01*
X56842Y-35465D01*
X57013Y-35394D01*
X57143Y-35263D01*
X57214Y-35092D01*
X57215Y-34907D01*
X57215Y-36002D01*
X57197Y-35985D01*
X57174Y-35975D01*
X57174Y-35974D01*
X57159Y-35897D01*
X57159Y-35897D01*
X57144Y-35876D01*
X57115Y-35832D01*
X57115Y-35832D01*
X56991Y-35708D01*
X56926Y-35665D01*
X56850Y-35650D01*
X55215Y-35650D01*
X55215Y-34907D01*
X55144Y-34736D01*
X55013Y-34606D01*
X54842Y-34535D01*
X54657Y-34534D01*
X54486Y-34605D01*
X54356Y-34736D01*
X54285Y-34907D01*
X54284Y-35092D01*
X54355Y-35263D01*
X54486Y-35393D01*
X54657Y-35464D01*
X54842Y-35465D01*
X55013Y-35394D01*
X55143Y-35263D01*
X55214Y-35092D01*
X55215Y-34907D01*
X55215Y-35650D01*
X55100Y-35650D01*
X55023Y-35665D01*
X54974Y-35698D01*
X54974Y-35698D01*
X54925Y-35665D01*
X54848Y-35650D01*
X53100Y-35650D01*
X53023Y-35665D01*
X52974Y-35697D01*
X52926Y-35665D01*
X52850Y-35650D01*
X51215Y-35650D01*
X51215Y-34907D01*
X51144Y-34736D01*
X51013Y-34606D01*
X50842Y-34535D01*
X50657Y-34534D01*
X50486Y-34605D01*
X50356Y-34736D01*
X50285Y-34907D01*
X50284Y-35092D01*
X50355Y-35263D01*
X50486Y-35393D01*
X50657Y-35464D01*
X50842Y-35465D01*
X51013Y-35394D01*
X51143Y-35263D01*
X51214Y-35092D01*
X51215Y-34907D01*
X51215Y-35650D01*
X51100Y-35650D01*
X51023Y-35665D01*
X50974Y-35697D01*
X50926Y-35665D01*
X50850Y-35650D01*
X49215Y-35650D01*
X49215Y-34907D01*
X49144Y-34736D01*
X49013Y-34606D01*
X48842Y-34535D01*
X48657Y-34534D01*
X48486Y-34605D01*
X48356Y-34736D01*
X48285Y-34907D01*
X48284Y-35092D01*
X48355Y-35263D01*
X48486Y-35393D01*
X48657Y-35464D01*
X48842Y-35465D01*
X49013Y-35394D01*
X49143Y-35263D01*
X49214Y-35092D01*
X49215Y-34907D01*
X49215Y-35650D01*
X49100Y-35650D01*
X49023Y-35665D01*
X48974Y-35698D01*
X48974Y-35698D01*
X48925Y-35665D01*
X48848Y-35650D01*
X47215Y-35650D01*
X47215Y-34907D01*
X47144Y-34736D01*
X47013Y-34606D01*
X46842Y-34535D01*
X46657Y-34534D01*
X46486Y-34605D01*
X46356Y-34736D01*
X46285Y-34907D01*
X46284Y-35092D01*
X46355Y-35263D01*
X46486Y-35393D01*
X46657Y-35464D01*
X46842Y-35465D01*
X47013Y-35394D01*
X47143Y-35263D01*
X47214Y-35092D01*
X47215Y-34907D01*
X47215Y-35650D01*
X47100Y-35650D01*
X47023Y-35665D01*
X46974Y-35698D01*
X46974Y-35698D01*
X46925Y-35665D01*
X46848Y-35650D01*
X45215Y-35650D01*
X45215Y-34907D01*
X45144Y-34736D01*
X45013Y-34606D01*
X44842Y-34535D01*
X44657Y-34534D01*
X44486Y-34605D01*
X44356Y-34736D01*
X44285Y-34907D01*
X44284Y-35092D01*
X44355Y-35263D01*
X44486Y-35393D01*
X44657Y-35464D01*
X44842Y-35465D01*
X45013Y-35394D01*
X45143Y-35263D01*
X45214Y-35092D01*
X45215Y-34907D01*
X45215Y-35650D01*
X45100Y-35650D01*
X45023Y-35665D01*
X44958Y-35708D01*
X44832Y-35834D01*
X44789Y-35899D01*
X44774Y-35975D01*
X44774Y-35975D01*
X44751Y-35985D01*
X44709Y-36027D01*
X44686Y-36082D01*
X44686Y-36142D01*
X44686Y-36417D01*
X44709Y-36472D01*
X44751Y-36514D01*
X44806Y-36537D01*
X44866Y-36537D01*
X45142Y-36537D01*
X45197Y-36514D01*
X45239Y-36472D01*
X45249Y-36447D01*
X45260Y-36472D01*
X45302Y-36514D01*
X45357Y-36537D01*
X45417Y-36537D01*
X45530Y-36537D01*
X45550Y-36557D01*
X45550Y-36829D01*
X45486Y-36855D01*
X45356Y-36986D01*
X45285Y-37157D01*
X45284Y-37342D01*
X45355Y-37513D01*
X45486Y-37643D01*
X45657Y-37714D01*
X45842Y-37715D01*
X46013Y-37644D01*
X46143Y-37513D01*
X46214Y-37342D01*
X46215Y-37157D01*
X46144Y-36986D01*
X46013Y-36856D01*
X45950Y-36829D01*
X45950Y-36474D01*
X45934Y-36397D01*
X45891Y-36332D01*
X45813Y-36254D01*
X45813Y-36082D01*
X45799Y-36050D01*
X46700Y-36050D01*
X46686Y-36082D01*
X46686Y-36142D01*
X46686Y-36417D01*
X46709Y-36472D01*
X46751Y-36514D01*
X46806Y-36537D01*
X46866Y-36537D01*
X47142Y-36537D01*
X47197Y-36514D01*
X47239Y-36472D01*
X47249Y-36447D01*
X47260Y-36472D01*
X47302Y-36514D01*
X47357Y-36537D01*
X47417Y-36537D01*
X47530Y-36537D01*
X47550Y-36557D01*
X47550Y-36829D01*
X47486Y-36855D01*
X47356Y-36986D01*
X47285Y-37157D01*
X47284Y-37342D01*
X47355Y-37513D01*
X47486Y-37643D01*
X47657Y-37714D01*
X47842Y-37715D01*
X48013Y-37644D01*
X48143Y-37513D01*
X48214Y-37342D01*
X48215Y-37157D01*
X48144Y-36986D01*
X48013Y-36856D01*
X47950Y-36829D01*
X47950Y-36474D01*
X47934Y-36397D01*
X47891Y-36332D01*
X47813Y-36254D01*
X47813Y-36082D01*
X47799Y-36050D01*
X48700Y-36050D01*
X48686Y-36082D01*
X48686Y-36142D01*
X48686Y-36417D01*
X48709Y-36472D01*
X48751Y-36514D01*
X48806Y-36537D01*
X48866Y-36537D01*
X49142Y-36537D01*
X49197Y-36514D01*
X49239Y-36472D01*
X49249Y-36447D01*
X49260Y-36472D01*
X49302Y-36514D01*
X49357Y-36537D01*
X49417Y-36537D01*
X49530Y-36537D01*
X49550Y-36557D01*
X49550Y-36829D01*
X49486Y-36855D01*
X49356Y-36986D01*
X49285Y-37157D01*
X49284Y-37342D01*
X49355Y-37513D01*
X49486Y-37643D01*
X49657Y-37714D01*
X49842Y-37715D01*
X50013Y-37644D01*
X50143Y-37513D01*
X50214Y-37342D01*
X50215Y-37157D01*
X50144Y-36986D01*
X50013Y-36856D01*
X49950Y-36829D01*
X49950Y-36474D01*
X49934Y-36397D01*
X49891Y-36332D01*
X49813Y-36254D01*
X49813Y-36082D01*
X49799Y-36050D01*
X50700Y-36050D01*
X50686Y-36082D01*
X50686Y-36142D01*
X50686Y-36417D01*
X50709Y-36472D01*
X50751Y-36514D01*
X50774Y-36524D01*
X50774Y-36524D01*
X50789Y-36600D01*
X50832Y-36665D01*
X51050Y-36882D01*
X51050Y-36892D01*
X51013Y-36856D01*
X50842Y-36785D01*
X50657Y-36784D01*
X50486Y-36855D01*
X50356Y-36986D01*
X50285Y-37157D01*
X50284Y-37342D01*
X50355Y-37513D01*
X50486Y-37643D01*
X50657Y-37714D01*
X50842Y-37715D01*
X51013Y-37644D01*
X51050Y-37607D01*
X51050Y-37725D01*
X51037Y-37731D01*
X50994Y-37773D01*
X50972Y-37828D01*
X50972Y-37888D01*
X50972Y-38300D01*
X50500Y-38300D01*
X50423Y-38315D01*
X50358Y-38358D01*
X50008Y-38708D01*
X49965Y-38773D01*
X49950Y-38850D01*
X49950Y-38967D01*
X49901Y-39015D01*
X49901Y-38995D01*
X49901Y-38870D01*
X49901Y-38694D01*
X49879Y-38639D01*
X49836Y-38597D01*
X49781Y-38574D01*
X49722Y-38574D01*
X49686Y-38574D01*
X49649Y-38611D01*
X49649Y-38908D01*
X49864Y-38908D01*
X49901Y-38870D01*
X49901Y-38995D01*
X49864Y-38958D01*
X49649Y-38958D01*
X49649Y-39254D01*
X49655Y-39261D01*
X49599Y-39318D01*
X49599Y-39254D01*
X49599Y-38958D01*
X49599Y-38908D01*
X49599Y-38611D01*
X49561Y-38574D01*
X49525Y-38574D01*
X49466Y-38574D01*
X49411Y-38597D01*
X49368Y-38639D01*
X49346Y-38694D01*
X49346Y-38870D01*
X49383Y-38908D01*
X49599Y-38908D01*
X49599Y-38958D01*
X49383Y-38958D01*
X49346Y-38995D01*
X49346Y-39171D01*
X49368Y-39226D01*
X49411Y-39268D01*
X49466Y-39291D01*
X49525Y-39291D01*
X49561Y-39291D01*
X49599Y-39254D01*
X49599Y-39318D01*
X49158Y-39758D01*
X48942Y-39975D01*
X48899Y-39975D01*
X48904Y-39970D01*
X48949Y-39859D01*
X48950Y-39740D01*
X48904Y-39630D01*
X48853Y-39579D01*
X49017Y-39415D01*
X49017Y-39415D01*
X49060Y-39350D01*
X49075Y-39274D01*
X49088Y-39268D01*
X49131Y-39226D01*
X49153Y-39171D01*
X49153Y-39111D01*
X49153Y-38694D01*
X49131Y-38639D01*
X49088Y-38597D01*
X49033Y-38574D01*
X48974Y-38574D01*
X48718Y-38574D01*
X48663Y-38597D01*
X48625Y-38635D01*
X48625Y-38482D01*
X48840Y-38266D01*
X48972Y-38266D01*
X48972Y-38305D01*
X48994Y-38360D01*
X49037Y-38402D01*
X49092Y-38425D01*
X49151Y-38425D01*
X49407Y-38425D01*
X49462Y-38402D01*
X49505Y-38360D01*
X49527Y-38305D01*
X49527Y-38245D01*
X49527Y-37828D01*
X49505Y-37773D01*
X49462Y-37731D01*
X49407Y-37708D01*
X49348Y-37708D01*
X49215Y-37708D01*
X49215Y-37157D01*
X49144Y-36986D01*
X49013Y-36856D01*
X48842Y-36785D01*
X48657Y-36784D01*
X48486Y-36855D01*
X48356Y-36986D01*
X48285Y-37157D01*
X48284Y-37342D01*
X48355Y-37513D01*
X48486Y-37643D01*
X48657Y-37714D01*
X48842Y-37715D01*
X49013Y-37644D01*
X49143Y-37513D01*
X49214Y-37342D01*
X49215Y-37157D01*
X49215Y-37708D01*
X49092Y-37708D01*
X49037Y-37731D01*
X48994Y-37773D01*
X48972Y-37828D01*
X48972Y-37866D01*
X48758Y-37866D01*
X48681Y-37882D01*
X48616Y-37925D01*
X48283Y-38258D01*
X48240Y-38323D01*
X48225Y-38400D01*
X48225Y-38492D01*
X47658Y-37925D01*
X47593Y-37882D01*
X47527Y-37869D01*
X47527Y-37828D01*
X47505Y-37773D01*
X47462Y-37731D01*
X47407Y-37708D01*
X47348Y-37708D01*
X47215Y-37708D01*
X47215Y-37157D01*
X47144Y-36986D01*
X47013Y-36856D01*
X46842Y-36785D01*
X46657Y-36784D01*
X46486Y-36855D01*
X46356Y-36986D01*
X46285Y-37157D01*
X46284Y-37342D01*
X46355Y-37513D01*
X46486Y-37643D01*
X46657Y-37714D01*
X46842Y-37715D01*
X47013Y-37644D01*
X47143Y-37513D01*
X47214Y-37342D01*
X47215Y-37157D01*
X47215Y-37708D01*
X47092Y-37708D01*
X47037Y-37731D01*
X46994Y-37773D01*
X46972Y-37828D01*
X46972Y-37888D01*
X46972Y-38305D01*
X46994Y-38360D01*
X47037Y-38402D01*
X47092Y-38425D01*
X47151Y-38425D01*
X47407Y-38425D01*
X47462Y-38402D01*
X47505Y-38360D01*
X47511Y-38344D01*
X47741Y-38574D01*
X47722Y-38574D01*
X47686Y-38574D01*
X47649Y-38611D01*
X47649Y-38908D01*
X47864Y-38908D01*
X47901Y-38870D01*
X47901Y-38734D01*
X48000Y-38832D01*
X48000Y-39050D01*
X48000Y-39217D01*
X47901Y-39315D01*
X47901Y-39171D01*
X47901Y-38995D01*
X47864Y-38958D01*
X47649Y-38958D01*
X47649Y-39254D01*
X47686Y-39291D01*
X47722Y-39291D01*
X47781Y-39291D01*
X47836Y-39268D01*
X47879Y-39226D01*
X47901Y-39171D01*
X47901Y-39315D01*
X47717Y-39500D01*
X47640Y-39499D01*
X47599Y-39517D01*
X47599Y-39254D01*
X47599Y-38958D01*
X47599Y-38908D01*
X47599Y-38611D01*
X47561Y-38574D01*
X47525Y-38574D01*
X47466Y-38574D01*
X47411Y-38597D01*
X47368Y-38639D01*
X47346Y-38694D01*
X47346Y-38870D01*
X47383Y-38908D01*
X47599Y-38908D01*
X47599Y-38958D01*
X47383Y-38958D01*
X47346Y-38995D01*
X47346Y-39171D01*
X47368Y-39226D01*
X47411Y-39268D01*
X47466Y-39291D01*
X47525Y-39291D01*
X47561Y-39291D01*
X47599Y-39254D01*
X47599Y-39517D01*
X47530Y-39545D01*
X47445Y-39629D01*
X47400Y-39740D01*
X47399Y-39859D01*
X47445Y-39969D01*
X47491Y-40015D01*
X46885Y-40015D01*
X46830Y-40038D01*
X46788Y-40080D01*
X46765Y-40135D01*
X46765Y-40195D01*
X46765Y-40800D01*
X46635Y-40800D01*
X46660Y-40774D01*
X46734Y-40596D01*
X46734Y-40404D01*
X46661Y-40225D01*
X46524Y-40089D01*
X46467Y-40065D01*
X46482Y-40049D01*
X46559Y-40050D01*
X46669Y-40004D01*
X46754Y-39920D01*
X46799Y-39809D01*
X46800Y-39732D01*
X47017Y-39515D01*
X47060Y-39450D01*
X47075Y-39374D01*
X47075Y-39274D01*
X47088Y-39268D01*
X47131Y-39226D01*
X47153Y-39171D01*
X47153Y-39111D01*
X47153Y-38694D01*
X47131Y-38639D01*
X47088Y-38597D01*
X47033Y-38574D01*
X46974Y-38574D01*
X46718Y-38574D01*
X46663Y-38597D01*
X46620Y-38639D01*
X46598Y-38694D01*
X46598Y-38754D01*
X46598Y-39171D01*
X46620Y-39226D01*
X46663Y-39268D01*
X46675Y-39274D01*
X46675Y-39291D01*
X46517Y-39450D01*
X46440Y-39449D01*
X46330Y-39495D01*
X46299Y-39525D01*
X46300Y-39440D01*
X46254Y-39330D01*
X46170Y-39245D01*
X46059Y-39200D01*
X45940Y-39199D01*
X45879Y-39225D01*
X45901Y-39171D01*
X45901Y-38995D01*
X45901Y-38870D01*
X45901Y-38694D01*
X45879Y-38639D01*
X45836Y-38597D01*
X45781Y-38574D01*
X45722Y-38574D01*
X45686Y-38574D01*
X45649Y-38611D01*
X45649Y-38908D01*
X45864Y-38908D01*
X45901Y-38870D01*
X45901Y-38995D01*
X45864Y-38958D01*
X45649Y-38958D01*
X45649Y-39254D01*
X45686Y-39291D01*
X45722Y-39291D01*
X45781Y-39291D01*
X45785Y-39290D01*
X45775Y-39300D01*
X45599Y-39300D01*
X45599Y-39254D01*
X45599Y-38958D01*
X45599Y-38908D01*
X45599Y-38611D01*
X45561Y-38574D01*
X45525Y-38574D01*
X45466Y-38574D01*
X45411Y-38597D01*
X45368Y-38639D01*
X45346Y-38694D01*
X45346Y-38870D01*
X45383Y-38908D01*
X45599Y-38908D01*
X45599Y-38958D01*
X45383Y-38958D01*
X45346Y-38995D01*
X45346Y-39171D01*
X45368Y-39226D01*
X45411Y-39268D01*
X45466Y-39291D01*
X45525Y-39291D01*
X45561Y-39291D01*
X45599Y-39254D01*
X45599Y-39300D01*
X45332Y-39300D01*
X45153Y-39121D01*
X45153Y-39111D01*
X45153Y-38694D01*
X45131Y-38639D01*
X45088Y-38597D01*
X45033Y-38574D01*
X44974Y-38574D01*
X44750Y-38574D01*
X44750Y-38382D01*
X44865Y-38266D01*
X44972Y-38266D01*
X44972Y-38305D01*
X44994Y-38360D01*
X45037Y-38402D01*
X45092Y-38425D01*
X45151Y-38425D01*
X45407Y-38425D01*
X45462Y-38402D01*
X45505Y-38360D01*
X45527Y-38305D01*
X45527Y-38245D01*
X45527Y-37828D01*
X45505Y-37773D01*
X45462Y-37731D01*
X45407Y-37708D01*
X45348Y-37708D01*
X45215Y-37708D01*
X45215Y-37157D01*
X45144Y-36986D01*
X45013Y-36856D01*
X44842Y-36785D01*
X44657Y-36784D01*
X44486Y-36855D01*
X44356Y-36986D01*
X44285Y-37157D01*
X44284Y-37342D01*
X44355Y-37513D01*
X44486Y-37643D01*
X44657Y-37714D01*
X44842Y-37715D01*
X45013Y-37644D01*
X45143Y-37513D01*
X45214Y-37342D01*
X45215Y-37157D01*
X45215Y-37708D01*
X45092Y-37708D01*
X45037Y-37731D01*
X44994Y-37773D01*
X44972Y-37828D01*
X44972Y-37866D01*
X44783Y-37866D01*
X44719Y-37879D01*
X44706Y-37882D01*
X44641Y-37925D01*
X44408Y-38158D01*
X44365Y-38223D01*
X44350Y-38300D01*
X44350Y-44067D01*
X44169Y-44247D01*
X44169Y-29169D01*
X61330Y-29169D01*
X61330Y-52830D01*
X61330Y-52830D01*
G37*
G54D25*
X61330Y-52830D02*
X61291Y-52830D01*
X61291Y-45992D01*
X61291Y-45592D01*
X61291Y-45467D01*
X61291Y-45066D01*
X61268Y-45011D01*
X61226Y-44969D01*
X61171Y-44946D01*
X61111Y-44946D01*
X61016Y-44946D01*
X61016Y-44384D01*
X61016Y-44324D01*
X61016Y-44062D01*
X61016Y-43937D01*
X61016Y-43675D01*
X61016Y-43615D01*
X60993Y-43560D01*
X60951Y-43518D01*
X60895Y-43495D01*
X60613Y-43495D01*
X60576Y-43533D01*
X60576Y-43975D01*
X60978Y-43975D01*
X61016Y-43937D01*
X61016Y-44062D01*
X60978Y-44025D01*
X60576Y-44025D01*
X60576Y-44466D01*
X60613Y-44504D01*
X60895Y-44504D01*
X60951Y-44481D01*
X60993Y-44439D01*
X61016Y-44384D01*
X61016Y-44946D01*
X60968Y-44946D01*
X60930Y-44983D01*
X60930Y-45504D01*
X61254Y-45504D01*
X61291Y-45467D01*
X61291Y-45592D01*
X61254Y-45554D01*
X60930Y-45554D01*
X60930Y-46075D01*
X60968Y-46112D01*
X61111Y-46112D01*
X61171Y-46112D01*
X61226Y-46089D01*
X61268Y-46047D01*
X61291Y-45992D01*
X61291Y-52830D01*
X61050Y-52830D01*
X61050Y-50050D01*
X61050Y-47229D01*
X60550Y-46729D01*
X60550Y-46055D01*
X60584Y-46089D01*
X60639Y-46112D01*
X60699Y-46112D01*
X60843Y-46112D01*
X60880Y-46075D01*
X60880Y-45554D01*
X60872Y-45554D01*
X60872Y-45504D01*
X60880Y-45504D01*
X60880Y-44983D01*
X60843Y-44946D01*
X60699Y-44946D01*
X60639Y-44946D01*
X60584Y-44969D01*
X60550Y-45003D01*
X60550Y-44300D01*
X60526Y-44300D01*
X60526Y-44025D01*
X60518Y-44025D01*
X60518Y-43975D01*
X60526Y-43975D01*
X60526Y-43533D01*
X60488Y-43495D01*
X60409Y-43495D01*
X60950Y-42664D01*
X60950Y-41300D01*
X60833Y-41300D01*
X60833Y-40114D01*
X60832Y-39882D01*
X60745Y-39671D01*
X60661Y-39624D01*
X60625Y-39659D01*
X60625Y-39588D01*
X60608Y-39558D01*
X60608Y-30579D01*
X60478Y-30264D01*
X60237Y-30022D01*
X59921Y-29891D01*
X59579Y-29891D01*
X59264Y-30021D01*
X59022Y-30262D01*
X58891Y-30578D01*
X58891Y-30920D01*
X59021Y-31235D01*
X59262Y-31477D01*
X59578Y-31608D01*
X59920Y-31608D01*
X60235Y-31478D01*
X60477Y-31237D01*
X60608Y-30921D01*
X60608Y-30579D01*
X60608Y-39558D01*
X60578Y-39504D01*
X60364Y-39416D01*
X60132Y-39417D01*
X59921Y-39504D01*
X59874Y-39588D01*
X60250Y-39964D01*
X60625Y-39588D01*
X60625Y-39659D01*
X60285Y-40000D01*
X60661Y-40375D01*
X60745Y-40328D01*
X60833Y-40114D01*
X60833Y-41300D01*
X60625Y-41300D01*
X60625Y-40411D01*
X60250Y-40035D01*
X60214Y-40070D01*
X60214Y-40000D01*
X59838Y-39624D01*
X59754Y-39671D01*
X59666Y-39885D01*
X59667Y-40117D01*
X59754Y-40328D01*
X59838Y-40375D01*
X60214Y-40000D01*
X60214Y-40070D01*
X59874Y-40411D01*
X59921Y-40495D01*
X60135Y-40583D01*
X60367Y-40582D01*
X60578Y-40495D01*
X60625Y-40411D01*
X60625Y-41300D01*
X59579Y-41300D01*
X58550Y-42329D01*
X58550Y-46550D01*
X59450Y-46550D01*
X59450Y-46729D01*
X58950Y-47229D01*
X58950Y-48800D01*
X59017Y-48800D01*
X59006Y-48810D01*
X58983Y-48865D01*
X58983Y-48925D01*
X58983Y-49187D01*
X59021Y-49225D01*
X59423Y-49225D01*
X59423Y-49217D01*
X59473Y-49217D01*
X59473Y-49225D01*
X59481Y-49225D01*
X59481Y-49275D01*
X59473Y-49275D01*
X59473Y-49716D01*
X59511Y-49754D01*
X59700Y-49754D01*
X59700Y-50050D01*
X61050Y-50050D01*
X61050Y-52830D01*
X60608Y-52830D01*
X60608Y-51079D01*
X60478Y-50764D01*
X60237Y-50522D01*
X59921Y-50391D01*
X59579Y-50391D01*
X59423Y-50455D01*
X59423Y-49716D01*
X59423Y-49275D01*
X59021Y-49275D01*
X58983Y-49312D01*
X58983Y-49574D01*
X58983Y-49634D01*
X59006Y-49689D01*
X59048Y-49731D01*
X59104Y-49754D01*
X59386Y-49754D01*
X59423Y-49716D01*
X59423Y-50455D01*
X59264Y-50521D01*
X59022Y-50762D01*
X58891Y-51078D01*
X58891Y-51420D01*
X59021Y-51735D01*
X59262Y-51977D01*
X59578Y-52108D01*
X59920Y-52108D01*
X60235Y-51978D01*
X60477Y-51737D01*
X60608Y-51421D01*
X60608Y-51079D01*
X60608Y-52830D01*
X44169Y-52830D01*
X44169Y-45202D01*
X44450Y-45482D01*
X44450Y-46100D01*
X44465Y-46176D01*
X44508Y-46241D01*
X44802Y-46535D01*
X44657Y-46534D01*
X44486Y-46605D01*
X44356Y-46736D01*
X44285Y-46907D01*
X44284Y-47092D01*
X44355Y-47263D01*
X44486Y-47393D01*
X44621Y-47450D01*
X44608Y-47458D01*
X44458Y-47608D01*
X44415Y-47673D01*
X44400Y-47750D01*
X44400Y-48300D01*
X44415Y-48376D01*
X44458Y-48441D01*
X44802Y-48785D01*
X44657Y-48784D01*
X44486Y-48855D01*
X44356Y-48986D01*
X44285Y-49157D01*
X44284Y-49342D01*
X44355Y-49513D01*
X44486Y-49643D01*
X44657Y-49714D01*
X44842Y-49715D01*
X45013Y-49644D01*
X45050Y-49607D01*
X45050Y-49767D01*
X44854Y-49962D01*
X44806Y-49962D01*
X44751Y-49985D01*
X44709Y-50027D01*
X44686Y-50082D01*
X44686Y-50142D01*
X44686Y-50417D01*
X44709Y-50472D01*
X44751Y-50514D01*
X44774Y-50524D01*
X44774Y-50524D01*
X44789Y-50600D01*
X44832Y-50665D01*
X44957Y-50790D01*
X44957Y-50790D01*
X45000Y-50819D01*
X45022Y-50833D01*
X45022Y-50833D01*
X45098Y-50848D01*
X45373Y-50848D01*
X45358Y-50858D01*
X45108Y-51108D01*
X45071Y-51163D01*
X45013Y-51106D01*
X44842Y-51035D01*
X44657Y-51034D01*
X44486Y-51105D01*
X44356Y-51236D01*
X44285Y-51407D01*
X44284Y-51592D01*
X44355Y-51763D01*
X44486Y-51893D01*
X44657Y-51964D01*
X44842Y-51965D01*
X45013Y-51894D01*
X45050Y-51857D01*
X45050Y-51867D01*
X44832Y-52084D01*
X44789Y-52149D01*
X44774Y-52225D01*
X44774Y-52225D01*
X44751Y-52235D01*
X44709Y-52277D01*
X44686Y-52332D01*
X44686Y-52392D01*
X44686Y-52667D01*
X44709Y-52722D01*
X44751Y-52764D01*
X44806Y-52787D01*
X44866Y-52787D01*
X45142Y-52787D01*
X45197Y-52764D01*
X45239Y-52722D01*
X45249Y-52697D01*
X45260Y-52722D01*
X45302Y-52764D01*
X45357Y-52787D01*
X45417Y-52787D01*
X45693Y-52787D01*
X45748Y-52764D01*
X45790Y-52722D01*
X45813Y-52667D01*
X45813Y-52607D01*
X45813Y-52495D01*
X45891Y-52417D01*
X45934Y-52352D01*
X45950Y-52275D01*
X45950Y-51920D01*
X46013Y-51894D01*
X46143Y-51763D01*
X46214Y-51592D01*
X46215Y-51407D01*
X46144Y-51236D01*
X46107Y-51200D01*
X46392Y-51200D01*
X46356Y-51236D01*
X46285Y-51407D01*
X46284Y-51592D01*
X46355Y-51763D01*
X46486Y-51893D01*
X46657Y-51964D01*
X46842Y-51965D01*
X47013Y-51894D01*
X47050Y-51857D01*
X47050Y-51867D01*
X46832Y-52084D01*
X46789Y-52149D01*
X46774Y-52225D01*
X46774Y-52225D01*
X46751Y-52235D01*
X46709Y-52277D01*
X46686Y-52332D01*
X46686Y-52392D01*
X46686Y-52667D01*
X46709Y-52722D01*
X46751Y-52764D01*
X46806Y-52787D01*
X46866Y-52787D01*
X47142Y-52787D01*
X47197Y-52764D01*
X47239Y-52722D01*
X47249Y-52697D01*
X47260Y-52722D01*
X47302Y-52764D01*
X47357Y-52787D01*
X47417Y-52787D01*
X47693Y-52787D01*
X47748Y-52764D01*
X47790Y-52722D01*
X47813Y-52667D01*
X47813Y-52607D01*
X47813Y-52495D01*
X47891Y-52417D01*
X47934Y-52352D01*
X47950Y-52275D01*
X47950Y-51920D01*
X48013Y-51894D01*
X48143Y-51763D01*
X48214Y-51592D01*
X48215Y-51407D01*
X48144Y-51236D01*
X48107Y-51200D01*
X48392Y-51200D01*
X48356Y-51236D01*
X48285Y-51407D01*
X48284Y-51592D01*
X48355Y-51763D01*
X48486Y-51893D01*
X48657Y-51964D01*
X48842Y-51965D01*
X49013Y-51894D01*
X49050Y-51857D01*
X49050Y-51867D01*
X48832Y-52084D01*
X48789Y-52149D01*
X48774Y-52225D01*
X48774Y-52225D01*
X48751Y-52235D01*
X48709Y-52277D01*
X48686Y-52332D01*
X48686Y-52392D01*
X48686Y-52667D01*
X48709Y-52722D01*
X48751Y-52764D01*
X48806Y-52787D01*
X48866Y-52787D01*
X49142Y-52787D01*
X49197Y-52764D01*
X49239Y-52722D01*
X49249Y-52697D01*
X49260Y-52722D01*
X49302Y-52764D01*
X49357Y-52787D01*
X49417Y-52787D01*
X49693Y-52787D01*
X49748Y-52764D01*
X49790Y-52722D01*
X49813Y-52667D01*
X49813Y-52607D01*
X49813Y-52495D01*
X49891Y-52417D01*
X49934Y-52352D01*
X49950Y-52275D01*
X49950Y-51920D01*
X50013Y-51894D01*
X50143Y-51763D01*
X50214Y-51592D01*
X50215Y-51407D01*
X50144Y-51236D01*
X50107Y-51200D01*
X50392Y-51200D01*
X50356Y-51236D01*
X50285Y-51407D01*
X50284Y-51592D01*
X50355Y-51763D01*
X50486Y-51893D01*
X50657Y-51964D01*
X50842Y-51965D01*
X51013Y-51894D01*
X51050Y-51857D01*
X51050Y-51867D01*
X50832Y-52084D01*
X50789Y-52149D01*
X50774Y-52225D01*
X50774Y-52225D01*
X50751Y-52235D01*
X50709Y-52277D01*
X50686Y-52332D01*
X50686Y-52392D01*
X50686Y-52667D01*
X50709Y-52722D01*
X50751Y-52764D01*
X50806Y-52787D01*
X50866Y-52787D01*
X51142Y-52787D01*
X51197Y-52764D01*
X51239Y-52722D01*
X51249Y-52697D01*
X51260Y-52722D01*
X51302Y-52764D01*
X51357Y-52787D01*
X51417Y-52787D01*
X51693Y-52787D01*
X51748Y-52764D01*
X51790Y-52722D01*
X51813Y-52667D01*
X51813Y-52607D01*
X51813Y-52495D01*
X51891Y-52417D01*
X51934Y-52352D01*
X51950Y-52275D01*
X51950Y-51920D01*
X52013Y-51894D01*
X52143Y-51763D01*
X52214Y-51592D01*
X52215Y-51407D01*
X52144Y-51236D01*
X52107Y-51200D01*
X52392Y-51200D01*
X52356Y-51236D01*
X52285Y-51407D01*
X52284Y-51592D01*
X52355Y-51763D01*
X52486Y-51893D01*
X52657Y-51964D01*
X52842Y-51965D01*
X53013Y-51894D01*
X53050Y-51857D01*
X53050Y-51867D01*
X52832Y-52084D01*
X52789Y-52149D01*
X52774Y-52225D01*
X52774Y-52225D01*
X52751Y-52235D01*
X52709Y-52277D01*
X52686Y-52332D01*
X52686Y-52392D01*
X52686Y-52667D01*
X52709Y-52722D01*
X52751Y-52764D01*
X52806Y-52787D01*
X52866Y-52787D01*
X53142Y-52787D01*
X53197Y-52764D01*
X53239Y-52722D01*
X53249Y-52697D01*
X53260Y-52722D01*
X53302Y-52764D01*
X53357Y-52787D01*
X53417Y-52787D01*
X53693Y-52787D01*
X53748Y-52764D01*
X53790Y-52722D01*
X53813Y-52667D01*
X53813Y-52607D01*
X53813Y-52495D01*
X53891Y-52417D01*
X53934Y-52352D01*
X53950Y-52275D01*
X53950Y-51920D01*
X54013Y-51894D01*
X54143Y-51763D01*
X54214Y-51592D01*
X54215Y-51407D01*
X54144Y-51236D01*
X54107Y-51200D01*
X54392Y-51200D01*
X54356Y-51236D01*
X54285Y-51407D01*
X54284Y-51592D01*
X54355Y-51763D01*
X54486Y-51893D01*
X54657Y-51964D01*
X54842Y-51965D01*
X54944Y-51922D01*
X54832Y-52034D01*
X54789Y-52099D01*
X54774Y-52175D01*
X54774Y-52225D01*
X54751Y-52235D01*
X54709Y-52277D01*
X54686Y-52332D01*
X54686Y-52392D01*
X54686Y-52667D01*
X54709Y-52722D01*
X54751Y-52764D01*
X54806Y-52787D01*
X54866Y-52787D01*
X55142Y-52787D01*
X55197Y-52764D01*
X55239Y-52722D01*
X55249Y-52697D01*
X55260Y-52722D01*
X55302Y-52764D01*
X55357Y-52787D01*
X55417Y-52787D01*
X55693Y-52787D01*
X55748Y-52764D01*
X55790Y-52722D01*
X55813Y-52667D01*
X55813Y-52607D01*
X55813Y-52495D01*
X55891Y-52417D01*
X55934Y-52352D01*
X55950Y-52275D01*
X55950Y-51920D01*
X56013Y-51894D01*
X56050Y-51857D01*
X56050Y-52300D01*
X56065Y-52376D01*
X56108Y-52441D01*
X56308Y-52641D01*
X56308Y-52641D01*
X56351Y-52670D01*
X56373Y-52684D01*
X56373Y-52684D01*
X56450Y-52700D01*
X56700Y-52700D01*
X56709Y-52722D01*
X56751Y-52764D01*
X56806Y-52787D01*
X56866Y-52787D01*
X57142Y-52787D01*
X57197Y-52764D01*
X57239Y-52722D01*
X57249Y-52697D01*
X57260Y-52722D01*
X57302Y-52764D01*
X57357Y-52787D01*
X57417Y-52787D01*
X57693Y-52787D01*
X57748Y-52764D01*
X57790Y-52722D01*
X57813Y-52667D01*
X57813Y-52607D01*
X57813Y-52495D01*
X57891Y-52417D01*
X57934Y-52352D01*
X57950Y-52275D01*
X57950Y-51920D01*
X58013Y-51894D01*
X58143Y-51763D01*
X58214Y-51592D01*
X58215Y-51407D01*
X58144Y-51236D01*
X58013Y-51106D01*
X57842Y-51035D01*
X57657Y-51034D01*
X57486Y-51105D01*
X57356Y-51236D01*
X57285Y-51407D01*
X57284Y-51592D01*
X57333Y-51709D01*
X57309Y-51700D01*
X57190Y-51699D01*
X57166Y-51710D01*
X57214Y-51592D01*
X57215Y-51407D01*
X57144Y-51236D01*
X57013Y-51106D01*
X56842Y-51035D01*
X56657Y-51034D01*
X56486Y-51105D01*
X56440Y-51152D01*
X56434Y-51123D01*
X56434Y-51123D01*
X56420Y-51101D01*
X56391Y-51058D01*
X56391Y-51058D01*
X56191Y-50858D01*
X56178Y-50850D01*
X56850Y-50850D01*
X56926Y-50834D01*
X56991Y-50791D01*
X57115Y-50667D01*
X57115Y-50667D01*
X57144Y-50623D01*
X57159Y-50602D01*
X57159Y-50602D01*
X57174Y-50525D01*
X57174Y-50525D01*
X57174Y-50524D01*
X57197Y-50514D01*
X57239Y-50472D01*
X57249Y-50447D01*
X57260Y-50472D01*
X57302Y-50514D01*
X57357Y-50537D01*
X57417Y-50537D01*
X57693Y-50537D01*
X57748Y-50514D01*
X57790Y-50472D01*
X57813Y-50417D01*
X57813Y-50357D01*
X57813Y-50245D01*
X57891Y-50167D01*
X57934Y-50102D01*
X57950Y-50025D01*
X57950Y-49670D01*
X58013Y-49644D01*
X58143Y-49513D01*
X58214Y-49342D01*
X58215Y-49157D01*
X58144Y-48986D01*
X58013Y-48856D01*
X57842Y-48785D01*
X57657Y-48784D01*
X57486Y-48855D01*
X57356Y-48986D01*
X57285Y-49157D01*
X57284Y-49342D01*
X57355Y-49513D01*
X57486Y-49643D01*
X57550Y-49670D01*
X57550Y-49942D01*
X57530Y-49962D01*
X57357Y-49962D01*
X57302Y-49985D01*
X57260Y-50027D01*
X57250Y-50052D01*
X57239Y-50027D01*
X57215Y-50002D01*
X57215Y-49157D01*
X57144Y-48986D01*
X57013Y-48856D01*
X56842Y-48785D01*
X56657Y-48784D01*
X56486Y-48855D01*
X56356Y-48986D01*
X56285Y-49157D01*
X56284Y-49342D01*
X56355Y-49513D01*
X56486Y-49643D01*
X56657Y-49714D01*
X56842Y-49715D01*
X57013Y-49644D01*
X57143Y-49513D01*
X57214Y-49342D01*
X57215Y-49157D01*
X57215Y-50002D01*
X57197Y-49985D01*
X57142Y-49962D01*
X57082Y-49962D01*
X56806Y-49962D01*
X56751Y-49985D01*
X56709Y-50027D01*
X56686Y-50082D01*
X56686Y-50142D01*
X56686Y-50417D01*
X56700Y-50450D01*
X55799Y-50450D01*
X55813Y-50417D01*
X55813Y-50357D01*
X55813Y-50245D01*
X55891Y-50167D01*
X55934Y-50102D01*
X55950Y-50025D01*
X55950Y-49670D01*
X56013Y-49644D01*
X56143Y-49513D01*
X56214Y-49342D01*
X56215Y-49157D01*
X56144Y-48986D01*
X56013Y-48856D01*
X55842Y-48785D01*
X55657Y-48784D01*
X55486Y-48855D01*
X55356Y-48986D01*
X55285Y-49157D01*
X55284Y-49342D01*
X55355Y-49513D01*
X55486Y-49643D01*
X55550Y-49670D01*
X55550Y-49942D01*
X55530Y-49962D01*
X55357Y-49962D01*
X55302Y-49985D01*
X55260Y-50027D01*
X55250Y-50052D01*
X55239Y-50027D01*
X55215Y-50002D01*
X55215Y-49157D01*
X55144Y-48986D01*
X55013Y-48856D01*
X54842Y-48785D01*
X54657Y-48784D01*
X54486Y-48855D01*
X54356Y-48986D01*
X54285Y-49157D01*
X54284Y-49342D01*
X54355Y-49513D01*
X54486Y-49643D01*
X54657Y-49714D01*
X54842Y-49715D01*
X55013Y-49644D01*
X55143Y-49513D01*
X55214Y-49342D01*
X55215Y-49157D01*
X55215Y-50002D01*
X55197Y-49985D01*
X55142Y-49962D01*
X55082Y-49962D01*
X54806Y-49962D01*
X54751Y-49985D01*
X54709Y-50027D01*
X54686Y-50082D01*
X54686Y-50142D01*
X54686Y-50417D01*
X54700Y-50450D01*
X53799Y-50450D01*
X53813Y-50417D01*
X53813Y-50357D01*
X53813Y-50245D01*
X53891Y-50167D01*
X53934Y-50102D01*
X53950Y-50025D01*
X53950Y-49670D01*
X54013Y-49644D01*
X54143Y-49513D01*
X54214Y-49342D01*
X54215Y-49157D01*
X54144Y-48986D01*
X54013Y-48856D01*
X53842Y-48785D01*
X53657Y-48784D01*
X53486Y-48855D01*
X53356Y-48986D01*
X53285Y-49157D01*
X53284Y-49342D01*
X53355Y-49513D01*
X53486Y-49643D01*
X53550Y-49670D01*
X53550Y-49942D01*
X53530Y-49962D01*
X53357Y-49962D01*
X53302Y-49985D01*
X53260Y-50027D01*
X53250Y-50052D01*
X53239Y-50027D01*
X53215Y-50002D01*
X53215Y-49157D01*
X53144Y-48986D01*
X53013Y-48856D01*
X52842Y-48785D01*
X52657Y-48784D01*
X52486Y-48855D01*
X52356Y-48986D01*
X52285Y-49157D01*
X52284Y-49342D01*
X52355Y-49513D01*
X52486Y-49643D01*
X52657Y-49714D01*
X52842Y-49715D01*
X53013Y-49644D01*
X53143Y-49513D01*
X53214Y-49342D01*
X53215Y-49157D01*
X53215Y-50002D01*
X53197Y-49985D01*
X53142Y-49962D01*
X53082Y-49962D01*
X52806Y-49962D01*
X52751Y-49985D01*
X52709Y-50027D01*
X52686Y-50082D01*
X52686Y-50142D01*
X52686Y-50417D01*
X52700Y-50450D01*
X51799Y-50450D01*
X51813Y-50417D01*
X51813Y-50357D01*
X51813Y-50245D01*
X51891Y-50167D01*
X51934Y-50102D01*
X51950Y-50025D01*
X51950Y-49670D01*
X52013Y-49644D01*
X52143Y-49513D01*
X52214Y-49342D01*
X52215Y-49157D01*
X52144Y-48986D01*
X52013Y-48856D01*
X51842Y-48785D01*
X51657Y-48784D01*
X51486Y-48855D01*
X51356Y-48986D01*
X51285Y-49157D01*
X51284Y-49342D01*
X51355Y-49513D01*
X51486Y-49643D01*
X51550Y-49670D01*
X51550Y-49942D01*
X51530Y-49962D01*
X51357Y-49962D01*
X51302Y-49985D01*
X51260Y-50027D01*
X51250Y-50052D01*
X51239Y-50027D01*
X51215Y-50002D01*
X51215Y-49157D01*
X51144Y-48986D01*
X51013Y-48856D01*
X50842Y-48785D01*
X50657Y-48784D01*
X50486Y-48855D01*
X50356Y-48986D01*
X50285Y-49157D01*
X50284Y-49342D01*
X50355Y-49513D01*
X50486Y-49643D01*
X50657Y-49714D01*
X50842Y-49715D01*
X51013Y-49644D01*
X51143Y-49513D01*
X51214Y-49342D01*
X51215Y-49157D01*
X51215Y-50002D01*
X51197Y-49985D01*
X51142Y-49962D01*
X51082Y-49962D01*
X50806Y-49962D01*
X50751Y-49985D01*
X50709Y-50027D01*
X50686Y-50082D01*
X50686Y-50142D01*
X50686Y-50417D01*
X50700Y-50450D01*
X49799Y-50450D01*
X49813Y-50417D01*
X49813Y-50357D01*
X49813Y-50245D01*
X49891Y-50167D01*
X49934Y-50102D01*
X49950Y-50025D01*
X49950Y-49670D01*
X50013Y-49644D01*
X50143Y-49513D01*
X50214Y-49342D01*
X50215Y-49157D01*
X50144Y-48986D01*
X50013Y-48856D01*
X49842Y-48785D01*
X49657Y-48784D01*
X49486Y-48855D01*
X49356Y-48986D01*
X49285Y-49157D01*
X49284Y-49342D01*
X49355Y-49513D01*
X49486Y-49643D01*
X49550Y-49670D01*
X49550Y-49942D01*
X49530Y-49962D01*
X49357Y-49962D01*
X49302Y-49985D01*
X49260Y-50027D01*
X49250Y-50052D01*
X49239Y-50027D01*
X49215Y-50002D01*
X49215Y-49157D01*
X49144Y-48986D01*
X49013Y-48856D01*
X48842Y-48785D01*
X48657Y-48784D01*
X48486Y-48855D01*
X48356Y-48986D01*
X48285Y-49157D01*
X48284Y-49342D01*
X48355Y-49513D01*
X48486Y-49643D01*
X48657Y-49714D01*
X48842Y-49715D01*
X49013Y-49644D01*
X49143Y-49513D01*
X49214Y-49342D01*
X49215Y-49157D01*
X49215Y-50002D01*
X49197Y-49985D01*
X49142Y-49962D01*
X49082Y-49962D01*
X48806Y-49962D01*
X48751Y-49985D01*
X48709Y-50027D01*
X48686Y-50082D01*
X48686Y-50142D01*
X48686Y-50417D01*
X48700Y-50450D01*
X47799Y-50450D01*
X47813Y-50417D01*
X47813Y-50357D01*
X47813Y-50245D01*
X47891Y-50167D01*
X47934Y-50102D01*
X47950Y-50025D01*
X47950Y-49670D01*
X48013Y-49644D01*
X48143Y-49513D01*
X48214Y-49342D01*
X48215Y-49157D01*
X48144Y-48986D01*
X48013Y-48856D01*
X47842Y-48785D01*
X47657Y-48784D01*
X47486Y-48855D01*
X47356Y-48986D01*
X47285Y-49157D01*
X47284Y-49342D01*
X47355Y-49513D01*
X47486Y-49643D01*
X47550Y-49670D01*
X47550Y-49942D01*
X47530Y-49962D01*
X47357Y-49962D01*
X47302Y-49985D01*
X47260Y-50027D01*
X47250Y-50052D01*
X47239Y-50027D01*
X47215Y-50002D01*
X47215Y-49157D01*
X47144Y-48986D01*
X47013Y-48856D01*
X46842Y-48785D01*
X46657Y-48784D01*
X46486Y-48855D01*
X46356Y-48986D01*
X46285Y-49157D01*
X46284Y-49342D01*
X46355Y-49513D01*
X46486Y-49643D01*
X46657Y-49714D01*
X46842Y-49715D01*
X47013Y-49644D01*
X47143Y-49513D01*
X47214Y-49342D01*
X47215Y-49157D01*
X47215Y-50002D01*
X47197Y-49985D01*
X47142Y-49962D01*
X47082Y-49962D01*
X46806Y-49962D01*
X46751Y-49985D01*
X46709Y-50027D01*
X46686Y-50082D01*
X46686Y-50142D01*
X46686Y-50417D01*
X46699Y-50448D01*
X45800Y-50448D01*
X45813Y-50417D01*
X45813Y-50357D01*
X45813Y-50245D01*
X45891Y-50167D01*
X45934Y-50102D01*
X45950Y-50025D01*
X45950Y-49670D01*
X46013Y-49644D01*
X46143Y-49513D01*
X46214Y-49342D01*
X46215Y-49157D01*
X46144Y-48986D01*
X46013Y-48856D01*
X45842Y-48785D01*
X45657Y-48784D01*
X45486Y-48855D01*
X45440Y-48902D01*
X45434Y-48873D01*
X45391Y-48808D01*
X45181Y-48598D01*
X46850Y-48598D01*
X46926Y-48583D01*
X46974Y-48551D01*
X46974Y-48551D01*
X47000Y-48569D01*
X47022Y-48583D01*
X47022Y-48583D01*
X47098Y-48598D01*
X48850Y-48598D01*
X48926Y-48583D01*
X48974Y-48551D01*
X48974Y-48551D01*
X49023Y-48584D01*
X49023Y-48584D01*
X49100Y-48600D01*
X50848Y-48600D01*
X50925Y-48584D01*
X50974Y-48551D01*
X50974Y-48551D01*
X51023Y-48584D01*
X51023Y-48584D01*
X51100Y-48600D01*
X52850Y-48600D01*
X52926Y-48584D01*
X52974Y-48552D01*
X53023Y-48584D01*
X53023Y-48584D01*
X53100Y-48600D01*
X54848Y-48600D01*
X54925Y-48584D01*
X54974Y-48551D01*
X54974Y-48551D01*
X55023Y-48584D01*
X55023Y-48584D01*
X55100Y-48600D01*
X56850Y-48600D01*
X56926Y-48584D01*
X56991Y-48541D01*
X57115Y-48417D01*
X57115Y-48417D01*
X57144Y-48373D01*
X57159Y-48352D01*
X57159Y-48352D01*
X57174Y-48275D01*
X57174Y-48275D01*
X57174Y-48274D01*
X57197Y-48264D01*
X57239Y-48222D01*
X57249Y-48197D01*
X57260Y-48222D01*
X57302Y-48264D01*
X57357Y-48287D01*
X57417Y-48287D01*
X57693Y-48287D01*
X57748Y-48264D01*
X57790Y-48222D01*
X57813Y-48167D01*
X57813Y-48107D01*
X57813Y-47995D01*
X57891Y-47917D01*
X57934Y-47852D01*
X57950Y-47775D01*
X57950Y-47420D01*
X58013Y-47394D01*
X58143Y-47263D01*
X58214Y-47092D01*
X58215Y-46907D01*
X58144Y-46736D01*
X58013Y-46606D01*
X57842Y-46535D01*
X57657Y-46534D01*
X57486Y-46605D01*
X57356Y-46736D01*
X57285Y-46907D01*
X57284Y-47092D01*
X57355Y-47263D01*
X57486Y-47393D01*
X57550Y-47420D01*
X57550Y-47692D01*
X57530Y-47712D01*
X57357Y-47712D01*
X57302Y-47735D01*
X57260Y-47777D01*
X57250Y-47802D01*
X57239Y-47777D01*
X57215Y-47752D01*
X57215Y-46907D01*
X57144Y-46736D01*
X57013Y-46606D01*
X56842Y-46535D01*
X56657Y-46534D01*
X56486Y-46605D01*
X56356Y-46736D01*
X56285Y-46907D01*
X56284Y-47092D01*
X56355Y-47263D01*
X56486Y-47393D01*
X56657Y-47464D01*
X56842Y-47465D01*
X57013Y-47394D01*
X57143Y-47263D01*
X57214Y-47092D01*
X57215Y-46907D01*
X57215Y-47752D01*
X57197Y-47735D01*
X57142Y-47712D01*
X57082Y-47712D01*
X56806Y-47712D01*
X56751Y-47735D01*
X56709Y-47777D01*
X56686Y-47832D01*
X56686Y-47892D01*
X56686Y-48167D01*
X56700Y-48200D01*
X55799Y-48200D01*
X55813Y-48167D01*
X55813Y-48107D01*
X55813Y-47995D01*
X55891Y-47917D01*
X55934Y-47852D01*
X55950Y-47775D01*
X55950Y-47420D01*
X56013Y-47394D01*
X56143Y-47263D01*
X56214Y-47092D01*
X56215Y-46907D01*
X56144Y-46736D01*
X56013Y-46606D01*
X55842Y-46535D01*
X55657Y-46534D01*
X55486Y-46605D01*
X55356Y-46736D01*
X55285Y-46907D01*
X55284Y-47092D01*
X55355Y-47263D01*
X55486Y-47393D01*
X55550Y-47420D01*
X55550Y-47692D01*
X55530Y-47712D01*
X55357Y-47712D01*
X55302Y-47735D01*
X55260Y-47777D01*
X55250Y-47802D01*
X55239Y-47777D01*
X55215Y-47752D01*
X55215Y-46907D01*
X55144Y-46736D01*
X55013Y-46606D01*
X54842Y-46535D01*
X54657Y-46534D01*
X54486Y-46605D01*
X54356Y-46736D01*
X54285Y-46907D01*
X54284Y-47092D01*
X54355Y-47263D01*
X54486Y-47393D01*
X54657Y-47464D01*
X54842Y-47465D01*
X55013Y-47394D01*
X55143Y-47263D01*
X55214Y-47092D01*
X55215Y-46907D01*
X55215Y-47752D01*
X55197Y-47735D01*
X55142Y-47712D01*
X55082Y-47712D01*
X54806Y-47712D01*
X54751Y-47735D01*
X54709Y-47777D01*
X54686Y-47832D01*
X54686Y-47892D01*
X54686Y-48167D01*
X54700Y-48200D01*
X53799Y-48200D01*
X53813Y-48167D01*
X53813Y-48107D01*
X53813Y-47995D01*
X53891Y-47917D01*
X53934Y-47852D01*
X53950Y-47775D01*
X53950Y-47420D01*
X54013Y-47394D01*
X54143Y-47263D01*
X54214Y-47092D01*
X54215Y-46907D01*
X54144Y-46736D01*
X54013Y-46606D01*
X53842Y-46535D01*
X53657Y-46534D01*
X53486Y-46605D01*
X53356Y-46736D01*
X53285Y-46907D01*
X53284Y-47092D01*
X53355Y-47263D01*
X53486Y-47393D01*
X53550Y-47420D01*
X53550Y-47692D01*
X53530Y-47712D01*
X53357Y-47712D01*
X53302Y-47735D01*
X53260Y-47777D01*
X53250Y-47802D01*
X53239Y-47777D01*
X53215Y-47752D01*
X53215Y-46907D01*
X53144Y-46736D01*
X53013Y-46606D01*
X52842Y-46535D01*
X52657Y-46534D01*
X52486Y-46605D01*
X52356Y-46736D01*
X52285Y-46907D01*
X52284Y-47092D01*
X52355Y-47263D01*
X52486Y-47393D01*
X52657Y-47464D01*
X52842Y-47465D01*
X53013Y-47394D01*
X53143Y-47263D01*
X53214Y-47092D01*
X53215Y-46907D01*
X53215Y-47752D01*
X53197Y-47735D01*
X53142Y-47712D01*
X53082Y-47712D01*
X52806Y-47712D01*
X52751Y-47735D01*
X52709Y-47777D01*
X52686Y-47832D01*
X52686Y-47892D01*
X52686Y-48167D01*
X52700Y-48200D01*
X51799Y-48200D01*
X51813Y-48167D01*
X51813Y-48107D01*
X51813Y-47995D01*
X51891Y-47917D01*
X51934Y-47852D01*
X51950Y-47775D01*
X51950Y-47420D01*
X52013Y-47394D01*
X52143Y-47263D01*
X52214Y-47092D01*
X52215Y-46907D01*
X52144Y-46736D01*
X52013Y-46606D01*
X51842Y-46535D01*
X51657Y-46534D01*
X51486Y-46605D01*
X51356Y-46736D01*
X51285Y-46907D01*
X51284Y-47092D01*
X51355Y-47263D01*
X51486Y-47393D01*
X51550Y-47420D01*
X51550Y-47692D01*
X51530Y-47712D01*
X51357Y-47712D01*
X51302Y-47735D01*
X51260Y-47777D01*
X51250Y-47802D01*
X51239Y-47777D01*
X51215Y-47752D01*
X51215Y-46907D01*
X51144Y-46736D01*
X51013Y-46606D01*
X50842Y-46535D01*
X50657Y-46534D01*
X50486Y-46605D01*
X50356Y-46736D01*
X50285Y-46907D01*
X50284Y-47092D01*
X50355Y-47263D01*
X50486Y-47393D01*
X50657Y-47464D01*
X50842Y-47465D01*
X51013Y-47394D01*
X51143Y-47263D01*
X51214Y-47092D01*
X51215Y-46907D01*
X51215Y-47752D01*
X51197Y-47735D01*
X51142Y-47712D01*
X51082Y-47712D01*
X50806Y-47712D01*
X50751Y-47735D01*
X50709Y-47777D01*
X50686Y-47832D01*
X50686Y-47892D01*
X50686Y-48167D01*
X50700Y-48200D01*
X49799Y-48200D01*
X49813Y-48167D01*
X49813Y-48107D01*
X49813Y-47995D01*
X49891Y-47917D01*
X49934Y-47852D01*
X49950Y-47775D01*
X49950Y-47420D01*
X50013Y-47394D01*
X50143Y-47263D01*
X50214Y-47092D01*
X50215Y-46907D01*
X50144Y-46736D01*
X50013Y-46606D01*
X49842Y-46535D01*
X49657Y-46534D01*
X49486Y-46605D01*
X49356Y-46736D01*
X49285Y-46907D01*
X49284Y-47092D01*
X49355Y-47263D01*
X49486Y-47393D01*
X49550Y-47420D01*
X49550Y-47692D01*
X49530Y-47712D01*
X49357Y-47712D01*
X49302Y-47735D01*
X49260Y-47777D01*
X49250Y-47802D01*
X49239Y-47777D01*
X49215Y-47752D01*
X49215Y-46907D01*
X49144Y-46736D01*
X49013Y-46606D01*
X48842Y-46535D01*
X48657Y-46534D01*
X48486Y-46605D01*
X48356Y-46736D01*
X48285Y-46907D01*
X48284Y-47092D01*
X48355Y-47263D01*
X48486Y-47393D01*
X48657Y-47464D01*
X48842Y-47465D01*
X49013Y-47394D01*
X49143Y-47263D01*
X49214Y-47092D01*
X49215Y-46907D01*
X49215Y-47752D01*
X49197Y-47735D01*
X49142Y-47712D01*
X49082Y-47712D01*
X48806Y-47712D01*
X48751Y-47735D01*
X48709Y-47777D01*
X48686Y-47832D01*
X48686Y-47892D01*
X48686Y-48167D01*
X48699Y-48198D01*
X47800Y-48198D01*
X47813Y-48167D01*
X47813Y-48107D01*
X47813Y-47995D01*
X47891Y-47917D01*
X47934Y-47852D01*
X47950Y-47775D01*
X47950Y-47420D01*
X48013Y-47394D01*
X48143Y-47263D01*
X48214Y-47092D01*
X48215Y-46907D01*
X48144Y-46736D01*
X48013Y-46606D01*
X47842Y-46535D01*
X47657Y-46534D01*
X47486Y-46605D01*
X47356Y-46736D01*
X47285Y-46907D01*
X47284Y-47092D01*
X47355Y-47263D01*
X47486Y-47393D01*
X47550Y-47420D01*
X47550Y-47692D01*
X47530Y-47712D01*
X47357Y-47712D01*
X47302Y-47735D01*
X47260Y-47777D01*
X47250Y-47802D01*
X47239Y-47777D01*
X47197Y-47735D01*
X47142Y-47712D01*
X47082Y-47712D01*
X46806Y-47712D01*
X46763Y-47730D01*
X46549Y-47517D01*
X46550Y-47440D01*
X46539Y-47416D01*
X46657Y-47464D01*
X46842Y-47465D01*
X47013Y-47394D01*
X47143Y-47263D01*
X47214Y-47092D01*
X47215Y-46907D01*
X47144Y-46736D01*
X47013Y-46606D01*
X46842Y-46535D01*
X46657Y-46534D01*
X46486Y-46605D01*
X46356Y-46736D01*
X46285Y-46907D01*
X46284Y-47092D01*
X46333Y-47209D01*
X46309Y-47200D01*
X46190Y-47199D01*
X46166Y-47210D01*
X46214Y-47092D01*
X46215Y-46907D01*
X46144Y-46736D01*
X46013Y-46606D01*
X45842Y-46535D01*
X45657Y-46534D01*
X45486Y-46605D01*
X45440Y-46652D01*
X45434Y-46623D01*
X45434Y-46623D01*
X45420Y-46601D01*
X45391Y-46558D01*
X45391Y-46558D01*
X45181Y-46348D01*
X46850Y-46348D01*
X46926Y-46333D01*
X46974Y-46301D01*
X46974Y-46301D01*
X47023Y-46334D01*
X47023Y-46334D01*
X47100Y-46350D01*
X48848Y-46350D01*
X48925Y-46334D01*
X48974Y-46301D01*
X48974Y-46301D01*
X49023Y-46334D01*
X49023Y-46334D01*
X49100Y-46350D01*
X50848Y-46350D01*
X50925Y-46334D01*
X50974Y-46301D01*
X51000Y-46319D01*
X51022Y-46333D01*
X51022Y-46333D01*
X51098Y-46348D01*
X52850Y-46348D01*
X52926Y-46333D01*
X52974Y-46301D01*
X52974Y-46301D01*
X53023Y-46334D01*
X53023Y-46334D01*
X53100Y-46350D01*
X54848Y-46350D01*
X54925Y-46334D01*
X54974Y-46301D01*
X54974Y-46301D01*
X55023Y-46334D01*
X55023Y-46334D01*
X55100Y-46350D01*
X56850Y-46350D01*
X56926Y-46334D01*
X56991Y-46291D01*
X57115Y-46167D01*
X57115Y-46167D01*
X57144Y-46123D01*
X57159Y-46102D01*
X57159Y-46102D01*
X57174Y-46025D01*
X57174Y-46025D01*
X57174Y-46024D01*
X57197Y-46014D01*
X57239Y-45972D01*
X57249Y-45947D01*
X57260Y-45972D01*
X57302Y-46014D01*
X57357Y-46037D01*
X57417Y-46037D01*
X57693Y-46037D01*
X57748Y-46014D01*
X57790Y-45972D01*
X57813Y-45917D01*
X57813Y-45857D01*
X57813Y-45745D01*
X57891Y-45667D01*
X57934Y-45602D01*
X57950Y-45525D01*
X57950Y-45170D01*
X58013Y-45144D01*
X58143Y-45013D01*
X58214Y-44842D01*
X58215Y-44657D01*
X58144Y-44486D01*
X58013Y-44356D01*
X57842Y-44285D01*
X57657Y-44284D01*
X57486Y-44355D01*
X57356Y-44486D01*
X57285Y-44657D01*
X57284Y-44842D01*
X57355Y-45013D01*
X57486Y-45143D01*
X57550Y-45170D01*
X57550Y-45442D01*
X57530Y-45462D01*
X57357Y-45462D01*
X57302Y-45485D01*
X57260Y-45527D01*
X57250Y-45552D01*
X57239Y-45527D01*
X57197Y-45485D01*
X57142Y-45462D01*
X57082Y-45462D01*
X56806Y-45462D01*
X56751Y-45485D01*
X56709Y-45527D01*
X56686Y-45582D01*
X56686Y-45642D01*
X56686Y-45917D01*
X56700Y-45950D01*
X55799Y-45950D01*
X55813Y-45917D01*
X55813Y-45857D01*
X55813Y-45745D01*
X55891Y-45667D01*
X55934Y-45602D01*
X55950Y-45525D01*
X55950Y-45170D01*
X56013Y-45144D01*
X56143Y-45013D01*
X56214Y-44842D01*
X56215Y-44657D01*
X56144Y-44486D01*
X56013Y-44356D01*
X55842Y-44285D01*
X55657Y-44284D01*
X55486Y-44355D01*
X55356Y-44486D01*
X55285Y-44657D01*
X55284Y-44842D01*
X55355Y-45013D01*
X55486Y-45143D01*
X55550Y-45170D01*
X55550Y-45442D01*
X55530Y-45462D01*
X55357Y-45462D01*
X55302Y-45485D01*
X55260Y-45527D01*
X55250Y-45552D01*
X55239Y-45527D01*
X55197Y-45485D01*
X55142Y-45462D01*
X55082Y-45462D01*
X54806Y-45462D01*
X54751Y-45485D01*
X54709Y-45527D01*
X54686Y-45582D01*
X54686Y-45642D01*
X54686Y-45917D01*
X54700Y-45950D01*
X53799Y-45950D01*
X53813Y-45917D01*
X53813Y-45857D01*
X53813Y-45745D01*
X53891Y-45667D01*
X53934Y-45602D01*
X53950Y-45525D01*
X53950Y-45170D01*
X54013Y-45144D01*
X54143Y-45013D01*
X54214Y-44842D01*
X54215Y-44657D01*
X54144Y-44486D01*
X54013Y-44356D01*
X53842Y-44285D01*
X53657Y-44284D01*
X53486Y-44355D01*
X53356Y-44486D01*
X53285Y-44657D01*
X53284Y-44842D01*
X53355Y-45013D01*
X53486Y-45143D01*
X53550Y-45170D01*
X53550Y-45442D01*
X53530Y-45462D01*
X53357Y-45462D01*
X53302Y-45485D01*
X53260Y-45527D01*
X53250Y-45552D01*
X53239Y-45527D01*
X53197Y-45485D01*
X53142Y-45462D01*
X53082Y-45462D01*
X52806Y-45462D01*
X52751Y-45485D01*
X52709Y-45527D01*
X52686Y-45582D01*
X52686Y-45642D01*
X52686Y-45917D01*
X52699Y-45948D01*
X51800Y-45948D01*
X51813Y-45917D01*
X51813Y-45857D01*
X51813Y-45745D01*
X51891Y-45667D01*
X51934Y-45602D01*
X51950Y-45525D01*
X51950Y-45170D01*
X52013Y-45144D01*
X52143Y-45013D01*
X52214Y-44842D01*
X52215Y-44657D01*
X52144Y-44486D01*
X52013Y-44356D01*
X51842Y-44285D01*
X51657Y-44284D01*
X51486Y-44355D01*
X51356Y-44486D01*
X51285Y-44657D01*
X51284Y-44842D01*
X51355Y-45013D01*
X51486Y-45143D01*
X51550Y-45170D01*
X51550Y-45442D01*
X51530Y-45462D01*
X51357Y-45462D01*
X51302Y-45485D01*
X51260Y-45527D01*
X51250Y-45552D01*
X51239Y-45527D01*
X51197Y-45485D01*
X51142Y-45462D01*
X51082Y-45462D01*
X50806Y-45462D01*
X50751Y-45485D01*
X50709Y-45527D01*
X50686Y-45582D01*
X50686Y-45642D01*
X50686Y-45917D01*
X50700Y-45950D01*
X49799Y-45950D01*
X49813Y-45917D01*
X49813Y-45857D01*
X49813Y-45745D01*
X49891Y-45667D01*
X49934Y-45602D01*
X49950Y-45525D01*
X49950Y-45170D01*
X50013Y-45144D01*
X50143Y-45013D01*
X50214Y-44842D01*
X50215Y-44657D01*
X50144Y-44486D01*
X50013Y-44356D01*
X49842Y-44285D01*
X49657Y-44284D01*
X49486Y-44355D01*
X49356Y-44486D01*
X49285Y-44657D01*
X49284Y-44842D01*
X49355Y-45013D01*
X49486Y-45143D01*
X49550Y-45170D01*
X49550Y-45442D01*
X49530Y-45462D01*
X49357Y-45462D01*
X49302Y-45485D01*
X49260Y-45527D01*
X49250Y-45552D01*
X49239Y-45527D01*
X49197Y-45485D01*
X49142Y-45462D01*
X49082Y-45462D01*
X48806Y-45462D01*
X48751Y-45485D01*
X48709Y-45527D01*
X48702Y-45544D01*
X48450Y-45292D01*
X48450Y-45107D01*
X48486Y-45143D01*
X48657Y-45214D01*
X48842Y-45215D01*
X49013Y-45144D01*
X49143Y-45013D01*
X49214Y-44842D01*
X49215Y-44657D01*
X49188Y-44594D01*
X49391Y-44391D01*
X49434Y-44326D01*
X49434Y-44326D01*
X49437Y-44313D01*
X49444Y-44276D01*
X49462Y-44268D01*
X49505Y-44226D01*
X49527Y-44171D01*
X49527Y-44111D01*
X49527Y-43700D01*
X50800Y-43700D01*
X50875Y-43684D01*
X50875Y-43684D01*
X50888Y-43687D01*
X50951Y-43700D01*
X50972Y-43700D01*
X50972Y-43754D01*
X50972Y-44171D01*
X50993Y-44223D01*
X50905Y-44311D01*
X50842Y-44285D01*
X50657Y-44284D01*
X50486Y-44355D01*
X50356Y-44486D01*
X50285Y-44657D01*
X50284Y-44842D01*
X50355Y-45013D01*
X50486Y-45143D01*
X50657Y-45214D01*
X50842Y-45215D01*
X51013Y-45144D01*
X51143Y-45013D01*
X51214Y-44842D01*
X51215Y-44657D01*
X51188Y-44594D01*
X51391Y-44391D01*
X51434Y-44326D01*
X51434Y-44326D01*
X51437Y-44313D01*
X51444Y-44276D01*
X51462Y-44268D01*
X51505Y-44226D01*
X51527Y-44171D01*
X51527Y-44111D01*
X51527Y-43700D01*
X52800Y-43700D01*
X52875Y-43684D01*
X52875Y-43684D01*
X52888Y-43687D01*
X52951Y-43700D01*
X52972Y-43700D01*
X52972Y-43754D01*
X52972Y-44171D01*
X52993Y-44223D01*
X52905Y-44311D01*
X52842Y-44285D01*
X52657Y-44284D01*
X52486Y-44355D01*
X52356Y-44486D01*
X52285Y-44657D01*
X52284Y-44842D01*
X52355Y-45013D01*
X52486Y-45143D01*
X52657Y-45214D01*
X52842Y-45215D01*
X53013Y-45144D01*
X53143Y-45013D01*
X53214Y-44842D01*
X53215Y-44657D01*
X53188Y-44594D01*
X53391Y-44391D01*
X53434Y-44326D01*
X53434Y-44326D01*
X53437Y-44313D01*
X53444Y-44276D01*
X53462Y-44268D01*
X53505Y-44226D01*
X53527Y-44171D01*
X53527Y-44111D01*
X53527Y-43700D01*
X54800Y-43700D01*
X54875Y-43684D01*
X54875Y-43684D01*
X54888Y-43687D01*
X54951Y-43700D01*
X54972Y-43700D01*
X54972Y-43754D01*
X54972Y-44171D01*
X54993Y-44223D01*
X54905Y-44311D01*
X54842Y-44285D01*
X54657Y-44284D01*
X54486Y-44355D01*
X54356Y-44486D01*
X54285Y-44657D01*
X54284Y-44842D01*
X54355Y-45013D01*
X54486Y-45143D01*
X54657Y-45214D01*
X54842Y-45215D01*
X55013Y-45144D01*
X55143Y-45013D01*
X55214Y-44842D01*
X55215Y-44657D01*
X55188Y-44594D01*
X55391Y-44391D01*
X55434Y-44326D01*
X55434Y-44326D01*
X55437Y-44313D01*
X55444Y-44276D01*
X55462Y-44268D01*
X55505Y-44226D01*
X55527Y-44171D01*
X55527Y-44111D01*
X55527Y-43700D01*
X56800Y-43700D01*
X56972Y-43700D01*
X56972Y-43754D01*
X56972Y-44171D01*
X56993Y-44223D01*
X56905Y-44311D01*
X56842Y-44285D01*
X56657Y-44284D01*
X56486Y-44355D01*
X56356Y-44486D01*
X56285Y-44657D01*
X56284Y-44842D01*
X56355Y-45013D01*
X56486Y-45143D01*
X56657Y-45214D01*
X56842Y-45215D01*
X57013Y-45144D01*
X57143Y-45013D01*
X57214Y-44842D01*
X57215Y-44657D01*
X57188Y-44594D01*
X57391Y-44391D01*
X57434Y-44326D01*
X57434Y-44326D01*
X57437Y-44313D01*
X57444Y-44276D01*
X57462Y-44268D01*
X57505Y-44226D01*
X57527Y-44171D01*
X57527Y-44111D01*
X57527Y-43852D01*
X57579Y-43904D01*
X57690Y-43949D01*
X57809Y-43950D01*
X57919Y-43904D01*
X58004Y-43820D01*
X58049Y-43709D01*
X58050Y-43590D01*
X58004Y-43480D01*
X57920Y-43395D01*
X57866Y-43373D01*
X57879Y-43360D01*
X57901Y-43305D01*
X57901Y-43245D01*
X57901Y-42828D01*
X57901Y-39171D01*
X57901Y-38995D01*
X57901Y-38870D01*
X57901Y-38694D01*
X57879Y-38639D01*
X57836Y-38597D01*
X57781Y-38574D01*
X57722Y-38574D01*
X57686Y-38574D01*
X57649Y-38611D01*
X57649Y-38908D01*
X57864Y-38908D01*
X57901Y-38870D01*
X57901Y-38995D01*
X57864Y-38958D01*
X57649Y-38958D01*
X57649Y-39254D01*
X57686Y-39291D01*
X57722Y-39291D01*
X57781Y-39291D01*
X57836Y-39268D01*
X57879Y-39226D01*
X57901Y-39171D01*
X57901Y-42828D01*
X57879Y-42773D01*
X57836Y-42731D01*
X57805Y-42718D01*
X57765Y-42657D01*
X57641Y-42533D01*
X57599Y-42505D01*
X57599Y-39254D01*
X57599Y-38958D01*
X57599Y-38908D01*
X57599Y-38611D01*
X57561Y-38574D01*
X57525Y-38574D01*
X57466Y-38574D01*
X57411Y-38597D01*
X57368Y-38639D01*
X57346Y-38694D01*
X57346Y-38870D01*
X57383Y-38908D01*
X57599Y-38908D01*
X57599Y-38958D01*
X57383Y-38958D01*
X57346Y-38995D01*
X57346Y-39171D01*
X57368Y-39226D01*
X57411Y-39268D01*
X57466Y-39291D01*
X57525Y-39291D01*
X57561Y-39291D01*
X57599Y-39254D01*
X57599Y-42505D01*
X57576Y-42490D01*
X57500Y-42475D01*
X55982Y-42475D01*
X55957Y-42450D01*
X56350Y-42450D01*
X56425Y-42450D01*
X56907Y-42450D01*
X56984Y-42434D01*
X57049Y-42391D01*
X57516Y-41924D01*
X57559Y-41859D01*
X57575Y-41782D01*
X57575Y-41175D01*
X57559Y-41098D01*
X57559Y-41098D01*
X57516Y-41033D01*
X57466Y-40983D01*
X57466Y-40983D01*
X57100Y-40617D01*
X57100Y-39257D01*
X57131Y-39226D01*
X57153Y-39171D01*
X57153Y-39111D01*
X57153Y-38694D01*
X57131Y-38639D01*
X57088Y-38597D01*
X57033Y-38574D01*
X56974Y-38574D01*
X56718Y-38574D01*
X56663Y-38597D01*
X56620Y-38639D01*
X56598Y-38694D01*
X56598Y-38754D01*
X56598Y-39171D01*
X56620Y-39226D01*
X56663Y-39268D01*
X56700Y-39284D01*
X56700Y-39667D01*
X56391Y-39358D01*
X56326Y-39315D01*
X56250Y-39300D01*
X55901Y-39300D01*
X55901Y-39171D01*
X55901Y-38995D01*
X55901Y-38870D01*
X55901Y-38694D01*
X55879Y-38639D01*
X55836Y-38597D01*
X55781Y-38574D01*
X55722Y-38574D01*
X55686Y-38574D01*
X55649Y-38611D01*
X55649Y-38908D01*
X55864Y-38908D01*
X55901Y-38870D01*
X55901Y-38995D01*
X55864Y-38958D01*
X55649Y-38958D01*
X55649Y-39254D01*
X55686Y-39291D01*
X55722Y-39291D01*
X55781Y-39291D01*
X55836Y-39268D01*
X55879Y-39226D01*
X55901Y-39171D01*
X55901Y-39300D01*
X55525Y-39300D01*
X55517Y-39291D01*
X55525Y-39291D01*
X55561Y-39291D01*
X55599Y-39254D01*
X55599Y-38958D01*
X55599Y-38908D01*
X55599Y-38611D01*
X55561Y-38574D01*
X55525Y-38574D01*
X55466Y-38574D01*
X55411Y-38597D01*
X55368Y-38639D01*
X55346Y-38694D01*
X55346Y-38870D01*
X55383Y-38908D01*
X55599Y-38908D01*
X55599Y-38958D01*
X55383Y-38958D01*
X55346Y-38995D01*
X55346Y-39120D01*
X55153Y-38928D01*
X55153Y-38694D01*
X55131Y-38639D01*
X55088Y-38597D01*
X55033Y-38574D01*
X54974Y-38574D01*
X54718Y-38574D01*
X54663Y-38597D01*
X54620Y-38639D01*
X54598Y-38694D01*
X54598Y-38754D01*
X54598Y-39171D01*
X54620Y-39226D01*
X54663Y-39268D01*
X54718Y-39291D01*
X54777Y-39291D01*
X54951Y-39291D01*
X55234Y-39574D01*
X55183Y-39608D01*
X54792Y-40000D01*
X54507Y-40000D01*
X53966Y-39458D01*
X53901Y-39415D01*
X53901Y-39171D01*
X53901Y-38995D01*
X53901Y-38870D01*
X53901Y-38694D01*
X53879Y-38639D01*
X53836Y-38597D01*
X53781Y-38574D01*
X53722Y-38574D01*
X53686Y-38574D01*
X53649Y-38611D01*
X53649Y-38908D01*
X53864Y-38908D01*
X53901Y-38870D01*
X53901Y-38995D01*
X53864Y-38958D01*
X53649Y-38958D01*
X53649Y-39254D01*
X53686Y-39291D01*
X53722Y-39291D01*
X53781Y-39291D01*
X53836Y-39268D01*
X53879Y-39226D01*
X53901Y-39171D01*
X53901Y-39415D01*
X53901Y-39415D01*
X53825Y-39400D01*
X53599Y-39400D01*
X53599Y-39254D01*
X53599Y-38958D01*
X53599Y-38908D01*
X53599Y-38611D01*
X53561Y-38574D01*
X53525Y-38574D01*
X53466Y-38574D01*
X53411Y-38597D01*
X53368Y-38639D01*
X53346Y-38694D01*
X53346Y-38870D01*
X53383Y-38908D01*
X53599Y-38908D01*
X53599Y-38958D01*
X53383Y-38958D01*
X53346Y-38995D01*
X53346Y-39171D01*
X53368Y-39226D01*
X53411Y-39268D01*
X53466Y-39291D01*
X53525Y-39291D01*
X53561Y-39291D01*
X53599Y-39254D01*
X53599Y-39400D01*
X53332Y-39400D01*
X53191Y-39258D01*
X53191Y-39258D01*
X53191Y-39258D01*
X53139Y-39206D01*
X53153Y-39171D01*
X53153Y-39111D01*
X53153Y-38694D01*
X53131Y-38639D01*
X53088Y-38597D01*
X53033Y-38574D01*
X52974Y-38574D01*
X52718Y-38574D01*
X52663Y-38597D01*
X52620Y-38639D01*
X52598Y-38694D01*
X52598Y-38754D01*
X52598Y-39171D01*
X52609Y-39200D01*
X51890Y-39200D01*
X51901Y-39171D01*
X51901Y-38995D01*
X51901Y-38870D01*
X51901Y-38694D01*
X51879Y-38639D01*
X51836Y-38597D01*
X51781Y-38574D01*
X51722Y-38574D01*
X51686Y-38574D01*
X51649Y-38611D01*
X51649Y-38908D01*
X51864Y-38908D01*
X51901Y-38870D01*
X51901Y-38995D01*
X51864Y-38958D01*
X51649Y-38958D01*
X51649Y-38965D01*
X51599Y-38965D01*
X51599Y-38958D01*
X51591Y-38958D01*
X51591Y-38908D01*
X51599Y-38908D01*
X51599Y-38611D01*
X51561Y-38574D01*
X51525Y-38574D01*
X51466Y-38574D01*
X51435Y-38587D01*
X51416Y-38558D01*
X51416Y-38558D01*
X51283Y-38425D01*
X51407Y-38425D01*
X51462Y-38402D01*
X51505Y-38360D01*
X51527Y-38305D01*
X51527Y-38245D01*
X51527Y-37828D01*
X51505Y-37773D01*
X51462Y-37731D01*
X51450Y-37725D01*
X51450Y-37607D01*
X51486Y-37643D01*
X51657Y-37714D01*
X51842Y-37715D01*
X52013Y-37644D01*
X52143Y-37513D01*
X52214Y-37342D01*
X52215Y-37157D01*
X52166Y-37040D01*
X52190Y-37049D01*
X52309Y-37050D01*
X52333Y-37039D01*
X52285Y-37157D01*
X52284Y-37342D01*
X52355Y-37513D01*
X52486Y-37643D01*
X52657Y-37714D01*
X52842Y-37715D01*
X53013Y-37644D01*
X53050Y-37607D01*
X53050Y-37725D01*
X53037Y-37731D01*
X52994Y-37773D01*
X52972Y-37828D01*
X52972Y-37888D01*
X52972Y-38305D01*
X52994Y-38360D01*
X53037Y-38402D01*
X53092Y-38425D01*
X53151Y-38425D01*
X53407Y-38425D01*
X53462Y-38402D01*
X53505Y-38360D01*
X53527Y-38305D01*
X53527Y-38245D01*
X53527Y-37828D01*
X53505Y-37773D01*
X53462Y-37731D01*
X53450Y-37725D01*
X53450Y-37607D01*
X53486Y-37643D01*
X53657Y-37714D01*
X53842Y-37715D01*
X54013Y-37644D01*
X54143Y-37513D01*
X54214Y-37342D01*
X54215Y-37157D01*
X54166Y-37040D01*
X54190Y-37049D01*
X54309Y-37050D01*
X54333Y-37039D01*
X54285Y-37157D01*
X54284Y-37342D01*
X54355Y-37513D01*
X54486Y-37643D01*
X54657Y-37714D01*
X54842Y-37715D01*
X55013Y-37644D01*
X55050Y-37607D01*
X55050Y-37725D01*
X55037Y-37731D01*
X54994Y-37773D01*
X54972Y-37828D01*
X54972Y-37888D01*
X54972Y-38305D01*
X54994Y-38360D01*
X55037Y-38402D01*
X55092Y-38425D01*
X55151Y-38425D01*
X55407Y-38425D01*
X55462Y-38402D01*
X55505Y-38360D01*
X55527Y-38305D01*
X55527Y-38245D01*
X55527Y-37828D01*
X55505Y-37773D01*
X55462Y-37731D01*
X55450Y-37725D01*
X55450Y-37607D01*
X55486Y-37643D01*
X55657Y-37714D01*
X55842Y-37715D01*
X56013Y-37644D01*
X56143Y-37513D01*
X56214Y-37342D01*
X56215Y-37157D01*
X56166Y-37040D01*
X56190Y-37049D01*
X56309Y-37050D01*
X56333Y-37039D01*
X56285Y-37157D01*
X56284Y-37342D01*
X56355Y-37513D01*
X56486Y-37643D01*
X56657Y-37714D01*
X56842Y-37715D01*
X57013Y-37644D01*
X57050Y-37607D01*
X57050Y-37725D01*
X57037Y-37731D01*
X56994Y-37773D01*
X56972Y-37828D01*
X56972Y-37888D01*
X56972Y-38305D01*
X56994Y-38360D01*
X57037Y-38402D01*
X57092Y-38425D01*
X57151Y-38425D01*
X57407Y-38425D01*
X57462Y-38402D01*
X57505Y-38360D01*
X57527Y-38305D01*
X57527Y-38245D01*
X57527Y-37828D01*
X57505Y-37773D01*
X57462Y-37731D01*
X57450Y-37725D01*
X57450Y-37607D01*
X57486Y-37643D01*
X57657Y-37714D01*
X57842Y-37715D01*
X58013Y-37644D01*
X58143Y-37513D01*
X58214Y-37342D01*
X58215Y-37157D01*
X58215Y-34907D01*
X58215Y-32657D01*
X58144Y-32486D01*
X58013Y-32356D01*
X57950Y-32329D01*
X57950Y-31974D01*
X57934Y-31897D01*
X57891Y-31832D01*
X57813Y-31754D01*
X57813Y-31582D01*
X57790Y-31527D01*
X57748Y-31485D01*
X57693Y-31462D01*
X57633Y-31462D01*
X57357Y-31462D01*
X57302Y-31485D01*
X57260Y-31527D01*
X57250Y-31552D01*
X57239Y-31527D01*
X57197Y-31485D01*
X57174Y-31475D01*
X57174Y-31474D01*
X57159Y-31397D01*
X57159Y-31397D01*
X57144Y-31376D01*
X57115Y-31332D01*
X57115Y-31332D01*
X56991Y-31208D01*
X56926Y-31165D01*
X56850Y-31150D01*
X56512Y-31150D01*
X56549Y-31059D01*
X56550Y-30940D01*
X56539Y-30916D01*
X56657Y-30964D01*
X56842Y-30965D01*
X57013Y-30894D01*
X57143Y-30763D01*
X57214Y-30592D01*
X57215Y-30407D01*
X57144Y-30236D01*
X57013Y-30106D01*
X56842Y-30035D01*
X56657Y-30034D01*
X56486Y-30105D01*
X56450Y-30142D01*
X56450Y-29882D01*
X56632Y-29700D01*
X56700Y-29700D01*
X56709Y-29722D01*
X56751Y-29764D01*
X56806Y-29787D01*
X56866Y-29787D01*
X57142Y-29787D01*
X57197Y-29764D01*
X57239Y-29722D01*
X57249Y-29697D01*
X57260Y-29722D01*
X57302Y-29764D01*
X57357Y-29787D01*
X57417Y-29787D01*
X57530Y-29787D01*
X57550Y-29807D01*
X57550Y-30079D01*
X57486Y-30105D01*
X57356Y-30236D01*
X57285Y-30407D01*
X57284Y-30592D01*
X57355Y-30763D01*
X57486Y-30893D01*
X57657Y-30964D01*
X57842Y-30965D01*
X58013Y-30894D01*
X58143Y-30763D01*
X58214Y-30592D01*
X58215Y-30407D01*
X58144Y-30236D01*
X58013Y-30106D01*
X57950Y-30079D01*
X57950Y-29724D01*
X57934Y-29647D01*
X57891Y-29582D01*
X57813Y-29504D01*
X57813Y-29332D01*
X57790Y-29277D01*
X57748Y-29235D01*
X57693Y-29212D01*
X57633Y-29212D01*
X57357Y-29212D01*
X57302Y-29235D01*
X57260Y-29277D01*
X57250Y-29302D01*
X57239Y-29277D01*
X57197Y-29235D01*
X57142Y-29212D01*
X57082Y-29212D01*
X56806Y-29212D01*
X56751Y-29235D01*
X56709Y-29277D01*
X56700Y-29300D01*
X56550Y-29300D01*
X56473Y-29315D01*
X56408Y-29358D01*
X56108Y-29658D01*
X56065Y-29723D01*
X56050Y-29800D01*
X56050Y-30142D01*
X56013Y-30106D01*
X55950Y-30079D01*
X55950Y-29724D01*
X55934Y-29647D01*
X55891Y-29582D01*
X55813Y-29504D01*
X55813Y-29332D01*
X55790Y-29277D01*
X55748Y-29235D01*
X55693Y-29212D01*
X55633Y-29212D01*
X55357Y-29212D01*
X55302Y-29235D01*
X55260Y-29277D01*
X55250Y-29302D01*
X55239Y-29277D01*
X55197Y-29235D01*
X55142Y-29212D01*
X55082Y-29212D01*
X54806Y-29212D01*
X54751Y-29235D01*
X54709Y-29277D01*
X54686Y-29332D01*
X54686Y-29392D01*
X54686Y-29667D01*
X54709Y-29722D01*
X54751Y-29764D01*
X54774Y-29774D01*
X54774Y-29774D01*
X54789Y-29850D01*
X54832Y-29915D01*
X55050Y-30132D01*
X55050Y-30142D01*
X55013Y-30106D01*
X54842Y-30035D01*
X54657Y-30034D01*
X54486Y-30105D01*
X54356Y-30236D01*
X54285Y-30407D01*
X54284Y-30592D01*
X54355Y-30763D01*
X54392Y-30800D01*
X54107Y-30800D01*
X54143Y-30763D01*
X54214Y-30592D01*
X54215Y-30407D01*
X54144Y-30236D01*
X54013Y-30106D01*
X53950Y-30079D01*
X53950Y-29724D01*
X53934Y-29647D01*
X53891Y-29582D01*
X53813Y-29504D01*
X53813Y-29332D01*
X53790Y-29277D01*
X53748Y-29235D01*
X53693Y-29212D01*
X53633Y-29212D01*
X53357Y-29212D01*
X53302Y-29235D01*
X53260Y-29277D01*
X53250Y-29302D01*
X53239Y-29277D01*
X53197Y-29235D01*
X53142Y-29212D01*
X53082Y-29212D01*
X52806Y-29212D01*
X52751Y-29235D01*
X52709Y-29277D01*
X52686Y-29332D01*
X52686Y-29392D01*
X52686Y-29667D01*
X52709Y-29722D01*
X52751Y-29764D01*
X52774Y-29774D01*
X52774Y-29774D01*
X52789Y-29850D01*
X52832Y-29915D01*
X53050Y-30132D01*
X53050Y-30142D01*
X53013Y-30106D01*
X52842Y-30035D01*
X52657Y-30034D01*
X52486Y-30105D01*
X52356Y-30236D01*
X52285Y-30407D01*
X52284Y-30592D01*
X52355Y-30763D01*
X52392Y-30800D01*
X52107Y-30800D01*
X52143Y-30763D01*
X52214Y-30592D01*
X52215Y-30407D01*
X52144Y-30236D01*
X52013Y-30106D01*
X51950Y-30079D01*
X51950Y-29724D01*
X51934Y-29647D01*
X51891Y-29582D01*
X51813Y-29504D01*
X51813Y-29332D01*
X51790Y-29277D01*
X51748Y-29235D01*
X51693Y-29212D01*
X51633Y-29212D01*
X51357Y-29212D01*
X51302Y-29235D01*
X51260Y-29277D01*
X51250Y-29302D01*
X51239Y-29277D01*
X51197Y-29235D01*
X51142Y-29212D01*
X51082Y-29212D01*
X50806Y-29212D01*
X50751Y-29235D01*
X50709Y-29277D01*
X50686Y-29332D01*
X50686Y-29392D01*
X50686Y-29667D01*
X50709Y-29722D01*
X50751Y-29764D01*
X50774Y-29774D01*
X50774Y-29774D01*
X50789Y-29850D01*
X50832Y-29915D01*
X51050Y-30132D01*
X51050Y-30142D01*
X51013Y-30106D01*
X50842Y-30035D01*
X50657Y-30034D01*
X50486Y-30105D01*
X50356Y-30236D01*
X50285Y-30407D01*
X50284Y-30592D01*
X50355Y-30763D01*
X50392Y-30800D01*
X50107Y-30800D01*
X50143Y-30763D01*
X50214Y-30592D01*
X50215Y-30407D01*
X50144Y-30236D01*
X50013Y-30106D01*
X49950Y-30079D01*
X49950Y-29724D01*
X49934Y-29647D01*
X49891Y-29582D01*
X49813Y-29504D01*
X49813Y-29332D01*
X49790Y-29277D01*
X49748Y-29235D01*
X49693Y-29212D01*
X49633Y-29212D01*
X49357Y-29212D01*
X49302Y-29235D01*
X49260Y-29277D01*
X49250Y-29302D01*
X49239Y-29277D01*
X49197Y-29235D01*
X49142Y-29212D01*
X49082Y-29212D01*
X48806Y-29212D01*
X48751Y-29235D01*
X48709Y-29277D01*
X48686Y-29332D01*
X48686Y-29392D01*
X48686Y-29667D01*
X48709Y-29722D01*
X48751Y-29764D01*
X48774Y-29774D01*
X48774Y-29774D01*
X48789Y-29850D01*
X48832Y-29915D01*
X49050Y-30132D01*
X49050Y-30142D01*
X49013Y-30106D01*
X48842Y-30035D01*
X48657Y-30034D01*
X48486Y-30105D01*
X48356Y-30236D01*
X48285Y-30407D01*
X48284Y-30592D01*
X48355Y-30763D01*
X48392Y-30800D01*
X48107Y-30800D01*
X48143Y-30763D01*
X48214Y-30592D01*
X48215Y-30407D01*
X48144Y-30236D01*
X48013Y-30106D01*
X47950Y-30079D01*
X47950Y-29724D01*
X47934Y-29647D01*
X47891Y-29582D01*
X47813Y-29504D01*
X47813Y-29332D01*
X47790Y-29277D01*
X47748Y-29235D01*
X47693Y-29212D01*
X47633Y-29212D01*
X47357Y-29212D01*
X47302Y-29235D01*
X47260Y-29277D01*
X47250Y-29302D01*
X47239Y-29277D01*
X47197Y-29235D01*
X47142Y-29212D01*
X47082Y-29212D01*
X46806Y-29212D01*
X46751Y-29235D01*
X46709Y-29277D01*
X46686Y-29332D01*
X46686Y-29392D01*
X46686Y-29667D01*
X46709Y-29722D01*
X46751Y-29764D01*
X46774Y-29774D01*
X46774Y-29774D01*
X46789Y-29850D01*
X46832Y-29915D01*
X47050Y-30132D01*
X47050Y-30142D01*
X47013Y-30106D01*
X46842Y-30035D01*
X46657Y-30034D01*
X46486Y-30105D01*
X46356Y-30236D01*
X46285Y-30407D01*
X46284Y-30592D01*
X46355Y-30763D01*
X46392Y-30800D01*
X46107Y-30800D01*
X46143Y-30763D01*
X46214Y-30592D01*
X46215Y-30407D01*
X46144Y-30236D01*
X46013Y-30106D01*
X45950Y-30079D01*
X45950Y-29724D01*
X45934Y-29647D01*
X45891Y-29582D01*
X45813Y-29504D01*
X45813Y-29332D01*
X45790Y-29277D01*
X45748Y-29235D01*
X45693Y-29212D01*
X45633Y-29212D01*
X45357Y-29212D01*
X45302Y-29235D01*
X45260Y-29277D01*
X45250Y-29302D01*
X45239Y-29277D01*
X45197Y-29235D01*
X45142Y-29212D01*
X45082Y-29212D01*
X44806Y-29212D01*
X44751Y-29235D01*
X44709Y-29277D01*
X44686Y-29332D01*
X44686Y-29392D01*
X44686Y-29667D01*
X44709Y-29722D01*
X44751Y-29764D01*
X44774Y-29774D01*
X44774Y-29774D01*
X44789Y-29850D01*
X44832Y-29915D01*
X45050Y-30132D01*
X45050Y-30142D01*
X45013Y-30106D01*
X44842Y-30035D01*
X44657Y-30034D01*
X44486Y-30105D01*
X44356Y-30236D01*
X44285Y-30407D01*
X44284Y-30592D01*
X44355Y-30763D01*
X44486Y-30893D01*
X44657Y-30964D01*
X44842Y-30965D01*
X45013Y-30894D01*
X45059Y-30847D01*
X45065Y-30876D01*
X45108Y-30941D01*
X45308Y-31141D01*
X45308Y-31141D01*
X45321Y-31150D01*
X45100Y-31150D01*
X45023Y-31165D01*
X44958Y-31208D01*
X44832Y-31334D01*
X44789Y-31399D01*
X44774Y-31475D01*
X44774Y-31475D01*
X44751Y-31485D01*
X44709Y-31527D01*
X44686Y-31582D01*
X44686Y-31642D01*
X44686Y-31917D01*
X44709Y-31972D01*
X44751Y-32014D01*
X44806Y-32037D01*
X44866Y-32037D01*
X45142Y-32037D01*
X45197Y-32014D01*
X45239Y-31972D01*
X45249Y-31947D01*
X45260Y-31972D01*
X45302Y-32014D01*
X45357Y-32037D01*
X45417Y-32037D01*
X45530Y-32037D01*
X45550Y-32057D01*
X45550Y-32329D01*
X45486Y-32355D01*
X45356Y-32486D01*
X45285Y-32657D01*
X45284Y-32842D01*
X45355Y-33013D01*
X45486Y-33143D01*
X45657Y-33214D01*
X45842Y-33215D01*
X46013Y-33144D01*
X46143Y-33013D01*
X46214Y-32842D01*
X46215Y-32657D01*
X46144Y-32486D01*
X46013Y-32356D01*
X45950Y-32329D01*
X45950Y-31974D01*
X45934Y-31897D01*
X45891Y-31832D01*
X45813Y-31754D01*
X45813Y-31582D01*
X45799Y-31550D01*
X46700Y-31550D01*
X46686Y-31582D01*
X46686Y-31642D01*
X46686Y-31917D01*
X46709Y-31972D01*
X46751Y-32014D01*
X46806Y-32037D01*
X46866Y-32037D01*
X47142Y-32037D01*
X47197Y-32014D01*
X47239Y-31972D01*
X47249Y-31947D01*
X47260Y-31972D01*
X47302Y-32014D01*
X47357Y-32037D01*
X47417Y-32037D01*
X47530Y-32037D01*
X47550Y-32057D01*
X47550Y-32329D01*
X47486Y-32355D01*
X47356Y-32486D01*
X47285Y-32657D01*
X47284Y-32842D01*
X47355Y-33013D01*
X47486Y-33143D01*
X47657Y-33214D01*
X47842Y-33215D01*
X48013Y-33144D01*
X48143Y-33013D01*
X48214Y-32842D01*
X48215Y-32657D01*
X48144Y-32486D01*
X48013Y-32356D01*
X47950Y-32329D01*
X47950Y-31974D01*
X47934Y-31897D01*
X47891Y-31832D01*
X47813Y-31754D01*
X47813Y-31582D01*
X47799Y-31550D01*
X48700Y-31550D01*
X48686Y-31582D01*
X48686Y-31642D01*
X48686Y-31917D01*
X48709Y-31972D01*
X48751Y-32014D01*
X48806Y-32037D01*
X48866Y-32037D01*
X49142Y-32037D01*
X49197Y-32014D01*
X49239Y-31972D01*
X49249Y-31947D01*
X49260Y-31972D01*
X49302Y-32014D01*
X49357Y-32037D01*
X49417Y-32037D01*
X49530Y-32037D01*
X49550Y-32057D01*
X49550Y-32329D01*
X49486Y-32355D01*
X49356Y-32486D01*
X49285Y-32657D01*
X49284Y-32842D01*
X49355Y-33013D01*
X49486Y-33143D01*
X49657Y-33214D01*
X49842Y-33215D01*
X50013Y-33144D01*
X50143Y-33013D01*
X50214Y-32842D01*
X50215Y-32657D01*
X50144Y-32486D01*
X50013Y-32356D01*
X49950Y-32329D01*
X49950Y-31974D01*
X49934Y-31897D01*
X49891Y-31832D01*
X49813Y-31754D01*
X49813Y-31582D01*
X49799Y-31550D01*
X50700Y-31550D01*
X50686Y-31582D01*
X50686Y-31642D01*
X50686Y-31917D01*
X50709Y-31972D01*
X50751Y-32014D01*
X50806Y-32037D01*
X50866Y-32037D01*
X51142Y-32037D01*
X51197Y-32014D01*
X51239Y-31972D01*
X51249Y-31947D01*
X51260Y-31972D01*
X51302Y-32014D01*
X51357Y-32037D01*
X51417Y-32037D01*
X51530Y-32037D01*
X51550Y-32057D01*
X51550Y-32329D01*
X51486Y-32355D01*
X51356Y-32486D01*
X51285Y-32657D01*
X51284Y-32842D01*
X51355Y-33013D01*
X51486Y-33143D01*
X51657Y-33214D01*
X51842Y-33215D01*
X52013Y-33144D01*
X52143Y-33013D01*
X52214Y-32842D01*
X52215Y-32657D01*
X52144Y-32486D01*
X52013Y-32356D01*
X51950Y-32329D01*
X51950Y-31974D01*
X51934Y-31897D01*
X51891Y-31832D01*
X51813Y-31754D01*
X51813Y-31582D01*
X51799Y-31550D01*
X52700Y-31550D01*
X52686Y-31582D01*
X52686Y-31642D01*
X52686Y-31917D01*
X52709Y-31972D01*
X52751Y-32014D01*
X52806Y-32037D01*
X52866Y-32037D01*
X53142Y-32037D01*
X53197Y-32014D01*
X53239Y-31972D01*
X53249Y-31947D01*
X53260Y-31972D01*
X53302Y-32014D01*
X53357Y-32037D01*
X53417Y-32037D01*
X53530Y-32037D01*
X53550Y-32057D01*
X53550Y-32329D01*
X53486Y-32355D01*
X53356Y-32486D01*
X53285Y-32657D01*
X53284Y-32842D01*
X53355Y-33013D01*
X53486Y-33143D01*
X53657Y-33214D01*
X53842Y-33215D01*
X54013Y-33144D01*
X54143Y-33013D01*
X54214Y-32842D01*
X54215Y-32657D01*
X54166Y-32540D01*
X54190Y-32549D01*
X54309Y-32550D01*
X54333Y-32539D01*
X54285Y-32657D01*
X54284Y-32842D01*
X54355Y-33013D01*
X54486Y-33143D01*
X54657Y-33214D01*
X54842Y-33215D01*
X55013Y-33144D01*
X55143Y-33013D01*
X55214Y-32842D01*
X55215Y-32657D01*
X55144Y-32486D01*
X55013Y-32356D01*
X54842Y-32285D01*
X54657Y-32284D01*
X54540Y-32333D01*
X54549Y-32309D01*
X54550Y-32232D01*
X54763Y-32019D01*
X54806Y-32037D01*
X54866Y-32037D01*
X55142Y-32037D01*
X55197Y-32014D01*
X55239Y-31972D01*
X55249Y-31947D01*
X55260Y-31972D01*
X55302Y-32014D01*
X55357Y-32037D01*
X55417Y-32037D01*
X55530Y-32037D01*
X55550Y-32057D01*
X55550Y-32329D01*
X55486Y-32355D01*
X55356Y-32486D01*
X55285Y-32657D01*
X55284Y-32842D01*
X55355Y-33013D01*
X55486Y-33143D01*
X55657Y-33214D01*
X55842Y-33215D01*
X56013Y-33144D01*
X56143Y-33013D01*
X56214Y-32842D01*
X56215Y-32657D01*
X56144Y-32486D01*
X56013Y-32356D01*
X55950Y-32329D01*
X55950Y-31974D01*
X55934Y-31897D01*
X55891Y-31832D01*
X55813Y-31754D01*
X55813Y-31582D01*
X55799Y-31550D01*
X56700Y-31550D01*
X56686Y-31582D01*
X56686Y-31642D01*
X56686Y-31917D01*
X56709Y-31972D01*
X56751Y-32014D01*
X56806Y-32037D01*
X56866Y-32037D01*
X57142Y-32037D01*
X57197Y-32014D01*
X57239Y-31972D01*
X57249Y-31947D01*
X57260Y-31972D01*
X57302Y-32014D01*
X57357Y-32037D01*
X57417Y-32037D01*
X57530Y-32037D01*
X57550Y-32057D01*
X57550Y-32329D01*
X57486Y-32355D01*
X57356Y-32486D01*
X57285Y-32657D01*
X57284Y-32842D01*
X57355Y-33013D01*
X57486Y-33143D01*
X57657Y-33214D01*
X57842Y-33215D01*
X58013Y-33144D01*
X58143Y-33013D01*
X58214Y-32842D01*
X58215Y-32657D01*
X58215Y-34907D01*
X58144Y-34736D01*
X58013Y-34606D01*
X57950Y-34579D01*
X57950Y-34224D01*
X57934Y-34147D01*
X57891Y-34082D01*
X57813Y-34004D01*
X57813Y-33832D01*
X57790Y-33777D01*
X57748Y-33735D01*
X57693Y-33712D01*
X57633Y-33712D01*
X57357Y-33712D01*
X57302Y-33735D01*
X57260Y-33777D01*
X57250Y-33802D01*
X57239Y-33777D01*
X57215Y-33752D01*
X57215Y-32657D01*
X57144Y-32486D01*
X57013Y-32356D01*
X56842Y-32285D01*
X56657Y-32284D01*
X56486Y-32355D01*
X56356Y-32486D01*
X56285Y-32657D01*
X56284Y-32842D01*
X56355Y-33013D01*
X56486Y-33143D01*
X56657Y-33214D01*
X56842Y-33215D01*
X57013Y-33144D01*
X57143Y-33013D01*
X57214Y-32842D01*
X57215Y-32657D01*
X57215Y-33752D01*
X57197Y-33735D01*
X57174Y-33725D01*
X57174Y-33724D01*
X57159Y-33647D01*
X57159Y-33647D01*
X57144Y-33626D01*
X57115Y-33582D01*
X57115Y-33582D01*
X56991Y-33458D01*
X56926Y-33415D01*
X56850Y-33400D01*
X55100Y-33400D01*
X55023Y-33415D01*
X54974Y-33448D01*
X54974Y-33448D01*
X54925Y-33415D01*
X54848Y-33400D01*
X53215Y-33400D01*
X53215Y-32657D01*
X53144Y-32486D01*
X53013Y-32356D01*
X52842Y-32285D01*
X52657Y-32284D01*
X52486Y-32355D01*
X52356Y-32486D01*
X52285Y-32657D01*
X52284Y-32842D01*
X52355Y-33013D01*
X52486Y-33143D01*
X52657Y-33214D01*
X52842Y-33215D01*
X53013Y-33144D01*
X53143Y-33013D01*
X53214Y-32842D01*
X53215Y-32657D01*
X53215Y-33400D01*
X53100Y-33400D01*
X53023Y-33415D01*
X52974Y-33448D01*
X52974Y-33448D01*
X52925Y-33415D01*
X52848Y-33400D01*
X51215Y-33400D01*
X51215Y-32657D01*
X51144Y-32486D01*
X51013Y-32356D01*
X50842Y-32285D01*
X50657Y-32284D01*
X50486Y-32355D01*
X50356Y-32486D01*
X50285Y-32657D01*
X50284Y-32842D01*
X50355Y-33013D01*
X50486Y-33143D01*
X50657Y-33214D01*
X50842Y-33215D01*
X51013Y-33144D01*
X51143Y-33013D01*
X51214Y-32842D01*
X51215Y-32657D01*
X51215Y-33400D01*
X51100Y-33400D01*
X51023Y-33415D01*
X50974Y-33448D01*
X50974Y-33448D01*
X50925Y-33415D01*
X50848Y-33400D01*
X49215Y-33400D01*
X49215Y-32657D01*
X49144Y-32486D01*
X49013Y-32356D01*
X48842Y-32285D01*
X48657Y-32284D01*
X48486Y-32355D01*
X48356Y-32486D01*
X48285Y-32657D01*
X48284Y-32842D01*
X48355Y-33013D01*
X48486Y-33143D01*
X48657Y-33214D01*
X48842Y-33215D01*
X49013Y-33144D01*
X49143Y-33013D01*
X49214Y-32842D01*
X49215Y-32657D01*
X49215Y-33400D01*
X49100Y-33400D01*
X49023Y-33415D01*
X48974Y-33448D01*
X48974Y-33448D01*
X48925Y-33415D01*
X48848Y-33400D01*
X47215Y-33400D01*
X47215Y-32657D01*
X47144Y-32486D01*
X47013Y-32356D01*
X46842Y-32285D01*
X46657Y-32284D01*
X46486Y-32355D01*
X46356Y-32486D01*
X46285Y-32657D01*
X46284Y-32842D01*
X46355Y-33013D01*
X46486Y-33143D01*
X46657Y-33214D01*
X46842Y-33215D01*
X47013Y-33144D01*
X47143Y-33013D01*
X47214Y-32842D01*
X47215Y-32657D01*
X47215Y-33400D01*
X47100Y-33400D01*
X47023Y-33415D01*
X46974Y-33448D01*
X46974Y-33448D01*
X46925Y-33415D01*
X46848Y-33400D01*
X45215Y-33400D01*
X45215Y-32657D01*
X45144Y-32486D01*
X45013Y-32356D01*
X44842Y-32285D01*
X44657Y-32284D01*
X44486Y-32355D01*
X44356Y-32486D01*
X44285Y-32657D01*
X44284Y-32842D01*
X44355Y-33013D01*
X44486Y-33143D01*
X44657Y-33214D01*
X44842Y-33215D01*
X45013Y-33144D01*
X45143Y-33013D01*
X45214Y-32842D01*
X45215Y-32657D01*
X45215Y-33400D01*
X45100Y-33400D01*
X45023Y-33415D01*
X44958Y-33458D01*
X44832Y-33584D01*
X44789Y-33649D01*
X44774Y-33725D01*
X44774Y-33725D01*
X44751Y-33735D01*
X44709Y-33777D01*
X44686Y-33832D01*
X44686Y-33892D01*
X44686Y-34167D01*
X44709Y-34222D01*
X44751Y-34264D01*
X44806Y-34287D01*
X44866Y-34287D01*
X45142Y-34287D01*
X45197Y-34264D01*
X45239Y-34222D01*
X45249Y-34197D01*
X45260Y-34222D01*
X45302Y-34264D01*
X45357Y-34287D01*
X45417Y-34287D01*
X45530Y-34287D01*
X45550Y-34307D01*
X45550Y-34579D01*
X45486Y-34605D01*
X45356Y-34736D01*
X45285Y-34907D01*
X45284Y-35092D01*
X45355Y-35263D01*
X45486Y-35393D01*
X45657Y-35464D01*
X45842Y-35465D01*
X46013Y-35394D01*
X46143Y-35263D01*
X46214Y-35092D01*
X46215Y-34907D01*
X46144Y-34736D01*
X46013Y-34606D01*
X45950Y-34579D01*
X45950Y-34224D01*
X45934Y-34147D01*
X45891Y-34082D01*
X45813Y-34004D01*
X45813Y-33832D01*
X45799Y-33800D01*
X46700Y-33800D01*
X46686Y-33832D01*
X46686Y-33892D01*
X46686Y-34167D01*
X46709Y-34222D01*
X46751Y-34264D01*
X46806Y-34287D01*
X46866Y-34287D01*
X47142Y-34287D01*
X47197Y-34264D01*
X47239Y-34222D01*
X47249Y-34197D01*
X47260Y-34222D01*
X47302Y-34264D01*
X47357Y-34287D01*
X47417Y-34287D01*
X47530Y-34287D01*
X47550Y-34307D01*
X47550Y-34579D01*
X47486Y-34605D01*
X47356Y-34736D01*
X47285Y-34907D01*
X47284Y-35092D01*
X47355Y-35263D01*
X47486Y-35393D01*
X47657Y-35464D01*
X47842Y-35465D01*
X48013Y-35394D01*
X48143Y-35263D01*
X48214Y-35092D01*
X48215Y-34907D01*
X48144Y-34736D01*
X48013Y-34606D01*
X47950Y-34579D01*
X47950Y-34224D01*
X47934Y-34147D01*
X47891Y-34082D01*
X47813Y-34004D01*
X47813Y-33832D01*
X47799Y-33800D01*
X48700Y-33800D01*
X48686Y-33832D01*
X48686Y-33892D01*
X48686Y-34167D01*
X48709Y-34222D01*
X48751Y-34264D01*
X48806Y-34287D01*
X48866Y-34287D01*
X49142Y-34287D01*
X49197Y-34264D01*
X49239Y-34222D01*
X49249Y-34197D01*
X49260Y-34222D01*
X49302Y-34264D01*
X49357Y-34287D01*
X49417Y-34287D01*
X49530Y-34287D01*
X49550Y-34307D01*
X49550Y-34579D01*
X49486Y-34605D01*
X49356Y-34736D01*
X49285Y-34907D01*
X49284Y-35092D01*
X49355Y-35263D01*
X49486Y-35393D01*
X49657Y-35464D01*
X49842Y-35465D01*
X50013Y-35394D01*
X50143Y-35263D01*
X50214Y-35092D01*
X50215Y-34907D01*
X50144Y-34736D01*
X50013Y-34606D01*
X49950Y-34579D01*
X49950Y-34224D01*
X49934Y-34147D01*
X49891Y-34082D01*
X49813Y-34004D01*
X49813Y-33832D01*
X49799Y-33800D01*
X50700Y-33800D01*
X50686Y-33832D01*
X50686Y-33892D01*
X50686Y-34167D01*
X50709Y-34222D01*
X50751Y-34264D01*
X50806Y-34287D01*
X50866Y-34287D01*
X51142Y-34287D01*
X51197Y-34264D01*
X51239Y-34222D01*
X51249Y-34197D01*
X51260Y-34222D01*
X51302Y-34264D01*
X51357Y-34287D01*
X51417Y-34287D01*
X51530Y-34287D01*
X51550Y-34307D01*
X51550Y-34579D01*
X51486Y-34605D01*
X51356Y-34736D01*
X51285Y-34907D01*
X51284Y-35092D01*
X51355Y-35263D01*
X51486Y-35393D01*
X51657Y-35464D01*
X51842Y-35465D01*
X52013Y-35394D01*
X52143Y-35263D01*
X52214Y-35092D01*
X52215Y-34907D01*
X52144Y-34736D01*
X52134Y-34726D01*
X52190Y-34749D01*
X52309Y-34750D01*
X52365Y-34726D01*
X52356Y-34736D01*
X52285Y-34907D01*
X52284Y-35092D01*
X52355Y-35263D01*
X52486Y-35393D01*
X52657Y-35464D01*
X52842Y-35465D01*
X53013Y-35394D01*
X53143Y-35263D01*
X53214Y-35092D01*
X53215Y-34907D01*
X53144Y-34736D01*
X53013Y-34606D01*
X52842Y-34535D01*
X52657Y-34534D01*
X52515Y-34593D01*
X52549Y-34509D01*
X52550Y-34432D01*
X52734Y-34248D01*
X52751Y-34264D01*
X52806Y-34287D01*
X52866Y-34287D01*
X53142Y-34287D01*
X53197Y-34264D01*
X53239Y-34222D01*
X53249Y-34197D01*
X53260Y-34222D01*
X53302Y-34264D01*
X53357Y-34287D01*
X53417Y-34287D01*
X53530Y-34287D01*
X53550Y-34307D01*
X53550Y-34579D01*
X53486Y-34605D01*
X53356Y-34736D01*
X53285Y-34907D01*
X53284Y-35092D01*
X53355Y-35263D01*
X53486Y-35393D01*
X53657Y-35464D01*
X53842Y-35465D01*
X54013Y-35394D01*
X54143Y-35263D01*
X54214Y-35092D01*
X54215Y-34907D01*
X54144Y-34736D01*
X54013Y-34606D01*
X53950Y-34579D01*
X53950Y-34224D01*
X53934Y-34147D01*
X53891Y-34082D01*
X53813Y-34004D01*
X53813Y-33832D01*
X53799Y-33800D01*
X54700Y-33800D01*
X54686Y-33832D01*
X54686Y-33892D01*
X54686Y-34167D01*
X54709Y-34222D01*
X54751Y-34264D01*
X54806Y-34287D01*
X54866Y-34287D01*
X55142Y-34287D01*
X55197Y-34264D01*
X55239Y-34222D01*
X55249Y-34197D01*
X55260Y-34222D01*
X55302Y-34264D01*
X55357Y-34287D01*
X55417Y-34287D01*
X55530Y-34287D01*
X55550Y-34307D01*
X55550Y-34579D01*
X55486Y-34605D01*
X55356Y-34736D01*
X55285Y-34907D01*
X55284Y-35092D01*
X55355Y-35263D01*
X55486Y-35393D01*
X55657Y-35464D01*
X55842Y-35465D01*
X56013Y-35394D01*
X56143Y-35263D01*
X56214Y-35092D01*
X56215Y-34907D01*
X56144Y-34736D01*
X56013Y-34606D01*
X55950Y-34579D01*
X55950Y-34224D01*
X55934Y-34147D01*
X55891Y-34082D01*
X55813Y-34004D01*
X55813Y-33832D01*
X55799Y-33800D01*
X56700Y-33800D01*
X56686Y-33832D01*
X56686Y-33892D01*
X56686Y-34167D01*
X56709Y-34222D01*
X56751Y-34264D01*
X56806Y-34287D01*
X56866Y-34287D01*
X57142Y-34287D01*
X57197Y-34264D01*
X57239Y-34222D01*
X57249Y-34197D01*
X57260Y-34222D01*
X57302Y-34264D01*
X57357Y-34287D01*
X57417Y-34287D01*
X57530Y-34287D01*
X57550Y-34307D01*
X57550Y-34579D01*
X57486Y-34605D01*
X57356Y-34736D01*
X57285Y-34907D01*
X57284Y-35092D01*
X57355Y-35263D01*
X57486Y-35393D01*
X57657Y-35464D01*
X57842Y-35465D01*
X58013Y-35394D01*
X58143Y-35263D01*
X58214Y-35092D01*
X58215Y-34907D01*
X58215Y-37157D01*
X58144Y-36986D01*
X58013Y-36856D01*
X57950Y-36829D01*
X57950Y-36474D01*
X57934Y-36397D01*
X57891Y-36332D01*
X57813Y-36254D01*
X57813Y-36082D01*
X57790Y-36027D01*
X57748Y-35985D01*
X57693Y-35962D01*
X57633Y-35962D01*
X57357Y-35962D01*
X57302Y-35985D01*
X57260Y-36027D01*
X57250Y-36052D01*
X57239Y-36027D01*
X57215Y-36002D01*
X57215Y-34907D01*
X57144Y-34736D01*
X57013Y-34606D01*
X56842Y-34535D01*
X56657Y-34534D01*
X56486Y-34605D01*
X56356Y-34736D01*
X56285Y-34907D01*
X56284Y-35092D01*
X56355Y-35263D01*
X56486Y-35393D01*
X56657Y-35464D01*
X56842Y-35465D01*
X57013Y-35394D01*
X57143Y-35263D01*
X57214Y-35092D01*
X57215Y-34907D01*
X57215Y-36002D01*
X57197Y-35985D01*
X57174Y-35975D01*
X57174Y-35974D01*
X57159Y-35897D01*
X57159Y-35897D01*
X57144Y-35876D01*
X57115Y-35832D01*
X57115Y-35832D01*
X56991Y-35708D01*
X56926Y-35665D01*
X56850Y-35650D01*
X55215Y-35650D01*
X55215Y-34907D01*
X55144Y-34736D01*
X55013Y-34606D01*
X54842Y-34535D01*
X54657Y-34534D01*
X54486Y-34605D01*
X54356Y-34736D01*
X54285Y-34907D01*
X54284Y-35092D01*
X54355Y-35263D01*
X54486Y-35393D01*
X54657Y-35464D01*
X54842Y-35465D01*
X55013Y-35394D01*
X55143Y-35263D01*
X55214Y-35092D01*
X55215Y-34907D01*
X55215Y-35650D01*
X55100Y-35650D01*
X55023Y-35665D01*
X54974Y-35698D01*
X54974Y-35698D01*
X54925Y-35665D01*
X54848Y-35650D01*
X53100Y-35650D01*
X53023Y-35665D01*
X52974Y-35697D01*
X52926Y-35665D01*
X52850Y-35650D01*
X51215Y-35650D01*
X51215Y-34907D01*
X51144Y-34736D01*
X51013Y-34606D01*
X50842Y-34535D01*
X50657Y-34534D01*
X50486Y-34605D01*
X50356Y-34736D01*
X50285Y-34907D01*
X50284Y-35092D01*
X50355Y-35263D01*
X50486Y-35393D01*
X50657Y-35464D01*
X50842Y-35465D01*
X51013Y-35394D01*
X51143Y-35263D01*
X51214Y-35092D01*
X51215Y-34907D01*
X51215Y-35650D01*
X51100Y-35650D01*
X51023Y-35665D01*
X50974Y-35697D01*
X50926Y-35665D01*
X50850Y-35650D01*
X49215Y-35650D01*
X49215Y-34907D01*
X49144Y-34736D01*
X49013Y-34606D01*
X48842Y-34535D01*
X48657Y-34534D01*
X48486Y-34605D01*
X48356Y-34736D01*
X48285Y-34907D01*
X48284Y-35092D01*
X48355Y-35263D01*
X48486Y-35393D01*
X48657Y-35464D01*
X48842Y-35465D01*
X49013Y-35394D01*
X49143Y-35263D01*
X49214Y-35092D01*
X49215Y-34907D01*
X49215Y-35650D01*
X49100Y-35650D01*
X49023Y-35665D01*
X48974Y-35698D01*
X48974Y-35698D01*
X48925Y-35665D01*
X48848Y-35650D01*
X47215Y-35650D01*
X47215Y-34907D01*
X47144Y-34736D01*
X47013Y-34606D01*
X46842Y-34535D01*
X46657Y-34534D01*
X46486Y-34605D01*
X46356Y-34736D01*
X46285Y-34907D01*
X46284Y-35092D01*
X46355Y-35263D01*
X46486Y-35393D01*
X46657Y-35464D01*
X46842Y-35465D01*
X47013Y-35394D01*
X47143Y-35263D01*
X47214Y-35092D01*
X47215Y-34907D01*
X47215Y-35650D01*
X47100Y-35650D01*
X47023Y-35665D01*
X46974Y-35698D01*
X46974Y-35698D01*
X46925Y-35665D01*
X46848Y-35650D01*
X45215Y-35650D01*
X45215Y-34907D01*
X45144Y-34736D01*
X45013Y-34606D01*
X44842Y-34535D01*
X44657Y-34534D01*
X44486Y-34605D01*
X44356Y-34736D01*
X44285Y-34907D01*
X44284Y-35092D01*
X44355Y-35263D01*
X44486Y-35393D01*
X44657Y-35464D01*
X44842Y-35465D01*
X45013Y-35394D01*
X45143Y-35263D01*
X45214Y-35092D01*
X45215Y-34907D01*
X45215Y-35650D01*
X45100Y-35650D01*
X45023Y-35665D01*
X44958Y-35708D01*
X44832Y-35834D01*
X44789Y-35899D01*
X44774Y-35975D01*
X44774Y-35975D01*
X44751Y-35985D01*
X44709Y-36027D01*
X44686Y-36082D01*
X44686Y-36142D01*
X44686Y-36417D01*
X44709Y-36472D01*
X44751Y-36514D01*
X44806Y-36537D01*
X44866Y-36537D01*
X45142Y-36537D01*
X45197Y-36514D01*
X45239Y-36472D01*
X45249Y-36447D01*
X45260Y-36472D01*
X45302Y-36514D01*
X45357Y-36537D01*
X45417Y-36537D01*
X45530Y-36537D01*
X45550Y-36557D01*
X45550Y-36829D01*
X45486Y-36855D01*
X45356Y-36986D01*
X45285Y-37157D01*
X45284Y-37342D01*
X45355Y-37513D01*
X45486Y-37643D01*
X45657Y-37714D01*
X45842Y-37715D01*
X46013Y-37644D01*
X46143Y-37513D01*
X46214Y-37342D01*
X46215Y-37157D01*
X46144Y-36986D01*
X46013Y-36856D01*
X45950Y-36829D01*
X45950Y-36474D01*
X45934Y-36397D01*
X45891Y-36332D01*
X45813Y-36254D01*
X45813Y-36082D01*
X45799Y-36050D01*
X46700Y-36050D01*
X46686Y-36082D01*
X46686Y-36142D01*
X46686Y-36417D01*
X46709Y-36472D01*
X46751Y-36514D01*
X46806Y-36537D01*
X46866Y-36537D01*
X47142Y-36537D01*
X47197Y-36514D01*
X47239Y-36472D01*
X47249Y-36447D01*
X47260Y-36472D01*
X47302Y-36514D01*
X47357Y-36537D01*
X47417Y-36537D01*
X47530Y-36537D01*
X47550Y-36557D01*
X47550Y-36829D01*
X47486Y-36855D01*
X47356Y-36986D01*
X47285Y-37157D01*
X47284Y-37342D01*
X47355Y-37513D01*
X47486Y-37643D01*
X47657Y-37714D01*
X47842Y-37715D01*
X48013Y-37644D01*
X48143Y-37513D01*
X48214Y-37342D01*
X48215Y-37157D01*
X48144Y-36986D01*
X48013Y-36856D01*
X47950Y-36829D01*
X47950Y-36474D01*
X47934Y-36397D01*
X47891Y-36332D01*
X47813Y-36254D01*
X47813Y-36082D01*
X47799Y-36050D01*
X48700Y-36050D01*
X48686Y-36082D01*
X48686Y-36142D01*
X48686Y-36417D01*
X48709Y-36472D01*
X48751Y-36514D01*
X48806Y-36537D01*
X48866Y-36537D01*
X49142Y-36537D01*
X49197Y-36514D01*
X49239Y-36472D01*
X49249Y-36447D01*
X49260Y-36472D01*
X49302Y-36514D01*
X49357Y-36537D01*
X49417Y-36537D01*
X49530Y-36537D01*
X49550Y-36557D01*
X49550Y-36829D01*
X49486Y-36855D01*
X49356Y-36986D01*
X49285Y-37157D01*
X49284Y-37342D01*
X49355Y-37513D01*
X49486Y-37643D01*
X49657Y-37714D01*
X49842Y-37715D01*
X50013Y-37644D01*
X50143Y-37513D01*
X50214Y-37342D01*
X50215Y-37157D01*
X50144Y-36986D01*
X50013Y-36856D01*
X49950Y-36829D01*
X49950Y-36474D01*
X49934Y-36397D01*
X49891Y-36332D01*
X49813Y-36254D01*
X49813Y-36082D01*
X49799Y-36050D01*
X50700Y-36050D01*
X50686Y-36082D01*
X50686Y-36142D01*
X50686Y-36417D01*
X50709Y-36472D01*
X50751Y-36514D01*
X50774Y-36524D01*
X50774Y-36524D01*
X50789Y-36600D01*
X50832Y-36665D01*
X51050Y-36882D01*
X51050Y-36892D01*
X51013Y-36856D01*
X50842Y-36785D01*
X50657Y-36784D01*
X50486Y-36855D01*
X50356Y-36986D01*
X50285Y-37157D01*
X50284Y-37342D01*
X50355Y-37513D01*
X50486Y-37643D01*
X50657Y-37714D01*
X50842Y-37715D01*
X51013Y-37644D01*
X51050Y-37607D01*
X51050Y-37725D01*
X51037Y-37731D01*
X50994Y-37773D01*
X50972Y-37828D01*
X50972Y-37888D01*
X50972Y-38300D01*
X50500Y-38300D01*
X50423Y-38315D01*
X50358Y-38358D01*
X50008Y-38708D01*
X49965Y-38773D01*
X49950Y-38850D01*
X49950Y-38967D01*
X49901Y-39015D01*
X49901Y-38995D01*
X49901Y-38870D01*
X49901Y-38694D01*
X49879Y-38639D01*
X49836Y-38597D01*
X49781Y-38574D01*
X49722Y-38574D01*
X49686Y-38574D01*
X49649Y-38611D01*
X49649Y-38908D01*
X49864Y-38908D01*
X49901Y-38870D01*
X49901Y-38995D01*
X49864Y-38958D01*
X49649Y-38958D01*
X49649Y-39254D01*
X49655Y-39261D01*
X49599Y-39318D01*
X49599Y-39254D01*
X49599Y-38958D01*
X49599Y-38908D01*
X49599Y-38611D01*
X49561Y-38574D01*
X49525Y-38574D01*
X49466Y-38574D01*
X49411Y-38597D01*
X49368Y-38639D01*
X49346Y-38694D01*
X49346Y-38870D01*
X49383Y-38908D01*
X49599Y-38908D01*
X49599Y-38958D01*
X49383Y-38958D01*
X49346Y-38995D01*
X49346Y-39171D01*
X49368Y-39226D01*
X49411Y-39268D01*
X49466Y-39291D01*
X49525Y-39291D01*
X49561Y-39291D01*
X49599Y-39254D01*
X49599Y-39318D01*
X49158Y-39758D01*
X48942Y-39975D01*
X48899Y-39975D01*
X48904Y-39970D01*
X48949Y-39859D01*
X48950Y-39740D01*
X48904Y-39630D01*
X48853Y-39579D01*
X49017Y-39415D01*
X49017Y-39415D01*
X49060Y-39350D01*
X49075Y-39274D01*
X49088Y-39268D01*
X49131Y-39226D01*
X49153Y-39171D01*
X49153Y-39111D01*
X49153Y-38694D01*
X49131Y-38639D01*
X49088Y-38597D01*
X49033Y-38574D01*
X48974Y-38574D01*
X48718Y-38574D01*
X48663Y-38597D01*
X48625Y-38635D01*
X48625Y-38482D01*
X48840Y-38266D01*
X48972Y-38266D01*
X48972Y-38305D01*
X48994Y-38360D01*
X49037Y-38402D01*
X49092Y-38425D01*
X49151Y-38425D01*
X49407Y-38425D01*
X49462Y-38402D01*
X49505Y-38360D01*
X49527Y-38305D01*
X49527Y-38245D01*
X49527Y-37828D01*
X49505Y-37773D01*
X49462Y-37731D01*
X49407Y-37708D01*
X49348Y-37708D01*
X49215Y-37708D01*
X49215Y-37157D01*
X49144Y-36986D01*
X49013Y-36856D01*
X48842Y-36785D01*
X48657Y-36784D01*
X48486Y-36855D01*
X48356Y-36986D01*
X48285Y-37157D01*
X48284Y-37342D01*
X48355Y-37513D01*
X48486Y-37643D01*
X48657Y-37714D01*
X48842Y-37715D01*
X49013Y-37644D01*
X49143Y-37513D01*
X49214Y-37342D01*
X49215Y-37157D01*
X49215Y-37708D01*
X49092Y-37708D01*
X49037Y-37731D01*
X48994Y-37773D01*
X48972Y-37828D01*
X48972Y-37866D01*
X48758Y-37866D01*
X48681Y-37882D01*
X48616Y-37925D01*
X48283Y-38258D01*
X48240Y-38323D01*
X48225Y-38400D01*
X48225Y-38492D01*
X47658Y-37925D01*
X47593Y-37882D01*
X47527Y-37869D01*
X47527Y-37828D01*
X47505Y-37773D01*
X47462Y-37731D01*
X47407Y-37708D01*
X47348Y-37708D01*
X47215Y-37708D01*
X47215Y-37157D01*
X47144Y-36986D01*
X47013Y-36856D01*
X46842Y-36785D01*
X46657Y-36784D01*
X46486Y-36855D01*
X46356Y-36986D01*
X46285Y-37157D01*
X46284Y-37342D01*
X46355Y-37513D01*
X46486Y-37643D01*
X46657Y-37714D01*
X46842Y-37715D01*
X47013Y-37644D01*
X47143Y-37513D01*
X47214Y-37342D01*
X47215Y-37157D01*
X47215Y-37708D01*
X47092Y-37708D01*
X47037Y-37731D01*
X46994Y-37773D01*
X46972Y-37828D01*
X46972Y-37888D01*
X46972Y-38305D01*
X46994Y-38360D01*
X47037Y-38402D01*
X47092Y-38425D01*
X47151Y-38425D01*
X47407Y-38425D01*
X47462Y-38402D01*
X47505Y-38360D01*
X47511Y-38344D01*
X47741Y-38574D01*
X47722Y-38574D01*
X47686Y-38574D01*
X47649Y-38611D01*
X47649Y-38908D01*
X47864Y-38908D01*
X47901Y-38870D01*
X47901Y-38734D01*
X48000Y-38832D01*
X48000Y-39050D01*
X48000Y-39217D01*
X47901Y-39315D01*
X47901Y-39171D01*
X47901Y-38995D01*
X47864Y-38958D01*
X47649Y-38958D01*
X47649Y-39254D01*
X47686Y-39291D01*
X47722Y-39291D01*
X47781Y-39291D01*
X47836Y-39268D01*
X47879Y-39226D01*
X47901Y-39171D01*
X47901Y-39315D01*
X47717Y-39500D01*
X47640Y-39499D01*
X47599Y-39517D01*
X47599Y-39254D01*
X47599Y-38958D01*
X47599Y-38908D01*
X47599Y-38611D01*
X47561Y-38574D01*
X47525Y-38574D01*
X47466Y-38574D01*
X47411Y-38597D01*
X47368Y-38639D01*
X47346Y-38694D01*
X47346Y-38870D01*
X47383Y-38908D01*
X47599Y-38908D01*
X47599Y-38958D01*
X47383Y-38958D01*
X47346Y-38995D01*
X47346Y-39171D01*
X47368Y-39226D01*
X47411Y-39268D01*
X47466Y-39291D01*
X47525Y-39291D01*
X47561Y-39291D01*
X47599Y-39254D01*
X47599Y-39517D01*
X47530Y-39545D01*
X47445Y-39629D01*
X47400Y-39740D01*
X47399Y-39859D01*
X47445Y-39969D01*
X47491Y-40015D01*
X46885Y-40015D01*
X46830Y-40038D01*
X46788Y-40080D01*
X46765Y-40135D01*
X46765Y-40195D01*
X46765Y-40800D01*
X46635Y-40800D01*
X46660Y-40774D01*
X46734Y-40596D01*
X46734Y-40404D01*
X46661Y-40225D01*
X46524Y-40089D01*
X46467Y-40065D01*
X46482Y-40049D01*
X46559Y-40050D01*
X46669Y-40004D01*
X46754Y-39920D01*
X46799Y-39809D01*
X46800Y-39732D01*
X47017Y-39515D01*
X47060Y-39450D01*
X47075Y-39374D01*
X47075Y-39274D01*
X47088Y-39268D01*
X47131Y-39226D01*
X47153Y-39171D01*
X47153Y-39111D01*
X47153Y-38694D01*
X47131Y-38639D01*
X47088Y-38597D01*
X47033Y-38574D01*
X46974Y-38574D01*
X46718Y-38574D01*
X46663Y-38597D01*
X46620Y-38639D01*
X46598Y-38694D01*
X46598Y-38754D01*
X46598Y-39171D01*
X46620Y-39226D01*
X46663Y-39268D01*
X46675Y-39274D01*
X46675Y-39291D01*
X46517Y-39450D01*
X46440Y-39449D01*
X46330Y-39495D01*
X46299Y-39525D01*
X46300Y-39440D01*
X46254Y-39330D01*
X46170Y-39245D01*
X46059Y-39200D01*
X45940Y-39199D01*
X45879Y-39225D01*
X45901Y-39171D01*
X45901Y-38995D01*
X45901Y-38870D01*
X45901Y-38694D01*
X45879Y-38639D01*
X45836Y-38597D01*
X45781Y-38574D01*
X45722Y-38574D01*
X45686Y-38574D01*
X45649Y-38611D01*
X45649Y-38908D01*
X45864Y-38908D01*
X45901Y-38870D01*
X45901Y-38995D01*
X45864Y-38958D01*
X45649Y-38958D01*
X45649Y-39254D01*
X45686Y-39291D01*
X45722Y-39291D01*
X45781Y-39291D01*
X45785Y-39290D01*
X45775Y-39300D01*
X45599Y-39300D01*
X45599Y-39254D01*
X45599Y-38958D01*
X45599Y-38908D01*
X45599Y-38611D01*
X45561Y-38574D01*
X45525Y-38574D01*
X45466Y-38574D01*
X45411Y-38597D01*
X45368Y-38639D01*
X45346Y-38694D01*
X45346Y-38870D01*
X45383Y-38908D01*
X45599Y-38908D01*
X45599Y-38958D01*
X45383Y-38958D01*
X45346Y-38995D01*
X45346Y-39171D01*
X45368Y-39226D01*
X45411Y-39268D01*
X45466Y-39291D01*
X45525Y-39291D01*
X45561Y-39291D01*
X45599Y-39254D01*
X45599Y-39300D01*
X45332Y-39300D01*
X45153Y-39121D01*
X45153Y-39111D01*
X45153Y-38694D01*
X45131Y-38639D01*
X45088Y-38597D01*
X45033Y-38574D01*
X44974Y-38574D01*
X44750Y-38574D01*
X44750Y-38382D01*
X44865Y-38266D01*
X44972Y-38266D01*
X44972Y-38305D01*
X44994Y-38360D01*
X45037Y-38402D01*
X45092Y-38425D01*
X45151Y-38425D01*
X45407Y-38425D01*
X45462Y-38402D01*
X45505Y-38360D01*
X45527Y-38305D01*
X45527Y-38245D01*
X45527Y-37828D01*
X45505Y-37773D01*
X45462Y-37731D01*
X45407Y-37708D01*
X45348Y-37708D01*
X45215Y-37708D01*
X45215Y-37157D01*
X45144Y-36986D01*
X45013Y-36856D01*
X44842Y-36785D01*
X44657Y-36784D01*
X44486Y-36855D01*
X44356Y-36986D01*
X44285Y-37157D01*
X44284Y-37342D01*
X44355Y-37513D01*
X44486Y-37643D01*
X44657Y-37714D01*
X44842Y-37715D01*
X45013Y-37644D01*
X45143Y-37513D01*
X45214Y-37342D01*
X45215Y-37157D01*
X45215Y-37708D01*
X45092Y-37708D01*
X45037Y-37731D01*
X44994Y-37773D01*
X44972Y-37828D01*
X44972Y-37866D01*
X44783Y-37866D01*
X44719Y-37879D01*
X44706Y-37882D01*
X44641Y-37925D01*
X44408Y-38158D01*
X44365Y-38223D01*
X44350Y-38300D01*
X44350Y-44067D01*
X44169Y-44247D01*
X44169Y-29169D01*
X61330Y-29169D01*
X61330Y-52830D01*
M02*
